<?xml version="1.0" encoding="utf-8"?>
<!-- Generator: Adobe Illustrator 25.2.0, SVG Export Plug-In . SVG Version: 6.00 Build 0)  -->
<svg version="1.1" id="Layer_1" xmlns="http://www.w3.org/2000/svg" xmlns:xlink="http://www.w3.org/1999/xlink" x="0px" y="0px"
	 viewBox="0 0 283.46 283.46" style="enable-background:new 0 0 283.46 283.46;" xml:space="preserve">
<style type="text/css">
	.st0{fill:#00B14C;}
</style>
<g>
	<g>
		<path class="st0" d="M25.38,88.66c0.49-1.02,0.74-2.41,0.74-4.17V24.78c0-1.83-0.21-3.17-0.63-4.01
			c-0.42-0.84-1.13-1.44-2.11-1.79c-0.42-0.14-0.63-0.35-0.63-0.63c0-0.21,0.11-0.37,0.32-0.47s0.42-0.12,0.63-0.05
			c0.91,0.21,6.16,0.32,15.72,0.32H45c8.02,0,12.56-0.11,13.61-0.32c0.42-0.07,0.91-0.25,1.48-0.53c0.56-0.28,0.88-0.39,0.95-0.32
			c0.07,0.07,0.11,0.18,0.11,0.32c0,0.42-0.18,0.92-0.53,1.48c-0.42,0.84-0.63,1.48-0.63,1.9c0.07,0.42,0.3,1.36,0.69,2.8
			c0.39,1.44,0.58,2.94,0.58,4.48c0,1.62-0.21,2.92-0.63,3.9c-0.42,0.92-0.84,1.37-1.27,1.37c-0.35,0-0.53-0.17-0.53-0.53l0.11-1.16
			c0.07-0.42,0.11-1.09,0.11-2c0-2.74-0.79-4.96-2.37-6.65c-1.58-1.69-3.85-2.57-6.81-2.64l-6.12-0.11l-11.82-0.21
			c-0.14,0-0.28,0.07-0.42,0.21c-0.14,0.14-0.21,0.32-0.21,0.53v22.69h10.45c1.33,0,2.46-0.44,3.38-1.32
			c0.91-0.88,1.37-1.99,1.37-3.32c0-0.63-0.11-1.27-0.32-1.9c-0.14-0.49-0.07-0.77,0.21-0.84c0.35-0.14,0.6,0,0.74,0.42
			c0.49,1.55,0.74,3.34,0.74,5.38c0,0.28,0.04,0.72,0.11,1.32c0.07,0.6,0.14,1.04,0.21,1.32c0.35,1.83,1.09,4.08,2.22,6.75
			c0.35,0.78,0.35,1.2,0,1.27h-0.11c-0.35,0-0.63-0.21-0.84-0.63c-0.21-0.42-0.32-0.67-0.32-0.74c-0.78-1.69-1.64-3.02-2.58-4.01
			c-0.95-0.98-2.2-1.48-3.75-1.48h-11.5v43.16c0,0.14,0.07,0.28,0.21,0.42c0.14,0.14,0.28,0.21,0.42,0.21h9.07l7.07-0.11
			c3.94,0,6.89-0.54,8.86-1.64c1.97-1.09,3.62-2.51,4.96-4.27c1.05-1.62,1.97-3.09,2.74-4.43c0.21-0.35,0.46-0.77,0.74-1.27
			c0.28-0.49,0.56-0.95,0.84-1.37c0.42-0.56,0.77-0.84,1.05-0.84c0.28,0,0.42,0.14,0.42,0.42c0,0.28-0.46,1.44-1.37,3.48L64,84.92
			c-0.7,1.69-1.18,3.24-1.42,4.64c-0.25,1.41-0.41,2.29-0.47,2.64c-0.07,0.35-0.3,0.63-0.69,0.84c-0.39,0.21-0.79,0.25-1.21,0.11
			c-1.55-0.35-3.73-0.69-6.54-1c-2.81-0.32-5.77-0.47-8.86-0.47h-11.5c-4.01,0-7.25,0.11-9.71,0.32c-0.49,0-0.77-0.07-0.84-0.21
			c-0.14-0.35,0-0.63,0.42-0.84C24.15,90.44,24.88,89.69,25.38,88.66z"/>
		<path class="st0" d="M125.28,91.62c0,0.21-0.21,0.32-0.63,0.32c-0.21,0-0.56-0.05-1.06-0.16s-1.09-0.16-1.79-0.16
			c-0.35,0-0.76,0.05-1.21,0.16c-0.46,0.11-0.93,0.16-1.42,0.16c-1.05,0-1.76-0.21-2.11-0.63c-0.42-0.49-0.63-1.23-0.63-2.22
			c0-0.49,0.04-1.06,0.11-1.69c0.07-0.63,0.11-1.3,0.11-2v-3.27c-1.62,2.81-4.05,5.29-7.28,7.44c-3.24,2.15-7.39,3.22-12.45,3.22
			c-3.73,0-7.25-0.69-10.55-2.06c-3.31-1.37-6.01-3.55-8.12-6.54c-2.11-2.99-3.17-6.73-3.17-11.24V24.94c0-1.76-0.26-3.11-0.79-4.06
			c-0.53-0.95-1.32-1.67-2.37-2.16c-0.28-0.14-0.42-0.32-0.42-0.53c0-0.28,0.17-0.42,0.53-0.42l2.43,0.11
			c1.41,0.14,2.46,0.21,3.17,0.21c0.56,0,1.55-0.07,2.95-0.21l2.11-0.11c0.35,0,0.53,0.14,0.53,0.42c0,0.21-0.18,0.42-0.53,0.63
			c-1.06,0.56-1.74,1.3-2.06,2.22c-0.32,0.92-0.47,2.22-0.47,3.9l0.11,47.27c0,5.84,1.69,10.27,5.06,13.29
			c3.38,3.03,7.84,4.54,13.4,4.54c3.31,0,6.33-0.7,9.07-2.11c2.74-1.41,4.91-3.18,6.49-5.33c1.58-2.15,2.37-4.27,2.37-6.38V24.94
			c0-1.69-0.16-2.99-0.47-3.9c-0.32-0.91-1-1.65-2.06-2.22c-0.35-0.21-0.53-0.42-0.53-0.63c0-0.28,0.17-0.42,0.53-0.42l2.11,0.11
			c1.41,0.14,2.39,0.21,2.95,0.21c0.7,0,1.76-0.07,3.17-0.21l2.43-0.11c0.35,0,0.53,0.14,0.53,0.42c0,0.21-0.14,0.39-0.42,0.53
			c-1.05,0.49-1.85,1.21-2.37,2.16c-0.53,0.95-0.79,2.3-0.79,4.06v60.14c0,1.69,0.25,2.97,0.74,3.85c0.49,0.88,1.2,1.53,2.11,1.95
			C125.04,91.1,125.28,91.34,125.28,91.62z"/>
		<path class="st0" d="M151.11,88.4c-5.77-3.45-10.32-8.07-13.66-13.88c-3.34-5.8-5.01-12.15-5.01-19.05
			c0-7.24,1.69-13.82,5.07-19.73c3.38-5.91,7.93-10.57,13.66-13.98c5.73-3.41,12.01-5.12,18.83-5.12c2.81,0,5.7,0.33,8.65,1
			c2.96,0.67,6.12,1.53,9.5,2.58c1.41,0.49,2.5,0.81,3.27,0.95c0.84,0.14,1.51,0.21,2,0.21c0.91,0,1.74-0.12,2.48-0.37
			c0.74-0.25,1.28-0.54,1.64-0.9c0.21-0.35,0.46-0.53,0.74-0.53c0.21,0,0.33,0.14,0.37,0.42c0.04,0.28,0.02,0.49-0.05,0.63
			c-0.35,0.56-0.77,1.18-1.27,1.85c-0.49,0.67-0.86,1.25-1.11,1.74c-0.25,0.49-0.37,0.99-0.37,1.48c0,0.21,0.07,0.53,0.21,0.95
			c0.63,1.9,0.95,3.8,0.95,5.7c0,2.39-0.39,4.5-1.16,6.33c-0.42,1.13-0.95,1.48-1.58,1.05c-0.21-0.14-0.25-0.49-0.11-1.05
			c0.35-1.41,0.53-2.64,0.53-3.69c0-3.23-1.2-6.12-3.59-8.65c-2.39-2.53-5.5-4.5-9.34-5.91c-3.83-1.41-7.79-2.11-11.87-2.11
			c-5.91,0-11.33,1.53-16.25,4.59c-4.93,3.06-8.81,7.18-11.66,12.35c-2.85,5.17-4.27,10.78-4.27,16.83c0,7.25,1.56,13.88,4.7,19.89
			c3.13,6.01,7.35,10.76,12.66,14.24c5.31,3.48,11.06,5.22,17.25,5.22c6.05,0,11.47-1.3,16.25-3.9c2.25-1.2,4.27-2.69,6.07-4.48
			c1.79-1.79,3.15-3.75,4.06-5.86c0.21-0.49,0.69-1.05,1.11-1c0.57,0.06,0.73,0.45,0.68,0.79c-0.09,0.6-0.53,1.35-0.63,1.58
			c-2.39,4.71-6.14,8.39-11.24,11.03c-5.1,2.64-11.27,3.96-18.52,3.96C163.21,93.57,156.88,91.85,151.11,88.4z"/>
		<path class="st0" d="M260.78,91.46c0,0.35-0.32,0.53-0.95,0.53c-0.21,0-0.97-0.05-2.27-0.16c-1.3-0.11-2.48-0.16-3.54-0.16
			c-1.05,0-2.36,0.05-3.9,0.16c-1.55,0.11-2.46,0.16-2.74,0.16c-0.7,0-1.05-0.17-1.05-0.53c0-0.28,0.35-0.53,1.05-0.74
			c1.34-0.42,2-1.2,2-2.32c0-0.77-0.46-2.25-1.37-4.43l-3.27-8.02h-32.82l-0.21,0.42l-3.48,7.81c-0.63,1.55-0.95,2.78-0.95,3.69
			c0,0.78,0.19,1.37,0.58,1.79c0.39,0.42,1,0.77,1.85,1.05c0.63,0.21,0.95,0.46,0.95,0.74c0,0.35-0.32,0.53-0.95,0.53
			c-0.21,0-0.92-0.05-2.11-0.16c-1.2-0.11-2.25-0.16-3.17-0.16c-0.92,0-1.97,0.05-3.17,0.16c-1.2,0.11-1.86,0.16-2,0.16
			c-0.49,0-0.74-0.14-0.74-0.42c0-0.28,0.35-0.6,1.05-0.95c2.74-1.41,4.61-3.31,5.59-5.7l21.95-50.96c0.14-0.21,0.14-0.42,0-0.63
			l-3.48-8.34c-1.62-3.87-3.48-5.84-5.59-5.91c-0.56,0-0.92-0.17-1.06-0.53v-0.21c0-0.21,0.09-0.37,0.26-0.47
			c0.17-0.11,0.33-0.16,0.47-0.16c0.21,0,0.79,0.07,1.74,0.21c0.95,0.14,1.85,0.21,2.69,0.21c1.33,0,2.85-0.32,4.54-0.95
			c0.14-0.07,0.28-0.05,0.42,0.05c0.14,0.11,0.21,0.23,0.21,0.37c0,2.18,1.2,6.4,3.59,12.66c0.98,2.53,2.37,5.89,4.17,10.08
			c1.79,4.19,3.08,7.23,3.85,9.13l2.22,5.06l13.29,30.28c0.7,1.48,1.55,2.71,2.53,3.69c0.98,0.99,1.93,1.65,2.85,2
			C260.46,90.79,260.78,91.11,260.78,91.46z M243.69,73.63L228.49,36.8l-15.62,36.83H243.69z"/>
		<path class="st0" d="M59.09,166.2c-0.53,1.44-1.39,3.64-2.58,6.59c-0.99,2.39-1.62,4.43-1.9,6.12c-0.21,1.2-0.49,1.79-0.84,1.79
			c-0.21,0-0.41-0.32-0.58-0.95c-0.18-0.63-0.62-1.02-1.32-1.16c-1.9-0.35-5.49-0.53-10.76-0.53h-7.81c-2.74,0-5.98,0.11-9.71,0.32
			c-0.49,0-0.78-0.07-0.84-0.21c-0.14-0.35,0-0.63,0.42-0.84c0.98-0.49,1.72-1.25,2.22-2.27c0.49-1.02,0.74-2.41,0.74-4.17v-59.51
			c0-1.69-0.16-2.99-0.47-3.9c-0.32-0.91-1-1.65-2.06-2.22c-0.35-0.21-0.53-0.42-0.53-0.63c0-0.28,0.17-0.42,0.53-0.42l2.11,0.11
			c1.41,0.14,2.39,0.21,2.95,0.21c0.63,0,1.72-0.07,3.27-0.21l2.43-0.11c0.35,0,0.53,0.14,0.53,0.42c0,0.21-0.14,0.39-0.42,0.53
			c-1.06,0.56-1.85,1.3-2.37,2.22c-0.53,0.92-0.79,2.25-0.79,4.01v63.73c0,0.14,0.07,0.28,0.21,0.42c0.14,0.14,0.28,0.21,0.42,0.21
			h14.35c2.74,0,5.07-0.98,6.96-2.96c1.9-1.97,3.62-4.75,5.17-8.33c0.28-0.56,0.63-0.74,1.05-0.53
			C59.74,164.01,59.62,164.76,59.09,166.2z"/>
		<path class="st0" d="M108.52,104.53c0,0.21-0.32,0.46-0.95,0.74c-1.2,0.56-2.13,1.23-2.8,2c-0.67,0.77-1.57,2.18-2.69,4.22
			l-21.31,38.83c-0.28,0.56-0.42,0.99-0.42,1.27v19.63c0,1.69,0.16,2.99,0.47,3.9s1,1.65,2.06,2.22c0.35,0.14,0.53,0.35,0.53,0.63
			c0,0.28-0.18,0.42-0.53,0.42l-2.11-0.11c-1.27-0.14-2.22-0.21-2.85-0.21c-0.56,0-1.55,0.07-2.96,0.21l-2.11,0.11
			c-0.35,0-0.53-0.14-0.53-0.42c0-0.28,0.17-0.49,0.53-0.63c1.06-0.56,1.74-1.3,2.06-2.22s0.47-2.22,0.47-3.9v-19.73
			c0-0.42-0.11-0.84-0.32-1.27l-21.1-38.94c-0.92-1.69-1.74-2.95-2.48-3.8c-0.74-0.84-1.78-1.58-3.11-2.22
			c-0.07,0-0.25-0.07-0.53-0.21c-0.28-0.14-0.46-0.28-0.53-0.42c-0.07-0.28,0.11-0.42,0.53-0.42l2.22,0.11
			c1.12,0.14,2.11,0.21,2.95,0.21c1.06,0,2.13-0.05,3.22-0.16c1.09-0.11,1.88-0.16,2.37-0.16c0.56,0,0.88,0.11,0.95,0.32
			c0.07,0.14-0.11,0.32-0.53,0.53c-0.84,0.35-1.27,0.99-1.27,1.9c0,1.06,0.53,2.5,1.58,4.33l19.84,37.04l19.84-35.98
			c1.2-2.18,1.79-3.8,1.79-4.85c0-1.06-0.56-1.83-1.69-2.32c-0.42-0.21-0.63-0.39-0.63-0.53c0-0.28,0.25-0.42,0.74-0.42l2.32,0.11
			c1.27,0.14,2.15,0.21,2.64,0.21c0.63,0,1.28-0.05,1.95-0.16c0.67-0.11,1.28-0.16,1.85-0.16
			C108.35,104.21,108.52,104.32,108.52,104.53z M47.85,105.06c-0.28-0.14-0.46-0.28-0.53-0.42c-0.07-0.28,0.11-0.42,0.53-0.42
			l2.22,0.11c1.12,0.14,2.11,0.21,2.95,0.21c1.06,0,2.13-0.05,3.22-0.16c1.09-0.11,1.88-0.16,2.37-0.16c0.56,0,0.88,0.11,0.95,0.32
			c0.07,0.14-0.11,0.32-0.53,0.53C51.86,105.2,48.13,105.2,47.85,105.06z"/>
		<path class="st0" d="M143.39,107.7c4.75,2.32,8.41,5.64,10.97,9.97c2.57,4.33,3.85,9.44,3.85,15.35c0,4.85-1.27,9.46-3.8,13.82
			c-2.53,4.36-6.09,7.88-10.66,10.55c-4.57,2.67-9.71,4.01-15.41,4.01c-2.88,0-5.03-0.03-6.44-0.11c-0.56,0-0.84-0.21-0.84-0.63
			c0-0.49,0.28-0.74,0.84-0.74c1.2,0.07,3.02,0.11,5.49,0.11c8.3,0,14.61-2.43,18.94-7.28c4.33-4.85,6.49-11.89,6.49-21.1
			c0-4.71-1-8.99-3.01-12.82c-2-3.83-5-6.88-8.97-9.13c-3.98-2.25-8.74-3.38-14.3-3.38c-2.18,0-3.78,0.12-4.8,0.37
			c-1.02,0.25-1.53,1-1.53,2.27v62.25c0,1.69,0.16,2.99,0.48,3.9c0.32,0.91,1,1.65,2.06,2.22c0.35,0.14,0.53,0.35,0.53,0.63
			c0,0.28-0.18,0.42-0.53,0.42l-2.11-0.11c-1.27-0.14-2.22-0.21-2.85-0.21c-0.56,0-1.55,0.07-2.95,0.21l-2.11,0.11
			c-0.35,0-0.53-0.14-0.53-0.42c0-0.28,0.17-0.49,0.53-0.63c1.05-0.56,1.74-1.3,2.06-2.22s0.47-2.22,0.47-3.9v-60.46
			c0-1.76-0.19-3.02-0.58-3.8c-0.39-0.77-1.11-1.41-2.16-1.9c-0.35-0.21-0.53-0.42-0.53-0.63s0.17-0.32,0.53-0.32
			c0.35,0,1.04,0.05,2.06,0.16c1.02,0.11,2.09,0.19,3.22,0.26c1.48,0,3.13-0.07,4.96-0.21l3.9-0.11
			C133.07,104.21,138.65,105.37,143.39,107.7z"/>
		<path class="st0" d="M203.38,110.02c0,0.28-0.11,0.42-0.32,0.42s-0.39-0.07-0.53-0.21c-1.34-1.34-2.94-2.27-4.8-2.8
			c-1.87-0.53-4.77-0.79-8.71-0.79h-6.23v64.58c0,1.69,0.16,2.99,0.47,3.9s1,1.65,2.06,2.22c0.35,0.14,0.53,0.35,0.53,0.63
			c0,0.28-0.18,0.42-0.53,0.42l-2.11-0.11c-1.41-0.14-2.39-0.21-2.95-0.21c-0.56,0-1.55,0.07-2.96,0.21l-2.11,0.11
			c-0.35,0-0.53-0.14-0.53-0.42c0-0.28,0.17-0.49,0.53-0.63c1.06-0.56,1.74-1.3,2.06-2.22s0.47-2.22,0.47-3.9v-64.58h-6.22
			c-3.94,0-6.84,0.26-8.71,0.79c-1.87,0.53-3.47,1.46-4.8,2.8c-0.28,0.28-0.53,0.32-0.74,0.11c-0.14-0.14-0.14-0.35,0-0.63
			c0.28-0.63,0.65-1.14,1.11-1.53c0.46-0.39,1.11-0.86,1.95-1.42c1.06-0.63,1.93-1.27,2.64-1.9c0.7-0.63,1.3-1.48,1.79-2.53
			c0.21-0.42,0.42-0.63,0.63-0.63s0.46,0.32,0.74,0.95c0.35,0.78,1.28,1.29,2.8,1.53c1.51,0.25,4.13,0.37,7.86,0.37h6.96
			c3.73,0,6.35-0.12,7.86-0.37c1.51-0.25,2.44-0.75,2.8-1.53c0.35-0.63,0.6-0.95,0.74-0.95c0.21,0,0.42,0.21,0.63,0.63
			c0.49,1.06,1.09,1.9,1.79,2.53c0.7,0.63,1.58,1.27,2.64,1.9c0.84,0.56,1.49,1.04,1.95,1.42c0.46,0.39,0.83,0.9,1.11,1.53
			C203.34,109.77,203.38,109.88,203.38,110.02z"/>
		<path class="st0" d="M260.78,178.07c0,0.21-0.21,0.32-0.63,0.32c-0.21,0-0.56-0.05-1.06-0.16s-1.09-0.16-1.79-0.16
			c-0.35,0-0.76,0.05-1.21,0.16c-0.46,0.11-0.93,0.16-1.42,0.16c-1.05,0-1.76-0.21-2.11-0.63c-0.42-0.49-0.63-1.23-0.63-2.22
			c0-0.49,0.04-1.06,0.11-1.69c0.07-0.63,0.11-1.3,0.11-2v-3.27c-1.62,2.81-4.05,5.29-7.28,7.44c-3.24,2.15-7.39,3.22-12.45,3.22
			c-3.73,0-7.25-0.69-10.55-2.06c-3.31-1.37-6.01-3.55-8.12-6.54c-2.11-2.99-3.17-6.73-3.17-11.24v-48.01
			c0-1.76-0.26-3.11-0.79-4.06c-0.53-0.95-1.32-1.67-2.37-2.16c-0.28-0.14-0.42-0.32-0.42-0.53c0-0.28,0.17-0.42,0.53-0.42
			l2.43,0.11c1.41,0.14,2.46,0.21,3.17,0.21c0.56,0,1.55-0.07,2.95-0.21l2.11-0.11c0.35,0,0.53,0.14,0.53,0.42
			c0,0.21-0.18,0.42-0.53,0.63c-1.06,0.56-1.74,1.3-2.06,2.22c-0.32,0.92-0.47,2.22-0.47,3.9l0.11,47.27
			c0,5.84,1.69,10.27,5.06,13.29c3.38,3.03,7.84,4.54,13.4,4.54c3.31,0,6.33-0.7,9.07-2.11c2.74-1.41,4.91-3.18,6.49-5.33
			c1.58-2.15,2.37-4.27,2.37-6.38v-51.28c0-1.69-0.16-2.99-0.47-3.9c-0.32-0.91-1-1.65-2.06-2.22c-0.35-0.21-0.53-0.42-0.53-0.63
			c0-0.28,0.17-0.42,0.53-0.42l2.11,0.11c1.41,0.14,2.39,0.21,2.95,0.21c0.7,0,1.76-0.07,3.17-0.21l2.43-0.11
			c0.35,0,0.53,0.14,0.53,0.42c0,0.21-0.14,0.39-0.42,0.53c-1.05,0.49-1.85,1.21-2.37,2.16c-0.53,0.95-0.79,2.3-0.79,4.06v60.14
			c0,1.69,0.25,2.97,0.74,3.85c0.49,0.88,1.2,1.53,2.11,1.95C260.53,177.55,260.78,177.79,260.78,178.07z"/>
		<path class="st0" d="M32.7,213.83c1.41,2.18,3.13,3.92,5.17,5.22c2.04,1.3,4.85,2.76,8.44,4.38c4.01,1.9,7.24,3.66,9.71,5.28
			c2.46,1.62,4.54,3.9,6.23,6.86c1.69,2.95,2.53,6.75,2.53,11.4c0,3.03-0.79,6.03-2.37,9.02c-1.58,2.99-3.94,5.47-7.07,7.44
			c-3.13,1.97-6.91,2.96-11.34,2.96c-1.97,0-4.96-0.6-8.97-1.79c-2.67-0.77-4.47-1.16-5.38-1.16c-1.76,0-3.31,0.95-4.64,2.85
			c-0.14,0.21-0.33,0.37-0.58,0.47c-0.25,0.11-0.44,0.09-0.58-0.05c-0.28-0.28-0.32-0.63-0.11-1.06c0.07-0.14,0.33-0.67,0.79-1.58
			c0.46-0.91,0.69-1.93,0.69-3.06c0-0.35-0.07-0.81-0.21-1.37c-0.7-2.32-1.06-4.57-1.06-6.75c0-2.18,0.39-3.94,1.16-5.28
			c0.07-0.14,0.17-0.25,0.32-0.32c0.14-0.07,0.25-0.07,0.32,0c0.35,0.14,0.42,0.42,0.21,0.84c-0.35,0.7-0.53,1.58-0.53,2.64
			c0,2.18,0.95,4.36,2.85,6.54c1.9,2.18,4.27,3.96,7.12,5.33c2.85,1.37,5.64,2.06,8.39,2.06c4.99,0,9.06-1.46,12.19-4.38
			c3.13-2.92,4.7-6.95,4.7-12.08c0-3.52-0.76-6.47-2.27-8.86c-1.51-2.39-3.39-4.31-5.64-5.75c-2.25-1.44-5.24-3.08-8.97-4.91
			c-3.8-1.83-6.84-3.48-9.13-4.96c-2.29-1.48-4.2-3.45-5.75-5.91c-1.55-2.46-2.32-5.49-2.32-9.08c0-3.38,0.75-6.54,2.27-9.5
			c1.51-2.95,3.66-5.33,6.44-7.12c2.78-1.79,5.96-2.69,9.55-2.69c2.67,0,5.63,0.42,8.86,1.27c1.2,0.35,2,0.53,2.43,0.53
			s0.95-0.21,1.58-0.63s1.12-0.91,1.48-1.48c0.14-0.21,0.32-0.32,0.53-0.32s0.33,0.11,0.37,0.32c0.03,0.21,0.02,0.39-0.05,0.53
			c-0.56,1.13-0.84,2.25-0.84,3.38c0,0.63,0.14,1.58,0.42,2.85c0.28,1.27,0.42,2.25,0.42,2.95c0,1.27-0.32,2.5-0.95,3.69
			c-0.28,0.42-0.53,0.63-0.74,0.63c-0.35,0-0.55-0.12-0.58-0.37c-0.04-0.25,0.02-0.47,0.16-0.69c0.28-0.84,0.42-1.69,0.42-2.53
			c0-2.67-1.41-4.75-4.22-6.23c-2.81-1.48-5.87-2.22-9.18-2.22c-2.6,0-5,0.63-7.17,1.9c-2.18,1.27-3.92,3.01-5.22,5.22
			c-1.3,2.22-1.95,4.63-1.95,7.23C30.59,208.87,31.29,211.65,32.7,213.83z"/>
		<path class="st0" d="M88.68,190.62c9.21,0,17.09,1.78,23.64,5.33c6.54,3.55,11.46,8.25,14.77,14.09
			c3.31,5.84,4.96,12.13,4.96,18.89c0,6.4-1.69,12.34-5.07,17.83c-3.38,5.49-8.07,9.87-14.09,13.14c-6.01,3.27-12.71,4.91-20.1,4.91
			l-15.19-0.32c-3.45,0-5.88,0.14-7.28,0.42c-0.21,0.07-0.7,0.11-1.48,0.11c-0.56,0-0.84-0.07-0.84-0.21
			c-0.07-0.35,0.32-0.7,1.16-1.05c0.91-0.35,1.64-1.21,2.16-2.59c0.53-1.37,0.79-2.97,0.79-4.8v-58.67c0-1.83-0.18-3.2-0.53-4.11
			c-0.35-0.91-0.95-1.55-1.79-1.9c-0.7-0.28-1.02-0.6-0.95-0.95c0.07-0.28,0.53-0.35,1.37-0.21c1.69,0.28,4.5,0.42,8.44,0.42
			c1.55,0,3.59-0.07,6.12-0.21L88.68,190.62z M77.07,194.84v65.21c0,0.63,0.25,1.18,0.74,1.64c0.49,0.46,1.05,0.69,1.69,0.69
			l12.24,0.11c7.32,0,13.52-1.39,18.62-4.17c5.1-2.78,8.95-6.59,11.55-11.45c2.6-4.85,3.9-10.3,3.9-16.36
			c0-6.4-1.39-12.5-4.17-18.31c-2.78-5.8-7.12-10.55-13.03-14.24c-5.91-3.69-13.33-5.54-22.26-5.54c-2.25,0-4.64,0.07-7.18,0.21
			c-0.56,0.07-1.05,0.32-1.48,0.74C77.29,193.78,77.07,194.27,77.07,194.84z"/>
		<path class="st0" d="M146.82,266.38c-6.75,0-13-1.71-18.73-5.12c-5.73-3.41-10.27-8.04-13.61-13.88
			c-3.34-5.84-5.01-12.2-5.01-19.1c0-7.17,1.83-13.73,5.49-19.68c3.66-5.94,8.48-10.62,14.46-14.03c5.98-3.41,12.35-5.12,19.1-5.12
			c7.88,0,14.7,1.94,20.47,5.8c5.77,3.87,10.16,8.71,13.19,14.51c3.02,5.8,4.54,11.45,4.54,16.94c0,6.47-1.74,12.77-5.22,18.89
			s-8.27,11.12-14.35,14.98C161.05,264.44,154.28,266.38,146.82,266.38z M181.96,231.24c0-7.39-1.71-14.1-5.12-20.15
			c-3.41-6.05-7.95-10.82-13.61-14.3c-5.66-3.48-11.73-5.22-18.2-5.22c-4.22,0-8.78,1.34-13.66,4.01
			c-4.89,2.67-9.02,6.49-12.4,11.45c-3.38,4.96-5.06,10.64-5.06,17.04c0,7.25,1.65,13.88,4.96,19.89
			c3.31,6.01,7.7,10.76,13.19,14.25c5.49,3.48,11.29,5.22,17.41,5.22c5.98,0,11.45-1.49,16.41-4.48c4.96-2.99,8.88-6.96,11.76-11.92
			C180.51,242.06,181.96,236.8,181.96,231.24z"/>
		<path class="st0" d="M257.88,193.68c-0.46,0.99-0.69,2.39-0.69,4.22v59.72c0,1.69,0.16,2.99,0.47,3.9c0.32,0.91,1,1.65,2.06,2.22
			c0.35,0.14,0.53,0.35,0.53,0.63c0,0.28-0.18,0.42-0.53,0.42l-2.11-0.11c-1.27-0.14-2.22-0.21-2.85-0.21
			c-0.56,0-1.55,0.07-2.95,0.21l-2.11,0.11c-0.35,0-0.53-0.14-0.53-0.42c0-0.28,0.17-0.49,0.53-0.63c1.05-0.56,1.74-1.3,2.06-2.22
			s0.47-2.22,0.47-3.9v-60.57l-27.33,66.69c-0.28,0.63-0.53,0.95-0.74,0.95s-0.49-0.28-0.84-0.84l-27.33-53.6v47.38
			c0,1.55,0.25,2.92,0.74,4.12c0.49,1.2,1.16,1.94,2,2.22c0.42,0.14,0.63,0.32,0.63,0.53s-0.21,0.32-0.63,0.32
			c-0.42,0-0.99-0.03-1.69-0.11c-0.7-0.07-1.41-0.11-2.11-0.11c-0.78,0-1.55,0.04-2.32,0.11c-0.78,0.07-1.41,0.11-1.9,0.11
			c-0.28,0-0.42-0.11-0.42-0.32s0.14-0.39,0.42-0.53c0.84-0.42,1.55-1.21,2.11-2.37c0.56-1.16,0.84-2.48,0.84-3.96v-52.13l-3.69-7.6
			c-1.76-3.66-3.69-5.7-5.8-6.12c-0.63-0.14-0.95-0.39-0.95-0.74c0-0.35,0.28-0.53,0.84-0.53c0.14,0,0.69,0.07,1.64,0.21
			c0.95,0.14,1.85,0.21,2.69,0.21c0.91,0,1.69-0.16,2.32-0.47s1.02-0.47,1.16-0.47c0.35,0,0.6,0.18,0.74,0.53
			c0.14,0.42,0.32,1.11,0.53,2.06s0.56,1.85,1.05,2.69l31.13,61.62l26.8-65.74c0.14-0.35,0.39-0.53,0.74-0.53
			c0.42,0,0.91,0.05,1.48,0.16c0.56,0.11,1.16,0.16,1.79,0.16c0.77,0,1.51-0.05,2.22-0.16c0.7-0.11,1.27-0.16,1.69-0.16
			c0.35,0,0.56,0.11,0.63,0.32c0.07,0.21-0.02,0.37-0.26,0.48c-0.25,0.11-0.41,0.16-0.48,0.16
			C259.02,191.99,258.33,192.69,257.88,193.68z"/>
	</g>
</g>
</svg>
