<?xml version="1.0" encoding="UTF-8"?>
<svg xmlns="http://www.w3.org/2000/svg" xmlns:xlink="http://www.w3.org/1999/xlink" version="1.2" >
<font id="CircularXXTT-Bold">
<font-face  font-family="CircularXX TT" units-per-em="1000" ascent="750" descent="-250" font-style="normal" font-weight="700" font-stretch="normal" cap-height="709" x-height="492" underline-position="-75" underline-thickness="50" />
<missing-glyph  horiz-adv-x="237" d="" />
<glyph glyph-name="space" unicode="&#x20;" horiz-adv-x="237" d="" />
<glyph glyph-name="quotedbl" unicode="&#x22;" horiz-adv-x="422" d="M44 584 Q44 617 65.5 638.5 Q87 660 119 660 Q151 660 172 638.5 Q193 617 193 584 Q193 578 192 570.5 Q191 563 189 558 L142 375 L95 375 L48 558 Q47 562 45.5 569.5 Q44 577 44 584 Z M229 584 Q229 617 250.5 638.5 Q272 660 304 660 Q336 660 357 638.5 Q378 617 378 584 Q378 578 377 570.5 Q376 563 374 558 L327 375 L280 375 L233 558 Q232 562 230.5 569.5 Q229 577 229 584 Z " />
<glyph glyph-name="numbersign" unicode="&#x23;" horiz-adv-x="722" d="M81 492 L224 492 L258 648 L363 648 L329 492 L460 492 L494 648 L598 648 L564 492 L691 492 L691 396 L544 396 L514 256 L641 256 L641 161 L493 161 L459 0 L355 0 L389 161 L258 161 L224 0 L119 0 L153 161 L31 161 L31 256 L174 256 L204 396 L81 396 L81 492 Z M279 256 L410 256 L440 396 L309 396 L279 256 Z " />
<glyph glyph-name="dollar" unicode="&#x24;" horiz-adv-x="564" d="M242 -117 L242 -10 Q190 -3 151 18 Q112 39 86 67.5 Q60 96 45.5 129.5 Q31 163 28 195 L152 225 Q154 201 163.5 179.5 Q173 158 190 141 Q207 124 232 114 Q257 104 292 104 Q341 104 368 125 Q395 146 395 179 Q395 205 376.5 223.5 Q358 242 320 250 L228 270 Q147 288 100 337 Q53 386 53 458 Q53 498 67.5 532 Q82 566 107.5 592 Q133 618 167.5 635.5 Q202 653 242 659 L242 766 L344 766 L344 656 Q387 648 418.5 630 Q450 612 471.5 589 Q493 566 505.5 539.5 Q518 513 523 488 L400 453 Q398 466 391.5 482 Q385 498 371.5 512.5 Q358 527 337.5 536.5 Q317 546 286 546 Q238 546 212.5 522.5 Q187 499 187 468 Q187 445 204 427 Q221 409 256 401 L347 380 Q442 359 486 307 Q530 255 530 187 Q530 152 518 120 Q506 88 482 61.5 Q458 35 423.5 16.5 Q389 -2 344 -9 L344 -117 L242 -117 Z " />
<glyph glyph-name="percent" unicode="&#x25;" horiz-adv-x="826" d="M128 496 Q128 464 147 445 Q166 426 194 426 Q223 426 241.5 445.5 Q260 465 260 496 Q260 527 241.5 546 Q223 565 194 565 Q166 565 147 546 Q128 527 128 496 Z M28 496 Q28 530 41.5 560 Q55 590 77.5 612.5 Q100 635 130 647.5 Q160 660 194 660 Q228 660 258 647.5 Q288 635 311 612.5 Q334 590 347.5 560 Q361 530 361 496 Q361 461 347.5 431 Q334 401 311 379.5 Q288 358 258 345.5 Q228 333 194 333 Q160 333 129.5 345.5 Q99 358 76.5 380 Q54 402 41 432 Q28 462 28 496 Z M565 152 Q565 120 584 101 Q603 82 631 82 Q660 82 678.5 101.5 Q697 121 697 152 Q697 183 678.5 202 Q660 221 631 221 Q603 221 584 202 Q565 183 565 152 Z M465 152 Q465 186 478.5 216 Q492 246 514.5 268.5 Q537 291 567 303.5 Q597 316 631 316 Q665 316 695 303.5 Q725 291 748 268.5 Q771 246 784.5 216 Q798 186 798 152 Q798 117 784.5 87 Q771 57 748 35.5 Q725 14 695 1.5 Q665 -11 631 -11 Q597 -11 566.5 1.5 Q536 14 513.5 36 Q491 58 478 88 Q465 118 465 152 Z M126 0 L584 649 L700 649 L242 0 L126 0 Z " />
<glyph glyph-name="ampersand" unicode="&#x26;" horiz-adv-x="700" d="M447 76 Q407 35 360.5 10.5 Q314 -14 257 -14 Q205 -14 165 2.5 Q125 19 97.5 45.5 Q70 72 56 106 Q42 140 42 176 Q42 209 50.5 235.5 Q59 262 74.5 285 Q90 308 112.5 328.5 Q135 349 163 370 L168 373 L157 385 Q144 398 130.5 415 Q117 432 105.5 451.5 Q94 471 86.5 493 Q79 515 79 539 Q79 584 96 618.5 Q113 653 141 676.5 Q169 700 204 712 Q239 724 275 724 Q317 724 353.5 711 Q390 698 416 674.5 Q442 651 457 618 Q472 585 472 545 Q472 518 463.5 494.5 Q455 471 441 451 Q427 431 409 414 Q391 397 372 383 L345 363 L452 250 L631 437 L631 271 L532 167 L692 0 L520 0 L447 76 Z M259 102 Q291 102 316 118 Q341 134 367 161 L246 289 L231 278 Q205 259 189.5 237.5 Q174 216 174 184 Q174 153 197 127.5 Q220 102 259 102 Z M205 543 Q205 520 219 500 Q233 480 247 466 L266 445 L301 471 Q326 489 336 507.5 Q346 526 346 546 Q346 575 326 594.5 Q306 614 274 614 Q249 614 227 596.5 Q205 579 205 543 Z " />
<glyph glyph-name="quotesingle" unicode="&#x27;" horiz-adv-x="237" d="M44 584 Q44 617 65.5 638.5 Q87 660 119 660 Q151 660 172 638.5 Q193 617 193 584 Q193 578 192 570.5 Q191 563 189 558 L142 375 L95 375 L48 558 Q47 562 45.5 569.5 Q44 577 44 584 Z " />
<glyph glyph-name="parenleft" unicode="&#x28;" horiz-adv-x="338" d="M41 322 Q41 408 57.5 480 Q74 552 102.5 613 Q131 674 169 725 Q207 776 251 819 L328 748 Q288 705 255.5 658.5 Q223 612 200.5 559.5 Q178 507 165.5 448 Q153 389 153 322 Q153 187 200.5 83.5 Q248 -20 328 -105 L251 -175 Q207 -132 169 -81.5 Q131 -31 102.5 30 Q74 91 57.5 163.5 Q41 236 41 322 Z " />
<glyph glyph-name="parenright" unicode="&#x29;" horiz-adv-x="338" d="M297 322 Q297 236 280.5 163.5 Q264 91 235.5 30 Q207 -31 169 -81.5 Q131 -132 87 -175 L10 -105 Q90 -20 137.5 83.5 Q185 187 185 322 Q185 389 172.5 448 Q160 507 137.5 559.5 Q115 612 82.5 658.5 Q50 705 10 748 L87 819 Q131 776 169 725 Q207 674 235.5 613 Q264 552 280.5 480 Q297 408 297 322 Z " />
<glyph glyph-name="asterisk" unicode="&#x2a;" horiz-adv-x="473" d="M290 582 L406 621 L439 523 L321 485 L395 385 L312 324 L236 425 L162 324 L79 386 L152 485 L34 523 L66 621 L183 582 L183 709 L290 709 L290 582 Z " />
<glyph glyph-name="plus" unicode="&#x2b;" horiz-adv-x="555" d="M221 349 L221 544 L333 544 L333 349 L523 349 L523 240 L333 240 L333 44 L221 44 L221 240 L32 240 L32 349 L221 349 Z " />
<glyph glyph-name="comma" unicode="&#x2c;" horiz-adv-x="283" d="M46 80 Q46 116 72 140 Q98 164 137 164 Q184 164 210 131 Q236 98 236 49 Q236 -6 219 -46 Q202 -86 176 -112 Q150 -138 119 -152 Q88 -166 60 -169 L60 -105 Q77 -101 93.5 -91.5 Q110 -82 123.5 -68 Q137 -54 145.5 -36 Q154 -18 155 3 Q147 -3 129 -3 Q92 -3 69 20.5 Q46 44 46 80 Z " />
<glyph glyph-name="hyphen" unicode="&#x2d;" horiz-adv-x="414" d="M62 238 L62 356 L352 356 L352 238 L62 238 Z " />
<glyph glyph-name="period" unicode="&#x2e;" horiz-adv-x="275" d="M46 84 Q46 122 72.5 148.5 Q99 175 137 175 Q156 175 173 168 Q190 161 202.5 148.5 Q215 136 222 119.5 Q229 103 229 84 Q229 65 222 48.5 Q215 32 202.5 19.5 Q190 7 173 0 Q156 -7 137 -7 Q99 -7 72.5 19.5 Q46 46 46 84 Z " />
<glyph glyph-name="slash" unicode="&#x2f;" horiz-adv-x="516" d="M145 0 L25 0 L371 709 L492 709 L145 0 Z " />
<glyph glyph-name="zero" unicode="0" horiz-adv-x="631" d="M183 324 Q183 273 191 230.5 Q199 188 218 159 Q233 135 257 120.5 Q281 106 316 106 Q352 106 375 120.5 Q398 135 413 159 Q433 188 441 230.5 Q449 273 449 324 Q449 375 441 417.5 Q433 460 413 489 Q398 513 375 527.5 Q352 542 316 542 Q281 542 257 527.5 Q233 513 218 489 Q199 460 191 417.5 Q183 375 183 324 Z M45 324 Q45 387 57 445.5 Q69 504 102 555 Q134 603 187 633.5 Q240 664 316 664 Q392 664 444.5 633.5 Q497 603 529 555 Q562 504 574.5 445.5 Q587 387 587 324 Q587 261 574.5 202.5 Q562 144 529 93 Q497 45 444.5 14.5 Q392 -16 316 -16 Q240 -16 187 14.5 Q134 45 102 93 Q69 144 57 202.5 Q45 261 45 324 Z " />
<glyph glyph-name="one" unicode="1" horiz-adv-x="380" d="M178 0 L178 434 L22 434 L22 527 Q93 528 139.5 563 Q186 598 196 649 L315 649 L315 0 L178 0 Z " />
<glyph glyph-name="two" unicode="2" horiz-adv-x="567" d="M51 402 Q49 409 47.5 422 Q46 435 46 447 Q46 490 62 529 Q78 568 108 598 Q138 628 182 646 Q226 664 283 664 Q337 664 380.5 647 Q424 630 454.5 601.5 Q485 573 501 535 Q517 497 517 455 Q517 392 484 341.5 Q451 291 391 254 L266 178 Q247 166 232.5 152 Q218 138 210 119 L521 119 L521 0 L41 0 Q41 43 49 81.5 Q57 120 74.5 155 Q92 190 121 220.5 Q150 251 194 277 L301 341 Q343 366 360.5 392.5 Q378 419 378 453 Q378 488 353.5 515 Q329 542 280 542 Q228 542 202.5 511 Q177 480 177 434 Q177 416 182 398 L51 402 Z " />
<glyph glyph-name="three" unicode="3" horiz-adv-x="579" d="M170 384 L340 530 L56 530 L56 649 L515 649 L515 538 L347 398 Q384 396 418 382 Q452 368 478 342.5 Q504 317 519.5 281 Q535 245 535 200 Q535 158 518 119 Q501 80 469 50.5 Q437 21 391 3 Q345 -15 286 -15 Q229 -15 184 2 Q139 19 107 47.5 Q75 76 56.5 113.5 Q38 151 35 192 L168 218 Q170 168 202.5 136 Q235 104 286 104 Q338 104 367 132.5 Q396 161 396 202 Q396 248 366.5 273 Q337 298 290 298 Q269 298 255.5 295 Q242 292 231 288 L170 384 Z " />
<glyph glyph-name="four" unicode="4" horiz-adv-x="607" d="M29 283 L302 649 L472 649 L472 257 L579 257 L579 139 L472 139 L472 0 L336 0 L336 139 L29 139 L29 283 Z M336 505 L151 257 L336 257 L336 505 Z " />
<glyph glyph-name="five" unicode="5" horiz-adv-x="562" d="M159 211 Q160 188 169 168.5 Q178 149 193.5 134 Q209 119 230 110.5 Q251 102 277 102 Q324 102 356.5 130.5 Q389 159 389 208 Q389 236 379.5 256.5 Q370 277 354 290.5 Q338 304 317 310.5 Q296 317 274 317 Q241 317 215.5 304 Q190 291 174 273 Q169 275 150.5 281.5 Q132 288 111 295 Q90 302 71.5 308 Q53 314 48 316 L125 649 L491 649 L491 530 L219 530 L187 387 Q208 407 240 417 Q272 427 304 427 Q353 427 393.5 412.5 Q434 398 463.5 370.5 Q493 343 509.5 302.5 Q526 262 526 210 Q526 165 509 124 Q492 83 460 52 Q428 21 381.5 2.5 Q335 -16 277 -16 Q224 -16 180 0.5 Q136 17 103.5 44.5 Q71 72 52 108 Q33 144 30 182 L159 211 Z " />
<glyph glyph-name="six" unicode="6" horiz-adv-x="594" d="M501 522 Q480 531 452.5 538 Q425 545 394 545 Q353 545 316 533 Q279 521 250.5 497.5 Q222 474 203.5 439.5 Q185 405 179 359 Q197 386 236.5 408.5 Q276 431 333 431 Q383 431 424 416 Q465 401 494.5 372.5 Q524 344 540.5 303.5 Q557 263 557 213 Q557 163 538 121 Q519 79 485 49 Q451 19 405.5 2 Q360 -15 306 -15 Q253 -15 205 4 Q157 23 121 60.5 Q85 98 64 153.5 Q43 209 43 283 Q43 370 69 440.5 Q95 511 142.5 560.5 Q190 610 256.5 637 Q323 664 403 664 Q448 664 483.5 655 Q519 646 539 634 L501 522 Z M191 210 Q191 185 200.5 165 Q210 145 225.5 130.5 Q241 116 261.5 108.5 Q282 101 305 101 Q329 101 349.5 108.5 Q370 116 386 130.5 Q402 145 411 165 Q420 185 420 210 Q420 235 411 255 Q402 275 386 289 Q370 303 349.5 310.5 Q329 318 305 318 Q282 318 261 310.5 Q240 303 224.5 289 Q209 275 200 255 Q191 235 191 210 Z " />
<glyph glyph-name="seven" unicode="7" horiz-adv-x="533" d="M517 534 Q505 523 483 502.5 Q461 482 434.5 449.5 Q408 417 379.5 373.5 Q351 330 326.5 274.5 Q302 219 283 150.5 Q264 82 257 0 L114 0 Q119 65 132 122.5 Q145 180 163 229.5 Q181 279 202.5 321 Q224 363 246 396 Q297 474 358 530 L24 530 L24 649 L517 649 L517 534 Z " />
<glyph glyph-name="eight" unicode="8" horiz-adv-x="580" d="M290 383 Q336 383 361 408 Q386 433 386 468 Q386 500 361 525 Q336 550 290 550 Q245 550 220 525 Q195 500 195 468 Q195 433 220 408 Q245 383 290 383 Z M290 99 Q317 99 337.5 106.5 Q358 114 372 126.5 Q386 139 393 155.5 Q400 172 400 189 Q400 207 393 223.5 Q386 240 372.5 252.5 Q359 265 338 273 Q317 281 290 281 Q263 281 242.5 273 Q222 265 208.5 252.5 Q195 240 188 223.5 Q181 207 181 189 Q181 172 188 155.5 Q195 139 209 126.5 Q223 114 243 106.5 Q263 99 290 99 Z M290 -15 Q234 -15 189 -1 Q144 13 112 38 Q80 63 62.5 98 Q45 133 45 175 Q45 228 76.5 270.5 Q108 313 160 333 Q136 342 117 357.5 Q98 373 85 392.5 Q72 412 65 434 Q58 456 58 478 Q58 519 75.5 553 Q93 587 123.5 612 Q154 637 196.5 650.5 Q239 664 290 664 Q341 664 383.5 650.5 Q426 637 456.5 612 Q487 587 504.5 553 Q522 519 522 478 Q522 457 515.5 435 Q509 413 496 393.5 Q483 374 464 358 Q445 342 421 333 Q472 314 503.5 271 Q535 228 535 175 Q535 133 517.5 98 Q500 63 468 38 Q436 13 390.5 -1 Q345 -15 290 -15 Z " />
<glyph glyph-name="nine" unicode="9" horiz-adv-x="589" d="M90 132 Q107 122 139 113 Q171 104 205 104 Q294 104 349 151 Q404 198 411 288 Q391 257 351.5 237.5 Q312 218 261 218 Q216 218 175 233 Q134 248 103.5 276.5 Q73 305 55 345.5 Q37 386 37 436 Q37 486 55.5 528 Q74 570 107.5 600 Q141 630 186.5 647 Q232 664 286 664 Q339 664 386 645 Q433 626 468.5 588 Q504 550 524.5 492.5 Q545 435 545 357 Q545 269 523 200 Q501 131 458.5 83 Q416 35 352.5 10 Q289 -15 206 -15 Q164 -15 123 -5 Q82 5 56 21 L90 132 Z M393 440 Q393 464 384 483.5 Q375 503 360 517.5 Q345 532 324.5 539.5 Q304 547 281 547 Q258 547 238 539.5 Q218 532 203 517.5 Q188 503 179 483.5 Q170 464 170 440 Q170 391 202.5 362 Q235 333 281 333 Q304 333 324.5 340.5 Q345 348 360 362.5 Q375 377 384 396.5 Q393 416 393 440 Z " />
<glyph glyph-name="colon" unicode="&#x3a;" horiz-adv-x="299" d="M59 82 Q59 120 85 146 Q111 172 149 172 Q167 172 184 165 Q201 158 213 146 Q225 134 232 117.5 Q239 101 239 82 Q239 64 232 47.5 Q225 31 213 19 Q201 7 184 0 Q167 -7 149 -7 Q111 -7 85 19 Q59 45 59 82 Z M58 409 Q58 447 84 473 Q110 499 148 499 Q166 499 183 492 Q200 485 212 473 Q224 461 231 444.5 Q238 428 238 409 Q238 391 231 374.5 Q224 358 212 346 Q200 334 183 327 Q166 320 148 320 Q110 320 84 346 Q58 372 58 409 Z " />
<glyph glyph-name="semicolon" unicode="&#x3b;" horiz-adv-x="299" d="M59 75 Q59 109 83.5 132 Q108 155 145 155 Q190 155 214.5 123.5 Q239 92 239 46 Q239 -7 223 -45 Q207 -83 182 -107.5 Q157 -132 128 -145.5 Q99 -159 72 -162 L72 -101 Q88 -97 103.5 -88 Q119 -79 132 -65.5 Q145 -52 153 -35 Q161 -18 162 2 Q155 -4 138 -4 Q102 -4 80.5 18.5 Q59 41 59 75 Z M57 409 Q57 447 83 473 Q109 499 147 499 Q165 499 182 492 Q199 485 211 473 Q223 461 230 444.5 Q237 428 237 409 Q237 391 230 374.5 Q223 358 211 346 Q199 334 182 327 Q165 320 147 320 Q109 320 83 346 Q57 372 57 409 Z " />
<glyph glyph-name="less" unicode="&#x3c;" horiz-adv-x="518" d="M29 345 L459 562 L459 439 L163 296 L459 153 L459 28 L29 244 L29 345 Z " />
<glyph glyph-name="equal" unicode="&#x3d;" horiz-adv-x="605" d="M60 341 L60 448 L545 448 L545 341 L60 341 Z M60 142 L60 250 L545 250 L545 142 L60 142 Z " />
<glyph glyph-name="greater" unicode="&#x3e;" horiz-adv-x="520" d="M490 245 L60 28 L60 151 L356 294 L60 437 L60 562 L490 345 L490 245 Z " />
<glyph glyph-name="question" unicode="&#x3f;" horiz-adv-x="529" d="M195 216 Q193 226 192 236 Q191 246 191 257 Q191 297 209 333.5 Q227 370 270 402 L318 438 Q361 470 361 517 Q361 534 355 550.5 Q349 567 336.5 579.5 Q324 592 305 599.5 Q286 607 261 607 Q234 607 215 597 Q196 587 183.5 571.5 Q171 556 165 535.5 Q159 515 159 494 Q159 474 163 462 L37 467 Q34 478 33 489.5 Q32 501 32 512 Q32 552 47 590.5 Q62 629 91 658.5 Q120 688 162.5 706 Q205 724 261 724 Q319 724 363 707 Q407 690 437 662.5 Q467 635 482 599 Q497 563 497 525 Q497 465 470 422.5 Q443 380 398 348 L357 319 Q331 300 317 276.5 Q303 253 303 222 L303 216 L195 216 Z M172 71 Q172 104 195 127.5 Q218 151 251 151 Q284 151 307.5 127.5 Q331 104 331 71 Q331 38 307.5 15 Q284 -8 251 -8 Q218 -8 195 15 Q172 38 172 71 Z " />
<glyph glyph-name="at" unicode="&#x40;" horiz-adv-x="831" d="M595 138 Q553 138 529 156 Q505 174 498 199 Q479 168 447.5 152 Q416 136 382 136 Q349 136 321.5 148.5 Q294 161 273.5 184 Q253 207 241.5 239 Q230 271 230 309 Q230 358 246 399.5 Q262 441 289 471 Q316 501 351.5 517.5 Q387 534 427 534 Q456 534 484.5 520 Q513 506 524 477 L532 521 L627 521 L575 276 Q573 266 573 258 Q573 245 581 235 Q589 225 605 225 Q623 225 641 238 Q659 251 672.5 273.5 Q686 296 694.5 327 Q703 358 703 394 Q703 447 683.5 491 Q664 535 629.5 566.5 Q595 598 546 615.5 Q497 633 439 633 Q376 633 322.5 611.5 Q269 590 230 550 Q191 510 168.5 454.5 Q146 399 146 332 Q146 270 166.5 216.5 Q187 163 225.5 124 Q264 85 320 62.5 Q376 40 447 40 Q495 40 542 53.5 Q589 67 631 99 L679 31 Q659 13 631 -2 Q603 -17 572 -27.5 Q541 -38 509 -43.5 Q477 -49 447 -49 Q359 -49 285.5 -21.5 Q212 6 158.5 55.5 Q105 105 75 175 Q45 245 45 330 Q45 417 76 489.5 Q107 562 160.5 614 Q214 666 285.5 695 Q357 724 438 724 Q515 724 581 699 Q647 674 695 630 Q743 586 770.5 525.5 Q798 465 798 395 Q798 338 781 291 Q764 244 735.5 210 Q707 176 670.5 157.5 Q634 139 595 138 Z M502 365 Q502 401 484.5 422.5 Q467 444 434 444 Q411 444 392.5 433.5 Q374 423 361 406 Q348 389 340.5 366 Q333 343 333 318 Q333 278 349.5 252 Q366 226 404 226 Q446 226 473 265.5 Q500 305 502 365 Z " />
<glyph glyph-name="A" unicode="A" horiz-adv-x="721" d="M502 162 L214 162 L155 0 L9 0 L281 709 L441 709 L711 0 L561 0 L502 162 Z M260 288 L456 288 L358 556 L260 288 Z " />
<glyph glyph-name="B" unicode="B" horiz-adv-x="620" d="M338 709 Q390 709 430 694.5 Q470 680 497.5 654.5 Q525 629 539.5 594 Q554 559 554 518 Q554 463 525 422 Q496 381 451 366 Q477 360 499.5 345 Q522 330 539 308.5 Q556 287 566 259 Q576 231 576 198 Q576 155 560.5 118.5 Q545 82 516.5 56 Q488 30 447.5 15 Q407 0 357 0 L83 0 L83 709 L338 709 Z M317 416 Q365 416 391.5 440 Q418 464 418 505 Q418 546 392.5 569.5 Q367 593 316 593 L219 593 L219 416 L317 416 Z M331 115 Q382 115 410 139.5 Q438 164 438 207 Q438 249 411.5 275.5 Q385 302 333 302 L219 302 L219 115 L331 115 Z " />
<glyph glyph-name="C" unicode="C" horiz-adv-x="756" d="M404 -15 Q330 -15 264 11 Q198 37 148.5 85 Q99 133 70 201 Q41 269 41 354 Q41 439 70.5 507.5 Q100 576 150 624 Q200 672 265.5 698 Q331 724 402 724 Q475 724 531.5 703.5 Q588 683 627.5 649.5 Q667 616 691.5 574 Q716 532 727 489 L597 448 Q591 473 577 499 Q563 525 539.5 545 Q516 565 482 578 Q448 591 402 591 Q362 591 323 576.5 Q284 562 253 533 Q222 504 203 459 Q184 414 184 354 Q184 297 202.5 253.5 Q221 210 251.5 180.5 Q282 151 321.5 135.5 Q361 120 404 120 Q449 120 483.5 133.5 Q518 147 542 168 Q566 189 581 214.5 Q596 240 603 265 L732 226 Q722 185 697.5 142.5 Q673 100 632.5 65 Q592 30 535.5 7.5 Q479 -15 404 -15 Z " />
<glyph glyph-name="D" unicode="D" horiz-adv-x="730" d="M331 128 Q374 128 413 141.5 Q452 155 481 183 Q510 211 527 253.5 Q544 296 544 354 Q544 412 527 454.5 Q510 497 481.5 525 Q453 553 414 567 Q375 581 332 581 L221 581 L221 128 L331 128 Z M83 0 L83 709 L337 709 Q413 709 477 685 Q541 661 587.5 615.5 Q634 570 660.5 504 Q687 438 687 354 Q687 270 660.5 204 Q634 138 587 93 Q540 48 476 24 Q412 0 336 0 L83 0 Z " />
<glyph glyph-name="E" unicode="E" horiz-adv-x="579" d="M83 0 L83 709 L527 709 L527 579 L221 579 L221 417 L498 417 L498 294 L221 294 L221 130 L527 130 L527 0 L83 0 Z " />
<glyph glyph-name="F" unicode="F" horiz-adv-x="569" d="M83 0 L83 709 L531 709 L531 578 L221 578 L221 403 L497 403 L497 276 L222 276 L222 0 L83 0 Z " />
<glyph glyph-name="G" unicode="G" horiz-adv-x="781" d="M613 0 L604 81 Q592 63 573 45.5 Q554 28 527.5 14.5 Q501 1 468 -7 Q435 -15 395 -15 Q323 -15 259 10.5 Q195 36 146.5 83.5 Q98 131 69.5 199.5 Q41 268 41 354 Q41 440 70.5 508.5 Q100 577 150.5 625 Q201 673 266.5 698.5 Q332 724 404 724 Q474 724 528.5 705.5 Q583 687 623 656 Q663 625 689 586 Q715 547 728 506 L596 459 Q589 483 574.5 507 Q560 531 536.5 550.5 Q513 570 480 582.5 Q447 595 404 595 Q364 595 324 581 Q284 567 252.5 537.5 Q221 508 201 462.5 Q181 417 181 354 Q181 294 199.5 248.5 Q218 203 248.5 172.5 Q279 142 319.5 126.5 Q360 111 405 111 Q454 111 489 125.5 Q524 140 546.5 161 Q569 182 580.5 206 Q592 230 595 249 L371 249 L371 369 L725 369 L725 0 L613 0 Z " />
<glyph glyph-name="H" unicode="H" horiz-adv-x="752" d="M530 0 L530 294 L221 294 L221 0 L83 0 L83 709 L221 709 L221 424 L530 424 L530 709 L669 709 L669 0 L530 0 Z " />
<glyph glyph-name="I" unicode="I" horiz-adv-x="306" d="M83 0 L83 709 L223 709 L223 0 L83 0 Z " />
<glyph glyph-name="J" unicode="J" horiz-adv-x="561" d="M21 263 L154 287 L154 222 Q155 167 182.5 141.5 Q210 116 252 116 Q296 116 321 144 Q346 172 346 219 L346 709 L484 709 L484 219 Q484 171 467.5 128.5 Q451 86 420.5 54 Q390 22 347.5 3.5 Q305 -15 253 -15 Q200 -15 157.5 1.5 Q115 18 84.5 48.5 Q54 79 37.5 121.5 Q21 164 21 216 L21 263 Z " />
<glyph glyph-name="K" unicode="K" horiz-adv-x="688" d="M309 294 L221 197 L221 0 L83 0 L83 709 L221 709 L221 388 L505 709 L686 709 L405 400 L688 0 L515 0 L309 294 Z " />
<glyph glyph-name="L" unicode="L" horiz-adv-x="553" d="M83 0 L83 709 L221 709 L221 132 L537 132 L537 0 L83 0 Z " />
<glyph glyph-name="M" unicode="M" horiz-adv-x="957" d="M738 0 L738 497 L534 0 L419 0 L215 493 L215 0 L83 0 L83 709 L265 709 L478 197 L686 709 L874 709 L874 0 L738 0 Z " />
<glyph glyph-name="N" unicode="N" horiz-adv-x="771" d="M543 0 L221 503 L221 0 L83 0 L83 709 L255 709 L550 240 L550 709 L688 709 L688 0 L543 0 Z " />
<glyph glyph-name="O" unicode="O" horiz-adv-x="811" d="M184 355 Q184 295 203 250.5 Q222 206 253.5 177 Q285 148 324.5 133.5 Q364 119 405 119 Q446 119 486 133.5 Q526 148 557.5 177 Q589 206 608 250.5 Q627 295 627 355 Q627 415 608 459.5 Q589 504 557.5 533 Q526 562 486 576.5 Q446 591 405 591 Q364 591 324.5 576.5 Q285 562 253.5 533 Q222 504 203 459.5 Q184 415 184 355 Z M41 354 Q41 440 71 508.5 Q101 577 151 625 Q201 673 267 698.5 Q333 724 405 724 Q477 724 543.5 698.5 Q610 673 660 625 Q710 577 740 508.5 Q770 440 770 354 Q770 268 740 200 Q710 132 660 84 Q610 36 543.5 10.5 Q477 -15 405 -15 Q333 -15 267 10.5 Q201 36 151 84 Q101 132 71 200 Q41 268 41 354 Z " />
<glyph glyph-name="P" unicode="P" horiz-adv-x="605" d="M331 386 Q383 386 412.5 413.5 Q442 441 442 487 Q442 535 412.5 562 Q383 589 331 589 L222 589 L222 386 L331 386 Z M221 267 L221 0 L83 0 L83 709 L348 709 Q400 709 443 692.5 Q486 676 517 646.5 Q548 617 564.5 576.5 Q581 536 581 488 Q581 440 564.5 399 Q548 358 517 329 Q486 300 443 283.5 Q400 267 348 267 L221 267 Z " />
<glyph glyph-name="Q" unicode="Q" horiz-adv-x="811" d="M41 354 Q41 440 71 508.5 Q101 577 151 625 Q201 673 267 698.5 Q333 724 405 724 Q477 724 543.5 698.5 Q610 673 660 625 Q710 577 740 508.5 Q770 440 770 354 Q770 279 747 217.5 Q724 156 683 109 L768 15 L677 -63 L590 33 Q548 10 501.5 -2.5 Q455 -15 405 -15 Q333 -15 267 10.5 Q201 36 151 84 Q101 132 71 200 Q41 268 41 354 Z M184 355 Q184 295 203 250.5 Q222 206 253.5 177 Q285 148 324.5 133.5 Q364 119 405 119 Q454 119 496 137 L385 259 L477 338 L588 214 Q606 241 616.5 276 Q627 311 627 355 Q627 415 608 459.5 Q589 504 557.5 533 Q526 562 486 576.5 Q446 591 405 591 Q364 591 324.5 576.5 Q285 562 253.5 533 Q222 504 203 459.5 Q184 415 184 355 Z " />
<glyph glyph-name="R" unicode="R" horiz-adv-x="630" d="M294 273 L222 273 L222 0 L83 0 L83 709 L360 709 Q412 709 453.5 692 Q495 675 524.5 646 Q554 617 570 577 Q586 537 586 491 Q586 416 545.5 363 Q505 310 435 290 L587 0 L433 0 L294 273 Z M334 392 Q387 392 416 419 Q445 446 445 490 Q445 535 416 562 Q387 589 334 589 L222 589 L222 392 L334 392 Z " />
<glyph glyph-name="S" unicode="S" horiz-adv-x="611" d="M437 502 Q434 517 426.5 534.5 Q419 552 404 567 Q389 582 365.5 592 Q342 602 308 602 Q283 602 262.5 594.5 Q242 587 227.5 574.5 Q213 562 205 546 Q197 530 197 512 Q197 483 216 461.5 Q235 440 274 432 L373 413 Q421 404 458 384 Q495 364 520 336.5 Q545 309 558 275 Q571 241 571 204 Q571 163 554 123.5 Q537 84 504.5 53.5 Q472 23 424.5 4 Q377 -15 315 -15 Q244 -15 193 5.5 Q142 26 107.5 58 Q73 90 55 129.5 Q37 169 33 207 L161 241 Q163 215 173.5 191 Q184 167 203 148.5 Q222 130 250 119 Q278 108 316 108 Q372 108 401.5 132.5 Q431 157 431 195 Q431 226 409 248.5 Q387 271 345 279 L246 299 Q161 316 110.5 368.5 Q60 421 60 502 Q60 549 79.5 589.5 Q99 630 133 660 Q167 690 212 707 Q257 724 307 724 Q371 724 416.5 706.5 Q462 689 492 662 Q522 635 538.5 602.5 Q555 570 561 540 L437 502 Z " />
<glyph glyph-name="T" unicode="T" horiz-adv-x="619" d="M379 578 L379 0 L240 0 L240 578 L16 578 L16 709 L603 709 L603 578 L379 578 Z " />
<glyph glyph-name="U" unicode="U" horiz-adv-x="699" d="M349 -16 Q292 -16 242.5 1 Q193 18 156.5 52 Q120 86 98.5 136 Q77 186 77 251 L77 709 L215 709 L215 261 Q215 191 251 155 Q287 119 349 119 Q412 119 448 155 Q484 191 484 261 L484 709 L622 709 L622 251 Q622 186 600.5 136 Q579 86 542.5 52 Q506 18 456 1 Q406 -16 349 -16 Z " />
<glyph glyph-name="V" unicode="V" horiz-adv-x="689" d="M532 709 L678 709 L415 0 L273 0 L11 709 L162 709 L347 182 L532 709 Z " />
<glyph glyph-name="W" unicode="W" horiz-adv-x="1040" d="M880 709 L1021 709 L825 0 L683 0 L521 505 L359 0 L215 0 L18 709 L164 709 L294 221 L451 709 L594 709 L752 219 L880 709 Z " />
<glyph glyph-name="X" unicode="X" horiz-adv-x="650" d="M410 354 L643 0 L476 0 L323 245 L169 0 L7 0 L240 355 L8 709 L174 709 L326 464 L481 709 L642 709 L410 354 Z " />
<glyph glyph-name="Y" unicode="Y" horiz-adv-x="659" d="M13 709 L175 709 L334 428 L493 709 L648 709 L398 298 L398 0 L260 0 L260 298 L13 709 Z " />
<glyph glyph-name="Z" unicode="Z" horiz-adv-x="643" d="M41 0 L41 134 L410 578 L54 578 L54 709 L594 709 L594 580 L219 132 L599 132 L599 0 L41 0 Z " />
<glyph glyph-name="bracketleft" unicode="&#x5b;" horiz-adv-x="325" d="M68 -164 L68 810 L299 810 L299 709 L179 709 L179 -61 L299 -61 L299 -164 L68 -164 Z " />
<glyph glyph-name="backslash" unicode="&#x5c;" horiz-adv-x="515" d="M23 709 L146 709 L490 0 L368 0 L23 709 Z " />
<glyph glyph-name="bracketright" unicode="&#x5d;" horiz-adv-x="325" d="M26 -164 L26 -61 L145 -61 L145 709 L26 709 L26 810 L257 810 L257 -164 L26 -164 Z " />
<glyph glyph-name="asciicircum" unicode="&#x5e;" horiz-adv-x="566" d="M407 351 L284 582 L161 351 L34 351 L232 709 L334 709 L532 351 L407 351 Z " />
<glyph glyph-name="underscore" unicode="&#x5f;" horiz-adv-x="521" d="M5 -109 L5 0 L516 0 L516 -109 L5 -109 Z " />
<glyph glyph-name="grave" unicode="&#x60;" horiz-adv-x="296" d="M26 701 L180 701 L270 551 L162 551 L26 701 Z " />
<glyph glyph-name="a" unicode="a" horiz-adv-x="538" d="M39 134 Q39 167 50.5 192.5 Q62 218 82 237 Q102 256 128.5 267 Q155 278 186 283 L307 301 Q328 304 336 313.5 Q344 323 344 336 Q344 362 323.5 381 Q303 400 261 400 Q217 400 193.5 376 Q170 352 167 320 L49 345 Q52 374 67 403 Q82 432 108 455 Q134 478 172 492.5 Q210 507 260 507 Q318 507 359 491.5 Q400 476 425.5 450.5 Q451 425 462.5 391 Q474 357 474 320 L474 78 Q474 58 476 35.5 Q478 13 480 0 L358 0 Q356 10 354.5 27.5 Q353 45 353 59 Q334 30 298.5 8 Q263 -14 208 -14 Q169 -14 137.5 -1.5 Q106 11 84 31.5 Q62 52 50.5 78.5 Q39 105 39 134 Z M236 85 Q257 85 276.5 90.5 Q296 96 311 109.5 Q326 123 335 144.5 Q344 166 344 199 L344 221 L233 204 Q207 200 189.5 185.5 Q172 171 172 142 Q172 120 188 102.5 Q204 85 236 85 Z " />
<glyph glyph-name="b" unicode="b" horiz-adv-x="614" d="M68 0 L68 724 L199 724 L199 438 Q216 464 254.5 484.5 Q293 505 348 505 Q402 505 444 485.5 Q486 466 515.5 431.5 Q545 397 560 350 Q575 303 575 248 Q575 192 558.5 144.5 Q542 97 511.5 62 Q481 27 438 7.5 Q395 -12 343 -12 Q292 -12 254.5 8 Q217 28 197 60 L197 0 L68 0 Z M442 247 Q442 315 406.5 350.5 Q371 386 320 386 Q295 386 272.5 377 Q250 368 233.5 350.5 Q217 333 207 307 Q197 281 197 247 Q197 214 207 188 Q217 162 233.5 144 Q250 126 272.5 116.5 Q295 107 320 107 Q371 107 406.5 143 Q442 179 442 247 Z " />
<glyph glyph-name="c" unicode="c" horiz-adv-x="556" d="M296 384 Q270 384 247.5 375 Q225 366 208 348.5 Q191 331 181 305 Q171 279 171 246 Q171 213 181 187 Q191 161 208.5 143 Q226 125 248.5 116 Q271 107 297 107 Q322 107 341.5 114.5 Q361 122 375 134 Q389 146 397.5 161 Q406 176 410 190 L527 151 Q519 120 500.5 90.5 Q482 61 453 37.5 Q424 14 385 -0.5 Q346 -15 297 -15 Q243 -15 195.5 4.5 Q148 24 113 59 Q78 94 58 141.5 Q38 189 38 246 Q38 303 57.5 351 Q77 399 111.5 433.5 Q146 468 192.5 487.5 Q239 507 293 507 Q343 507 382.5 492.5 Q422 478 451 455 Q480 432 498 402 Q516 372 524 341 L405 301 Q396 332 370.5 358 Q345 384 296 384 Z " />
<glyph glyph-name="d" unicode="d" horiz-adv-x="612" d="M544 89 Q544 64 545 39.5 Q546 15 548 0 L421 0 Q419 8 417.5 24 Q416 40 416 57 Q399 28 363.5 8 Q328 -12 278 -12 Q225 -12 181 7.5 Q137 27 105.5 61.5 Q74 96 56 143.5 Q38 191 38 247 Q38 301 55.5 348 Q73 395 104 429.5 Q135 464 178.5 484 Q222 504 274 504 Q306 504 329.5 498 Q353 492 370 483 Q387 474 397.5 463.5 Q408 453 413 443 L413 724 L544 724 L544 89 Z M172 247 Q172 181 206.5 144 Q241 107 294 107 Q345 107 380 144 Q415 181 415 248 Q415 314 380 349.5 Q345 385 294 385 Q243 385 207.5 349 Q172 313 172 247 Z " />
<glyph glyph-name="e" unicode="e" horiz-adv-x="563" d="M393 302 Q392 320 385.5 337.5 Q379 355 365.5 368.5 Q352 382 331.5 390.5 Q311 399 283 399 Q257 399 237 390 Q217 381 203 367 Q189 353 181.5 336 Q174 319 173 302 L393 302 Z M517 141 Q508 109 488.5 80.5 Q469 52 441 31 Q413 10 375.5 -2.5 Q338 -15 293 -15 Q242 -15 196 2.5 Q150 20 115 54 Q80 88 59.5 137 Q39 186 39 248 Q39 307 59 355 Q79 403 112.5 436.5 Q146 470 190 488.5 Q234 507 281 507 Q396 507 460 439 Q524 371 524 252 Q524 238 523 225.5 Q522 213 522 211 L170 211 Q171 187 181.5 166.5 Q192 146 208.5 131 Q225 116 247 107.5 Q269 99 294 99 Q341 99 367.5 120 Q394 141 406 174 L517 141 Z " />
<glyph glyph-name="f" unicode="f" horiz-adv-x="376" d="M315 614 Q304 614 291.5 611 Q279 608 269 600.5 Q259 593 252.5 580 Q246 567 246 546 L246 492 L357 492 L357 378 L246 378 L246 0 L112 0 L112 378 L30 378 L30 492 L112 492 L112 548 Q112 590 124.5 623.5 Q137 657 160.5 681 Q184 705 217 718 Q250 731 291 731 Q312 731 330.5 728 Q349 725 357 721 L357 609 Q352 611 342 612.5 Q332 614 315 614 Z " />
<glyph glyph-name="g" unicode="g" horiz-adv-x="604" d="M159 5 Q166 -36 196 -62 Q226 -88 274 -88 Q337 -88 371 -55.5 Q405 -23 405 49 L405 85 Q390 61 356 41.5 Q322 22 268 22 Q219 22 177 40 Q135 58 104.5 90 Q74 122 56.5 165.5 Q39 209 39 261 Q39 310 56 353.5 Q73 397 103 430 Q133 463 175 482 Q217 501 268 501 Q327 501 361 480 Q395 459 408 434 L408 492 L536 492 L536 53 Q536 2 521.5 -44.5 Q507 -91 476 -126.5 Q445 -162 396 -183.5 Q347 -205 278 -205 Q227 -205 185.5 -190.5 Q144 -176 113 -151.5 Q82 -127 63 -94.5 Q44 -62 39 -27 L159 5 Z M291 136 Q342 136 374.5 170 Q407 204 407 261 Q407 318 373 351.5 Q339 385 291 385 Q266 385 244.5 376.5 Q223 368 207 351.5 Q191 335 182 312 Q173 289 173 261 Q173 203 206 169.5 Q239 136 291 136 Z " />
<glyph glyph-name="h" unicode="h" horiz-adv-x="580" d="M201 0 L68 0 L68 724 L201 724 L201 451 Q225 480 262 492.5 Q299 505 334 505 Q381 505 415.5 489.5 Q450 474 472.5 448 Q495 422 506 386 Q517 350 517 310 L517 0 L384 0 L384 287 Q384 329 362.5 357 Q341 385 293 385 Q251 385 227 357.5 Q203 330 201 289 L201 0 Z " />
<glyph glyph-name="i" unicode="i" horiz-adv-x="269" d="M68 0 L68 492 L201 492 L201 0 L68 0 Z M52 653 Q52 688 76 712 Q100 736 134 736 Q169 736 192.5 712 Q216 688 216 653 Q216 620 192.5 596 Q169 572 134 572 Q100 572 76 596 Q52 620 52 653 Z " />
<glyph glyph-name="j" unicode="j" horiz-adv-x="269" d="M68 492 L201 492 L201 -43 Q201 -79 190.5 -108.5 Q180 -138 160 -159.5 Q140 -181 111.5 -193 Q83 -205 47 -205 Q18 -205 -2.5 -200.5 Q-23 -196 -28 -194 L-28 -83 Q-21 -85 -11 -86.5 Q-1 -88 13 -88 Q43 -88 55.5 -72.5 Q68 -57 68 -30 L68 492 Z M52 654 Q52 689 76 713 Q100 737 134 737 Q169 737 192.5 713 Q216 689 216 654 Q216 620 192.5 596.5 Q169 573 134 573 Q100 573 76 596.5 Q52 620 52 654 Z " />
<glyph glyph-name="k" unicode="k" horiz-adv-x="558" d="M348 285 L549 0 L386 0 L256 188 L201 130 L201 0 L68 0 L68 724 L201 724 L201 309 L371 492 L545 492 L348 285 Z " />
<glyph glyph-name="l" unicode="l" horiz-adv-x="269" d="M68 0 L68 724 L201 724 L201 0 L68 0 Z " />
<glyph glyph-name="m" unicode="m" horiz-adv-x="882" d="M68 0 L68 492 L195 492 L195 432 Q205 450 221 464 Q237 478 256.5 487 Q276 496 297.5 501 Q319 506 339 506 Q390 506 428 485 Q466 464 485 424 Q514 469 553 487.5 Q592 506 641 506 Q675 506 707 495.5 Q739 485 764 462 Q789 439 804 403.5 Q819 368 819 319 L819 0 L690 0 L690 292 Q690 332 669.5 358.5 Q649 385 603 385 Q560 385 536 356.5 Q512 328 512 288 L512 0 L380 0 L380 292 Q380 332 359 358.5 Q338 385 293 385 Q249 385 225 357 Q201 329 201 288 L201 0 L68 0 Z " />
<glyph glyph-name="n" unicode="n" horiz-adv-x="580" d="M201 0 L68 0 L68 492 L197 492 L197 431 Q220 469 259.5 487 Q299 505 339 505 Q385 505 418.5 489.5 Q452 474 474 448 Q496 422 506.5 386 Q517 350 517 310 L517 0 L384 0 L384 287 Q384 329 362.5 357 Q341 385 293 385 Q249 385 225 355.5 Q201 326 201 283 L201 0 Z " />
<glyph glyph-name="o" unicode="o" horiz-adv-x="592" d="M296 106 Q320 106 343 115 Q366 124 383 141.5 Q400 159 410.5 185 Q421 211 421 246 Q421 281 410.5 307 Q400 333 383 350.5 Q366 368 343 377 Q320 386 296 386 Q272 386 249 377 Q226 368 209 350.5 Q192 333 181.5 307 Q171 281 171 246 Q171 211 181.5 185 Q192 159 209 141.5 Q226 124 249 115 Q272 106 296 106 Z M296 507 Q351 507 398.5 487.5 Q446 468 480.5 433.5 Q515 399 534.5 351 Q554 303 554 246 Q554 189 534.5 141.5 Q515 94 480.5 59 Q446 24 398.5 4.5 Q351 -15 296 -15 Q241 -15 193.5 4.5 Q146 24 111.5 59 Q77 94 57.5 141.5 Q38 189 38 246 Q38 303 57.5 351 Q77 399 111.5 433.5 Q146 468 193.5 487.5 Q241 507 296 507 Z " />
<glyph glyph-name="p" unicode="p" horiz-adv-x="614" d="M68 -190 L68 492 L197 492 L197 432 Q214 461 253 482 Q292 503 348 503 Q402 503 444 483.5 Q486 464 515.5 429.5 Q545 395 560 348.5 Q575 302 575 247 Q575 191 558.5 143.5 Q542 96 511.5 61.5 Q481 27 438 7.5 Q395 -12 343 -12 Q292 -12 255.5 5.5 Q219 23 201 48 L201 -190 L68 -190 Z M444 246 Q444 312 408.5 348 Q373 384 322 384 Q296 384 274 374.5 Q252 365 235 347.5 Q218 330 208.5 304.5 Q199 279 199 246 Q199 213 208.5 187.5 Q218 162 235 144 Q252 126 274 116.5 Q296 107 322 107 Q373 107 408.5 143.5 Q444 180 444 246 Z " />
<glyph glyph-name="q" unicode="q" horiz-adv-x="613" d="M415 -190 L415 49 Q398 21 362.5 4.5 Q327 -12 278 -12 Q225 -12 181 7.5 Q137 27 105.5 62 Q74 97 56 144 Q38 191 38 247 Q38 301 55 348 Q72 395 102.5 429.5 Q133 464 176.5 484 Q220 504 274 504 Q306 504 330.5 497 Q355 490 373 480 Q391 470 402 457.5 Q413 445 418 435 L418 492 L545 492 L545 -190 L415 -190 Z M172 247 Q172 181 207.5 144 Q243 107 294 107 Q345 107 380.5 144 Q416 181 416 247 Q416 313 380.5 349 Q345 385 294 385 Q243 385 207.5 349 Q172 313 172 247 Z " />
<glyph glyph-name="r" unicode="r" horiz-adv-x="388" d="M368 360 Q348 364 328 364 Q302 364 279 357 Q256 350 239 334 Q222 318 211.5 291.5 Q201 265 201 225 L201 0 L68 0 L68 492 L197 492 L197 419 Q208 443 225.5 458.5 Q243 474 262.5 482 Q282 490 301.5 493 Q321 496 337 496 Q345 496 352.5 495.5 Q360 495 368 494 L368 360 Z " />
<glyph glyph-name="s" unicode="s" horiz-adv-x="471" d="M149 162 Q151 133 173 110 Q195 87 239 87 Q272 87 288 101.5 Q304 116 304 136 Q304 153 292 165.5 Q280 178 251 184 L186 199 Q114 215 81 254.5 Q48 294 48 346 Q48 379 62 408.5 Q76 438 100.5 459.5 Q125 481 158.5 494 Q192 507 232 507 Q284 507 320 492.5 Q356 478 378.5 456 Q401 434 412 409.5 Q423 385 425 365 L314 340 Q312 351 307.5 362.5 Q303 374 293 384 Q283 394 268.5 400 Q254 406 233 406 Q207 406 188.5 392 Q170 378 170 357 Q170 339 182.5 328 Q195 317 215 313 L285 298 Q358 283 394.5 242 Q431 201 431 147 Q431 117 419.5 88 Q408 59 384 36 Q360 13 324 -1 Q288 -15 240 -15 Q184 -15 146 1 Q108 17 84 40 Q60 63 48.5 89.5 Q37 116 35 137 L149 162 Z " />
<glyph glyph-name="t" unicode="t" horiz-adv-x="379" d="M241 492 L340 492 L340 374 L241 374 L241 168 Q241 136 255.5 123.5 Q270 111 299 111 Q311 111 323 112 Q335 113 340 115 L340 5 Q331 1 312.5 -3 Q294 -7 265 -7 Q193 -7 151 33 Q109 73 109 145 L109 374 L20 374 L20 492 L45 492 Q84 492 102.5 514.5 Q121 537 121 570 L121 639 L241 639 L241 492 Z " />
<glyph glyph-name="u" unicode="u" horiz-adv-x="580" d="M390 0 Q388 8 387 23 Q386 38 386 53 Q366 18 327.5 2.5 Q289 -13 250 -13 Q205 -13 170.5 2.5 Q136 18 112 44 Q88 70 75.5 105.5 Q63 141 63 181 L63 492 L196 492 L196 208 Q196 166 217.5 137.5 Q239 109 286 109 Q331 109 355 136 Q379 163 379 206 L379 492 L512 492 L512 89 Q512 60 513.5 36.5 Q515 13 517 0 L390 0 Z " />
<glyph glyph-name="v" unicode="v" horiz-adv-x="554" d="M346 0 L213 0 L12 492 L158 492 L280 162 L397 492 L537 492 L346 0 Z " />
<glyph glyph-name="w" unicode="w" horiz-adv-x="839" d="M493 492 L599 175 L690 492 L822 492 L668 0 L535 0 L420 336 L307 0 L172 0 L15 492 L155 492 L246 176 L353 492 L493 492 Z " />
<glyph glyph-name="x" unicode="x" horiz-adv-x="535" d="M189 247 L14 492 L172 492 Q178 482 192 461.5 Q206 441 221 419 Q236 397 250 376.5 Q264 356 270 346 L367 492 L518 492 L346 251 L524 0 L368 0 L265 151 Q258 141 244 120 Q230 99 214 75.5 Q198 52 184 31 Q170 10 164 0 L14 0 L189 247 Z " />
<glyph glyph-name="y" unicode="y" horiz-adv-x="563" d="M105 -194 L221 62 L12 492 L161 492 L292 204 L413 492 L555 492 L246 -194 L105 -194 Z " />
<glyph glyph-name="z" unicode="z" horiz-adv-x="496" d="M44 0 L44 117 L277 377 L50 377 L50 492 L447 492 L447 381 L207 116 L451 116 L451 0 L44 0 Z " />
<glyph glyph-name="braceleft" unicode="&#x7b;" horiz-adv-x="368" d="M16 382 Q59 382 87.5 403 Q116 424 116 475 L116 617 Q116 716 167.5 763 Q219 810 310 810 L341 810 L341 709 L311 709 Q274 709 251 689.5 Q228 670 228 620 L228 452 Q228 404 201.5 371.5 Q175 339 127 326 Q175 314 201.5 281 Q228 248 228 200 L228 33 Q228 -17 251 -37 Q274 -57 311 -57 L341 -57 L341 -158 L310 -158 Q219 -158 167.5 -110.5 Q116 -63 116 36 L116 178 Q116 229 87.5 250 Q59 271 16 271 L16 382 Z " />
<glyph glyph-name="bar" unicode="&#x7c;" horiz-adv-x="247" d="M68 -158 L68 810 L179 810 L179 -158 L68 -158 Z " />
<glyph glyph-name="braceright" unicode="&#x7d;" horiz-adv-x="367" d="M352 271 Q309 271 280 250 Q251 229 251 178 L251 36 Q251 -63 199.5 -110.5 Q148 -158 58 -158 L27 -158 L27 -57 L56 -57 Q94 -57 117 -37 Q140 -17 140 33 L140 200 Q140 248 166 281 Q192 314 240 326 Q192 339 166 371.5 Q140 404 140 452 L140 620 Q140 670 117 689.5 Q94 709 56 709 L27 709 L27 810 L58 810 Q148 810 199.5 763 Q251 716 251 617 L251 475 Q251 424 280 403 Q309 382 352 382 L352 271 Z " />
<glyph glyph-name="asciitilde" unicode="&#x7e;" horiz-adv-x="631" d="M262 259 Q237 272 212 272 Q186 272 163 259 Q140 246 123 220 L49 279 Q77 330 120 357 Q163 384 215 384 Q267 384 319 356 L366 330 Q379 322 392.5 319 Q406 316 419 316 Q445 316 467.5 328.5 Q490 341 507 367 L580 308 Q552 257 509 230.5 Q466 204 415 204 Q390 204 362.5 211 Q335 218 309 233 L262 259 Z " />
<glyph glyph-name="uni00A0" unicode="&#xa0;" horiz-adv-x="237" d="" />
<glyph glyph-name="exclamdown" unicode="&#xa1;" horiz-adv-x="262" d="M211 -210 L51 -210 L83 283 L180 283 L211 -210 Z M52 428 Q52 460 75 483.5 Q98 507 131 507 Q163 507 186.5 483.5 Q210 460 210 428 Q210 395 186.5 371.5 Q163 348 131 348 Q98 348 75 371.5 Q52 395 52 428 Z " />
<glyph glyph-name="cent" unicode="&#xa2;" horiz-adv-x="537" d="M229 0 L229 87 Q188 96 153 117 Q118 138 92.5 169 Q67 200 53 238.5 Q39 277 39 322 Q39 368 53 407.5 Q67 447 92.5 477.5 Q118 508 153 529 Q188 550 229 558 L229 649 L330 649 L330 559 Q367 553 396 538.5 Q425 524 446.5 503.5 Q468 483 482 459 Q496 435 503 410 L390 373 Q385 387 377.5 401 Q370 415 357.5 426 Q345 437 327.5 443.5 Q310 450 286 450 Q262 450 240 441.5 Q218 433 201.5 417 Q185 401 175.5 377 Q166 353 166 322 Q166 291 176 267.5 Q186 244 202.5 227.5 Q219 211 241 202.5 Q263 194 287 194 Q311 194 329.5 201 Q348 208 361 219 Q374 230 382 243.5 Q390 257 394 271 L506 235 Q499 210 484.5 185.5 Q470 161 448 140.5 Q426 120 396.5 105 Q367 90 330 84 L330 0 L229 0 Z " />
<glyph glyph-name="sterling" unicode="&#xa3;" horiz-adv-x="592" d="M114 375 Q106 396 101 419 Q96 442 96 470 Q96 508 111 543 Q126 578 153.5 605 Q181 632 220.5 648 Q260 664 309 664 Q368 664 408 646 Q448 628 472.5 600.5 Q497 573 508 539.5 Q519 506 519 475 L399 457 Q398 502 375.5 527 Q353 552 311 552 Q277 552 251 531.5 Q225 511 225 468 Q225 442 231.5 420 Q238 398 247 375 L430 375 L430 273 L279 273 Q279 268 279.5 262.5 Q280 257 280 252 Q280 210 262.5 174.5 Q245 139 208 116 L363 116 Q401 116 422.5 140 Q444 164 444 200 L563 190 Q563 149 550 114 Q537 79 514 53.5 Q491 28 457.5 14 Q424 0 384 0 L49 0 L49 111 Q97 128 126 161 Q155 194 155 238 Q155 247 154 256 Q153 265 151 273 L53 273 L53 375 L114 375 Z " />
<glyph glyph-name="currency" unicode="&#xa4;" horiz-adv-x="595" d="M82 245 Q82 275 90 302.5 Q98 330 112 353 L40 426 L120 506 L194 431 Q218 444 244 451 Q270 458 299 458 Q355 458 402 432 L475 506 L555 426 L484 355 Q515 305 515 245 Q515 215 507 187.5 Q499 160 485 136 L555 65 L475 -15 L403 58 Q356 32 299 32 Q240 32 192 59 L120 -15 L40 65 L111 137 Q97 161 89.5 188 Q82 215 82 245 Z M194 245 Q194 199 223.5 169.5 Q253 140 299 140 Q345 140 374.5 169.5 Q404 199 404 245 Q404 291 374.5 320.5 Q345 350 299 350 Q253 350 223.5 320.5 Q194 291 194 245 Z " />
<glyph glyph-name="yen" unicode="&#xa5;" horiz-adv-x="627" d="M378 135 L378 0 L248 0 L248 135 L75 135 L75 229 L248 229 L248 299 L75 299 L75 392 L182 392 L27 649 L178 649 L316 404 L452 649 L597 649 L443 392 L558 392 L558 299 L378 299 L378 229 L558 229 L558 135 L378 135 Z " />
<glyph glyph-name="brokenbar" unicode="&#xa6;" horiz-adv-x="259" d="M185 810 L185 412 L74 412 L74 810 L185 810 Z M185 240 L185 -158 L74 -158 L74 240 L185 240 Z " />
<glyph glyph-name="section" unicode="&#xa7;" horiz-adv-x="527" d="M473 253 Q473 206 449.5 175.5 Q426 145 396 128 Q434 101 453.5 64.5 Q473 28 473 -14 Q473 -58 455 -93 Q437 -128 408 -153 Q379 -178 340.5 -191.5 Q302 -205 262 -205 Q213 -205 175 -191.5 Q137 -178 110 -153.5 Q83 -129 68 -95 Q53 -61 51 -19 L175 2 Q175 -46 199 -69.5 Q223 -93 263 -93 Q296 -93 317.5 -74 Q339 -55 339 -23 Q339 -3 327 12.5 Q315 28 295 39 L194 92 Q167 106 141.5 122 Q116 138 96.5 158 Q77 178 65.5 203.5 Q54 229 54 264 Q54 310 76.5 341.5 Q99 373 130 390 Q92 418 73 455 Q54 492 54 533 Q54 576 71.5 611.5 Q89 647 118.5 672 Q148 697 186.5 710.5 Q225 724 266 724 Q314 724 352 710 Q390 696 417 671.5 Q444 647 459 612.5 Q474 578 476 537 L350 517 Q350 565 326.5 588 Q303 611 265 611 Q230 611 208.5 591.5 Q187 572 187 541 Q187 523 198 506.5 Q209 490 231 480 L331 428 Q359 413 385 397 Q411 381 430.5 360 Q450 339 461.5 313 Q473 287 473 253 Z M207 347 Q193 336 184 322 Q175 308 175 291 Q175 269 184 253.5 Q193 238 218 225 L319 171 Q333 182 342 196 Q351 210 351 228 Q351 248 341.5 264.5 Q332 281 308 294 L207 347 Z " />
<glyph glyph-name="dieresis" unicode="&#xa8;" horiz-adv-x="405" d="M27 628 Q27 657 47.5 678 Q68 699 97 699 Q126 699 147 678 Q168 657 168 628 Q168 599 147 578.5 Q126 558 97 558 Q68 558 47.5 578.5 Q27 599 27 628 Z M237 628 Q237 657 257 678 Q277 699 307 699 Q336 699 357 678 Q378 657 378 628 Q378 599 357 578.5 Q336 558 307 558 Q277 558 257 578.5 Q237 599 237 628 Z " />
<glyph glyph-name="copyright" unicode="&#xa9;" horiz-adv-x="822" d="M127 354 Q127 293 149 240 Q171 187 209 147.5 Q247 108 298.5 85.5 Q350 63 410 63 Q470 63 521.5 85.5 Q573 108 611 147.5 Q649 187 671 240 Q693 293 693 354 Q693 415 671 468.5 Q649 522 611 561.5 Q573 601 521.5 623.5 Q470 646 410 646 Q350 646 298.5 623.5 Q247 601 209 561.5 Q171 522 149 468.5 Q127 415 127 354 Z M42 354 Q42 430 71 498 Q100 566 149.5 616 Q199 666 266 695.5 Q333 725 410 725 Q486 725 553.5 695.5 Q621 666 671.5 616 Q722 566 751 498 Q780 430 780 354 Q780 278 751 210.5 Q722 143 671.5 93 Q621 43 553.5 13.5 Q486 -16 410 -16 Q333 -16 266 13.5 Q199 43 149.5 93 Q100 143 71 210.5 Q42 278 42 354 Z M413 458 Q375 458 346.5 431 Q318 404 318 353 Q318 302 346.5 274.5 Q375 247 414 247 Q453 247 473.5 268 Q494 289 500 311 L589 281 Q583 258 568.5 235.5 Q554 213 532.5 195 Q511 177 481 166 Q451 155 414 155 Q373 155 337 170 Q301 185 274.5 211 Q248 237 232.5 273.5 Q217 310 217 353 Q217 396 232 433 Q247 470 273 496 Q299 522 334.5 537 Q370 552 411 552 Q449 552 479 541 Q509 530 531 512.5 Q553 495 567 472.5 Q581 450 587 426 L496 395 Q489 418 470 438 Q451 458 413 458 Z " />
<glyph glyph-name="ordfeminine" unicode="&#xaa;" horiz-adv-x="424" d="M48 397 Q48 442 75.5 467.5 Q103 493 151 501 L234 515 Q248 517 253.5 523.5 Q259 530 259 539 Q259 555 245.5 566.5 Q232 578 206 578 Q177 578 161.5 562 Q146 546 144 526 L55 544 Q56 563 66 583.5 Q76 604 95 620.5 Q114 637 141.5 648 Q169 659 206 659 Q248 659 277 648 Q306 637 324 619 Q342 601 350 577 Q358 553 358 526 L358 356 Q358 338 359.5 324 Q361 310 363 302 L270 302 Q269 306 268 315.5 Q267 325 267 342 Q253 320 228.5 306 Q204 292 167 292 Q139 292 117 301 Q95 310 79.5 324.5 Q64 339 56 358 Q48 377 48 397 Z M191 366 Q217 366 238 381.5 Q259 397 259 439 L259 455 L189 444 Q172 442 160.5 432.5 Q149 423 149 403 Q149 389 159 377.5 Q169 366 191 366 Z " />
<glyph glyph-name="guillemotleft" unicode="&#xab;" horiz-adv-x="551" d="M169 101 L32 295 L170 492 L295 492 L159 294 L295 101 L169 101 Z M385 101 L249 295 L386 492 L512 492 L375 294 L511 101 L385 101 Z " />
<glyph glyph-name="logicalnot" unicode="&#xac;" horiz-adv-x="590" d="M420 136 L420 331 L45 331 L45 441 L534 441 L534 136 L420 136 Z " />
<glyph glyph-name="uni00AD" unicode="&#xad;" horiz-adv-x="414" d="M62 238 L62 356 L352 356 L352 238 L62 238 Z " />
<glyph glyph-name="registered" unicode="&#xae;" horiz-adv-x="822" d="M42 354 Q42 430 71 498 Q100 566 149.5 616 Q199 666 266 695.5 Q333 725 410 725 Q486 725 553.5 695.5 Q621 666 671.5 616 Q722 566 751 498 Q780 430 780 354 Q780 278 751 210.5 Q722 143 671.5 93 Q621 43 553.5 13.5 Q486 -16 410 -16 Q333 -16 266 13.5 Q199 43 149.5 93 Q100 143 71 210.5 Q42 278 42 354 Z M127 354 Q127 293 149 240 Q171 187 209 147.5 Q247 108 298.5 85.5 Q350 63 410 63 Q470 63 521.5 85.5 Q573 108 611 147.5 Q649 187 671 240 Q693 293 693 354 Q693 415 671 468.5 Q649 522 611 561.5 Q573 601 521.5 623.5 Q470 646 410 646 Q350 646 298.5 623.5 Q247 601 209 561.5 Q171 522 149 468.5 Q127 415 127 354 Z M401 296 L372 296 L372 157 L277 157 L277 557 L435 557 Q464 557 489 547 Q514 537 532.5 519 Q551 501 561.5 477.5 Q572 454 572 427 Q572 387 551 356.5 Q530 326 495 311 L575 157 L470 157 L401 296 Z M418 374 Q445 374 460.5 388 Q476 402 476 426 Q476 451 460.5 465 Q445 479 418 479 L372 479 L372 374 L418 374 Z " />
<glyph glyph-name="overscore" unicode="&#xaf;" horiz-adv-x="335" d="M27 577 L27 674 L308 674 L308 577 L27 577 Z " />
<glyph glyph-name="degree" unicode="&#xb0;" horiz-adv-x="411" d="M139 499 Q139 467 158 448 Q177 429 205 429 Q234 429 252.5 448.5 Q271 468 271 499 Q271 530 252.5 549 Q234 568 205 568 Q177 568 158 549 Q139 530 139 499 Z M39 499 Q39 533 52.5 563 Q66 593 88.5 615.5 Q111 638 141 650.5 Q171 663 205 663 Q239 663 269 650.5 Q299 638 322 615.5 Q345 593 358.5 563 Q372 533 372 499 Q372 464 358.5 434 Q345 404 322 382.5 Q299 361 269 348.5 Q239 336 205 336 Q171 336 140.5 348.5 Q110 361 87.5 383 Q65 405 52 435 Q39 465 39 499 Z " />
<glyph glyph-name="plusminus" unicode="&#xb1;" horiz-adv-x="578" d="M233 421 L233 544 L345 544 L345 421 L523 421 L523 313 L345 313 L345 190 L233 190 L233 313 L55 313 L55 421 L233 421 Z M523 153 L523 44 L55 44 L55 153 L523 153 Z " />
<glyph glyph-name="twosuperior" unicode="&#xb2;" horiz-adv-x="358" d="M39 564 Q37 569 36 577 Q35 585 35 593 Q35 645 71.5 681 Q108 717 179 717 Q213 717 239.5 707 Q266 697 284 680.5 Q302 664 311.5 642 Q321 620 321 595 Q321 559 300.5 532.5 Q280 506 242 483 L172 441 Q160 434 160 426 L324 426 L324 341 L33 341 L33 353 Q33 402 52.5 441.5 Q72 481 122 510 L182 545 Q220 568 220 596 Q220 610 209.5 622.5 Q199 635 178 635 Q155 635 141 621.5 Q127 608 127 583 Q127 574 130 565 L39 564 Z " />
<glyph glyph-name="threesuperior" unicode="&#xb3;" horiz-adv-x="366" d="M116 469 Q118 446 134.5 431 Q151 416 177 416 Q202 416 216.5 428.5 Q231 441 231 460 Q231 484 214.5 494.5 Q198 505 178 505 Q168 505 159.5 503 Q151 501 146 499 L113 567 L200 626 L39 626 L39 709 L323 709 L323 627 L233 566 Q278 560 306 533 Q334 506 334 458 Q334 433 323 410.5 Q312 388 292 370.5 Q272 353 242.5 343 Q213 333 177 333 Q143 333 116.5 342.5 Q90 352 70.5 368 Q51 384 39.5 405 Q28 426 25 448 L116 469 Z " />
<glyph glyph-name="acute" unicode="&#xb4;" horiz-adv-x="295" d="M133 551 L26 551 L117 701 L269 701 L133 551 Z " />
<glyph glyph-name="mu" unicode="&#xb5;" horiz-adv-x="574" d="M389 0 Q387 8 386 23 Q385 38 385 53 Q365 18 326.5 2.5 Q288 -13 249 -13 Q217 -13 195 -6 L195 -190 L62 -190 L62 492 L195 492 L195 208 Q195 166 216.5 137.5 Q238 109 285 109 Q330 109 354 136 Q378 163 378 206 L378 492 L511 492 L511 89 Q511 59 512.5 34.5 Q514 10 516 0 L389 0 Z " />
<glyph glyph-name="paragraph" unicode="&#xb6;" horiz-adv-x="690" d="M354 -190 L250 -190 L250 301 L233 301 Q191 301 154 316.5 Q117 332 89.5 359 Q62 386 45.5 422.5 Q29 459 29 501 Q29 551 48 590 Q67 629 99 655.5 Q131 682 174.5 695.5 Q218 709 266 709 L653 709 L653 607 L556 607 L556 -190 L450 -190 L450 607 L354 607 L354 -190 Z " />
<glyph glyph-name="middot" unicode="&#xb7;" horiz-adv-x="277" d="M52 309 Q52 345 77 369.5 Q102 394 138 394 Q174 394 199 369.5 Q224 345 224 309 Q224 273 199 249 Q174 225 138 225 Q102 225 77 249 Q52 273 52 309 Z " />
<glyph glyph-name="cedilla" unicode="&#xb8;" horiz-adv-x="298" d="M83 -63 L131 13 L214 13 L175 -48 Q218 -49 245 -72.5 Q272 -96 272 -134 Q272 -151 265 -168 Q258 -185 243 -198.5 Q228 -212 203.5 -220.5 Q179 -229 144 -229 Q102 -229 70.5 -212 Q39 -195 25 -177 L68 -123 Q79 -134 98 -147 Q117 -160 143 -160 Q161 -160 172.5 -153 Q184 -146 184 -132 Q184 -121 174 -112.5 Q164 -104 146 -104 Q140 -104 132.5 -105 Q125 -106 119 -108 L83 -63 Z " />
<glyph glyph-name="onesuperior" unicode="&#xb9;" horiz-adv-x="257" d="M111 342 L111 565 L20 565 L20 631 Q44 631 62 638 Q80 645 92.5 656.5 Q105 668 112.5 681.5 Q120 695 123 709 L214 709 L214 342 L111 342 Z " />
<glyph glyph-name="ordmasculine" unicode="&#xba;" horiz-adv-x="447" d="M224 385 Q256 385 280.5 407.5 Q305 430 305 476 Q305 521 280.5 543.5 Q256 566 224 566 Q192 566 167.5 543.5 Q143 521 143 476 Q143 430 167.5 407.5 Q192 385 224 385 Z M224 659 Q263 659 296 645.5 Q329 632 354 607.5 Q379 583 393 549.5 Q407 516 407 476 Q407 435 393 401.5 Q379 368 354 343.5 Q329 319 296 305.5 Q263 292 224 292 Q185 292 151.5 305.5 Q118 319 93 343.5 Q68 368 54 401.5 Q40 435 40 476 Q40 516 54 549.5 Q68 583 93 607.5 Q118 632 151.5 645.5 Q185 659 224 659 Z " />
<glyph glyph-name="guillemotright" unicode="&#xbb;" horiz-adv-x="552" d="M257 101 L393 294 L257 492 L382 492 L520 295 L383 101 L257 101 Z M41 101 L176 294 L40 492 L165 492 L303 295 L167 101 L41 101 Z " />
<glyph glyph-name="onequarter" unicode="&#xbc;" horiz-adv-x="788" d="M124 282 L124 505 L33 505 L33 571 Q57 571 75 578 Q93 585 105.5 596.5 Q118 608 125.5 621.5 Q133 635 136 649 L227 649 L227 282 L124 282 Z M84 0 L542 649 L658 649 L200 0 L84 0 Z M416 170 L585 368 L694 368 L694 150 L755 150 L755 71 L694 71 L694 0 L594 0 L594 71 L416 71 L416 170 Z M594 264 L497 150 L594 150 L594 264 Z " />
<glyph glyph-name="onehalf" unicode="&#xbd;" horiz-adv-x="807" d="M124 282 L124 505 L33 505 L33 571 Q57 571 75 578 Q93 585 105.5 596.5 Q118 608 125.5 621.5 Q133 635 136 649 L227 649 L227 282 L124 282 Z M83 0 L541 649 L657 649 L199 0 L83 0 Z M482 223 Q480 228 479 236 Q478 244 478 252 Q478 304 514.5 340 Q551 376 622 376 Q656 376 682.5 366 Q709 356 727 339.5 Q745 323 754.5 301 Q764 279 764 254 Q764 218 743.5 191.5 Q723 165 685 142 L615 100 Q603 93 603 85 L767 85 L767 0 L476 0 L476 12 Q476 61 495.5 100.5 Q515 140 565 169 L625 204 Q663 227 663 255 Q663 269 652.5 281.5 Q642 294 621 294 Q598 294 584 280.5 Q570 267 570 242 Q570 233 573 224 L482 223 Z " />
<glyph glyph-name="threequarters" unicode="&#xbe;" horiz-adv-x="863" d="M127 409 Q129 386 145.5 371 Q162 356 188 356 Q213 356 227.5 368.5 Q242 381 242 400 Q242 424 225.5 434.5 Q209 445 189 445 Q179 445 170.5 443 Q162 441 157 439 L124 507 L211 566 L50 566 L50 649 L334 649 L334 567 L244 506 Q289 500 317 473 Q345 446 345 398 Q345 373 334 350.5 Q323 328 303 310.5 Q283 293 253.5 283 Q224 273 188 273 Q154 273 127.5 282.5 Q101 292 81.5 308 Q62 324 50.5 345 Q39 366 36 388 L127 409 Z M166 0 L624 649 L740 649 L282 0 L166 0 Z M491 170 L660 368 L769 368 L769 150 L830 150 L830 71 L769 71 L769 0 L669 0 L669 71 L491 71 L491 170 Z M669 264 L572 150 L669 150 L669 264 Z " />
<glyph glyph-name="questiondown" unicode="&#xbf;" horiz-adv-x="522" d="M329 284 Q332 264 332 243 Q332 202 315.5 165.5 Q299 129 255 97 L207 62 Q184 45 174.5 25.5 Q165 6 165 -17 Q165 -52 189.5 -79 Q214 -106 264 -106 Q290 -106 309.5 -97 Q329 -88 341.5 -73 Q354 -58 360.5 -39 Q367 -20 367 0 Q367 11 365.5 22 Q364 33 361 41 L489 29 Q494 6 494 -15 Q494 -56 479 -93.5 Q464 -131 435 -160.5 Q406 -190 363 -207.5 Q320 -225 264 -225 Q206 -225 162 -208 Q118 -191 88.5 -163 Q59 -135 44 -99.5 Q29 -64 29 -26 Q29 34 55.5 77.5 Q82 121 126 152 L167 181 Q193 199 207 223 Q221 247 221 278 L221 284 L329 284 Z M194 428 Q194 461 217.5 484 Q241 507 274 507 Q307 507 330 484 Q353 461 353 428 Q353 395 330 372 Q307 349 274 349 Q241 349 217.5 372 Q194 395 194 428 Z " />
<glyph glyph-name="Agrave" unicode="&#xc0;" horiz-adv-x="721" d="M502 162 L214 162 L155 0 L9 0 L281 709 L441 709 L711 0 L561 0 L502 162 Z M260 288 L456 288 L358 556 L260 288 Z M164 886 L327 886 L431 759 L309 759 L164 886 Z " />
<glyph glyph-name="Aacute" unicode="&#xc1;" horiz-adv-x="721" d="M502 162 L214 162 L155 0 L9 0 L281 709 L441 709 L711 0 L561 0 L502 162 Z M260 288 L456 288 L358 556 L260 288 Z M412 759 L290 759 L393 886 L557 886 L412 759 Z " />
<glyph glyph-name="Acircumflex" unicode="&#xc2;" horiz-adv-x="721" d="M502 162 L214 162 L155 0 L9 0 L281 709 L441 709 L711 0 L561 0 L502 162 Z M260 288 L456 288 L358 556 L260 288 Z M169 759 L289 886 L425 886 L547 759 L422 759 L355 824 L290 759 L169 759 Z " />
<glyph glyph-name="Atilde" unicode="&#xc3;" horiz-adv-x="721" d="M502 162 L214 162 L155 0 L9 0 L281 709 L441 709 L711 0 L561 0 L502 162 Z M260 288 L456 288 L358 556 L260 288 Z M524 862 Q524 807 494.5 779.5 Q465 752 423 752 Q400 752 381.5 759 Q363 766 348 776 L342 780 Q328 788 316.5 794 Q305 800 294 800 Q265 800 265 757 L185 757 L185 784 Q185 839 215 866 Q245 893 286 893 Q309 893 327.5 886 Q346 879 362 870 L368 866 Q382 859 393 853 Q404 847 415 847 Q427 847 435.5 854 Q444 861 444 878 L444 890 L524 890 L524 862 Z " />
<glyph glyph-name="Adieresis" unicode="&#xc4;" horiz-adv-x="721" d="M127 823 Q127 853 147 874 Q167 895 198 895 Q229 895 250 874 Q271 853 271 823 Q271 792 250 771.5 Q229 751 198 751 Q167 751 147 771.5 Q127 792 127 823 Z M445 823 Q445 853 465.5 874 Q486 895 517 895 Q548 895 569 874 Q590 853 590 823 Q590 792 569 771.5 Q548 751 517 751 Q486 751 465.5 771.5 Q445 792 445 823 Z M502 162 L214 162 L155 0 L9 0 L281 709 L441 709 L711 0 L561 0 L502 162 Z M260 288 L456 288 L358 556 L260 288 Z " />
<glyph glyph-name="Aring" unicode="&#xc5;" horiz-adv-x="721" d="M408 759 Q408 782 393 796 Q378 810 358 810 Q337 810 322.5 796 Q308 782 308 759 Q308 736 322.5 722.5 Q337 709 358 709 Q378 709 393 722.5 Q408 736 408 759 Z M260 288 L456 288 L358 556 L260 288 Z M502 162 L214 162 L155 0 L9 0 L264 664 Q244 682 233 706 Q222 730 222 759 Q222 788 233 812 Q244 836 263 853.5 Q282 871 306.5 881 Q331 891 358 891 Q385 891 409.5 881 Q434 871 453 853.5 Q472 836 483 812 Q494 788 494 759 Q494 732 483.5 708.5 Q473 685 456 668 L711 0 L561 0 L502 162 Z " />
<glyph glyph-name="AE" unicode="&#xc6;" horiz-adv-x="1039" d="M543 0 L543 167 L269 167 L162 0 L-7 0 L463 709 L987 709 L987 579 L682 579 L682 417 L958 417 L958 294 L682 294 L682 130 L988 130 L988 0 L543 0 Z M543 283 L543 595 L343 283 L543 283 Z " />
<glyph glyph-name="Ccedilla" unicode="&#xc7;" horiz-adv-x="756" d="M336 -63 L368 -13 Q300 -7 240.5 21.5 Q181 50 136.5 97 Q92 144 66.5 209 Q41 274 41 354 Q41 439 70.5 507.5 Q100 576 150 624 Q200 672 265.5 698 Q331 724 402 724 Q475 724 531.5 703.5 Q588 683 627.5 649.5 Q667 616 691.5 574 Q716 532 727 489 L597 448 Q591 473 577 499 Q563 525 539.5 545 Q516 565 482 578 Q448 591 402 591 Q362 591 323 576.5 Q284 562 253 533 Q222 504 203 459 Q184 414 184 354 Q184 297 202.5 253.5 Q221 210 251.5 180.5 Q282 151 321.5 135.5 Q361 120 404 120 Q449 120 483.5 133.5 Q518 147 542 168 Q566 189 581 214.5 Q596 240 603 265 L732 226 Q723 188 701.5 149 Q680 110 645.5 76.5 Q611 43 562.5 19 Q514 -5 451 -12 L428 -48 Q471 -49 498 -72.5 Q525 -96 525 -134 Q525 -151 518 -168 Q511 -185 496 -198.5 Q481 -212 456.5 -220.5 Q432 -229 397 -229 Q355 -229 323.5 -212 Q292 -195 278 -177 L321 -123 Q332 -134 351 -147 Q370 -160 396 -160 Q414 -160 425.5 -153 Q437 -146 437 -132 Q437 -121 427 -112.5 Q417 -104 399 -104 Q393 -104 385 -105 Q377 -106 372 -108 L336 -63 Z " />
<glyph glyph-name="Egrave" unicode="&#xc8;" horiz-adv-x="579" d="M130 886 L293 886 L397 759 L275 759 L130 886 Z M83 0 L83 709 L527 709 L527 579 L221 579 L221 417 L498 417 L498 294 L221 294 L221 130 L527 130 L527 0 L83 0 Z " />
<glyph glyph-name="Eacute" unicode="&#xc9;" horiz-adv-x="579" d="M348 759 L226 759 L329 886 L493 886 L348 759 Z M83 0 L83 709 L527 709 L527 579 L221 579 L221 417 L498 417 L498 294 L221 294 L221 130 L527 130 L527 0 L83 0 Z " />
<glyph glyph-name="Ecircumflex" unicode="&#xca;" horiz-adv-x="579" d="M114 759 L234 886 L370 886 L492 759 L367 759 L300 824 L235 759 L114 759 Z M83 0 L83 709 L527 709 L527 579 L221 579 L221 417 L498 417 L498 294 L221 294 L221 130 L527 130 L527 0 L83 0 Z " />
<glyph glyph-name="Edieresis" unicode="&#xcb;" horiz-adv-x="579" d="M123 823 Q123 853 143 874 Q163 895 194 895 Q225 895 246 874 Q267 853 267 823 Q267 792 246 771.5 Q225 751 194 751 Q163 751 143 771.5 Q123 792 123 823 Z M348 823 Q348 853 368 874 Q388 895 419 895 Q450 895 471 874 Q492 853 492 823 Q492 792 471 771.5 Q450 751 419 751 Q388 751 368 771.5 Q348 792 348 823 Z M83 0 L83 709 L527 709 L527 579 L221 579 L221 417 L498 417 L498 294 L221 294 L221 130 L527 130 L527 0 L83 0 Z " />
<glyph glyph-name="Igrave" unicode="&#xcc;" horiz-adv-x="306" d="M83 0 L83 709 L223 709 L223 0 L83 0 Z M-45 886 L118 886 L222 759 L100 759 L-45 886 Z " />
<glyph glyph-name="Iacute" unicode="&#xcd;" horiz-adv-x="306" d="M83 0 L83 709 L223 709 L223 0 L83 0 Z M207 759 L85 759 L188 886 L352 886 L207 759 Z " />
<glyph glyph-name="Icircumflex" unicode="&#xce;" horiz-adv-x="306" d="M83 0 L83 709 L223 709 L223 0 L83 0 Z M-31 759 L89 886 L225 886 L347 759 L222 759 L155 824 L90 759 L-31 759 Z " />
<glyph glyph-name="Idieresis" unicode="&#xcf;" horiz-adv-x="306" d="M-10 823 Q-10 852 9.5 872.5 Q29 893 59 893 Q88 893 109 872.5 Q130 852 130 823 Q130 793 109 773 Q88 753 59 753 Q29 753 9.5 773 Q-10 793 -10 823 Z M179 823 Q179 852 199 872.5 Q219 893 248 893 Q278 893 298.5 872.5 Q319 852 319 823 Q319 793 298.5 773 Q278 753 248 753 Q219 753 199 773 Q179 793 179 823 Z M83 0 L83 709 L223 709 L223 0 L83 0 Z " />
<glyph glyph-name="Eth" unicode="&#xd0;" horiz-adv-x="747" d="M100 0 L100 315 L12 315 L12 417 L100 417 L100 709 L354 709 Q430 709 494 685 Q558 661 604.5 615.5 Q651 570 677.5 504 Q704 438 704 354 Q704 270 677.5 204 Q651 138 604 93 Q557 48 493 24 Q429 0 353 0 L100 0 Z M348 128 Q391 128 430 141.5 Q469 155 498 183 Q527 211 544 253.5 Q561 296 561 354 Q561 412 544 454.5 Q527 497 498.5 525 Q470 553 431 567 Q392 581 349 581 L238 581 L238 417 L375 417 L375 315 L238 315 L238 128 L348 128 Z " />
<glyph glyph-name="Ntilde" unicode="&#xd1;" horiz-adv-x="771" d="M557 862 Q557 807 527.5 779.5 Q498 752 456 752 Q433 752 414.5 759 Q396 766 381 776 L375 780 Q361 788 349.5 794 Q338 800 327 800 Q298 800 298 757 L218 757 L218 784 Q218 839 248 866 Q278 893 319 893 Q342 893 360.5 886 Q379 879 395 870 L401 866 Q415 859 426 853 Q437 847 448 847 Q460 847 468.5 854 Q477 861 477 878 L477 890 L557 890 L557 862 Z M543 0 L221 503 L221 0 L83 0 L83 709 L255 709 L550 240 L550 709 L688 709 L688 0 L543 0 Z " />
<glyph glyph-name="Ograve" unicode="&#xd2;" horiz-adv-x="811" d="M203 886 L366 886 L470 759 L348 759 L203 886 Z M184 355 Q184 295 203 250.5 Q222 206 253.5 177 Q285 148 324.5 133.5 Q364 119 405 119 Q446 119 486 133.5 Q526 148 557.5 177 Q589 206 608 250.5 Q627 295 627 355 Q627 415 608 459.5 Q589 504 557.5 533 Q526 562 486 576.5 Q446 591 405 591 Q364 591 324.5 576.5 Q285 562 253.5 533 Q222 504 203 459.5 Q184 415 184 355 Z M41 354 Q41 440 71 508.5 Q101 577 151 625 Q201 673 267 698.5 Q333 724 405 724 Q477 724 543.5 698.5 Q610 673 660 625 Q710 577 740 508.5 Q770 440 770 354 Q770 268 740 200 Q710 132 660 84 Q610 36 543.5 10.5 Q477 -15 405 -15 Q333 -15 267 10.5 Q201 36 151 84 Q101 132 71 200 Q41 268 41 354 Z " />
<glyph glyph-name="Oacute" unicode="&#xd3;" horiz-adv-x="811" d="M457 759 L335 759 L438 886 L602 886 L457 759 Z M184 355 Q184 295 203 250.5 Q222 206 253.5 177 Q285 148 324.5 133.5 Q364 119 405 119 Q446 119 486 133.5 Q526 148 557.5 177 Q589 206 608 250.5 Q627 295 627 355 Q627 415 608 459.5 Q589 504 557.5 533 Q526 562 486 576.5 Q446 591 405 591 Q364 591 324.5 576.5 Q285 562 253.5 533 Q222 504 203 459.5 Q184 415 184 355 Z M41 354 Q41 440 71 508.5 Q101 577 151 625 Q201 673 267 698.5 Q333 724 405 724 Q477 724 543.5 698.5 Q610 673 660 625 Q710 577 740 508.5 Q770 440 770 354 Q770 268 740 200 Q710 132 660 84 Q610 36 543.5 10.5 Q477 -15 405 -15 Q333 -15 267 10.5 Q201 36 151 84 Q101 132 71 200 Q41 268 41 354 Z " />
<glyph glyph-name="Ocircumflex" unicode="&#xd4;" horiz-adv-x="811" d="M217 759 L337 886 L473 886 L595 759 L470 759 L403 824 L338 759 L217 759 Z M184 355 Q184 295 203 250.5 Q222 206 253.5 177 Q285 148 324.5 133.5 Q364 119 405 119 Q446 119 486 133.5 Q526 148 557.5 177 Q589 206 608 250.5 Q627 295 627 355 Q627 415 608 459.5 Q589 504 557.5 533 Q526 562 486 576.5 Q446 591 405 591 Q364 591 324.5 576.5 Q285 562 253.5 533 Q222 504 203 459.5 Q184 415 184 355 Z M41 354 Q41 440 71 508.5 Q101 577 151 625 Q201 673 267 698.5 Q333 724 405 724 Q477 724 543.5 698.5 Q610 673 660 625 Q710 577 740 508.5 Q770 440 770 354 Q770 268 740 200 Q710 132 660 84 Q610 36 543.5 10.5 Q477 -15 405 -15 Q333 -15 267 10.5 Q201 36 151 84 Q101 132 71 200 Q41 268 41 354 Z " />
<glyph glyph-name="Otilde" unicode="&#xd5;" horiz-adv-x="811" d="M573 862 Q573 807 543.5 779.5 Q514 752 472 752 Q449 752 430.5 759 Q412 766 397 776 L391 780 Q377 788 365.5 794 Q354 800 343 800 Q314 800 314 757 L234 757 L234 784 Q234 839 264 866 Q294 893 335 893 Q358 893 376.5 886 Q395 879 411 870 L417 866 Q431 859 442 853 Q453 847 464 847 Q476 847 484.5 854 Q493 861 493 878 L493 890 L573 890 L573 862 Z M184 355 Q184 295 203 250.5 Q222 206 253.5 177 Q285 148 324.5 133.5 Q364 119 405 119 Q446 119 486 133.5 Q526 148 557.5 177 Q589 206 608 250.5 Q627 295 627 355 Q627 415 608 459.5 Q589 504 557.5 533 Q526 562 486 576.5 Q446 591 405 591 Q364 591 324.5 576.5 Q285 562 253.5 533 Q222 504 203 459.5 Q184 415 184 355 Z M41 354 Q41 440 71 508.5 Q101 577 151 625 Q201 673 267 698.5 Q333 724 405 724 Q477 724 543.5 698.5 Q610 673 660 625 Q710 577 740 508.5 Q770 440 770 354 Q770 268 740 200 Q710 132 660 84 Q610 36 543.5 10.5 Q477 -15 405 -15 Q333 -15 267 10.5 Q201 36 151 84 Q101 132 71 200 Q41 268 41 354 Z " />
<glyph glyph-name="Odieresis" unicode="&#xd6;" horiz-adv-x="811" d="M167 823 Q167 853 187.5 874 Q208 895 239 895 Q270 895 291 874 Q312 853 312 823 Q312 792 291 771.5 Q270 751 239 751 Q208 751 187.5 771.5 Q167 792 167 823 Z M500 823 Q500 853 520.5 874 Q541 895 572 895 Q602 895 623 874 Q644 853 644 823 Q644 792 623 771.5 Q602 751 572 751 Q541 751 520.5 771.5 Q500 792 500 823 Z M184 355 Q184 295 203 250.5 Q222 206 253.5 177 Q285 148 324.5 133.5 Q364 119 405 119 Q446 119 486 133.5 Q526 148 557.5 177 Q589 206 608 250.5 Q627 295 627 355 Q627 415 608 459.5 Q589 504 557.5 533 Q526 562 486 576.5 Q446 591 405 591 Q364 591 324.5 576.5 Q285 562 253.5 533 Q222 504 203 459.5 Q184 415 184 355 Z M41 354 Q41 440 71 508.5 Q101 577 151 625 Q201 673 267 698.5 Q333 724 405 724 Q477 724 543.5 698.5 Q610 673 660 625 Q710 577 740 508.5 Q770 440 770 354 Q770 268 740 200 Q710 132 660 84 Q610 36 543.5 10.5 Q477 -15 405 -15 Q333 -15 267 10.5 Q201 36 151 84 Q101 132 71 200 Q41 268 41 354 Z " />
<glyph glyph-name="multiply" unicode="&#xd7;" horiz-adv-x="561" d="M280 215 L115 48 L36 127 L201 295 L36 463 L116 542 L280 375 L445 542 L525 464 L359 295 L525 127 L446 47 L280 215 Z " />
<glyph glyph-name="Oslash" unicode="&#xd8;" horiz-adv-x="811" d="M41 354 Q41 440 71 508.5 Q101 577 151 625 Q201 673 267 698.5 Q333 724 405 724 Q503 724 586 678 L656 768 L744 702 L674 611 Q719 563 744.5 498.5 Q770 434 770 354 Q770 268 740 200 Q710 132 660 84 Q610 36 543.5 10.5 Q477 -15 405 -15 Q356 -15 310.5 -3.5 Q265 8 224 30 L156 -58 L66 7 L137 98 Q92 146 66.5 210 Q41 274 41 354 Z M184 355 Q184 310 194.5 274 Q205 238 224 211 L502 570 Q457 591 405 591 Q364 591 324.5 576.5 Q285 562 253.5 533 Q222 504 203 459.5 Q184 415 184 355 Z M627 355 Q627 400 616.5 436 Q606 472 587 499 L309 140 Q354 119 405 119 Q446 119 486 133.5 Q526 148 557.5 177 Q589 206 608 250.5 Q627 295 627 355 Z " />
<glyph glyph-name="Ugrave" unicode="&#xd9;" horiz-adv-x="699" d="M161 886 L324 886 L428 759 L306 759 L161 886 Z M349 -16 Q292 -16 242.5 1 Q193 18 156.5 52 Q120 86 98.5 136 Q77 186 77 251 L77 709 L215 709 L215 261 Q215 191 251 155 Q287 119 349 119 Q412 119 448 155 Q484 191 484 261 L484 709 L622 709 L622 251 Q622 186 600.5 136 Q579 86 542.5 52 Q506 18 456 1 Q406 -16 349 -16 Z " />
<glyph glyph-name="Uacute" unicode="&#xda;" horiz-adv-x="699" d="M386 759 L264 759 L367 886 L531 886 L386 759 Z M349 -16 Q292 -16 242.5 1 Q193 18 156.5 52 Q120 86 98.5 136 Q77 186 77 251 L77 709 L215 709 L215 261 Q215 191 251 155 Q287 119 349 119 Q412 119 448 155 Q484 191 484 261 L484 709 L622 709 L622 251 Q622 186 600.5 136 Q579 86 542.5 52 Q506 18 456 1 Q406 -16 349 -16 Z " />
<glyph glyph-name="Ucircumflex" unicode="&#xdb;" horiz-adv-x="699" d="M161 759 L281 886 L417 886 L539 759 L414 759 L347 824 L282 759 L161 759 Z M349 -16 Q292 -16 242.5 1 Q193 18 156.5 52 Q120 86 98.5 136 Q77 186 77 251 L77 709 L215 709 L215 261 Q215 191 251 155 Q287 119 349 119 Q412 119 448 155 Q484 191 484 261 L484 709 L622 709 L622 251 Q622 186 600.5 136 Q579 86 542.5 52 Q506 18 456 1 Q406 -16 349 -16 Z " />
<glyph glyph-name="Udieresis" unicode="&#xdc;" horiz-adv-x="699" d="M158 823 Q158 853 178.5 874 Q199 895 230 895 Q260 895 281 874 Q302 853 302 823 Q302 792 281 771.5 Q260 751 230 751 Q199 751 178.5 771.5 Q158 792 158 823 Z M398 823 Q398 853 418.5 874 Q439 895 470 895 Q500 895 521 874 Q542 853 542 823 Q542 792 521 771.5 Q500 751 470 751 Q439 751 418.5 771.5 Q398 792 398 823 Z M349 -16 Q292 -16 242.5 1 Q193 18 156.5 52 Q120 86 98.5 136 Q77 186 77 251 L77 709 L215 709 L215 261 Q215 191 251 155 Q287 119 349 119 Q412 119 448 155 Q484 191 484 261 L484 709 L622 709 L622 251 Q622 186 600.5 136 Q579 86 542.5 52 Q506 18 456 1 Q406 -16 349 -16 Z " />
<glyph glyph-name="Yacute" unicode="&#xdd;" horiz-adv-x="659" d="M13 709 L175 709 L334 428 L493 709 L648 709 L398 298 L398 0 L260 0 L260 298 L13 709 Z M374 759 L252 759 L355 886 L519 886 L374 759 Z " />
<glyph glyph-name="Thorn" unicode="&#xde;" horiz-adv-x="606" d="M331 257 Q383 257 412.5 284.5 Q442 312 442 358 Q442 406 412.5 433.5 Q383 461 331 461 L222 461 L222 257 L331 257 Z M221 139 L221 0 L83 0 L83 709 L221 709 L221 580 L343 580 Q394 580 437.5 563 Q481 546 513 516.5 Q545 487 563 446.5 Q581 406 581 359 Q581 312 563 271.5 Q545 231 513 201.5 Q481 172 438 155.5 Q395 139 344 139 L221 139 Z " />
<glyph glyph-name="germandbls" unicode="&#xdf;" horiz-adv-x="608" d="M398 343 Q399 329 408 322.5 Q417 316 435 308 L465 295 Q516 275 546.5 235 Q577 195 577 141 Q577 115 567 87.5 Q557 60 535.5 37.5 Q514 15 480 0 Q446 -15 399 -15 Q354 -15 322 -1 Q290 13 269.5 34.5 Q249 56 240 81 Q231 106 231 128 L338 149 Q338 139 341 128 Q344 117 351.5 107.5 Q359 98 371 92 Q383 86 400 86 Q426 86 439.5 100.5 Q453 115 453 132 Q453 151 442 164 Q431 177 405 188 L375 200 Q356 208 336.5 219 Q317 230 301 245.5 Q285 261 275 283 Q265 305 265 334 Q265 356 271 374.5 Q277 393 287 407 Q297 421 308.5 431.5 Q320 442 332 450 L352 463 Q376 478 388.5 495 Q401 512 401 535 Q401 562 378.5 584.5 Q356 607 307 607 Q286 607 266.5 599.5 Q247 592 232 576.5 Q217 561 208 536 Q199 511 199 477 L199 0 L68 0 L68 486 Q68 547 87.5 591.5 Q107 636 140 665.5 Q173 695 216.5 709.5 Q260 724 307 724 Q359 724 400.5 709.5 Q442 695 471.5 670 Q501 645 517 611.5 Q533 578 533 541 Q533 512 525.5 489 Q518 466 506 448 Q494 430 478 416 Q462 402 445 391 L425 379 Q412 371 405 363.5 Q398 356 398 343 Z " />
<glyph glyph-name="agrave" unicode="&#xe0;" horiz-adv-x="538" d="M39 134 Q39 167 50.5 192.5 Q62 218 82 237 Q102 256 128.5 267 Q155 278 186 283 L307 301 Q328 304 336 313.5 Q344 323 344 336 Q344 362 323.5 381 Q303 400 261 400 Q217 400 193.5 376 Q170 352 167 320 L49 345 Q52 374 67 403 Q82 432 108 455 Q134 478 172 492.5 Q210 507 260 507 Q318 507 359 491.5 Q400 476 425.5 450.5 Q451 425 462.5 391 Q474 357 474 320 L474 78 Q474 58 476 35.5 Q478 13 480 0 L358 0 Q356 10 354.5 27.5 Q353 45 353 59 Q334 30 298.5 8 Q263 -14 208 -14 Q169 -14 137.5 -1.5 Q106 11 84 31.5 Q62 52 50.5 78.5 Q39 105 39 134 Z M236 85 Q257 85 276.5 90.5 Q296 96 311 109.5 Q326 123 335 144.5 Q344 166 344 199 L344 221 L233 204 Q207 200 189.5 185.5 Q172 171 172 142 Q172 120 188 102.5 Q204 85 236 85 Z M89 701 L243 701 L333 551 L225 551 L89 701 Z " />
<glyph glyph-name="aacute" unicode="&#xe1;" horiz-adv-x="538" d="M39 134 Q39 167 50.5 192.5 Q62 218 82 237 Q102 256 128.5 267 Q155 278 186 283 L307 301 Q328 304 336 313.5 Q344 323 344 336 Q344 362 323.5 381 Q303 400 261 400 Q217 400 193.5 376 Q170 352 167 320 L49 345 Q52 374 67 403 Q82 432 108 455 Q134 478 172 492.5 Q210 507 260 507 Q318 507 359 491.5 Q400 476 425.5 450.5 Q451 425 462.5 391 Q474 357 474 320 L474 78 Q474 58 476 35.5 Q478 13 480 0 L358 0 Q356 10 354.5 27.5 Q353 45 353 59 Q334 30 298.5 8 Q263 -14 208 -14 Q169 -14 137.5 -1.5 Q106 11 84 31.5 Q62 52 50.5 78.5 Q39 105 39 134 Z M236 85 Q257 85 276.5 90.5 Q296 96 311 109.5 Q326 123 335 144.5 Q344 166 344 199 L344 221 L233 204 Q207 200 189.5 185.5 Q172 171 172 142 Q172 120 188 102.5 Q204 85 236 85 Z M305 551 L198 551 L289 701 L441 701 L305 551 Z " />
<glyph glyph-name="acircumflex" unicode="&#xe2;" horiz-adv-x="538" d="M39 134 Q39 167 50.5 192.5 Q62 218 82 237 Q102 256 128.5 267 Q155 278 186 283 L307 301 Q328 304 336 313.5 Q344 323 344 336 Q344 362 323.5 381 Q303 400 261 400 Q217 400 193.5 376 Q170 352 167 320 L49 345 Q52 374 67 403 Q82 432 108 455 Q134 478 172 492.5 Q210 507 260 507 Q318 507 359 491.5 Q400 476 425.5 450.5 Q451 425 462.5 391 Q474 357 474 320 L474 78 Q474 58 476 35.5 Q478 13 480 0 L358 0 Q356 10 354.5 27.5 Q353 45 353 59 Q334 30 298.5 8 Q263 -14 208 -14 Q169 -14 137.5 -1.5 Q106 11 84 31.5 Q62 52 50.5 78.5 Q39 105 39 134 Z M236 85 Q257 85 276.5 90.5 Q296 96 311 109.5 Q326 123 335 144.5 Q344 166 344 199 L344 221 L233 204 Q207 200 189.5 185.5 Q172 171 172 142 Q172 120 188 102.5 Q204 85 236 85 Z M87 552 L197 699 L329 699 L439 552 L332 552 L261 627 L191 552 L87 552 Z " />
<glyph glyph-name="atilde" unicode="&#xe3;" horiz-adv-x="538" d="M39 134 Q39 167 50.5 192.5 Q62 218 82 237 Q102 256 128.5 267 Q155 278 186 283 L307 301 Q328 304 336 313.5 Q344 323 344 336 Q344 362 323.5 381 Q303 400 261 400 Q217 400 193.5 376 Q170 352 167 320 L49 345 Q52 374 67 403 Q82 432 108 455 Q134 478 172 492.5 Q210 507 260 507 Q318 507 359 491.5 Q400 476 425.5 450.5 Q451 425 462.5 391 Q474 357 474 320 L474 78 Q474 58 476 35.5 Q478 13 480 0 L358 0 Q356 10 354.5 27.5 Q353 45 353 59 Q334 30 298.5 8 Q263 -14 208 -14 Q169 -14 137.5 -1.5 Q106 11 84 31.5 Q62 52 50.5 78.5 Q39 105 39 134 Z M236 85 Q257 85 276.5 90.5 Q296 96 311 109.5 Q326 123 335 144.5 Q344 166 344 199 L344 221 L233 204 Q207 200 189.5 185.5 Q172 171 172 142 Q172 120 188 102.5 Q204 85 236 85 Z M441 678 Q441 615 411 585 Q381 555 334 555 Q313 555 295 561 Q277 567 263 577 L257 581 Q247 587 237.5 593 Q228 599 210 599 Q194 599 185 589 Q176 579 175 556 L93 556 L93 577 Q93 638 124.5 668 Q156 698 202 698 Q224 698 241 691 Q258 684 274 676 L280 672 Q293 664 304.5 658.5 Q316 653 328 653 Q361 653 361 696 L441 696 L441 678 Z " />
<glyph glyph-name="adieresis" unicode="&#xe4;" horiz-adv-x="538" d="M39 134 Q39 167 50.5 192.5 Q62 218 82 237 Q102 256 128.5 267 Q155 278 186 283 L307 301 Q328 304 336 313.5 Q344 323 344 336 Q344 362 323.5 381 Q303 400 261 400 Q217 400 193.5 376 Q170 352 167 320 L49 345 Q52 374 67 403 Q82 432 108 455 Q134 478 172 492.5 Q210 507 260 507 Q318 507 359 491.5 Q400 476 425.5 450.5 Q451 425 462.5 391 Q474 357 474 320 L474 78 Q474 58 476 35.5 Q478 13 480 0 L358 0 Q356 10 354.5 27.5 Q353 45 353 59 Q334 30 298.5 8 Q263 -14 208 -14 Q169 -14 137.5 -1.5 Q106 11 84 31.5 Q62 52 50.5 78.5 Q39 105 39 134 Z M236 85 Q257 85 276.5 90.5 Q296 96 311 109.5 Q326 123 335 144.5 Q344 166 344 199 L344 221 L233 204 Q207 200 189.5 185.5 Q172 171 172 142 Q172 120 188 102.5 Q204 85 236 85 Z M89 628 Q89 657 109.5 678 Q130 699 159 699 Q188 699 209 678 Q230 657 230 628 Q230 599 209 578.5 Q188 558 159 558 Q130 558 109.5 578.5 Q89 599 89 628 Z M299 628 Q299 657 319 678 Q339 699 369 699 Q398 699 419 678 Q440 657 440 628 Q440 599 419 578.5 Q398 558 369 558 Q339 558 319 578.5 Q299 599 299 628 Z " />
<glyph glyph-name="aring" unicode="&#xe5;" horiz-adv-x="538" d="M39 134 Q39 167 50.5 192.5 Q62 218 82 237 Q102 256 128.5 267 Q155 278 186 283 L307 301 Q328 304 336 313.5 Q344 323 344 336 Q344 362 323.5 381 Q303 400 261 400 Q217 400 193.5 376 Q170 352 167 320 L49 345 Q52 374 67 403 Q82 432 108 455 Q134 478 172 492.5 Q210 507 260 507 Q318 507 359 491.5 Q400 476 425.5 450.5 Q451 425 462.5 391 Q474 357 474 320 L474 78 Q474 58 476 35.5 Q478 13 480 0 L358 0 Q356 10 354.5 27.5 Q353 45 353 59 Q334 30 298.5 8 Q263 -14 208 -14 Q169 -14 137.5 -1.5 Q106 11 84 31.5 Q62 52 50.5 78.5 Q39 105 39 134 Z M236 85 Q257 85 276.5 90.5 Q296 96 311 109.5 Q326 123 335 144.5 Q344 166 344 199 L344 221 L233 204 Q207 200 189.5 185.5 Q172 171 172 142 Q172 120 188 102.5 Q204 85 236 85 Z M373 653 Q373 629 363.5 609 Q354 589 338.5 574 Q323 559 302 551 Q281 543 258 543 Q235 543 214 551 Q193 559 177.5 574 Q162 589 152.5 609 Q143 629 143 653 Q143 677 152.5 697.5 Q162 718 177.5 733 Q193 748 214 756.5 Q235 765 258 765 Q281 765 302 756.5 Q323 748 338.5 733 Q354 718 363.5 697.5 Q373 677 373 653 Z M298 653 Q298 672 286 683.5 Q274 695 257 695 Q240 695 228.5 683.5 Q217 672 217 653 Q217 635 228.5 623.5 Q240 612 257 612 Q274 612 286 623.5 Q298 635 298 653 Z " />
<glyph glyph-name="ae" unicode="&#xe6;" horiz-adv-x="870" d="M824 141 Q815 109 795 80.5 Q775 52 746 31 Q717 10 680 -2.5 Q643 -15 598 -15 Q541 -15 491.5 7.5 Q442 30 407 73 Q371 25 323 5 Q275 -15 220 -15 Q176 -15 142 -2.5 Q108 10 85 30.5 Q62 51 50 78 Q38 105 38 134 Q38 167 49.5 192.5 Q61 218 81 237 Q101 256 127.5 267 Q154 278 185 283 L311 301 Q333 304 340.5 314 Q348 324 348 336 Q348 362 327 381.5 Q306 401 262 401 Q217 401 192 377 Q167 353 164 321 L48 345 Q51 375 66.5 404 Q82 433 109.5 456 Q137 479 176 493 Q215 507 263 507 Q324 507 365 489.5 Q406 472 430 443 Q463 474 504.5 490.5 Q546 507 592 507 Q705 507 768 439 Q831 371 831 252 Q831 238 830 225.5 Q829 213 828 211 L475 211 Q476 185 486.5 164.5 Q497 144 513.5 129 Q530 114 552 106 Q574 98 599 98 Q647 98 674 120 Q701 142 712 176 L824 141 Z M239 85 Q258 85 277.5 90.5 Q297 96 313 109 Q329 122 338.5 144 Q348 166 348 198 L348 221 L232 204 Q206 200 187.5 185.5 Q169 171 169 142 Q169 121 186.5 103 Q204 85 239 85 Z M700 302 Q699 320 692.5 337.5 Q686 355 672.5 368.5 Q659 382 638 390.5 Q617 399 588 399 Q562 399 542 390 Q522 381 508 367 Q494 353 486.5 336 Q479 319 478 302 L700 302 Z " />
<glyph glyph-name="ccedilla" unicode="&#xe7;" horiz-adv-x="556" d="M226 -63 L258 -12 Q211 -6 170.5 16 Q130 38 100.5 72 Q71 106 54.5 150.5 Q38 195 38 246 Q38 303 57.5 351 Q77 399 111.5 433.5 Q146 468 192.5 487.5 Q239 507 293 507 Q343 507 382.5 492.5 Q422 478 451 455 Q480 432 498 402 Q516 372 524 341 L405 301 Q396 332 370.5 358 Q345 384 296 384 Q270 384 247.5 375 Q225 366 208 348.5 Q191 331 181 305 Q171 279 171 246 Q171 213 181 187 Q191 161 208.5 143 Q226 125 248.5 116 Q271 107 297 107 Q322 107 341.5 114.5 Q361 122 375 134 Q389 146 397.5 161 Q406 176 410 190 L527 151 Q519 124 504 97.5 Q489 71 465.5 48.5 Q442 26 411 10 Q380 -6 341 -12 L318 -48 Q361 -49 388 -72.5 Q415 -96 415 -134 Q415 -151 408 -168 Q401 -185 386 -198.5 Q371 -212 346.5 -220.5 Q322 -229 287 -229 Q245 -229 213.5 -212 Q182 -195 168 -177 L211 -123 Q222 -134 241 -147 Q260 -160 286 -160 Q304 -160 315.5 -153 Q327 -146 327 -132 Q327 -121 317 -112.5 Q307 -104 289 -104 Q283 -104 275 -105 Q267 -106 262 -108 L226 -63 Z " />
<glyph glyph-name="egrave" unicode="&#xe8;" horiz-adv-x="563" d="M393 302 Q392 320 385.5 337.5 Q379 355 365.5 368.5 Q352 382 331.5 390.5 Q311 399 283 399 Q257 399 237 390 Q217 381 203 367 Q189 353 181.5 336 Q174 319 173 302 L393 302 Z M517 141 Q508 109 488.5 80.5 Q469 52 441 31 Q413 10 375.5 -2.5 Q338 -15 293 -15 Q242 -15 196 2.5 Q150 20 115 54 Q80 88 59.5 137 Q39 186 39 248 Q39 307 59 355 Q79 403 112.5 436.5 Q146 470 190 488.5 Q234 507 281 507 Q396 507 460 439 Q524 371 524 252 Q524 238 523 225.5 Q522 213 522 211 L170 211 Q171 187 181.5 166.5 Q192 146 208.5 131 Q225 116 247 107.5 Q269 99 294 99 Q341 99 367.5 120 Q394 141 406 174 L517 141 Z M109 701 L263 701 L353 551 L245 551 L109 701 Z " />
<glyph glyph-name="eacute" unicode="&#xe9;" horiz-adv-x="563" d="M327 551 L220 551 L311 701 L463 701 L327 551 Z M393 302 Q392 320 385.5 337.5 Q379 355 365.5 368.5 Q352 382 331.5 390.5 Q311 399 283 399 Q257 399 237 390 Q217 381 203 367 Q189 353 181.5 336 Q174 319 173 302 L393 302 Z M517 141 Q508 109 488.5 80.5 Q469 52 441 31 Q413 10 375.5 -2.5 Q338 -15 293 -15 Q242 -15 196 2.5 Q150 20 115 54 Q80 88 59.5 137 Q39 186 39 248 Q39 307 59 355 Q79 403 112.5 436.5 Q146 470 190 488.5 Q234 507 281 507 Q396 507 460 439 Q524 371 524 252 Q524 238 523 225.5 Q522 213 522 211 L170 211 Q171 187 181.5 166.5 Q192 146 208.5 131 Q225 116 247 107.5 Q269 99 294 99 Q341 99 367.5 120 Q394 141 406 174 L517 141 Z " />
<glyph glyph-name="ecircumflex" unicode="&#xea;" horiz-adv-x="563" d="M111 552 L221 699 L353 699 L463 552 L356 552 L285 627 L215 552 L111 552 Z M393 302 Q392 320 385.5 337.5 Q379 355 365.5 368.5 Q352 382 331.5 390.5 Q311 399 283 399 Q257 399 237 390 Q217 381 203 367 Q189 353 181.5 336 Q174 319 173 302 L393 302 Z M517 141 Q508 109 488.5 80.5 Q469 52 441 31 Q413 10 375.5 -2.5 Q338 -15 293 -15 Q242 -15 196 2.5 Q150 20 115 54 Q80 88 59.5 137 Q39 186 39 248 Q39 307 59 355 Q79 403 112.5 436.5 Q146 470 190 488.5 Q234 507 281 507 Q396 507 460 439 Q524 371 524 252 Q524 238 523 225.5 Q522 213 522 211 L170 211 Q171 187 181.5 166.5 Q192 146 208.5 131 Q225 116 247 107.5 Q269 99 294 99 Q341 99 367.5 120 Q394 141 406 174 L517 141 Z " />
<glyph glyph-name="edieresis" unicode="&#xeb;" horiz-adv-x="563" d="M112 628 Q112 657 132.5 678 Q153 699 182 699 Q211 699 232 678 Q253 657 253 628 Q253 599 232 578.5 Q211 558 182 558 Q153 558 132.5 578.5 Q112 599 112 628 Z M322 628 Q322 657 342 678 Q362 699 392 699 Q421 699 442 678 Q463 657 463 628 Q463 599 442 578.5 Q421 558 392 558 Q362 558 342 578.5 Q322 599 322 628 Z M393 302 Q392 320 385.5 337.5 Q379 355 365.5 368.5 Q352 382 331.5 390.5 Q311 399 283 399 Q257 399 237 390 Q217 381 203 367 Q189 353 181.5 336 Q174 319 173 302 L393 302 Z M517 141 Q508 109 488.5 80.5 Q469 52 441 31 Q413 10 375.5 -2.5 Q338 -15 293 -15 Q242 -15 196 2.5 Q150 20 115 54 Q80 88 59.5 137 Q39 186 39 248 Q39 307 59 355 Q79 403 112.5 436.5 Q146 470 190 488.5 Q234 507 281 507 Q396 507 460 439 Q524 371 524 252 Q524 238 523 225.5 Q522 213 522 211 L170 211 Q171 187 181.5 166.5 Q192 146 208.5 131 Q225 116 247 107.5 Q269 99 294 99 Q341 99 367.5 120 Q394 141 406 174 L517 141 Z " />
<glyph glyph-name="igrave" unicode="&#xec;" horiz-adv-x="269" d="M68 0 L68 492 L201 492 L201 0 L68 0 Z M-44 701 L110 701 L200 551 L92 551 L-44 701 Z " />
<glyph glyph-name="iacute" unicode="&#xed;" horiz-adv-x="269" d="M182 551 L75 551 L166 701 L318 701 L182 551 Z M68 0 L68 492 L201 492 L201 0 L68 0 Z " />
<glyph glyph-name="icircumflex" unicode="&#xee;" horiz-adv-x="269" d="M-40 552 L70 699 L202 699 L312 552 L205 552 L134 627 L64 552 L-40 552 Z M68 0 L68 492 L201 492 L201 0 L68 0 Z " />
<glyph glyph-name="idieresis" unicode="&#xef;" horiz-adv-x="269" d="M-24 628 Q-24 657 -4.5 677 Q15 697 44 697 Q73 697 93 677 Q113 657 113 628 Q113 599 93 579.5 Q73 560 44 560 Q15 560 -4.5 579.5 Q-24 599 -24 628 Z M155 628 Q155 657 174.5 677 Q194 697 223 697 Q252 697 272 677 Q292 657 292 628 Q292 599 272 579.5 Q252 560 223 560 Q194 560 174.5 579.5 Q155 599 155 628 Z M68 0 L68 492 L201 492 L201 0 L68 0 Z " />
<glyph glyph-name="eth" unicode="&#xf0;" horiz-adv-x="595" d="M438 590 Q489 533 520 454.5 Q551 376 551 277 Q551 218 534.5 165 Q518 112 486 72 Q454 32 405.5 8.5 Q357 -15 293 -15 Q238 -15 191.5 3.5 Q145 22 110.5 54.5 Q76 87 56.5 131.5 Q37 176 37 229 Q37 286 58 330 Q79 374 113 403 Q147 432 190.5 447 Q234 462 278 462 Q312 462 345 452 Q378 442 395 424 Q384 459 364.5 488.5 Q345 518 321 541 L184 483 L152 563 L239 600 Q211 615 183 626.5 Q155 638 128 646 L169 746 Q220 733 270.5 711 Q321 689 367 655 L481 703 L515 622 L438 590 Z M293 105 Q317 105 340 113 Q363 121 380 137 Q397 153 407.5 176.5 Q418 200 418 231 Q418 262 407.5 285.5 Q397 309 380 325 Q363 341 340 349 Q317 357 293 357 Q269 357 246.5 348.5 Q224 340 207 324 Q190 308 179.5 284.5 Q169 261 169 231 Q169 201 179.5 177.5 Q190 154 207 138 Q224 122 246.5 113.5 Q269 105 293 105 Z " />
<glyph glyph-name="ntilde" unicode="&#xf1;" horiz-adv-x="580" d="M201 0 L68 0 L68 492 L197 492 L197 431 Q220 469 259.5 487 Q299 505 339 505 Q385 505 418.5 489.5 Q452 474 474 448 Q496 422 506.5 386 Q517 350 517 310 L517 0 L384 0 L384 287 Q384 329 362.5 357 Q341 385 293 385 Q249 385 225 355.5 Q201 326 201 283 L201 0 Z M471 678 Q471 615 441 585 Q411 555 364 555 Q343 555 325 561 Q307 567 293 577 L287 581 Q277 587 267.5 593 Q258 599 240 599 Q224 599 215 589 Q206 579 205 556 L123 556 L123 577 Q123 638 154.5 668 Q186 698 232 698 Q254 698 271 691 Q288 684 304 676 L310 672 Q323 664 334.5 658.5 Q346 653 358 653 Q391 653 391 696 L471 696 L471 678 Z " />
<glyph glyph-name="ograve" unicode="&#xf2;" horiz-adv-x="592" d="M296 106 Q320 106 343 115 Q366 124 383 141.5 Q400 159 410.5 185 Q421 211 421 246 Q421 281 410.5 307 Q400 333 383 350.5 Q366 368 343 377 Q320 386 296 386 Q272 386 249 377 Q226 368 209 350.5 Q192 333 181.5 307 Q171 281 171 246 Q171 211 181.5 185 Q192 159 209 141.5 Q226 124 249 115 Q272 106 296 106 Z M296 507 Q351 507 398.5 487.5 Q446 468 480.5 433.5 Q515 399 534.5 351 Q554 303 554 246 Q554 189 534.5 141.5 Q515 94 480.5 59 Q446 24 398.5 4.5 Q351 -15 296 -15 Q241 -15 193.5 4.5 Q146 24 111.5 59 Q77 94 57.5 141.5 Q38 189 38 246 Q38 303 57.5 351 Q77 399 111.5 433.5 Q146 468 193.5 487.5 Q241 507 296 507 Z M113 701 L267 701 L357 551 L249 551 L113 701 Z " />
<glyph glyph-name="oacute" unicode="&#xf3;" horiz-adv-x="592" d="M335 551 L228 551 L319 701 L471 701 L335 551 Z M296 106 Q320 106 343 115 Q366 124 383 141.5 Q400 159 410.5 185 Q421 211 421 246 Q421 281 410.5 307 Q400 333 383 350.5 Q366 368 343 377 Q320 386 296 386 Q272 386 249 377 Q226 368 209 350.5 Q192 333 181.5 307 Q171 281 171 246 Q171 211 181.5 185 Q192 159 209 141.5 Q226 124 249 115 Q272 106 296 106 Z M296 507 Q351 507 398.5 487.5 Q446 468 480.5 433.5 Q515 399 534.5 351 Q554 303 554 246 Q554 189 534.5 141.5 Q515 94 480.5 59 Q446 24 398.5 4.5 Q351 -15 296 -15 Q241 -15 193.5 4.5 Q146 24 111.5 59 Q77 94 57.5 141.5 Q38 189 38 246 Q38 303 57.5 351 Q77 399 111.5 433.5 Q146 468 193.5 487.5 Q241 507 296 507 Z " />
<glyph glyph-name="ocircumflex" unicode="&#xf4;" horiz-adv-x="592" d="M122 552 L232 699 L364 699 L474 552 L367 552 L296 627 L226 552 L122 552 Z M296 106 Q320 106 343 115 Q366 124 383 141.5 Q400 159 410.5 185 Q421 211 421 246 Q421 281 410.5 307 Q400 333 383 350.5 Q366 368 343 377 Q320 386 296 386 Q272 386 249 377 Q226 368 209 350.5 Q192 333 181.5 307 Q171 281 171 246 Q171 211 181.5 185 Q192 159 209 141.5 Q226 124 249 115 Q272 106 296 106 Z M296 507 Q351 507 398.5 487.5 Q446 468 480.5 433.5 Q515 399 534.5 351 Q554 303 554 246 Q554 189 534.5 141.5 Q515 94 480.5 59 Q446 24 398.5 4.5 Q351 -15 296 -15 Q241 -15 193.5 4.5 Q146 24 111.5 59 Q77 94 57.5 141.5 Q38 189 38 246 Q38 303 57.5 351 Q77 399 111.5 433.5 Q146 468 193.5 487.5 Q241 507 296 507 Z " />
<glyph glyph-name="otilde" unicode="&#xf5;" horiz-adv-x="592" d="M296 106 Q320 106 343 115 Q366 124 383 141.5 Q400 159 410.5 185 Q421 211 421 246 Q421 281 410.5 307 Q400 333 383 350.5 Q366 368 343 377 Q320 386 296 386 Q272 386 249 377 Q226 368 209 350.5 Q192 333 181.5 307 Q171 281 171 246 Q171 211 181.5 185 Q192 159 209 141.5 Q226 124 249 115 Q272 106 296 106 Z M296 507 Q351 507 398.5 487.5 Q446 468 480.5 433.5 Q515 399 534.5 351 Q554 303 554 246 Q554 189 534.5 141.5 Q515 94 480.5 59 Q446 24 398.5 4.5 Q351 -15 296 -15 Q241 -15 193.5 4.5 Q146 24 111.5 59 Q77 94 57.5 141.5 Q38 189 38 246 Q38 303 57.5 351 Q77 399 111.5 433.5 Q146 468 193.5 487.5 Q241 507 296 507 Z M471 678 Q471 615 441 585 Q411 555 364 555 Q343 555 325 561 Q307 567 293 577 L287 581 Q277 587 267.5 593 Q258 599 240 599 Q224 599 215 589 Q206 579 205 556 L123 556 L123 577 Q123 638 154.5 668 Q186 698 232 698 Q254 698 271 691 Q288 684 304 676 L310 672 Q323 664 334.5 658.5 Q346 653 358 653 Q391 653 391 696 L471 696 L471 678 Z " />
<glyph glyph-name="odieresis" unicode="&#xf6;" horiz-adv-x="592" d="M120 628 Q120 657 140.5 678 Q161 699 190 699 Q219 699 240 678 Q261 657 261 628 Q261 599 240 578.5 Q219 558 190 558 Q161 558 140.5 578.5 Q120 599 120 628 Z M330 628 Q330 657 350 678 Q370 699 400 699 Q429 699 450 678 Q471 657 471 628 Q471 599 450 578.5 Q429 558 400 558 Q370 558 350 578.5 Q330 599 330 628 Z M296 106 Q320 106 343 115 Q366 124 383 141.5 Q400 159 410.5 185 Q421 211 421 246 Q421 281 410.5 307 Q400 333 383 350.5 Q366 368 343 377 Q320 386 296 386 Q272 386 249 377 Q226 368 209 350.5 Q192 333 181.5 307 Q171 281 171 246 Q171 211 181.5 185 Q192 159 209 141.5 Q226 124 249 115 Q272 106 296 106 Z M296 507 Q351 507 398.5 487.5 Q446 468 480.5 433.5 Q515 399 534.5 351 Q554 303 554 246 Q554 189 534.5 141.5 Q515 94 480.5 59 Q446 24 398.5 4.5 Q351 -15 296 -15 Q241 -15 193.5 4.5 Q146 24 111.5 59 Q77 94 57.5 141.5 Q38 189 38 246 Q38 303 57.5 351 Q77 399 111.5 433.5 Q146 468 193.5 487.5 Q241 507 296 507 Z " />
<glyph glyph-name="divide" unicode="&#xf7;" horiz-adv-x="565" d="M202 112 Q202 128 208 142 Q214 156 224.5 166.5 Q235 177 249.5 183 Q264 189 280 189 Q296 189 310.5 183 Q325 177 335.5 166.5 Q346 156 352 142 Q358 128 358 112 Q358 96 352 82 Q346 68 335.5 57.5 Q325 47 310.5 40.5 Q296 34 280 34 Q264 34 249.5 40.5 Q235 47 224.5 57.5 Q214 68 208 82 Q202 96 202 112 Z M202 478 Q202 494 208 508 Q214 522 224.5 532.5 Q235 543 249.5 549 Q264 555 280 555 Q296 555 310.5 549 Q325 543 335.5 532.5 Q346 522 352 508 Q358 494 358 478 Q358 462 352 448 Q346 434 335.5 423.5 Q325 413 310.5 406.5 Q296 400 280 400 Q264 400 249.5 406.5 Q235 413 224.5 423.5 Q214 434 208 448 Q202 462 202 478 Z M38 350 L527 350 L527 239 L38 239 L38 350 Z " />
<glyph glyph-name="oslash" unicode="&#xf8;" horiz-adv-x="592" d="M296 507 Q369 507 428 473 L481 538 L545 484 L493 419 Q522 385 538 341 Q554 297 554 246 Q554 189 534.5 141.5 Q515 94 480.5 59 Q446 24 398.5 4.5 Q351 -15 296 -15 Q261 -15 228.5 -6.5 Q196 2 168 16 L118 -46 L52 8 L102 69 Q72 104 55 148.5 Q38 193 38 246 Q38 303 57.5 351 Q77 399 111.5 433.5 Q146 468 193.5 487.5 Q241 507 296 507 Z M171 246 Q171 204 186 174 L349 375 Q322 386 296 386 Q272 386 249 377 Q226 368 209 350.5 Q192 333 181.5 307 Q171 281 171 246 Z M296 106 Q320 106 343 115 Q366 124 383 141.5 Q400 159 410.5 185 Q421 211 421 246 Q421 283 408 314 L248 115 Q270 106 296 106 Z " />
<glyph glyph-name="ugrave" unicode="&#xf9;" horiz-adv-x="580" d="M390 0 Q388 8 387 23 Q386 38 386 53 Q366 18 327.5 2.5 Q289 -13 250 -13 Q205 -13 170.5 2.5 Q136 18 112 44 Q88 70 75.5 105.5 Q63 141 63 181 L63 492 L196 492 L196 208 Q196 166 217.5 137.5 Q239 109 286 109 Q331 109 355 136 Q379 163 379 206 L379 492 L512 492 L512 89 Q512 60 513.5 36.5 Q515 13 517 0 L390 0 Z M119 701 L273 701 L363 551 L255 551 L119 701 Z " />
<glyph glyph-name="uacute" unicode="&#xfa;" horiz-adv-x="580" d="M311 551 L204 551 L295 701 L447 701 L311 551 Z M390 0 Q388 8 387 23 Q386 38 386 53 Q366 18 327.5 2.5 Q289 -13 250 -13 Q205 -13 170.5 2.5 Q136 18 112 44 Q88 70 75.5 105.5 Q63 141 63 181 L63 492 L196 492 L196 208 Q196 166 217.5 137.5 Q239 109 286 109 Q331 109 355 136 Q379 163 379 206 L379 492 L512 492 L512 89 Q512 60 513.5 36.5 Q515 13 517 0 L390 0 Z " />
<glyph glyph-name="ucircumflex" unicode="&#xfb;" horiz-adv-x="580" d="M113 552 L223 699 L355 699 L465 552 L358 552 L287 627 L217 552 L113 552 Z M390 0 Q388 8 387 23 Q386 38 386 53 Q366 18 327.5 2.5 Q289 -13 250 -13 Q205 -13 170.5 2.5 Q136 18 112 44 Q88 70 75.5 105.5 Q63 141 63 181 L63 492 L196 492 L196 208 Q196 166 217.5 137.5 Q239 109 286 109 Q331 109 355 136 Q379 163 379 206 L379 492 L512 492 L512 89 Q512 60 513.5 36.5 Q515 13 517 0 L390 0 Z " />
<glyph glyph-name="udieresis" unicode="&#xfc;" horiz-adv-x="580" d="M115 628 Q115 657 135.5 678 Q156 699 185 699 Q214 699 235 678 Q256 657 256 628 Q256 599 235 578.5 Q214 558 185 558 Q156 558 135.5 578.5 Q115 599 115 628 Z M325 628 Q325 657 345 678 Q365 699 395 699 Q424 699 445 678 Q466 657 466 628 Q466 599 445 578.5 Q424 558 395 558 Q365 558 345 578.5 Q325 599 325 628 Z M390 0 Q388 8 387 23 Q386 38 386 53 Q366 18 327.5 2.5 Q289 -13 250 -13 Q205 -13 170.5 2.5 Q136 18 112 44 Q88 70 75.5 105.5 Q63 141 63 181 L63 492 L196 492 L196 208 Q196 166 217.5 137.5 Q239 109 286 109 Q331 109 355 136 Q379 163 379 206 L379 492 L512 492 L512 89 Q512 60 513.5 36.5 Q515 13 517 0 L390 0 Z " />
<glyph glyph-name="yacute" unicode="&#xfd;" horiz-adv-x="563" d="M105 -194 L221 62 L12 492 L161 492 L292 204 L413 492 L555 492 L246 -194 L105 -194 Z M318 551 L211 551 L302 701 L454 701 L318 551 Z " />
<glyph glyph-name="thorn" unicode="&#xfe;" horiz-adv-x="614" d="M68 -190 L68 724 L201 724 L201 438 Q219 464 257 483.5 Q295 503 348 503 Q402 503 444 483.5 Q486 464 515.5 429.5 Q545 395 560 348.5 Q575 302 575 247 Q575 191 558.5 143.5 Q542 96 511.5 61.5 Q481 27 438 7.5 Q395 -12 343 -12 Q292 -12 255.5 5.5 Q219 23 201 48 L201 -190 L68 -190 Z M444 246 Q444 312 408.5 348 Q373 384 322 384 Q296 384 274 374.5 Q252 365 235 347.5 Q218 330 208.5 304.5 Q199 279 199 246 Q199 213 208.5 187.5 Q218 162 235 144 Q252 126 274 116.5 Q296 107 322 107 Q373 107 408.5 143.5 Q444 180 444 246 Z " />
<glyph glyph-name="ydieresis" unicode="&#xff;" horiz-adv-x="563" d="M105 -194 L221 62 L12 492 L161 492 L292 204 L413 492 L555 492 L246 -194 L105 -194 Z M112 628 Q112 657 132.5 678 Q153 699 182 699 Q211 699 232 678 Q253 657 253 628 Q253 599 232 578.5 Q211 558 182 558 Q153 558 132.5 578.5 Q112 599 112 628 Z M322 628 Q322 657 342 678 Q362 699 392 699 Q421 699 442 678 Q463 657 463 628 Q463 599 442 578.5 Q421 558 392 558 Q362 558 342 578.5 Q322 599 322 628 Z " />
<glyph glyph-name="Amacron" unicode="&#x100;" horiz-adv-x="721" d="M502 162 L214 162 L155 0 L9 0 L281 709 L441 709 L711 0 L561 0 L502 162 Z M260 288 L456 288 L358 556 L260 288 Z M205 774 L205 874 L510 874 L510 774 L205 774 Z " />
<glyph glyph-name="amacron" unicode="&#x101;" horiz-adv-x="538" d="M39 134 Q39 167 50.5 192.5 Q62 218 82 237 Q102 256 128.5 267 Q155 278 186 283 L307 301 Q328 304 336 313.5 Q344 323 344 336 Q344 362 323.5 381 Q303 400 261 400 Q217 400 193.5 376 Q170 352 167 320 L49 345 Q52 374 67 403 Q82 432 108 455 Q134 478 172 492.5 Q210 507 260 507 Q318 507 359 491.5 Q400 476 425.5 450.5 Q451 425 462.5 391 Q474 357 474 320 L474 78 Q474 58 476 35.5 Q478 13 480 0 L358 0 Q356 10 354.5 27.5 Q353 45 353 59 Q334 30 298.5 8 Q263 -14 208 -14 Q169 -14 137.5 -1.5 Q106 11 84 31.5 Q62 52 50.5 78.5 Q39 105 39 134 Z M236 85 Q257 85 276.5 90.5 Q296 96 311 109.5 Q326 123 335 144.5 Q344 166 344 199 L344 221 L233 204 Q207 200 189.5 185.5 Q172 171 172 142 Q172 120 188 102.5 Q204 85 236 85 Z M126 577 L126 674 L407 674 L407 577 L126 577 Z " />
<glyph glyph-name="Abreve" unicode="&#x102;" horiz-adv-x="721" d="M502 162 L214 162 L155 0 L9 0 L281 709 L441 709 L711 0 L561 0 L502 162 Z M260 288 L456 288 L358 556 L260 288 Z M358 753 Q317 753 287 765 Q257 777 236.5 796 Q216 815 206 839.5 Q196 864 195 888 L297 888 Q298 868 312.5 852.5 Q327 837 358 837 Q389 837 403.5 852.5 Q418 868 419 888 L521 888 Q520 864 510 839.5 Q500 815 479.5 796 Q459 777 429 765 Q399 753 358 753 Z " />
<glyph glyph-name="abreve" unicode="&#x103;" horiz-adv-x="538" d="M39 134 Q39 167 50.5 192.5 Q62 218 82 237 Q102 256 128.5 267 Q155 278 186 283 L307 301 Q328 304 336 313.5 Q344 323 344 336 Q344 362 323.5 381 Q303 400 261 400 Q217 400 193.5 376 Q170 352 167 320 L49 345 Q52 374 67 403 Q82 432 108 455 Q134 478 172 492.5 Q210 507 260 507 Q318 507 359 491.5 Q400 476 425.5 450.5 Q451 425 462.5 391 Q474 357 474 320 L474 78 Q474 58 476 35.5 Q478 13 480 0 L358 0 Q356 10 354.5 27.5 Q353 45 353 59 Q334 30 298.5 8 Q263 -14 208 -14 Q169 -14 137.5 -1.5 Q106 11 84 31.5 Q62 52 50.5 78.5 Q39 105 39 134 Z M236 85 Q257 85 276.5 90.5 Q296 96 311 109.5 Q326 123 335 144.5 Q344 166 344 199 L344 221 L233 204 Q207 200 189.5 185.5 Q172 171 172 142 Q172 120 188 102.5 Q204 85 236 85 Z M261 549 Q222 549 192 561.5 Q162 574 142 595 Q122 616 111.5 643.5 Q101 671 100 700 L189 700 Q190 680 206.5 660.5 Q223 641 261 641 Q280 641 293 646.5 Q306 652 315 660.5 Q324 669 328 679.5 Q332 690 333 700 L422 700 Q421 671 411 643.5 Q401 616 380.5 595 Q360 574 330.5 561.5 Q301 549 261 549 Z " />
<glyph glyph-name="Aogonek" unicode="&#x104;" horiz-adv-x="721" d="M502 162 L214 162 L155 0 L9 0 L281 709 L441 709 L711 0 Q697 -7 682.5 -16.5 Q668 -26 657 -38 Q646 -50 639 -64 Q632 -78 632 -94 Q632 -117 646.5 -128 Q661 -139 681 -139 Q692 -139 697.5 -138.5 Q703 -138 711 -136 L711 -215 Q701 -219 688.5 -221 Q676 -223 659 -223 Q605 -223 570.5 -194 Q536 -165 536 -116 Q536 -71 558.5 -43.5 Q581 -16 609 0 L561 0 L502 162 Z M260 288 L456 288 L358 556 L260 288 Z " />
<glyph glyph-name="aogonek" unicode="&#x105;" horiz-adv-x="538" d="M450 -139 Q460 -139 466.5 -138.5 Q473 -138 480 -136 L480 -215 Q470 -219 457.5 -221 Q445 -223 428 -223 Q374 -223 339.5 -194 Q305 -165 305 -116 Q305 -71 327 -44 Q349 -17 377 0 L358 0 Q357 4 355 18.5 Q353 33 353 59 Q334 30 298.5 8 Q263 -14 208 -14 Q169 -14 137.5 -1.5 Q106 11 84 31.5 Q62 52 50.5 78.5 Q39 105 39 134 Q39 167 50.5 192.5 Q62 218 82 237 Q102 256 128.5 267 Q155 278 186 283 L307 301 Q328 304 336 313.5 Q344 323 344 336 Q344 362 323.5 381 Q303 400 261 400 Q217 400 193.5 376 Q170 352 167 320 L49 345 Q52 374 67 403 Q82 432 108 455 Q134 478 172 492.5 Q210 507 260 507 Q318 507 359 491.5 Q400 476 425.5 450.5 Q451 425 462.5 391 Q474 357 474 320 L474 78 Q474 49 476 30.5 Q478 12 480 0 Q466 -7 451.5 -16.5 Q437 -26 426 -38 Q415 -50 408 -64 Q401 -78 401 -94 Q401 -117 415.5 -128 Q430 -139 450 -139 Z M236 85 Q257 85 276.5 90.5 Q296 96 311 109.5 Q326 123 335 144.5 Q344 166 344 199 L344 221 L233 204 Q207 200 189.5 185.5 Q172 171 172 142 Q172 120 188 102.5 Q204 85 236 85 Z " />
<glyph glyph-name="Cacute" unicode="&#x106;" horiz-adv-x="756" d="M404 -15 Q330 -15 264 11 Q198 37 148.5 85 Q99 133 70 201 Q41 269 41 354 Q41 439 70.5 507.5 Q100 576 150 624 Q200 672 265.5 698 Q331 724 402 724 Q475 724 531.5 703.5 Q588 683 627.5 649.5 Q667 616 691.5 574 Q716 532 727 489 L597 448 Q591 473 577 499 Q563 525 539.5 545 Q516 565 482 578 Q448 591 402 591 Q362 591 323 576.5 Q284 562 253 533 Q222 504 203 459 Q184 414 184 354 Q184 297 202.5 253.5 Q221 210 251.5 180.5 Q282 151 321.5 135.5 Q361 120 404 120 Q449 120 483.5 133.5 Q518 147 542 168 Q566 189 581 214.5 Q596 240 603 265 L732 226 Q722 185 697.5 142.5 Q673 100 632.5 65 Q592 30 535.5 7.5 Q479 -15 404 -15 Z M454 759 L332 759 L435 886 L599 886 L454 759 Z " />
<glyph glyph-name="cacute" unicode="&#x107;" horiz-adv-x="556" d="M335 551 L228 551 L319 701 L471 701 L335 551 Z M296 384 Q270 384 247.5 375 Q225 366 208 348.5 Q191 331 181 305 Q171 279 171 246 Q171 213 181 187 Q191 161 208.5 143 Q226 125 248.5 116 Q271 107 297 107 Q322 107 341.5 114.5 Q361 122 375 134 Q389 146 397.5 161 Q406 176 410 190 L527 151 Q519 120 500.5 90.5 Q482 61 453 37.5 Q424 14 385 -0.5 Q346 -15 297 -15 Q243 -15 195.5 4.5 Q148 24 113 59 Q78 94 58 141.5 Q38 189 38 246 Q38 303 57.5 351 Q77 399 111.5 433.5 Q146 468 192.5 487.5 Q239 507 293 507 Q343 507 382.5 492.5 Q422 478 451 455 Q480 432 498 402 Q516 372 524 341 L405 301 Q396 332 370.5 358 Q345 384 296 384 Z " />
<glyph glyph-name="Ccircumflex" unicode="&#x108;" horiz-adv-x="756" d="M215 759 L335 886 L471 886 L593 759 L468 759 L401 824 L336 759 L215 759 Z M404 -15 Q330 -15 264 11 Q198 37 148.5 85 Q99 133 70 201 Q41 269 41 354 Q41 439 70.5 507.5 Q100 576 150 624 Q200 672 265.5 698 Q331 724 402 724 Q475 724 531.5 703.5 Q588 683 627.5 649.5 Q667 616 691.5 574 Q716 532 727 489 L597 448 Q591 473 577 499 Q563 525 539.5 545 Q516 565 482 578 Q448 591 402 591 Q362 591 323 576.5 Q284 562 253 533 Q222 504 203 459 Q184 414 184 354 Q184 297 202.5 253.5 Q221 210 251.5 180.5 Q282 151 321.5 135.5 Q361 120 404 120 Q449 120 483.5 133.5 Q518 147 542 168 Q566 189 581 214.5 Q596 240 603 265 L732 226 Q722 185 697.5 142.5 Q673 100 632.5 65 Q592 30 535.5 7.5 Q479 -15 404 -15 Z " />
<glyph glyph-name="ccircumflex" unicode="&#x109;" horiz-adv-x="556" d="M118 552 L228 699 L360 699 L470 552 L363 552 L292 627 L222 552 L118 552 Z M296 384 Q270 384 247.5 375 Q225 366 208 348.5 Q191 331 181 305 Q171 279 171 246 Q171 213 181 187 Q191 161 208.5 143 Q226 125 248.5 116 Q271 107 297 107 Q322 107 341.5 114.5 Q361 122 375 134 Q389 146 397.5 161 Q406 176 410 190 L527 151 Q519 120 500.5 90.5 Q482 61 453 37.5 Q424 14 385 -0.5 Q346 -15 297 -15 Q243 -15 195.5 4.5 Q148 24 113 59 Q78 94 58 141.5 Q38 189 38 246 Q38 303 57.5 351 Q77 399 111.5 433.5 Q146 468 192.5 487.5 Q239 507 293 507 Q343 507 382.5 492.5 Q422 478 451 455 Q480 432 498 402 Q516 372 524 341 L405 301 Q396 332 370.5 358 Q345 384 296 384 Z " />
<glyph glyph-name="Cdotaccent" unicode="&#x10a;" horiz-adv-x="756" d="M404 -15 Q330 -15 264 11 Q198 37 148.5 85 Q99 133 70 201 Q41 269 41 354 Q41 439 70.5 507.5 Q100 576 150 624 Q200 672 265.5 698 Q331 724 402 724 Q475 724 531.5 703.5 Q588 683 627.5 649.5 Q667 616 691.5 574 Q716 532 727 489 L597 448 Q591 473 577 499 Q563 525 539.5 545 Q516 565 482 578 Q448 591 402 591 Q362 591 323 576.5 Q284 562 253 533 Q222 504 203 459 Q184 414 184 354 Q184 297 202.5 253.5 Q221 210 251.5 180.5 Q282 151 321.5 135.5 Q361 120 404 120 Q449 120 483.5 133.5 Q518 147 542 168 Q566 189 581 214.5 Q596 240 603 265 L732 226 Q722 185 697.5 142.5 Q673 100 632.5 65 Q592 30 535.5 7.5 Q479 -15 404 -15 Z M321 839 Q321 873 344.5 896 Q368 919 401 919 Q435 919 458.5 896 Q482 873 482 839 Q482 806 458.5 783 Q435 760 401 760 Q368 760 344.5 783 Q321 806 321 839 Z " />
<glyph glyph-name="cdotaccent" unicode="&#x10b;" horiz-adv-x="556" d="M296 384 Q270 384 247.5 375 Q225 366 208 348.5 Q191 331 181 305 Q171 279 171 246 Q171 213 181 187 Q191 161 208.5 143 Q226 125 248.5 116 Q271 107 297 107 Q322 107 341.5 114.5 Q361 122 375 134 Q389 146 397.5 161 Q406 176 410 190 L527 151 Q519 120 500.5 90.5 Q482 61 453 37.5 Q424 14 385 -0.5 Q346 -15 297 -15 Q243 -15 195.5 4.5 Q148 24 113 59 Q78 94 58 141.5 Q38 189 38 246 Q38 303 57.5 351 Q77 399 111.5 433.5 Q146 468 192.5 487.5 Q239 507 293 507 Q343 507 382.5 492.5 Q422 478 451 455 Q480 432 498 402 Q516 372 524 341 L405 301 Q396 332 370.5 358 Q345 384 296 384 Z M212 628 Q212 662 235.5 684.5 Q259 707 292 707 Q325 707 348.5 684.5 Q372 662 372 628 Q372 595 348.5 572.5 Q325 550 292 550 Q259 550 235.5 572.5 Q212 595 212 628 Z " />
<glyph glyph-name="Ccaron" unicode="&#x10c;" horiz-adv-x="756" d="M339 886 L405 822 L472 886 L593 886 L471 759 L335 759 L215 886 L339 886 Z M404 -15 Q330 -15 264 11 Q198 37 148.5 85 Q99 133 70 201 Q41 269 41 354 Q41 439 70.5 507.5 Q100 576 150 624 Q200 672 265.5 698 Q331 724 402 724 Q475 724 531.5 703.5 Q588 683 627.5 649.5 Q667 616 691.5 574 Q716 532 727 489 L597 448 Q591 473 577 499 Q563 525 539.5 545 Q516 565 482 578 Q448 591 402 591 Q362 591 323 576.5 Q284 562 253 533 Q222 504 203 459 Q184 414 184 354 Q184 297 202.5 253.5 Q221 210 251.5 180.5 Q282 151 321.5 135.5 Q361 120 404 120 Q449 120 483.5 133.5 Q518 147 542 168 Q566 189 581 214.5 Q596 240 603 265 L732 226 Q722 185 697.5 142.5 Q673 100 632.5 65 Q592 30 535.5 7.5 Q479 -15 404 -15 Z " />
<glyph glyph-name="ccaron" unicode="&#x10d;" horiz-adv-x="556" d="M218 700 L288 625 L358 700 L463 700 L354 552 L221 552 L111 700 L218 700 Z M296 384 Q270 384 247.5 375 Q225 366 208 348.5 Q191 331 181 305 Q171 279 171 246 Q171 213 181 187 Q191 161 208.5 143 Q226 125 248.5 116 Q271 107 297 107 Q322 107 341.5 114.5 Q361 122 375 134 Q389 146 397.5 161 Q406 176 410 190 L527 151 Q519 120 500.5 90.5 Q482 61 453 37.5 Q424 14 385 -0.5 Q346 -15 297 -15 Q243 -15 195.5 4.5 Q148 24 113 59 Q78 94 58 141.5 Q38 189 38 246 Q38 303 57.5 351 Q77 399 111.5 433.5 Q146 468 192.5 487.5 Q239 507 293 507 Q343 507 382.5 492.5 Q422 478 451 455 Q480 432 498 402 Q516 372 524 341 L405 301 Q396 332 370.5 358 Q345 384 296 384 Z " />
<glyph glyph-name="Dcaron" unicode="&#x10e;" horiz-adv-x="730" d="M292 886 L358 822 L425 886 L546 886 L424 759 L288 759 L168 886 L292 886 Z M331 128 Q374 128 413 141.5 Q452 155 481 183 Q510 211 527 253.5 Q544 296 544 354 Q544 412 527 454.5 Q510 497 481.5 525 Q453 553 414 567 Q375 581 332 581 L221 581 L221 128 L331 128 Z M83 0 L83 709 L337 709 Q413 709 477 685 Q541 661 587.5 615.5 Q634 570 660.5 504 Q687 438 687 354 Q687 270 660.5 204 Q634 138 587 93 Q540 48 476 24 Q412 0 336 0 L83 0 Z " />
<glyph glyph-name="dcaron" unicode="&#x10f;" horiz-adv-x="612" d="M673 526 L584 526 L613 724 L745 724 L673 526 Z M544 89 Q544 64 545 39.5 Q546 15 548 0 L421 0 Q419 8 417.5 24 Q416 40 416 57 Q399 28 363.5 8 Q328 -12 278 -12 Q225 -12 181 7.5 Q137 27 105.5 61.5 Q74 96 56 143.5 Q38 191 38 247 Q38 301 55.5 348 Q73 395 104 429.5 Q135 464 178.5 484 Q222 504 274 504 Q306 504 329.5 498 Q353 492 370 483 Q387 474 397.5 463.5 Q408 453 413 443 L413 724 L544 724 L544 89 Z M172 247 Q172 181 206.5 144 Q241 107 294 107 Q345 107 380 144 Q415 181 415 248 Q415 314 380 349.5 Q345 385 294 385 Q243 385 207.5 349 Q172 313 172 247 Z " />
<glyph glyph-name="Dcroat" unicode="&#x110;" horiz-adv-x="747" d="M100 0 L100 315 L12 315 L12 417 L100 417 L100 709 L354 709 Q430 709 494 685 Q558 661 604.5 615.5 Q651 570 677.5 504 Q704 438 704 354 Q704 270 677.5 204 Q651 138 604 93 Q557 48 493 24 Q429 0 353 0 L100 0 Z M348 128 Q391 128 430 141.5 Q469 155 498 183 Q527 211 544 253.5 Q561 296 561 354 Q561 412 544 454.5 Q527 497 498.5 525 Q470 553 431 567 Q392 581 349 581 L238 581 L238 417 L375 417 L375 315 L238 315 L238 128 L348 128 Z " />
<glyph glyph-name="dslash" unicode="&#x111;" horiz-adv-x="612" d="M544 646 L615 646 L615 551 L544 551 L544 89 Q544 66 545 40 Q546 14 548 0 L421 0 Q419 8 417.5 24 Q416 40 416 57 Q399 28 363.5 8 Q328 -12 278 -12 Q225 -12 181 7.5 Q137 27 105.5 61.5 Q74 96 56 143.5 Q38 191 38 247 Q38 301 55.5 348 Q73 395 104 429.5 Q135 464 178.5 484 Q222 504 274 504 Q306 504 329.5 498 Q353 492 370 483 Q387 474 397.5 463.5 Q408 453 413 443 L413 551 L298 551 L298 646 L413 646 L413 724 L544 724 L544 646 Z M172 247 Q172 181 206.5 144 Q241 107 294 107 Q345 107 380 144 Q415 181 415 248 Q415 314 380 349.5 Q345 385 294 385 Q243 385 207.5 349 Q172 313 172 247 Z " />
<glyph glyph-name="Emacron" unicode="&#x112;" horiz-adv-x="579" d="M83 0 L83 709 L527 709 L527 579 L221 579 L221 417 L498 417 L498 294 L221 294 L221 130 L527 130 L527 0 L83 0 Z M151 774 L151 874 L456 874 L456 774 L151 774 Z " />
<glyph glyph-name="emacron" unicode="&#x113;" horiz-adv-x="563" d="M393 302 Q392 320 385.5 337.5 Q379 355 365.5 368.5 Q352 382 331.5 390.5 Q311 399 283 399 Q257 399 237 390 Q217 381 203 367 Q189 353 181.5 336 Q174 319 173 302 L393 302 Z M517 141 Q508 109 488.5 80.5 Q469 52 441 31 Q413 10 375.5 -2.5 Q338 -15 293 -15 Q242 -15 196 2.5 Q150 20 115 54 Q80 88 59.5 137 Q39 186 39 248 Q39 307 59 355 Q79 403 112.5 436.5 Q146 470 190 488.5 Q234 507 281 507 Q396 507 460 439 Q524 371 524 252 Q524 238 523 225.5 Q522 213 522 211 L170 211 Q171 187 181.5 166.5 Q192 146 208.5 131 Q225 116 247 107.5 Q269 99 294 99 Q341 99 367.5 120 Q394 141 406 174 L517 141 Z M146 577 L146 674 L427 674 L427 577 L146 577 Z " />
<glyph glyph-name="Ebreve" unicode="&#x114;" horiz-adv-x="579" d="M83 0 L83 709 L527 709 L527 579 L221 579 L221 417 L498 417 L498 294 L221 294 L221 130 L527 130 L527 0 L83 0 Z M302 753 Q261 753 231 765 Q201 777 180.5 796 Q160 815 150 839.5 Q140 864 139 888 L241 888 Q242 868 256.5 852.5 Q271 837 302 837 Q333 837 347.5 852.5 Q362 868 363 888 L465 888 Q464 864 454 839.5 Q444 815 423.5 796 Q403 777 373 765 Q343 753 302 753 Z " />
<glyph glyph-name="ebreve" unicode="&#x115;" horiz-adv-x="563" d="M393 302 Q392 320 385.5 337.5 Q379 355 365.5 368.5 Q352 382 331.5 390.5 Q311 399 283 399 Q257 399 237 390 Q217 381 203 367 Q189 353 181.5 336 Q174 319 173 302 L393 302 Z M517 141 Q508 109 488.5 80.5 Q469 52 441 31 Q413 10 375.5 -2.5 Q338 -15 293 -15 Q242 -15 196 2.5 Q150 20 115 54 Q80 88 59.5 137 Q39 186 39 248 Q39 307 59 355 Q79 403 112.5 436.5 Q146 470 190 488.5 Q234 507 281 507 Q396 507 460 439 Q524 371 524 252 Q524 238 523 225.5 Q522 213 522 211 L170 211 Q171 187 181.5 166.5 Q192 146 208.5 131 Q225 116 247 107.5 Q269 99 294 99 Q341 99 367.5 120 Q394 141 406 174 L517 141 Z M285 549 Q246 549 216 561.5 Q186 574 166 595 Q146 616 135.5 643.5 Q125 671 124 700 L213 700 Q214 680 230.5 660.5 Q247 641 285 641 Q304 641 317 646.5 Q330 652 339 660.5 Q348 669 352 679.5 Q356 690 357 700 L446 700 Q445 671 435 643.5 Q425 616 404.5 595 Q384 574 354.5 561.5 Q325 549 285 549 Z " />
<glyph glyph-name="Edotaccent" unicode="&#x116;" horiz-adv-x="579" d="M223 833 Q223 867 246.5 890 Q270 913 303 913 Q337 913 360.5 890 Q384 867 384 833 Q384 800 360.5 777 Q337 754 303 754 Q270 754 246.5 777 Q223 800 223 833 Z M83 0 L83 709 L527 709 L527 579 L221 579 L221 417 L498 417 L498 294 L221 294 L221 130 L527 130 L527 0 L83 0 Z " />
<glyph glyph-name="edotaccent" unicode="&#x117;" horiz-adv-x="563" d="M393 302 Q392 320 385.5 337.5 Q379 355 365.5 368.5 Q352 382 331.5 390.5 Q311 399 283 399 Q257 399 237 390 Q217 381 203 367 Q189 353 181.5 336 Q174 319 173 302 L393 302 Z M517 141 Q508 109 488.5 80.5 Q469 52 441 31 Q413 10 375.5 -2.5 Q338 -15 293 -15 Q242 -15 196 2.5 Q150 20 115 54 Q80 88 59.5 137 Q39 186 39 248 Q39 307 59 355 Q79 403 112.5 436.5 Q146 470 190 488.5 Q234 507 281 507 Q396 507 460 439 Q524 371 524 252 Q524 238 523 225.5 Q522 213 522 211 L170 211 Q171 187 181.5 166.5 Q192 146 208.5 131 Q225 116 247 107.5 Q269 99 294 99 Q341 99 367.5 120 Q394 141 406 174 L517 141 Z M207 627 Q207 661 230.5 683.5 Q254 706 287 706 Q320 706 343.5 683.5 Q367 661 367 627 Q367 594 343.5 571.5 Q320 549 287 549 Q254 549 230.5 571.5 Q207 594 207 627 Z " />
<glyph glyph-name="Eogonek" unicode="&#x118;" horiz-adv-x="579" d="M475 -223 Q421 -223 386.5 -194 Q352 -165 352 -116 Q352 -71 374.5 -43.5 Q397 -16 425 0 L83 0 L83 709 L527 709 L527 579 L221 579 L221 417 L498 417 L498 294 L221 294 L221 130 L527 130 L527 0 Q513 -7 498.5 -16.5 Q484 -26 473 -38 Q462 -50 455 -64 Q448 -78 448 -94 Q448 -117 462.5 -128 Q477 -139 497 -139 Q507 -139 513.5 -138.5 Q520 -138 527 -136 L527 -215 Q517 -219 504.5 -221 Q492 -223 475 -223 Z " />
<glyph glyph-name="eogonek" unicode="&#x119;" horiz-adv-x="563" d="M517 141 Q503 94 469.5 56.5 Q436 19 383 0 Q369 -7 354.5 -16.5 Q340 -26 329 -38 Q318 -50 311 -64 Q304 -78 304 -94 Q304 -117 318.5 -128 Q333 -139 353 -139 Q363 -139 369 -138.5 Q375 -138 383 -136 L383 -215 Q373 -219 360.5 -221 Q348 -223 331 -223 Q277 -223 242.5 -194 Q208 -165 208 -116 Q208 -80 223 -55 Q238 -30 260 -13 Q215 -8 174.5 12 Q134 32 104 65.5 Q74 99 56.5 145 Q39 191 39 248 Q39 307 59 355 Q79 403 112.5 436.5 Q146 470 190 488.5 Q234 507 281 507 Q396 507 460 439 Q524 371 524 252 Q524 238 523 225.5 Q522 213 522 211 L170 211 Q171 187 181.5 166.5 Q192 146 208.5 131 Q225 116 247 107.5 Q269 99 294 99 Q341 99 367.5 120 Q394 141 406 174 L517 141 Z M393 302 Q392 320 385.5 337.5 Q379 355 365.5 368.5 Q352 382 331.5 390.5 Q311 399 283 399 Q257 399 237 390 Q217 381 203 367 Q189 353 181.5 336 Q174 319 173 302 L393 302 Z " />
<glyph glyph-name="Ecaron" unicode="&#x11a;" horiz-adv-x="579" d="M242 886 L308 822 L375 886 L496 886 L374 759 L238 759 L118 886 L242 886 Z M83 0 L83 709 L527 709 L527 579 L221 579 L221 417 L498 417 L498 294 L221 294 L221 130 L527 130 L527 0 L83 0 Z " />
<glyph glyph-name="ecaron" unicode="&#x11b;" horiz-adv-x="563" d="M215 700 L285 625 L355 700 L460 700 L351 552 L218 552 L108 700 L215 700 Z M393 302 Q392 320 385.5 337.5 Q379 355 365.5 368.5 Q352 382 331.5 390.5 Q311 399 283 399 Q257 399 237 390 Q217 381 203 367 Q189 353 181.5 336 Q174 319 173 302 L393 302 Z M517 141 Q508 109 488.5 80.5 Q469 52 441 31 Q413 10 375.5 -2.5 Q338 -15 293 -15 Q242 -15 196 2.5 Q150 20 115 54 Q80 88 59.5 137 Q39 186 39 248 Q39 307 59 355 Q79 403 112.5 436.5 Q146 470 190 488.5 Q234 507 281 507 Q396 507 460 439 Q524 371 524 252 Q524 238 523 225.5 Q522 213 522 211 L170 211 Q171 187 181.5 166.5 Q192 146 208.5 131 Q225 116 247 107.5 Q269 99 294 99 Q341 99 367.5 120 Q394 141 406 174 L517 141 Z " />
<glyph glyph-name="Gcircumflex" unicode="&#x11c;" horiz-adv-x="781" d="M213 759 L333 886 L469 886 L591 759 L466 759 L399 824 L334 759 L213 759 Z M613 0 L604 81 Q592 63 573 45.5 Q554 28 527.5 14.5 Q501 1 468 -7 Q435 -15 395 -15 Q323 -15 259 10.5 Q195 36 146.5 83.5 Q98 131 69.5 199.5 Q41 268 41 354 Q41 440 70.5 508.5 Q100 577 150.5 625 Q201 673 266.5 698.5 Q332 724 404 724 Q474 724 528.5 705.5 Q583 687 623 656 Q663 625 689 586 Q715 547 728 506 L596 459 Q589 483 574.5 507 Q560 531 536.5 550.5 Q513 570 480 582.5 Q447 595 404 595 Q364 595 324 581 Q284 567 252.5 537.5 Q221 508 201 462.5 Q181 417 181 354 Q181 294 199.5 248.5 Q218 203 248.5 172.5 Q279 142 319.5 126.5 Q360 111 405 111 Q454 111 489 125.5 Q524 140 546.5 161 Q569 182 580.5 206 Q592 230 595 249 L371 249 L371 369 L725 369 L725 0 L613 0 Z " />
<glyph glyph-name="gcircumflex" unicode="&#x11d;" horiz-adv-x="604" d="M121 552 L231 699 L363 699 L473 552 L366 552 L295 627 L225 552 L121 552 Z M159 5 Q166 -36 196 -62 Q226 -88 274 -88 Q337 -88 371 -55.5 Q405 -23 405 49 L405 85 Q390 61 356 41.5 Q322 22 268 22 Q219 22 177 40 Q135 58 104.5 90 Q74 122 56.5 165.5 Q39 209 39 261 Q39 310 56 353.5 Q73 397 103 430 Q133 463 175 482 Q217 501 268 501 Q327 501 361 480 Q395 459 408 434 L408 492 L536 492 L536 53 Q536 2 521.5 -44.5 Q507 -91 476 -126.5 Q445 -162 396 -183.5 Q347 -205 278 -205 Q227 -205 185.5 -190.5 Q144 -176 113 -151.5 Q82 -127 63 -94.5 Q44 -62 39 -27 L159 5 Z M291 136 Q342 136 374.5 170 Q407 204 407 261 Q407 318 373 351.5 Q339 385 291 385 Q266 385 244.5 376.5 Q223 368 207 351.5 Q191 335 182 312 Q173 289 173 261 Q173 203 206 169.5 Q239 136 291 136 Z " />
<glyph glyph-name="Gbreve" unicode="&#x11e;" horiz-adv-x="781" d="M400 753 Q359 753 329 765 Q299 777 278.5 796 Q258 815 248 839.5 Q238 864 237 888 L339 888 Q340 868 354.5 852.5 Q369 837 400 837 Q431 837 445.5 852.5 Q460 868 461 888 L563 888 Q562 864 552 839.5 Q542 815 521.5 796 Q501 777 471 765 Q441 753 400 753 Z M613 0 L604 81 Q592 63 573 45.5 Q554 28 527.5 14.5 Q501 1 468 -7 Q435 -15 395 -15 Q323 -15 259 10.5 Q195 36 146.5 83.5 Q98 131 69.5 199.5 Q41 268 41 354 Q41 440 70.5 508.5 Q100 577 150.5 625 Q201 673 266.5 698.5 Q332 724 404 724 Q474 724 528.5 705.5 Q583 687 623 656 Q663 625 689 586 Q715 547 728 506 L596 459 Q589 483 574.5 507 Q560 531 536.5 550.5 Q513 570 480 582.5 Q447 595 404 595 Q364 595 324 581 Q284 567 252.5 537.5 Q221 508 201 462.5 Q181 417 181 354 Q181 294 199.5 248.5 Q218 203 248.5 172.5 Q279 142 319.5 126.5 Q360 111 405 111 Q454 111 489 125.5 Q524 140 546.5 161 Q569 182 580.5 206 Q592 230 595 249 L371 249 L371 369 L725 369 L725 0 L613 0 Z " />
<glyph glyph-name="gbreve" unicode="&#x11f;" horiz-adv-x="604" d="M159 5 Q166 -36 196 -62 Q226 -88 274 -88 Q337 -88 371 -55.5 Q405 -23 405 49 L405 85 Q390 61 356 41.5 Q322 22 268 22 Q219 22 177 40 Q135 58 104.5 90 Q74 122 56.5 165.5 Q39 209 39 261 Q39 310 56 353.5 Q73 397 103 430 Q133 463 175 482 Q217 501 268 501 Q327 501 361 480 Q395 459 408 434 L408 492 L536 492 L536 53 Q536 2 521.5 -44.5 Q507 -91 476 -126.5 Q445 -162 396 -183.5 Q347 -205 278 -205 Q227 -205 185.5 -190.5 Q144 -176 113 -151.5 Q82 -127 63 -94.5 Q44 -62 39 -27 L159 5 Z M291 136 Q342 136 374.5 170 Q407 204 407 261 Q407 318 373 351.5 Q339 385 291 385 Q266 385 244.5 376.5 Q223 368 207 351.5 Q191 335 182 312 Q173 289 173 261 Q173 203 206 169.5 Q239 136 291 136 Z M290 549 Q251 549 221 561.5 Q191 574 171 595 Q151 616 140.5 643.5 Q130 671 129 700 L218 700 Q219 680 235.5 660.5 Q252 641 290 641 Q309 641 322 646.5 Q335 652 344 660.5 Q353 669 357 679.5 Q361 690 362 700 L451 700 Q450 671 440 643.5 Q430 616 409.5 595 Q389 574 359.5 561.5 Q330 549 290 549 Z " />
<glyph glyph-name="Gdotaccent" unicode="&#x120;" horiz-adv-x="781" d="M322 836 Q322 870 345.5 893 Q369 916 402 916 Q436 916 459.5 893 Q483 870 483 836 Q483 803 459.5 780 Q436 757 402 757 Q369 757 345.5 780 Q322 803 322 836 Z M613 0 L604 81 Q592 63 573 45.5 Q554 28 527.5 14.5 Q501 1 468 -7 Q435 -15 395 -15 Q323 -15 259 10.5 Q195 36 146.5 83.5 Q98 131 69.5 199.5 Q41 268 41 354 Q41 440 70.5 508.5 Q100 577 150.5 625 Q201 673 266.5 698.5 Q332 724 404 724 Q474 724 528.5 705.5 Q583 687 623 656 Q663 625 689 586 Q715 547 728 506 L596 459 Q589 483 574.5 507 Q560 531 536.5 550.5 Q513 570 480 582.5 Q447 595 404 595 Q364 595 324 581 Q284 567 252.5 537.5 Q221 508 201 462.5 Q181 417 181 354 Q181 294 199.5 248.5 Q218 203 248.5 172.5 Q279 142 319.5 126.5 Q360 111 405 111 Q454 111 489 125.5 Q524 140 546.5 161 Q569 182 580.5 206 Q592 230 595 249 L371 249 L371 369 L725 369 L725 0 L613 0 Z " />
<glyph glyph-name="gdotaccent" unicode="&#x121;" horiz-adv-x="604" d="M159 5 Q166 -36 196 -62 Q226 -88 274 -88 Q337 -88 371 -55.5 Q405 -23 405 49 L405 85 Q390 61 356 41.5 Q322 22 268 22 Q219 22 177 40 Q135 58 104.5 90 Q74 122 56.5 165.5 Q39 209 39 261 Q39 310 56 353.5 Q73 397 103 430 Q133 463 175 482 Q217 501 268 501 Q327 501 361 480 Q395 459 408 434 L408 492 L536 492 L536 53 Q536 2 521.5 -44.5 Q507 -91 476 -126.5 Q445 -162 396 -183.5 Q347 -205 278 -205 Q227 -205 185.5 -190.5 Q144 -176 113 -151.5 Q82 -127 63 -94.5 Q44 -62 39 -27 L159 5 Z M291 136 Q342 136 374.5 170 Q407 204 407 261 Q407 318 373 351.5 Q339 385 291 385 Q266 385 244.5 376.5 Q223 368 207 351.5 Q191 335 182 312 Q173 289 173 261 Q173 203 206 169.5 Q239 136 291 136 Z M205 627 Q205 661 228.5 683.5 Q252 706 285 706 Q318 706 341.5 683.5 Q365 661 365 627 Q365 594 341.5 571.5 Q318 549 285 549 Q252 549 228.5 571.5 Q205 594 205 627 Z " />
<glyph glyph-name="Gcommaaccent" unicode="&#x122;" horiz-adv-x="781" d="M330 -104 Q330 -77 350.5 -58.5 Q371 -40 403 -40 Q437 -40 460.5 -64 Q484 -88 484 -127 Q484 -166 470.5 -190.5 Q457 -215 436 -229 Q415 -243 390 -248.5 Q365 -254 343 -254 L343 -206 Q379 -206 400 -192.5 Q421 -179 424 -159 Q421 -161 413.5 -163.5 Q406 -166 395 -166 Q364 -166 347 -148.5 Q330 -131 330 -104 Z M613 0 L604 81 Q592 63 573 45.5 Q554 28 527.5 14.5 Q501 1 468 -7 Q435 -15 395 -15 Q323 -15 259 10.5 Q195 36 146.5 83.5 Q98 131 69.5 199.5 Q41 268 41 354 Q41 440 70.5 508.5 Q100 577 150.5 625 Q201 673 266.5 698.5 Q332 724 404 724 Q474 724 528.5 705.5 Q583 687 623 656 Q663 625 689 586 Q715 547 728 506 L596 459 Q589 483 574.5 507 Q560 531 536.5 550.5 Q513 570 480 582.5 Q447 595 404 595 Q364 595 324 581 Q284 567 252.5 537.5 Q221 508 201 462.5 Q181 417 181 354 Q181 294 199.5 248.5 Q218 203 248.5 172.5 Q279 142 319.5 126.5 Q360 111 405 111 Q454 111 489 125.5 Q524 140 546.5 161 Q569 182 580.5 206 Q592 230 595 249 L371 249 L371 369 L725 369 L725 0 L613 0 Z " />
<glyph glyph-name="gcommaaccent" unicode="&#x123;" horiz-adv-x="604" d="M359 605 Q359 577 338.5 559 Q318 541 286 541 Q251 541 228 565 Q205 589 205 627 Q205 663 218.5 687 Q232 711 253 726 Q274 741 299 747.5 Q324 754 346 754 L346 706 Q309 706 288 692 Q267 678 265 660 Q266 661 274 664 Q282 667 293 667 Q325 667 342 649 Q359 631 359 605 Z M159 5 Q166 -36 196 -62 Q226 -88 274 -88 Q337 -88 371 -55.5 Q405 -23 405 49 L405 85 Q390 61 356 41.5 Q322 22 268 22 Q219 22 177 40 Q135 58 104.5 90 Q74 122 56.5 165.5 Q39 209 39 261 Q39 310 56 353.5 Q73 397 103 430 Q133 463 175 482 Q217 501 268 501 Q327 501 361 480 Q395 459 408 434 L408 492 L536 492 L536 53 Q536 2 521.5 -44.5 Q507 -91 476 -126.5 Q445 -162 396 -183.5 Q347 -205 278 -205 Q227 -205 185.5 -190.5 Q144 -176 113 -151.5 Q82 -127 63 -94.5 Q44 -62 39 -27 L159 5 Z M291 136 Q342 136 374.5 170 Q407 204 407 261 Q407 318 373 351.5 Q339 385 291 385 Q266 385 244.5 376.5 Q223 368 207 351.5 Q191 335 182 312 Q173 289 173 261 Q173 203 206 169.5 Q239 136 291 136 Z " />
<glyph glyph-name="Hcircumflex" unicode="&#x124;" horiz-adv-x="752" d="M530 0 L530 294 L221 294 L221 0 L83 0 L83 709 L221 709 L221 424 L530 424 L530 709 L669 709 L669 0 L530 0 Z M187 759 L307 886 L443 886 L565 759 L440 759 L373 824 L308 759 L187 759 Z " />
<glyph glyph-name="hcircumflex" unicode="&#x125;" horiz-adv-x="580" d="M104 769 L224 896 L360 896 L482 769 L357 769 L290 834 L225 769 L104 769 Z M201 0 L68 0 L68 724 L201 724 L201 451 Q225 480 262 492.5 Q299 505 334 505 Q381 505 415.5 489.5 Q450 474 472.5 448 Q495 422 506 386 Q517 350 517 310 L517 0 L384 0 L384 287 Q384 329 362.5 357 Q341 385 293 385 Q251 385 227 357.5 Q203 330 201 289 L201 0 Z " />
<glyph glyph-name="Hbar" unicode="&#x126;" horiz-adv-x="760" d="M534 0 L534 294 L225 294 L225 0 L87 0 L87 517 L16 517 L16 604 L87 604 L87 709 L225 709 L225 604 L534 604 L534 709 L673 709 L673 604 L744 604 L744 517 L673 517 L673 0 L534 0 Z M534 424 L534 517 L225 517 L225 424 L534 424 Z " />
<glyph glyph-name="hbar" unicode="&#x127;" horiz-adv-x="580" d="M201 0 L68 0 L68 552 L-11 552 L-11 647 L68 647 L68 724 L201 724 L201 647 L312 647 L312 552 L201 552 L201 451 Q225 480 262 492.5 Q299 505 334 505 Q381 505 415.5 489.5 Q450 474 472.5 448 Q495 422 506 386 Q517 350 517 310 L517 0 L384 0 L384 287 Q384 329 362.5 357 Q341 385 293 385 Q251 385 227 357.5 Q203 330 201 289 L201 0 Z " />
<glyph glyph-name="Itilde" unicode="&#x128;" horiz-adv-x="306" d="M83 0 L83 709 L223 709 L223 0 L83 0 Z M326 862 Q326 807 296.5 779.5 Q267 752 225 752 Q202 752 183.5 759 Q165 766 150 776 L144 780 Q130 788 118.5 794 Q107 800 96 800 Q67 800 67 757 L-13 757 L-13 784 Q-13 839 17 866 Q47 893 88 893 Q111 893 129.5 886 Q148 879 164 870 L170 866 Q184 859 195 853 Q206 847 217 847 Q229 847 237.5 854 Q246 861 246 878 L246 890 L326 890 L326 862 Z " />
<glyph glyph-name="itilde" unicode="&#x129;" horiz-adv-x="269" d="M68 0 L68 492 L201 492 L201 0 L68 0 Z M308 678 Q308 615 278 585 Q248 555 201 555 Q180 555 162 561 Q144 567 130 577 L124 581 Q114 587 104.5 593 Q95 599 77 599 Q61 599 52 589 Q43 579 42 556 L-40 556 L-40 577 Q-40 638 -8.5 668 Q23 698 69 698 Q91 698 108 691 Q125 684 141 676 L147 672 Q160 664 171.5 658.5 Q183 653 195 653 Q228 653 228 696 L308 696 L308 678 Z " />
<glyph glyph-name="Imacron" unicode="&#x12a;" horiz-adv-x="306" d="M83 0 L83 709 L223 709 L223 0 L83 0 Z M2 774 L2 874 L307 874 L307 774 L2 774 Z " />
<glyph glyph-name="imacron" unicode="&#x12b;" horiz-adv-x="269" d="M68 0 L68 492 L201 492 L201 0 L68 0 Z M-5 577 L-5 674 L276 674 L276 577 L-5 577 Z " />
<glyph glyph-name="Ibreve" unicode="&#x12c;" horiz-adv-x="306" d="M83 0 L83 709 L223 709 L223 0 L83 0 Z M154 753 Q113 753 83 765 Q53 777 32.5 796 Q12 815 2 839.5 Q-8 864 -9 888 L93 888 Q94 868 108.5 852.5 Q123 837 154 837 Q185 837 199.5 852.5 Q214 868 215 888 L317 888 Q316 864 306 839.5 Q296 815 275.5 796 Q255 777 225 765 Q195 753 154 753 Z " />
<glyph glyph-name="ibreve" unicode="&#x12d;" horiz-adv-x="269" d="M68 0 L68 492 L201 492 L201 0 L68 0 Z M135 549 Q96 549 66 561.5 Q36 574 16 595 Q-4 616 -14.5 643.5 Q-25 671 -26 700 L63 700 Q64 680 80.5 660.5 Q97 641 135 641 Q154 641 167 646.5 Q180 652 189 660.5 Q198 669 202 679.5 Q206 690 207 700 L296 700 Q295 671 285 643.5 Q275 616 254.5 595 Q234 574 204.5 561.5 Q175 549 135 549 Z " />
<glyph glyph-name="Iogonek" unicode="&#x12e;" horiz-adv-x="306" d="M171 -223 Q117 -223 82.5 -194 Q48 -165 48 -116 Q48 -71 70.5 -43.5 Q93 -16 121 0 L83 0 L83 709 L223 709 L223 0 Q209 -7 194.5 -16.5 Q180 -26 169 -38 Q158 -50 151 -64 Q144 -78 144 -94 Q144 -117 157.5 -128 Q171 -139 194 -139 Q205 -139 210.5 -138.5 Q216 -138 223 -136 L223 -215 Q213 -219 200.5 -221 Q188 -223 171 -223 Z " />
<glyph glyph-name="iogonek" unicode="&#x12f;" horiz-adv-x="269" d="M149 -223 Q95 -223 60.5 -194 Q26 -165 26 -116 Q26 -71 48 -44 Q70 -17 98 0 L68 0 L68 492 L201 492 L201 0 Q187 -7 172.5 -16.5 Q158 -26 147 -38 Q136 -50 129 -64 Q122 -78 122 -94 Q122 -117 136.5 -128 Q151 -139 171 -139 Q181 -139 187 -138.5 Q193 -138 201 -136 L201 -215 Q191 -219 178.5 -221 Q166 -223 149 -223 Z M52 653 Q52 688 76 712 Q100 736 134 736 Q169 736 192.5 712 Q216 688 216 653 Q216 620 192.5 596 Q169 572 134 572 Q100 572 76 596 Q52 620 52 653 Z " />
<glyph glyph-name="Idot" unicode="&#x130;" horiz-adv-x="306" d="M83 0 L83 709 L223 709 L223 0 L83 0 Z M72 833 Q72 867 95.5 890 Q119 913 152 913 Q186 913 209.5 890 Q233 867 233 833 Q233 800 209.5 777 Q186 754 152 754 Q119 754 95.5 777 Q72 800 72 833 Z " />
<glyph glyph-name="dotlessi" unicode="&#x131;" horiz-adv-x="269" d="M68 0 L68 492 L201 492 L201 0 L68 0 Z " />
<glyph glyph-name="IJ" unicode="&#x132;" horiz-adv-x="620" d="M77 308 L77 709 L217 709 L217 308 L77 308 Z M217 240 L217 222 Q217 167 243 141.5 Q269 116 311 116 Q356 116 380.5 144 Q405 172 405 219 L405 709 L543 709 L543 219 Q543 171 526.5 128.5 Q510 86 479.5 54 Q449 22 406.5 3.5 Q364 -15 312 -15 Q260 -15 216.5 1.5 Q173 18 142 48.5 Q111 79 94 121.5 Q77 164 77 216 L217 240 Z " />
<glyph glyph-name="ij" unicode="&#x133;" horiz-adv-x="538" d="M68 0 L68 492 L201 492 L201 0 L68 0 Z M52 653 Q52 688 76 712 Q100 736 134 736 Q169 736 192.5 712 Q216 688 216 653 Q216 620 192.5 596 Q169 572 134 572 Q100 572 76 596 Q52 620 52 653 Z M337 492 L470 492 L470 -43 Q470 -79 459.5 -108.5 Q449 -138 429 -159.5 Q409 -181 380.5 -193 Q352 -205 316 -205 Q287 -205 266.5 -200.5 Q246 -196 241 -194 L241 -83 Q248 -85 258 -86.5 Q268 -88 282 -88 Q312 -88 324.5 -72.5 Q337 -57 337 -30 L337 492 Z M321 654 Q321 689 345 713 Q369 737 403 737 Q438 737 461.5 713 Q485 689 485 654 Q485 620 461.5 596.5 Q438 573 403 573 Q369 573 345 596.5 Q321 620 321 654 Z " />
<glyph glyph-name="Jcircumflex" unicode="&#x134;" horiz-adv-x="561" d="M226 759 L346 886 L482 886 L604 759 L479 759 L412 824 L347 759 L226 759 Z M21 263 L154 287 L154 222 Q155 167 182.5 141.5 Q210 116 252 116 Q296 116 321 144 Q346 172 346 219 L346 709 L484 709 L484 219 Q484 171 467.5 128.5 Q451 86 420.5 54 Q390 22 347.5 3.5 Q305 -15 253 -15 Q200 -15 157.5 1.5 Q115 18 84.5 48.5 Q54 79 37.5 121.5 Q21 164 21 216 L21 263 Z " />
<glyph glyph-name="jcircumflex" unicode="&#x135;" horiz-adv-x="269" d="M-42 552 L68 699 L200 699 L310 552 L203 552 L132 627 L62 552 L-42 552 Z M68 492 L201 492 L201 -43 Q201 -79 190.5 -108.5 Q180 -138 160 -159.5 Q140 -181 111.5 -193 Q83 -205 47 -205 Q15 -205 -4 -200.5 Q-23 -196 -28 -194 L-28 -83 Q-22 -85 -12 -86.5 Q-2 -88 13 -88 Q43 -88 55.5 -72.5 Q68 -57 68 -30 L68 492 Z " />
<glyph glyph-name="Kcommaaccent" unicode="&#x136;" horiz-adv-x="688" d="M309 294 L221 197 L221 0 L83 0 L83 709 L221 709 L221 388 L505 709 L686 709 L405 400 L688 0 L515 0 L309 294 Z M293 -99 Q293 -72 313.5 -53.5 Q334 -35 366 -35 Q400 -35 423.5 -59 Q447 -83 447 -122 Q447 -161 433.5 -185.5 Q420 -210 399 -224 Q378 -238 353 -243.5 Q328 -249 306 -249 L306 -201 Q342 -201 363 -187.5 Q384 -174 387 -154 Q384 -156 376.5 -158.5 Q369 -161 358 -161 Q327 -161 310 -143.5 Q293 -126 293 -99 Z " />
<glyph glyph-name="kcommaaccent" unicode="&#x137;" horiz-adv-x="558" d="M348 285 L549 0 L386 0 L256 188 L201 130 L201 0 L68 0 L68 724 L201 724 L201 309 L371 492 L545 492 L348 285 Z M228 -102 Q228 -75 248.5 -56.5 Q269 -38 301 -38 Q335 -38 358.5 -62 Q382 -86 382 -125 Q382 -164 368.5 -188.5 Q355 -213 334 -227 Q313 -241 288 -246.5 Q263 -252 241 -252 L241 -204 Q277 -204 298 -190.5 Q319 -177 322 -157 Q319 -159 311.5 -161.5 Q304 -164 293 -164 Q262 -164 245 -146.5 Q228 -129 228 -102 Z " />
<glyph glyph-name="kgreenlandic" unicode="&#x138;" horiz-adv-x="558" d="M348 285 L549 0 L386 0 L256 188 L201 130 L201 0 L68 0 L68 492 L201 492 L201 309 L371 492 L545 492 L348 285 Z " />
<glyph glyph-name="Lacute" unicode="&#x139;" horiz-adv-x="553" d="M217 759 L95 759 L198 886 L362 886 L217 759 Z M83 0 L83 709 L221 709 L221 132 L537 132 L537 0 L83 0 Z " />
<glyph glyph-name="lacute" unicode="&#x13a;" horiz-adv-x="269" d="M190 769 L68 769 L171 896 L335 896 L190 769 Z M68 0 L68 724 L201 724 L201 0 L68 0 Z " />
<glyph glyph-name="Lcommaaccent" unicode="&#x13b;" horiz-adv-x="553" d="M83 0 L83 709 L221 709 L221 132 L537 132 L537 0 L83 0 Z M239 -102 Q239 -75 259.5 -56.5 Q280 -38 312 -38 Q346 -38 369.5 -62 Q393 -86 393 -125 Q393 -164 379.5 -188.5 Q366 -213 345 -227 Q324 -241 299 -246.5 Q274 -252 252 -252 L252 -204 Q288 -204 309 -190.5 Q330 -177 333 -157 Q330 -159 322.5 -161.5 Q315 -164 304 -164 Q273 -164 256 -146.5 Q239 -129 239 -102 Z " />
<glyph glyph-name="lcommaaccent" unicode="&#x13c;" horiz-adv-x="269" d="M68 0 L68 724 L201 724 L201 0 L68 0 Z M57 -102 Q57 -75 77.5 -56.5 Q98 -38 130 -38 Q164 -38 187.5 -62 Q211 -86 211 -125 Q211 -164 197.5 -188.5 Q184 -213 163 -227 Q142 -241 117 -246.5 Q92 -252 70 -252 L70 -204 Q106 -204 127 -190.5 Q148 -177 151 -157 Q148 -159 140.5 -161.5 Q133 -164 122 -164 Q91 -164 74 -146.5 Q57 -129 57 -102 Z " />
<glyph glyph-name="Lcaron" unicode="&#x13d;" horiz-adv-x="553" d="M403 552 L309 552 L340 760 L478 760 L403 552 Z M83 0 L83 709 L221 709 L221 132 L537 132 L537 0 L83 0 Z " />
<glyph glyph-name="lcaron" unicode="&#x13e;" horiz-adv-x="269" d="M328 526 L239 526 L268 724 L400 724 L328 526 Z M68 0 L68 724 L201 724 L201 0 L68 0 Z " />
<glyph glyph-name="Ldot" unicode="&#x13f;" horiz-adv-x="554" d="M305 404 Q305 436 328 458 Q351 480 383 480 Q415 480 437.5 458 Q460 436 460 404 Q460 372 437.5 350 Q415 328 383 328 Q351 328 328 350 Q305 372 305 404 Z M83 0 L83 709 L221 709 L221 132 L537 132 L537 0 L83 0 Z " />
<glyph glyph-name="ldot" unicode="&#x140;" horiz-adv-x="401" d="M68 0 L68 724 L201 724 L201 0 L68 0 Z M251 330 Q251 364 274.5 386.5 Q298 409 331 409 Q364 409 387.5 386.5 Q411 364 411 330 Q411 297 387.5 274.5 Q364 252 331 252 Q298 252 274.5 274.5 Q251 297 251 330 Z " />
<glyph glyph-name="Lslash" unicode="&#x141;" horiz-adv-x="577" d="M107 0 L107 259 L15 217 L15 328 L107 370 L107 709 L245 709 L245 433 L406 506 L406 395 L245 322 L245 132 L561 132 L561 0 L107 0 Z " />
<glyph glyph-name="lslash" unicode="&#x142;" horiz-adv-x="372" d="M120 0 L120 258 L35 219 L35 330 L120 369 L120 724 L253 724 L253 429 L340 469 L340 358 L253 318 L253 0 L120 0 Z " />
<glyph glyph-name="Nacute" unicode="&#x143;" horiz-adv-x="771" d="M413 759 L291 759 L394 886 L558 886 L413 759 Z M543 0 L221 503 L221 0 L83 0 L83 709 L255 709 L550 240 L550 709 L688 709 L688 0 L543 0 Z " />
<glyph glyph-name="nacute" unicode="&#x144;" horiz-adv-x="580" d="M314 551 L207 551 L298 701 L450 701 L314 551 Z M201 0 L68 0 L68 492 L197 492 L197 431 Q220 469 259.5 487 Q299 505 339 505 Q385 505 418.5 489.5 Q452 474 474 448 Q496 422 506.5 386 Q517 350 517 310 L517 0 L384 0 L384 287 Q384 329 362.5 357 Q341 385 293 385 Q249 385 225 355.5 Q201 326 201 283 L201 0 Z " />
<glyph glyph-name="Ncommaaccent" unicode="&#x145;" horiz-adv-x="771" d="M329 -102 Q329 -75 349.5 -56.5 Q370 -38 402 -38 Q436 -38 459.5 -62 Q483 -86 483 -125 Q483 -164 469.5 -188.5 Q456 -213 435 -227 Q414 -241 389 -246.5 Q364 -252 342 -252 L342 -204 Q378 -204 399 -190.5 Q420 -177 423 -157 Q420 -159 412.5 -161.5 Q405 -164 394 -164 Q363 -164 346 -146.5 Q329 -129 329 -102 Z M543 0 L221 503 L221 0 L83 0 L83 709 L255 709 L550 240 L550 709 L688 709 L688 0 L543 0 Z " />
<glyph glyph-name="ncommaaccent" unicode="&#x146;" horiz-adv-x="580" d="M221 -100 Q221 -73 241.5 -54.5 Q262 -36 294 -36 Q328 -36 351.5 -60 Q375 -84 375 -123 Q375 -162 361.5 -186.5 Q348 -211 327 -225 Q306 -239 281 -244.5 Q256 -250 234 -250 L234 -202 Q270 -202 291 -188.5 Q312 -175 315 -155 Q312 -157 304.5 -159.5 Q297 -162 286 -162 Q255 -162 238 -144.5 Q221 -127 221 -100 Z M201 0 L68 0 L68 492 L197 492 L197 431 Q220 469 259.5 487 Q299 505 339 505 Q385 505 418.5 489.5 Q452 474 474 448 Q496 422 506.5 386 Q517 350 517 310 L517 0 L384 0 L384 287 Q384 329 362.5 357 Q341 385 293 385 Q249 385 225 355.5 Q201 326 201 283 L201 0 Z " />
<glyph glyph-name="Ncaron" unicode="&#x147;" horiz-adv-x="771" d="M319 886 L385 822 L452 886 L573 886 L451 759 L315 759 L195 886 L319 886 Z M543 0 L221 503 L221 0 L83 0 L83 709 L255 709 L550 240 L550 709 L688 709 L688 0 L543 0 Z " />
<glyph glyph-name="ncaron" unicode="&#x148;" horiz-adv-x="580" d="M213 700 L283 625 L353 700 L458 700 L349 552 L216 552 L106 700 L213 700 Z M201 0 L68 0 L68 492 L197 492 L197 431 Q220 469 259.5 487 Q299 505 339 505 Q385 505 418.5 489.5 Q452 474 474 448 Q496 422 506.5 386 Q517 350 517 310 L517 0 L384 0 L384 287 Q384 329 362.5 357 Q341 385 293 385 Q249 385 225 355.5 Q201 326 201 283 L201 0 Z " />
<glyph glyph-name="napostrophe" unicode="&#x149;" horiz-adv-x="580" d="M55 683 Q55 710 75.5 728.5 Q96 747 128 747 Q162 747 185.5 723 Q209 699 209 661 Q209 621 195 596.5 Q181 572 159.5 558 Q138 544 113.5 539 Q89 534 68 534 L68 581 Q104 581 125 594 Q146 607 149 627 Q147 626 139 623 Q131 620 120 620 Q89 620 72 638 Q55 656 55 683 Z M201 0 L68 0 L68 492 L197 492 L197 431 Q220 469 259.5 487 Q299 505 339 505 Q385 505 418.5 489.5 Q452 474 474 448 Q496 422 506.5 386 Q517 350 517 310 L517 0 L384 0 L384 287 Q384 329 362.5 357 Q341 385 293 385 Q249 385 225 355.5 Q201 326 201 283 L201 0 Z " />
<glyph glyph-name="Eng" unicode="&#x14a;" horiz-adv-x="771" d="M221 503 L221 0 L83 0 L83 709 L255 709 L550 243 L550 709 L688 709 L688 -37 Q688 -73 676.5 -103.5 Q665 -134 644 -155.5 Q623 -177 593 -189 Q563 -201 527 -201 Q494 -201 473 -196.5 Q452 -192 447 -190 L447 -77 Q453 -79 465.5 -80.5 Q478 -82 492 -82 Q524 -82 537 -67 Q550 -52 550 -26 L550 -8 L221 503 Z " />
<glyph glyph-name="eng" unicode="&#x14b;" horiz-adv-x="580" d="M201 0 L68 0 L68 492 L197 492 L197 431 Q220 469 259.5 487 Q299 505 339 505 Q385 505 418.5 489.5 Q452 474 474 448 Q496 422 506.5 386 Q517 350 517 310 L517 -40 Q517 -76 506 -105.5 Q495 -135 474.5 -156.5 Q454 -178 425 -190 Q396 -202 360 -202 Q328 -202 308.5 -198 Q289 -194 284 -191 L284 -81 Q290 -83 301 -84.5 Q312 -86 326 -86 Q358 -86 371 -70 Q384 -54 384 -27 L384 287 Q384 329 362.5 357 Q341 385 293 385 Q249 385 225 355.5 Q201 326 201 283 L201 0 Z " />
<glyph glyph-name="Omacron" unicode="&#x14c;" horiz-adv-x="811" d="M184 355 Q184 295 203 250.5 Q222 206 253.5 177 Q285 148 324.5 133.5 Q364 119 405 119 Q446 119 486 133.5 Q526 148 557.5 177 Q589 206 608 250.5 Q627 295 627 355 Q627 415 608 459.5 Q589 504 557.5 533 Q526 562 486 576.5 Q446 591 405 591 Q364 591 324.5 576.5 Q285 562 253.5 533 Q222 504 203 459.5 Q184 415 184 355 Z M41 354 Q41 440 71 508.5 Q101 577 151 625 Q201 673 267 698.5 Q333 724 405 724 Q477 724 543.5 698.5 Q610 673 660 625 Q710 577 740 508.5 Q770 440 770 354 Q770 268 740 200 Q710 132 660 84 Q610 36 543.5 10.5 Q477 -15 405 -15 Q333 -15 267 10.5 Q201 36 151 84 Q101 132 71 200 Q41 268 41 354 Z M253 774 L253 874 L558 874 L558 774 L253 774 Z " />
<glyph glyph-name="omacron" unicode="&#x14d;" horiz-adv-x="592" d="M156 577 L156 674 L437 674 L437 577 L156 577 Z M296 106 Q320 106 343 115 Q366 124 383 141.5 Q400 159 410.5 185 Q421 211 421 246 Q421 281 410.5 307 Q400 333 383 350.5 Q366 368 343 377 Q320 386 296 386 Q272 386 249 377 Q226 368 209 350.5 Q192 333 181.5 307 Q171 281 171 246 Q171 211 181.5 185 Q192 159 209 141.5 Q226 124 249 115 Q272 106 296 106 Z M296 507 Q351 507 398.5 487.5 Q446 468 480.5 433.5 Q515 399 534.5 351 Q554 303 554 246 Q554 189 534.5 141.5 Q515 94 480.5 59 Q446 24 398.5 4.5 Q351 -15 296 -15 Q241 -15 193.5 4.5 Q146 24 111.5 59 Q77 94 57.5 141.5 Q38 189 38 246 Q38 303 57.5 351 Q77 399 111.5 433.5 Q146 468 193.5 487.5 Q241 507 296 507 Z " />
<glyph glyph-name="Obreve" unicode="&#x14e;" horiz-adv-x="811" d="M408 753 Q367 753 337 765 Q307 777 286.5 796 Q266 815 256 839.5 Q246 864 245 888 L347 888 Q348 868 362.5 852.5 Q377 837 408 837 Q439 837 453.5 852.5 Q468 868 469 888 L571 888 Q570 864 560 839.5 Q550 815 529.5 796 Q509 777 479 765 Q449 753 408 753 Z M184 355 Q184 295 203 250.5 Q222 206 253.5 177 Q285 148 324.5 133.5 Q364 119 405 119 Q446 119 486 133.5 Q526 148 557.5 177 Q589 206 608 250.5 Q627 295 627 355 Q627 415 608 459.5 Q589 504 557.5 533 Q526 562 486 576.5 Q446 591 405 591 Q364 591 324.5 576.5 Q285 562 253.5 533 Q222 504 203 459.5 Q184 415 184 355 Z M41 354 Q41 440 71 508.5 Q101 577 151 625 Q201 673 267 698.5 Q333 724 405 724 Q477 724 543.5 698.5 Q610 673 660 625 Q710 577 740 508.5 Q770 440 770 354 Q770 268 740 200 Q710 132 660 84 Q610 36 543.5 10.5 Q477 -15 405 -15 Q333 -15 267 10.5 Q201 36 151 84 Q101 132 71 200 Q41 268 41 354 Z " />
<glyph glyph-name="obreve" unicode="&#x14f;" horiz-adv-x="592" d="M296 106 Q320 106 343 115 Q366 124 383 141.5 Q400 159 410.5 185 Q421 211 421 246 Q421 281 410.5 307 Q400 333 383 350.5 Q366 368 343 377 Q320 386 296 386 Q272 386 249 377 Q226 368 209 350.5 Q192 333 181.5 307 Q171 281 171 246 Q171 211 181.5 185 Q192 159 209 141.5 Q226 124 249 115 Q272 106 296 106 Z M296 507 Q351 507 398.5 487.5 Q446 468 480.5 433.5 Q515 399 534.5 351 Q554 303 554 246 Q554 189 534.5 141.5 Q515 94 480.5 59 Q446 24 398.5 4.5 Q351 -15 296 -15 Q241 -15 193.5 4.5 Q146 24 111.5 59 Q77 94 57.5 141.5 Q38 189 38 246 Q38 303 57.5 351 Q77 399 111.5 433.5 Q146 468 193.5 487.5 Q241 507 296 507 Z M296 549 Q257 549 227 561.5 Q197 574 177 595 Q157 616 146.5 643.5 Q136 671 135 700 L224 700 Q225 680 241.5 660.5 Q258 641 296 641 Q315 641 328 646.5 Q341 652 350 660.5 Q359 669 363 679.5 Q367 690 368 700 L457 700 Q456 671 446 643.5 Q436 616 415.5 595 Q395 574 365.5 561.5 Q336 549 296 549 Z " />
<glyph glyph-name="Ohungarumlaut" unicode="&#x150;" horiz-adv-x="811" d="M359 759 L273 759 L326 886 L453 886 L359 759 Z M516 759 L428 759 L495 886 L624 886 L516 759 Z M184 355 Q184 295 203 250.5 Q222 206 253.5 177 Q285 148 324.5 133.5 Q364 119 405 119 Q446 119 486 133.5 Q526 148 557.5 177 Q589 206 608 250.5 Q627 295 627 355 Q627 415 608 459.5 Q589 504 557.5 533 Q526 562 486 576.5 Q446 591 405 591 Q364 591 324.5 576.5 Q285 562 253.5 533 Q222 504 203 459.5 Q184 415 184 355 Z M41 354 Q41 440 71 508.5 Q101 577 151 625 Q201 673 267 698.5 Q333 724 405 724 Q477 724 543.5 698.5 Q610 673 660 625 Q710 577 740 508.5 Q770 440 770 354 Q770 268 740 200 Q710 132 660 84 Q610 36 543.5 10.5 Q477 -15 405 -15 Q333 -15 267 10.5 Q201 36 151 84 Q101 132 71 200 Q41 268 41 354 Z " />
<glyph glyph-name="ohungarumlaut" unicode="&#x151;" horiz-adv-x="592" d="M296 106 Q320 106 343 115 Q366 124 383 141.5 Q400 159 410.5 185 Q421 211 421 246 Q421 281 410.5 307 Q400 333 383 350.5 Q366 368 343 377 Q320 386 296 386 Q272 386 249 377 Q226 368 209 350.5 Q192 333 181.5 307 Q171 281 171 246 Q171 211 181.5 185 Q192 159 209 141.5 Q226 124 249 115 Q272 106 296 106 Z M296 507 Q351 507 398.5 487.5 Q446 468 480.5 433.5 Q515 399 534.5 351 Q554 303 554 246 Q554 189 534.5 141.5 Q515 94 480.5 59 Q446 24 398.5 4.5 Q351 -15 296 -15 Q241 -15 193.5 4.5 Q146 24 111.5 59 Q77 94 57.5 141.5 Q38 189 38 246 Q38 303 57.5 351 Q77 399 111.5 433.5 Q146 468 193.5 487.5 Q241 507 296 507 Z M255 551 L171 551 L223 701 L352 701 L255 551 Z M407 551 L322 551 L388 701 L519 701 L407 551 Z " />
<glyph glyph-name="OE" unicode="&#x152;" horiz-adv-x="1123" d="M184 355 Q184 295 203 250.5 Q222 206 253.5 177 Q285 148 324.5 133.5 Q364 119 405 119 Q446 119 486 133.5 Q526 148 557.5 177 Q589 206 608 250.5 Q627 295 627 355 Q627 415 608 459.5 Q589 504 557.5 533 Q526 562 486 576.5 Q446 591 405 591 Q364 591 324.5 576.5 Q285 562 253.5 533 Q222 504 203 459.5 Q184 415 184 355 Z M627 0 L627 71 Q586 29 530.5 7 Q475 -15 405 -15 Q333 -15 267 10.5 Q201 36 151 84 Q101 132 71 200 Q41 268 41 354 Q41 440 71 508.5 Q101 577 151 625 Q201 673 267 698.5 Q333 724 405 724 Q475 724 530.5 701.5 Q586 679 627 637 L627 709 L1071 709 L1071 579 L765 579 L765 417 L1042 417 L1042 294 L765 294 L765 130 L1071 130 L1071 0 L627 0 Z " />
<glyph glyph-name="oe" unicode="&#x153;" horiz-adv-x="946" d="M776 302 Q775 320 768.5 337.5 Q762 355 748.5 368.5 Q735 382 714.5 390.5 Q694 399 666 399 Q640 399 620 390 Q600 381 586 367 Q572 353 564.5 336 Q557 319 556 302 L776 302 Z M296 106 Q320 106 343 115 Q366 124 383 141.5 Q400 159 410.5 185 Q421 211 421 246 Q421 281 410.5 307 Q400 333 383 350.5 Q366 368 343 377 Q320 386 296 386 Q272 386 249 377 Q226 368 209 350.5 Q192 333 181.5 307 Q171 281 171 246 Q171 211 181.5 185 Q192 159 209 141.5 Q226 124 249 115 Q272 106 296 106 Z M296 507 Q354 507 402.5 486 Q451 465 486 427 Q521 465 567 486 Q613 507 664 507 Q779 507 843 439 Q907 371 907 252 Q907 238 906 225.5 Q905 213 905 211 L553 211 Q554 187 564.5 166.5 Q575 146 591.5 131 Q608 116 630 107.5 Q652 99 677 99 Q724 99 750.5 120 Q777 141 789 174 L900 141 Q891 109 871.5 80.5 Q852 52 824 31 Q796 10 758.5 -2.5 Q721 -15 676 -15 Q621 -15 571.5 5.5 Q522 26 487 66 Q452 28 403 6.5 Q354 -15 296 -15 Q241 -15 193.5 4.5 Q146 24 111.5 59 Q77 94 57.5 141.5 Q38 189 38 246 Q38 303 57.5 351 Q77 399 111.5 433.5 Q146 468 193.5 487.5 Q241 507 296 507 Z " />
<glyph glyph-name="Racute" unicode="&#x154;" horiz-adv-x="630" d="M346 759 L224 759 L327 886 L491 886 L346 759 Z M294 273 L222 273 L222 0 L83 0 L83 709 L360 709 Q412 709 453.5 692 Q495 675 524.5 646 Q554 617 570 577 Q586 537 586 491 Q586 416 545.5 363 Q505 310 435 290 L587 0 L433 0 L294 273 Z M334 392 Q387 392 416 419 Q445 446 445 490 Q445 535 416 562 Q387 589 334 589 L222 589 L222 392 L334 392 Z " />
<glyph glyph-name="racute" unicode="&#x155;" horiz-adv-x="388" d="M217 551 L110 551 L201 701 L353 701 L217 551 Z M368 360 Q348 364 328 364 Q302 364 279 357 Q256 350 239 334 Q222 318 211.5 291.5 Q201 265 201 225 L201 0 L68 0 L68 492 L197 492 L197 419 Q208 443 225.5 458.5 Q243 474 262.5 482 Q282 490 301.5 493 Q321 496 337 496 Q345 496 352.5 495.5 Q360 495 368 494 L368 360 Z " />
<glyph glyph-name="Rcommaaccent" unicode="&#x156;" horiz-adv-x="630" d="M294 273 L222 273 L222 0 L83 0 L83 709 L360 709 Q412 709 453.5 692 Q495 675 524.5 646 Q554 617 570 577 Q586 537 586 491 Q586 416 545.5 363 Q505 310 435 290 L587 0 L433 0 L294 273 Z M334 392 Q387 392 416 419 Q445 446 445 490 Q445 535 416 562 Q387 589 334 589 L222 589 L222 392 L334 392 Z M259 -99 Q259 -72 279.5 -53.5 Q300 -35 332 -35 Q366 -35 389.5 -59 Q413 -83 413 -122 Q413 -161 399.5 -185.5 Q386 -210 365 -224 Q344 -238 319 -243.5 Q294 -249 272 -249 L272 -201 Q308 -201 329 -187.5 Q350 -174 353 -154 Q350 -156 342.5 -158.5 Q335 -161 324 -161 Q293 -161 276 -143.5 Q259 -126 259 -99 Z " />
<glyph glyph-name="rcommaaccent" unicode="&#x157;" horiz-adv-x="388" d="M368 360 Q348 364 328 364 Q302 364 279 357 Q256 350 239 334 Q222 318 211.5 291.5 Q201 265 201 225 L201 0 L68 0 L68 492 L197 492 L197 419 Q208 443 225.5 458.5 Q243 474 262.5 482 Q282 490 301.5 493 Q321 496 337 496 Q345 496 352.5 495.5 Q360 495 368 494 L368 360 Z M59 -102 Q59 -75 79.5 -56.5 Q100 -38 132 -38 Q166 -38 189.5 -62 Q213 -86 213 -125 Q213 -164 199.5 -188.5 Q186 -213 165 -227 Q144 -241 119 -246.5 Q94 -252 72 -252 L72 -204 Q108 -204 129 -190.5 Q150 -177 153 -157 Q150 -159 142.5 -161.5 Q135 -164 124 -164 Q93 -164 76 -146.5 Q59 -129 59 -102 Z " />
<glyph glyph-name="Rcaron" unicode="&#x158;" horiz-adv-x="630" d="M249 886 L315 822 L382 886 L503 886 L381 759 L245 759 L125 886 L249 886 Z M294 273 L222 273 L222 0 L83 0 L83 709 L360 709 Q412 709 453.5 692 Q495 675 524.5 646 Q554 617 570 577 Q586 537 586 491 Q586 416 545.5 363 Q505 310 435 290 L587 0 L433 0 L294 273 Z M334 392 Q387 392 416 419 Q445 446 445 490 Q445 535 416 562 Q387 589 334 589 L222 589 L222 392 L334 392 Z " />
<glyph glyph-name="rcaron" unicode="&#x159;" horiz-adv-x="388" d="M140 700 L210 625 L280 700 L385 700 L276 552 L143 552 L33 700 L140 700 Z M368 360 Q348 364 328 364 Q302 364 279 357 Q256 350 239 334 Q222 318 211.5 291.5 Q201 265 201 225 L201 0 L68 0 L68 492 L197 492 L197 419 Q208 443 225.5 458.5 Q243 474 262.5 482 Q282 490 301.5 493 Q321 496 337 496 Q345 496 352.5 495.5 Q360 495 368 494 L368 360 Z " />
<glyph glyph-name="Sacute" unicode="&#x15a;" horiz-adv-x="611" d="M364 759 L242 759 L345 886 L509 886 L364 759 Z M437 502 Q434 517 426.5 534.5 Q419 552 404 567 Q389 582 365.5 592 Q342 602 308 602 Q283 602 262.5 594.5 Q242 587 227.5 574.5 Q213 562 205 546 Q197 530 197 512 Q197 483 216 461.5 Q235 440 274 432 L373 413 Q421 404 458 384 Q495 364 520 336.5 Q545 309 558 275 Q571 241 571 204 Q571 163 554 123.5 Q537 84 504.5 53.5 Q472 23 424.5 4 Q377 -15 315 -15 Q244 -15 193 5.5 Q142 26 107.5 58 Q73 90 55 129.5 Q37 169 33 207 L161 241 Q163 215 173.5 191 Q184 167 203 148.5 Q222 130 250 119 Q278 108 316 108 Q372 108 401.5 132.5 Q431 157 431 195 Q431 226 409 248.5 Q387 271 345 279 L246 299 Q161 316 110.5 368.5 Q60 421 60 502 Q60 549 79.5 589.5 Q99 630 133 660 Q167 690 212 707 Q257 724 307 724 Q371 724 416.5 706.5 Q462 689 492 662 Q522 635 538.5 602.5 Q555 570 561 540 L437 502 Z " />
<glyph glyph-name="sacute" unicode="&#x15b;" horiz-adv-x="471" d="M285 551 L178 551 L269 701 L421 701 L285 551 Z M149 162 Q151 133 173 110 Q195 87 239 87 Q272 87 288 101.5 Q304 116 304 136 Q304 153 292 165.5 Q280 178 251 184 L186 199 Q114 215 81 254.5 Q48 294 48 346 Q48 379 62 408.5 Q76 438 100.5 459.5 Q125 481 158.5 494 Q192 507 232 507 Q284 507 320 492.5 Q356 478 378.5 456 Q401 434 412 409.5 Q423 385 425 365 L314 340 Q312 351 307.5 362.5 Q303 374 293 384 Q283 394 268.5 400 Q254 406 233 406 Q207 406 188.5 392 Q170 378 170 357 Q170 339 182.5 328 Q195 317 215 313 L285 298 Q358 283 394.5 242 Q431 201 431 147 Q431 117 419.5 88 Q408 59 384 36 Q360 13 324 -1 Q288 -15 240 -15 Q184 -15 146 1 Q108 17 84 40 Q60 63 48.5 89.5 Q37 116 35 137 L149 162 Z " />
<glyph glyph-name="Scircumflex" unicode="&#x15c;" horiz-adv-x="611" d="M133 759 L253 886 L389 886 L511 759 L386 759 L319 824 L254 759 L133 759 Z M437 502 Q434 517 426.5 534.5 Q419 552 404 567 Q389 582 365.5 592 Q342 602 308 602 Q283 602 262.5 594.5 Q242 587 227.5 574.5 Q213 562 205 546 Q197 530 197 512 Q197 483 216 461.5 Q235 440 274 432 L373 413 Q421 404 458 384 Q495 364 520 336.5 Q545 309 558 275 Q571 241 571 204 Q571 163 554 123.5 Q537 84 504.5 53.5 Q472 23 424.5 4 Q377 -15 315 -15 Q244 -15 193 5.5 Q142 26 107.5 58 Q73 90 55 129.5 Q37 169 33 207 L161 241 Q163 215 173.5 191 Q184 167 203 148.5 Q222 130 250 119 Q278 108 316 108 Q372 108 401.5 132.5 Q431 157 431 195 Q431 226 409 248.5 Q387 271 345 279 L246 299 Q161 316 110.5 368.5 Q60 421 60 502 Q60 549 79.5 589.5 Q99 630 133 660 Q167 690 212 707 Q257 724 307 724 Q371 724 416.5 706.5 Q462 689 492 662 Q522 635 538.5 602.5 Q555 570 561 540 L437 502 Z " />
<glyph glyph-name="scircumflex" unicode="&#x15d;" horiz-adv-x="471" d="M69 552 L179 699 L311 699 L421 552 L314 552 L243 627 L173 552 L69 552 Z M149 162 Q151 133 173 110 Q195 87 239 87 Q272 87 288 101.5 Q304 116 304 136 Q304 153 292 165.5 Q280 178 251 184 L186 199 Q114 215 81 254.5 Q48 294 48 346 Q48 379 62 408.5 Q76 438 100.5 459.5 Q125 481 158.5 494 Q192 507 232 507 Q284 507 320 492.5 Q356 478 378.5 456 Q401 434 412 409.5 Q423 385 425 365 L314 340 Q312 351 307.5 362.5 Q303 374 293 384 Q283 394 268.5 400 Q254 406 233 406 Q207 406 188.5 392 Q170 378 170 357 Q170 339 182.5 328 Q195 317 215 313 L285 298 Q358 283 394.5 242 Q431 201 431 147 Q431 117 419.5 88 Q408 59 384 36 Q360 13 324 -1 Q288 -15 240 -15 Q184 -15 146 1 Q108 17 84 40 Q60 63 48.5 89.5 Q37 116 35 137 L149 162 Z " />
<glyph glyph-name="Scedilla" unicode="&#x15e;" horiz-adv-x="611" d="M245 -63 L276 -13 Q216 -7 171.5 14.5 Q127 36 97.5 67 Q68 98 52.5 135 Q37 172 33 207 L161 241 Q163 215 173.5 191 Q184 167 203 148.5 Q222 130 250 119 Q278 108 316 108 Q372 108 401.5 132.5 Q431 157 431 195 Q431 226 409 248.5 Q387 271 345 279 L246 299 Q161 316 110.5 368.5 Q60 421 60 502 Q60 549 79.5 589.5 Q99 630 133 660 Q167 690 212 707 Q257 724 307 724 Q371 724 416.5 706.5 Q462 689 492 662 Q522 635 538.5 602.5 Q555 570 561 540 L437 502 Q434 517 426.5 534.5 Q419 552 404 567 Q389 582 365.5 592 Q342 602 308 602 Q283 602 262.5 594.5 Q242 587 227.5 574.5 Q213 562 205 546 Q197 530 197 512 Q197 483 216 461.5 Q235 440 274 432 L373 413 Q421 404 458 384 Q495 364 520 336.5 Q545 309 558 275 Q571 241 571 204 Q571 167 557 131 Q543 95 516.5 65.5 Q490 36 450.5 15.5 Q411 -5 360 -12 L337 -48 Q380 -49 407 -72.5 Q434 -96 434 -134 Q434 -151 427 -168 Q420 -185 405 -198.5 Q390 -212 365.5 -220.5 Q341 -229 306 -229 Q264 -229 232.5 -212 Q201 -195 187 -177 L230 -123 Q241 -134 260 -147 Q279 -160 305 -160 Q323 -160 334.5 -153 Q346 -146 346 -132 Q346 -121 336 -112.5 Q326 -104 308 -104 Q302 -104 294 -105 Q286 -106 281 -108 L245 -63 Z " />
<glyph glyph-name="scedilla" unicode="&#x15f;" horiz-adv-x="471" d="M167 -63 L199 -12 Q155 -6 124.5 10.5 Q94 27 75 49 Q56 71 46.5 94.5 Q37 118 35 137 L149 162 Q151 133 173 110 Q195 87 239 87 Q272 87 288 101.5 Q304 116 304 136 Q304 153 292 165.5 Q280 178 251 184 L186 199 Q114 215 81 254.5 Q48 294 48 346 Q48 379 62 408.5 Q76 438 100.5 459.5 Q125 481 158.5 494 Q192 507 232 507 Q284 507 320 492.5 Q356 478 378.5 456 Q401 434 412 409.5 Q423 385 425 365 L314 340 Q312 351 307.5 362.5 Q303 374 293 384 Q283 394 268.5 400 Q254 406 233 406 Q207 406 188.5 392 Q170 378 170 357 Q170 339 182.5 328 Q195 317 215 313 L285 298 Q358 283 394.5 242 Q431 201 431 147 Q431 120 422 94.5 Q413 69 394 47 Q375 25 347 9.5 Q319 -6 282 -12 L259 -48 Q302 -49 329 -72.5 Q356 -96 356 -134 Q356 -151 349 -168 Q342 -185 327 -198.5 Q312 -212 287.5 -220.5 Q263 -229 228 -229 Q186 -229 154.5 -212 Q123 -195 109 -177 L152 -123 Q163 -134 182 -147 Q201 -160 227 -160 Q245 -160 256.5 -153 Q268 -146 268 -132 Q268 -121 258 -112.5 Q248 -104 230 -104 Q224 -104 216 -105 Q208 -106 203 -108 L167 -63 Z " />
<glyph glyph-name="Scaron" unicode="&#x160;" horiz-adv-x="611" d="M248 886 L314 822 L381 886 L502 886 L380 759 L244 759 L124 886 L248 886 Z M437 502 Q434 517 426.5 534.5 Q419 552 404 567 Q389 582 365.5 592 Q342 602 308 602 Q283 602 262.5 594.5 Q242 587 227.5 574.5 Q213 562 205 546 Q197 530 197 512 Q197 483 216 461.5 Q235 440 274 432 L373 413 Q421 404 458 384 Q495 364 520 336.5 Q545 309 558 275 Q571 241 571 204 Q571 163 554 123.5 Q537 84 504.5 53.5 Q472 23 424.5 4 Q377 -15 315 -15 Q244 -15 193 5.5 Q142 26 107.5 58 Q73 90 55 129.5 Q37 169 33 207 L161 241 Q163 215 173.5 191 Q184 167 203 148.5 Q222 130 250 119 Q278 108 316 108 Q372 108 401.5 132.5 Q431 157 431 195 Q431 226 409 248.5 Q387 271 345 279 L246 299 Q161 316 110.5 368.5 Q60 421 60 502 Q60 549 79.5 589.5 Q99 630 133 660 Q167 690 212 707 Q257 724 307 724 Q371 724 416.5 706.5 Q462 689 492 662 Q522 635 538.5 602.5 Q555 570 561 540 L437 502 Z " />
<glyph glyph-name="scaron" unicode="&#x161;" horiz-adv-x="471" d="M168 700 L238 625 L308 700 L413 700 L304 552 L171 552 L61 700 L168 700 Z M149 162 Q151 133 173 110 Q195 87 239 87 Q272 87 288 101.5 Q304 116 304 136 Q304 153 292 165.5 Q280 178 251 184 L186 199 Q114 215 81 254.5 Q48 294 48 346 Q48 379 62 408.5 Q76 438 100.5 459.5 Q125 481 158.5 494 Q192 507 232 507 Q284 507 320 492.5 Q356 478 378.5 456 Q401 434 412 409.5 Q423 385 425 365 L314 340 Q312 351 307.5 362.5 Q303 374 293 384 Q283 394 268.5 400 Q254 406 233 406 Q207 406 188.5 392 Q170 378 170 357 Q170 339 182.5 328 Q195 317 215 313 L285 298 Q358 283 394.5 242 Q431 201 431 147 Q431 117 419.5 88 Q408 59 384 36 Q360 13 324 -1 Q288 -15 240 -15 Q184 -15 146 1 Q108 17 84 40 Q60 63 48.5 89.5 Q37 116 35 137 L149 162 Z " />
<glyph glyph-name="Tcommaaccent" unicode="&#x162;" horiz-adv-x="619" d="M229 -63 L269 0 L240 0 L240 578 L16 578 L16 709 L603 709 L603 578 L379 578 L379 0 L351 0 L321 -48 Q364 -49 391 -72.5 Q418 -96 418 -134 Q418 -151 411 -168 Q404 -185 389 -198.5 Q374 -212 349.5 -220.5 Q325 -229 290 -229 Q248 -229 216.5 -212 Q185 -195 171 -177 L214 -123 Q225 -134 244 -147 Q263 -160 289 -160 Q307 -160 318.5 -153 Q330 -146 330 -132 Q330 -121 320 -112.5 Q310 -104 292 -104 Q286 -104 278.5 -105 Q271 -106 265 -108 L229 -63 Z " />
<glyph glyph-name="tcommaaccent" unicode="&#x163;" horiz-adv-x="379" d="M241 492 L340 492 L340 374 L241 374 L241 168 Q241 136 255.5 123.5 Q270 111 299 111 Q311 111 323 112 Q335 113 340 115 L340 5 Q331 1 312.5 -3 Q294 -7 265 -7 Q193 -7 151 33 Q109 73 109 145 L109 374 L20 374 L20 492 L45 492 Q84 492 102.5 514.5 Q121 537 121 570 L121 639 L241 639 L241 492 Z M151 -102 Q151 -75 171.5 -56.5 Q192 -38 224 -38 Q258 -38 281.5 -62 Q305 -86 305 -125 Q305 -164 291.5 -188.5 Q278 -213 257 -227 Q236 -241 211 -246.5 Q186 -252 164 -252 L164 -204 Q200 -204 221 -190.5 Q242 -177 245 -157 Q242 -159 234.5 -161.5 Q227 -164 216 -164 Q185 -164 168 -146.5 Q151 -129 151 -102 Z " />
<glyph glyph-name="Tcaron" unicode="&#x164;" horiz-adv-x="619" d="M244 886 L310 822 L377 886 L498 886 L376 759 L240 759 L120 886 L244 886 Z M379 578 L379 0 L240 0 L240 578 L16 578 L16 709 L603 709 L603 578 L379 578 Z " />
<glyph glyph-name="tcaron" unicode="&#x165;" horiz-adv-x="379" d="M382 556 L293 556 L322 754 L454 754 L382 556 Z M241 492 L340 492 L340 374 L241 374 L241 168 Q241 136 255.5 123.5 Q270 111 299 111 Q311 111 323 112 Q335 113 340 115 L340 5 Q331 1 312.5 -3 Q294 -7 265 -7 Q193 -7 151 33 Q109 73 109 145 L109 374 L20 374 L20 492 L45 492 Q84 492 102.5 514.5 Q121 537 121 570 L121 639 L241 639 L241 492 Z " />
<glyph glyph-name="Tbar" unicode="&#x166;" horiz-adv-x="619" d="M379 578 L379 372 L501 372 L501 269 L379 269 L379 0 L240 0 L240 269 L122 269 L122 372 L240 372 L240 578 L16 578 L16 709 L603 709 L603 578 L379 578 Z " />
<glyph glyph-name="tbar" unicode="&#x167;" horiz-adv-x="379" d="M241 492 L340 492 L340 374 L241 374 L241 293 L339 293 L339 197 L241 197 L241 168 Q241 136 255.5 123.5 Q270 111 299 111 Q311 111 323 112 Q335 113 340 115 L340 5 Q332 2 314.5 -2.5 Q297 -7 265 -7 Q193 -7 151 33 Q109 73 109 145 L109 197 L19 197 L19 293 L109 293 L109 374 L20 374 L20 492 L45 492 Q84 492 102.5 514.5 Q121 537 121 570 L121 639 L241 639 L241 492 Z " />
<glyph glyph-name="Utilde" unicode="&#x168;" horiz-adv-x="699" d="M349 -16 Q292 -16 242.5 1 Q193 18 156.5 52 Q120 86 98.5 136 Q77 186 77 251 L77 709 L215 709 L215 261 Q215 191 251 155 Q287 119 349 119 Q412 119 448 155 Q484 191 484 261 L484 709 L622 709 L622 251 Q622 186 600.5 136 Q579 86 542.5 52 Q506 18 456 1 Q406 -16 349 -16 Z M518 862 Q518 807 488.5 779.5 Q459 752 417 752 Q394 752 375.5 759 Q357 766 342 776 L336 780 Q322 788 310.5 794 Q299 800 288 800 Q259 800 259 757 L179 757 L179 784 Q179 839 209 866 Q239 893 280 893 Q303 893 321.5 886 Q340 879 356 870 L362 866 Q376 859 387 853 Q398 847 409 847 Q421 847 429.5 854 Q438 861 438 878 L438 890 L518 890 L518 862 Z " />
<glyph glyph-name="utilde" unicode="&#x169;" horiz-adv-x="580" d="M390 0 Q388 8 387 23 Q386 38 386 53 Q366 18 327.5 2.5 Q289 -13 250 -13 Q205 -13 170.5 2.5 Q136 18 112 44 Q88 70 75.5 105.5 Q63 141 63 181 L63 492 L196 492 L196 208 Q196 166 217.5 137.5 Q239 109 286 109 Q331 109 355 136 Q379 163 379 206 L379 492 L512 492 L512 89 Q512 60 513.5 36.5 Q515 13 517 0 L390 0 Z M464 678 Q464 615 434 585 Q404 555 357 555 Q336 555 318 561 Q300 567 286 577 L280 581 Q270 587 260.5 593 Q251 599 233 599 Q217 599 208 589 Q199 579 198 556 L116 556 L116 577 Q116 638 147.5 668 Q179 698 225 698 Q247 698 264 691 Q281 684 297 676 L303 672 Q316 664 327.5 658.5 Q339 653 351 653 Q384 653 384 696 L464 696 L464 678 Z " />
<glyph glyph-name="Umacron" unicode="&#x16a;" horiz-adv-x="699" d="M349 -16 Q292 -16 242.5 1 Q193 18 156.5 52 Q120 86 98.5 136 Q77 186 77 251 L77 709 L215 709 L215 261 Q215 191 251 155 Q287 119 349 119 Q412 119 448 155 Q484 191 484 261 L484 709 L622 709 L622 251 Q622 186 600.5 136 Q579 86 542.5 52 Q506 18 456 1 Q406 -16 349 -16 Z M197 774 L197 874 L502 874 L502 774 L197 774 Z " />
<glyph glyph-name="umacron" unicode="&#x16b;" horiz-adv-x="580" d="M390 0 Q388 8 387 23 Q386 38 386 53 Q366 18 327.5 2.5 Q289 -13 250 -13 Q205 -13 170.5 2.5 Q136 18 112 44 Q88 70 75.5 105.5 Q63 141 63 181 L63 492 L196 492 L196 208 Q196 166 217.5 137.5 Q239 109 286 109 Q331 109 355 136 Q379 163 379 206 L379 492 L512 492 L512 89 Q512 60 513.5 36.5 Q515 13 517 0 L390 0 Z M147 577 L147 674 L428 674 L428 577 L147 577 Z " />
<glyph glyph-name="Ubreve" unicode="&#x16c;" horiz-adv-x="699" d="M349 -16 Q292 -16 242.5 1 Q193 18 156.5 52 Q120 86 98.5 136 Q77 186 77 251 L77 709 L215 709 L215 261 Q215 191 251 155 Q287 119 349 119 Q412 119 448 155 Q484 191 484 261 L484 709 L622 709 L622 251 Q622 186 600.5 136 Q579 86 542.5 52 Q506 18 456 1 Q406 -16 349 -16 Z M350 753 Q309 753 279 765 Q249 777 228.5 796 Q208 815 198 839.5 Q188 864 187 888 L289 888 Q290 868 304.5 852.5 Q319 837 350 837 Q381 837 395.5 852.5 Q410 868 411 888 L513 888 Q512 864 502 839.5 Q492 815 471.5 796 Q451 777 421 765 Q391 753 350 753 Z " />
<glyph glyph-name="ubreve" unicode="&#x16d;" horiz-adv-x="580" d="M390 0 Q388 8 387 23 Q386 38 386 53 Q366 18 327.5 2.5 Q289 -13 250 -13 Q205 -13 170.5 2.5 Q136 18 112 44 Q88 70 75.5 105.5 Q63 141 63 181 L63 492 L196 492 L196 208 Q196 166 217.5 137.5 Q239 109 286 109 Q331 109 355 136 Q379 163 379 206 L379 492 L512 492 L512 89 Q512 60 513.5 36.5 Q515 13 517 0 L390 0 Z M286 549 Q247 549 217 561.5 Q187 574 167 595 Q147 616 136.5 643.5 Q126 671 125 700 L214 700 Q215 680 231.5 660.5 Q248 641 286 641 Q305 641 318 646.5 Q331 652 340 660.5 Q349 669 353 679.5 Q357 690 358 700 L447 700 Q446 671 436 643.5 Q426 616 405.5 595 Q385 574 355.5 561.5 Q326 549 286 549 Z " />
<glyph glyph-name="Uring" unicode="&#x16e;" horiz-adv-x="699" d="M349 -16 Q292 -16 242.5 1 Q193 18 156.5 52 Q120 86 98.5 136 Q77 186 77 251 L77 709 L215 709 L215 261 Q215 191 251 155 Q287 119 349 119 Q412 119 448 155 Q484 191 484 261 L484 709 L622 709 L622 251 Q622 186 600.5 136 Q579 86 542.5 52 Q506 18 456 1 Q406 -16 349 -16 Z M481 858 Q481 830 470.5 807 Q460 784 442 767 Q424 750 400 740.5 Q376 731 350 731 Q324 731 300.5 740.5 Q277 750 259 767 Q241 784 230 807 Q219 830 219 858 Q219 886 230 909 Q241 932 259 949 Q277 966 300.5 975.5 Q324 985 350 985 Q376 985 400 975.5 Q424 966 442 949 Q460 932 470.5 909 Q481 886 481 858 Z M397 858 Q397 880 383.5 892.5 Q370 905 350 905 Q330 905 316 892.5 Q302 880 302 858 Q302 836 316 823 Q330 810 350 810 Q370 810 383.5 823 Q397 836 397 858 Z " />
<glyph glyph-name="uring" unicode="&#x16f;" horiz-adv-x="580" d="M404 648 Q404 624 394.5 604 Q385 584 369.5 569 Q354 554 333 546 Q312 538 289 538 Q266 538 245 546 Q224 554 208.5 569 Q193 584 183.5 604 Q174 624 174 648 Q174 672 183.5 692.5 Q193 713 208.5 728 Q224 743 245 751.5 Q266 760 289 760 Q312 760 333 751.5 Q354 743 369.5 728 Q385 713 394.5 692.5 Q404 672 404 648 Z M329 648 Q329 667 317 678.5 Q305 690 288 690 Q271 690 259.5 678.5 Q248 667 248 648 Q248 630 259.5 618.5 Q271 607 288 607 Q305 607 317 618.5 Q329 630 329 648 Z M390 0 Q388 8 387 23 Q386 38 386 53 Q366 18 327.5 2.5 Q289 -13 250 -13 Q205 -13 170.5 2.5 Q136 18 112 44 Q88 70 75.5 105.5 Q63 141 63 181 L63 492 L196 492 L196 208 Q196 166 217.5 137.5 Q239 109 286 109 Q331 109 355 136 Q379 163 379 206 L379 492 L512 492 L512 89 Q512 60 513.5 36.5 Q515 13 517 0 L390 0 Z " />
<glyph glyph-name="Uhungarumlaut" unicode="&#x170;" horiz-adv-x="699" d="M303 759 L217 759 L270 886 L397 886 L303 759 Z M460 759 L372 759 L439 886 L568 886 L460 759 Z M349 -16 Q292 -16 242.5 1 Q193 18 156.5 52 Q120 86 98.5 136 Q77 186 77 251 L77 709 L215 709 L215 261 Q215 191 251 155 Q287 119 349 119 Q412 119 448 155 Q484 191 484 261 L484 709 L622 709 L622 251 Q622 186 600.5 136 Q579 86 542.5 52 Q506 18 456 1 Q406 -16 349 -16 Z " />
<glyph glyph-name="uhungarumlaut" unicode="&#x171;" horiz-adv-x="580" d="M390 0 Q388 8 387 23 Q386 38 386 53 Q366 18 327.5 2.5 Q289 -13 250 -13 Q205 -13 170.5 2.5 Q136 18 112 44 Q88 70 75.5 105.5 Q63 141 63 181 L63 492 L196 492 L196 208 Q196 166 217.5 137.5 Q239 109 286 109 Q331 109 355 136 Q379 163 379 206 L379 492 L512 492 L512 89 Q512 60 513.5 36.5 Q515 13 517 0 L390 0 Z M235 551 L151 551 L203 701 L332 701 L235 551 Z M387 551 L302 551 L368 701 L499 701 L387 551 Z " />
<glyph glyph-name="Uogonek" unicode="&#x172;" horiz-adv-x="699" d="M400 -223 Q346 -223 311.5 -194 Q277 -165 277 -116 Q277 -81 291.5 -56.5 Q306 -32 327 -15 Q274 -12 228.5 6.5 Q183 25 149 58.5 Q115 92 96 140.5 Q77 189 77 251 L77 709 L215 709 L215 261 Q215 191 251 155 Q287 119 349 119 Q412 119 448 155 Q484 191 484 261 L484 709 L622 709 L622 251 Q622 201 609.5 160.5 Q597 120 574.5 88.5 Q552 57 520.5 35 Q489 13 452 0 Q438 -5 423.5 -13.5 Q409 -22 398 -33.5 Q387 -45 380 -59.5 Q373 -74 373 -91 Q373 -115 387 -127 Q401 -139 422 -139 Q433 -139 439 -138.5 Q445 -138 452 -136 L452 -215 Q442 -219 429.5 -221 Q417 -223 400 -223 Z " />
<glyph glyph-name="uogonek" unicode="&#x173;" horiz-adv-x="580" d="M465 -223 Q411 -223 376.5 -194 Q342 -165 342 -116 Q342 -71 364 -44 Q386 -17 414 0 L390 0 Q388 8 387 23 Q386 38 386 53 Q366 18 327.5 2.5 Q289 -13 250 -13 Q205 -13 170.5 2.5 Q136 18 112 44 Q88 70 75.5 105.5 Q63 141 63 181 L63 492 L196 492 L196 208 Q196 166 217.5 137.5 Q239 109 286 109 Q331 109 355 136 Q379 163 379 206 L379 492 L512 492 L512 89 Q512 60 513.5 36.5 Q515 13 517 0 Q503 -7 488.5 -16.5 Q474 -26 463 -38 Q452 -50 445 -64 Q438 -78 438 -94 Q438 -117 452.5 -128 Q467 -139 487 -139 Q497 -139 503 -138.5 Q509 -138 517 -136 L517 -215 Q507 -219 494.5 -221 Q482 -223 465 -223 Z " />
<glyph glyph-name="Wcircumflex" unicode="&#x174;" horiz-adv-x="1040" d="M331 759 L451 886 L587 886 L709 759 L584 759 L517 824 L452 759 L331 759 Z M880 709 L1021 709 L825 0 L683 0 L521 505 L359 0 L215 0 L18 709 L164 709 L294 221 L451 709 L594 709 L752 219 L880 709 Z " />
<glyph glyph-name="wcircumflex" unicode="&#x175;" horiz-adv-x="839" d="M245 552 L355 699 L487 699 L597 552 L490 552 L419 627 L349 552 L245 552 Z M493 492 L599 175 L690 492 L822 492 L668 0 L535 0 L420 336 L307 0 L172 0 L15 492 L155 492 L246 176 L353 492 L493 492 Z " />
<glyph glyph-name="Ycircumflex" unicode="&#x176;" horiz-adv-x="659" d="M13 709 L175 709 L334 428 L493 709 L648 709 L398 298 L398 0 L260 0 L260 298 L13 709 Z M141 759 L261 886 L397 886 L519 759 L394 759 L327 824 L262 759 L141 759 Z " />
<glyph glyph-name="ycircumflex" unicode="&#x177;" horiz-adv-x="563" d="M105 -194 L221 62 L12 492 L161 492 L292 204 L413 492 L555 492 L246 -194 L105 -194 Z M109 552 L219 699 L351 699 L461 552 L354 552 L283 627 L213 552 L109 552 Z " />
<glyph glyph-name="Ydieresis" unicode="&#x178;" horiz-adv-x="659" d="M142 823 Q142 853 162.5 874 Q183 895 214 895 Q245 895 266 874 Q287 853 287 823 Q287 792 266 771.5 Q245 751 214 751 Q183 751 162.5 771.5 Q142 792 142 823 Z M379 823 Q379 853 399.5 874 Q420 895 451 895 Q481 895 502 874 Q523 853 523 823 Q523 792 502 771.5 Q481 751 451 751 Q420 751 399.5 771.5 Q379 792 379 823 Z M13 709 L175 709 L334 428 L493 709 L648 709 L398 298 L398 0 L260 0 L260 298 L13 709 Z " />
<glyph glyph-name="Zacute" unicode="&#x179;" horiz-adv-x="643" d="M352 759 L230 759 L333 886 L497 886 L352 759 Z M41 0 L41 134 L410 578 L54 578 L54 709 L594 709 L594 580 L219 132 L599 132 L599 0 L41 0 Z " />
<glyph glyph-name="zacute" unicode="&#x17a;" horiz-adv-x="496" d="M274 551 L167 551 L258 701 L410 701 L274 551 Z M44 0 L44 117 L277 377 L50 377 L50 492 L447 492 L447 381 L207 116 L451 116 L451 0 L44 0 Z " />
<glyph glyph-name="Zdotaccent" unicode="&#x17b;" horiz-adv-x="643" d="M41 0 L41 134 L410 578 L54 578 L54 709 L594 709 L594 580 L219 132 L599 132 L599 0 L41 0 Z M247 833 Q247 867 270.5 890 Q294 913 327 913 Q361 913 384.5 890 Q408 867 408 833 Q408 800 384.5 777 Q361 754 327 754 Q294 754 270.5 777 Q247 800 247 833 Z " />
<glyph glyph-name="zdotaccent" unicode="&#x17c;" horiz-adv-x="496" d="M44 0 L44 117 L277 377 L50 377 L50 492 L447 492 L447 381 L207 116 L451 116 L451 0 L44 0 Z M169 627 Q169 661 192.5 683.5 Q216 706 249 706 Q282 706 305.5 683.5 Q329 661 329 627 Q329 594 305.5 571.5 Q282 549 249 549 Q216 549 192.5 571.5 Q169 594 169 627 Z " />
<glyph glyph-name="Zcaron" unicode="&#x17d;" horiz-adv-x="643" d="M263 886 L329 822 L396 886 L517 886 L395 759 L259 759 L139 886 L263 886 Z M41 0 L41 134 L410 578 L54 578 L54 709 L594 709 L594 580 L219 132 L599 132 L599 0 L41 0 Z " />
<glyph glyph-name="zcaron" unicode="&#x17e;" horiz-adv-x="496" d="M182 700 L252 625 L322 700 L427 700 L318 552 L185 552 L75 700 L182 700 Z M44 0 L44 117 L277 377 L50 377 L50 492 L447 492 L447 381 L207 116 L451 116 L451 0 L44 0 Z " />
<glyph glyph-name="uni018F" unicode="&#x18f;" horiz-adv-x="787" d="M386 725 Q461 725 526.5 700.5 Q592 676 640.5 628.5 Q689 581 717 511 Q745 441 745 350 Q745 265 716.5 197 Q688 129 639 82 Q590 35 525.5 9.5 Q461 -16 388 -16 Q319 -16 255.5 7.5 Q192 31 142.5 78 Q93 125 63.5 194 Q34 263 34 355 Q34 360 34 365 Q34 370 35 380 L603 380 Q601 436 581.5 476.5 Q562 517 531.5 543 Q501 569 462 581.5 Q423 594 383 594 Q338 594 302 580.5 Q266 567 239 545.5 Q212 524 194.5 498 Q177 472 170 447 L42 493 Q54 536 83.5 578 Q113 620 157 652.5 Q201 685 258.5 705 Q316 725 386 725 Z M192 266 Q206 193 259 152.5 Q312 112 390 112 Q465 112 520 151.5 Q575 191 589 266 L192 266 Z " />
<glyph glyph-name="florin" unicode="&#x192;" horiz-adv-x="532" d="M192 379 L94 379 L94 491 L215 491 L234 583 Q242 625 261 654.5 Q280 684 305.5 703 Q331 722 361 731 Q391 740 421 740 Q438 740 450 739 Q462 738 472 736.5 Q482 735 490.5 732.5 Q499 730 510 727 L510 612 Q496 615 481 617 Q466 619 448 619 Q438 619 425.5 616.5 Q413 614 401 606 Q389 598 379 583.5 Q369 569 364 544 L353 491 L470 491 L470 379 L330 379 L251 -13 Q243 -54 224 -84 Q205 -114 179.5 -133 Q154 -152 124 -161 Q94 -170 64 -170 Q29 -170 10.5 -166.5 Q-8 -163 -28 -156 L-28 -42 Q-14 -45 2 -47 Q18 -49 37 -49 Q47 -49 59.5 -46.5 Q72 -44 84 -36 Q96 -28 106 -13 Q116 2 121 27 L192 379 Z " />
<glyph glyph-name="uni01B5" unicode="&#x1b5;" horiz-adv-x="643" d="M41 0 L41 134 L186 309 L67 309 L67 422 L280 422 L410 578 L54 578 L54 709 L594 709 L594 580 L461 422 L576 422 L576 309 L367 309 L219 132 L599 132 L599 0 L41 0 Z " />
<glyph glyph-name="uni01B6" unicode="&#x1b6;" horiz-adv-x="496" d="M44 0 L44 99 L132 201 L52 201 L52 296 L214 296 L286 380 L50 380 L50 492 L447 492 L447 390 L366 296 L444 296 L444 201 L284 201 L208 113 L451 113 L451 0 L44 0 Z " />
<glyph glyph-name="Aringacute" unicode="&#x1fa;" horiz-adv-x="721" d="M260 288 L456 288 L358 556 L260 288 Z M417 912 L295 912 L398 1039 L562 1039 L417 912 Z M405 757 Q405 779 391.5 791.5 Q378 804 358 804 Q338 804 324 791.5 Q310 779 310 757 Q310 735 324 722 Q338 709 358 709 Q378 709 391.5 722 Q405 735 405 757 Z M489 757 Q489 731 480 709.5 Q471 688 455 671 L711 0 L561 0 L502 162 L214 162 L155 0 L9 0 L265 667 Q248 684 237.5 707 Q227 730 227 757 Q227 785 238 808 Q249 831 267 848 Q285 865 308.5 874.5 Q332 884 358 884 Q384 884 408 874.5 Q432 865 450 848 Q468 831 478.5 808 Q489 785 489 757 Z " />
<glyph glyph-name="aringacute" unicode="&#x1fb;" horiz-adv-x="538" d="M39 134 Q39 167 50.5 192.5 Q62 218 82 237 Q102 256 128.5 267 Q155 278 186 283 L307 301 Q328 304 336 313.5 Q344 323 344 336 Q344 362 323.5 381 Q303 400 261 400 Q217 400 193.5 376 Q170 352 167 320 L49 345 Q52 374 67 403 Q82 432 108 455 Q134 478 172 492.5 Q210 507 260 507 Q318 507 359 491.5 Q400 476 425.5 450.5 Q451 425 462.5 391 Q474 357 474 320 L474 78 Q474 58 476 35.5 Q478 13 480 0 L358 0 Q356 10 354.5 27.5 Q353 45 353 59 Q334 30 298.5 8 Q263 -14 208 -14 Q169 -14 137.5 -1.5 Q106 11 84 31.5 Q62 52 50.5 78.5 Q39 105 39 134 Z M236 85 Q257 85 276.5 90.5 Q296 96 311 109.5 Q326 123 335 144.5 Q344 166 344 199 L344 221 L233 204 Q207 200 189.5 185.5 Q172 171 172 142 Q172 120 188 102.5 Q204 85 236 85 Z M313 785 L206 785 L297 935 L449 935 L313 785 Z M379 644 Q379 620 369.5 600 Q360 580 344.5 565 Q329 550 308 542 Q287 534 264 534 Q241 534 220 542 Q199 550 183.5 565 Q168 580 158.5 600 Q149 620 149 644 Q149 668 158.5 688.5 Q168 709 183.5 724 Q199 739 220 747.5 Q241 756 264 756 Q287 756 308 747.5 Q329 739 344.5 724 Q360 709 369.5 688.5 Q379 668 379 644 Z M304 644 Q304 663 292 674.5 Q280 686 263 686 Q246 686 234.5 674.5 Q223 663 223 644 Q223 626 234.5 614.5 Q246 603 263 603 Q280 603 292 614.5 Q304 626 304 644 Z " />
<glyph glyph-name="AEacute" unicode="&#x1fc;" horiz-adv-x="1039" d="M610 759 L488 759 L591 886 L755 886 L610 759 Z M543 0 L543 167 L269 167 L162 0 L-7 0 L463 709 L987 709 L987 579 L682 579 L682 417 L958 417 L958 294 L682 294 L682 130 L988 130 L988 0 L543 0 Z M543 283 L543 595 L343 283 L543 283 Z " />
<glyph glyph-name="aeacute" unicode="&#x1fd;" horiz-adv-x="870" d="M475 551 L368 551 L459 701 L611 701 L475 551 Z M824 141 Q815 109 795 80.5 Q775 52 746 31 Q717 10 680 -2.5 Q643 -15 598 -15 Q541 -15 491.5 7.5 Q442 30 407 73 Q371 25 323 5 Q275 -15 220 -15 Q176 -15 142 -2.5 Q108 10 85 30.5 Q62 51 50 78 Q38 105 38 134 Q38 167 49.5 192.5 Q61 218 81 237 Q101 256 127.5 267 Q154 278 185 283 L311 301 Q333 304 340.5 314 Q348 324 348 336 Q348 362 327 381.5 Q306 401 262 401 Q217 401 192 377 Q167 353 164 321 L48 345 Q51 375 66.5 404 Q82 433 109.5 456 Q137 479 176 493 Q215 507 263 507 Q324 507 365 489.5 Q406 472 430 443 Q463 474 504.5 490.5 Q546 507 592 507 Q705 507 768 439 Q831 371 831 252 Q831 238 830 225.5 Q829 213 828 211 L475 211 Q476 185 486.5 164.5 Q497 144 513.5 129 Q530 114 552 106 Q574 98 599 98 Q647 98 674 120 Q701 142 712 176 L824 141 Z M239 85 Q258 85 277.5 90.5 Q297 96 313 109 Q329 122 338.5 144 Q348 166 348 198 L348 221 L232 204 Q206 200 187.5 185.5 Q169 171 169 142 Q169 121 186.5 103 Q204 85 239 85 Z M700 302 Q699 320 692.5 337.5 Q686 355 672.5 368.5 Q659 382 638 390.5 Q617 399 588 399 Q562 399 542 390 Q522 381 508 367 Q494 353 486.5 336 Q479 319 478 302 L700 302 Z " />
<glyph glyph-name="Oslashacute" unicode="&#x1fe;" horiz-adv-x="811" d="M41 354 Q41 440 71 508.5 Q101 577 151 625 Q201 673 267 698.5 Q333 724 405 724 Q503 724 586 678 L656 768 L744 702 L674 611 Q719 563 744.5 498.5 Q770 434 770 354 Q770 268 740 200 Q710 132 660 84 Q610 36 543.5 10.5 Q477 -15 405 -15 Q356 -15 310.5 -3.5 Q265 8 224 30 L156 -58 L66 7 L137 98 Q92 146 66.5 210 Q41 274 41 354 Z M184 355 Q184 310 194.5 274 Q205 238 224 211 L502 570 Q457 591 405 591 Q364 591 324.5 576.5 Q285 562 253.5 533 Q222 504 203 459.5 Q184 415 184 355 Z M627 355 Q627 400 616.5 436 Q606 472 587 499 L309 140 Q354 119 405 119 Q446 119 486 133.5 Q526 148 557.5 177 Q589 206 608 250.5 Q627 295 627 355 Z M461 759 L339 759 L442 886 L606 886 L461 759 Z " />
<glyph glyph-name="oslashacute" unicode="&#x1ff;" horiz-adv-x="592" d="M342 551 L235 551 L326 701 L478 701 L342 551 Z M296 507 Q369 507 428 473 L481 538 L545 484 L493 419 Q522 385 538 341 Q554 297 554 246 Q554 189 534.5 141.5 Q515 94 480.5 59 Q446 24 398.5 4.5 Q351 -15 296 -15 Q261 -15 228.5 -6.5 Q196 2 168 16 L118 -46 L52 8 L102 69 Q72 104 55 148.5 Q38 193 38 246 Q38 303 57.5 351 Q77 399 111.5 433.5 Q146 468 193.5 487.5 Q241 507 296 507 Z M171 246 Q171 204 186 174 L349 375 Q322 386 296 386 Q272 386 249 377 Q226 368 209 350.5 Q192 333 181.5 307 Q171 281 171 246 Z M296 106 Q320 106 343 115 Q366 124 383 141.5 Q400 159 410.5 185 Q421 211 421 246 Q421 283 408 314 L248 115 Q270 106 296 106 Z " />
<glyph glyph-name="Scommaaccent" unicode="&#x218;" horiz-adv-x="611" d="M437 502 Q434 517 426.5 534.5 Q419 552 404 567 Q389 582 365.5 592 Q342 602 308 602 Q283 602 262.5 594.5 Q242 587 227.5 574.5 Q213 562 205 546 Q197 530 197 512 Q197 483 216 461.5 Q235 440 274 432 L373 413 Q421 404 458 384 Q495 364 520 336.5 Q545 309 558 275 Q571 241 571 204 Q571 163 554 123.5 Q537 84 504.5 53.5 Q472 23 424.5 4 Q377 -15 315 -15 Q244 -15 193 5.5 Q142 26 107.5 58 Q73 90 55 129.5 Q37 169 33 207 L161 241 Q163 215 173.5 191 Q184 167 203 148.5 Q222 130 250 119 Q278 108 316 108 Q372 108 401.5 132.5 Q431 157 431 195 Q431 226 409 248.5 Q387 271 345 279 L246 299 Q161 316 110.5 368.5 Q60 421 60 502 Q60 549 79.5 589.5 Q99 630 133 660 Q167 690 212 707 Q257 724 307 724 Q371 724 416.5 706.5 Q462 689 492 662 Q522 635 538.5 602.5 Q555 570 561 540 L437 502 Z M242 -102 Q242 -75 262.5 -56.5 Q283 -38 315 -38 Q349 -38 372.5 -62 Q396 -86 396 -125 Q396 -164 382.5 -188.5 Q369 -213 348 -227 Q327 -241 302 -246.5 Q277 -252 255 -252 L255 -204 Q291 -204 312 -190.5 Q333 -177 336 -157 Q333 -159 325.5 -161.5 Q318 -164 307 -164 Q276 -164 259 -146.5 Q242 -129 242 -102 Z " />
<glyph glyph-name="scommaaccent" unicode="&#x219;" horiz-adv-x="471" d="M149 162 Q151 133 173 110 Q195 87 239 87 Q272 87 288 101.5 Q304 116 304 136 Q304 153 292 165.5 Q280 178 251 184 L186 199 Q114 215 81 254.5 Q48 294 48 346 Q48 379 62 408.5 Q76 438 100.5 459.5 Q125 481 158.5 494 Q192 507 232 507 Q284 507 320 492.5 Q356 478 378.5 456 Q401 434 412 409.5 Q423 385 425 365 L314 340 Q312 351 307.5 362.5 Q303 374 293 384 Q283 394 268.5 400 Q254 406 233 406 Q207 406 188.5 392 Q170 378 170 357 Q170 339 182.5 328 Q195 317 215 313 L285 298 Q358 283 394.5 242 Q431 201 431 147 Q431 117 419.5 88 Q408 59 384 36 Q360 13 324 -1 Q288 -15 240 -15 Q184 -15 146 1 Q108 17 84 40 Q60 63 48.5 89.5 Q37 116 35 137 L149 162 Z M163 -104 Q163 -77 183.5 -58.5 Q204 -40 236 -40 Q270 -40 293.5 -64 Q317 -88 317 -127 Q317 -166 303.5 -190.5 Q290 -215 269 -229 Q248 -243 223 -248.5 Q198 -254 176 -254 L176 -206 Q212 -206 233 -192.5 Q254 -179 257 -159 Q254 -161 246.5 -163.5 Q239 -166 228 -166 Q197 -166 180 -148.5 Q163 -131 163 -104 Z " />
<glyph glyph-name="uni021A" unicode="&#x21a;" horiz-adv-x="619" d="M379 578 L379 0 L240 0 L240 578 L16 578 L16 709 L603 709 L603 578 L379 578 Z M233 -102 Q233 -75 253.5 -56.5 Q274 -38 306 -38 Q340 -38 363.5 -62 Q387 -86 387 -125 Q387 -164 373.5 -188.5 Q360 -213 339 -227 Q318 -241 293 -246.5 Q268 -252 246 -252 L246 -204 Q282 -204 303 -190.5 Q324 -177 327 -157 Q324 -159 316.5 -161.5 Q309 -164 298 -164 Q267 -164 250 -146.5 Q233 -129 233 -102 Z " />
<glyph glyph-name="uni021B" unicode="&#x21b;" horiz-adv-x="379" d="M143 -63 L188 8 Q150 25 129.5 60 Q109 95 109 145 L109 374 L20 374 L20 492 L45 492 Q84 492 102.5 514.5 Q121 537 121 570 L121 639 L241 639 L241 492 L340 492 L340 374 L241 374 L241 168 Q241 136 255.5 123.5 Q270 111 299 111 Q311 111 323 112 Q335 113 340 115 L340 5 Q331 1 312.5 -3 Q294 -7 265 -7 L261 -7 L235 -48 Q278 -49 305 -72.5 Q332 -96 332 -134 Q332 -151 325 -168 Q318 -185 303 -198.5 Q288 -212 263.5 -220.5 Q239 -229 204 -229 Q162 -229 130.5 -212 Q99 -195 85 -177 L128 -123 Q139 -134 158 -147 Q177 -160 203 -160 Q221 -160 232.5 -153 Q244 -146 244 -132 Q244 -121 234 -112.5 Q224 -104 206 -104 Q200 -104 192.5 -105 Q185 -106 179 -108 L143 -63 Z " />
<glyph glyph-name="dotlessj" unicode="&#x237;" horiz-adv-x="269" d="M68 492 L201 492 L201 -43 Q201 -79 190.5 -108.5 Q180 -138 160 -159.5 Q140 -181 111.5 -193 Q83 -205 47 -205 Q15 -205 -4 -200.5 Q-23 -196 -28 -194 L-28 -83 Q-22 -85 -12 -86.5 Q-2 -88 13 -88 Q43 -88 55.5 -72.5 Q68 -57 68 -30 L68 492 Z " />
<glyph glyph-name="uni0259" unicode="&#x259;" horiz-adv-x="565" d="M168 189 Q169 170 176 152.5 Q183 135 197.5 121.5 Q212 108 233 99.5 Q254 91 283 91 Q309 91 329.5 99.5 Q350 108 364 122 Q378 136 385.5 153.5 Q393 171 395 189 L168 189 Z M44 354 Q54 384 75 411.5 Q96 439 125.5 460 Q155 481 193.5 494 Q232 507 278 507 Q334 507 379.5 488.5 Q425 470 457.5 435.5 Q490 401 508 352.5 Q526 304 526 244 Q526 185 506.5 137 Q487 89 454 55 Q421 21 377 2.5 Q333 -16 284 -16 Q228 -16 182.5 2 Q137 20 105 53 Q73 86 55 133 Q37 180 37 238 Q37 249 38 262 Q39 275 40 277 L398 277 Q395 330 362.5 362.5 Q330 395 276 395 Q229 395 197.5 372 Q166 349 153 315 L44 354 Z " />
<glyph glyph-name="circumflex" unicode="&#x2c6;" horiz-adv-x="404" d="M26 552 L136 699 L268 699 L378 552 L271 552 L200 627 L130 552 L26 552 Z " />
<glyph glyph-name="caron" unicode="&#x2c7;" horiz-adv-x="404" d="M133 700 L203 625 L273 700 L378 700 L269 552 L136 552 L26 700 L133 700 Z " />
<glyph glyph-name="uni02C9" unicode="&#x2c9;" horiz-adv-x="335" d="M27 577 L27 674 L308 674 L308 577 L27 577 Z " />
<glyph glyph-name="breve" unicode="&#x2d8;" horiz-adv-x="374" d="M187 549 Q148 549 118 561.5 Q88 574 68 595 Q48 616 37.5 643.5 Q27 671 26 700 L115 700 Q116 680 132.5 660.5 Q149 641 187 641 Q206 641 219 646.5 Q232 652 241 660.5 Q250 669 254 679.5 Q258 690 259 700 L348 700 Q347 671 337 643.5 Q327 616 306.5 595 Q286 574 256.5 561.5 Q227 549 187 549 Z " />
<glyph glyph-name="dotaccent" unicode="&#x2d9;" horiz-adv-x="192" d="M16 627 Q16 661 39.5 683.5 Q63 706 96 706 Q129 706 152.5 683.5 Q176 661 176 627 Q176 594 152.5 571.5 Q129 549 96 549 Q63 549 39.5 571.5 Q16 594 16 627 Z " />
<glyph glyph-name="ring" unicode="&#x2da;" horiz-adv-x="282" d="M256 648 Q256 624 246.5 604 Q237 584 221.5 569 Q206 554 185 546 Q164 538 141 538 Q118 538 97 546 Q76 554 60.5 569 Q45 584 35.5 604 Q26 624 26 648 Q26 672 35.5 692.5 Q45 713 60.5 728 Q76 743 97 751.5 Q118 760 141 760 Q164 760 185 751.5 Q206 743 221.5 728 Q237 713 246.5 692.5 Q256 672 256 648 Z M181 648 Q181 667 169 678.5 Q157 690 140 690 Q123 690 111.5 678.5 Q100 667 100 648 Q100 630 111.5 618.5 Q123 607 140 607 Q157 607 169 618.5 Q181 630 181 648 Z " />
<glyph glyph-name="ogonek" unicode="&#x2db;" horiz-adv-x="224" d="M146 -223 Q92 -223 57.5 -194 Q23 -165 23 -116 Q23 -88 33 -66.5 Q43 -45 58 -29.5 Q73 -14 91 -3 Q109 8 126 16 L198 0 Q184 -7 169.5 -16.5 Q155 -26 144 -38 Q133 -50 126 -64 Q119 -78 119 -94 Q119 -117 133 -128 Q147 -139 170 -139 Q186 -139 198 -136 L198 -215 Q188 -219 175.5 -221 Q163 -223 146 -223 Z " />
<glyph glyph-name="tilde" unicode="&#x2dc;" horiz-adv-x="391" d="M369 678 Q369 615 339 585 Q309 555 262 555 Q241 555 223 561 Q205 567 191 577 L185 581 Q175 587 165.5 593 Q156 599 138 599 Q122 599 113 589 Q104 579 103 556 L21 556 L21 577 Q21 638 52.5 668 Q84 698 130 698 Q152 698 169 691 Q186 684 202 676 L208 672 Q221 664 232.5 658.5 Q244 653 256 653 Q289 653 289 696 L369 696 L369 678 Z " />
<glyph glyph-name="hungarumlaut" unicode="&#x2dd;" horiz-adv-x="396" d="M108 551 L24 551 L76 701 L205 701 L108 551 Z M260 551 L175 551 L241 701 L372 701 L260 551 Z " />
<glyph glyph-name="uni0394" unicode="&#x394;" horiz-adv-x="743" d="M296 709 L446 709 L717 0 L26 0 L296 709 Z M217 128 L526 128 L371 559 L217 128 Z " />
<glyph glyph-name="uni03A9" unicode="&#x3a9;" horiz-adv-x="795" d="M398 594 Q359 594 322.5 581 Q286 568 257.5 542.5 Q229 517 212 479.5 Q195 442 195 393 Q195 351 209 316 Q223 281 246 255 Q269 229 299 212.5 Q329 196 361 189 L361 0 L59 0 L59 126 L238 126 Q201 141 167.5 166 Q134 191 108.5 226.5 Q83 262 67.5 306 Q52 350 52 402 Q52 476 80.5 535.5 Q109 595 156.5 637 Q204 679 266.5 701.5 Q329 724 398 724 Q467 724 529.5 701.5 Q592 679 639.5 637 Q687 595 715.5 535.5 Q744 476 744 402 Q744 350 728.5 306 Q713 262 687 226.5 Q661 191 627.5 166 Q594 141 557 126 L736 126 L736 0 L434 0 L434 189 Q466 196 496 212.5 Q526 229 549.5 255 Q573 281 587 316 Q601 351 601 393 Q601 442 584 479.5 Q567 517 538.5 542.5 Q510 568 473.5 581 Q437 594 398 594 Z " />
<glyph glyph-name="uni03BC" unicode="&#x3bc;" horiz-adv-x="574" d="M389 0 Q387 8 386 23 Q385 38 385 53 Q365 18 326.5 2.5 Q288 -13 249 -13 Q217 -13 195 -6 L195 -190 L62 -190 L62 492 L195 492 L195 208 Q195 166 216.5 137.5 Q238 109 285 109 Q330 109 354 136 Q378 163 378 206 L378 492 L511 492 L511 89 Q511 60 512.5 37 Q514 14 516 0 L389 0 Z " />
<glyph glyph-name="pi" unicode="&#x3c0;" horiz-adv-x="639" d="M592 5 Q589 3 571 -2.5 Q553 -8 522 -8 Q450 -8 415 32 Q380 72 380 135 L380 378 L247 378 L247 0 L114 0 L114 378 L31 378 L31 492 L590 492 L590 378 L512 378 L512 153 Q512 126 527 116 Q542 106 561 106 Q573 106 578.5 107 Q584 108 592 109 L592 5 Z " />
<glyph glyph-name="Wgrave" unicode="&#x1e80;" horiz-adv-x="1040" d="M323 886 L486 886 L590 759 L468 759 L323 886 Z M880 709 L1021 709 L825 0 L683 0 L521 505 L359 0 L215 0 L18 709 L164 709 L294 221 L451 709 L594 709 L752 219 L880 709 Z " />
<glyph glyph-name="wgrave" unicode="&#x1e81;" horiz-adv-x="839" d="M493 492 L599 175 L690 492 L822 492 L668 0 L535 0 L420 336 L307 0 L172 0 L15 492 L155 492 L246 176 L353 492 L493 492 Z M233 701 L387 701 L477 551 L369 551 L233 701 Z " />
<glyph glyph-name="Wacute" unicode="&#x1e82;" horiz-adv-x="1040" d="M580 759 L458 759 L561 886 L725 886 L580 759 Z M880 709 L1021 709 L825 0 L683 0 L521 505 L359 0 L215 0 L18 709 L164 709 L294 221 L451 709 L594 709 L752 219 L880 709 Z " />
<glyph glyph-name="wacute" unicode="&#x1e83;" horiz-adv-x="839" d="M470 551 L363 551 L454 701 L606 701 L470 551 Z M493 492 L599 175 L690 492 L822 492 L668 0 L535 0 L420 336 L307 0 L172 0 L15 492 L155 492 L246 176 L353 492 L493 492 Z " />
<glyph glyph-name="Wdieresis" unicode="&#x1e84;" horiz-adv-x="1040" d="M308 823 Q308 853 328.5 874 Q349 895 380 895 Q411 895 432 874 Q453 853 453 823 Q453 792 432 771.5 Q411 751 380 751 Q349 751 328.5 771.5 Q308 792 308 823 Z M591 823 Q591 853 611.5 874 Q632 895 662 895 Q693 895 714 874 Q735 853 735 823 Q735 792 714 771.5 Q693 751 662 751 Q632 751 611.5 771.5 Q591 792 591 823 Z M880 709 L1021 709 L825 0 L683 0 L521 505 L359 0 L215 0 L18 709 L164 709 L294 221 L451 709 L594 709 L752 219 L880 709 Z " />
<glyph glyph-name="wdieresis" unicode="&#x1e85;" horiz-adv-x="839" d="M237 628 Q237 657 257 678 Q277 699 307 699 Q336 699 357 678 Q378 657 378 628 Q378 599 357 578.5 Q336 558 307 558 Q277 558 257 578.5 Q237 599 237 628 Z M463 628 Q463 657 483 678 Q503 699 533 699 Q562 699 582.5 678 Q603 657 603 628 Q603 599 582.5 578.5 Q562 558 533 558 Q503 558 483 578.5 Q463 599 463 628 Z M493 492 L599 175 L690 492 L822 492 L668 0 L535 0 L420 336 L307 0 L172 0 L15 492 L155 492 L246 176 L353 492 L493 492 Z " />
<glyph glyph-name="uni1E8A" unicode="&#x1e8a;" horiz-adv-x="650" d="M410 354 L643 0 L476 0 L323 245 L169 0 L7 0 L240 355 L8 709 L174 709 L326 464 L481 709 L642 709 L410 354 Z M245 833 Q245 867 268.5 890 Q292 913 325 913 Q359 913 382.5 890 Q406 867 406 833 Q406 800 382.5 777 Q359 754 325 754 Q292 754 268.5 777 Q245 800 245 833 Z " />
<glyph glyph-name="uni1E8B" unicode="&#x1e8b;" horiz-adv-x="535" d="M189 247 L14 492 L172 492 Q178 482 192 461.5 Q206 441 221 419 Q236 397 250 376.5 Q264 356 270 346 L367 492 L518 492 L346 251 L524 0 L368 0 L265 151 Q258 141 244 120 Q230 99 214 75.5 Q198 52 184 31 Q170 10 164 0 L14 0 L189 247 Z M188 627 Q188 661 211.5 683.5 Q235 706 268 706 Q301 706 324.5 683.5 Q348 661 348 627 Q348 594 324.5 571.5 Q301 549 268 549 Q235 549 211.5 571.5 Q188 594 188 627 Z " />
<glyph glyph-name="Ygrave" unicode="&#x1ef2;" horiz-adv-x="659" d="M13 709 L175 709 L334 428 L493 709 L648 709 L398 298 L398 0 L260 0 L260 298 L13 709 Z M142 886 L305 886 L409 759 L287 759 L142 886 Z " />
<glyph glyph-name="ygrave" unicode="&#x1ef3;" horiz-adv-x="563" d="M105 -194 L221 62 L12 492 L161 492 L292 204 L413 492 L555 492 L246 -194 L105 -194 Z M109 701 L263 701 L353 551 L245 551 L109 701 Z " />
<glyph glyph-name="uni2007" unicode="&#x2007;" horiz-adv-x="631" d="" />
<glyph glyph-name="uni2008" unicode="&#x2008;" horiz-adv-x="275" d="" />
<glyph glyph-name="uni200B" unicode="&#x200b;" d="" />
<glyph glyph-name="endash" unicode="&#x2013;" horiz-adv-x="642" d="M63 239 L63 354 L579 354 L579 239 L63 239 Z " />
<glyph glyph-name="emdash" unicode="&#x2014;" horiz-adv-x="1066" d="M63 239 L63 354 L1003 354 L1003 239 L63 239 Z " />
<glyph glyph-name="quoteleft" unicode="&#x2018;" horiz-adv-x="256" d="M208 508 Q208 479 186.5 457 Q165 435 130 435 Q90 435 66.5 463 Q43 491 43 531 Q43 581 58.5 615.5 Q74 650 97 671.5 Q120 693 147 703.5 Q174 714 198 716 L198 655 Q169 650 143.5 628.5 Q118 607 116 572 Q124 577 137 577 Q171 577 189.5 558.5 Q208 540 208 508 Z " />
<glyph glyph-name="quoteright" unicode="&#x2019;" horiz-adv-x="258" d="M52 643 Q52 672 74.5 694 Q97 716 132 716 Q172 716 195.5 687.5 Q219 659 219 619 Q219 569 203.5 534 Q188 499 165 476.5 Q142 454 115 443 Q88 432 64 430 L64 491 Q93 496 118.5 518.5 Q144 541 146 576 Q138 571 125 571 Q91 571 71.5 591 Q52 611 52 643 Z " />
<glyph glyph-name="quotesinglbase" unicode="&#x201a;" horiz-adv-x="265" d="M49 69 Q49 98 71.5 119.5 Q94 141 129 141 Q169 141 192.5 113 Q216 85 216 44 Q216 -6 200.5 -41 Q185 -76 162 -98.5 Q139 -121 112 -132 Q85 -143 61 -145 L61 -83 Q90 -79 115.5 -56.5 Q141 -34 143 1 Q135 -4 122 -4 Q88 -4 68.5 16.5 Q49 37 49 69 Z " />
<glyph glyph-name="quotedblleft" unicode="&#x201c;" horiz-adv-x="453" d="M208 508 Q208 479 186.5 457 Q165 435 130 435 Q90 435 66.5 463 Q43 491 43 531 Q43 581 58.5 615.5 Q74 650 97 671.5 Q120 693 147 703.5 Q174 714 198 716 L198 655 Q169 650 143.5 628.5 Q118 607 116 572 Q124 577 137 577 Q171 577 189.5 558.5 Q208 540 208 508 Z M405 508 Q405 479 383.5 457 Q362 435 327 435 Q287 435 263.5 463 Q240 491 240 531 Q240 581 255.5 615.5 Q271 650 294 671.5 Q317 693 344 703.5 Q371 714 395 716 L395 655 Q366 650 340.5 628.5 Q315 607 313 572 Q321 577 334 577 Q368 577 386.5 558.5 Q405 540 405 508 Z " />
<glyph glyph-name="quotedblright" unicode="&#x201d;" horiz-adv-x="454" d="M52 643 Q52 672 74.5 694 Q97 716 132 716 Q172 716 195.5 687.5 Q219 659 219 619 Q219 569 203.5 534 Q188 499 165 476.5 Q142 454 115 443 Q88 432 64 430 L64 491 Q93 496 118.5 518.5 Q144 541 146 576 Q138 571 125 571 Q91 571 71.5 591 Q52 611 52 643 Z M248 643 Q248 672 270.5 694 Q293 716 328 716 Q368 716 391.5 687.5 Q415 659 415 619 Q415 569 399.5 534 Q384 499 361 476.5 Q338 454 311 443 Q284 432 260 430 L260 491 Q289 496 314.5 518.5 Q340 541 342 576 Q334 571 321 571 Q287 571 267.5 591 Q248 611 248 643 Z " />
<glyph glyph-name="quotedblbase" unicode="&#x201e;" horiz-adv-x="459" d="M49 70 Q49 99 71.5 120.5 Q94 142 129 142 Q169 142 192.5 114 Q216 86 216 45 Q216 -5 200.5 -40 Q185 -75 162 -97.5 Q139 -120 112 -131 Q85 -142 61 -144 L61 -82 Q90 -78 115.5 -55.5 Q141 -33 143 2 Q135 -3 121 -3 Q87 -3 68 17.5 Q49 38 49 70 Z M243 70 Q243 99 265.5 120.5 Q288 142 323 142 Q363 142 386.5 114 Q410 86 410 45 Q410 -5 394.5 -40 Q379 -75 356 -97.5 Q333 -120 306 -131 Q279 -142 255 -144 L255 -82 Q284 -78 309.5 -55.5 Q335 -33 337 2 Q329 -3 315 -3 Q281 -3 262 17.5 Q243 38 243 70 Z " />
<glyph glyph-name="dagger" unicode="&#x2020;" horiz-adv-x="425" d="M157 163 L157 463 L34 463 L34 567 L157 567 L157 709 L268 709 L268 567 L391 567 L391 463 L268 463 L268 163 L157 163 Z " />
<glyph glyph-name="daggerdbl" unicode="&#x2021;" horiz-adv-x="461" d="M175 247 L175 462 L52 462 L52 565 L175 565 L175 709 L286 709 L286 565 L409 565 L409 462 L286 462 L286 247 L409 247 L409 144 L286 144 L286 0 L175 0 L175 144 L52 144 L52 247 L175 247 Z " />
<glyph glyph-name="bullet" unicode="&#x2022;" horiz-adv-x="546" d="M65 299 Q65 342 81.5 380 Q98 418 126.5 446.5 Q155 475 192.5 491.5 Q230 508 273 508 Q316 508 354 491.5 Q392 475 420 446.5 Q448 418 464.5 380 Q481 342 481 299 Q481 256 464.5 218 Q448 180 420 151.5 Q392 123 354 106.5 Q316 90 273 90 Q230 90 192.5 106.5 Q155 123 126.5 151.5 Q98 180 81.5 218 Q65 256 65 299 Z " />
<glyph glyph-name="ellipsis" unicode="&#x2026;" horiz-adv-x="864" d="M818 70 Q818 37 794.5 13.5 Q771 -10 737 -10 Q704 -10 680.5 13.5 Q657 37 657 70 Q657 104 680.5 127.5 Q704 151 737 151 Q771 151 794.5 127.5 Q818 104 818 70 Z M513 70 Q513 37 489.5 13.5 Q466 -10 432 -10 Q399 -10 375 13.5 Q351 37 351 70 Q351 104 375 127.5 Q399 151 432 151 Q466 151 489.5 127.5 Q513 104 513 70 Z M208 70 Q208 37 185 13.5 Q162 -10 128 -10 Q94 -10 70.5 13.5 Q47 37 47 70 Q47 104 70.5 127.5 Q94 151 128 151 Q162 151 185 127.5 Q208 104 208 70 Z " />
<glyph glyph-name="perthousand" unicode="&#x2030;" horiz-adv-x="1055" d="M128 496 Q128 464 147 445 Q166 426 194 426 Q223 426 241.5 445 Q260 464 260 496 Q260 526 241.5 545.5 Q223 565 194 565 Q166 565 147 545.5 Q128 526 128 496 Z M28 496 Q28 530 41.5 560 Q55 590 77.5 612 Q100 634 130 646.5 Q160 659 194 659 Q228 659 258 646.5 Q288 634 311 612 Q334 590 347.5 560 Q361 530 361 496 Q361 461 347.5 431 Q334 401 311 379 Q288 357 258 345 Q228 333 194 333 Q160 333 129.5 345.5 Q99 358 76.5 380 Q54 402 41 431.5 Q28 461 28 496 Z M564 153 Q564 121 583 102 Q602 83 631 83 Q660 83 679 102.5 Q698 122 698 153 Q698 184 679 203 Q660 222 631 222 Q602 222 583 203 Q564 184 564 153 Z M126 0 L584 649 L700 649 L242 0 L126 0 Z M793 153 Q793 121 812.5 102 Q832 83 860 83 Q889 83 908 102.5 Q927 122 927 153 Q927 184 908 203 Q889 222 860 222 Q832 222 812.5 203 Q793 184 793 153 Z M464 153 Q464 187 477.5 217 Q491 247 514 269.5 Q537 292 567 304.5 Q597 317 631 317 Q667 317 696.5 303 Q726 289 746 264 Q766 288 795 302.5 Q824 317 860 317 Q894 317 924.5 304.5 Q955 292 978 269.5 Q1001 247 1014.5 217 Q1028 187 1028 153 Q1028 118 1014.5 88 Q1001 58 978 36.5 Q955 15 924.5 2.5 Q894 -10 860 -10 Q823 -10 794.5 4 Q766 18 746 42 Q726 17 696.5 3.5 Q667 -10 630 -10 Q596 -10 566 2.5 Q536 15 513.5 37 Q491 59 477.5 89 Q464 119 464 153 Z " />
<glyph glyph-name="guilsinglleft" unicode="&#x2039;" horiz-adv-x="335" d="M169 101 L32 295 L170 492 L295 492 L159 294 L295 101 L169 101 Z " />
<glyph glyph-name="guilsinglright" unicode="&#x203a;" horiz-adv-x="335" d="M41 101 L176 294 L40 492 L166 492 L303 295 L167 101 L41 101 Z " />
<glyph glyph-name="uni2042" unicode="&#x2042;" horiz-adv-x="828" d="M458 598 L559 632 L588 547 L485 514 L550 427 L477 374 L411 462 L347 374 L275 428 L338 514 L236 547 L263 632 L365 598 L365 709 L458 709 L458 598 Z M251 211 L352 245 L381 160 L278 127 L343 40 L270 -13 L204 75 L140 -13 L68 41 L131 127 L29 160 L56 245 L158 211 L158 322 L251 322 L251 211 Z M669 211 L770 245 L799 160 L696 127 L761 40 L688 -13 L622 75 L558 -13 L486 41 L549 127 L447 160 L474 245 L576 211 L576 322 L669 322 L669 211 Z " />
<glyph glyph-name="fraction" unicode="&#x2044;" horiz-adv-x="194" d="M-196 0 L262 649 L378 649 L-80 0 L-196 0 Z " />
<glyph glyph-name="uni2051" unicode="&#x2051;" horiz-adv-x="444" d="M268 598 L369 632 L398 547 L295 514 L360 427 L287 374 L221 462 L157 374 L85 428 L148 514 L46 547 L73 632 L175 598 L175 709 L268 709 L268 598 Z M268 214 L369 248 L398 163 L295 130 L360 43 L287 -10 L221 78 L157 -10 L85 44 L148 130 L46 163 L73 248 L175 214 L175 325 L268 325 L268 214 Z " />
<glyph glyph-name="uni2070" unicode="&#x2070;" horiz-adv-x="394" d="M135 525 Q135 506 137 487 Q139 468 145.5 452.5 Q152 437 164.5 427.5 Q177 418 197 418 Q218 418 230 427.5 Q242 437 249 452.5 Q256 468 258 487 Q260 506 260 525 Q260 544 258 563 Q256 582 249 597.5 Q242 613 230 623 Q218 633 197 633 Q177 633 164.5 623.5 Q152 614 145.5 598.5 Q139 583 137 563.5 Q135 544 135 525 Z M31 525 Q31 560 38.5 594 Q46 628 67 656 Q87 682 118 699.5 Q149 717 197 717 Q245 717 276.5 699.5 Q308 682 328 656 Q348 628 355.5 594 Q363 560 363 525 Q363 490 355.5 456.5 Q348 423 328 395 Q308 368 276.5 351 Q245 334 197 334 Q149 334 118 351 Q87 368 67 395 Q46 423 38.5 456.5 Q31 490 31 525 Z " />
<glyph glyph-name="uni2074" unicode="&#x2074;" horiz-adv-x="387" d="M24 511 L193 709 L302 709 L302 491 L363 491 L363 412 L302 412 L302 341 L202 341 L202 412 L24 412 L24 511 Z M202 605 L105 491 L202 491 L202 605 Z " />
<glyph glyph-name="uni2075" unicode="&#x2075;" horiz-adv-x="355" d="M113 468 Q116 445 133.5 431.5 Q151 418 174 418 Q197 418 212 430.5 Q227 443 227 466 Q227 492 211.5 504.5 Q196 517 171 517 Q155 517 141.5 511 Q128 505 119 495 L36 520 L82 709 L304 709 L304 626 L142 626 L127 563 Q140 574 159 580 Q178 586 198 586 Q257 586 292 554.5 Q327 523 327 467 Q327 440 317 416 Q307 392 287.5 374 Q268 356 239.5 345.5 Q211 335 174 335 Q144 335 118 343.5 Q92 352 72 367 Q52 382 39.5 402 Q27 422 24 445 L113 468 Z " />
<glyph glyph-name="uni2076" unicode="&#x2076;" horiz-adv-x="375" d="M314 622 Q300 627 283.5 630.5 Q267 634 249 634 Q210 634 176.5 615 Q143 596 132 552 Q146 567 168.5 575.5 Q191 584 217 584 Q272 584 309.5 554 Q347 524 347 465 Q347 436 335.5 411.5 Q324 387 303 369.5 Q282 352 253 342 Q224 332 190 332 Q157 332 128 343 Q99 354 77.5 376 Q56 398 43 429 Q30 460 30 501 Q30 551 46.5 591 Q63 631 91.5 658.5 Q120 686 159 700.5 Q198 715 243 715 Q266 715 289 711 Q312 707 332 699 L314 622 Z M136 462 Q136 440 152.5 426.5 Q169 413 190 413 Q212 413 228 426.5 Q244 440 244 462 Q244 485 228 498.5 Q212 512 190 512 Q169 512 152.5 498.5 Q136 485 136 462 Z " />
<glyph glyph-name="uni2077" unicode="&#x2077;" horiz-adv-x="344" d="M327 624 Q314 614 292.5 593 Q271 572 249 537.5 Q227 503 209 454.5 Q191 406 185 341 L78 341 Q83 410 103.5 463 Q124 516 147 552 Q173 594 206 625 L20 625 L20 709 L327 709 L327 624 Z " />
<glyph glyph-name="uni2078" unicode="&#x2078;" horiz-adv-x="373" d="M187 562 Q209 562 220.5 573.5 Q232 585 232 601 Q232 614 221 625.5 Q210 637 187 637 Q164 637 152.5 625.5 Q141 614 141 601 Q141 585 152.5 573.5 Q164 562 187 562 Z M187 412 Q216 412 229 425 Q242 438 242 455 Q242 470 228.5 482.5 Q215 495 187 495 Q158 495 145 482.5 Q132 470 132 455 Q132 438 145 425 Q158 412 187 412 Z M187 333 Q112 333 71.5 363.5 Q31 394 31 443 Q31 473 51.5 496.5 Q72 520 104 530 Q74 540 58 563 Q42 586 42 612 Q42 657 80 686.5 Q118 716 187 716 Q256 716 293.5 686.5 Q331 657 331 612 Q331 586 315 563 Q299 540 269 530 Q300 521 321.5 497.5 Q343 474 343 445 Q343 395 302.5 364 Q262 333 187 333 Z " />
<glyph glyph-name="uni2079" unicode="&#x2079;" horiz-adv-x="372" d="M63 427 Q77 422 93 418.5 Q109 415 126 415 Q146 415 165.5 419 Q185 423 201 433 Q217 443 228.5 458.5 Q240 474 245 498 Q231 482 207.5 473.5 Q184 465 159 465 Q133 465 109 473 Q85 481 67 496 Q49 511 38 533 Q27 555 27 584 Q27 643 69.5 680 Q112 717 184 717 Q217 717 245.5 705.5 Q274 694 295.5 672.5 Q317 651 329.5 619 Q342 587 342 547 Q342 495 326.5 455 Q311 415 283 388 Q255 361 217.5 347 Q180 333 137 333 Q114 333 90.5 337 Q67 341 46 349 L63 427 Z M235 587 Q235 609 219 622.5 Q203 636 181 636 Q158 636 142.5 622.5 Q127 609 127 587 Q127 564 142.5 550 Q158 536 181 536 Q203 536 219 550 Q235 564 235 587 Z " />
<glyph glyph-name="uni2080" unicode="&#x2080;" horiz-adv-x="398" d="M137 80 Q137 61 139 42 Q141 23 147.5 7.5 Q154 -8 166.5 -17.5 Q179 -27 199 -27 Q220 -27 232 -17.5 Q244 -8 251 7.5 Q258 23 260 42 Q262 61 262 80 Q262 99 260 118 Q258 137 251 152.5 Q244 168 232 178 Q220 188 199 188 Q179 188 166.5 178.5 Q154 169 147.5 153.5 Q141 138 139 118.5 Q137 99 137 80 Z M33 80 Q33 115 40.5 149 Q48 183 69 211 Q89 237 120 254.5 Q151 272 199 272 Q247 272 278.5 254.5 Q310 237 330 211 Q350 183 357.5 149 Q365 115 365 80 Q365 45 357.5 11.5 Q350 -22 330 -50 Q310 -77 278.5 -94 Q247 -111 199 -111 Q151 -111 120 -94 Q89 -77 69 -50 Q48 -22 40.5 11.5 Q33 45 33 80 Z " />
<glyph glyph-name="uni2081" unicode="&#x2081;" horiz-adv-x="260" d="M112 -104 L112 119 L21 119 L21 185 Q45 185 63 192 Q81 199 93.5 210.5 Q106 222 113.5 235.5 Q121 249 124 263 L215 263 L215 -104 L112 -104 Z " />
<glyph glyph-name="uni2082" unicode="&#x2082;" horiz-adv-x="360" d="M40 119 Q38 124 37 132 Q36 140 36 148 Q36 200 72.5 236 Q109 272 180 272 Q214 272 240.5 262 Q267 252 285 235.5 Q303 219 312.5 197 Q322 175 322 150 Q322 114 301.5 87.5 Q281 61 243 38 L173 -4 Q161 -11 161 -19 L325 -19 L325 -104 L34 -104 L34 -92 Q34 -43 53.5 -3.5 Q73 36 123 65 L183 100 Q221 123 221 151 Q221 165 210.5 177.5 Q200 190 179 190 Q156 190 142 176.5 Q128 163 128 138 Q128 129 131 120 L40 119 Z " />
<glyph glyph-name="uni2083" unicode="&#x2083;" horiz-adv-x="369" d="M118 25 Q120 2 136.5 -13 Q153 -28 179 -28 Q204 -28 218.5 -15.5 Q233 -3 233 16 Q233 40 216.5 50.5 Q200 61 180 61 Q170 61 161.5 59 Q153 57 148 55 L115 123 L202 182 L41 182 L41 265 L325 265 L325 183 L235 122 Q280 116 308 89 Q336 62 336 14 Q336 -11 325 -33.5 Q314 -56 294 -73.5 Q274 -91 244.5 -101 Q215 -111 179 -111 Q145 -111 118.5 -101.5 Q92 -92 72.5 -76 Q53 -60 41.5 -39 Q30 -18 27 4 L118 25 Z " />
<glyph glyph-name="uni2084" unicode="&#x2084;" horiz-adv-x="389" d="M25 66 L194 264 L303 264 L303 46 L364 46 L364 -33 L303 -33 L303 -104 L203 -104 L203 -33 L25 -33 L25 66 Z M203 160 L106 46 L203 46 L203 160 Z " />
<glyph glyph-name="uni2085" unicode="&#x2085;" horiz-adv-x="358" d="M114 23 Q117 0 134.5 -13.5 Q152 -27 175 -27 Q198 -27 213 -14.5 Q228 -2 228 21 Q228 47 212.5 59.5 Q197 72 172 72 Q156 72 142.5 66 Q129 60 120 50 L37 75 L83 264 L305 264 L305 181 L143 181 L128 118 Q141 129 160 135 Q179 141 199 141 Q258 141 293 109.5 Q328 78 328 22 Q328 -5 318 -29 Q308 -53 288.5 -71 Q269 -89 240.5 -99.5 Q212 -110 175 -110 Q145 -110 119 -101.5 Q93 -93 73 -78 Q53 -63 40.5 -43 Q28 -23 25 0 L114 23 Z " />
<glyph glyph-name="uni2086" unicode="&#x2086;" horiz-adv-x="378" d="M315 178 Q301 183 284.5 186.5 Q268 190 250 190 Q211 190 177.5 171 Q144 152 133 108 Q147 123 169.5 131.5 Q192 140 218 140 Q273 140 310.5 110 Q348 80 348 21 Q348 -8 336.5 -32.5 Q325 -57 304 -74.5 Q283 -92 254 -102 Q225 -112 191 -112 Q158 -112 129 -101 Q100 -90 78.5 -68 Q57 -46 44 -15 Q31 16 31 57 Q31 107 47.5 147 Q64 187 92.5 214.5 Q121 242 160 256.5 Q199 271 244 271 Q267 271 290 267 Q313 263 333 255 L315 178 Z M137 18 Q137 -4 153.5 -17.5 Q170 -31 191 -31 Q213 -31 229 -17.5 Q245 -4 245 18 Q245 41 229 54.5 Q213 68 191 68 Q170 68 153.5 54.5 Q137 41 137 18 Z " />
<glyph glyph-name="uni2087" unicode="&#x2087;" horiz-adv-x="347" d="M329 178 Q316 168 294.5 147 Q273 126 251 91.5 Q229 57 211 8.5 Q193 -40 187 -105 L80 -105 Q85 -36 105.5 17 Q126 70 149 106 Q175 148 208 179 L22 179 L22 263 L329 263 L329 178 Z " />
<glyph glyph-name="uni2088" unicode="&#x2088;" horiz-adv-x="375" d="M188 117 Q210 117 221.5 128.5 Q233 140 233 156 Q233 169 222 180.5 Q211 192 188 192 Q165 192 153.5 180.5 Q142 169 142 156 Q142 140 153.5 128.5 Q165 117 188 117 Z M188 -33 Q217 -33 230 -20 Q243 -7 243 10 Q243 25 229.5 37.5 Q216 50 188 50 Q159 50 146 37.5 Q133 25 133 10 Q133 -7 146 -20 Q159 -33 188 -33 Z M188 -112 Q113 -112 72.5 -81.5 Q32 -51 32 -2 Q32 28 52.5 51.5 Q73 75 105 85 Q75 95 59 118 Q43 141 43 167 Q43 212 81 241.5 Q119 271 188 271 Q257 271 294.5 241.5 Q332 212 332 167 Q332 141 316 118 Q300 95 270 85 Q301 76 322.5 52.5 Q344 29 344 0 Q344 -50 303.5 -81 Q263 -112 188 -112 Z " />
<glyph glyph-name="uni2089" unicode="&#x2089;" horiz-adv-x="374" d="M64 -17 Q78 -22 94 -25.5 Q110 -29 127 -29 Q147 -29 166.5 -25 Q186 -21 202 -11 Q218 -1 229.5 14.5 Q241 30 246 54 Q232 38 208.5 29.5 Q185 21 160 21 Q134 21 110 29 Q86 37 68 52 Q50 67 39 89 Q28 111 28 140 Q28 199 70.5 236 Q113 273 185 273 Q218 273 246.5 261.5 Q275 250 296.5 228.5 Q318 207 330.5 175 Q343 143 343 103 Q343 51 327.5 11 Q312 -29 284 -56 Q256 -83 218.5 -97 Q181 -111 138 -111 Q115 -111 91.5 -107 Q68 -103 47 -95 L64 -17 Z M236 143 Q236 165 220 178.5 Q204 192 182 192 Q159 192 143.5 178.5 Q128 165 128 143 Q128 120 143.5 106 Q159 92 182 92 Q204 92 220 106 Q236 120 236 143 Z " />
<glyph glyph-name="Euro" unicode="&#x20ac;" horiz-adv-x="671" d="M643 50 Q608 22 558.5 3 Q509 -16 449 -16 Q396 -16 347 -2 Q298 12 257 39 Q216 66 184.5 105.5 Q153 145 135 196 L42 196 L42 290 L115 290 Q114 304 114 309.5 Q114 315 114 322 Q114 328 114 335 Q114 342 115 354 L42 354 L42 448 L135 448 Q153 499 185 539 Q217 579 258.5 607 Q300 635 348.5 649.5 Q397 664 449 664 Q504 664 545.5 652 Q587 640 621 618 L570 513 Q547 529 516 536.5 Q485 544 449 544 Q398 544 352.5 521 Q307 498 280 448 L540 448 L496 354 L254 354 Q252 343 252 336 Q252 329 252 321 Q252 316 252 310 Q252 304 254 290 L470 290 L427 196 L283 196 Q309 150 353 128 Q397 106 449 106 Q490 106 523.5 117.5 Q557 129 581 149 L643 50 Z " />
<glyph glyph-name="uni2113" unicode="&#x2113;" horiz-adv-x="436" d="M35 271 Q45 273 63 278.5 Q81 284 104 294 L104 496 Q104 535 115.5 566 Q127 597 147 618.5 Q167 640 195 651.5 Q223 663 256 663 Q325 663 365.5 621.5 Q406 580 406 504 Q406 467 393.5 429 Q381 391 358 355 Q335 319 301.5 286 Q268 253 226 226 L226 189 Q226 167 232.5 152 Q239 137 249 128 Q259 119 271 115 Q283 111 294 111 Q336 111 356.5 121 Q377 131 385 136 L385 25 Q383 23 376.5 18 Q370 13 357 8 Q344 3 325 -1 Q306 -5 280 -5 Q236 -5 203 8 Q170 21 148 44.5 Q126 68 115 99 Q104 130 104 166 L104 171 Q87 166 70 161.5 Q53 157 35 154 L35 271 Z M285 509 Q285 550 256 550 Q245 550 235.5 540.5 Q226 531 226 502 L226 372 Q251 398 268 431.5 Q285 465 285 509 Z " />
<glyph glyph-name="trademark" unicode="&#x2122;" horiz-adv-x="888" d="M232 625 L232 344 L138 344 L138 625 L34 625 L34 709 L335 709 L335 625 L232 625 Z M726 344 L726 566 L637 344 L569 344 L479 563 L479 344 L388 344 L388 709 L516 709 L605 495 L691 709 L817 709 L817 344 L726 344 Z " />
<glyph glyph-name="Omega" unicode="&#x2126;" horiz-adv-x="795" d="M398 594 Q359 594 322.5 581 Q286 568 257.5 542.5 Q229 517 212 479.5 Q195 442 195 393 Q195 351 209 316 Q223 281 246 255 Q269 229 299 212.5 Q329 196 361 189 L361 0 L59 0 L59 126 L238 126 Q201 141 167.5 166 Q134 191 108.5 226.5 Q83 262 67.5 306 Q52 350 52 402 Q52 476 80.5 535.5 Q109 595 156.5 637 Q204 679 266.5 701.5 Q329 724 398 724 Q467 724 529.5 701.5 Q592 679 639.5 637 Q687 595 715.5 535.5 Q744 476 744 402 Q744 350 728.5 306 Q713 262 687 226.5 Q661 191 627.5 166 Q594 141 557 126 L736 126 L736 0 L434 0 L434 189 Q466 196 496 212.5 Q526 229 549.5 255 Q573 281 587 316 Q601 351 601 393 Q601 442 584 479.5 Q567 517 538.5 542.5 Q510 568 473.5 581 Q437 594 398 594 Z " />
<glyph glyph-name="uni2160" unicode="&#x2160;" horiz-adv-x="504" d="M455 532 L321 532 L321 117 L455 117 L455 0 L49 0 L49 117 L184 117 L184 532 L49 532 L49 649 L455 649 L455 532 Z " />
<glyph glyph-name="uni2161" unicode="&#x2161;" horiz-adv-x="792" d="M743 0 L49 0 L49 117 L186 117 L186 532 L49 532 L49 649 L743 649 L743 532 L607 532 L607 117 L743 117 L743 0 Z M470 532 L323 532 L323 117 L470 117 L470 532 Z " />
<glyph glyph-name="uni2162" unicode="&#x2162;" horiz-adv-x="1066" d="M1017 0 L49 0 L49 117 L186 117 L186 532 L49 532 L49 649 L1017 649 L1017 532 L881 532 L881 117 L1017 117 L1017 0 Z M744 532 L602 532 L602 117 L744 117 L744 532 Z M323 117 L465 117 L465 532 L323 532 L323 117 Z " />
<glyph glyph-name="uni2163" unicode="&#x2163;" horiz-adv-x="1059" d="M1010 0 L49 0 L49 117 L181 117 L181 532 L49 532 L49 649 L1010 649 L1010 532 L902 532 L768 117 L1010 117 L1010 0 Z M318 117 L531 117 L395 532 L318 532 L318 117 Z M763 532 L539 532 L651 166 L763 532 Z " />
<glyph glyph-name="uni2164" unicode="&#x2164;" horiz-adv-x="812" d="M764 532 L658 532 L524 117 L762 117 L762 0 L50 0 L50 117 L287 117 L151 532 L48 532 L48 649 L764 649 L764 532 Z M519 532 L295 532 L407 166 L519 532 Z " />
<glyph glyph-name="uni2165" unicode="&#x2165;" horiz-adv-x="1056" d="M1007 0 L49 0 L49 117 L289 117 L153 532 L49 532 L49 649 L1007 649 L1007 532 L876 532 L876 117 L1007 117 L1007 0 Z M527 117 L739 117 L739 532 L662 532 L527 117 Z M522 532 L297 532 L410 166 L522 532 Z " />
<glyph glyph-name="uni2166" unicode="&#x2166;" horiz-adv-x="1335" d="M1287 0 L49 0 L49 117 L289 117 L153 532 L49 532 L49 649 L1286 649 L1286 532 L1151 532 L1151 117 L1287 117 L1287 0 Z M1014 532 L875 532 L875 117 L1014 117 L1014 532 Z M526 117 L738 117 L738 532 L661 532 L526 117 Z M521 532 L297 532 L410 166 L521 532 Z " />
<glyph glyph-name="uni2167" unicode="&#x2167;" horiz-adv-x="1599" d="M1551 0 L49 0 L49 117 L288 117 L154 532 L49 532 L49 649 L1550 649 L1550 532 L1417 532 L1417 117 L1551 117 L1551 0 Z M525 117 L736 117 L736 532 L657 532 L525 117 Z M873 117 L1008 117 L1008 532 L873 532 L873 117 Z M1145 117 L1280 117 L1280 532 L1145 532 L1145 117 Z M518 532 L298 532 L408 166 L518 532 Z " />
<glyph glyph-name="uni2168" unicode="&#x2168;" horiz-adv-x="1032" d="M983 0 L49 0 L49 117 L181 117 L181 532 L49 532 L49 649 L983 649 L983 532 L880 532 L726 319 L875 117 L983 117 L983 0 Z M398 532 L318 532 L318 117 L401 117 L552 321 L398 532 Z M640 417 L721 532 L559 532 L640 417 Z M560 117 L714 117 L637 225 L560 117 Z " />
<glyph glyph-name="uni2169" unicode="&#x2169;" horiz-adv-x="786" d="M737 532 L634 532 L480 319 L629 117 L737 117 L737 0 L49 0 L49 117 L155 117 L306 321 L152 532 L49 532 L49 649 L737 649 L737 532 Z M393 417 L474 532 L313 532 L393 417 Z M314 117 L467 117 L391 225 L314 117 Z " />
<glyph glyph-name="uni216C" unicode="&#x216c;" horiz-adv-x="651" d="M615 0 L49 0 L49 117 L166 117 L166 532 L49 532 L49 649 L431 649 L431 532 L303 532 L303 117 L484 117 L484 292 L615 292 L615 0 Z " />
<glyph glyph-name="uni216D" unicode="&#x216d;" horiz-adv-x="750" d="M687 0 L553 0 L553 60 Q525 28 481 6.5 Q437 -15 371 -15 Q304 -15 244.5 9 Q185 33 140 77 Q95 121 69 184 Q43 247 43 324 Q43 401 69.5 464 Q96 527 140.5 571.5 Q185 616 244 640 Q303 664 369 664 Q435 664 478 643 Q521 622 549 591 L549 649 L682 649 L682 409 L549 409 Q545 431 534 455 Q523 479 502 498.5 Q481 518 449.5 530.5 Q418 543 375 543 Q338 543 302 530 Q266 517 238 490 Q210 463 193 421.5 Q176 380 176 324 Q176 271 192.5 230.5 Q209 190 236.5 163 Q264 136 300.5 122 Q337 108 377 108 Q422 108 454 122 Q486 136 507 156.5 Q528 177 539 201 Q550 225 553 245 L687 245 L687 0 Z " />
<glyph glyph-name="uni216E" unicode="&#x216e;" horiz-adv-x="744" d="M385 649 Q455 648 513 625.5 Q571 603 612.5 561 Q654 519 677 459 Q700 399 700 324 Q700 248 676.5 188 Q653 128 610.5 86 Q568 44 509 22 Q450 0 380 0 L49 0 L49 117 L172 117 L172 532 L49 532 L49 649 L385 649 Z M374 117 Q413 117 447 130.5 Q481 144 506.5 169.5 Q532 195 546.5 234 Q561 273 561 324 Q561 376 546 415 Q531 454 505.5 480 Q480 506 445.5 519 Q411 532 372 532 L309 532 L309 117 L374 117 Z " />
<glyph glyph-name="uni216F" unicode="&#x216f;" horiz-adv-x="1057" d="M378 0 L49 0 L49 117 L166 117 L166 532 L49 532 L49 649 L354 649 L527 216 L696 649 L1008 649 L1008 532 L891 532 L891 117 L1008 117 L1008 0 L673 0 L673 117 L756 117 L756 447 L577 6 L476 6 L298 445 L298 117 L378 117 L378 0 Z " />
<glyph glyph-name="arrowleft" unicode="&#x2190;" horiz-adv-x="1098" d="M27 297 L321 533 L321 354 L1052 354 L1052 239 L321 239 L321 62 L27 297 Z " />
<glyph glyph-name="arrowup" unicode="&#x2191;" horiz-adv-x="505" d="M483 533 L311 533 L311 -147 L197 -147 L197 533 L23 533 L254 800 L483 533 Z " />
<glyph glyph-name="arrowright" unicode="&#x2192;" horiz-adv-x="1098" d="M777 62 L777 239 L46 239 L46 354 L777 354 L777 533 L1071 297 L777 62 Z " />
<glyph glyph-name="arrowdown" unicode="&#x2193;" horiz-adv-x="517" d="M259 -152 L24 117 L202 117 L202 794 L316 794 L316 117 L493 117 L259 -152 Z " />
<glyph glyph-name="uni2196" unicode="&#x2196;" horiz-adv-x="799" d="M386 708 L261 582 L775 69 L694 -12 L180 501 L54 374 L54 708 L386 708 Z " />
<glyph glyph-name="uni2197" unicode="&#x2197;" horiz-adv-x="799" d="M745 708 L745 374 L618 501 L105 -12 L24 69 L537 582 L413 708 L745 708 Z " />
<glyph glyph-name="uni2198" unicode="&#x2198;" horiz-adv-x="799" d="M414 1 L538 126 L25 640 L106 721 L619 207 L746 335 L746 1 L414 1 Z " />
<glyph glyph-name="uni2199" unicode="&#x2199;" horiz-adv-x="800" d="M54 1 L54 335 L180 207 L694 721 L775 640 L261 126 L386 1 L54 1 Z " />
<glyph glyph-name="uni21A9" unicode="&#x21a9;" horiz-adv-x="933" d="M26 274 L289 500 L289 331 L649 331 Q675 331 698 338.5 Q721 346 738 359.5 Q755 373 764.5 392 Q774 411 774 434 Q774 482 739 509.5 Q704 537 647 537 L452 537 L452 652 L653 652 Q706 652 750 635.5 Q794 619 825.5 589.5 Q857 560 874.5 520 Q892 480 892 434 Q892 387 875 347 Q858 307 826.5 278 Q795 249 751 232 Q707 215 653 215 L289 215 L289 50 L26 274 Z " />
<glyph glyph-name="uni21B0" unicode="&#x21b0;" horiz-adv-x="775" d="M21 499 L284 725 L284 557 L706 557 L706 0 L592 0 L592 442 L284 442 L284 274 L21 499 Z " />
<glyph glyph-name="uni21B1" unicode="&#x21b1;" horiz-adv-x="795" d="M69 0 L69 557 L511 557 L511 725 L774 499 L511 274 L511 442 L184 442 L184 0 L69 0 Z " />
<glyph glyph-name="uni21B2" unicode="&#x21b2;" horiz-adv-x="801" d="M729 709 L729 152 L287 152 L287 -16 L24 210 L287 435 L287 267 L615 267 L615 709 L729 709 Z " />
<glyph glyph-name="uni21B3" unicode="&#x21b3;" horiz-adv-x="801" d="M777 210 L514 -16 L514 152 L72 152 L72 709 L187 709 L187 267 L514 267 L514 435 L777 210 Z " />
<glyph glyph-name="uni21B4" unicode="&#x21b4;" horiz-adv-x="790" d="M32 709 L597 709 L597 242 L765 242 L542 -15 L317 242 L482 242 L482 594 L32 594 L32 709 Z " />
</font>
</svg>
