<?xml version="1.0" encoding="UTF-8"?>
<svg xmlns="http://www.w3.org/2000/svg" xmlns:xlink="http://www.w3.org/1999/xlink" version="1.2" >
<font id="CircularXXTT-Regular">
<font-face  font-family="CircularXX TT" units-per-em="1000" ascent="750" descent="-250" font-style="normal" font-weight="400" font-stretch="normal" cap-height="709" x-height="479" underline-position="-75" underline-thickness="50" />
<missing-glyph  horiz-adv-x="256" d="" />
<glyph glyph-name="space" unicode="&#x20;" horiz-adv-x="255" d="" />
<glyph glyph-name="quotedbl" unicode="&#x22;" horiz-adv-x="375" d="M95 404 L60 570 Q56 590 56 601 Q56 626 71 641 Q86 656 109 656 Q132 656 147 641 Q162 626 162 601 Q162 590 158 570 L123 404 L95 404 Z M252 404 L217 570 Q213 590 213 601 Q213 626 228 641 Q243 656 266 656 Q289 656 304 641 Q319 626 319 601 Q319 590 315 570 L280 404 L252 404 Z " />
<glyph glyph-name="numbersign" unicode="&#x23;" horiz-adv-x="712" d="M86 479 L236 479 L272 648 L343 648 L307 479 L462 479 L498 648 L569 648 L533 479 L675 479 L675 413 L519 413 L483 243 L626 243 L626 177 L469 177 L430 0 L359 0 L397 177 L243 177 L204 0 L133 0 L171 177 L37 177 L37 243 L185 243 L222 413 L86 413 L86 479 Z M257 243 L411 243 L448 413 L293 413 L257 243 Z " />
<glyph glyph-name="dollar" unicode="&#x24;" horiz-adv-x="550" d="M246 -116 L246 -12 Q196 -8 157.5 11 Q119 30 93 57 Q67 84 52 117 Q37 150 33 184 L113 209 Q115 183 124.5 158.5 Q134 134 150.5 114 Q167 94 190.5 80 Q214 66 246 62 L246 292 L218 299 Q147 317 103 360 Q59 403 59 475 Q59 511 73 542.5 Q87 574 112 598.5 Q137 623 171 639 Q205 655 246 660 L246 765 L316 765 L316 660 Q361 655 393 638.5 Q425 622 447 599.5 Q469 577 482.5 550.5 Q496 524 502 498 L426 471 Q423 489 415 507 Q407 525 393.5 540.5 Q380 556 360.5 568 Q341 580 316 585 L316 362 L336 357 Q415 337 461.5 290 Q508 243 508 174 Q508 140 495.5 108.5 Q483 77 458.5 51.5 Q434 26 398 9 Q362 -8 316 -12 L316 -116 L246 -116 Z M425 169 Q425 207 399.5 235 Q374 263 323 276 L316 278 L316 61 Q371 69 398 99 Q425 129 425 169 Z M143 479 Q143 442 165 416.5 Q187 391 238 378 L246 376 L246 587 Q199 579 171 550 Q143 521 143 479 Z " />
<glyph glyph-name="percent" unicode="&#x25;" horiz-adv-x="776" d="M103 502 Q103 464 128 438.5 Q153 413 189 413 Q227 413 251.5 438.5 Q276 464 276 502 Q276 540 251.5 565.5 Q227 591 189 591 Q153 591 128 565.5 Q103 540 103 502 Z M33 502 Q33 535 45.5 563.5 Q58 592 79 613 Q100 634 128.5 646 Q157 658 189 658 Q221 658 250 646 Q279 634 300.5 613 Q322 592 334.5 563.5 Q347 535 347 502 Q347 469 334.5 440.5 Q322 412 300.5 391 Q279 370 250 358 Q221 346 189 346 Q157 346 128.5 358 Q100 370 79 391 Q58 412 45.5 440.5 Q33 469 33 502 Z M499 151 Q499 113 524 87.5 Q549 62 585 62 Q623 62 647.5 87.5 Q672 113 672 151 Q672 189 647.5 214.5 Q623 240 585 240 Q549 240 524 214.5 Q499 189 499 151 Z M429 151 Q429 184 441.5 212.5 Q454 241 475 262 Q496 283 524.5 295 Q553 307 585 307 Q617 307 646 295 Q675 283 696.5 262 Q718 241 730.5 212.5 Q743 184 743 151 Q743 118 730.5 89.5 Q718 61 696.5 40 Q675 19 646 7 Q617 -5 585 -5 Q553 -5 524.5 7 Q496 19 475 40 Q454 61 441.5 89.5 Q429 118 429 151 Z M113 0 L582 648 L659 648 L192 0 L113 0 Z " />
<glyph glyph-name="ampersand" unicode="&#x26;" horiz-adv-x="678" d="M453 100 Q408 48 360 17 Q312 -14 252 -14 Q203 -14 166 1.5 Q129 17 103.5 42.5 Q78 68 65 100.5 Q52 133 52 167 Q52 234 86 278.5 Q120 323 176 364 L190 374 L169 396 Q157 409 142.5 425.5 Q128 442 115.5 461.5 Q103 481 95 503 Q87 525 87 550 Q87 590 102.5 622.5 Q118 655 143 677 Q168 699 200.5 711 Q233 723 267 723 Q306 723 339.5 711 Q373 699 397.5 677 Q422 655 435.5 624 Q449 593 449 555 Q449 529 440.5 506.5 Q432 484 418 464.5 Q404 445 386 429 Q368 413 349 399 L306 368 L453 216 L606 393 L606 277 L506 161 L662 0 L550 0 L453 100 Z M253 64 Q295 64 329.5 88.5 Q364 113 395 148 L401 155 L242 320 L207 293 Q178 271 157 243 Q136 215 136 174 Q136 153 144 133.5 Q152 114 167 98.5 Q182 83 204 73.5 Q226 64 253 64 Z M171 555 Q171 524 188.5 497.5 Q206 471 226 451 L254 421 L307 461 Q339 484 352 507.5 Q365 531 365 557 Q365 596 338 623.5 Q311 651 267 651 Q249 651 231.5 644.5 Q214 638 200.5 625.5 Q187 613 179 595 Q171 577 171 555 Z " />
<glyph glyph-name="quotesingle" unicode="&#x27;" horiz-adv-x="218" d="M95 404 L60 570 Q56 590 56 601 Q56 626 71 641 Q86 656 109 656 Q132 656 147 641 Q162 626 162 601 Q162 590 158 570 L123 404 L95 404 Z " />
<glyph glyph-name="parenleft" unicode="&#x28;" horiz-adv-x="301" d="M48 317 Q48 398 62.5 467 Q77 536 102.5 594.5 Q128 653 162 702 Q196 751 236 792 L285 749 Q208 663 163 558 Q118 453 118 317 Q118 181 163 75.5 Q208 -30 285 -115 L236 -158 Q196 -117 162 -68 Q128 -19 102.5 39.5 Q77 98 62.5 167 Q48 236 48 317 Z " />
<glyph glyph-name="parenright" unicode="&#x29;" horiz-adv-x="301" d="M253 317 Q253 236 238.5 167 Q224 98 198.5 39.5 Q173 -19 139 -68 Q105 -117 65 -158 L16 -115 Q92 -30 137.5 75.5 Q183 181 183 317 Q183 385 171 445 Q159 505 137.5 558 Q116 611 85 658.5 Q54 706 16 749 L65 792 Q105 751 139 702 Q173 653 198.5 594.5 Q224 536 238.5 467 Q253 398 253 317 Z " />
<glyph glyph-name="asterisk" unicode="&#x2a;" horiz-adv-x="461" d="M263 570 L393 614 L412 553 L282 509 L368 396 L316 357 L229 473 L147 358 L95 397 L178 509 L47 553 L67 614 L196 569 L196 709 L263 709 L263 570 Z " />
<glyph glyph-name="plus" unicode="&#x2b;" horiz-adv-x="528" d="M228 321 L228 521 L298 521 L298 321 L489 321 L489 254 L298 254 L298 52 L228 52 L228 254 L39 254 L39 321 L228 321 Z " />
<glyph glyph-name="comma" unicode="&#x2c;" horiz-adv-x="256" d="M60 57 Q60 83 78 101 Q96 119 125 119 Q154 119 175.5 97 Q197 75 197 32 Q197 -13 184 -46 Q171 -79 151 -101.5 Q131 -124 107 -137 Q83 -150 60 -154 L60 -107 Q78 -103 93 -92 Q108 -81 118.5 -66.5 Q129 -52 134.5 -34.5 Q140 -17 140 1 Q138 -1 132.5 -2.5 Q127 -4 119 -4 Q94 -4 77 12 Q60 28 60 57 Z " />
<glyph glyph-name="hyphen" unicode="&#x2d;" horiz-adv-x="403" d="M68 252 L68 322 L335 322 L335 252 L68 252 Z " />
<glyph glyph-name="period" unicode="&#x2e;" horiz-adv-x="242" d="M59 57 Q59 83 77 101 Q95 119 121 119 Q147 119 165 101 Q183 83 183 57 Q183 31 165 13 Q147 -5 121 -5 Q95 -5 77 13 Q59 31 59 57 Z " />
<glyph glyph-name="slash" unicode="&#x2f;" horiz-adv-x="478" d="M107 0 L29 0 L372 709 L450 709 L107 0 Z " />
<glyph glyph-name="zero" unicode="0" horiz-adv-x="612" d="M306 60 Q342 60 368.5 72.5 Q395 85 415 106 Q447 140 461.5 195 Q476 250 476 324 Q476 398 461.5 453 Q447 508 415 542 Q395 563 368.5 575.5 Q342 588 306 588 Q270 588 243.5 575.5 Q217 563 197 542 Q165 508 150.5 453 Q136 398 136 324 Q136 250 150.5 195 Q165 140 197 106 Q217 85 243.5 72.5 Q270 60 306 60 Z M306 -14 Q240 -14 192.5 13 Q145 40 114 85 Q80 134 67 196 Q54 258 54 324 Q54 390 67 452 Q80 514 114 563 Q145 608 192.5 635 Q240 662 306 662 Q372 662 419.5 635 Q467 608 498 563 Q532 514 545 452 Q558 390 558 324 Q558 258 545 196 Q532 134 498 85 Q467 40 419.5 13 Q372 -14 306 -14 Z " />
<glyph glyph-name="one" unicode="1" horiz-adv-x="342" d="M185 0 L185 473 L26 473 L26 521 Q94 524 137.5 559.5 Q181 595 193 648 L267 648 L267 0 L185 0 Z " />
<glyph glyph-name="two" unicode="2" horiz-adv-x="548" d="M58 426 Q55 439 55 455 Q55 497 70 534.5 Q85 572 113 600.5 Q141 629 182 645.5 Q223 662 275 662 Q325 662 365 646.5 Q405 631 432.5 604 Q460 577 474.5 541.5 Q489 506 489 466 Q489 402 456 352 Q423 302 367 267 L234 182 Q205 163 181 137 Q157 111 151 76 L495 76 L495 0 L49 0 Q51 75 84 135.5 Q117 196 195 247 L311 322 Q405 382 405 465 Q405 489 396.5 511 Q388 533 371.5 550.5 Q355 568 330 578 Q305 588 273 588 Q207 588 172 547.5 Q137 507 137 447 Q137 428 140 416 L58 426 Z " />
<glyph glyph-name="three" unicode="3" horiz-adv-x="570" d="M191 381 L392 572 L66 572 L66 648 L502 648 L502 573 L305 387 Q315 389 324 389 Q359 389 393.5 376.5 Q428 364 455.5 339 Q483 314 500 277.5 Q517 241 517 193 Q517 152 501.5 114.5 Q486 77 456 48.5 Q426 20 383 3 Q340 -14 285 -14 Q231 -14 187.5 2.5 Q144 19 113.5 46.5 Q83 74 65.5 110.5 Q48 147 46 188 L128 207 Q129 173 142 145.5 Q155 118 176 99 Q197 80 225 70 Q253 60 284 60 Q318 60 346 70 Q374 80 393 98 Q412 116 422.5 140 Q433 164 433 192 Q433 225 421 249.5 Q409 274 389 289.5 Q369 305 343.5 313 Q318 321 291 321 Q259 321 232 312 L191 381 Z " />
<glyph glyph-name="four" unicode="4" horiz-adv-x="577" d="M31 247 L317 648 L432 648 L432 227 L545 227 L545 151 L432 151 L432 0 L350 0 L350 151 L31 151 L31 247 Z M350 567 L108 227 L350 227 L350 567 Z " />
<glyph glyph-name="five" unicode="5" horiz-adv-x="554" d="M115 201 Q117 170 129.5 144 Q142 118 162.5 99 Q183 80 210.5 69.5 Q238 59 270 59 Q302 59 329.5 69 Q357 79 377.5 98 Q398 117 409.5 143 Q421 169 421 201 Q421 236 409 263 Q397 290 376.5 308.5 Q356 327 328.5 336.5 Q301 346 270 346 Q233 346 199.5 332 Q166 318 142 292 L60 324 L144 648 L479 648 L479 572 L199 572 L147 366 Q172 393 210 406 Q248 419 286 419 Q334 419 374 404 Q414 389 443 361 Q472 333 488.5 293 Q505 253 505 204 Q505 159 488 119 Q471 79 440.5 49.5 Q410 20 366.5 3 Q323 -14 270 -14 Q220 -14 178 1.5 Q136 17 105.5 43.5 Q75 70 56.5 104.5 Q38 139 35 178 L115 201 Z " />
<glyph glyph-name="six" unicode="6" horiz-adv-x="585" d="M494 558 Q475 569 444 578.5 Q413 588 375 588 Q319 588 275.5 567.5 Q232 547 202 511.5 Q172 476 155 428 Q138 380 136 325 Q145 345 161.5 363.5 Q178 382 201 396 Q224 410 253 418.5 Q282 427 316 427 Q363 427 403.5 412 Q444 397 473.5 368.5 Q503 340 520 299 Q537 258 537 206 Q537 155 518 114 Q499 73 466.5 44.5 Q434 16 391 1 Q348 -14 301 -14 Q252 -14 207 4 Q162 22 127.5 59 Q93 96 72.5 153 Q52 210 52 287 Q52 378 77.5 448 Q103 518 147.5 565.5 Q192 613 252 637.5 Q312 662 380 662 Q425 662 461 652 Q497 642 520 626 L494 558 Z M151 206 Q151 172 163.5 145 Q176 118 197 99 Q218 80 245.5 70 Q273 60 302 60 Q333 60 360.5 70 Q388 80 408.5 99 Q429 118 441 145 Q453 172 453 206 Q453 240 441 268 Q429 296 408 315 Q387 334 359.5 344.5 Q332 355 302 355 Q272 355 244.5 344.5 Q217 334 196 315 Q175 296 163 268 Q151 240 151 206 Z " />
<glyph glyph-name="seven" unicode="7" horiz-adv-x="519" d="M500 568 Q468 540 424.5 493.5 Q381 447 339 378.5 Q297 310 263.5 216.5 Q230 123 218 0 L132 0 Q140 89 160.5 163.5 Q181 238 208.5 299 Q236 360 267 407 Q298 454 325.5 488 Q353 522 375 542.5 Q397 563 406 572 L31 572 L31 648 L500 648 L500 568 Z " />
<glyph glyph-name="eight" unicode="8" horiz-adv-x="568" d="M284 367 Q312 367 336.5 375 Q361 383 378.5 398 Q396 413 406 434 Q416 455 416 480 Q416 528 380 560 Q344 592 284 592 Q223 592 187.5 560 Q152 528 152 480 Q152 429 189 398 Q226 367 284 367 Z M284 58 Q354 58 392.5 92.5 Q431 127 431 177 Q431 202 421 223.5 Q411 245 392.5 261.5 Q374 278 346.5 287.5 Q319 297 284 297 Q249 297 221.5 287.5 Q194 278 175 261.5 Q156 245 146.5 223.5 Q137 202 137 177 Q137 127 175 92.5 Q213 58 284 58 Z M284 -14 Q229 -14 186 0.5 Q143 15 113.5 40 Q84 65 68.5 98.5 Q53 132 53 170 Q53 230 89.5 272.5 Q126 315 180 332 Q133 348 101 389 Q69 430 69 485 Q69 524 85 556.5 Q101 589 130 612.5 Q159 636 198 649 Q237 662 284 662 Q330 662 369.5 649 Q409 636 438 612.5 Q467 589 483 556.5 Q499 524 499 485 Q499 458 490.5 433.5 Q482 409 467 389 Q452 369 431.5 354.5 Q411 340 387 332 Q414 324 437.5 309 Q461 294 478 273 Q495 252 505 226 Q515 200 515 170 Q515 132 499.5 98.5 Q484 65 454.5 40 Q425 15 382 0.5 Q339 -14 284 -14 Z " />
<glyph glyph-name="nine" unicode="9" horiz-adv-x="583" d="M90 95 Q113 81 147 70.5 Q181 60 214 60 Q273 60 316.5 79 Q360 98 388.5 132.5 Q417 167 431 215.5 Q445 264 447 323 Q429 281 383 252 Q337 223 269 223 Q227 223 187 237.5 Q147 252 116 279.5 Q85 307 66 347.5 Q47 388 47 441 Q47 490 66 530.5 Q85 571 117.5 600.5 Q150 630 192 646 Q234 662 281 662 Q331 662 376 643.5 Q421 625 455.5 588 Q490 551 510 495 Q530 439 530 364 Q530 278 511 208.5 Q492 139 453 89.5 Q414 40 354.5 13 Q295 -14 214 -14 Q194 -14 173 -11 Q152 -8 131.5 -3 Q111 2 93 9 Q75 16 62 25 L90 95 Z M432 442 Q432 476 419.5 503.5 Q407 531 386 550 Q365 569 337.5 579.5 Q310 590 281 590 Q252 590 225 579.5 Q198 569 177 550 Q156 531 143.5 503.5 Q131 476 131 442 Q131 407 143.5 380 Q156 353 176.5 334 Q197 315 224 305 Q251 295 281 295 Q311 295 338 305 Q365 315 386 334 Q407 353 419.5 380.5 Q432 408 432 442 Z " />
<glyph glyph-name="colon" unicode="&#x3a;" horiz-adv-x="262" d="M69 57 Q69 83 87 101 Q105 119 131 119 Q157 119 175 101 Q193 83 193 57 Q193 31 175 13 Q157 -5 131 -5 Q105 -5 87 13 Q69 31 69 57 Z M69 422 Q69 448 87 466 Q105 484 131 484 Q157 484 175 466 Q193 448 193 422 Q193 396 175 378 Q157 360 131 360 Q105 360 87 378 Q69 396 69 422 Z " />
<glyph glyph-name="semicolon" unicode="&#x3b;" horiz-adv-x="262" d="M62 422 Q62 448 80 466 Q98 484 124 484 Q150 484 168 466 Q186 448 186 422 Q186 396 168 378 Q150 360 124 360 Q98 360 80 378 Q62 396 62 422 Z M62 55 Q62 80 79 97 Q96 114 124 114 Q152 114 172.5 93 Q193 72 193 31 Q193 -12 180.5 -44 Q168 -76 149 -97.5 Q130 -119 107 -131.5 Q84 -144 62 -148 L62 -103 Q79 -99 93.5 -88.5 Q108 -78 118 -64 Q128 -50 133 -33 Q138 -16 138 1 Q136 -1 131 -2.5 Q126 -4 118 -4 Q94 -4 78 11.5 Q62 27 62 55 Z " />
<glyph glyph-name="less" unicode="&#x3c;" horiz-adv-x="499" d="M33 323 L441 530 L441 449 L117 287 L441 125 L441 45 L33 251 L33 323 Z " />
<glyph glyph-name="equal" unicode="&#x3d;" horiz-adv-x="592" d="M68 351 L68 418 L524 418 L524 351 L68 351 Z M68 157 L68 225 L524 225 L524 157 L68 157 Z " />
<glyph glyph-name="greater" unicode="&#x3e;" horiz-adv-x="498" d="M465 251 L58 45 L58 125 L383 287 L58 449 L58 530 L465 323 L465 251 Z " />
<glyph glyph-name="question" unicode="&#x3f;" horiz-adv-x="500" d="M197 197 Q196 205 195.5 214 Q195 223 195 233 Q195 282 214.5 319 Q234 356 276 386 L320 417 Q348 437 364 465 Q380 493 380 526 Q380 550 372 572 Q364 594 348 611 Q332 628 308 638 Q284 648 252 648 Q217 648 191.5 636.5 Q166 625 149.5 605.5 Q133 586 125 561.5 Q117 537 117 512 Q117 499 119 485.5 Q121 472 125 462 L42 472 Q36 496 36 522 Q36 556 48.5 592 Q61 628 87.5 657 Q114 686 155 704.5 Q196 723 252 723 Q303 723 342.5 706.5 Q382 690 409 662.5 Q436 635 450 599.5 Q464 564 464 527 Q464 469 436 427 Q408 385 363 354 L320 323 Q294 304 283 277.5 Q272 251 272 224 Q272 219 272 212 Q272 205 274 197 L197 197 Z M177 55 Q177 80 194.5 97 Q212 114 237 114 Q261 114 278.5 97 Q296 80 296 55 Q296 29 278.5 12 Q261 -5 237 -5 Q212 -5 194.5 12 Q177 29 177 55 Z " />
<glyph glyph-name="at" unicode="&#x40;" horiz-adv-x="828" d="M603 140 Q565 140 538.5 158 Q512 176 506 210 Q484 176 452 157.5 Q420 139 385 139 Q352 139 324.5 151 Q297 163 277 185 Q257 207 246 238.5 Q235 270 235 308 Q235 356 250.5 398 Q266 440 292.5 471 Q319 502 354.5 520 Q390 538 431 538 Q465 538 496 520.5 Q527 503 539 468 L550 525 L617 525 L566 275 Q563 260 563 247 Q563 227 572.5 213.5 Q582 200 607 200 Q629 200 650.5 215.5 Q672 231 688 258 Q704 285 714 321 Q724 357 724 397 Q724 451 704 499 Q684 547 646.5 583 Q609 619 555.5 640 Q502 661 436 661 Q369 661 311.5 637 Q254 613 211.5 569.5 Q169 526 145 465.5 Q121 405 121 333 Q121 265 143 207 Q165 149 207 106.5 Q249 64 309 40 Q369 16 445 16 Q505 16 560.5 36 Q616 56 663 95 L698 49 Q675 27 645.5 9.5 Q616 -8 583 -20.5 Q550 -33 514.5 -39.5 Q479 -46 445 -46 Q358 -46 285.5 -18.5 Q213 9 161 59.5 Q109 110 80 179.5 Q51 249 51 333 Q51 419 81.5 490.5 Q112 562 164.5 614 Q217 666 287 694.5 Q357 723 435 723 Q513 723 578 697.5 Q643 672 690.5 628 Q738 584 764.5 524.5 Q791 465 791 397 Q791 341 775.5 294 Q760 247 734.5 213 Q709 179 674.5 159.5 Q640 140 603 140 Z M396 201 Q429 201 452.5 218 Q476 235 491 261 Q506 287 513 319 Q520 351 520 380 Q520 424 496.5 449 Q473 474 431 474 Q404 474 380.5 461 Q357 448 340.5 426 Q324 404 314.5 375.5 Q305 347 305 317 Q305 293 310 272 Q315 251 325.5 235.5 Q336 220 353.5 210.5 Q371 201 396 201 Z " />
<glyph glyph-name="A" unicode="A" horiz-adv-x="706" d="M515 207 L190 207 L111 0 L20 0 L304 709 L402 709 L687 0 L596 0 L515 207 Z M220 284 L485 284 L352 623 L220 284 Z " />
<glyph glyph-name="B" unicode="B" horiz-adv-x="613" d="M319 709 Q370 709 409.5 695 Q449 681 476.5 655.5 Q504 630 518.5 595 Q533 560 533 518 Q533 461 503.5 421 Q474 381 426 364 Q456 356 480 339.5 Q504 323 520.5 300.5 Q537 278 546 250 Q555 222 555 192 Q555 150 539 114.5 Q523 79 494.5 53.5 Q466 28 426 14 Q386 0 337 0 L98 0 L98 709 L319 709 Z M319 394 Q378 394 413.5 427.5 Q449 461 449 514 Q449 570 412 602.5 Q375 635 308 635 L182 635 L182 394 L319 394 Z M327 74 Q392 74 431.5 107 Q471 140 471 197 Q471 253 435 287.5 Q399 322 334 322 L182 322 L182 74 L327 74 Z " />
<glyph glyph-name="C" unicode="C" horiz-adv-x="746" d="M399 -14 Q331 -14 268.5 10.5 Q206 35 157 82 Q108 129 79 197.5 Q50 266 50 355 Q50 444 80 512.5 Q110 581 159 628 Q208 675 270.5 699 Q333 723 399 723 Q459 723 510 707 Q561 691 601 661.5 Q641 632 668.5 590.5 Q696 549 709 498 L631 471 Q611 555 550.5 600.5 Q490 646 399 646 Q348 646 300.5 627.5 Q253 609 216 572.5 Q179 536 156.5 481.5 Q134 427 134 355 Q134 283 156.5 228 Q179 173 216 136.5 Q253 100 300.5 81.5 Q348 63 399 63 Q446 63 485 76.5 Q524 90 554 114 Q584 138 604.5 170.5 Q625 203 636 241 L710 214 Q696 164 668.5 122 Q641 80 601.5 50 Q562 20 511 3 Q460 -14 399 -14 Z " />
<glyph glyph-name="D" unicode="D" horiz-adv-x="721" d="M331 74 Q383 74 429 91.5 Q475 109 510 144 Q545 179 565.5 231 Q586 283 586 353 Q586 423 566 476 Q546 529 511.5 564 Q477 599 431 617 Q385 635 333 635 L182 635 L182 74 L331 74 Z M98 0 L98 709 L333 709 Q400 709 461.5 686 Q523 663 569 618 Q615 573 642.5 506.5 Q670 440 670 353 Q670 266 642.5 200 Q615 134 568 89.5 Q521 45 459.5 22.5 Q398 0 331 0 L98 0 Z " />
<glyph glyph-name="E" unicode="E" horiz-adv-x="578" d="M98 0 L98 709 L523 709 L523 632 L182 632 L182 393 L492 393 L492 316 L182 316 L182 77 L523 77 L523 0 L98 0 Z " />
<glyph glyph-name="F" unicode="F" horiz-adv-x="571" d="M98 0 L98 709 L524 709 L524 632 L182 632 L182 383 L493 383 L493 306 L182 306 L182 0 L98 0 Z " />
<glyph glyph-name="G" unicode="G" horiz-adv-x="771" d="M638 0 L630 115 Q619 93 599 70 Q579 47 549 28.5 Q519 10 479.5 -2 Q440 -14 390 -14 Q325 -14 264 10 Q203 34 155.5 80.5 Q108 127 79.5 196 Q51 265 51 355 Q51 445 80.5 513.5 Q110 582 159 628.5 Q208 675 270.5 699 Q333 723 398 723 Q455 723 505.5 707.5 Q556 692 596 664 Q636 636 665.5 597 Q695 558 710 510 L634 477 Q609 557 547.5 601.5 Q486 646 398 646 Q348 646 300.5 628 Q253 610 216.5 573.5 Q180 537 157.5 482.5 Q135 428 135 355 Q135 282 157 227 Q179 172 215 135.5 Q251 99 297.5 81 Q344 63 393 63 Q456 63 500 83.5 Q544 104 571.5 134.5 Q599 165 611.5 200.5 Q624 236 625 266 L372 266 L372 343 L706 343 L706 0 L638 0 Z " />
<glyph glyph-name="H" unicode="H" horiz-adv-x="743" d="M561 0 L561 322 L182 322 L182 0 L98 0 L98 709 L182 709 L182 399 L561 399 L561 709 L645 709 L645 0 L561 0 Z " />
<glyph glyph-name="I" unicode="I" horiz-adv-x="280" d="M98 0 L98 709 L182 709 L182 0 L98 0 Z " />
<glyph glyph-name="J" unicode="J" horiz-adv-x="545" d="M30 255 L114 274 L114 212 Q114 137 149.5 100 Q185 63 244 63 Q304 63 337 101 Q370 139 370 206 L370 709 L454 709 L454 211 Q454 164 440 123 Q426 82 399 51.5 Q372 21 333 3.5 Q294 -14 245 -14 Q194 -14 154.5 2 Q115 18 87 47 Q59 76 44.5 117.5 Q30 159 30 210 L30 255 Z " />
<glyph glyph-name="K" unicode="K" horiz-adv-x="654" d="M292 333 L182 216 L182 0 L98 0 L98 709 L182 709 L182 327 L531 709 L642 709 L347 394 L646 0 L541 0 L292 333 Z " />
<glyph glyph-name="L" unicode="L" horiz-adv-x="546" d="M98 0 L98 709 L182 709 L182 77 L526 77 L526 0 L98 0 Z " />
<glyph glyph-name="M" unicode="M" horiz-adv-x="953" d="M771 0 L771 577 L514 0 L437 0 L182 577 L182 0 L98 0 L98 709 L213 709 L476 112 L741 709 L855 709 L855 0 L771 0 Z " />
<glyph glyph-name="N" unicode="N" horiz-adv-x="770" d="M584 0 L182 600 L182 0 L98 0 L98 709 L208 709 L588 141 L588 709 L672 709 L672 0 L584 0 Z " />
<glyph glyph-name="O" unicode="O" horiz-adv-x="802" d="M134 355 Q134 283 156.5 228 Q179 173 216 136.5 Q253 100 301.5 81.5 Q350 63 401 63 Q453 63 501 81.5 Q549 100 586 136.5 Q623 173 645.5 228 Q668 283 668 355 Q668 427 645.5 481.5 Q623 536 586 572.5 Q549 609 501 627.5 Q453 646 401 646 Q350 646 301.5 627.5 Q253 609 216 572.5 Q179 536 156.5 481.5 Q134 427 134 355 Z M50 355 Q50 444 80 512.5 Q110 581 159.5 628 Q209 675 272 699 Q335 723 401 723 Q467 723 530.5 699 Q594 675 643 628 Q692 581 722 512.5 Q752 444 752 355 Q752 266 722 197.5 Q692 129 643 82 Q594 35 530.5 10.5 Q467 -14 401 -14 Q335 -14 272 10.5 Q209 35 159.5 82 Q110 129 80 197.5 Q50 266 50 355 Z " />
<glyph glyph-name="P" unicode="P" horiz-adv-x="594" d="M332 369 Q401 369 440 405 Q479 441 479 500 Q479 561 440 597.5 Q401 634 332 634 L182 634 L182 369 L332 369 Z M182 294 L182 0 L98 0 L98 709 L345 709 Q394 709 434.5 693 Q475 677 503.5 649 Q532 621 547.5 583 Q563 545 563 501 Q563 456 547.5 418.5 Q532 381 503.5 353 Q475 325 434.5 309.5 Q394 294 345 294 L182 294 Z " />
<glyph glyph-name="Q" unicode="Q" horiz-adv-x="802" d="M593 42 Q550 14 501 0 Q452 -14 401 -14 Q335 -14 272 10.5 Q209 35 159.5 82 Q110 129 80 197.5 Q50 266 50 355 Q50 444 80 512.5 Q110 581 159.5 628 Q209 675 272 699 Q335 723 401 723 Q467 723 530.5 699 Q594 675 643 628 Q692 581 722 512.5 Q752 444 752 355 Q752 269 725 203 Q698 137 652 91 L739 -6 L681 -56 L593 42 Z M401 63 Q439 63 474 72 Q509 81 540 101 L410 247 L468 297 L599 150 Q631 187 649.5 238 Q668 289 668 355 Q668 427 645.5 481.5 Q623 536 586 572.5 Q549 609 501 627.5 Q453 646 401 646 Q350 646 301.5 627.5 Q253 609 216 572.5 Q179 536 156.5 481.5 Q134 427 134 355 Q134 283 156.5 228 Q179 173 216 136.5 Q253 100 301.5 81.5 Q350 63 401 63 Z " />
<glyph glyph-name="R" unicode="R" horiz-adv-x="622" d="M305 297 L182 297 L182 0 L98 0 L98 709 L356 709 Q405 709 444.5 693 Q484 677 512 649 Q540 621 555 583 Q570 545 570 502 Q570 424 524 370 Q478 316 397 303 L569 0 L471 0 L305 297 Z M343 372 Q408 372 447 407 Q486 442 486 502 Q486 562 447 598 Q408 634 343 634 L182 634 L182 372 L343 372 Z " />
<glyph glyph-name="S" unicode="S" horiz-adv-x="589" d="M458 521 Q454 543 443 566 Q432 589 412.5 607 Q393 625 364.5 636.5 Q336 648 298 648 Q267 648 240.5 638.5 Q214 629 194 612 Q174 595 162.5 572 Q151 549 151 522 Q151 479 177.5 450 Q204 421 253 410 L357 387 Q443 368 491 317 Q539 266 539 191 Q539 150 522 113 Q505 76 474 47.5 Q443 19 398 2.5 Q353 -14 298 -14 Q236 -14 190 4.5 Q144 23 111.5 52.5 Q79 82 61 120 Q43 158 38 197 L117 222 Q120 190 133 161.5 Q146 133 168.5 110.5 Q191 88 223.5 75 Q256 62 298 62 Q375 62 415 97.5 Q455 133 455 184 Q455 228 426 259.5 Q397 291 340 304 L236 327 Q199 335 168 351 Q137 367 114.5 391 Q92 415 79.5 446.5 Q67 478 67 517 Q67 559 85 596 Q103 633 134 661.5 Q165 690 207 706.5 Q249 723 297 723 Q354 723 395.5 707 Q437 691 465.5 666 Q494 641 510 610 Q526 579 533 548 L458 521 Z " />
<glyph glyph-name="T" unicode="T" horiz-adv-x="607" d="M345 632 L345 0 L262 0 L262 632 L19 632 L19 709 L588 709 L588 632 L345 632 Z " />
<glyph glyph-name="U" unicode="U" horiz-adv-x="682" d="M341 -14 Q287 -14 241 2.5 Q195 19 161.5 51 Q128 83 109 130.5 Q90 178 90 240 L90 709 L174 709 L174 242 Q174 156 217 109.5 Q260 63 341 63 Q422 63 465 109.5 Q508 156 508 242 L508 709 L592 709 L592 240 Q592 178 573 130.5 Q554 83 520.5 51 Q487 19 441 2.5 Q395 -14 341 -14 Z " />
<glyph glyph-name="V" unicode="V" horiz-adv-x="666" d="M557 709 L645 709 L375 0 L291 0 L22 709 L111 709 L333 105 L557 709 Z " />
<glyph glyph-name="W" unicode="W" horiz-adv-x="1002" d="M726 129 L895 709 L981 709 L771 0 L686 0 L501 595 L316 0 L231 0 L21 709 L107 709 L276 129 L455 709 L547 709 L726 129 Z " />
<glyph glyph-name="X" unicode="X" horiz-adv-x="613" d="M356 355 L594 0 L494 0 L307 288 L117 0 L16 0 L257 355 L18 709 L120 709 L307 420 L495 709 L596 709 L356 355 Z " />
<glyph glyph-name="Y" unicode="Y" horiz-adv-x="632" d="M25 709 L123 709 L316 380 L509 709 L607 709 L358 303 L358 0 L274 0 L274 303 L25 709 Z " />
<glyph glyph-name="Z" unicode="Z" horiz-adv-x="629" d="M41 0 L41 84 L482 632 L50 632 L50 709 L582 709 L582 627 L140 77 L587 77 L587 0 L41 0 Z " />
<glyph glyph-name="bracketleft" unicode="&#x5b;" horiz-adv-x="280" d="M75 -145 L75 782 L251 782 L251 717 L145 717 L145 -80 L251 -80 L251 -145 L75 -145 Z " />
<glyph glyph-name="backslash" unicode="&#x5c;" horiz-adv-x="478" d="M28 709 L106 709 L449 0 L371 0 L28 709 Z " />
<glyph glyph-name="bracketright" unicode="&#x5d;" horiz-adv-x="280" d="M29 -145 L29 -80 L135 -80 L135 717 L29 717 L29 782 L205 782 L205 -145 L29 -145 Z " />
<glyph glyph-name="asciicircum" unicode="&#x5e;" horiz-adv-x="552" d="M421 354 L276 627 L131 354 L47 354 L240 709 L311 709 L505 354 L421 354 Z " />
<glyph glyph-name="underscore" unicode="&#x5f;" horiz-adv-x="521" d="M5 -67 L5 0 L516 0 L516 -67 L5 -67 Z " />
<glyph glyph-name="grave" unicode="&#x60;" horiz-adv-x="269" d="M40 684 L142 684 L229 541 L163 541 L40 684 Z " />
<glyph glyph-name="a" unicode="a" horiz-adv-x="512" d="M44 127 Q44 190 84 225.5 Q124 261 187 270 L316 289 Q342 293 350.5 303.5 Q359 314 359 330 Q359 371 332 398 Q305 425 248 425 Q195 425 164.5 396.5 Q134 368 129 322 L53 340 Q57 374 73 402 Q89 430 114.5 450.5 Q140 471 173.5 482 Q207 493 246 493 Q297 493 333.5 479.5 Q370 466 393.5 442.5 Q417 419 428 388 Q439 357 439 322 L439 80 Q439 50 441 30.5 Q443 11 445 0 L367 0 Q365 8 363 26 Q361 44 361 72 Q353 57 339.5 42 Q326 27 306 14.5 Q286 2 260 -6 Q234 -14 202 -14 Q165 -14 135.5 -2 Q106 10 86 29.5 Q66 49 55 74.5 Q44 100 44 127 Z M212 54 Q243 54 270 63 Q297 72 316.5 90 Q336 108 347.5 136 Q359 164 359 202 L359 234 L203 211 Q168 206 146 186 Q124 166 124 131 Q124 102 147.5 78 Q171 54 212 54 Z " />
<glyph glyph-name="b" unicode="b" horiz-adv-x="586" d="M78 0 L78 723 L158 723 L158 401 Q166 418 180.5 434.5 Q195 451 216 464 Q237 477 263.5 485 Q290 493 322 493 Q375 493 416 473 Q457 453 484.5 419 Q512 385 526 338.5 Q540 292 540 240 Q540 186 525 140 Q510 94 482 59.5 Q454 25 413 5.5 Q372 -14 320 -14 Q260 -14 218.5 13 Q177 40 156 79 L156 0 L78 0 Z M308 58 Q342 58 370.5 71.5 Q399 85 418.5 109 Q438 133 449 166.5 Q460 200 460 240 Q460 280 449.5 313 Q439 346 419 370 Q399 394 371 407.5 Q343 421 308 421 Q273 421 245 407.5 Q217 394 197 370 Q177 346 166.5 313 Q156 280 156 240 Q156 200 167 166.5 Q178 133 197.5 109 Q217 85 245 71.5 Q273 58 308 58 Z " />
<glyph glyph-name="c" unicode="c" horiz-adv-x="532" d="M282 421 Q250 421 222 409 Q194 397 172 374 Q150 351 137.5 317 Q125 283 125 240 Q125 197 137.5 163 Q150 129 172 106 Q194 83 222.5 70.5 Q251 58 283 58 Q317 58 341.5 68.5 Q366 79 383 95.5 Q400 112 410.5 130.5 Q421 149 426 166 L496 135 Q487 108 470 81.5 Q453 55 427 34 Q401 13 365 -0.5 Q329 -14 283 -14 Q231 -14 187.5 5 Q144 24 112.5 58 Q81 92 63 138.5 Q45 185 45 240 Q45 296 63 342.5 Q81 389 113 422.5 Q145 456 188 474.5 Q231 493 282 493 Q328 493 364 480 Q400 467 426 446 Q452 425 468 397.5 Q484 370 492 342 L420 311 Q415 330 405 349.5 Q395 369 378.5 385 Q362 401 338 411 Q314 421 282 421 Z " />
<glyph glyph-name="d" unicode="d" horiz-adv-x="581" d="M425 82 Q417 64 403 47 Q389 30 369.5 16.5 Q350 3 324.5 -5.5 Q299 -14 268 -14 Q216 -14 175 5.5 Q134 25 105.5 59.5 Q77 94 61.5 140.5 Q46 187 46 240 Q46 292 62 338 Q78 384 107 418.5 Q136 453 177 473 Q218 493 268 493 Q302 493 328.5 484.5 Q355 476 374 462.5 Q393 449 405 433 Q417 417 423 402 L423 723 L503 723 L503 90 Q503 54 504.5 31 Q506 8 508 0 L430 0 Q428 8 426.5 27 Q425 46 425 69 L425 82 Z M275 58 Q309 58 336.5 71.5 Q364 85 383.5 109 Q403 133 414 166.5 Q425 200 425 240 Q425 280 414.5 313 Q404 346 384.5 370 Q365 394 337 407.5 Q309 421 275 421 Q241 421 213.5 407.5 Q186 394 166.5 370 Q147 346 136.5 313 Q126 280 126 240 Q126 200 136.5 166.5 Q147 133 166.5 109 Q186 85 213.5 71.5 Q241 58 275 58 Z " />
<glyph glyph-name="e" unicode="e" horiz-adv-x="541" d="M415 286 Q413 343 377.5 382.5 Q342 422 273 422 Q242 422 216 410.5 Q190 399 171.5 380.5 Q153 362 142 337.5 Q131 313 129 286 L415 286 Z M495 136 Q485 105 466 77.5 Q447 50 420 30 Q393 10 358.5 -2 Q324 -14 282 -14 Q234 -14 191 3 Q148 20 115.5 53 Q83 86 64 133.5 Q45 181 45 241 Q45 298 63.5 344.5 Q82 391 113 424 Q144 457 185.5 475 Q227 493 272 493 Q326 493 368.5 475 Q411 457 439.5 424.5 Q468 392 483 346.5 Q498 301 498 246 Q498 238 497.5 230.5 Q497 223 496 218 L127 218 L127 214 Q127 180 139 151.5 Q151 123 172 102 Q193 81 221.5 69.5 Q250 58 282 58 Q343 58 377.5 88 Q412 118 426 161 L495 136 Z " />
<glyph glyph-name="f" unicode="f" horiz-adv-x="338" d="M194 407 L194 0 L114 0 L114 407 L20 407 L20 479 L114 479 L114 568 Q114 607 125.5 637 Q137 667 157.5 687.5 Q178 708 205.5 718 Q233 728 265 728 Q287 728 301 724.5 Q315 721 320 718 L320 649 Q315 651 304.5 653.5 Q294 656 277 656 Q262 656 247.5 651.5 Q233 647 221 636.5 Q209 626 201.5 609 Q194 592 194 566 L194 479 L318 479 L318 407 L194 407 Z " />
<glyph glyph-name="g" unicode="g" horiz-adv-x="572" d="M122 -8 Q128 -61 165 -96.5 Q202 -132 261 -132 Q303 -132 332 -120 Q361 -108 379.5 -86.5 Q398 -65 406 -34.5 Q414 -4 414 33 L414 110 Q397 75 359 48 Q321 21 262 21 Q214 21 174.5 39 Q135 57 106.5 88.5 Q78 120 62 163 Q46 206 46 256 Q46 306 62 349.5 Q78 393 106.5 425 Q135 457 175 475 Q215 493 264 493 Q321 493 359 469.5 Q397 446 415 411 L415 479 L494 479 L494 36 Q494 -8 483 -51 Q472 -94 445 -128 Q418 -162 373 -183 Q328 -204 261 -204 Q217 -204 179.5 -190.5 Q142 -177 113.5 -153.5 Q85 -130 67 -97.5 Q49 -65 45 -27 L122 -8 Z M418 257 Q418 332 378 376.5 Q338 421 272 421 Q206 421 166 376.5 Q126 332 126 257 Q126 182 166 137.5 Q206 93 272 93 Q338 93 378 137.5 Q418 182 418 257 Z " />
<glyph glyph-name="h" unicode="h" horiz-adv-x="549" d="M158 0 L78 0 L78 723 L158 723 L158 415 Q181 453 220 473 Q259 493 306 493 Q349 493 381 478.5 Q413 464 434.5 439 Q456 414 466.5 380 Q477 346 477 307 L477 0 L397 0 L397 295 Q397 321 390.5 344 Q384 367 370 384 Q356 401 333.5 411 Q311 421 278 421 Q249 421 227 410.5 Q205 400 189.5 381.5 Q174 363 166 338.5 Q158 314 158 286 L158 0 Z " />
<glyph glyph-name="i" unicode="i" horiz-adv-x="236" d="M78 0 L78 479 L158 479 L158 0 L78 0 Z M58 668 Q58 693 75.5 710.5 Q93 728 118 728 Q143 728 160.5 710.5 Q178 693 178 668 Q178 643 160.5 625.5 Q143 608 118 608 Q93 608 75.5 625.5 Q58 643 58 668 Z " />
<glyph glyph-name="j" unicode="j" horiz-adv-x="236" d="M78 479 L158 479 L158 -59 Q158 -125 123 -164.5 Q88 -204 27 -204 Q5 -204 -7 -201.5 Q-19 -199 -27 -196 L-27 -126 Q-15 -132 7 -132 Q45 -132 61.5 -113 Q78 -94 78 -56 L78 479 Z M58 668 Q58 693 75.5 710.5 Q93 728 118 728 Q143 728 160.5 710.5 Q178 693 178 668 Q178 643 160.5 625.5 Q143 608 118 608 Q93 608 75.5 625.5 Q58 643 58 668 Z " />
<glyph glyph-name="k" unicode="k" horiz-adv-x="512" d="M288 276 L497 0 L396 0 L232 221 L158 145 L158 0 L78 0 L78 723 L158 723 L158 251 L382 479 L492 479 L288 276 Z " />
<glyph glyph-name="l" unicode="l" horiz-adv-x="236" d="M78 0 L78 723 L158 723 L158 0 L78 0 Z " />
<glyph glyph-name="m" unicode="m" horiz-adv-x="849" d="M156 411 Q176 449 216 471 Q256 493 303 493 Q353 493 392.5 468 Q432 443 450 395 Q476 446 518.5 469.5 Q561 493 612 493 Q645 493 674.5 481.5 Q704 470 727 447.5 Q750 425 763.5 391.5 Q777 358 777 313 L777 0 L697 0 L697 304 Q697 329 690.5 350 Q684 371 670.5 387 Q657 403 636 412 Q615 421 587 421 Q560 421 538.5 411 Q517 401 501 383 Q485 365 476.5 341.5 Q468 318 468 291 L468 0 L388 0 L388 304 Q388 354 361 387.5 Q334 421 277 421 Q250 421 228 411 Q206 401 190.5 383.5 Q175 366 166.5 342 Q158 318 158 290 L158 0 L78 0 L78 479 L156 479 L156 411 Z " />
<glyph glyph-name="n" unicode="n" horiz-adv-x="549" d="M158 0 L78 0 L78 479 L156 479 L156 407 Q179 449 218.5 471 Q258 493 306 493 Q349 493 381 478.5 Q413 464 434.5 439 Q456 414 466.5 380 Q477 346 477 307 L477 0 L397 0 L397 295 Q397 321 390.5 344 Q384 367 370 384 Q356 401 333.5 411 Q311 421 278 421 Q249 421 226.5 410 Q204 399 189 380 Q174 361 166 335.5 Q158 310 158 282 L158 0 Z " />
<glyph glyph-name="o" unicode="o" horiz-adv-x="570" d="M285 493 Q337 493 381 474 Q425 455 457 421.5 Q489 388 507 341.5 Q525 295 525 240 Q525 184 507 137.5 Q489 91 457 57.5 Q425 24 381 5 Q337 -14 285 -14 Q233 -14 189 5 Q145 24 113 57.5 Q81 91 63 137.5 Q45 184 45 240 Q45 295 63 341.5 Q81 388 113 421.5 Q145 455 189 474 Q233 493 285 493 Z M285 421 Q253 421 224 409 Q195 397 173 374 Q151 351 138 317 Q125 283 125 240 Q125 196 138 162 Q151 128 173 105 Q195 82 224 70 Q253 58 285 58 Q317 58 346 70 Q375 82 397 105 Q419 128 432 162 Q445 196 445 240 Q445 283 432 317 Q419 351 397 374 Q375 397 346 409 Q317 421 285 421 Z " />
<glyph glyph-name="p" unicode="p" horiz-adv-x="586" d="M78 -190 L78 479 L156 479 L156 399 Q175 436 216.5 464.5 Q258 493 322 493 Q375 493 415.5 473.5 Q456 454 484 420 Q512 386 526 340 Q540 294 540 240 Q540 186 525 140 Q510 94 481.5 59.5 Q453 25 412.5 5.5 Q372 -14 320 -14 Q258 -14 217.5 13 Q177 40 158 74 L158 -190 L78 -190 Z M308 58 Q342 58 370.5 71.5 Q399 85 418.5 109 Q438 133 449 166.5 Q460 200 460 240 Q460 280 449.5 313 Q439 346 419 370 Q399 394 371 407.5 Q343 421 308 421 Q273 421 245 407.5 Q217 394 197 370 Q177 346 166.5 313 Q156 280 156 240 Q156 200 167 166.5 Q178 133 197.5 109 Q217 85 245 71.5 Q273 58 308 58 Z " />
<glyph glyph-name="q" unicode="q" horiz-adv-x="584" d="M426 -190 L426 75 Q407 39 367.5 12.5 Q328 -14 269 -14 Q218 -14 177 6 Q136 26 106.5 60.5 Q77 95 61.5 141 Q46 187 46 240 Q46 292 61 338 Q76 384 104.5 418.5 Q133 453 174 473 Q215 493 267 493 Q300 493 326.5 484.5 Q353 476 373 462.5 Q393 449 406.5 432 Q420 415 428 399 L428 479 L506 479 L506 -190 L426 -190 Z M276 58 Q310 58 338 71.5 Q366 85 385.5 109 Q405 133 416 166.5 Q427 200 427 240 Q427 280 416.5 313 Q406 346 386 370 Q366 394 338 407.5 Q310 421 276 421 Q241 421 213.5 407.5 Q186 394 166.5 370 Q147 346 136.5 313 Q126 280 126 240 Q126 200 136.5 166.5 Q147 133 166.5 109 Q186 85 214 71.5 Q242 58 276 58 Z " />
<glyph glyph-name="r" unicode="r" horiz-adv-x="352" d="M335 397 Q325 400 314.5 401 Q304 402 293 402 Q233 402 195.5 365.5 Q158 329 158 248 L158 0 L78 0 L78 479 L156 479 L156 393 Q168 419 184.5 437 Q201 455 220.5 466 Q240 477 260.5 481.5 Q281 486 301 486 Q311 486 320.5 485 Q330 484 335 482 L335 397 Z " />
<glyph glyph-name="s" unicode="s" horiz-adv-x="448" d="M111 151 Q116 109 146.5 81.5 Q177 54 231 54 Q274 54 299 75 Q324 96 324 127 Q324 154 304 171.5 Q284 189 251 197 L173 215 Q118 228 86 262 Q54 296 54 348 Q54 378 67.5 404.5 Q81 431 103.5 450.5 Q126 470 156.5 481.5 Q187 493 221 493 Q267 493 299.5 480 Q332 467 352.5 447.5 Q373 428 384 405.5 Q395 383 399 365 L328 339 Q326 351 319.5 366 Q313 381 300.5 394 Q288 407 268.5 416 Q249 425 221 425 Q183 425 157.5 404 Q132 383 132 353 Q132 303 195 288 L273 270 Q336 256 369.5 220.5 Q403 185 403 131 Q403 105 392 79 Q381 53 359 32.5 Q337 12 305 -1 Q273 -14 230 -14 Q183 -14 148 -0.5 Q113 13 90 33.5 Q67 54 54.5 78.5 Q42 103 39 126 L111 151 Z " />
<glyph glyph-name="t" unicode="t" horiz-adv-x="339" d="M194 479 L307 479 L307 407 L194 407 L194 142 Q194 104 211.5 85.5 Q229 67 267 67 Q278 67 289.5 68.5 Q301 70 307 72 L307 4 Q300 2 283.5 -1.5 Q267 -5 244 -5 Q184 -5 149 30 Q114 65 114 131 L114 407 L18 407 L18 479 L49 479 Q86 479 102.5 498.5 Q119 518 119 552 L119 631 L194 631 L194 479 Z " />
<glyph glyph-name="u" unicode="u" horiz-adv-x="550" d="M396 65 Q379 28 339.5 7 Q300 -14 252 -14 Q208 -14 174.5 1 Q141 16 118.5 42 Q96 68 84 103 Q72 138 72 178 L72 479 L152 479 L152 191 Q152 165 158.5 141 Q165 117 179 98.5 Q193 80 215.5 69 Q238 58 270 58 Q330 58 361 95.5 Q392 133 392 190 L392 479 L472 479 L472 90 Q472 62 474 38 Q476 14 478 0 L401 0 Q399 8 397.5 25.5 Q396 43 396 61 L396 65 Z " />
<glyph glyph-name="v" unicode="v" horiz-adv-x="514" d="M298 0 L217 0 L24 479 L114 479 L258 93 L403 479 L489 479 L298 0 Z " />
<glyph glyph-name="w" unicode="w" horiz-adv-x="807" d="M446 479 L579 100 L693 479 L778 479 L622 0 L538 0 L404 382 L272 0 L187 0 L28 479 L114 479 L231 100 L363 479 L446 479 Z " />
<glyph glyph-name="x" unicode="x" horiz-adv-x="494" d="M201 245 L26 479 L123 479 L248 303 L374 479 L468 479 L293 245 L476 0 L380 0 L247 185 L114 0 L18 0 L201 245 Z " />
<glyph glyph-name="y" unicode="y" horiz-adv-x="523" d="M111 -190 L227 57 L21 479 L113 479 L271 140 L420 479 L507 479 L200 -190 L111 -190 Z " />
<glyph glyph-name="z" unicode="z" horiz-adv-x="472" d="M45 0 L45 70 L324 407 L48 407 L48 479 L423 479 L423 409 L144 72 L428 72 L428 0 L45 0 Z " />
<glyph glyph-name="braceleft" unicode="&#x7b;" horiz-adv-x="332" d="M19 355 Q41 356 60.5 362 Q80 368 94.5 380.5 Q109 393 117.5 412 Q126 431 126 458 L126 608 Q126 697 168 739.5 Q210 782 293 782 L304 782 L304 717 L293 717 Q238 717 217 691.5 Q196 666 196 612 L196 441 Q196 391 168 359 Q140 327 92 318 Q140 309 168 277 Q196 245 196 195 L196 24 Q196 -30 217 -55.5 Q238 -81 293 -81 L304 -81 L304 -146 L293 -146 Q210 -146 168 -103.5 Q126 -61 126 28 L126 178 Q126 205 117.5 224 Q109 243 94.5 255.5 Q80 268 60.5 274 Q41 280 19 281 L19 355 Z " />
<glyph glyph-name="bar" unicode="&#x7c;" horiz-adv-x="220" d="M75 -146 L75 782 L145 782 L145 -146 L75 -146 Z " />
<glyph glyph-name="braceright" unicode="&#x7d;" horiz-adv-x="332" d="M313 281 Q269 279 237.5 255 Q206 231 206 178 L206 28 Q206 -61 164 -103.5 Q122 -146 39 -146 L28 -146 L28 -81 L39 -81 Q94 -81 115 -55.5 Q136 -30 136 24 L136 195 Q136 245 164 277 Q192 309 240 318 Q192 327 164 359 Q136 391 136 441 L136 612 Q136 666 115 691.5 Q94 717 39 717 L28 717 L28 782 L39 782 Q122 782 164 739.5 Q206 697 206 608 L206 458 Q206 431 214.5 412 Q223 393 237.5 380.5 Q252 368 271.5 362 Q291 356 313 355 L313 281 Z " />
<glyph glyph-name="asciitilde" unicode="&#x7e;" horiz-adv-x="629" d="M275 270 Q244 286 216 286 Q187 286 163 271 Q139 256 119 230 L71 269 Q97 312 134 335 Q171 358 216 358 Q260 358 309 332 L355 307 Q386 289 417 289 Q475 289 512 344 L560 305 Q507 217 417 217 Q372 217 321 245 L275 270 Z " />
<glyph glyph-name="uni00A0" unicode="&#xa0;" horiz-adv-x="255" d="" />
<glyph glyph-name="exclamdown" unicode="&#xa1;" horiz-adv-x="228" d="M86 291 L142 291 L164 -221 L64 -221 L86 291 Z M173 433 Q173 408 155.5 391 Q138 374 113 374 Q89 374 71.5 391 Q54 408 54 433 Q54 459 71.5 476 Q89 493 113 493 Q138 493 155.5 476 Q173 459 173 433 Z " />
<glyph glyph-name="cent" unicode="&#xa2;" horiz-adv-x="522" d="M240 0 L240 95 Q198 101 162.5 121 Q127 141 101.5 172 Q76 203 62 242.5 Q48 282 48 328 Q48 374 62 414 Q76 454 101.5 484.5 Q127 515 162.5 534.5 Q198 554 240 561 L240 648 L305 648 L305 562 Q342 559 371.5 546 Q401 533 422.5 513.5 Q444 494 458 470.5 Q472 447 479 422 L411 394 Q402 425 377 454.5 Q352 484 305 492 L305 163 Q330 167 348.5 177 Q367 187 380.5 201 Q394 215 402.5 230.5 Q411 246 415 260 L483 232 Q475 208 460.5 185 Q446 162 423.5 142.5 Q401 123 371.5 109.5 Q342 96 305 93 L305 0 L240 0 Z M128 328 Q128 261 159.5 219.5 Q191 178 240 166 L240 489 Q192 477 160 436 Q128 395 128 328 Z " />
<glyph glyph-name="sterling" unicode="&#xa3;" horiz-adv-x="582" d="M133 353 Q122 381 110.5 411 Q99 441 99 478 Q99 518 113.5 551.5 Q128 585 154 609.5 Q180 634 215 648 Q250 662 292 662 Q347 662 385 646 Q423 630 446.5 604.5 Q470 579 481 547 Q492 515 494 484 L410 470 Q408 528 377 558.5 Q346 589 294 589 Q248 589 215 559.5 Q182 530 182 478 Q182 446 193.5 415.5 Q205 385 219 353 L409 353 L409 279 L241 279 Q245 263 245 243 Q245 189 218.5 144.5 Q192 100 148 74 L361 74 Q388 74 408 83.5 Q428 93 440.5 108.5 Q453 124 459.5 145 Q466 166 467 190 L547 178 Q546 139 534.5 106.5 Q523 74 502 50 Q481 26 450.5 13 Q420 0 381 0 L53 0 L53 81 Q103 104 133.5 146.5 Q164 189 164 234 Q164 256 158 279 L61 279 L61 353 L133 353 Z " />
<glyph glyph-name="currency" unicode="&#xa4;" horiz-adv-x="584" d="M292 22 Q257 22 227.5 33 Q198 44 172 64 L99 -12 L49 38 L121 114 Q103 140 92.5 170.5 Q82 201 82 236 Q82 271 93 303.5 Q104 336 123 362 L49 439 L100 489 L175 412 Q201 430 230 440 Q259 450 292 450 Q325 450 354 440 Q383 430 409 412 L484 489 L535 439 L461 362 Q480 336 491 303.5 Q502 271 502 236 Q502 201 491.5 170.5 Q481 140 463 114 L535 38 L485 -12 L412 64 Q386 44 356.5 33 Q327 22 292 22 Z M292 380 Q263 380 237.5 369 Q212 358 193.5 339 Q175 320 164.5 293.5 Q154 267 154 236 Q154 205 164.5 178.5 Q175 152 193.5 133 Q212 114 237.5 103 Q263 92 292 92 Q321 92 346.5 103 Q372 114 390.5 133 Q409 152 419.5 178.5 Q430 205 430 236 Q430 267 419.5 293.5 Q409 320 390.5 339 Q372 358 346.5 369 Q321 380 292 380 Z " />
<glyph glyph-name="yen" unicode="&#xa5;" horiz-adv-x="592" d="M339 155 L339 0 L256 0 L256 155 L81 155 L81 219 L256 219 L256 300 L81 300 L81 364 L216 364 L34 648 L132 648 L297 372 L462 648 L557 648 L378 364 L514 364 L514 300 L339 300 L339 219 L514 219 L514 155 L339 155 Z " />
<glyph glyph-name="brokenbar" unicode="&#xa6;" horiz-adv-x="230" d="M150 782 L150 382 L80 382 L80 782 L150 782 Z M150 254 L150 -146 L80 -146 L80 254 L150 254 Z " />
<glyph glyph-name="section" unicode="&#xa7;" horiz-adv-x="510" d="M445 244 Q445 221 437.5 200.5 Q430 180 417.5 164 Q405 148 389 136 Q373 124 357 118 Q401 91 425 53.5 Q449 16 449 -28 Q449 -68 433 -100.5 Q417 -133 390 -155.5 Q363 -178 327.5 -190.5 Q292 -203 252 -203 Q160 -203 111.5 -153 Q63 -103 61 -22 L135 -6 Q136 -64 166 -100.5 Q196 -137 254 -137 Q303 -137 335.5 -110.5 Q368 -84 368 -36 Q368 -4 350 20 Q332 44 302 60 L198 115 Q171 129 147 144.5 Q123 160 105 178.5 Q87 197 76.5 221 Q66 245 66 277 Q66 300 74 320.5 Q82 341 94.5 357 Q107 373 123 384 Q139 395 154 401 Q109 428 85.5 465.5 Q62 503 62 548 Q62 588 78 620.5 Q94 653 121 675.5 Q148 698 183.5 710.5 Q219 723 258 723 Q304 723 339 709 Q374 695 398 671 Q422 647 435 614 Q448 581 448 543 L373 527 Q372 585 342.5 621 Q313 657 256 657 Q208 657 175.5 629.5 Q143 602 143 556 Q143 523 160 500.5 Q177 478 209 461 L312 406 Q339 392 363 376.5 Q387 361 405.5 342 Q424 323 434.5 299 Q445 275 445 244 Z M202 376 Q179 368 160.5 344.5 Q142 321 142 289 Q142 260 159.5 238 Q177 216 212 197 L308 145 Q329 153 348 176 Q367 199 367 231 Q367 260 350 282.5 Q333 305 298 324 L202 376 Z " />
<glyph glyph-name="dieresis" unicode="&#xa8;" horiz-adv-x="366" d="M40 616 Q40 638 55 653 Q70 668 92 668 Q114 668 129 653 Q144 638 144 616 Q144 594 129 579 Q114 564 92 564 Q70 564 55 579 Q40 594 40 616 Z M222 616 Q222 638 237 653 Q252 668 274 668 Q296 668 311 653 Q326 638 326 616 Q326 594 311 579 Q296 564 274 564 Q252 564 237 579 Q222 594 222 616 Z " />
<glyph glyph-name="copyright" unicode="&#xa9;" horiz-adv-x="832" d="M417 501 Q391 501 368 491 Q345 481 328 462.5 Q311 444 300.5 416.5 Q290 389 290 354 Q290 319 300 292 Q310 265 327.5 246 Q345 227 368.5 217.5 Q392 208 418 208 Q446 208 466 216.5 Q486 225 500 237.5 Q514 250 522.5 265 Q531 280 535 294 L593 269 Q585 247 571 225.5 Q557 204 535 186.5 Q513 169 484 158 Q455 147 418 147 Q376 147 340 162.5 Q304 178 278 206 Q252 234 237.5 272 Q223 310 223 354 Q223 399 237.5 437 Q252 475 278 502.5 Q304 530 339.5 545.5 Q375 561 417 561 Q455 561 484.5 550.5 Q514 540 535 522.5 Q556 505 570 482.5 Q584 460 590 437 L530 413 Q526 429 517.5 445 Q509 461 495.5 473.5 Q482 486 462.5 493.5 Q443 501 417 501 Z M781 354 Q781 278 752.5 211 Q724 144 674.5 94 Q625 44 558.5 15 Q492 -14 416 -14 Q340 -14 273.5 15 Q207 44 157.5 94 Q108 144 79.5 211 Q51 278 51 354 Q51 430 79.5 497 Q108 564 157.5 614.5 Q207 665 273.5 694 Q340 723 416 723 Q492 723 558.5 694 Q625 665 674.5 614.5 Q724 564 752.5 497 Q781 430 781 354 Z M715 354 Q715 417 692 473.5 Q669 530 629 572 Q589 614 534 638.5 Q479 663 416 663 Q353 663 298 638.5 Q243 614 203 572 Q163 530 140 473.5 Q117 417 117 354 Q117 291 140 235 Q163 179 203 137 Q243 95 298 70.5 Q353 46 416 46 Q479 46 534 70.5 Q589 95 629 137 Q669 179 692 235 Q715 291 715 354 Z " />
<glyph glyph-name="ordfeminine" unicode="&#xaa;" horiz-adv-x="416" d="M57 401 Q57 446 86 470.5 Q115 495 159 502 L249 516 Q266 518 271.5 525.5 Q277 533 277 543 Q277 569 259.5 587 Q242 605 204 605 Q169 605 148 585.5 Q127 566 124 535 L64 549 Q69 596 106.5 627 Q144 658 203 658 Q240 658 266.5 648 Q293 638 309.5 621.5 Q326 605 333.5 583 Q341 561 341 536 L341 367 Q341 350 342.5 333 Q344 316 345 311 L284 311 Q282 317 281 329 Q280 341 280 358 Q268 338 241 320 Q214 302 171 302 Q144 302 123 310 Q102 318 87.5 332 Q73 346 65 363.5 Q57 381 57 401 Z M181 354 Q224 354 250.5 378.5 Q277 403 277 457 L277 475 L174 458 Q151 454 136.5 441 Q122 428 122 404 Q122 384 137 369 Q152 354 181 354 Z " />
<glyph glyph-name="guillemotleft" unicode="&#xab;" horiz-adv-x="491" d="M178 97 L45 288 L178 479 L257 479 L126 288 L257 97 L178 97 Z M362 97 L229 288 L362 479 L441 479 L310 288 L441 97 L362 97 Z " />
<glyph glyph-name="logicalnot" unicode="&#xac;" horiz-adv-x="569" d="M427 152 L427 350 L45 350 L45 420 L499 420 L499 152 L427 152 Z " />
<glyph glyph-name="uni00AD" unicode="&#xad;" horiz-adv-x="403" d="M68 252 L68 322 L335 322 L335 252 L68 252 Z " />
<glyph glyph-name="registered" unicode="&#xae;" horiz-adv-x="832" d="M423 367 Q459 367 479 384.5 Q499 402 499 433 Q499 465 479 482.5 Q459 500 423 500 L362 500 L362 367 L423 367 Z M362 156 L297 156 L297 557 L432 557 Q461 557 485.5 547.5 Q510 538 527.5 521.5 Q545 505 555 482.5 Q565 460 565 434 Q565 391 540 359 Q515 327 474 316 L567 156 L492 156 L405 310 L362 310 L362 156 Z M781 354 Q781 278 752.5 211 Q724 144 674.5 94 Q625 44 558.5 15 Q492 -14 416 -14 Q340 -14 273.5 15 Q207 44 157.5 94 Q108 144 79.5 211 Q51 278 51 354 Q51 430 79.5 497 Q108 564 157.5 614.5 Q207 665 273.5 694 Q340 723 416 723 Q492 723 558.5 694 Q625 665 674.5 614.5 Q724 564 752.5 497 Q781 430 781 354 Z M715 354 Q715 417 692 473.5 Q669 530 629 572 Q589 614 534 638.5 Q479 663 416 663 Q353 663 298 638.5 Q243 614 203 572 Q163 530 140 473.5 Q117 417 117 354 Q117 291 140 235 Q163 179 203 137 Q243 95 298 70.5 Q353 46 416 46 Q479 46 534 70.5 Q589 95 629 137 Q669 179 692 235 Q715 291 715 354 Z " />
<glyph glyph-name="overscore" unicode="&#xaf;" horiz-adv-x="345" d="M40 578 L40 648 L305 648 L305 578 L40 578 Z " />
<glyph glyph-name="degree" unicode="&#xb0;" horiz-adv-x="411" d="M119 506 Q119 468 144 442.5 Q169 417 205 417 Q243 417 267.5 442.5 Q292 468 292 506 Q292 544 267.5 569.5 Q243 595 205 595 Q169 595 144 569.5 Q119 544 119 506 Z M49 506 Q49 539 61.5 567.5 Q74 596 95 617 Q116 638 144.5 650 Q173 662 205 662 Q237 662 266 650 Q295 638 316.5 617 Q338 596 350.5 567.5 Q363 539 363 506 Q363 473 350.5 444.5 Q338 416 316.5 395 Q295 374 266 362 Q237 350 205 350 Q173 350 144.5 362 Q116 374 95 395 Q74 416 61.5 444.5 Q49 473 49 506 Z " />
<glyph glyph-name="plusminus" unicode="&#xb1;" horiz-adv-x="567" d="M248 381 L248 521 L318 521 L318 381 L500 381 L500 315 L318 315 L318 176 L248 176 L248 315 L67 315 L67 381 L248 381 Z M500 124 L500 57 L67 57 L67 124 L500 124 Z " />
<glyph glyph-name="twosuperior" unicode="&#xb2;" horiz-adv-x="343" d="M44 572 Q42 579 41.5 587 Q41 595 41 600 Q41 624 50 644.5 Q59 665 76 681 Q93 697 117.5 706 Q142 715 172 715 Q202 715 225.5 706 Q249 697 265.5 681.5 Q282 666 291 645.5 Q300 625 300 603 Q300 568 280.5 540.5 Q261 513 229 493 L157 448 Q143 439 132.5 427 Q122 415 120 401 L303 401 L303 345 L39 345 L39 354 Q39 397 58.5 433 Q78 469 121 495 L185 535 Q208 549 220.5 566 Q233 583 233 604 Q233 626 216.5 643 Q200 660 171 660 Q142 660 123.5 642.5 Q105 625 105 595 Q105 592 105.5 584.5 Q106 577 108 571 L44 572 Z " />
<glyph glyph-name="threesuperior" unicode="&#xb3;" horiz-adv-x="359" d="M122 563 L226 653 L44 653 L44 709 L311 709 L311 654 L205 564 Q209 565 212.5 565 Q216 565 219 565 Q238 565 256 557.5 Q274 550 288 536 Q302 522 310.5 502 Q319 482 319 456 Q319 432 309 410 Q299 388 280 372 Q261 356 235 346.5 Q209 337 177 337 Q145 337 120 345.5 Q95 354 76.5 368.5 Q58 383 47 402 Q36 421 32 441 L90 464 Q95 432 119 412.5 Q143 393 176 393 Q210 393 231 411.5 Q252 430 252 456 Q252 490 229 504 Q206 518 177 518 Q169 518 161.5 517 Q154 516 148 514 L122 563 Z " />
<glyph glyph-name="acute" unicode="&#xb4;" horiz-adv-x="269" d="M106 541 L40 541 L127 684 L229 684 L106 541 Z " />
<glyph glyph-name="mu" unicode="&#xb5;" horiz-adv-x="543" d="M395 65 Q377 28 337.5 7 Q298 -14 250 -14 Q184 -14 151 26 L151 -190 L71 -190 L71 479 L151 479 L151 190 Q151 164 157.5 140 Q164 116 178 97.5 Q192 79 214 68 Q236 57 268 57 Q328 57 359.5 94.5 Q391 132 391 189 L391 479 L471 479 L471 90 Q471 62 472.5 37 Q474 12 476 0 L399 0 Q397 8 396 25.5 Q395 43 395 62 L395 65 Z " />
<glyph glyph-name="paragraph" unicode="&#xb6;" horiz-adv-x="628" d="M318 -190 L248 -190 L248 324 L225 324 Q186 324 151 338.5 Q116 353 90 378.5 Q64 404 48.5 438.5 Q33 473 33 513 Q33 559 50 595 Q67 631 97 656.5 Q127 682 167.5 695.5 Q208 709 255 709 L586 709 L586 640 L490 640 L490 -190 L420 -190 L420 640 L318 640 L318 -190 Z " />
<glyph glyph-name="middot" unicode="&#xb7;" horiz-adv-x="262" d="M69 284 Q69 310 87 328 Q105 346 131 346 Q157 346 175 328 Q193 310 193 284 Q193 258 175 240 Q157 222 131 222 Q105 222 87 240 Q69 258 69 284 Z " />
<glyph glyph-name="cedilla" unicode="&#xb8;" horiz-adv-x="303" d="M91 -64 L139 12 L200 12 L158 -51 Q163 -49 166.5 -49 Q170 -49 173 -49 Q213 -49 238 -71 Q263 -93 263 -128 Q263 -163 235 -189 Q207 -215 149 -215 Q113 -215 84 -201 Q55 -187 40 -168 L73 -129 Q84 -140 103 -152.5 Q122 -165 149 -165 Q171 -165 186.5 -156 Q202 -147 202 -128 Q202 -112 189 -102 Q176 -92 152 -92 Q135 -92 120 -98 L91 -64 Z " />
<glyph glyph-name="onesuperior" unicode="&#xb9;" horiz-adv-x="227" d="M110 345 L110 600 L24 600 L24 638 Q61 641 85 661.5 Q109 682 114 709 L176 709 L176 345 L110 345 Z " />
<glyph glyph-name="ordmasculine" unicode="&#xba;" horiz-adv-x="442" d="M221 360 Q242 360 261.5 368 Q281 376 296 391 Q311 406 320 428.5 Q329 451 329 480 Q329 509 320 531.5 Q311 554 296 569 Q281 584 261.5 592 Q242 600 221 600 Q200 600 180.5 592 Q161 584 146 569 Q131 554 122 531.5 Q113 509 113 480 Q113 451 122 428.5 Q131 406 146 391 Q161 376 180.5 368 Q200 360 221 360 Z M221 302 Q183 302 151.5 315 Q120 328 97.5 351.5 Q75 375 62 408 Q49 441 49 480 Q49 519 62 552 Q75 585 97.5 608.5 Q120 632 151.5 645 Q183 658 221 658 Q258 658 290 645 Q322 632 344.5 608.5 Q367 585 380 552 Q393 519 393 480 Q393 441 380 408 Q367 375 344.5 351.5 Q322 328 290 315 Q258 302 221 302 Z " />
<glyph glyph-name="guillemotright" unicode="&#xbb;" horiz-adv-x="491" d="M234 97 L365 288 L234 479 L313 479 L446 288 L313 97 L234 97 Z M50 97 L181 288 L50 479 L129 479 L262 288 L129 97 L50 97 Z " />
<glyph glyph-name="onequarter" unicode="&#xbc;" horiz-adv-x="746" d="M129 284 L129 539 L43 539 L43 577 Q80 580 104 600.5 Q128 621 133 648 L195 648 L195 284 L129 284 Z M69 0 L538 648 L615 648 L148 0 L69 0 Z M389 140 L567 364 L643 364 L643 132 L709 132 L709 76 L643 76 L643 0 L576 0 L576 76 L389 76 L389 140 Z M576 288 L453 132 L576 132 L576 288 Z " />
<glyph glyph-name="onehalf" unicode="&#xbd;" horiz-adv-x="761" d="M128 284 L128 539 L42 539 L42 577 Q79 580 103 600.5 Q127 621 132 648 L194 648 L194 284 L128 284 Z M68 0 L537 648 L614 648 L147 0 L68 0 Z M456 227 Q454 234 453.5 242 Q453 250 453 255 Q453 279 462 299.5 Q471 320 488 336 Q505 352 529.5 361 Q554 370 584 370 Q614 370 637.5 361 Q661 352 677.5 336.5 Q694 321 703 300.5 Q712 280 712 258 Q712 223 692.5 195.5 Q673 168 641 148 L569 103 Q555 94 544.5 82 Q534 70 532 56 L715 56 L715 0 L451 0 L451 9 Q451 52 470.5 88 Q490 124 533 150 L597 190 Q620 204 632.5 221 Q645 238 645 259 Q645 281 628.5 298 Q612 315 583 315 Q554 315 535.5 297.5 Q517 280 517 250 Q517 247 517.5 239.5 Q518 232 520 226 L456 227 Z " />
<glyph glyph-name="threequarters" unicode="&#xbe;" horiz-adv-x="838" d="M136 502 L240 592 L58 592 L58 648 L325 648 L325 593 L219 503 Q223 504 226.5 504 Q230 504 233 504 Q252 504 270 496.5 Q288 489 302 475 Q316 461 324.5 441 Q333 421 333 395 Q333 371 323 349 Q313 327 294 311 Q275 295 249 285.5 Q223 276 191 276 Q159 276 134 284.5 Q109 293 90.5 307.5 Q72 322 61 341 Q50 360 46 380 L104 403 Q109 371 133 351.5 Q157 332 190 332 Q224 332 245 350.5 Q266 369 266 395 Q266 429 243 443 Q220 457 191 457 Q183 457 175.5 456 Q168 455 162 453 L136 502 Z M161 0 L630 648 L707 648 L240 0 L161 0 Z M481 140 L659 364 L735 364 L735 132 L801 132 L801 76 L735 76 L735 0 L668 0 L668 76 L481 76 L481 140 Z M668 288 L545 132 L668 132 L668 288 Z " />
<glyph glyph-name="questiondown" unicode="&#xbf;" horiz-adv-x="492" d="M299 291 Q300 283 300.5 274 Q301 265 301 255 Q301 206 281.5 169 Q262 132 220 102 L176 71 Q148 51 132 23 Q116 -5 116 -38 Q116 -62 124 -84 Q132 -106 148 -123 Q164 -140 188 -150 Q212 -160 244 -160 Q279 -160 304.5 -148.5 Q330 -137 346.5 -117.5 Q363 -98 371 -74 Q379 -50 379 -24 Q379 -11 377 2.5 Q375 16 371 26 L454 16 Q460 -8 460 -34 Q460 -69 447.5 -104.5 Q435 -140 408.5 -169 Q382 -198 341 -216.5 Q300 -235 244 -235 Q193 -235 153.5 -218.5 Q114 -202 87 -174.5 Q60 -147 46 -112 Q32 -77 32 -39 Q32 19 60 61 Q88 103 133 134 L176 165 Q202 184 213 210.5 Q224 237 224 264 Q224 269 224 276 Q224 283 222 291 L299 291 Z M319 433 Q319 408 301.5 391 Q284 374 259 374 Q235 374 217.5 391 Q200 408 200 433 Q200 459 217.5 476 Q235 493 259 493 Q284 493 301.5 476 Q319 459 319 433 Z " />
<glyph glyph-name="Agrave" unicode="&#xc0;" horiz-adv-x="706" d="M515 207 L190 207 L111 0 L20 0 L304 709 L402 709 L687 0 L596 0 L515 207 Z M220 284 L485 284 L352 623 L220 284 Z M176 878 L287 878 L391 759 L312 759 L176 878 Z " />
<glyph glyph-name="Aacute" unicode="&#xc1;" horiz-adv-x="706" d="M515 207 L190 207 L111 0 L20 0 L304 709 L402 709 L687 0 L596 0 L515 207 Z M220 284 L485 284 L352 623 L220 284 Z M392 759 L313 759 L417 878 L528 878 L392 759 Z " />
<glyph glyph-name="Acircumflex" unicode="&#xc2;" horiz-adv-x="706" d="M515 207 L190 207 L111 0 L20 0 L304 709 L402 709 L687 0 L596 0 L515 207 Z M220 284 L485 284 L352 623 L220 284 Z M185 759 L297 878 L407 878 L519 759 L441 759 L352 833 L263 759 L185 759 Z " />
<glyph glyph-name="Atilde" unicode="&#xc3;" horiz-adv-x="706" d="M515 207 L190 207 L111 0 L20 0 L304 709 L402 709 L687 0 L596 0 L515 207 Z M220 284 L485 284 L352 623 L220 284 Z M509 863 Q509 811 484.5 784 Q460 757 421 757 Q400 757 383.5 763.5 Q367 770 352 780 L330 794 Q319 802 310 806 Q301 810 289 810 Q272 810 261.5 798 Q251 786 251 761 L193 761 L193 775 Q193 827 219.5 853.5 Q246 880 285 880 Q306 880 322 874 Q338 868 353 858 L375 844 Q386 837 395.5 832.5 Q405 828 416 828 Q431 828 441 838 Q451 848 451 871 L451 877 L509 877 L509 863 Z " />
<glyph glyph-name="Adieresis" unicode="&#xc4;" horiz-adv-x="706" d="M166 819 Q166 841 181 856 Q196 871 218 871 Q240 871 255 856 Q270 841 270 819 Q270 797 255 782 Q240 767 218 767 Q196 767 181 782 Q166 797 166 819 Z M434 819 Q434 841 449 856 Q464 871 486 871 Q508 871 523 856 Q538 841 538 819 Q538 797 523 782 Q508 767 486 767 Q464 767 449 782 Q434 797 434 819 Z M515 207 L190 207 L111 0 L20 0 L304 709 L402 709 L687 0 L596 0 L515 207 Z M220 284 L485 284 L352 623 L220 284 Z " />
<glyph glyph-name="Aring" unicode="&#xc5;" horiz-adv-x="706" d="M515 207 L190 207 L111 0 L20 0 L288 670 Q265 685 251 710 Q237 735 237 764 Q237 788 246.5 809 Q256 830 271.5 845.5 Q287 861 308 869.5 Q329 878 352 878 Q375 878 396 869.5 Q417 861 432.5 845.5 Q448 830 457.5 809 Q467 788 467 764 Q467 735 453 711 Q439 687 417 671 L687 0 L596 0 L515 207 Z M220 284 L485 284 L352 623 L220 284 Z M352 820 Q329 820 313 803.5 Q297 787 297 764 Q297 741 313 725 Q329 709 352 709 Q375 709 391 725 Q407 741 407 764 Q407 787 391 803.5 Q375 820 352 820 Z " />
<glyph glyph-name="AE" unicode="&#xc6;" horiz-adv-x="1000" d="M520 0 L520 207 L241 207 L107 0 L-1 0 L471 709 L945 709 L945 632 L604 632 L604 393 L914 393 L914 316 L604 316 L604 77 L945 77 L945 0 L520 0 Z M291 284 L520 284 L520 636 L291 284 Z " />
<glyph glyph-name="Ccedilla" unicode="&#xc7;" horiz-adv-x="746" d="M340 -64 L372 -13 Q308 -8 250 18.5 Q192 45 147.5 91.5 Q103 138 76.5 204.5 Q50 271 50 355 Q50 444 80 512.5 Q110 581 159 628 Q208 675 270.5 699 Q333 723 399 723 Q459 723 510 707 Q561 691 601 661.5 Q641 632 668.5 590.5 Q696 549 709 498 L631 471 Q611 555 550.5 600.5 Q490 646 399 646 Q348 646 300.5 627.5 Q253 609 216 572.5 Q179 536 156.5 481.5 Q134 427 134 355 Q134 283 156.5 228 Q179 173 216 136.5 Q253 100 300.5 81.5 Q348 63 399 63 Q446 63 485 76.5 Q524 90 554 114 Q584 138 604.5 170.5 Q625 203 636 241 L710 214 Q697 167 672.5 128 Q648 89 612.5 59 Q577 29 531.5 10.5 Q486 -8 432 -12 L407 -51 Q412 -49 415.5 -49 Q419 -49 422 -49 Q462 -49 487 -71 Q512 -93 512 -128 Q512 -163 484 -189 Q456 -215 398 -215 Q362 -215 333 -201 Q304 -187 289 -168 L322 -129 Q333 -140 352 -152.5 Q371 -165 398 -165 Q420 -165 435.5 -156 Q451 -147 451 -128 Q451 -112 438 -102 Q425 -92 401 -92 Q384 -92 369 -98 L340 -64 Z " />
<glyph glyph-name="Egrave" unicode="&#xc8;" horiz-adv-x="578" d="M161 878 L272 878 L376 759 L297 759 L161 878 Z M98 0 L98 709 L523 709 L523 632 L182 632 L182 393 L492 393 L492 316 L182 316 L182 77 L523 77 L523 0 L98 0 Z " />
<glyph glyph-name="Eacute" unicode="&#xc9;" horiz-adv-x="578" d="M326 759 L247 759 L351 878 L462 878 L326 759 Z M98 0 L98 709 L523 709 L523 632 L182 632 L182 393 L492 393 L492 316 L182 316 L182 77 L523 77 L523 0 L98 0 Z " />
<glyph glyph-name="Ecircumflex" unicode="&#xca;" horiz-adv-x="578" d="M144 759 L256 878 L366 878 L478 759 L400 759 L311 833 L222 759 L144 759 Z M98 0 L98 709 L523 709 L523 632 L182 632 L182 393 L492 393 L492 316 L182 316 L182 77 L523 77 L523 0 L98 0 Z " />
<glyph glyph-name="Edieresis" unicode="&#xcb;" horiz-adv-x="578" d="M98 0 L98 709 L523 709 L523 632 L182 632 L182 393 L492 393 L492 316 L182 316 L182 77 L523 77 L523 0 L98 0 Z M151 819 Q151 841 166 856 Q181 871 203 871 Q225 871 240 856 Q255 841 255 819 Q255 797 240 782 Q225 767 203 767 Q181 767 166 782 Q151 797 151 819 Z M369 819 Q369 841 384 856 Q399 871 421 871 Q443 871 458 856 Q473 841 473 819 Q473 797 458 782 Q443 767 421 767 Q399 767 384 782 Q369 797 369 819 Z " />
<glyph glyph-name="Igrave" unicode="&#xcc;" horiz-adv-x="280" d="M98 0 L98 709 L182 709 L182 0 L98 0 Z M-35 878 L76 878 L180 759 L101 759 L-35 878 Z " />
<glyph glyph-name="Iacute" unicode="&#xcd;" horiz-adv-x="280" d="M98 0 L98 709 L182 709 L182 0 L98 0 Z M181 759 L102 759 L206 878 L317 878 L181 759 Z " />
<glyph glyph-name="Icircumflex" unicode="&#xce;" horiz-adv-x="280" d="M98 0 L98 709 L182 709 L182 0 L98 0 Z M-21 759 L91 878 L201 878 L313 759 L235 759 L146 833 L57 759 L-21 759 Z " />
<glyph glyph-name="Idieresis" unicode="&#xcf;" horiz-adv-x="280" d="M98 0 L98 709 L182 709 L182 0 L98 0 Z M18 819 Q18 839 32.5 853 Q47 867 67 867 Q87 867 101.5 853 Q116 839 116 819 Q116 799 101.5 785 Q87 771 67 771 Q47 771 32.5 785 Q18 799 18 819 Z M166 819 Q166 839 180.5 853 Q195 867 215 867 Q235 867 249.5 853 Q264 839 264 819 Q264 799 249.5 785 Q235 771 215 771 Q195 771 180.5 785 Q166 799 166 819 Z " />
<glyph glyph-name="Eth" unicode="&#xd0;" horiz-adv-x="723" d="M100 0 L100 331 L23 331 L23 401 L100 401 L100 709 L335 709 Q402 709 463.5 686 Q525 663 571 618 Q617 573 644.5 506.5 Q672 440 672 353 Q672 266 644.5 200 Q617 134 570 89.5 Q523 45 461.5 22.5 Q400 0 333 0 L100 0 Z M333 74 Q385 74 431 91.5 Q477 109 512 144 Q547 179 567.5 231 Q588 283 588 353 Q588 423 568 476 Q548 529 513.5 564 Q479 599 433 617 Q387 635 335 635 L184 635 L184 401 L314 401 L314 331 L184 331 L184 74 L333 74 Z " />
<glyph glyph-name="Ntilde" unicode="&#xd1;" horiz-adv-x="770" d="M544 863 Q544 811 519.5 784 Q495 757 456 757 Q435 757 418.5 763.5 Q402 770 387 780 L365 794 Q354 802 345 806 Q336 810 324 810 Q307 810 296.5 798 Q286 786 286 761 L228 761 L228 775 Q228 827 254.5 853.5 Q281 880 320 880 Q341 880 357 874 Q373 868 388 858 L410 844 Q421 837 430.5 832.5 Q440 828 451 828 Q466 828 476 838 Q486 848 486 871 L486 877 L544 877 L544 863 Z M584 0 L182 600 L182 0 L98 0 L98 709 L208 709 L588 141 L588 709 L672 709 L672 0 L584 0 Z " />
<glyph glyph-name="Ograve" unicode="&#xd2;" horiz-adv-x="802" d="M232 878 L343 878 L447 759 L368 759 L232 878 Z M134 355 Q134 283 156.5 228 Q179 173 216 136.5 Q253 100 301.5 81.5 Q350 63 401 63 Q453 63 501 81.5 Q549 100 586 136.5 Q623 173 645.5 228 Q668 283 668 355 Q668 427 645.5 481.5 Q623 536 586 572.5 Q549 609 501 627.5 Q453 646 401 646 Q350 646 301.5 627.5 Q253 609 216 572.5 Q179 536 156.5 481.5 Q134 427 134 355 Z M50 355 Q50 444 80 512.5 Q110 581 159.5 628 Q209 675 272 699 Q335 723 401 723 Q467 723 530.5 699 Q594 675 643 628 Q692 581 722 512.5 Q752 444 752 355 Q752 266 722 197.5 Q692 129 643 82 Q594 35 530.5 10.5 Q467 -14 401 -14 Q335 -14 272 10.5 Q209 35 159.5 82 Q110 129 80 197.5 Q50 266 50 355 Z " />
<glyph glyph-name="Oacute" unicode="&#xd3;" horiz-adv-x="802" d="M434 759 L355 759 L459 878 L570 878 L434 759 Z M134 355 Q134 283 156.5 228 Q179 173 216 136.5 Q253 100 301.5 81.5 Q350 63 401 63 Q453 63 501 81.5 Q549 100 586 136.5 Q623 173 645.5 228 Q668 283 668 355 Q668 427 645.5 481.5 Q623 536 586 572.5 Q549 609 501 627.5 Q453 646 401 646 Q350 646 301.5 627.5 Q253 609 216 572.5 Q179 536 156.5 481.5 Q134 427 134 355 Z M50 355 Q50 444 80 512.5 Q110 581 159.5 628 Q209 675 272 699 Q335 723 401 723 Q467 723 530.5 699 Q594 675 643 628 Q692 581 722 512.5 Q752 444 752 355 Q752 266 722 197.5 Q692 129 643 82 Q594 35 530.5 10.5 Q467 -14 401 -14 Q335 -14 272 10.5 Q209 35 159.5 82 Q110 129 80 197.5 Q50 266 50 355 Z " />
<glyph glyph-name="Ocircumflex" unicode="&#xd4;" horiz-adv-x="802" d="M234 759 L346 878 L456 878 L568 759 L490 759 L401 833 L312 759 L234 759 Z M134 355 Q134 283 156.5 228 Q179 173 216 136.5 Q253 100 301.5 81.5 Q350 63 401 63 Q453 63 501 81.5 Q549 100 586 136.5 Q623 173 645.5 228 Q668 283 668 355 Q668 427 645.5 481.5 Q623 536 586 572.5 Q549 609 501 627.5 Q453 646 401 646 Q350 646 301.5 627.5 Q253 609 216 572.5 Q179 536 156.5 481.5 Q134 427 134 355 Z M50 355 Q50 444 80 512.5 Q110 581 159.5 628 Q209 675 272 699 Q335 723 401 723 Q467 723 530.5 699 Q594 675 643 628 Q692 581 722 512.5 Q752 444 752 355 Q752 266 722 197.5 Q692 129 643 82 Q594 35 530.5 10.5 Q467 -14 401 -14 Q335 -14 272 10.5 Q209 35 159.5 82 Q110 129 80 197.5 Q50 266 50 355 Z " />
<glyph glyph-name="Otilde" unicode="&#xd5;" horiz-adv-x="802" d="M563 864 Q563 812 538.5 785 Q514 758 475 758 Q454 758 437.5 764.5 Q421 771 406 781 L384 795 Q373 803 364 807 Q355 811 343 811 Q326 811 315.5 799 Q305 787 305 762 L247 762 L247 776 Q247 828 273.5 854.5 Q300 881 339 881 Q360 881 376 875 Q392 869 407 859 L429 845 Q440 838 449.5 833.5 Q459 829 470 829 Q485 829 495 839 Q505 849 505 872 L505 878 L563 878 L563 864 Z M134 355 Q134 283 156.5 228 Q179 173 216 136.5 Q253 100 301.5 81.5 Q350 63 401 63 Q453 63 501 81.5 Q549 100 586 136.5 Q623 173 645.5 228 Q668 283 668 355 Q668 427 645.5 481.5 Q623 536 586 572.5 Q549 609 501 627.5 Q453 646 401 646 Q350 646 301.5 627.5 Q253 609 216 572.5 Q179 536 156.5 481.5 Q134 427 134 355 Z M50 355 Q50 444 80 512.5 Q110 581 159.5 628 Q209 675 272 699 Q335 723 401 723 Q467 723 530.5 699 Q594 675 643 628 Q692 581 722 512.5 Q752 444 752 355 Q752 266 722 197.5 Q692 129 643 82 Q594 35 530.5 10.5 Q467 -14 401 -14 Q335 -14 272 10.5 Q209 35 159.5 82 Q110 129 80 197.5 Q50 266 50 355 Z " />
<glyph glyph-name="Odieresis" unicode="&#xd6;" horiz-adv-x="802" d="M200 819 Q200 841 215 856 Q230 871 252 871 Q274 871 289 856 Q304 841 304 819 Q304 797 289 782 Q274 767 252 767 Q230 767 215 782 Q200 797 200 819 Z M498 819 Q498 841 513 856 Q528 871 550 871 Q572 871 587 856 Q602 841 602 819 Q602 797 587 782 Q572 767 550 767 Q528 767 513 782 Q498 797 498 819 Z M134 355 Q134 283 156.5 228 Q179 173 216 136.5 Q253 100 301.5 81.5 Q350 63 401 63 Q453 63 501 81.5 Q549 100 586 136.5 Q623 173 645.5 228 Q668 283 668 355 Q668 427 645.5 481.5 Q623 536 586 572.5 Q549 609 501 627.5 Q453 646 401 646 Q350 646 301.5 627.5 Q253 609 216 572.5 Q179 536 156.5 481.5 Q134 427 134 355 Z M50 355 Q50 444 80 512.5 Q110 581 159.5 628 Q209 675 272 699 Q335 723 401 723 Q467 723 530.5 699 Q594 675 643 628 Q692 581 722 512.5 Q752 444 752 355 Q752 266 722 197.5 Q692 129 643 82 Q594 35 530.5 10.5 Q467 -14 401 -14 Q335 -14 272 10.5 Q209 35 159.5 82 Q110 129 80 197.5 Q50 266 50 355 Z " />
<glyph glyph-name="multiply" unicode="&#xd7;" horiz-adv-x="539" d="M268 238 L96 60 L49 108 L221 288 L49 466 L98 515 L269 336 L441 515 L489 467 L316 288 L490 108 L442 59 L268 238 Z " />
<glyph glyph-name="Oslash" unicode="&#xd8;" horiz-adv-x="802" d="M50 355 Q50 444 80 512.5 Q110 581 159.5 628 Q209 675 272 699 Q335 723 401 723 Q453 723 503 708 Q553 693 597 664 L668 756 L725 712 L652 618 Q697 571 724.5 505.5 Q752 440 752 355 Q752 266 722 197.5 Q692 129 643 82 Q594 35 530.5 10.5 Q467 -14 401 -14 Q350 -14 300.5 0.5 Q251 15 208 43 L137 -48 L78 -4 L151 90 Q105 137 77.5 203.5 Q50 270 50 355 Z M134 355 Q134 290 152 239.5 Q170 189 200 153 L549 602 Q482 646 401 646 Q350 646 301.5 627.5 Q253 609 216 572.5 Q179 536 156.5 481.5 Q134 427 134 355 Z M668 355 Q668 418 650.5 468 Q633 518 603 554 L255 105 Q287 84 324.5 73.5 Q362 63 401 63 Q453 63 501 81.5 Q549 100 586 136.5 Q623 173 645.5 228 Q668 283 668 355 Z " />
<glyph glyph-name="Ugrave" unicode="&#xd9;" horiz-adv-x="682" d="M188 878 L299 878 L403 759 L324 759 L188 878 Z M341 -14 Q287 -14 241 2.5 Q195 19 161.5 51 Q128 83 109 130.5 Q90 178 90 240 L90 709 L174 709 L174 242 Q174 156 217 109.5 Q260 63 341 63 Q422 63 465 109.5 Q508 156 508 242 L508 709 L592 709 L592 240 Q592 178 573 130.5 Q554 83 520.5 51 Q487 19 441 2.5 Q395 -14 341 -14 Z " />
<glyph glyph-name="Uacute" unicode="&#xda;" horiz-adv-x="682" d="M355 759 L276 759 L380 878 L491 878 L355 759 Z M341 -14 Q287 -14 241 2.5 Q195 19 161.5 51 Q128 83 109 130.5 Q90 178 90 240 L90 709 L174 709 L174 242 Q174 156 217 109.5 Q260 63 341 63 Q422 63 465 109.5 Q508 156 508 242 L508 709 L592 709 L592 240 Q592 178 573 130.5 Q554 83 520.5 51 Q487 19 441 2.5 Q395 -14 341 -14 Z " />
<glyph glyph-name="Ucircumflex" unicode="&#xdb;" horiz-adv-x="682" d="M174 759 L286 878 L396 878 L508 759 L430 759 L341 833 L252 759 L174 759 Z M341 -14 Q287 -14 241 2.5 Q195 19 161.5 51 Q128 83 109 130.5 Q90 178 90 240 L90 709 L174 709 L174 242 Q174 156 217 109.5 Q260 63 341 63 Q422 63 465 109.5 Q508 156 508 242 L508 709 L592 709 L592 240 Q592 178 573 130.5 Q554 83 520.5 51 Q487 19 441 2.5 Q395 -14 341 -14 Z " />
<glyph glyph-name="Udieresis" unicode="&#xdc;" horiz-adv-x="682" d="M341 -14 Q287 -14 241 2.5 Q195 19 161.5 51 Q128 83 109 130.5 Q90 178 90 240 L90 709 L174 709 L174 242 Q174 156 217 109.5 Q260 63 341 63 Q422 63 465 109.5 Q508 156 508 242 L508 709 L592 709 L592 240 Q592 178 573 130.5 Q554 83 520.5 51 Q487 19 441 2.5 Q395 -14 341 -14 Z M180 819 Q180 841 195 856 Q210 871 232 871 Q254 871 269 856 Q284 841 284 819 Q284 797 269 782 Q254 767 232 767 Q210 767 195 782 Q180 797 180 819 Z M398 819 Q398 841 413 856 Q428 871 450 871 Q472 871 487 856 Q502 841 502 819 Q502 797 487 782 Q472 767 450 767 Q428 767 413 782 Q398 797 398 819 Z " />
<glyph glyph-name="Yacute" unicode="&#xdd;" horiz-adv-x="632" d="M25 709 L123 709 L316 380 L509 709 L607 709 L358 303 L358 0 L274 0 L274 303 L25 709 Z M329 759 L250 759 L354 878 L465 878 L329 759 Z " />
<glyph glyph-name="Thorn" unicode="&#xde;" horiz-adv-x="596" d="M98 0 L98 709 L182 709 L182 569 L345 569 Q394 569 434.5 553 Q475 537 503.5 509 Q532 481 547.5 443 Q563 405 563 361 Q563 316 547.5 278.5 Q532 241 503.5 213 Q475 185 434.5 169.5 Q394 154 345 154 L182 154 L182 0 L98 0 Z M332 229 Q401 229 440 265 Q479 301 479 360 Q479 421 440 457.5 Q401 494 332 494 L182 494 L182 229 L332 229 Z " />
<glyph glyph-name="germandbls" unicode="&#xdf;" horiz-adv-x="560" d="M344 343 Q344 324 356.5 315 Q369 306 389 296 L425 278 Q467 257 497 220 Q527 183 527 131 Q527 106 517.5 80 Q508 54 488 33 Q468 12 438 -1 Q408 -14 367 -14 Q323 -14 293 -0.5 Q263 13 243.5 34 Q224 55 215 79.5 Q206 104 206 126 L278 145 Q278 131 282.5 115 Q287 99 297.5 85.5 Q308 72 325 62.5 Q342 53 367 53 Q387 53 402 59.5 Q417 66 427 76.5 Q437 87 442 100 Q447 113 447 125 Q447 181 388 209 L352 226 Q337 233 320.5 242.5 Q304 252 291 265.5 Q278 279 269.5 297 Q261 315 261 339 Q261 372 276.5 396 Q292 420 319 438 L353 461 Q378 477 394 499 Q410 521 410 552 Q410 593 379 622.5 Q348 652 291 652 Q264 652 240 641.5 Q216 631 197.5 610.5 Q179 590 168.5 559.5 Q158 529 158 488 L158 0 L78 0 L78 492 Q78 547 94.5 590 Q111 633 140 662.5 Q169 692 208 707.5 Q247 723 291 723 Q336 723 373 710 Q410 697 436 674 Q462 651 476.5 620.5 Q491 590 491 554 Q491 526 484 503.5 Q477 481 465 463.5 Q453 446 438 432.5 Q423 419 407 409 L374 388 Q361 380 352.5 370 Q344 360 344 343 Z " />
<glyph glyph-name="agrave" unicode="&#xe0;" horiz-adv-x="512" d="M44 127 Q44 190 84 225.5 Q124 261 187 270 L316 289 Q342 293 350.5 303.5 Q359 314 359 330 Q359 371 332 398 Q305 425 248 425 Q195 425 164.5 396.5 Q134 368 129 322 L53 340 Q57 374 73 402 Q89 430 114.5 450.5 Q140 471 173.5 482 Q207 493 246 493 Q297 493 333.5 479.5 Q370 466 393.5 442.5 Q417 419 428 388 Q439 357 439 322 L439 80 Q439 50 441 30.5 Q443 11 445 0 L367 0 Q365 8 363 26 Q361 44 361 72 Q353 57 339.5 42 Q326 27 306 14.5 Q286 2 260 -6 Q234 -14 202 -14 Q165 -14 135.5 -2 Q106 10 86 29.5 Q66 49 55 74.5 Q44 100 44 127 Z M212 54 Q243 54 270 63 Q297 72 316.5 90 Q336 108 347.5 136 Q359 164 359 202 L359 234 L203 211 Q168 206 146 186 Q124 166 124 131 Q124 102 147.5 78 Q171 54 212 54 Z M104 684 L206 684 L293 541 L227 541 L104 684 Z " />
<glyph glyph-name="aacute" unicode="&#xe1;" horiz-adv-x="512" d="M44 127 Q44 190 84 225.5 Q124 261 187 270 L316 289 Q342 293 350.5 303.5 Q359 314 359 330 Q359 371 332 398 Q305 425 248 425 Q195 425 164.5 396.5 Q134 368 129 322 L53 340 Q57 374 73 402 Q89 430 114.5 450.5 Q140 471 173.5 482 Q207 493 246 493 Q297 493 333.5 479.5 Q370 466 393.5 442.5 Q417 419 428 388 Q439 357 439 322 L439 80 Q439 50 441 30.5 Q443 11 445 0 L367 0 Q365 8 363 26 Q361 44 361 72 Q353 57 339.5 42 Q326 27 306 14.5 Q286 2 260 -6 Q234 -14 202 -14 Q165 -14 135.5 -2 Q106 10 86 29.5 Q66 49 55 74.5 Q44 100 44 127 Z M212 54 Q243 54 270 63 Q297 72 316.5 90 Q336 108 347.5 136 Q359 164 359 202 L359 234 L203 211 Q168 206 146 186 Q124 166 124 131 Q124 102 147.5 78 Q171 54 212 54 Z M279 541 L213 541 L300 684 L402 684 L279 541 Z " />
<glyph glyph-name="acircumflex" unicode="&#xe2;" horiz-adv-x="512" d="M100 541 L206 679 L301 679 L406 541 L332 541 L253 632 L174 541 L100 541 Z M44 127 Q44 190 84 225.5 Q124 261 187 270 L316 289 Q342 293 350.5 303.5 Q359 314 359 330 Q359 371 332 398 Q305 425 248 425 Q195 425 164.5 396.5 Q134 368 129 322 L53 340 Q57 374 73 402 Q89 430 114.5 450.5 Q140 471 173.5 482 Q207 493 246 493 Q297 493 333.5 479.5 Q370 466 393.5 442.5 Q417 419 428 388 Q439 357 439 322 L439 80 Q439 50 441 30.5 Q443 11 445 0 L367 0 Q365 8 363 26 Q361 44 361 72 Q353 57 339.5 42 Q326 27 306 14.5 Q286 2 260 -6 Q234 -14 202 -14 Q165 -14 135.5 -2 Q106 10 86 29.5 Q66 49 55 74.5 Q44 100 44 127 Z M212 54 Q243 54 270 63 Q297 72 316.5 90 Q336 108 347.5 136 Q359 164 359 202 L359 234 L203 211 Q168 206 146 186 Q124 166 124 131 Q124 102 147.5 78 Q171 54 212 54 Z " />
<glyph glyph-name="atilde" unicode="&#xe3;" horiz-adv-x="512" d="M44 127 Q44 190 84 225.5 Q124 261 187 270 L316 289 Q342 293 350.5 303.5 Q359 314 359 330 Q359 371 332 398 Q305 425 248 425 Q195 425 164.5 396.5 Q134 368 129 322 L53 340 Q57 374 73 402 Q89 430 114.5 450.5 Q140 471 173.5 482 Q207 493 246 493 Q297 493 333.5 479.5 Q370 466 393.5 442.5 Q417 419 428 388 Q439 357 439 322 L439 80 Q439 50 441 30.5 Q443 11 445 0 L367 0 Q365 8 363 26 Q361 44 361 72 Q353 57 339.5 42 Q326 27 306 14.5 Q286 2 260 -6 Q234 -14 202 -14 Q165 -14 135.5 -2 Q106 10 86 29.5 Q66 49 55 74.5 Q44 100 44 127 Z M212 54 Q243 54 270 63 Q297 72 316.5 90 Q336 108 347.5 136 Q359 164 359 202 L359 234 L203 211 Q168 206 146 186 Q124 166 124 131 Q124 102 147.5 78 Q171 54 212 54 Z M407 656 Q407 604 380.5 578 Q354 552 315 552 Q295 552 279.5 558.5 Q264 565 250 575 L235 586 Q224 594 214 598.5 Q204 603 193 603 Q176 603 168 591.5 Q160 580 160 554 L98 554 L98 568 Q98 620 124.5 645.5 Q151 671 190 671 Q211 671 227.5 665 Q244 659 258 648 L273 637 Q283 629 292.5 625 Q302 621 313 621 Q330 621 338 632 Q346 643 346 669 L407 669 L407 656 Z " />
<glyph glyph-name="adieresis" unicode="&#xe4;" horiz-adv-x="512" d="M108 616 Q108 638 123 653 Q138 668 160 668 Q182 668 197 653 Q212 638 212 616 Q212 594 197 579 Q182 564 160 564 Q138 564 123 579 Q108 594 108 616 Z M290 616 Q290 638 305 653 Q320 668 342 668 Q364 668 379 653 Q394 638 394 616 Q394 594 379 579 Q364 564 342 564 Q320 564 305 579 Q290 594 290 616 Z M44 127 Q44 190 84 225.5 Q124 261 187 270 L316 289 Q342 293 350.5 303.5 Q359 314 359 330 Q359 371 332 398 Q305 425 248 425 Q195 425 164.5 396.5 Q134 368 129 322 L53 340 Q57 374 73 402 Q89 430 114.5 450.5 Q140 471 173.5 482 Q207 493 246 493 Q297 493 333.5 479.5 Q370 466 393.5 442.5 Q417 419 428 388 Q439 357 439 322 L439 80 Q439 50 441 30.5 Q443 11 445 0 L367 0 Q365 8 363 26 Q361 44 361 72 Q353 57 339.5 42 Q326 27 306 14.5 Q286 2 260 -6 Q234 -14 202 -14 Q165 -14 135.5 -2 Q106 10 86 29.5 Q66 49 55 74.5 Q44 100 44 127 Z M212 54 Q243 54 270 63 Q297 72 316.5 90 Q336 108 347.5 136 Q359 164 359 202 L359 234 L203 211 Q168 206 146 186 Q124 166 124 131 Q124 102 147.5 78 Q171 54 212 54 Z " />
<glyph glyph-name="aring" unicode="&#xe5;" horiz-adv-x="512" d="M44 127 Q44 190 84 225.5 Q124 261 187 270 L316 289 Q342 293 350.5 303.5 Q359 314 359 330 Q359 371 332 398 Q305 425 248 425 Q195 425 164.5 396.5 Q134 368 129 322 L53 340 Q57 374 73 402 Q89 430 114.5 450.5 Q140 471 173.5 482 Q207 493 246 493 Q297 493 333.5 479.5 Q370 466 393.5 442.5 Q417 419 428 388 Q439 357 439 322 L439 80 Q439 50 441 30.5 Q443 11 445 0 L367 0 Q365 8 363 26 Q361 44 361 72 Q353 57 339.5 42 Q326 27 306 14.5 Q286 2 260 -6 Q234 -14 202 -14 Q165 -14 135.5 -2 Q106 10 86 29.5 Q66 49 55 74.5 Q44 100 44 127 Z M212 54 Q243 54 270 63 Q297 72 316.5 90 Q336 108 347.5 136 Q359 164 359 202 L359 234 L203 211 Q168 206 146 186 Q124 166 124 131 Q124 102 147.5 78 Q171 54 212 54 Z M250 530 Q227 530 207.5 538.5 Q188 547 173 561.5 Q158 576 149.5 595.5 Q141 615 141 638 Q141 661 149.5 680.5 Q158 700 173 714.5 Q188 729 207.5 737.5 Q227 746 250 746 Q272 746 292 737.5 Q312 729 327 714.5 Q342 700 350.5 680.5 Q359 661 359 638 Q359 615 350.5 595.5 Q342 576 327 561.5 Q312 547 292 538.5 Q272 530 250 530 Z M197 638 Q197 615 212 599 Q227 583 250 583 Q273 583 288 599 Q303 615 303 638 Q303 661 288 677 Q273 693 250 693 Q227 693 212 677 Q197 661 197 638 Z " />
<glyph glyph-name="ae" unicode="&#xe6;" horiz-adv-x="855" d="M246 493 Q312 493 353.5 470 Q395 447 416 409 Q448 450 492 471.5 Q536 493 586 493 Q640 493 682.5 475 Q725 457 753.5 424.5 Q782 392 797 346.5 Q812 301 812 246 Q812 238 811.5 230.5 Q811 223 810 218 L441 218 L441 214 Q441 180 453 151.5 Q465 123 486 102 Q507 81 535.5 69.5 Q564 58 596 58 Q657 58 691.5 88 Q726 118 740 161 L809 136 Q799 105 780 77.5 Q761 50 734 30 Q707 10 672.5 -2 Q638 -14 597 -14 Q534 -14 481 14.5 Q428 43 396 98 Q386 77 369.5 56.5 Q353 36 329.5 20.5 Q306 5 274.5 -4.5 Q243 -14 202 -14 Q165 -14 135.5 -2 Q106 10 86 29.5 Q66 49 55 74.5 Q44 100 44 127 Q44 190 84 225.5 Q124 261 187 270 L316 289 Q342 293 350.5 303.5 Q359 314 359 330 Q359 371 332 398 Q305 425 248 425 Q195 425 164.5 396.5 Q134 368 129 322 L53 340 Q57 374 73 402 Q89 430 114.5 450.5 Q140 471 173.5 482 Q207 493 246 493 Z M212 54 Q243 54 270 63 Q297 72 316.5 90 Q336 108 347.5 136 Q359 164 359 202 L359 234 L203 211 Q168 206 146 186 Q124 166 124 131 Q124 102 147.5 78 Q171 54 212 54 Z M729 286 Q727 343 691.5 382.5 Q656 422 587 422 Q556 422 530 410.5 Q504 399 485.5 380.5 Q467 362 456 337.5 Q445 313 443 286 L729 286 Z " />
<glyph glyph-name="ccedilla" unicode="&#xe7;" horiz-adv-x="532" d="M222 -64 L254 -12 Q208 -7 169.5 14 Q131 35 103.5 68 Q76 101 60.5 145 Q45 189 45 240 Q45 296 63 342.5 Q81 389 113 422.5 Q145 456 188 474.5 Q231 493 282 493 Q328 493 364 480 Q400 467 426 446 Q452 425 468 397.5 Q484 370 492 342 L420 311 Q415 330 405 349.5 Q395 369 378.5 385 Q362 401 338 411 Q314 421 282 421 Q250 421 222 409 Q194 397 172 374 Q150 351 137.5 317 Q125 283 125 240 Q125 197 137.5 163 Q150 129 172 106 Q194 83 222.5 70.5 Q251 58 283 58 Q317 58 341.5 68.5 Q366 79 383 95.5 Q400 112 410.5 130.5 Q421 149 426 166 L496 135 Q488 111 473 86.5 Q458 62 435.5 41.5 Q413 21 383 6.5 Q353 -8 315 -12 L289 -51 Q294 -49 297.5 -49 Q301 -49 304 -49 Q344 -49 369 -71 Q394 -93 394 -128 Q394 -163 366 -189 Q338 -215 280 -215 Q244 -215 215 -201 Q186 -187 171 -168 L204 -129 Q215 -140 234 -152.5 Q253 -165 280 -165 Q302 -165 317.5 -156 Q333 -147 333 -128 Q333 -112 320 -102 Q307 -92 283 -92 Q266 -92 251 -98 L222 -64 Z " />
<glyph glyph-name="egrave" unicode="&#xe8;" horiz-adv-x="541" d="M415 286 Q413 343 377.5 382.5 Q342 422 273 422 Q242 422 216 410.5 Q190 399 171.5 380.5 Q153 362 142 337.5 Q131 313 129 286 L415 286 Z M495 136 Q485 105 466 77.5 Q447 50 420 30 Q393 10 358.5 -2 Q324 -14 282 -14 Q234 -14 191 3 Q148 20 115.5 53 Q83 86 64 133.5 Q45 181 45 241 Q45 298 63.5 344.5 Q82 391 113 424 Q144 457 185.5 475 Q227 493 272 493 Q326 493 368.5 475 Q411 457 439.5 424.5 Q468 392 483 346.5 Q498 301 498 246 Q498 238 497.5 230.5 Q497 223 496 218 L127 218 L127 214 Q127 180 139 151.5 Q151 123 172 102 Q193 81 221.5 69.5 Q250 58 282 58 Q343 58 377.5 88 Q412 118 426 161 L495 136 Z M133 684 L235 684 L322 541 L256 541 L133 684 Z " />
<glyph glyph-name="eacute" unicode="&#xe9;" horiz-adv-x="541" d="M304 541 L238 541 L325 684 L427 684 L304 541 Z M415 286 Q413 343 377.5 382.5 Q342 422 273 422 Q242 422 216 410.5 Q190 399 171.5 380.5 Q153 362 142 337.5 Q131 313 129 286 L415 286 Z M495 136 Q485 105 466 77.5 Q447 50 420 30 Q393 10 358.5 -2 Q324 -14 282 -14 Q234 -14 191 3 Q148 20 115.5 53 Q83 86 64 133.5 Q45 181 45 241 Q45 298 63.5 344.5 Q82 391 113 424 Q144 457 185.5 475 Q227 493 272 493 Q326 493 368.5 475 Q411 457 439.5 424.5 Q468 392 483 346.5 Q498 301 498 246 Q498 238 497.5 230.5 Q497 223 496 218 L127 218 L127 214 Q127 180 139 151.5 Q151 123 172 102 Q193 81 221.5 69.5 Q250 58 282 58 Q343 58 377.5 88 Q412 118 426 161 L495 136 Z " />
<glyph glyph-name="ecircumflex" unicode="&#xea;" horiz-adv-x="541" d="M126 541 L232 679 L327 679 L432 541 L358 541 L279 632 L200 541 L126 541 Z M415 286 Q413 343 377.5 382.5 Q342 422 273 422 Q242 422 216 410.5 Q190 399 171.5 380.5 Q153 362 142 337.5 Q131 313 129 286 L415 286 Z M495 136 Q485 105 466 77.5 Q447 50 420 30 Q393 10 358.5 -2 Q324 -14 282 -14 Q234 -14 191 3 Q148 20 115.5 53 Q83 86 64 133.5 Q45 181 45 241 Q45 298 63.5 344.5 Q82 391 113 424 Q144 457 185.5 475 Q227 493 272 493 Q326 493 368.5 475 Q411 457 439.5 424.5 Q468 392 483 346.5 Q498 301 498 246 Q498 238 497.5 230.5 Q497 223 496 218 L127 218 L127 214 Q127 180 139 151.5 Q151 123 172 102 Q193 81 221.5 69.5 Q250 58 282 58 Q343 58 377.5 88 Q412 118 426 161 L495 136 Z " />
<glyph glyph-name="edieresis" unicode="&#xeb;" horiz-adv-x="541" d="M134 616 Q134 638 149 653 Q164 668 186 668 Q208 668 223 653 Q238 638 238 616 Q238 594 223 579 Q208 564 186 564 Q164 564 149 579 Q134 594 134 616 Z M316 616 Q316 638 331 653 Q346 668 368 668 Q390 668 405 653 Q420 638 420 616 Q420 594 405 579 Q390 564 368 564 Q346 564 331 579 Q316 594 316 616 Z M415 286 Q413 343 377.5 382.5 Q342 422 273 422 Q242 422 216 410.5 Q190 399 171.5 380.5 Q153 362 142 337.5 Q131 313 129 286 L415 286 Z M495 136 Q485 105 466 77.5 Q447 50 420 30 Q393 10 358.5 -2 Q324 -14 282 -14 Q234 -14 191 3 Q148 20 115.5 53 Q83 86 64 133.5 Q45 181 45 241 Q45 298 63.5 344.5 Q82 391 113 424 Q144 457 185.5 475 Q227 493 272 493 Q326 493 368.5 475 Q411 457 439.5 424.5 Q468 392 483 346.5 Q498 301 498 246 Q498 238 497.5 230.5 Q497 223 496 218 L127 218 L127 214 Q127 180 139 151.5 Q151 123 172 102 Q193 81 221.5 69.5 Q250 58 282 58 Q343 58 377.5 88 Q412 118 426 161 L495 136 Z " />
<glyph glyph-name="igrave" unicode="&#xec;" horiz-adv-x="236" d="M78 0 L78 479 L158 479 L158 0 L78 0 Z M-32 684 L70 684 L157 541 L91 541 L-32 684 Z " />
<glyph glyph-name="iacute" unicode="&#xed;" horiz-adv-x="236" d="M151 541 L85 541 L172 684 L274 684 L151 541 Z M78 0 L78 479 L158 479 L158 0 L78 0 Z " />
<glyph glyph-name="icircumflex" unicode="&#xee;" horiz-adv-x="236" d="M-32 541 L74 679 L169 679 L274 541 L200 541 L121 632 L42 541 L-32 541 Z M78 0 L78 479 L158 479 L158 0 L78 0 Z " />
<glyph glyph-name="idieresis" unicode="&#xef;" horiz-adv-x="236" d="M78 0 L78 479 L158 479 L158 0 L78 0 Z M2 616 Q2 636 16.5 650.5 Q31 665 51 665 Q71 665 85.5 650.5 Q100 636 100 616 Q100 596 85.5 581.5 Q71 567 51 567 Q31 567 16.5 581.5 Q2 596 2 616 Z M138 616 Q138 636 152.5 650.5 Q167 665 187 665 Q207 665 221.5 650.5 Q236 636 236 616 Q236 596 221.5 581.5 Q207 567 187 567 Q167 567 152.5 581.5 Q138 596 138 616 Z " />
<glyph glyph-name="eth" unicode="&#xf0;" horiz-adv-x="578" d="M388 601 Q417 573 442.5 538 Q468 503 486.5 460 Q505 417 515.5 366.5 Q526 316 526 258 Q526 200 509.5 150.5 Q493 101 462.5 64.5 Q432 28 387 7.5 Q342 -13 285 -13 Q232 -13 188 5 Q144 23 112 55.5 Q80 88 62.5 132 Q45 176 45 227 Q45 282 64.5 326 Q84 370 116 400.5 Q148 431 189 447 Q230 463 273 463 Q321 463 360.5 448 Q400 433 423 401 Q406 452 378.5 492.5 Q351 533 316 565 L185 499 L160 553 L261 603 Q232 623 201 636 Q170 649 138 658 L163 723 Q196 715 243 695.5 Q290 676 338 642 L448 697 L475 644 L388 601 Z M285 59 Q319 59 348 71 Q377 83 398.5 105 Q420 127 432 159 Q444 191 444 231 Q444 270 431 300.5 Q418 331 396.5 352 Q375 373 346 384 Q317 395 285 395 Q253 395 224 384 Q195 373 173.5 351.5 Q152 330 139 298.5 Q126 267 126 227 Q126 187 138.5 156 Q151 125 173 103.5 Q195 82 223.5 70.5 Q252 59 285 59 Z " />
<glyph glyph-name="ntilde" unicode="&#xf1;" horiz-adv-x="549" d="M440 656 Q440 604 413.5 578 Q387 552 348 552 Q328 552 312.5 558.5 Q297 565 283 575 L268 586 Q257 594 247 598.5 Q237 603 226 603 Q209 603 201 591.5 Q193 580 193 554 L131 554 L131 568 Q131 620 157.5 645.5 Q184 671 223 671 Q244 671 260.5 665 Q277 659 291 648 L306 637 Q316 629 325.5 625 Q335 621 346 621 Q363 621 371 632 Q379 643 379 669 L440 669 L440 656 Z M158 0 L78 0 L78 479 L156 479 L156 407 Q179 449 218.5 471 Q258 493 306 493 Q349 493 381 478.5 Q413 464 434.5 439 Q456 414 466.5 380 Q477 346 477 307 L477 0 L397 0 L397 295 Q397 321 390.5 344 Q384 367 370 384 Q356 401 333.5 411 Q311 421 278 421 Q249 421 226.5 410 Q204 399 189 380 Q174 361 166 335.5 Q158 310 158 282 L158 0 Z " />
<glyph glyph-name="ograve" unicode="&#xf2;" horiz-adv-x="570" d="M133 684 L235 684 L322 541 L256 541 L133 684 Z M285 493 Q337 493 381 474 Q425 455 457 421.5 Q489 388 507 341.5 Q525 295 525 240 Q525 184 507 137.5 Q489 91 457 57.5 Q425 24 381 5 Q337 -14 285 -14 Q233 -14 189 5 Q145 24 113 57.5 Q81 91 63 137.5 Q45 184 45 240 Q45 295 63 341.5 Q81 388 113 421.5 Q145 455 189 474 Q233 493 285 493 Z M285 421 Q253 421 224 409 Q195 397 173 374 Q151 351 138 317 Q125 283 125 240 Q125 196 138 162 Q151 128 173 105 Q195 82 224 70 Q253 58 285 58 Q317 58 346 70 Q375 82 397 105 Q419 128 432 162 Q445 196 445 240 Q445 283 432 317 Q419 351 397 374 Q375 397 346 409 Q317 421 285 421 Z " />
<glyph glyph-name="oacute" unicode="&#xf3;" horiz-adv-x="570" d="M305 541 L239 541 L326 684 L428 684 L305 541 Z M285 493 Q337 493 381 474 Q425 455 457 421.5 Q489 388 507 341.5 Q525 295 525 240 Q525 184 507 137.5 Q489 91 457 57.5 Q425 24 381 5 Q337 -14 285 -14 Q233 -14 189 5 Q145 24 113 57.5 Q81 91 63 137.5 Q45 184 45 240 Q45 295 63 341.5 Q81 388 113 421.5 Q145 455 189 474 Q233 493 285 493 Z M285 421 Q253 421 224 409 Q195 397 173 374 Q151 351 138 317 Q125 283 125 240 Q125 196 138 162 Q151 128 173 105 Q195 82 224 70 Q253 58 285 58 Q317 58 346 70 Q375 82 397 105 Q419 128 432 162 Q445 196 445 240 Q445 283 432 317 Q419 351 397 374 Q375 397 346 409 Q317 421 285 421 Z " />
<glyph glyph-name="ocircumflex" unicode="&#xf4;" horiz-adv-x="570" d="M132 541 L238 679 L333 679 L438 541 L364 541 L285 632 L206 541 L132 541 Z M285 493 Q337 493 381 474 Q425 455 457 421.5 Q489 388 507 341.5 Q525 295 525 240 Q525 184 507 137.5 Q489 91 457 57.5 Q425 24 381 5 Q337 -14 285 -14 Q233 -14 189 5 Q145 24 113 57.5 Q81 91 63 137.5 Q45 184 45 240 Q45 295 63 341.5 Q81 388 113 421.5 Q145 455 189 474 Q233 493 285 493 Z M285 421 Q253 421 224 409 Q195 397 173 374 Q151 351 138 317 Q125 283 125 240 Q125 196 138 162 Q151 128 173 105 Q195 82 224 70 Q253 58 285 58 Q317 58 346 70 Q375 82 397 105 Q419 128 432 162 Q445 196 445 240 Q445 283 432 317 Q419 351 397 374 Q375 397 346 409 Q317 421 285 421 Z " />
<glyph glyph-name="otilde" unicode="&#xf5;" horiz-adv-x="570" d="M285 493 Q337 493 381 474 Q425 455 457 421.5 Q489 388 507 341.5 Q525 295 525 240 Q525 184 507 137.5 Q489 91 457 57.5 Q425 24 381 5 Q337 -14 285 -14 Q233 -14 189 5 Q145 24 113 57.5 Q81 91 63 137.5 Q45 184 45 240 Q45 295 63 341.5 Q81 388 113 421.5 Q145 455 189 474 Q233 493 285 493 Z M285 421 Q253 421 224 409 Q195 397 173 374 Q151 351 138 317 Q125 283 125 240 Q125 196 138 162 Q151 128 173 105 Q195 82 224 70 Q253 58 285 58 Q317 58 346 70 Q375 82 397 105 Q419 128 432 162 Q445 196 445 240 Q445 283 432 317 Q419 351 397 374 Q375 397 346 409 Q317 421 285 421 Z M441 656 Q441 604 414.5 578 Q388 552 349 552 Q329 552 313.5 558.5 Q298 565 284 575 L269 586 Q258 594 248 598.5 Q238 603 227 603 Q210 603 202 591.5 Q194 580 194 554 L132 554 L132 568 Q132 620 158.5 645.5 Q185 671 224 671 Q245 671 261.5 665 Q278 659 292 648 L307 637 Q317 629 326.5 625 Q336 621 347 621 Q364 621 372 632 Q380 643 380 669 L441 669 L441 656 Z " />
<glyph glyph-name="odieresis" unicode="&#xf6;" horiz-adv-x="570" d="M141 616 Q141 638 156 653 Q171 668 193 668 Q215 668 230 653 Q245 638 245 616 Q245 594 230 579 Q215 564 193 564 Q171 564 156 579 Q141 594 141 616 Z M323 616 Q323 638 338 653 Q353 668 375 668 Q397 668 412 653 Q427 638 427 616 Q427 594 412 579 Q397 564 375 564 Q353 564 338 579 Q323 594 323 616 Z M285 493 Q337 493 381 474 Q425 455 457 421.5 Q489 388 507 341.5 Q525 295 525 240 Q525 184 507 137.5 Q489 91 457 57.5 Q425 24 381 5 Q337 -14 285 -14 Q233 -14 189 5 Q145 24 113 57.5 Q81 91 63 137.5 Q45 184 45 240 Q45 295 63 341.5 Q81 388 113 421.5 Q145 455 189 474 Q233 493 285 493 Z M285 421 Q253 421 224 409 Q195 397 173 374 Q151 351 138 317 Q125 283 125 240 Q125 196 138 162 Q151 128 173 105 Q195 82 224 70 Q253 58 285 58 Q317 58 346 70 Q375 82 397 105 Q419 128 432 162 Q445 196 445 240 Q445 283 432 317 Q419 351 397 374 Q375 397 346 409 Q317 421 285 421 Z " />
<glyph glyph-name="divide" unicode="&#xf7;" horiz-adv-x="564" d="M223 110 Q223 133 240.5 150 Q258 167 281 167 Q305 167 321.5 150 Q338 133 338 110 Q338 87 321.5 69.5 Q305 52 281 52 Q258 52 240.5 69.5 Q223 87 223 110 Z M223 465 Q223 488 240.5 505 Q258 522 281 522 Q305 522 321.5 505 Q338 488 338 465 Q338 442 321.5 424.5 Q305 407 281 407 Q258 407 240.5 424.5 Q223 442 223 465 Z M57 323 L507 323 L507 252 L57 252 L57 323 Z " />
<glyph glyph-name="oslash" unicode="&#xf8;" horiz-adv-x="572" d="M286 493 Q322 493 354 483.5 Q386 474 414 457 L465 524 L516 483 L463 415 Q493 382 509.5 337.5 Q526 293 526 240 Q526 184 508 137.5 Q490 91 458 57.5 Q426 24 382 5 Q338 -14 286 -14 Q250 -14 218 -5 Q186 4 158 21 L107 -45 L56 -4 L108 64 Q79 97 62.5 141.5 Q46 186 46 240 Q46 295 64 341.5 Q82 388 114 421.5 Q146 455 190 474 Q234 493 286 493 Z M446 240 Q446 275 437.5 303 Q429 331 415 353 L204 80 Q239 58 286 58 Q318 58 347 70 Q376 82 398 105 Q420 128 433 162 Q446 196 446 240 Z M286 421 Q254 421 225 409 Q196 397 174 374 Q152 351 139 317 Q126 283 126 240 Q126 171 157 126 L368 398 Q331 421 286 421 Z " />
<glyph glyph-name="ugrave" unicode="&#xf9;" horiz-adv-x="550" d="M396 65 Q379 28 339.5 7 Q300 -14 252 -14 Q208 -14 174.5 1 Q141 16 118.5 42 Q96 68 84 103 Q72 138 72 178 L72 479 L152 479 L152 191 Q152 165 158.5 141 Q165 117 179 98.5 Q193 80 215.5 69 Q238 58 270 58 Q330 58 361 95.5 Q392 133 392 190 L392 479 L472 479 L472 90 Q472 62 474 38 Q476 14 478 0 L401 0 Q399 8 397.5 25.5 Q396 43 396 61 L396 65 Z M133 684 L235 684 L322 541 L256 541 L133 684 Z " />
<glyph glyph-name="uacute" unicode="&#xfa;" horiz-adv-x="550" d="M282 541 L216 541 L303 684 L405 684 L282 541 Z M396 65 Q379 28 339.5 7 Q300 -14 252 -14 Q208 -14 174.5 1 Q141 16 118.5 42 Q96 68 84 103 Q72 138 72 178 L72 479 L152 479 L152 191 Q152 165 158.5 141 Q165 117 179 98.5 Q193 80 215.5 69 Q238 58 270 58 Q330 58 361 95.5 Q392 133 392 190 L392 479 L472 479 L472 90 Q472 62 474 38 Q476 14 478 0 L401 0 Q399 8 397.5 25.5 Q396 43 396 61 L396 65 Z " />
<glyph glyph-name="ucircumflex" unicode="&#xfb;" horiz-adv-x="550" d="M119 541 L225 679 L320 679 L425 541 L351 541 L272 632 L193 541 L119 541 Z M396 65 Q379 28 339.5 7 Q300 -14 252 -14 Q208 -14 174.5 1 Q141 16 118.5 42 Q96 68 84 103 Q72 138 72 178 L72 479 L152 479 L152 191 Q152 165 158.5 141 Q165 117 179 98.5 Q193 80 215.5 69 Q238 58 270 58 Q330 58 361 95.5 Q392 133 392 190 L392 479 L472 479 L472 90 Q472 62 474 38 Q476 14 478 0 L401 0 Q399 8 397.5 25.5 Q396 43 396 61 L396 65 Z " />
<glyph glyph-name="udieresis" unicode="&#xfc;" horiz-adv-x="550" d="M128 616 Q128 638 143 653 Q158 668 180 668 Q202 668 217 653 Q232 638 232 616 Q232 594 217 579 Q202 564 180 564 Q158 564 143 579 Q128 594 128 616 Z M310 616 Q310 638 325 653 Q340 668 362 668 Q384 668 399 653 Q414 638 414 616 Q414 594 399 579 Q384 564 362 564 Q340 564 325 579 Q310 594 310 616 Z M396 65 Q379 28 339.5 7 Q300 -14 252 -14 Q208 -14 174.5 1 Q141 16 118.5 42 Q96 68 84 103 Q72 138 72 178 L72 479 L152 479 L152 191 Q152 165 158.5 141 Q165 117 179 98.5 Q193 80 215.5 69 Q238 58 270 58 Q330 58 361 95.5 Q392 133 392 190 L392 479 L472 479 L472 90 Q472 62 474 38 Q476 14 478 0 L401 0 Q399 8 397.5 25.5 Q396 43 396 61 L396 65 Z " />
<glyph glyph-name="yacute" unicode="&#xfd;" horiz-adv-x="523" d="M111 -190 L227 57 L21 479 L113 479 L271 140 L420 479 L507 479 L200 -190 L111 -190 Z M278 541 L212 541 L299 684 L401 684 L278 541 Z " />
<glyph glyph-name="thorn" unicode="&#xfe;" horiz-adv-x="586" d="M158 723 L158 399 Q175 436 216.5 464.5 Q258 493 322 493 Q375 493 415.5 473.5 Q456 454 484 420 Q512 386 526 340 Q540 294 540 240 Q540 186 525 140 Q510 94 481.5 59.5 Q453 25 412.5 5.5 Q372 -14 320 -14 Q258 -14 217.5 13 Q177 40 158 74 L158 -190 L78 -190 L78 723 L158 723 Z M308 58 Q342 58 370.5 71.5 Q399 85 418.5 109 Q438 133 449 166.5 Q460 200 460 240 Q460 280 449.5 313 Q439 346 419 370 Q399 394 371 407.5 Q343 421 308 421 Q273 421 245 407.5 Q217 394 197 370 Q177 346 166.5 313 Q156 280 156 240 Q156 200 167 166.5 Q178 133 197.5 109 Q217 85 245 71.5 Q273 58 308 58 Z " />
<glyph glyph-name="ydieresis" unicode="&#xff;" horiz-adv-x="523" d="M120 616 Q120 638 135 653 Q150 668 172 668 Q194 668 209 653 Q224 638 224 616 Q224 594 209 579 Q194 564 172 564 Q150 564 135 579 Q120 594 120 616 Z M302 616 Q302 638 317 653 Q332 668 354 668 Q376 668 391 653 Q406 638 406 616 Q406 594 391 579 Q376 564 354 564 Q332 564 317 579 Q302 594 302 616 Z M111 -190 L227 57 L21 479 L113 479 L271 140 L420 479 L507 479 L200 -190 L111 -190 Z " />
<glyph glyph-name="Amacron" unicode="&#x100;" horiz-adv-x="706" d="M515 207 L190 207 L111 0 L20 0 L304 709 L402 709 L687 0 L596 0 L515 207 Z M220 284 L485 284 L352 623 L220 284 Z M210 786 L210 856 L494 856 L494 786 L210 786 Z " />
<glyph glyph-name="amacron" unicode="&#x101;" horiz-adv-x="512" d="M44 127 Q44 190 84 225.5 Q124 261 187 270 L316 289 Q342 293 350.5 303.5 Q359 314 359 330 Q359 371 332 398 Q305 425 248 425 Q195 425 164.5 396.5 Q134 368 129 322 L53 340 Q57 374 73 402 Q89 430 114.5 450.5 Q140 471 173.5 482 Q207 493 246 493 Q297 493 333.5 479.5 Q370 466 393.5 442.5 Q417 419 428 388 Q439 357 439 322 L439 80 Q439 50 441 30.5 Q443 11 445 0 L367 0 Q365 8 363 26 Q361 44 361 72 Q353 57 339.5 42 Q326 27 306 14.5 Q286 2 260 -6 Q234 -14 202 -14 Q165 -14 135.5 -2 Q106 10 86 29.5 Q66 49 55 74.5 Q44 100 44 127 Z M212 54 Q243 54 270 63 Q297 72 316.5 90 Q336 108 347.5 136 Q359 164 359 202 L359 234 L203 211 Q168 206 146 186 Q124 166 124 131 Q124 102 147.5 78 Q171 54 212 54 Z M119 578 L119 648 L384 648 L384 578 L119 578 Z " />
<glyph glyph-name="Abreve" unicode="&#x102;" horiz-adv-x="706" d="M515 207 L190 207 L111 0 L20 0 L304 709 L402 709 L687 0 L596 0 L515 207 Z M220 284 L485 284 L352 623 L220 284 Z M353 753 Q317 753 289.5 764 Q262 775 243 793 Q224 811 213.5 834.5 Q203 858 201 882 L270 882 Q271 871 276.5 860 Q282 849 291.5 839.5 Q301 830 316.5 824 Q332 818 353 818 Q374 818 389.5 824 Q405 830 414.5 839.5 Q424 849 429 860 Q434 871 436 882 L505 882 Q503 858 492.5 834.5 Q482 811 463 793 Q444 775 416.5 764 Q389 753 353 753 Z " />
<glyph glyph-name="abreve" unicode="&#x103;" horiz-adv-x="512" d="M44 127 Q44 190 84 225.5 Q124 261 187 270 L316 289 Q342 293 350.5 303.5 Q359 314 359 330 Q359 371 332 398 Q305 425 248 425 Q195 425 164.5 396.5 Q134 368 129 322 L53 340 Q57 374 73 402 Q89 430 114.5 450.5 Q140 471 173.5 482 Q207 493 246 493 Q297 493 333.5 479.5 Q370 466 393.5 442.5 Q417 419 428 388 Q439 357 439 322 L439 80 Q439 50 441 30.5 Q443 11 445 0 L367 0 Q365 8 363 26 Q361 44 361 72 Q353 57 339.5 42 Q326 27 306 14.5 Q286 2 260 -6 Q234 -14 202 -14 Q165 -14 135.5 -2 Q106 10 86 29.5 Q66 49 55 74.5 Q44 100 44 127 Z M212 54 Q243 54 270 63 Q297 72 316.5 90 Q336 108 347.5 136 Q359 164 359 202 L359 234 L203 211 Q168 206 146 186 Q124 166 124 131 Q124 102 147.5 78 Q171 54 212 54 Z M249 542 Q213 542 186.5 554 Q160 566 142 586 Q124 606 115 631.5 Q106 657 106 684 L168 684 Q170 655 188.5 631.5 Q207 608 249 608 Q291 608 309.5 631.5 Q328 655 330 684 L392 684 Q392 657 383 631.5 Q374 606 356 586 Q338 566 311.5 554 Q285 542 249 542 Z " />
<glyph glyph-name="Aogonek" unicode="&#x104;" horiz-adv-x="706" d="M515 207 L190 207 L111 0 L20 0 L304 709 L402 709 L687 0 Q673 -7 658 -16.5 Q643 -26 631 -38.5 Q619 -51 611 -66.5 Q603 -82 603 -101 Q603 -127 620.5 -139.5 Q638 -152 660 -152 Q671 -152 679 -151 Q687 -150 693 -148 L693 -206 Q684 -209 672.5 -211 Q661 -213 645 -213 Q623 -213 603 -206.5 Q583 -200 568 -187.5 Q553 -175 544 -157 Q535 -139 535 -116 Q535 -73 557 -45 Q579 -17 607 0 L596 0 L515 207 Z M220 284 L485 284 L352 623 L220 284 Z " />
<glyph glyph-name="aogonek" unicode="&#x105;" horiz-adv-x="512" d="M293 -116 Q293 -73 315.5 -45 Q338 -17 367 0 Q365 8 363 26 Q361 44 361 72 Q353 57 339.5 42 Q326 27 306 14.5 Q286 2 260 -6 Q234 -14 202 -14 Q165 -14 135.5 -2 Q106 10 86 29.5 Q66 49 55 74.5 Q44 100 44 127 Q44 190 84 225.5 Q124 261 187 270 L316 289 Q342 293 350.5 303.5 Q359 314 359 330 Q359 371 332 398 Q305 425 248 425 Q195 425 164.5 396.5 Q134 368 129 322 L53 340 Q57 374 73 402 Q89 430 114.5 450.5 Q140 471 173.5 482 Q207 493 246 493 Q297 493 333.5 479.5 Q370 466 393.5 442.5 Q417 419 428 388 Q439 357 439 322 L439 80 Q439 50 441 30.5 Q443 11 445 0 Q431 -7 416 -16.5 Q401 -26 389 -38.5 Q377 -51 369 -66.5 Q361 -82 361 -101 Q361 -127 378.5 -139.5 Q396 -152 418 -152 Q429 -152 437 -151 Q445 -150 451 -148 L451 -206 Q442 -209 430.5 -211 Q419 -213 403 -213 Q381 -213 361 -206.5 Q341 -200 326 -187.5 Q311 -175 302 -157 Q293 -139 293 -116 Z M212 54 Q243 54 270 63 Q297 72 316.5 90 Q336 108 347.5 136 Q359 164 359 202 L359 234 L203 211 Q168 206 146 186 Q124 166 124 131 Q124 102 147.5 78 Q171 54 212 54 Z " />
<glyph glyph-name="Cacute" unicode="&#x106;" horiz-adv-x="746" d="M433 759 L354 759 L458 878 L569 878 L433 759 Z M399 -14 Q331 -14 268.5 10.5 Q206 35 157 82 Q108 129 79 197.5 Q50 266 50 355 Q50 444 80 512.5 Q110 581 159 628 Q208 675 270.5 699 Q333 723 399 723 Q459 723 510 707 Q561 691 601 661.5 Q641 632 668.5 590.5 Q696 549 709 498 L631 471 Q611 555 550.5 600.5 Q490 646 399 646 Q348 646 300.5 627.5 Q253 609 216 572.5 Q179 536 156.5 481.5 Q134 427 134 355 Q134 283 156.5 228 Q179 173 216 136.5 Q253 100 300.5 81.5 Q348 63 399 63 Q446 63 485 76.5 Q524 90 554 114 Q584 138 604.5 170.5 Q625 203 636 241 L710 214 Q696 164 668.5 122 Q641 80 601.5 50 Q562 20 511 3 Q460 -14 399 -14 Z " />
<glyph glyph-name="cacute" unicode="&#x107;" horiz-adv-x="532" d="M306 541 L240 541 L327 684 L429 684 L306 541 Z M282 421 Q250 421 222 409 Q194 397 172 374 Q150 351 137.5 317 Q125 283 125 240 Q125 197 137.5 163 Q150 129 172 106 Q194 83 222.5 70.5 Q251 58 283 58 Q317 58 341.5 68.5 Q366 79 383 95.5 Q400 112 410.5 130.5 Q421 149 426 166 L496 135 Q487 108 470 81.5 Q453 55 427 34 Q401 13 365 -0.5 Q329 -14 283 -14 Q231 -14 187.5 5 Q144 24 112.5 58 Q81 92 63 138.5 Q45 185 45 240 Q45 296 63 342.5 Q81 389 113 422.5 Q145 456 188 474.5 Q231 493 282 493 Q328 493 364 480 Q400 467 426 446 Q452 425 468 397.5 Q484 370 492 342 L420 311 Q415 330 405 349.5 Q395 369 378.5 385 Q362 401 338 411 Q314 421 282 421 Z " />
<glyph glyph-name="Ccircumflex" unicode="&#x108;" horiz-adv-x="746" d="M238 759 L350 878 L460 878 L572 759 L494 759 L405 833 L316 759 L238 759 Z M399 -14 Q331 -14 268.5 10.5 Q206 35 157 82 Q108 129 79 197.5 Q50 266 50 355 Q50 444 80 512.5 Q110 581 159 628 Q208 675 270.5 699 Q333 723 399 723 Q459 723 510 707 Q561 691 601 661.5 Q641 632 668.5 590.5 Q696 549 709 498 L631 471 Q611 555 550.5 600.5 Q490 646 399 646 Q348 646 300.5 627.5 Q253 609 216 572.5 Q179 536 156.5 481.5 Q134 427 134 355 Q134 283 156.5 228 Q179 173 216 136.5 Q253 100 300.5 81.5 Q348 63 399 63 Q446 63 485 76.5 Q524 90 554 114 Q584 138 604.5 170.5 Q625 203 636 241 L710 214 Q696 164 668.5 122 Q641 80 601.5 50 Q562 20 511 3 Q460 -14 399 -14 Z " />
<glyph glyph-name="ccircumflex" unicode="&#x109;" horiz-adv-x="532" d="M130 541 L236 679 L331 679 L436 541 L362 541 L283 632 L204 541 L130 541 Z M282 421 Q250 421 222 409 Q194 397 172 374 Q150 351 137.5 317 Q125 283 125 240 Q125 197 137.5 163 Q150 129 172 106 Q194 83 222.5 70.5 Q251 58 283 58 Q317 58 341.5 68.5 Q366 79 383 95.5 Q400 112 410.5 130.5 Q421 149 426 166 L496 135 Q487 108 470 81.5 Q453 55 427 34 Q401 13 365 -0.5 Q329 -14 283 -14 Q231 -14 187.5 5 Q144 24 112.5 58 Q81 92 63 138.5 Q45 185 45 240 Q45 296 63 342.5 Q81 389 113 422.5 Q145 456 188 474.5 Q231 493 282 493 Q328 493 364 480 Q400 467 426 446 Q452 425 468 397.5 Q484 370 492 342 L420 311 Q415 330 405 349.5 Q395 369 378.5 385 Q362 401 338 411 Q314 421 282 421 Z " />
<glyph glyph-name="Cdotaccent" unicode="&#x10a;" horiz-adv-x="746" d="M399 -14 Q331 -14 268.5 10.5 Q206 35 157 82 Q108 129 79 197.5 Q50 266 50 355 Q50 444 80 512.5 Q110 581 159 628 Q208 675 270.5 699 Q333 723 399 723 Q459 723 510 707 Q561 691 601 661.5 Q641 632 668.5 590.5 Q696 549 709 498 L631 471 Q611 555 550.5 600.5 Q490 646 399 646 Q348 646 300.5 627.5 Q253 609 216 572.5 Q179 536 156.5 481.5 Q134 427 134 355 Q134 283 156.5 228 Q179 173 216 136.5 Q253 100 300.5 81.5 Q348 63 399 63 Q446 63 485 76.5 Q524 90 554 114 Q584 138 604.5 170.5 Q625 203 636 241 L710 214 Q696 164 668.5 122 Q641 80 601.5 50 Q562 20 511 3 Q460 -14 399 -14 Z M401 762 Q378 762 361 778.5 Q344 795 344 819 Q344 843 361 859.5 Q378 876 401 876 Q424 876 441 859.5 Q458 843 458 819 Q458 795 441 778.5 Q424 762 401 762 Z " />
<glyph glyph-name="cdotaccent" unicode="&#x10b;" horiz-adv-x="532" d="M282 421 Q250 421 222 409 Q194 397 172 374 Q150 351 137.5 317 Q125 283 125 240 Q125 197 137.5 163 Q150 129 172 106 Q194 83 222.5 70.5 Q251 58 283 58 Q317 58 341.5 68.5 Q366 79 383 95.5 Q400 112 410.5 130.5 Q421 149 426 166 L496 135 Q487 108 470 81.5 Q453 55 427 34 Q401 13 365 -0.5 Q329 -14 283 -14 Q231 -14 187.5 5 Q144 24 112.5 58 Q81 92 63 138.5 Q45 185 45 240 Q45 296 63 342.5 Q81 389 113 422.5 Q145 456 188 474.5 Q231 493 282 493 Q328 493 364 480 Q400 467 426 446 Q452 425 468 397.5 Q484 370 492 342 L420 311 Q415 330 405 349.5 Q395 369 378.5 385 Q362 401 338 411 Q314 421 282 421 Z M229 613 Q229 636 245 652 Q261 668 284 668 Q307 668 323 652 Q339 636 339 613 Q339 590 323 574 Q307 558 284 558 Q261 558 245 574 Q229 590 229 613 Z " />
<glyph glyph-name="Ccaron" unicode="&#x10c;" horiz-adv-x="746" d="M567 878 L455 759 L345 759 L233 878 L311 878 L400 804 L489 878 L567 878 Z M399 -14 Q331 -14 268.5 10.5 Q206 35 157 82 Q108 129 79 197.5 Q50 266 50 355 Q50 444 80 512.5 Q110 581 159 628 Q208 675 270.5 699 Q333 723 399 723 Q459 723 510 707 Q561 691 601 661.5 Q641 632 668.5 590.5 Q696 549 709 498 L631 471 Q611 555 550.5 600.5 Q490 646 399 646 Q348 646 300.5 627.5 Q253 609 216 572.5 Q179 536 156.5 481.5 Q134 427 134 355 Q134 283 156.5 228 Q179 173 216 136.5 Q253 100 300.5 81.5 Q348 63 399 63 Q446 63 485 76.5 Q524 90 554 114 Q584 138 604.5 170.5 Q625 203 636 241 L710 214 Q696 164 668.5 122 Q641 80 601.5 50 Q562 20 511 3 Q460 -14 399 -14 Z " />
<glyph glyph-name="ccaron" unicode="&#x10d;" horiz-adv-x="532" d="M197 679 L276 588 L355 679 L429 679 L324 541 L229 541 L123 679 L197 679 Z M282 421 Q250 421 222 409 Q194 397 172 374 Q150 351 137.5 317 Q125 283 125 240 Q125 197 137.5 163 Q150 129 172 106 Q194 83 222.5 70.5 Q251 58 283 58 Q317 58 341.5 68.5 Q366 79 383 95.5 Q400 112 410.5 130.5 Q421 149 426 166 L496 135 Q487 108 470 81.5 Q453 55 427 34 Q401 13 365 -0.5 Q329 -14 283 -14 Q231 -14 187.5 5 Q144 24 112.5 58 Q81 92 63 138.5 Q45 185 45 240 Q45 296 63 342.5 Q81 389 113 422.5 Q145 456 188 474.5 Q231 493 282 493 Q328 493 364 480 Q400 467 426 446 Q452 425 468 397.5 Q484 370 492 342 L420 311 Q415 330 405 349.5 Q395 369 378.5 385 Q362 401 338 411 Q314 421 282 421 Z " />
<glyph glyph-name="Dcaron" unicode="&#x10e;" horiz-adv-x="721" d="M524 878 L412 759 L302 759 L190 878 L268 878 L357 804 L446 878 L524 878 Z M331 74 Q383 74 429 91.5 Q475 109 510 144 Q545 179 565.5 231 Q586 283 586 353 Q586 423 566 476 Q546 529 511.5 564 Q477 599 431 617 Q385 635 333 635 L182 635 L182 74 L331 74 Z M98 0 L98 709 L333 709 Q400 709 461.5 686 Q523 663 569 618 Q615 573 642.5 506.5 Q670 440 670 353 Q670 266 642.5 200 Q615 134 568 89.5 Q521 45 459.5 22.5 Q398 0 331 0 L98 0 Z " />
<glyph glyph-name="dcaron" unicode="&#x10f;" horiz-adv-x="581" d="M607 545 L548 545 L579 723 L668 723 L607 545 Z M425 82 Q417 64 403 47 Q389 30 369.5 16.5 Q350 3 324.5 -5.5 Q299 -14 268 -14 Q216 -14 175 5.5 Q134 25 105.5 59.5 Q77 94 61.5 140.5 Q46 187 46 240 Q46 292 62 338 Q78 384 107 418.5 Q136 453 177 473 Q218 493 268 493 Q302 493 328.5 484.5 Q355 476 374 462.5 Q393 449 405 433 Q417 417 423 402 L423 723 L503 723 L503 90 Q503 54 504.5 31 Q506 8 508 0 L430 0 Q428 8 426.5 27 Q425 46 425 69 L425 82 Z M275 58 Q309 58 336.5 71.5 Q364 85 383.5 109 Q403 133 414 166.5 Q425 200 425 240 Q425 280 414.5 313 Q404 346 384.5 370 Q365 394 337 407.5 Q309 421 275 421 Q241 421 213.5 407.5 Q186 394 166.5 370 Q147 346 136.5 313 Q126 280 126 240 Q126 200 136.5 166.5 Q147 133 166.5 109 Q186 85 213.5 71.5 Q241 58 275 58 Z " />
<glyph glyph-name="Dcroat" unicode="&#x110;" horiz-adv-x="723" d="M100 0 L100 331 L23 331 L23 401 L100 401 L100 709 L335 709 Q402 709 463.5 686 Q525 663 571 618 Q617 573 644.5 506.5 Q672 440 672 353 Q672 266 644.5 200 Q617 134 570 89.5 Q523 45 461.5 22.5 Q400 0 333 0 L100 0 Z M333 74 Q385 74 431 91.5 Q477 109 512 144 Q547 179 567.5 231 Q588 283 588 353 Q588 423 568 476 Q548 529 513.5 564 Q479 599 433 617 Q387 635 335 635 L184 635 L184 401 L314 401 L314 331 L184 331 L184 74 L333 74 Z " />
<glyph glyph-name="dslash" unicode="&#x111;" horiz-adv-x="581" d="M425 82 Q417 64 403 47 Q389 30 369.5 16.5 Q350 3 324.5 -5.5 Q299 -14 268 -14 Q216 -14 175 5.5 Q134 25 105.5 59.5 Q77 94 61.5 140.5 Q46 187 46 240 Q46 292 62 338 Q78 384 107 418.5 Q136 453 177 473 Q218 493 268 493 Q302 493 328.5 484.5 Q355 476 374 462.5 Q393 449 405 433 Q417 417 423 402 L423 560 L292 560 L292 626 L423 626 L423 723 L503 723 L503 626 L586 626 L586 560 L503 560 L503 90 Q503 54 504.5 31 Q506 8 508 0 L430 0 Q428 8 426.5 27 Q425 46 425 69 L425 82 Z M275 58 Q309 58 336.5 71.5 Q364 85 383.5 109 Q403 133 414 166.5 Q425 200 425 240 Q425 280 414.5 313 Q404 346 384.5 370 Q365 394 337 407.5 Q309 421 275 421 Q241 421 213.5 407.5 Q186 394 166.5 370 Q147 346 136.5 313 Q126 280 126 240 Q126 200 136.5 166.5 Q147 133 166.5 109 Q186 85 213.5 71.5 Q241 58 275 58 Z " />
<glyph glyph-name="Emacron" unicode="&#x112;" horiz-adv-x="578" d="M98 0 L98 709 L523 709 L523 632 L182 632 L182 393 L492 393 L492 316 L182 316 L182 77 L523 77 L523 0 L98 0 Z M167 786 L167 856 L451 856 L451 786 L167 786 Z " />
<glyph glyph-name="emacron" unicode="&#x113;" horiz-adv-x="541" d="M147 578 L147 648 L412 648 L412 578 L147 578 Z M415 286 Q413 343 377.5 382.5 Q342 422 273 422 Q242 422 216 410.5 Q190 399 171.5 380.5 Q153 362 142 337.5 Q131 313 129 286 L415 286 Z M495 136 Q485 105 466 77.5 Q447 50 420 30 Q393 10 358.5 -2 Q324 -14 282 -14 Q234 -14 191 3 Q148 20 115.5 53 Q83 86 64 133.5 Q45 181 45 241 Q45 298 63.5 344.5 Q82 391 113 424 Q144 457 185.5 475 Q227 493 272 493 Q326 493 368.5 475 Q411 457 439.5 424.5 Q468 392 483 346.5 Q498 301 498 246 Q498 238 497.5 230.5 Q497 223 496 218 L127 218 L127 214 Q127 180 139 151.5 Q151 123 172 102 Q193 81 221.5 69.5 Q250 58 282 58 Q343 58 377.5 88 Q412 118 426 161 L495 136 Z " />
<glyph glyph-name="Ebreve" unicode="&#x114;" horiz-adv-x="578" d="M313 753 Q277 753 249.5 764 Q222 775 203 793 Q184 811 173.5 834.5 Q163 858 161 882 L230 882 Q231 871 236.5 860 Q242 849 251.5 839.5 Q261 830 276.5 824 Q292 818 313 818 Q334 818 349.5 824 Q365 830 374.5 839.5 Q384 849 389 860 Q394 871 396 882 L465 882 Q463 858 452.5 834.5 Q442 811 423 793 Q404 775 376.5 764 Q349 753 313 753 Z M98 0 L98 709 L523 709 L523 632 L182 632 L182 393 L492 393 L492 316 L182 316 L182 77 L523 77 L523 0 L98 0 Z " />
<glyph glyph-name="ebreve" unicode="&#x115;" horiz-adv-x="541" d="M415 286 Q413 343 377.5 382.5 Q342 422 273 422 Q242 422 216 410.5 Q190 399 171.5 380.5 Q153 362 142 337.5 Q131 313 129 286 L415 286 Z M495 136 Q485 105 466 77.5 Q447 50 420 30 Q393 10 358.5 -2 Q324 -14 282 -14 Q234 -14 191 3 Q148 20 115.5 53 Q83 86 64 133.5 Q45 181 45 241 Q45 298 63.5 344.5 Q82 391 113 424 Q144 457 185.5 475 Q227 493 272 493 Q326 493 368.5 475 Q411 457 439.5 424.5 Q468 392 483 346.5 Q498 301 498 246 Q498 238 497.5 230.5 Q497 223 496 218 L127 218 L127 214 Q127 180 139 151.5 Q151 123 172 102 Q193 81 221.5 69.5 Q250 58 282 58 Q343 58 377.5 88 Q412 118 426 161 L495 136 Z M279 542 Q243 542 216.5 554 Q190 566 172 586 Q154 606 145 631.5 Q136 657 136 684 L198 684 Q200 655 218.5 631.5 Q237 608 279 608 Q321 608 339.5 631.5 Q358 655 360 684 L422 684 Q422 657 413 631.5 Q404 606 386 586 Q368 566 341.5 554 Q315 542 279 542 Z " />
<glyph glyph-name="Edotaccent" unicode="&#x116;" horiz-adv-x="578" d="M312 762 Q289 762 272 778.5 Q255 795 255 819 Q255 843 272 859.5 Q289 876 312 876 Q335 876 352 859.5 Q369 843 369 819 Q369 795 352 778.5 Q335 762 312 762 Z M98 0 L98 709 L523 709 L523 632 L182 632 L182 393 L492 393 L492 316 L182 316 L182 77 L523 77 L523 0 L98 0 Z " />
<glyph glyph-name="edotaccent" unicode="&#x117;" horiz-adv-x="541" d="M415 286 Q413 343 377.5 382.5 Q342 422 273 422 Q242 422 216 410.5 Q190 399 171.5 380.5 Q153 362 142 337.5 Q131 313 129 286 L415 286 Z M495 136 Q485 105 466 77.5 Q447 50 420 30 Q393 10 358.5 -2 Q324 -14 282 -14 Q234 -14 191 3 Q148 20 115.5 53 Q83 86 64 133.5 Q45 181 45 241 Q45 298 63.5 344.5 Q82 391 113 424 Q144 457 185.5 475 Q227 493 272 493 Q326 493 368.5 475 Q411 457 439.5 424.5 Q468 392 483 346.5 Q498 301 498 246 Q498 238 497.5 230.5 Q497 223 496 218 L127 218 L127 214 Q127 180 139 151.5 Q151 123 172 102 Q193 81 221.5 69.5 Q250 58 282 58 Q343 58 377.5 88 Q412 118 426 161 L495 136 Z M225 613 Q225 636 241 652 Q257 668 280 668 Q303 668 319 652 Q335 636 335 613 Q335 590 319 574 Q303 558 280 558 Q257 558 241 574 Q225 590 225 613 Z " />
<glyph glyph-name="Eogonek" unicode="&#x118;" horiz-adv-x="578" d="M371 -116 Q371 -73 393 -45 Q415 -17 443 0 L98 0 L98 709 L523 709 L523 632 L182 632 L182 393 L492 393 L492 316 L182 316 L182 77 L523 77 L523 0 Q509 -7 494 -16.5 Q479 -26 467 -38.5 Q455 -51 447 -66.5 Q439 -82 439 -101 Q439 -127 456.5 -139.5 Q474 -152 496 -152 Q507 -152 515 -151 Q523 -150 529 -148 L529 -206 Q520 -209 508.5 -211 Q497 -213 481 -213 Q459 -213 439 -206.5 Q419 -200 404 -187.5 Q389 -175 380 -157 Q371 -139 371 -116 Z " />
<glyph glyph-name="eogonek" unicode="&#x119;" horiz-adv-x="541" d="M213 -116 Q213 -81 228.5 -55.5 Q244 -30 266 -13 Q221 -10 180.5 8 Q140 26 110 58.5 Q80 91 62.5 137 Q45 183 45 241 Q45 298 63.5 344.5 Q82 391 113 424 Q144 457 185.5 475 Q227 493 272 493 Q326 493 368.5 475 Q411 457 439.5 424.5 Q468 392 483 346.5 Q498 301 498 246 Q498 238 497.5 230.5 Q497 223 496 218 L127 218 L127 214 Q127 180 139 151.5 Q151 123 172 102 Q193 81 221.5 69.5 Q250 58 282 58 Q343 58 377.5 88 Q412 118 426 161 L495 136 Q480 91 450 57 Q420 23 372 3 Q357 -3 341 -13 Q325 -23 311.5 -36.5 Q298 -50 289.5 -66 Q281 -82 281 -101 Q281 -127 298.5 -139.5 Q316 -152 338 -152 Q349 -152 357 -151 Q365 -150 371 -148 L371 -206 Q362 -209 350.5 -211 Q339 -213 323 -213 Q301 -213 281 -206.5 Q261 -200 246 -187.5 Q231 -175 222 -157 Q213 -139 213 -116 Z M415 286 Q413 343 377.5 382.5 Q342 422 273 422 Q242 422 216 410.5 Q190 399 171.5 380.5 Q153 362 142 337.5 Q131 313 129 286 L415 286 Z " />
<glyph glyph-name="Ecaron" unicode="&#x11a;" horiz-adv-x="578" d="M485 878 L373 759 L263 759 L151 878 L229 878 L318 804 L407 878 L485 878 Z M98 0 L98 709 L523 709 L523 632 L182 632 L182 393 L492 393 L492 316 L182 316 L182 77 L523 77 L523 0 L98 0 Z " />
<glyph glyph-name="ecaron" unicode="&#x11b;" horiz-adv-x="541" d="M200 679 L279 588 L358 679 L432 679 L327 541 L232 541 L126 679 L200 679 Z M415 286 Q413 343 377.5 382.5 Q342 422 273 422 Q242 422 216 410.5 Q190 399 171.5 380.5 Q153 362 142 337.5 Q131 313 129 286 L415 286 Z M495 136 Q485 105 466 77.5 Q447 50 420 30 Q393 10 358.5 -2 Q324 -14 282 -14 Q234 -14 191 3 Q148 20 115.5 53 Q83 86 64 133.5 Q45 181 45 241 Q45 298 63.5 344.5 Q82 391 113 424 Q144 457 185.5 475 Q227 493 272 493 Q326 493 368.5 475 Q411 457 439.5 424.5 Q468 392 483 346.5 Q498 301 498 246 Q498 238 497.5 230.5 Q497 223 496 218 L127 218 L127 214 Q127 180 139 151.5 Q151 123 172 102 Q193 81 221.5 69.5 Q250 58 282 58 Q343 58 377.5 88 Q412 118 426 161 L495 136 Z " />
<glyph glyph-name="Gcircumflex" unicode="&#x11c;" horiz-adv-x="771" d="M232 759 L344 878 L454 878 L566 759 L488 759 L399 833 L310 759 L232 759 Z M638 0 L630 115 Q619 93 599 70 Q579 47 549 28.5 Q519 10 479.5 -2 Q440 -14 390 -14 Q325 -14 264 10 Q203 34 155.5 80.5 Q108 127 79.5 196 Q51 265 51 355 Q51 445 80.5 513.5 Q110 582 159 628.5 Q208 675 270.5 699 Q333 723 398 723 Q455 723 505.5 707.5 Q556 692 596 664 Q636 636 665.5 597 Q695 558 710 510 L634 477 Q609 557 547.5 601.5 Q486 646 398 646 Q348 646 300.5 628 Q253 610 216.5 573.5 Q180 537 157.5 482.5 Q135 428 135 355 Q135 282 157 227 Q179 172 215 135.5 Q251 99 297.5 81 Q344 63 393 63 Q456 63 500 83.5 Q544 104 571.5 134.5 Q599 165 611.5 200.5 Q624 236 625 266 L372 266 L372 343 L706 343 L706 0 L638 0 Z " />
<glyph glyph-name="gcircumflex" unicode="&#x11d;" horiz-adv-x="572" d="M126 541 L232 679 L327 679 L432 541 L358 541 L279 632 L200 541 L126 541 Z M122 -8 Q128 -61 165 -96.5 Q202 -132 261 -132 Q303 -132 332 -120 Q361 -108 379.5 -86.5 Q398 -65 406 -34.5 Q414 -4 414 33 L414 110 Q397 75 359 48 Q321 21 262 21 Q214 21 174.5 39 Q135 57 106.5 88.5 Q78 120 62 163 Q46 206 46 256 Q46 306 62 349.5 Q78 393 106.5 425 Q135 457 175 475 Q215 493 264 493 Q321 493 359 469.5 Q397 446 415 411 L415 479 L494 479 L494 36 Q494 -8 483 -51 Q472 -94 445 -128 Q418 -162 373 -183 Q328 -204 261 -204 Q217 -204 179.5 -190.5 Q142 -177 113.5 -153.5 Q85 -130 67 -97.5 Q49 -65 45 -27 L122 -8 Z M418 257 Q418 332 378 376.5 Q338 421 272 421 Q206 421 166 376.5 Q126 332 126 257 Q126 182 166 137.5 Q206 93 272 93 Q338 93 378 137.5 Q418 182 418 257 Z " />
<glyph glyph-name="Gbreve" unicode="&#x11e;" horiz-adv-x="771" d="M392 753 Q356 753 328.5 764 Q301 775 282 793 Q263 811 252.5 834.5 Q242 858 240 882 L309 882 Q310 871 315.5 860 Q321 849 330.5 839.5 Q340 830 355.5 824 Q371 818 392 818 Q413 818 428.5 824 Q444 830 453.5 839.5 Q463 849 468 860 Q473 871 475 882 L544 882 Q542 858 531.5 834.5 Q521 811 502 793 Q483 775 455.5 764 Q428 753 392 753 Z M638 0 L630 115 Q619 93 599 70 Q579 47 549 28.5 Q519 10 479.5 -2 Q440 -14 390 -14 Q325 -14 264 10 Q203 34 155.5 80.5 Q108 127 79.5 196 Q51 265 51 355 Q51 445 80.5 513.5 Q110 582 159 628.5 Q208 675 270.5 699 Q333 723 398 723 Q455 723 505.5 707.5 Q556 692 596 664 Q636 636 665.5 597 Q695 558 710 510 L634 477 Q609 557 547.5 601.5 Q486 646 398 646 Q348 646 300.5 628 Q253 610 216.5 573.5 Q180 537 157.5 482.5 Q135 428 135 355 Q135 282 157 227 Q179 172 215 135.5 Q251 99 297.5 81 Q344 63 393 63 Q456 63 500 83.5 Q544 104 571.5 134.5 Q599 165 611.5 200.5 Q624 236 625 266 L372 266 L372 343 L706 343 L706 0 L638 0 Z " />
<glyph glyph-name="gbreve" unicode="&#x11f;" horiz-adv-x="572" d="M274 542 Q238 542 211.5 554 Q185 566 167 586 Q149 606 140 631.5 Q131 657 131 684 L193 684 Q195 655 213.5 631.5 Q232 608 274 608 Q316 608 334.5 631.5 Q353 655 355 684 L417 684 Q417 657 408 631.5 Q399 606 381 586 Q363 566 336.5 554 Q310 542 274 542 Z M122 -8 Q128 -61 165 -96.5 Q202 -132 261 -132 Q303 -132 332 -120 Q361 -108 379.5 -86.5 Q398 -65 406 -34.5 Q414 -4 414 33 L414 110 Q397 75 359 48 Q321 21 262 21 Q214 21 174.5 39 Q135 57 106.5 88.5 Q78 120 62 163 Q46 206 46 256 Q46 306 62 349.5 Q78 393 106.5 425 Q135 457 175 475 Q215 493 264 493 Q321 493 359 469.5 Q397 446 415 411 L415 479 L494 479 L494 36 Q494 -8 483 -51 Q472 -94 445 -128 Q418 -162 373 -183 Q328 -204 261 -204 Q217 -204 179.5 -190.5 Q142 -177 113.5 -153.5 Q85 -130 67 -97.5 Q49 -65 45 -27 L122 -8 Z M418 257 Q418 332 378 376.5 Q338 421 272 421 Q206 421 166 376.5 Q126 332 126 257 Q126 182 166 137.5 Q206 93 272 93 Q338 93 378 137.5 Q418 182 418 257 Z " />
<glyph glyph-name="Gdotaccent" unicode="&#x120;" horiz-adv-x="771" d="M397 762 Q374 762 357 778.5 Q340 795 340 819 Q340 843 357 859.5 Q374 876 397 876 Q420 876 437 859.5 Q454 843 454 819 Q454 795 437 778.5 Q420 762 397 762 Z M638 0 L630 115 Q619 93 599 70 Q579 47 549 28.5 Q519 10 479.5 -2 Q440 -14 390 -14 Q325 -14 264 10 Q203 34 155.5 80.5 Q108 127 79.5 196 Q51 265 51 355 Q51 445 80.5 513.5 Q110 582 159 628.5 Q208 675 270.5 699 Q333 723 398 723 Q455 723 505.5 707.5 Q556 692 596 664 Q636 636 665.5 597 Q695 558 710 510 L634 477 Q609 557 547.5 601.5 Q486 646 398 646 Q348 646 300.5 628 Q253 610 216.5 573.5 Q180 537 157.5 482.5 Q135 428 135 355 Q135 282 157 227 Q179 172 215 135.5 Q251 99 297.5 81 Q344 63 393 63 Q456 63 500 83.5 Q544 104 571.5 134.5 Q599 165 611.5 200.5 Q624 236 625 266 L372 266 L372 343 L706 343 L706 0 L638 0 Z " />
<glyph glyph-name="gdotaccent" unicode="&#x121;" horiz-adv-x="572" d="M220 613 Q220 636 236 652 Q252 668 275 668 Q298 668 314 652 Q330 636 330 613 Q330 590 314 574 Q298 558 275 558 Q252 558 236 574 Q220 590 220 613 Z M122 -8 Q128 -61 165 -96.5 Q202 -132 261 -132 Q303 -132 332 -120 Q361 -108 379.5 -86.5 Q398 -65 406 -34.5 Q414 -4 414 33 L414 110 Q397 75 359 48 Q321 21 262 21 Q214 21 174.5 39 Q135 57 106.5 88.5 Q78 120 62 163 Q46 206 46 256 Q46 306 62 349.5 Q78 393 106.5 425 Q135 457 175 475 Q215 493 264 493 Q321 493 359 469.5 Q397 446 415 411 L415 479 L494 479 L494 36 Q494 -8 483 -51 Q472 -94 445 -128 Q418 -162 373 -183 Q328 -204 261 -204 Q217 -204 179.5 -190.5 Q142 -177 113.5 -153.5 Q85 -130 67 -97.5 Q49 -65 45 -27 L122 -8 Z M418 257 Q418 332 378 376.5 Q338 421 272 421 Q206 421 166 376.5 Q126 332 126 257 Q126 182 166 137.5 Q206 93 272 93 Q338 93 378 137.5 Q418 182 418 257 Z " />
<glyph glyph-name="Gcommaaccent" unicode="&#x122;" horiz-adv-x="771" d="M349 -87 Q349 -64 365.5 -51.5 Q382 -39 403 -39 Q423 -39 442.5 -54 Q462 -69 462 -106 Q462 -134 452.5 -154.5 Q443 -175 428 -188.5 Q413 -202 393.5 -209 Q374 -216 355 -217 L355 -180 Q380 -179 398.5 -163.5 Q417 -148 418 -128 Q410 -134 397 -134 Q376 -134 362.5 -122 Q349 -110 349 -87 Z M638 0 L630 115 Q619 93 599 70 Q579 47 549 28.5 Q519 10 479.5 -2 Q440 -14 390 -14 Q325 -14 264 10 Q203 34 155.5 80.5 Q108 127 79.5 196 Q51 265 51 355 Q51 445 80.5 513.5 Q110 582 159 628.5 Q208 675 270.5 699 Q333 723 398 723 Q455 723 505.5 707.5 Q556 692 596 664 Q636 636 665.5 597 Q695 558 710 510 L634 477 Q609 557 547.5 601.5 Q486 646 398 646 Q348 646 300.5 628 Q253 610 216.5 573.5 Q180 537 157.5 482.5 Q135 428 135 355 Q135 282 157 227 Q179 172 215 135.5 Q251 99 297.5 81 Q344 63 393 63 Q456 63 500 83.5 Q544 104 571.5 134.5 Q599 165 611.5 200.5 Q624 236 625 266 L372 266 L372 343 L706 343 L706 0 L638 0 Z " />
<glyph glyph-name="gcommaaccent" unicode="&#x123;" horiz-adv-x="572" d="M326 575 Q326 552 309.5 539.5 Q293 527 272 527 Q252 527 232.5 542 Q213 557 213 594 Q213 622 222.5 642.5 Q232 663 247 676.5 Q262 690 281 697 Q300 704 320 705 L320 668 Q295 667 276.5 651.5 Q258 636 257 616 Q264 622 278 622 Q299 622 312.5 610 Q326 598 326 575 Z M122 -8 Q128 -61 165 -96.5 Q202 -132 261 -132 Q303 -132 332 -120 Q361 -108 379.5 -86.5 Q398 -65 406 -34.5 Q414 -4 414 33 L414 110 Q397 75 359 48 Q321 21 262 21 Q214 21 174.5 39 Q135 57 106.5 88.5 Q78 120 62 163 Q46 206 46 256 Q46 306 62 349.5 Q78 393 106.5 425 Q135 457 175 475 Q215 493 264 493 Q321 493 359 469.5 Q397 446 415 411 L415 479 L494 479 L494 36 Q494 -8 483 -51 Q472 -94 445 -128 Q418 -162 373 -183 Q328 -204 261 -204 Q217 -204 179.5 -190.5 Q142 -177 113.5 -153.5 Q85 -130 67 -97.5 Q49 -65 45 -27 L122 -8 Z M418 257 Q418 332 378 376.5 Q338 421 272 421 Q206 421 166 376.5 Q126 332 126 257 Q126 182 166 137.5 Q206 93 272 93 Q338 93 378 137.5 Q418 182 418 257 Z " />
<glyph glyph-name="Hcircumflex" unicode="&#x124;" horiz-adv-x="743" d="M204 759 L316 878 L426 878 L538 759 L460 759 L371 833 L282 759 L204 759 Z M561 0 L561 322 L182 322 L182 0 L98 0 L98 709 L182 709 L182 399 L561 399 L561 709 L645 709 L645 0 L561 0 Z " />
<glyph glyph-name="hcircumflex" unicode="&#x125;" horiz-adv-x="549" d="M113 766 L225 885 L335 885 L447 766 L369 766 L280 840 L191 766 L113 766 Z M158 0 L78 0 L78 723 L158 723 L158 415 Q181 453 220 473 Q259 493 306 493 Q349 493 381 478.5 Q413 464 434.5 439 Q456 414 466.5 380 Q477 346 477 307 L477 0 L397 0 L397 295 Q397 321 390.5 344 Q384 367 370 384 Q356 401 333.5 411 Q311 421 278 421 Q249 421 227 410.5 Q205 400 189.5 381.5 Q174 363 166 338.5 Q158 314 158 286 L158 0 Z " />
<glyph glyph-name="Hbar" unicode="&#x126;" horiz-adv-x="746" d="M563 0 L563 322 L183 322 L183 0 L99 0 L99 518 L28 518 L28 582 L99 582 L99 709 L183 709 L183 582 L563 582 L563 709 L647 709 L647 582 L719 582 L719 518 L647 518 L647 0 L563 0 Z M563 399 L563 518 L183 518 L183 399 L563 399 Z " />
<glyph glyph-name="hbar" unicode="&#x127;" horiz-adv-x="549" d="M158 0 L78 0 L78 562 L-11 562 L-11 628 L78 628 L78 723 L158 723 L158 628 L283 628 L283 562 L158 562 L158 415 Q181 453 220 473 Q259 493 306 493 Q349 493 381 478.5 Q413 464 434.5 439 Q456 414 466.5 380 Q477 346 477 307 L477 0 L397 0 L397 295 Q397 321 390.5 344 Q384 367 370 384 Q356 401 333.5 411 Q311 421 278 421 Q249 421 227 410.5 Q205 400 189.5 381.5 Q174 363 166 338.5 Q158 314 158 286 L158 0 Z " />
<glyph glyph-name="Itilde" unicode="&#x128;" horiz-adv-x="280" d="M98 0 L98 709 L182 709 L182 0 L98 0 Z M301 863 Q301 811 276.5 784 Q252 757 213 757 Q192 757 175.5 763.5 Q159 770 144 780 L122 794 Q111 802 102 806 Q93 810 81 810 Q64 810 53.5 798 Q43 786 43 761 L-15 761 L-15 775 Q-15 827 11.5 853.5 Q38 880 77 880 Q98 880 114 874 Q130 868 145 858 L167 844 Q178 837 187.5 832.5 Q197 828 208 828 Q223 828 233 838 Q243 848 243 871 L243 877 L301 877 L301 863 Z " />
<glyph glyph-name="itilde" unicode="&#x129;" horiz-adv-x="236" d="M78 0 L78 479 L158 479 L158 0 L78 0 Z M275 656 Q275 604 248.5 578 Q222 552 183 552 Q163 552 147.5 558.5 Q132 565 118 575 L103 586 Q92 594 82 598.5 Q72 603 61 603 Q44 603 36 591.5 Q28 580 28 554 L-34 554 L-34 568 Q-34 620 -7.5 645.5 Q19 671 58 671 Q79 671 95.5 665 Q112 659 126 648 L141 637 Q151 629 160.5 625 Q170 621 181 621 Q198 621 206 632 Q214 643 214 669 L275 669 L275 656 Z " />
<glyph glyph-name="Imacron" unicode="&#x12a;" horiz-adv-x="280" d="M98 0 L98 709 L182 709 L182 0 L98 0 Z M0 786 L0 856 L284 856 L284 786 L0 786 Z " />
<glyph glyph-name="imacron" unicode="&#x12b;" horiz-adv-x="236" d="M78 0 L78 479 L158 479 L158 0 L78 0 Z M-13 578 L-13 648 L252 648 L252 578 L-13 578 Z " />
<glyph glyph-name="Ibreve" unicode="&#x12c;" horiz-adv-x="280" d="M98 0 L98 709 L182 709 L182 0 L98 0 Z M142 753 Q106 753 78.5 764 Q51 775 32 793 Q13 811 2.5 834.5 Q-8 858 -10 882 L59 882 Q60 871 65.5 860 Q71 849 80.5 839.5 Q90 830 105.5 824 Q121 818 142 818 Q163 818 178.5 824 Q194 830 203.5 839.5 Q213 849 218 860 Q223 871 225 882 L294 882 Q292 858 281.5 834.5 Q271 811 252 793 Q233 775 205.5 764 Q178 753 142 753 Z " />
<glyph glyph-name="ibreve" unicode="&#x12d;" horiz-adv-x="236" d="M78 0 L78 479 L158 479 L158 0 L78 0 Z M119 542 Q83 542 56.5 554 Q30 566 12 586 Q-6 606 -15 631.5 Q-24 657 -24 684 L38 684 Q40 655 58.5 631.5 Q77 608 119 608 Q161 608 179.5 631.5 Q198 655 200 684 L262 684 Q262 657 253 631.5 Q244 606 226 586 Q208 566 181.5 554 Q155 542 119 542 Z " />
<glyph glyph-name="Iogonek" unicode="&#x12e;" horiz-adv-x="280" d="M30 -116 Q30 -73 52 -45 Q74 -17 102 0 L98 0 L98 709 L182 709 L182 0 Q168 -7 153 -16.5 Q138 -26 126 -38.5 Q114 -51 106 -66.5 Q98 -82 98 -101 Q98 -127 115.5 -139.5 Q133 -152 155 -152 Q166 -152 174 -151 Q182 -150 188 -148 L188 -206 Q179 -209 167.5 -211 Q156 -213 140 -213 Q118 -213 98 -206.5 Q78 -200 63 -187.5 Q48 -175 39 -157 Q30 -139 30 -116 Z " />
<glyph glyph-name="iogonek" unicode="&#x12f;" horiz-adv-x="236" d="M6 -116 Q6 -73 28 -45 Q50 -17 78 0 L78 479 L158 479 L158 0 Q144 -7 129 -16.5 Q114 -26 102 -38.5 Q90 -51 82 -66.5 Q74 -82 74 -101 Q74 -127 91.5 -139.5 Q109 -152 131 -152 Q142 -152 150 -151 Q158 -150 164 -148 L164 -206 Q155 -209 143.5 -211 Q132 -213 116 -213 Q94 -213 74 -206.5 Q54 -200 39 -187.5 Q24 -175 15 -157 Q6 -139 6 -116 Z M58 668 Q58 693 75.5 710.5 Q93 728 118 728 Q143 728 160.5 710.5 Q178 693 178 668 Q178 643 160.5 625.5 Q143 608 118 608 Q93 608 75.5 625.5 Q58 643 58 668 Z " />
<glyph glyph-name="Idot" unicode="&#x130;" horiz-adv-x="280" d="M98 0 L98 709 L182 709 L182 0 L98 0 Z M139 762 Q116 762 99 778.5 Q82 795 82 819 Q82 843 99 859.5 Q116 876 139 876 Q162 876 179 859.5 Q196 843 196 819 Q196 795 179 778.5 Q162 762 139 762 Z " />
<glyph glyph-name="dotlessi" unicode="&#x131;" horiz-adv-x="236" d="M78 0 L78 479 L158 479 L158 0 L78 0 Z " />
<glyph glyph-name="IJ" unicode="&#x132;" horiz-adv-x="605" d="M90 331 L90 709 L175 709 L175 331 L90 331 Z M90 255 L174 274 L174 212 Q174 137 209.5 100 Q245 63 304 63 Q364 63 397 101 Q430 139 430 206 L430 709 L514 709 L514 211 Q514 164 500 123 Q486 82 459 51.5 Q432 21 393 3.5 Q354 -14 305 -14 Q254 -14 214.5 2 Q175 18 147 47 Q119 76 104.5 117.5 Q90 159 90 210 L90 255 Z " />
<glyph glyph-name="ij" unicode="&#x133;" horiz-adv-x="472" d="M78 0 L78 479 L158 479 L158 0 L78 0 Z M58 668 Q58 693 75.5 710.5 Q93 728 118 728 Q143 728 160.5 710.5 Q178 693 178 668 Q178 643 160.5 625.5 Q143 608 118 608 Q93 608 75.5 625.5 Q58 643 58 668 Z M314 479 L394 479 L394 -59 Q394 -125 359 -164.5 Q324 -204 263 -204 Q241 -204 229 -201.5 Q217 -199 209 -196 L209 -126 Q221 -132 243 -132 Q281 -132 297.5 -113 Q314 -94 314 -56 L314 479 Z M294 668 Q294 693 311.5 710.5 Q329 728 354 728 Q379 728 396.5 710.5 Q414 693 414 668 Q414 643 396.5 625.5 Q379 608 354 608 Q329 608 311.5 625.5 Q294 643 294 668 Z " />
<glyph glyph-name="Jcircumflex" unicode="&#x134;" horiz-adv-x="545" d="M247 759 L359 878 L469 878 L581 759 L503 759 L414 833 L325 759 L247 759 Z M30 255 L114 274 L114 212 Q114 137 149.5 100 Q185 63 244 63 Q304 63 337 101 Q370 139 370 206 L370 709 L454 709 L454 211 Q454 164 440 123 Q426 82 399 51.5 Q372 21 333 3.5 Q294 -14 245 -14 Q194 -14 154.5 2 Q115 18 87 47 Q59 76 44.5 117.5 Q30 159 30 210 L30 255 Z " />
<glyph glyph-name="jcircumflex" unicode="&#x135;" horiz-adv-x="236" d="M-33 541 L73 679 L168 679 L273 541 L199 541 L120 632 L41 541 L-33 541 Z M78 479 L158 479 L158 -59 Q158 -125 123 -164.5 Q88 -204 27 -204 Q5 -204 -7 -201.5 Q-19 -199 -27 -196 L-27 -126 Q-15 -132 7 -132 Q45 -132 61.5 -113 Q78 -94 78 -56 L78 479 Z " />
<glyph glyph-name="Kcommaaccent" unicode="&#x136;" horiz-adv-x="654" d="M292 333 L182 216 L182 0 L98 0 L98 709 L182 709 L182 327 L531 709 L642 709 L347 394 L646 0 L541 0 L292 333 Z M310 -87 Q310 -64 326.5 -51.5 Q343 -39 364 -39 Q384 -39 403.5 -54 Q423 -69 423 -106 Q423 -134 413.5 -154.5 Q404 -175 389 -188.5 Q374 -202 354.5 -209 Q335 -216 316 -217 L316 -180 Q341 -179 359.5 -163.5 Q378 -148 379 -128 Q371 -134 358 -134 Q337 -134 323.5 -122 Q310 -110 310 -87 Z " />
<glyph glyph-name="kcommaaccent" unicode="&#x137;" horiz-adv-x="512" d="M288 276 L497 0 L396 0 L232 221 L158 145 L158 0 L78 0 L78 723 L158 723 L158 251 L382 479 L492 479 L288 276 Z M232 -87 Q232 -64 248.5 -51.5 Q265 -39 286 -39 Q306 -39 325.5 -54 Q345 -69 345 -106 Q345 -134 335.5 -154.5 Q326 -175 311 -188.5 Q296 -202 276.5 -209 Q257 -216 238 -217 L238 -180 Q263 -179 281.5 -163.5 Q300 -148 301 -128 Q293 -134 280 -134 Q259 -134 245.5 -122 Q232 -110 232 -87 Z " />
<glyph glyph-name="kgreenlandic" unicode="&#x138;" horiz-adv-x="512" d="M288 276 L497 0 L396 0 L232 221 L158 145 L158 0 L78 0 L78 479 L158 479 L158 251 L382 479 L492 479 L288 276 Z " />
<glyph glyph-name="Lacute" unicode="&#x139;" horiz-adv-x="546" d="M181 759 L102 759 L206 878 L317 878 L181 759 Z M98 0 L98 709 L182 709 L182 77 L526 77 L526 0 L98 0 Z " />
<glyph glyph-name="lacute" unicode="&#x13a;" horiz-adv-x="236" d="M158 766 L79 766 L183 885 L294 885 L158 766 Z M78 0 L78 723 L158 723 L158 0 L78 0 Z " />
<glyph glyph-name="Lcommaaccent" unicode="&#x13b;" horiz-adv-x="546" d="M271 -87 Q271 -64 287.5 -51.5 Q304 -39 325 -39 Q345 -39 364.5 -54 Q384 -69 384 -106 Q384 -134 374.5 -154.5 Q365 -175 350 -188.5 Q335 -202 315.5 -209 Q296 -216 277 -217 L277 -180 Q302 -179 320.5 -163.5 Q339 -148 340 -128 Q332 -134 319 -134 Q298 -134 284.5 -122 Q271 -110 271 -87 Z M98 0 L98 709 L182 709 L182 77 L526 77 L526 0 L98 0 Z " />
<glyph glyph-name="lcommaaccent" unicode="&#x13c;" horiz-adv-x="236" d="M63 -87 Q63 -64 79.5 -51.5 Q96 -39 117 -39 Q137 -39 156.5 -54 Q176 -69 176 -106 Q176 -134 166.5 -154.5 Q157 -175 142 -188.5 Q127 -202 107.5 -209 Q88 -216 69 -217 L69 -180 Q94 -179 112.5 -163.5 Q131 -148 132 -128 Q124 -134 111 -134 Q90 -134 76.5 -122 Q63 -110 63 -87 Z M78 0 L78 723 L158 723 L158 0 L78 0 Z " />
<glyph glyph-name="Lcaron" unicode="&#x13d;" horiz-adv-x="546" d="M352 571 L290 571 L323 759 L417 759 L352 571 Z M98 0 L98 709 L182 709 L182 77 L526 77 L526 0 L98 0 Z " />
<glyph glyph-name="lcaron" unicode="&#x13e;" horiz-adv-x="236" d="M256 545 L197 545 L228 723 L317 723 L256 545 Z M78 0 L78 723 L158 723 L158 0 L78 0 Z " />
<glyph glyph-name="Ldot" unicode="&#x13f;" horiz-adv-x="546" d="M365 318 Q342 318 325 334.5 Q308 351 308 375 Q308 399 325 415.5 Q342 432 365 432 Q388 432 405 415.5 Q422 399 422 375 Q422 351 405 334.5 Q388 318 365 318 Z M98 0 L98 709 L182 709 L182 77 L526 77 L526 0 L98 0 Z " />
<glyph glyph-name="ldot" unicode="&#x140;" horiz-adv-x="316" d="M78 0 L78 723 L158 723 L158 0 L78 0 Z M216 319 Q216 342 232 358 Q248 374 271 374 Q294 374 310 358 Q326 342 326 319 Q326 296 310 280 Q294 264 271 264 Q248 264 232 280 Q216 296 216 319 Z " />
<glyph glyph-name="Lslash" unicode="&#x141;" horiz-adv-x="560" d="M113 0 L113 295 L15 252 L15 326 L113 369 L113 709 L196 709 L196 406 L356 477 L356 402 L196 331 L196 78 L541 78 L541 0 L113 0 Z " />
<glyph glyph-name="lslash" unicode="&#x142;" horiz-adv-x="322" d="M117 0 L117 281 L25 241 L25 315 L117 355 L117 723 L197 723 L197 391 L296 435 L296 361 L197 317 L197 0 L117 0 Z " />
<glyph glyph-name="Nacute" unicode="&#x143;" horiz-adv-x="770" d="M395 759 L316 759 L420 878 L531 878 L395 759 Z M584 0 L182 600 L182 0 L98 0 L98 709 L208 709 L588 141 L588 709 L672 709 L672 0 L584 0 Z " />
<glyph glyph-name="nacute" unicode="&#x144;" horiz-adv-x="549" d="M289 541 L223 541 L310 684 L412 684 L289 541 Z M158 0 L78 0 L78 479 L156 479 L156 407 Q179 449 218.5 471 Q258 493 306 493 Q349 493 381 478.5 Q413 464 434.5 439 Q456 414 466.5 380 Q477 346 477 307 L477 0 L397 0 L397 295 Q397 321 390.5 344 Q384 367 370 384 Q356 401 333.5 411 Q311 421 278 421 Q249 421 226.5 410 Q204 399 189 380 Q174 361 166 335.5 Q158 310 158 282 L158 0 Z " />
<glyph glyph-name="Ncommaaccent" unicode="&#x145;" horiz-adv-x="770" d="M349 -87 Q349 -64 365.5 -51.5 Q382 -39 403 -39 Q423 -39 442.5 -54 Q462 -69 462 -106 Q462 -134 452.5 -154.5 Q443 -175 428 -188.5 Q413 -202 393.5 -209 Q374 -216 355 -217 L355 -180 Q380 -179 398.5 -163.5 Q417 -148 418 -128 Q410 -134 397 -134 Q376 -134 362.5 -122 Q349 -110 349 -87 Z M584 0 L182 600 L182 0 L98 0 L98 709 L208 709 L588 141 L588 709 L672 709 L672 0 L584 0 Z " />
<glyph glyph-name="ncommaaccent" unicode="&#x146;" horiz-adv-x="549" d="M235 -87 Q235 -64 251.5 -51.5 Q268 -39 289 -39 Q309 -39 328.5 -54 Q348 -69 348 -106 Q348 -134 338.5 -154.5 Q329 -175 314 -188.5 Q299 -202 279.5 -209 Q260 -216 241 -217 L241 -180 Q266 -179 284.5 -163.5 Q303 -148 304 -128 Q296 -134 283 -134 Q262 -134 248.5 -122 Q235 -110 235 -87 Z M158 0 L78 0 L78 479 L156 479 L156 407 Q179 449 218.5 471 Q258 493 306 493 Q349 493 381 478.5 Q413 464 434.5 439 Q456 414 466.5 380 Q477 346 477 307 L477 0 L397 0 L397 295 Q397 321 390.5 344 Q384 367 370 384 Q356 401 333.5 411 Q311 421 278 421 Q249 421 226.5 410 Q204 399 189 380 Q174 361 166 335.5 Q158 310 158 282 L158 0 Z " />
<glyph glyph-name="Ncaron" unicode="&#x147;" horiz-adv-x="770" d="M554 878 L442 759 L332 759 L220 878 L298 878 L387 804 L476 878 L554 878 Z M584 0 L182 600 L182 0 L98 0 L98 709 L208 709 L588 141 L588 709 L672 709 L672 0 L584 0 Z " />
<glyph glyph-name="ncaron" unicode="&#x148;" horiz-adv-x="549" d="M185 679 L264 588 L343 679 L417 679 L312 541 L217 541 L111 679 L185 679 Z M158 0 L78 0 L78 479 L156 479 L156 407 Q179 449 218.5 471 Q258 493 306 493 Q349 493 381 478.5 Q413 464 434.5 439 Q456 414 466.5 380 Q477 346 477 307 L477 0 L397 0 L397 295 Q397 321 390.5 344 Q384 367 370 384 Q356 401 333.5 411 Q311 421 278 421 Q249 421 226.5 410 Q204 399 189 380 Q174 361 166 335.5 Q158 310 158 282 L158 0 Z " />
<glyph glyph-name="napostrophe" unicode="&#x149;" horiz-adv-x="549" d="M66 657 Q66 680 82.5 692.5 Q99 705 120 705 Q140 705 159.5 690 Q179 675 179 638 Q179 610 169.5 589.5 Q160 569 145 555.5 Q130 542 110.5 535 Q91 528 72 527 L72 564 Q97 565 115.5 580.5 Q134 596 135 616 Q127 610 114 610 Q93 610 79.5 622 Q66 634 66 657 Z M158 0 L78 0 L78 479 L156 479 L156 407 Q179 449 218.5 471 Q258 493 306 493 Q349 493 381 478.5 Q413 464 434.5 439 Q456 414 466.5 380 Q477 346 477 307 L477 0 L397 0 L397 295 Q397 321 390.5 344 Q384 367 370 384 Q356 401 333.5 411 Q311 421 278 421 Q249 421 226.5 410 Q204 399 189 380 Q174 361 166 335.5 Q158 310 158 282 L158 0 Z " />
<glyph glyph-name="Eng" unicode="&#x14a;" horiz-adv-x="770" d="M525 -125 Q561 -125 574.5 -107 Q588 -89 588 -56 L588 -6 L182 600 L182 0 L98 0 L98 709 L208 709 L588 141 L588 709 L672 709 L672 -58 Q672 -119 638.5 -158 Q605 -197 546 -197 Q522 -197 508.5 -194 Q495 -191 490 -189 L490 -122 Q496 -124 506 -124.5 Q516 -125 525 -125 Z " />
<glyph glyph-name="eng" unicode="&#x14b;" horiz-adv-x="549" d="M158 0 L78 0 L78 479 L156 479 L156 407 Q179 449 218.5 471 Q258 493 306 493 Q349 493 381 478.5 Q413 464 434.5 439 Q456 414 466.5 380 Q477 346 477 307 L477 -59 Q477 -125 442 -164.5 Q407 -204 346 -204 Q324 -204 312 -201.5 Q300 -199 292 -196 L292 -126 Q304 -132 326 -132 Q364 -132 380.5 -113 Q397 -94 397 -56 L397 295 Q397 321 390.5 344 Q384 367 370 384 Q356 401 333.5 411 Q311 421 278 421 Q249 421 226.5 410 Q204 399 189 380 Q174 361 166 335.5 Q158 310 158 282 L158 0 Z " />
<glyph glyph-name="Omacron" unicode="&#x14c;" horiz-adv-x="802" d="M134 355 Q134 283 156.5 228 Q179 173 216 136.5 Q253 100 301.5 81.5 Q350 63 401 63 Q453 63 501 81.5 Q549 100 586 136.5 Q623 173 645.5 228 Q668 283 668 355 Q668 427 645.5 481.5 Q623 536 586 572.5 Q549 609 501 627.5 Q453 646 401 646 Q350 646 301.5 627.5 Q253 609 216 572.5 Q179 536 156.5 481.5 Q134 427 134 355 Z M50 355 Q50 444 80 512.5 Q110 581 159.5 628 Q209 675 272 699 Q335 723 401 723 Q467 723 530.5 699 Q594 675 643 628 Q692 581 722 512.5 Q752 444 752 355 Q752 266 722 197.5 Q692 129 643 82 Q594 35 530.5 10.5 Q467 -14 401 -14 Q335 -14 272 10.5 Q209 35 159.5 82 Q110 129 80 197.5 Q50 266 50 355 Z M259 786 L259 856 L543 856 L543 786 L259 786 Z " />
<glyph glyph-name="omacron" unicode="&#x14d;" horiz-adv-x="570" d="M154 578 L154 648 L419 648 L419 578 L154 578 Z M285 493 Q337 493 381 474 Q425 455 457 421.5 Q489 388 507 341.5 Q525 295 525 240 Q525 184 507 137.5 Q489 91 457 57.5 Q425 24 381 5 Q337 -14 285 -14 Q233 -14 189 5 Q145 24 113 57.5 Q81 91 63 137.5 Q45 184 45 240 Q45 295 63 341.5 Q81 388 113 421.5 Q145 455 189 474 Q233 493 285 493 Z M285 421 Q253 421 224 409 Q195 397 173 374 Q151 351 138 317 Q125 283 125 240 Q125 196 138 162 Q151 128 173 105 Q195 82 224 70 Q253 58 285 58 Q317 58 346 70 Q375 82 397 105 Q419 128 432 162 Q445 196 445 240 Q445 283 432 317 Q419 351 397 374 Q375 397 346 409 Q317 421 285 421 Z " />
<glyph glyph-name="Obreve" unicode="&#x14e;" horiz-adv-x="802" d="M408 753 Q372 753 344.5 764 Q317 775 298 793 Q279 811 268.5 834.5 Q258 858 256 882 L325 882 Q326 871 331.5 860 Q337 849 346.5 839.5 Q356 830 371.5 824 Q387 818 408 818 Q429 818 444.5 824 Q460 830 469.5 839.5 Q479 849 484 860 Q489 871 491 882 L560 882 Q558 858 547.5 834.5 Q537 811 518 793 Q499 775 471.5 764 Q444 753 408 753 Z M134 355 Q134 283 156.5 228 Q179 173 216 136.5 Q253 100 301.5 81.5 Q350 63 401 63 Q453 63 501 81.5 Q549 100 586 136.5 Q623 173 645.5 228 Q668 283 668 355 Q668 427 645.5 481.5 Q623 536 586 572.5 Q549 609 501 627.5 Q453 646 401 646 Q350 646 301.5 627.5 Q253 609 216 572.5 Q179 536 156.5 481.5 Q134 427 134 355 Z M50 355 Q50 444 80 512.5 Q110 581 159.5 628 Q209 675 272 699 Q335 723 401 723 Q467 723 530.5 699 Q594 675 643 628 Q692 581 722 512.5 Q752 444 752 355 Q752 266 722 197.5 Q692 129 643 82 Q594 35 530.5 10.5 Q467 -14 401 -14 Q335 -14 272 10.5 Q209 35 159.5 82 Q110 129 80 197.5 Q50 266 50 355 Z " />
<glyph glyph-name="obreve" unicode="&#x14f;" horiz-adv-x="570" d="M285 493 Q337 493 381 474 Q425 455 457 421.5 Q489 388 507 341.5 Q525 295 525 240 Q525 184 507 137.5 Q489 91 457 57.5 Q425 24 381 5 Q337 -14 285 -14 Q233 -14 189 5 Q145 24 113 57.5 Q81 91 63 137.5 Q45 184 45 240 Q45 295 63 341.5 Q81 388 113 421.5 Q145 455 189 474 Q233 493 285 493 Z M285 421 Q253 421 224 409 Q195 397 173 374 Q151 351 138 317 Q125 283 125 240 Q125 196 138 162 Q151 128 173 105 Q195 82 224 70 Q253 58 285 58 Q317 58 346 70 Q375 82 397 105 Q419 128 432 162 Q445 196 445 240 Q445 283 432 317 Q419 351 397 374 Q375 397 346 409 Q317 421 285 421 Z M285 542 Q249 542 222.5 554 Q196 566 178 586 Q160 606 151 631.5 Q142 657 142 684 L204 684 Q206 655 224.5 631.5 Q243 608 285 608 Q327 608 345.5 631.5 Q364 655 366 684 L428 684 Q428 657 419 631.5 Q410 606 392 586 Q374 566 347.5 554 Q321 542 285 542 Z " />
<glyph glyph-name="Ohungarumlaut" unicode="&#x150;" horiz-adv-x="802" d="M356 759 L297 759 L359 878 L449 878 L356 759 Z M486 759 L427 759 L500 878 L589 878 L486 759 Z M134 355 Q134 283 156.5 228 Q179 173 216 136.5 Q253 100 301.5 81.5 Q350 63 401 63 Q453 63 501 81.5 Q549 100 586 136.5 Q623 173 645.5 228 Q668 283 668 355 Q668 427 645.5 481.5 Q623 536 586 572.5 Q549 609 501 627.5 Q453 646 401 646 Q350 646 301.5 627.5 Q253 609 216 572.5 Q179 536 156.5 481.5 Q134 427 134 355 Z M50 355 Q50 444 80 512.5 Q110 581 159.5 628 Q209 675 272 699 Q335 723 401 723 Q467 723 530.5 699 Q594 675 643 628 Q692 581 722 512.5 Q752 444 752 355 Q752 266 722 197.5 Q692 129 643 82 Q594 35 530.5 10.5 Q467 -14 401 -14 Q335 -14 272 10.5 Q209 35 159.5 82 Q110 129 80 197.5 Q50 266 50 355 Z " />
<glyph glyph-name="ohungarumlaut" unicode="&#x151;" horiz-adv-x="570" d="M285 493 Q337 493 381 474 Q425 455 457 421.5 Q489 388 507 341.5 Q525 295 525 240 Q525 184 507 137.5 Q489 91 457 57.5 Q425 24 381 5 Q337 -14 285 -14 Q233 -14 189 5 Q145 24 113 57.5 Q81 91 63 137.5 Q45 184 45 240 Q45 295 63 341.5 Q81 388 113 421.5 Q145 455 189 474 Q233 493 285 493 Z M285 421 Q253 421 224 409 Q195 397 173 374 Q151 351 138 317 Q125 283 125 240 Q125 196 138 162 Q151 128 173 105 Q195 82 224 70 Q253 58 285 58 Q317 58 346 70 Q375 82 397 105 Q419 128 432 162 Q445 196 445 240 Q445 283 432 317 Q419 351 397 374 Q375 397 346 409 Q317 421 285 421 Z M369 541 L313 541 L379 684 L469 684 L369 541 Z M248 541 L192 541 L254 684 L344 684 L248 541 Z " />
<glyph glyph-name="OE" unicode="&#x152;" horiz-adv-x="1148" d="M50 355 Q50 444 80 512.5 Q110 581 159.5 628 Q209 675 272 699 Q335 723 401 723 Q476 723 546.5 691.5 Q617 660 668 595 L668 709 L1093 709 L1093 632 L752 632 L752 393 L1062 393 L1062 316 L752 316 L752 77 L1093 77 L1093 0 L668 0 L668 114 Q617 49 546.5 17.5 Q476 -14 401 -14 Q335 -14 272 10.5 Q209 35 159.5 82 Q110 129 80 197.5 Q50 266 50 355 Z M134 355 Q134 283 156.5 228 Q179 173 216 136.5 Q253 100 301.5 81.5 Q350 63 401 63 Q453 63 501 81.5 Q549 100 586 136.5 Q623 173 645.5 228 Q668 283 668 355 Q668 427 645.5 481.5 Q623 536 586 572.5 Q549 609 501 627.5 Q453 646 401 646 Q350 646 301.5 627.5 Q253 609 216 572.5 Q179 536 156.5 481.5 Q134 427 134 355 Z " />
<glyph glyph-name="oe" unicode="&#x153;" horiz-adv-x="941" d="M285 493 Q349 493 400.5 464 Q452 435 484 381 Q516 435 565.5 464 Q615 493 672 493 Q726 493 768.5 475 Q811 457 839.5 424.5 Q868 392 883 346.5 Q898 301 898 246 Q898 238 897.5 230.5 Q897 223 896 218 L527 218 L527 214 Q527 180 539 151.5 Q551 123 572 102 Q593 81 621.5 69.5 Q650 58 682 58 Q743 58 777.5 88 Q812 118 826 161 L895 136 Q885 105 866 77.5 Q847 50 820 30 Q793 10 758.5 -2 Q724 -14 682 -14 Q620 -14 568 14 Q516 42 484 97 Q452 43 400.5 14.5 Q349 -14 285 -14 Q233 -14 189 5 Q145 24 113 57.5 Q81 91 63 137.5 Q45 184 45 240 Q45 295 63 341.5 Q81 388 113 421.5 Q145 455 189 474 Q233 493 285 493 Z M285 421 Q253 421 224 409 Q195 397 173 374 Q151 351 138 317 Q125 283 125 240 Q125 196 138 162 Q151 128 173 105 Q195 82 224 70 Q253 58 285 58 Q317 58 346 70 Q375 82 397 105 Q419 128 432 162 Q445 196 445 240 Q445 283 432 317 Q419 351 397 374 Q375 397 346 409 Q317 421 285 421 Z M815 286 Q813 343 777.5 382.5 Q742 422 673 422 Q642 422 616 410.5 Q590 399 571.5 380.5 Q553 362 542 337.5 Q531 313 529 286 L815 286 Z " />
<glyph glyph-name="Racute" unicode="&#x154;" horiz-adv-x="622" d="M329 759 L250 759 L354 878 L465 878 L329 759 Z M305 297 L182 297 L182 0 L98 0 L98 709 L356 709 Q405 709 444.5 693 Q484 677 512 649 Q540 621 555 583 Q570 545 570 502 Q570 424 524 370 Q478 316 397 303 L569 0 L471 0 L305 297 Z M343 372 Q408 372 447 407 Q486 442 486 502 Q486 562 447 598 Q408 634 343 634 L182 634 L182 372 L343 372 Z " />
<glyph glyph-name="racute" unicode="&#x155;" horiz-adv-x="352" d="M210 541 L144 541 L231 684 L333 684 L210 541 Z M335 397 Q325 400 314.5 401 Q304 402 293 402 Q233 402 195.5 365.5 Q158 329 158 248 L158 0 L78 0 L78 479 L156 479 L156 393 Q168 419 184.5 437 Q201 455 220.5 466 Q240 477 260.5 481.5 Q281 486 301 486 Q311 486 320.5 485 Q330 484 335 482 L335 397 Z " />
<glyph glyph-name="Rcommaaccent" unicode="&#x156;" horiz-adv-x="622" d="M305 297 L182 297 L182 0 L98 0 L98 709 L356 709 Q405 709 444.5 693 Q484 677 512 649 Q540 621 555 583 Q570 545 570 502 Q570 424 524 370 Q478 316 397 303 L569 0 L471 0 L305 297 Z M343 372 Q408 372 447 407 Q486 442 486 502 Q486 562 447 598 Q408 634 343 634 L182 634 L182 372 L343 372 Z M287 -87 Q287 -64 303.5 -51.5 Q320 -39 341 -39 Q361 -39 380.5 -54 Q400 -69 400 -106 Q400 -134 390.5 -154.5 Q381 -175 366 -188.5 Q351 -202 331.5 -209 Q312 -216 293 -217 L293 -180 Q318 -179 336.5 -163.5 Q355 -148 356 -128 Q348 -134 335 -134 Q314 -134 300.5 -122 Q287 -110 287 -87 Z " />
<glyph glyph-name="rcommaaccent" unicode="&#x157;" horiz-adv-x="352" d="M335 397 Q325 400 314.5 401 Q304 402 293 402 Q233 402 195.5 365.5 Q158 329 158 248 L158 0 L78 0 L78 479 L156 479 L156 393 Q168 419 184.5 437 Q201 455 220.5 466 Q240 477 260.5 481.5 Q281 486 301 486 Q311 486 320.5 485 Q330 484 335 482 L335 397 Z M65 -87 Q65 -64 81.5 -51.5 Q98 -39 119 -39 Q139 -39 158.5 -54 Q178 -69 178 -106 Q178 -134 168.5 -154.5 Q159 -175 144 -188.5 Q129 -202 109.5 -209 Q90 -216 71 -217 L71 -180 Q96 -179 114.5 -163.5 Q133 -148 134 -128 Q126 -134 113 -134 Q92 -134 78.5 -122 Q65 -110 65 -87 Z " />
<glyph glyph-name="Rcaron" unicode="&#x158;" horiz-adv-x="622" d="M474 878 L362 759 L252 759 L140 878 L218 878 L307 804 L396 878 L474 878 Z M305 297 L182 297 L182 0 L98 0 L98 709 L356 709 Q405 709 444.5 693 Q484 677 512 649 Q540 621 555 583 Q570 545 570 502 Q570 424 524 370 Q478 316 397 303 L569 0 L471 0 L305 297 Z M343 372 Q408 372 447 407 Q486 442 486 502 Q486 562 447 598 Q408 634 343 634 L182 634 L182 372 L343 372 Z " />
<glyph glyph-name="rcaron" unicode="&#x159;" horiz-adv-x="352" d="M124 679 L203 588 L282 679 L356 679 L251 541 L156 541 L50 679 L124 679 Z M335 397 Q325 400 314.5 401 Q304 402 293 402 Q233 402 195.5 365.5 Q158 329 158 248 L158 0 L78 0 L78 479 L156 479 L156 393 Q168 419 184.5 437 Q201 455 220.5 466 Q240 477 260.5 481.5 Q281 486 301 486 Q311 486 320.5 485 Q330 484 335 482 L335 397 Z " />
<glyph glyph-name="Sacute" unicode="&#x15a;" horiz-adv-x="589" d="M329 759 L250 759 L354 878 L465 878 L329 759 Z M458 521 Q454 543 443 566 Q432 589 412.5 607 Q393 625 364.5 636.5 Q336 648 298 648 Q267 648 240.5 638.5 Q214 629 194 612 Q174 595 162.5 572 Q151 549 151 522 Q151 479 177.5 450 Q204 421 253 410 L357 387 Q443 368 491 317 Q539 266 539 191 Q539 150 522 113 Q505 76 474 47.5 Q443 19 398 2.5 Q353 -14 298 -14 Q236 -14 190 4.5 Q144 23 111.5 52.5 Q79 82 61 120 Q43 158 38 197 L117 222 Q120 190 133 161.5 Q146 133 168.5 110.5 Q191 88 223.5 75 Q256 62 298 62 Q375 62 415 97.5 Q455 133 455 184 Q455 228 426 259.5 Q397 291 340 304 L236 327 Q199 335 168 351 Q137 367 114.5 391 Q92 415 79.5 446.5 Q67 478 67 517 Q67 559 85 596 Q103 633 134 661.5 Q165 690 207 706.5 Q249 723 297 723 Q354 723 395.5 707 Q437 691 465.5 666 Q494 641 510 610 Q526 579 533 548 L458 521 Z " />
<glyph glyph-name="sacute" unicode="&#x15b;" horiz-adv-x="448" d="M250 541 L184 541 L271 684 L373 684 L250 541 Z M111 151 Q116 109 146.5 81.5 Q177 54 231 54 Q274 54 299 75 Q324 96 324 127 Q324 154 304 171.5 Q284 189 251 197 L173 215 Q118 228 86 262 Q54 296 54 348 Q54 378 67.5 404.5 Q81 431 103.5 450.5 Q126 470 156.5 481.5 Q187 493 221 493 Q267 493 299.5 480 Q332 467 352.5 447.5 Q373 428 384 405.5 Q395 383 399 365 L328 339 Q326 351 319.5 366 Q313 381 300.5 394 Q288 407 268.5 416 Q249 425 221 425 Q183 425 157.5 404 Q132 383 132 353 Q132 303 195 288 L273 270 Q336 256 369.5 220.5 Q403 185 403 131 Q403 105 392 79 Q381 53 359 32.5 Q337 12 305 -1 Q273 -14 230 -14 Q183 -14 148 -0.5 Q113 13 90 33.5 Q67 54 54.5 78.5 Q42 103 39 126 L111 151 Z " />
<glyph glyph-name="Scircumflex" unicode="&#x15c;" horiz-adv-x="589" d="M145 759 L257 878 L367 878 L479 759 L401 759 L312 833 L223 759 L145 759 Z M458 521 Q454 543 443 566 Q432 589 412.5 607 Q393 625 364.5 636.5 Q336 648 298 648 Q267 648 240.5 638.5 Q214 629 194 612 Q174 595 162.5 572 Q151 549 151 522 Q151 479 177.5 450 Q204 421 253 410 L357 387 Q443 368 491 317 Q539 266 539 191 Q539 150 522 113 Q505 76 474 47.5 Q443 19 398 2.5 Q353 -14 298 -14 Q236 -14 190 4.5 Q144 23 111.5 52.5 Q79 82 61 120 Q43 158 38 197 L117 222 Q120 190 133 161.5 Q146 133 168.5 110.5 Q191 88 223.5 75 Q256 62 298 62 Q375 62 415 97.5 Q455 133 455 184 Q455 228 426 259.5 Q397 291 340 304 L236 327 Q199 335 168 351 Q137 367 114.5 391 Q92 415 79.5 446.5 Q67 478 67 517 Q67 559 85 596 Q103 633 134 661.5 Q165 690 207 706.5 Q249 723 297 723 Q354 723 395.5 707 Q437 691 465.5 666 Q494 641 510 610 Q526 579 533 548 L458 521 Z " />
<glyph glyph-name="scircumflex" unicode="&#x15d;" horiz-adv-x="448" d="M80 541 L186 679 L281 679 L386 541 L312 541 L233 632 L154 541 L80 541 Z M111 151 Q116 109 146.5 81.5 Q177 54 231 54 Q274 54 299 75 Q324 96 324 127 Q324 154 304 171.5 Q284 189 251 197 L173 215 Q118 228 86 262 Q54 296 54 348 Q54 378 67.5 404.5 Q81 431 103.5 450.5 Q126 470 156.5 481.5 Q187 493 221 493 Q267 493 299.5 480 Q332 467 352.5 447.5 Q373 428 384 405.5 Q395 383 399 365 L328 339 Q326 351 319.5 366 Q313 381 300.5 394 Q288 407 268.5 416 Q249 425 221 425 Q183 425 157.5 404 Q132 383 132 353 Q132 303 195 288 L273 270 Q336 256 369.5 220.5 Q403 185 403 131 Q403 105 392 79 Q381 53 359 32.5 Q337 12 305 -1 Q273 -14 230 -14 Q183 -14 148 -0.5 Q113 13 90 33.5 Q67 54 54.5 78.5 Q42 103 39 126 L111 151 Z " />
<glyph glyph-name="Scedilla" unicode="&#x15e;" horiz-adv-x="589" d="M243 -64 L275 -13 Q219 -9 176.5 10 Q134 29 105 58.5 Q76 88 59 124 Q42 160 38 197 L117 222 Q120 190 133 161.5 Q146 133 168.5 110.5 Q191 88 223.5 75 Q256 62 298 62 Q375 62 415 97.5 Q455 133 455 184 Q455 228 426 259.5 Q397 291 340 304 L236 327 Q199 335 168 351 Q137 367 114.5 391 Q92 415 79.5 446.5 Q67 478 67 517 Q67 559 85 596 Q103 633 134 661.5 Q165 690 207 706.5 Q249 723 297 723 Q354 723 395.5 707 Q437 691 465.5 666 Q494 641 510 610 Q526 579 533 548 L458 521 Q454 543 443 566 Q432 589 412.5 607 Q393 625 364.5 636.5 Q336 648 298 648 Q267 648 240.5 638.5 Q214 629 194 612 Q174 595 162.5 572 Q151 549 151 522 Q151 479 177.5 450 Q204 421 253 410 L357 387 Q443 368 491 317 Q539 266 539 191 Q539 153 525 119 Q511 85 484.5 58 Q458 31 420.5 12.5 Q383 -6 336 -11 L310 -51 Q315 -49 318.5 -49 Q322 -49 325 -49 Q365 -49 390 -71 Q415 -93 415 -128 Q415 -163 387 -189 Q359 -215 301 -215 Q265 -215 236 -201 Q207 -187 192 -168 L225 -129 Q236 -140 255 -152.5 Q274 -165 301 -165 Q323 -165 338.5 -156 Q354 -147 354 -128 Q354 -112 341 -102 Q328 -92 304 -92 Q287 -92 272 -98 L243 -64 Z " />
<glyph glyph-name="scedilla" unicode="&#x15f;" horiz-adv-x="448" d="M168 -64 L200 -12 Q161 -8 131.5 6.5 Q102 21 82.5 40.5 Q63 60 52.5 82.5 Q42 105 39 126 L111 151 Q116 109 146.5 81.5 Q177 54 231 54 Q274 54 299 75 Q324 96 324 127 Q324 154 304 171.5 Q284 189 251 197 L173 215 Q118 228 86 262 Q54 296 54 348 Q54 378 67.5 404.5 Q81 431 103.5 450.5 Q126 470 156.5 481.5 Q187 493 221 493 Q267 493 299.5 480 Q332 467 352.5 447.5 Q373 428 384 405.5 Q395 383 399 365 L328 339 Q326 351 319.5 366 Q313 381 300.5 394 Q288 407 268.5 416 Q249 425 221 425 Q183 425 157.5 404 Q132 383 132 353 Q132 303 195 288 L273 270 Q336 256 369.5 220.5 Q403 185 403 131 Q403 107 394 83.5 Q385 60 367 40.5 Q349 21 322.5 6.5 Q296 -8 261 -12 L235 -51 Q240 -49 243.5 -49 Q247 -49 250 -49 Q290 -49 315 -71 Q340 -93 340 -128 Q340 -163 312 -189 Q284 -215 226 -215 Q190 -215 161 -201 Q132 -187 117 -168 L150 -129 Q161 -140 180 -152.5 Q199 -165 226 -165 Q248 -165 263.5 -156 Q279 -147 279 -128 Q279 -112 266 -102 Q253 -92 229 -92 Q212 -92 197 -98 L168 -64 Z " />
<glyph glyph-name="Scaron" unicode="&#x160;" horiz-adv-x="589" d="M468 878 L356 759 L246 759 L134 878 L212 878 L301 804 L390 878 L468 878 Z M458 521 Q454 543 443 566 Q432 589 412.5 607 Q393 625 364.5 636.5 Q336 648 298 648 Q267 648 240.5 638.5 Q214 629 194 612 Q174 595 162.5 572 Q151 549 151 522 Q151 479 177.5 450 Q204 421 253 410 L357 387 Q443 368 491 317 Q539 266 539 191 Q539 150 522 113 Q505 76 474 47.5 Q443 19 398 2.5 Q353 -14 298 -14 Q236 -14 190 4.5 Q144 23 111.5 52.5 Q79 82 61 120 Q43 158 38 197 L117 222 Q120 190 133 161.5 Q146 133 168.5 110.5 Q191 88 223.5 75 Q256 62 298 62 Q375 62 415 97.5 Q455 133 455 184 Q455 228 426 259.5 Q397 291 340 304 L236 327 Q199 335 168 351 Q137 367 114.5 391 Q92 415 79.5 446.5 Q67 478 67 517 Q67 559 85 596 Q103 633 134 661.5 Q165 690 207 706.5 Q249 723 297 723 Q354 723 395.5 707 Q437 691 465.5 666 Q494 641 510 610 Q526 579 533 548 L458 521 Z " />
<glyph glyph-name="scaron" unicode="&#x161;" horiz-adv-x="448" d="M147 679 L226 588 L305 679 L379 679 L274 541 L179 541 L73 679 L147 679 Z M111 151 Q116 109 146.5 81.5 Q177 54 231 54 Q274 54 299 75 Q324 96 324 127 Q324 154 304 171.5 Q284 189 251 197 L173 215 Q118 228 86 262 Q54 296 54 348 Q54 378 67.5 404.5 Q81 431 103.5 450.5 Q126 470 156.5 481.5 Q187 493 221 493 Q267 493 299.5 480 Q332 467 352.5 447.5 Q373 428 384 405.5 Q395 383 399 365 L328 339 Q326 351 319.5 366 Q313 381 300.5 394 Q288 407 268.5 416 Q249 425 221 425 Q183 425 157.5 404 Q132 383 132 353 Q132 303 195 288 L273 270 Q336 256 369.5 220.5 Q403 185 403 131 Q403 105 392 79 Q381 53 359 32.5 Q337 12 305 -1 Q273 -14 230 -14 Q183 -14 148 -0.5 Q113 13 90 33.5 Q67 54 54.5 78.5 Q42 103 39 126 L111 151 Z " />
<glyph glyph-name="Tcommaaccent" unicode="&#x162;" horiz-adv-x="607" d="M345 632 L345 0 L337 0 L303 -51 Q308 -49 311.5 -49 Q315 -49 318 -49 Q358 -49 383 -71 Q408 -93 408 -128 Q408 -163 380 -189 Q352 -215 294 -215 Q258 -215 229 -201 Q200 -187 185 -168 L218 -129 Q229 -140 248 -152.5 Q267 -165 294 -165 Q316 -165 331.5 -156 Q347 -147 347 -128 Q347 -112 334 -102 Q321 -92 297 -92 Q280 -92 265 -98 L236 -64 L276 0 L262 0 L262 632 L19 632 L19 709 L588 709 L588 632 L345 632 Z " />
<glyph glyph-name="tcommaaccent" unicode="&#x163;" horiz-adv-x="339" d="M141 -64 L185 6 Q151 20 132.5 51.5 Q114 83 114 131 L114 407 L18 407 L18 479 L49 479 Q86 479 102.5 498.5 Q119 518 119 552 L119 631 L194 631 L194 479 L307 479 L307 407 L194 407 L194 142 Q194 104 211.5 85.5 Q229 67 267 67 Q278 67 289.5 68.5 Q301 70 307 72 L307 4 Q300 2 283.5 -1.5 Q267 -5 244 -5 L238 -5 L208 -51 Q213 -49 216.5 -49 Q220 -49 223 -49 Q263 -49 288 -71 Q313 -93 313 -128 Q313 -163 285 -189 Q257 -215 199 -215 Q163 -215 134 -201 Q105 -187 90 -168 L123 -129 Q134 -140 153 -152.5 Q172 -165 199 -165 Q221 -165 236.5 -156 Q252 -147 252 -128 Q252 -112 239 -102 Q226 -92 202 -92 Q185 -92 170 -98 L141 -64 Z " />
<glyph glyph-name="Tcaron" unicode="&#x164;" horiz-adv-x="607" d="M470 878 L358 759 L248 759 L136 878 L214 878 L303 804 L392 878 L470 878 Z M345 632 L345 0 L262 0 L262 632 L19 632 L19 709 L588 709 L588 632 L345 632 Z " />
<glyph glyph-name="tcaron" unicode="&#x165;" horiz-adv-x="339" d="M320 561 L261 561 L292 739 L381 739 L320 561 Z M194 479 L307 479 L307 407 L194 407 L194 142 Q194 104 211.5 85.5 Q229 67 267 67 Q278 67 289.5 68.5 Q301 70 307 72 L307 4 Q300 2 283.5 -1.5 Q267 -5 244 -5 Q184 -5 149 30 Q114 65 114 131 L114 407 L18 407 L18 479 L49 479 Q86 479 102.5 498.5 Q119 518 119 552 L119 631 L194 631 L194 479 Z " />
<glyph glyph-name="Tbar" unicode="&#x166;" horiz-adv-x="607" d="M345 632 L345 371 L462 371 L462 302 L345 302 L345 0 L262 0 L262 302 L146 302 L146 371 L262 371 L262 632 L19 632 L19 709 L588 709 L588 632 L345 632 Z " />
<glyph glyph-name="tbar" unicode="&#x167;" horiz-adv-x="339" d="M194 212 L194 142 Q194 104 211.5 85.5 Q229 67 267 67 Q278 67 289.5 68.5 Q301 70 307 72 L307 4 Q300 2 283.5 -1.5 Q267 -5 244 -5 Q184 -5 149 30 Q114 65 114 131 L114 212 L18 212 L18 284 L114 284 L114 407 L18 407 L18 479 L49 479 Q86 479 102.5 498.5 Q119 518 119 552 L119 631 L194 631 L194 479 L307 479 L307 407 L194 407 L194 284 L307 284 L307 212 L194 212 Z " />
<glyph glyph-name="Utilde" unicode="&#x168;" horiz-adv-x="682" d="M499 863 Q499 811 474.5 784 Q450 757 411 757 Q390 757 373.5 763.5 Q357 770 342 780 L320 794 Q309 802 300 806 Q291 810 279 810 Q262 810 251.5 798 Q241 786 241 761 L183 761 L183 775 Q183 827 209.5 853.5 Q236 880 275 880 Q296 880 312 874 Q328 868 343 858 L365 844 Q376 837 385.5 832.5 Q395 828 406 828 Q421 828 431 838 Q441 848 441 871 L441 877 L499 877 L499 863 Z M341 -14 Q287 -14 241 2.5 Q195 19 161.5 51 Q128 83 109 130.5 Q90 178 90 240 L90 709 L174 709 L174 242 Q174 156 217 109.5 Q260 63 341 63 Q422 63 465 109.5 Q508 156 508 242 L508 709 L592 709 L592 240 Q592 178 573 130.5 Q554 83 520.5 51 Q487 19 441 2.5 Q395 -14 341 -14 Z " />
<glyph glyph-name="utilde" unicode="&#x169;" horiz-adv-x="550" d="M396 65 Q379 28 339.5 7 Q300 -14 252 -14 Q208 -14 174.5 1 Q141 16 118.5 42 Q96 68 84 103 Q72 138 72 178 L72 479 L152 479 L152 191 Q152 165 158.5 141 Q165 117 179 98.5 Q193 80 215.5 69 Q238 58 270 58 Q330 58 361 95.5 Q392 133 392 190 L392 479 L472 479 L472 90 Q472 62 474 38 Q476 14 478 0 L401 0 Q399 8 397.5 25.5 Q396 43 396 61 L396 65 Z M426 656 Q426 604 399.5 578 Q373 552 334 552 Q314 552 298.5 558.5 Q283 565 269 575 L254 586 Q243 594 233 598.5 Q223 603 212 603 Q195 603 187 591.5 Q179 580 179 554 L117 554 L117 568 Q117 620 143.5 645.5 Q170 671 209 671 Q230 671 246.5 665 Q263 659 277 648 L292 637 Q302 629 311.5 625 Q321 621 332 621 Q349 621 357 632 Q365 643 365 669 L426 669 L426 656 Z " />
<glyph glyph-name="Umacron" unicode="&#x16a;" horiz-adv-x="682" d="M341 -14 Q287 -14 241 2.5 Q195 19 161.5 51 Q128 83 109 130.5 Q90 178 90 240 L90 709 L174 709 L174 242 Q174 156 217 109.5 Q260 63 341 63 Q422 63 465 109.5 Q508 156 508 242 L508 709 L592 709 L592 240 Q592 178 573 130.5 Q554 83 520.5 51 Q487 19 441 2.5 Q395 -14 341 -14 Z M199 786 L199 856 L483 856 L483 786 L199 786 Z " />
<glyph glyph-name="umacron" unicode="&#x16b;" horiz-adv-x="550" d="M140 578 L140 648 L405 648 L405 578 L140 578 Z M396 65 Q379 28 339.5 7 Q300 -14 252 -14 Q208 -14 174.5 1 Q141 16 118.5 42 Q96 68 84 103 Q72 138 72 178 L72 479 L152 479 L152 191 Q152 165 158.5 141 Q165 117 179 98.5 Q193 80 215.5 69 Q238 58 270 58 Q330 58 361 95.5 Q392 133 392 190 L392 479 L472 479 L472 90 Q472 62 474 38 Q476 14 478 0 L401 0 Q399 8 397.5 25.5 Q396 43 396 61 L396 65 Z " />
<glyph glyph-name="Ubreve" unicode="&#x16c;" horiz-adv-x="682" d="M342 753 Q306 753 278.5 764 Q251 775 232 793 Q213 811 202.5 834.5 Q192 858 190 882 L259 882 Q260 871 265.5 860 Q271 849 280.5 839.5 Q290 830 305.5 824 Q321 818 342 818 Q363 818 378.5 824 Q394 830 403.5 839.5 Q413 849 418 860 Q423 871 425 882 L494 882 Q492 858 481.5 834.5 Q471 811 452 793 Q433 775 405.5 764 Q378 753 342 753 Z M341 -14 Q287 -14 241 2.5 Q195 19 161.5 51 Q128 83 109 130.5 Q90 178 90 240 L90 709 L174 709 L174 242 Q174 156 217 109.5 Q260 63 341 63 Q422 63 465 109.5 Q508 156 508 242 L508 709 L592 709 L592 240 Q592 178 573 130.5 Q554 83 520.5 51 Q487 19 441 2.5 Q395 -14 341 -14 Z " />
<glyph glyph-name="ubreve" unicode="&#x16d;" horiz-adv-x="550" d="M396 65 Q379 28 339.5 7 Q300 -14 252 -14 Q208 -14 174.5 1 Q141 16 118.5 42 Q96 68 84 103 Q72 138 72 178 L72 479 L152 479 L152 191 Q152 165 158.5 141 Q165 117 179 98.5 Q193 80 215.5 69 Q238 58 270 58 Q330 58 361 95.5 Q392 133 392 190 L392 479 L472 479 L472 90 Q472 62 474 38 Q476 14 478 0 L401 0 Q399 8 397.5 25.5 Q396 43 396 61 L396 65 Z M274 542 Q238 542 211.5 554 Q185 566 167 586 Q149 606 140 631.5 Q131 657 131 684 L193 684 Q195 655 213.5 631.5 Q232 608 274 608 Q316 608 334.5 631.5 Q353 655 355 684 L417 684 Q417 657 408 631.5 Q399 606 381 586 Q363 566 336.5 554 Q310 542 274 542 Z " />
<glyph glyph-name="Uring" unicode="&#x16e;" horiz-adv-x="682" d="M341 -14 Q287 -14 241 2.5 Q195 19 161.5 51 Q128 83 109 130.5 Q90 178 90 240 L90 709 L174 709 L174 242 Q174 156 217 109.5 Q260 63 341 63 Q422 63 465 109.5 Q508 156 508 242 L508 709 L592 709 L592 240 Q592 178 573 130.5 Q554 83 520.5 51 Q487 19 441 2.5 Q395 -14 341 -14 Z M341 742 Q320 742 300.5 750 Q281 758 266 772.5 Q251 787 242.5 806 Q234 825 234 847 Q234 869 242.5 888.5 Q251 908 266 922.5 Q281 937 300.5 945 Q320 953 341 953 Q362 953 381.5 945 Q401 937 416 922.5 Q431 908 439.5 888.5 Q448 869 448 847 Q448 825 439.5 806 Q431 787 416 772.5 Q401 758 381.5 750 Q362 742 341 742 Z M341 899 Q320 899 305 884 Q290 869 290 847 Q290 825 305 810.5 Q320 796 341 796 Q362 796 377 810.5 Q392 825 392 847 Q392 869 377 884 Q362 899 341 899 Z " />
<glyph glyph-name="uring" unicode="&#x16f;" horiz-adv-x="550" d="M272 530 Q249 530 229.5 538.5 Q210 547 195 561.5 Q180 576 171.5 595.5 Q163 615 163 638 Q163 661 171.5 680.5 Q180 700 195 714.5 Q210 729 229.5 737.5 Q249 746 272 746 Q294 746 314 737.5 Q334 729 349 714.5 Q364 700 372.5 680.5 Q381 661 381 638 Q381 615 372.5 595.5 Q364 576 349 561.5 Q334 547 314 538.5 Q294 530 272 530 Z M219 638 Q219 615 234 599 Q249 583 272 583 Q295 583 310 599 Q325 615 325 638 Q325 661 310 677 Q295 693 272 693 Q249 693 234 677 Q219 661 219 638 Z M396 65 Q379 28 339.5 7 Q300 -14 252 -14 Q208 -14 174.5 1 Q141 16 118.5 42 Q96 68 84 103 Q72 138 72 178 L72 479 L152 479 L152 191 Q152 165 158.5 141 Q165 117 179 98.5 Q193 80 215.5 69 Q238 58 270 58 Q330 58 361 95.5 Q392 133 392 190 L392 479 L472 479 L472 90 Q472 62 474 38 Q476 14 478 0 L401 0 Q399 8 397.5 25.5 Q396 43 396 61 L396 65 Z " />
<glyph glyph-name="Uhungarumlaut" unicode="&#x170;" horiz-adv-x="682" d="M290 759 L231 759 L293 878 L383 878 L290 759 Z M420 759 L361 759 L434 878 L523 878 L420 759 Z M341 -14 Q287 -14 241 2.5 Q195 19 161.5 51 Q128 83 109 130.5 Q90 178 90 240 L90 709 L174 709 L174 242 Q174 156 217 109.5 Q260 63 341 63 Q422 63 465 109.5 Q508 156 508 242 L508 709 L592 709 L592 240 Q592 178 573 130.5 Q554 83 520.5 51 Q487 19 441 2.5 Q395 -14 341 -14 Z " />
<glyph glyph-name="uhungarumlaut" unicode="&#x171;" horiz-adv-x="550" d="M396 65 Q379 28 339.5 7 Q300 -14 252 -14 Q208 -14 174.5 1 Q141 16 118.5 42 Q96 68 84 103 Q72 138 72 178 L72 479 L152 479 L152 191 Q152 165 158.5 141 Q165 117 179 98.5 Q193 80 215.5 69 Q238 58 270 58 Q330 58 361 95.5 Q392 133 392 190 L392 479 L472 479 L472 90 Q472 62 474 38 Q476 14 478 0 L401 0 Q399 8 397.5 25.5 Q396 43 396 61 L396 65 Z M344 541 L288 541 L354 684 L444 684 L344 541 Z M223 541 L167 541 L229 684 L319 684 L223 541 Z " />
<glyph glyph-name="Uogonek" unicode="&#x172;" horiz-adv-x="682" d="M279 -116 Q279 -81 294 -56 Q309 -31 331 -14 Q279 -13 235 4.5 Q191 22 158.5 54 Q126 86 108 132.5 Q90 179 90 240 L90 709 L174 709 L174 242 Q174 156 217 109.5 Q260 63 341 63 Q422 63 465 109.5 Q508 156 508 242 L508 709 L592 709 L592 240 Q592 145 549.5 84.5 Q507 24 437 1 Q422 -4 406 -13.5 Q390 -23 377 -36.5 Q364 -50 355.5 -66 Q347 -82 347 -101 Q347 -127 364.5 -139.5 Q382 -152 404 -152 Q415 -152 423 -151 Q431 -150 437 -148 L437 -206 Q428 -209 416.5 -211 Q405 -213 389 -213 Q367 -213 347 -206.5 Q327 -200 312 -187.5 Q297 -175 288 -157 Q279 -139 279 -116 Z " />
<glyph glyph-name="uogonek" unicode="&#x173;" horiz-adv-x="550" d="M326 -116 Q326 -72 348.5 -44 Q371 -16 400 1 Q398 10 397 27 Q396 44 396 61 L396 65 Q379 28 339.5 7 Q300 -14 252 -14 Q208 -14 174.5 1 Q141 16 118.5 42 Q96 68 84 103 Q72 138 72 178 L72 479 L152 479 L152 191 Q152 165 158.5 141 Q165 117 179 98.5 Q193 80 215.5 69 Q238 58 270 58 Q330 58 361 95.5 Q392 133 392 190 L392 479 L472 479 L472 90 Q472 62 474 38 Q476 14 478 0 Q464 -7 449 -16.5 Q434 -26 422 -38.5 Q410 -51 402 -66.5 Q394 -82 394 -101 Q394 -127 411.5 -139.5 Q429 -152 451 -152 Q462 -152 470 -151 Q478 -150 484 -148 L484 -206 Q475 -209 463.5 -211 Q452 -213 436 -213 Q414 -213 394 -206.5 Q374 -200 359 -187.5 Q344 -175 335 -157 Q326 -139 326 -116 Z " />
<glyph glyph-name="Wcircumflex" unicode="&#x174;" horiz-adv-x="1002" d="M336 759 L448 878 L558 878 L670 759 L592 759 L503 833 L414 759 L336 759 Z M726 129 L895 709 L981 709 L771 0 L686 0 L501 595 L316 0 L231 0 L21 709 L107 709 L276 129 L455 709 L547 709 L726 129 Z " />
<glyph glyph-name="wcircumflex" unicode="&#x175;" horiz-adv-x="807" d="M251 541 L357 679 L452 679 L557 541 L483 541 L404 632 L325 541 L251 541 Z M446 479 L579 100 L693 479 L778 479 L622 0 L538 0 L404 382 L272 0 L187 0 L28 479 L114 479 L231 100 L363 479 L446 479 Z " />
<glyph glyph-name="Ycircumflex" unicode="&#x176;" horiz-adv-x="632" d="M25 709 L123 709 L316 380 L509 709 L607 709 L358 303 L358 0 L274 0 L274 303 L25 709 Z M149 759 L261 878 L371 878 L483 759 L405 759 L316 833 L227 759 L149 759 Z " />
<glyph glyph-name="ycircumflex" unicode="&#x177;" horiz-adv-x="523" d="M110 541 L216 679 L311 679 L416 541 L342 541 L263 632 L184 541 L110 541 Z M111 -190 L227 57 L21 479 L113 479 L271 140 L420 479 L507 479 L200 -190 L111 -190 Z " />
<glyph glyph-name="Ydieresis" unicode="&#x178;" horiz-adv-x="632" d="M25 709 L123 709 L316 380 L509 709 L607 709 L358 303 L358 0 L274 0 L274 303 L25 709 Z M155 819 Q155 841 170 856 Q185 871 207 871 Q229 871 244 856 Q259 841 259 819 Q259 797 244 782 Q229 767 207 767 Q185 767 170 782 Q155 797 155 819 Z M373 819 Q373 841 388 856 Q403 871 425 871 Q447 871 462 856 Q477 841 477 819 Q477 797 462 782 Q447 767 425 767 Q403 767 388 782 Q373 797 373 819 Z " />
<glyph glyph-name="Zacute" unicode="&#x179;" horiz-adv-x="629" d="M328 759 L249 759 L353 878 L464 878 L328 759 Z M41 0 L41 84 L482 632 L50 632 L50 709 L582 709 L582 627 L140 77 L587 77 L587 0 L41 0 Z " />
<glyph glyph-name="zacute" unicode="&#x17a;" horiz-adv-x="472" d="M246 541 L180 541 L267 684 L369 684 L246 541 Z M45 0 L45 70 L324 407 L48 407 L48 479 L423 479 L423 409 L144 72 L428 72 L428 0 L45 0 Z " />
<glyph glyph-name="Zdotaccent" unicode="&#x17b;" horiz-adv-x="629" d="M41 0 L41 84 L482 632 L50 632 L50 709 L582 709 L582 627 L140 77 L587 77 L587 0 L41 0 Z M316 762 Q293 762 276 778.5 Q259 795 259 819 Q259 843 276 859.5 Q293 876 316 876 Q339 876 356 859.5 Q373 843 373 819 Q373 795 356 778.5 Q339 762 316 762 Z " />
<glyph glyph-name="zdotaccent" unicode="&#x17c;" horiz-adv-x="472" d="M45 0 L45 70 L324 407 L48 407 L48 479 L423 479 L423 409 L144 72 L428 72 L428 0 L45 0 Z M178 613 Q178 636 194 652 Q210 668 233 668 Q256 668 272 652 Q288 636 288 613 Q288 590 272 574 Q256 558 233 558 Q210 558 194 574 Q178 590 178 613 Z " />
<glyph glyph-name="Zcaron" unicode="&#x17d;" horiz-adv-x="629" d="M486 878 L374 759 L264 759 L152 878 L230 878 L319 804 L408 878 L486 878 Z M41 0 L41 84 L482 632 L50 632 L50 709 L582 709 L582 627 L140 77 L587 77 L587 0 L41 0 Z " />
<glyph glyph-name="zcaron" unicode="&#x17e;" horiz-adv-x="472" d="M155 679 L234 588 L313 679 L387 679 L282 541 L187 541 L81 679 L155 679 Z M45 0 L45 70 L324 407 L48 407 L48 479 L423 479 L423 409 L144 72 L428 72 L428 0 L45 0 Z " />
<glyph glyph-name="uni018F" unicode="&#x18f;" horiz-adv-x="786" d="M40 369 L652 369 Q650 437 626.5 489 Q603 541 566.5 576 Q530 611 482.5 628.5 Q435 646 385 646 Q340 646 298.5 632.5 Q257 619 223.5 595 Q190 571 166 538.5 Q142 506 130 468 L55 495 Q70 544 101.5 585.5 Q133 627 176.5 657.5 Q220 688 273 705.5 Q326 723 385 723 Q451 723 514.5 699 Q578 675 627 628 Q676 581 706 512.5 Q736 444 736 355 Q736 266 706.5 197.5 Q677 129 628.5 82 Q580 35 517 10.5 Q454 -14 388 -14 Q322 -14 259 10 Q196 34 147.5 80.5 Q99 127 69.5 196 Q40 265 40 355 L40 369 Z M388 63 Q434 63 476.5 77.5 Q519 92 554 121 Q589 150 613.5 193 Q638 236 647 293 L129 293 Q136 236 159.5 193 Q183 150 218.5 121 Q254 92 297.5 77.5 Q341 63 388 63 Z " />
<glyph glyph-name="florin" unicode="&#x192;" horiz-adv-x="471" d="M187 407 L74 407 L74 479 L201 479 L224 592 Q231 629 247 656.5 Q263 684 285 701 Q307 718 332.5 726.5 Q358 735 385 735 Q412 735 427 732.5 Q442 730 454 725 L454 654 Q435 661 402 661 Q387 661 371.5 657.5 Q356 654 342.5 643.5 Q329 633 318 614.5 Q307 596 301 565 L284 479 L415 479 L415 407 L270 407 L186 -11 Q178 -49 162.5 -76 Q147 -103 125.5 -120 Q104 -137 78 -145.5 Q52 -154 25 -154 Q-4 -154 -19 -151.5 Q-34 -149 -46 -144 L-46 -73 Q-27 -80 8 -80 Q23 -80 38.5 -76.5 Q54 -73 67.5 -62.5 Q81 -52 92 -33 Q103 -14 109 16 L187 407 Z " />
<glyph glyph-name="uni01B5" unicode="&#x1b5;" horiz-adv-x="629" d="M41 0 L41 84 L242 334 L91 334 L91 407 L301 407 L482 632 L50 632 L50 709 L582 709 L582 627 L405 407 L540 407 L540 334 L346 334 L140 77 L587 77 L587 0 L41 0 Z " />
<glyph glyph-name="uni01B6" unicode="&#x1b6;" horiz-adv-x="472" d="M45 0 L45 70 L165 215 L53 215 L53 287 L224 287 L324 407 L48 407 L48 479 L423 479 L423 409 L322 287 L412 287 L412 215 L262 215 L144 72 L428 72 L428 0 L45 0 Z " />
<glyph glyph-name="Aringacute" unicode="&#x1fa;" horiz-adv-x="706" d="M515 207 L190 207 L111 0 L20 0 L288 670 Q265 685 251 710 Q237 735 237 764 Q237 788 246.5 809 Q256 830 271.5 845.5 Q287 861 308 869.5 Q329 878 352 878 Q375 878 396 869.5 Q417 861 432.5 845.5 Q448 830 457.5 809 Q467 788 467 764 Q467 735 453 711 Q439 687 417 671 L687 0 L596 0 L515 207 Z M220 284 L485 284 L352 623 L220 284 Z M352 820 Q329 820 313 803.5 Q297 787 297 764 Q297 741 313 725 Q329 709 352 709 Q375 709 391 725 Q407 741 407 764 Q407 787 391 803.5 Q375 820 352 820 Z M389 899 L310 899 L414 1018 L525 1018 L389 899 Z " />
<glyph glyph-name="aringacute" unicode="&#x1fb;" horiz-adv-x="512" d="M44 127 Q44 190 84 225.5 Q124 261 187 270 L316 289 Q342 293 350.5 303.5 Q359 314 359 330 Q359 371 332 398 Q305 425 248 425 Q195 425 164.5 396.5 Q134 368 129 322 L53 340 Q57 374 73 402 Q89 430 114.5 450.5 Q140 471 173.5 482 Q207 493 246 493 Q297 493 333.5 479.5 Q370 466 393.5 442.5 Q417 419 428 388 Q439 357 439 322 L439 80 Q439 50 441 30.5 Q443 11 445 0 L367 0 Q365 8 363 26 Q361 44 361 72 Q353 57 339.5 42 Q326 27 306 14.5 Q286 2 260 -6 Q234 -14 202 -14 Q165 -14 135.5 -2 Q106 10 86 29.5 Q66 49 55 74.5 Q44 100 44 127 Z M212 54 Q243 54 270 63 Q297 72 316.5 90 Q336 108 347.5 136 Q359 164 359 202 L359 234 L203 211 Q168 206 146 186 Q124 166 124 131 Q124 102 147.5 78 Q171 54 212 54 Z M281 779 L215 779 L302 922 L404 922 L281 779 Z M249 526 Q226 526 206.5 534.5 Q187 543 172 557.5 Q157 572 148.5 591.5 Q140 611 140 634 Q140 657 148.5 676.5 Q157 696 172 710.5 Q187 725 206.5 733.5 Q226 742 249 742 Q271 742 291 733.5 Q311 725 326 710.5 Q341 696 349.5 676.5 Q358 657 358 634 Q358 611 349.5 591.5 Q341 572 326 557.5 Q311 543 291 534.5 Q271 526 249 526 Z M196 634 Q196 611 211 595 Q226 579 249 579 Q272 579 287 595 Q302 611 302 634 Q302 657 287 673 Q272 689 249 689 Q226 689 211 673 Q196 657 196 634 Z " />
<glyph glyph-name="AEacute" unicode="&#x1fc;" horiz-adv-x="1000" d="M580 759 L501 759 L605 878 L716 878 L580 759 Z M520 0 L520 207 L241 207 L107 0 L-1 0 L471 709 L945 709 L945 632 L604 632 L604 393 L914 393 L914 316 L604 316 L604 77 L945 77 L945 0 L520 0 Z M291 284 L520 284 L520 636 L291 284 Z " />
<glyph glyph-name="aeacute" unicode="&#x1fd;" horiz-adv-x="855" d="M448 541 L382 541 L469 684 L571 684 L448 541 Z M246 493 Q312 493 353.5 470 Q395 447 416 409 Q448 450 492 471.5 Q536 493 586 493 Q640 493 682.5 475 Q725 457 753.5 424.5 Q782 392 797 346.5 Q812 301 812 246 Q812 238 811.5 230.5 Q811 223 810 218 L441 218 L441 214 Q441 180 453 151.5 Q465 123 486 102 Q507 81 535.5 69.5 Q564 58 596 58 Q657 58 691.5 88 Q726 118 740 161 L809 136 Q799 105 780 77.5 Q761 50 734 30 Q707 10 672.5 -2 Q638 -14 597 -14 Q534 -14 481 14.5 Q428 43 396 98 Q386 77 369.5 56.5 Q353 36 329.5 20.5 Q306 5 274.5 -4.5 Q243 -14 202 -14 Q165 -14 135.5 -2 Q106 10 86 29.5 Q66 49 55 74.5 Q44 100 44 127 Q44 190 84 225.5 Q124 261 187 270 L316 289 Q342 293 350.5 303.5 Q359 314 359 330 Q359 371 332 398 Q305 425 248 425 Q195 425 164.5 396.5 Q134 368 129 322 L53 340 Q57 374 73 402 Q89 430 114.5 450.5 Q140 471 173.5 482 Q207 493 246 493 Z M212 54 Q243 54 270 63 Q297 72 316.5 90 Q336 108 347.5 136 Q359 164 359 202 L359 234 L203 211 Q168 206 146 186 Q124 166 124 131 Q124 102 147.5 78 Q171 54 212 54 Z M729 286 Q727 343 691.5 382.5 Q656 422 587 422 Q556 422 530 410.5 Q504 399 485.5 380.5 Q467 362 456 337.5 Q445 313 443 286 L729 286 Z " />
<glyph glyph-name="Oslashacute" unicode="&#x1fe;" horiz-adv-x="802" d="M50 355 Q50 444 80 512.5 Q110 581 159.5 628 Q209 675 272 699 Q335 723 401 723 Q453 723 503 708 Q553 693 597 664 L668 756 L725 712 L652 618 Q697 571 724.5 505.5 Q752 440 752 355 Q752 266 722 197.5 Q692 129 643 82 Q594 35 530.5 10.5 Q467 -14 401 -14 Q350 -14 300.5 0.5 Q251 15 208 43 L137 -48 L78 -4 L151 90 Q105 137 77.5 203.5 Q50 270 50 355 Z M134 355 Q134 290 152 239.5 Q170 189 200 153 L549 602 Q482 646 401 646 Q350 646 301.5 627.5 Q253 609 216 572.5 Q179 536 156.5 481.5 Q134 427 134 355 Z M668 355 Q668 418 650.5 468 Q633 518 603 554 L255 105 Q287 84 324.5 73.5 Q362 63 401 63 Q453 63 501 81.5 Q549 100 586 136.5 Q623 173 645.5 228 Q668 283 668 355 Z M434 759 L355 759 L459 878 L570 878 L434 759 Z " />
<glyph glyph-name="oslashacute" unicode="&#x1ff;" horiz-adv-x="572" d="M286 493 Q322 493 354 483.5 Q386 474 414 457 L465 524 L516 483 L463 415 Q493 382 509.5 337.5 Q526 293 526 240 Q526 184 508 137.5 Q490 91 458 57.5 Q426 24 382 5 Q338 -14 286 -14 Q250 -14 218 -5 Q186 4 158 21 L107 -45 L56 -4 L108 64 Q79 97 62.5 141.5 Q46 186 46 240 Q46 295 64 341.5 Q82 388 114 421.5 Q146 455 190 474 Q234 493 286 493 Z M446 240 Q446 275 437.5 303 Q429 331 415 353 L204 80 Q239 58 286 58 Q318 58 347 70 Q376 82 398 105 Q420 128 433 162 Q446 196 446 240 Z M286 421 Q254 421 225 409 Q196 397 174 374 Q152 351 139 317 Q126 283 126 240 Q126 171 157 126 L368 398 Q331 421 286 421 Z M316 541 L250 541 L337 684 L439 684 L316 541 Z " />
<glyph glyph-name="Scommaaccent" unicode="&#x218;" horiz-adv-x="589" d="M458 521 Q454 543 443 566 Q432 589 412.5 607 Q393 625 364.5 636.5 Q336 648 298 648 Q267 648 240.5 638.5 Q214 629 194 612 Q174 595 162.5 572 Q151 549 151 522 Q151 479 177.5 450 Q204 421 253 410 L357 387 Q443 368 491 317 Q539 266 539 191 Q539 150 522 113 Q505 76 474 47.5 Q443 19 398 2.5 Q353 -14 298 -14 Q236 -14 190 4.5 Q144 23 111.5 52.5 Q79 82 61 120 Q43 158 38 197 L117 222 Q120 190 133 161.5 Q146 133 168.5 110.5 Q191 88 223.5 75 Q256 62 298 62 Q375 62 415 97.5 Q455 133 455 184 Q455 228 426 259.5 Q397 291 340 304 L236 327 Q199 335 168 351 Q137 367 114.5 391 Q92 415 79.5 446.5 Q67 478 67 517 Q67 559 85 596 Q103 633 134 661.5 Q165 690 207 706.5 Q249 723 297 723 Q354 723 395.5 707 Q437 691 465.5 666 Q494 641 510 610 Q526 579 533 548 L458 521 Z M256 -87 Q256 -64 272.5 -51.5 Q289 -39 310 -39 Q330 -39 349.5 -54 Q369 -69 369 -106 Q369 -134 359.5 -154.5 Q350 -175 335 -188.5 Q320 -202 300.5 -209 Q281 -216 262 -217 L262 -180 Q287 -179 305.5 -163.5 Q324 -148 325 -128 Q317 -134 304 -134 Q283 -134 269.5 -122 Q256 -110 256 -87 Z " />
<glyph glyph-name="scommaaccent" unicode="&#x219;" horiz-adv-x="448" d="M111 151 Q116 109 146.5 81.5 Q177 54 231 54 Q274 54 299 75 Q324 96 324 127 Q324 154 304 171.5 Q284 189 251 197 L173 215 Q118 228 86 262 Q54 296 54 348 Q54 378 67.5 404.5 Q81 431 103.5 450.5 Q126 470 156.5 481.5 Q187 493 221 493 Q267 493 299.5 480 Q332 467 352.5 447.5 Q373 428 384 405.5 Q395 383 399 365 L328 339 Q326 351 319.5 366 Q313 381 300.5 394 Q288 407 268.5 416 Q249 425 221 425 Q183 425 157.5 404 Q132 383 132 353 Q132 303 195 288 L273 270 Q336 256 369.5 220.5 Q403 185 403 131 Q403 105 392 79 Q381 53 359 32.5 Q337 12 305 -1 Q273 -14 230 -14 Q183 -14 148 -0.5 Q113 13 90 33.5 Q67 54 54.5 78.5 Q42 103 39 126 L111 151 Z M181 -87 Q181 -64 197.5 -51.5 Q214 -39 235 -39 Q255 -39 274.5 -54 Q294 -69 294 -106 Q294 -134 284.5 -154.5 Q275 -175 260 -188.5 Q245 -202 225.5 -209 Q206 -216 187 -217 L187 -180 Q212 -179 230.5 -163.5 Q249 -148 250 -128 Q242 -134 229 -134 Q208 -134 194.5 -122 Q181 -110 181 -87 Z " />
<glyph glyph-name="uni021A" unicode="&#x21a;" horiz-adv-x="607" d="M253 -87 Q253 -64 269.5 -51.5 Q286 -39 307 -39 Q327 -39 346.5 -54 Q366 -69 366 -106 Q366 -134 356.5 -154.5 Q347 -175 332 -188.5 Q317 -202 297.5 -209 Q278 -216 259 -217 L259 -180 Q284 -179 302.5 -163.5 Q321 -148 322 -128 Q314 -134 301 -134 Q280 -134 266.5 -122 Q253 -110 253 -87 Z M345 632 L345 0 L262 0 L262 632 L19 632 L19 709 L588 709 L588 632 L345 632 Z " />
<glyph glyph-name="uni021B" unicode="&#x21b;" horiz-adv-x="339" d="M194 479 L307 479 L307 407 L194 407 L194 142 Q194 104 211.5 85.5 Q229 67 267 67 Q278 67 289.5 68.5 Q301 70 307 72 L307 4 Q301 2 286.5 -1 Q272 -4 252 -5 L222 -51 Q227 -49 230.5 -49 Q234 -49 237 -49 Q277 -49 302 -71 Q327 -93 327 -128 Q327 -163 299 -189 Q271 -215 213 -215 Q177 -215 148 -201 Q119 -187 104 -168 L137 -129 Q148 -140 167 -152.5 Q186 -165 213 -165 Q235 -165 250.5 -156 Q266 -147 266 -128 Q266 -112 253 -102 Q240 -92 216 -92 Q199 -92 184 -98 L155 -64 L196 2 Q158 14 136 47 Q114 80 114 131 L114 407 L18 407 L18 479 L49 479 Q86 479 102.5 498.5 Q119 518 119 552 L119 631 L194 631 L194 479 Z " />
<glyph glyph-name="dotlessj" unicode="&#x237;" horiz-adv-x="236" d="M78 479 L158 479 L158 -59 Q158 -125 123 -164.5 Q88 -204 27 -204 Q5 -204 -7 -201.5 Q-19 -199 -27 -196 L-27 -126 Q-15 -132 7 -132 Q45 -132 61.5 -113 Q78 -94 78 -56 L78 479 Z " />
<glyph glyph-name="uni0259" unicode="&#x259;" horiz-adv-x="541" d="M126 193 Q128 136 163.5 96.5 Q199 57 268 57 Q299 57 324.5 68.5 Q350 80 369 98.5 Q388 117 399 141.5 Q410 166 412 193 L126 193 Z M46 343 Q56 374 75 401.5 Q94 429 121 449 Q148 469 182.5 481 Q217 493 259 493 Q307 493 350 476 Q393 459 425.5 426 Q458 393 477 345.5 Q496 298 496 238 Q496 181 477.5 134.5 Q459 88 428 55 Q397 22 355.5 4 Q314 -14 269 -14 Q215 -14 172.5 4 Q130 22 101.5 54.5 Q73 87 58 132.5 Q43 178 43 233 Q43 241 43.5 248.5 Q44 256 45 261 L414 261 L414 265 Q414 299 402 327.5 Q390 356 369 377 Q348 398 319.5 409.5 Q291 421 259 421 Q198 421 163.5 391 Q129 361 115 318 L46 343 Z " />
<glyph glyph-name="circumflex" unicode="&#x2c6;" horiz-adv-x="386" d="M40 541 L146 679 L241 679 L346 541 L272 541 L193 632 L114 541 L40 541 Z " />
<glyph glyph-name="caron" unicode="&#x2c7;" horiz-adv-x="386" d="M114 679 L193 588 L272 679 L346 679 L241 541 L146 541 L40 679 L114 679 Z " />
<glyph glyph-name="uni02C9" unicode="&#x2c9;" horiz-adv-x="345" d="M40 578 L40 648 L305 648 L305 578 L40 578 Z " />
<glyph glyph-name="breve" unicode="&#x2d8;" horiz-adv-x="366" d="M183 542 Q147 542 120.5 554 Q94 566 76 586 Q58 606 49 631.5 Q40 657 40 684 L102 684 Q104 655 122.5 631.5 Q141 608 183 608 Q225 608 243.5 631.5 Q262 655 264 684 L326 684 Q326 657 317 631.5 Q308 606 290 586 Q272 566 245.5 554 Q219 542 183 542 Z " />
<glyph glyph-name="dotaccent" unicode="&#x2d9;" horiz-adv-x="190" d="M40 613 Q40 636 56 652 Q72 668 95 668 Q118 668 134 652 Q150 636 150 613 Q150 590 134 574 Q118 558 95 558 Q72 558 56 574 Q40 590 40 613 Z " />
<glyph glyph-name="ring" unicode="&#x2da;" horiz-adv-x="298" d="M149 530 Q126 530 106.5 538.5 Q87 547 72 561.5 Q57 576 48.5 595.5 Q40 615 40 638 Q40 661 48.5 680.5 Q57 700 72 714.5 Q87 729 106.5 737.5 Q126 746 149 746 Q171 746 191 737.5 Q211 729 226 714.5 Q241 700 249.5 680.5 Q258 661 258 638 Q258 615 249.5 595.5 Q241 576 226 561.5 Q211 547 191 538.5 Q171 530 149 530 Z M96 638 Q96 615 111 599 Q126 583 149 583 Q172 583 187 599 Q202 615 202 638 Q202 661 187 677 Q172 693 149 693 Q126 693 111 677 Q96 661 96 638 Z " />
<glyph glyph-name="ogonek" unicode="&#x2db;" horiz-adv-x="238" d="M40 -116 Q40 -90 49 -69 Q58 -48 72.5 -32.5 Q87 -17 104.5 -5.5 Q122 6 139 14 L192 0 Q178 -7 163 -16.5 Q148 -26 136 -38.5 Q124 -51 116 -66.5 Q108 -82 108 -101 Q108 -127 125.5 -139.5 Q143 -152 165 -152 Q176 -152 184 -151 Q192 -150 198 -148 L198 -206 Q189 -209 177.5 -211 Q166 -213 150 -213 Q128 -213 108 -206.5 Q88 -200 73 -187.5 Q58 -175 49 -157 Q40 -139 40 -116 Z " />
<glyph glyph-name="tilde" unicode="&#x2dc;" horiz-adv-x="389" d="M349 656 Q349 604 322.5 578 Q296 552 257 552 Q237 552 221.5 558.5 Q206 565 192 575 L177 586 Q166 594 156 598.5 Q146 603 135 603 Q118 603 110 591.5 Q102 580 102 554 L40 554 L40 568 Q40 620 66.5 645.5 Q93 671 132 671 Q153 671 169.5 665 Q186 659 200 648 L215 637 Q225 629 234.5 625 Q244 621 255 621 Q272 621 280 632 Q288 643 288 669 L349 669 L349 656 Z " />
<glyph glyph-name="hungarumlaut" unicode="&#x2dd;" horiz-adv-x="357" d="M217 541 L161 541 L227 684 L317 684 L217 541 Z M96 541 L40 541 L102 684 L192 684 L96 541 Z " />
<glyph glyph-name="uni0394" unicode="&#x394;" horiz-adv-x="710" d="M309 709 L400 709 L681 0 L29 0 L309 709 Z M148 77 L561 77 L353 616 L148 77 Z " />
<glyph glyph-name="uni03A9" unicode="&#x3a9;" horiz-adv-x="824" d="M412 648 Q362 648 314 630.5 Q266 613 228 579 Q190 545 167 495.5 Q144 446 144 383 Q144 326 163.5 279.5 Q183 233 214.5 198.5 Q246 164 286 142 Q326 120 367 112 L367 0 L66 0 L66 74 L276 74 Q235 88 196 116 Q157 144 126.5 183 Q96 222 77.5 272.5 Q59 323 59 382 Q59 461 88 524.5 Q117 588 166 632 Q215 676 279 699.5 Q343 723 412 723 Q481 723 545 699.5 Q609 676 658 632 Q707 588 736 524.5 Q765 461 765 382 Q765 323 746.5 272.5 Q728 222 697.5 183 Q667 144 628 116 Q589 88 547 74 L758 74 L758 0 L457 0 L457 112 Q498 120 538 142 Q578 164 609.5 198.5 Q641 233 660.5 279.5 Q680 326 680 383 Q680 446 657 495.5 Q634 545 596 579 Q558 613 510 630.5 Q462 648 412 648 Z " />
<glyph glyph-name="uni03BC" unicode="&#x3bc;" horiz-adv-x="543" d="M395 65 Q377 28 337.5 7 Q298 -14 250 -14 Q184 -14 151 26 L151 -190 L71 -190 L71 479 L151 479 L151 190 Q151 164 157.5 140 Q164 116 178 97.5 Q192 79 214 68 Q236 57 268 57 Q328 57 359.5 94.5 Q391 132 391 189 L391 479 L471 479 L471 90 Q471 62 472.5 37 Q474 12 476 0 L399 0 Q397 8 396 25.5 Q395 43 395 62 L395 65 Z " />
<glyph glyph-name="pi" unicode="&#x3c0;" horiz-adv-x="587" d="M544 4 Q535 0 520.5 -3.5 Q506 -7 485 -7 Q456 -7 435 2.5 Q414 12 400 28 Q386 44 379.5 64.5 Q373 85 373 107 L373 409 L192 409 L192 0 L112 0 L112 409 L25 409 L25 479 L541 479 L541 409 L453 409 L453 116 Q453 87 469 74.5 Q485 62 510 62 Q518 62 527 63 Q536 64 544 66 L544 4 Z " />
<glyph glyph-name="Wgrave" unicode="&#x1e80;" horiz-adv-x="1002" d="M328 878 L439 878 L543 759 L464 759 L328 878 Z M726 129 L895 709 L981 709 L771 0 L686 0 L501 595 L316 0 L231 0 L21 709 L107 709 L276 129 L455 709 L547 709 L726 129 Z " />
<glyph glyph-name="wgrave" unicode="&#x1e81;" horiz-adv-x="807" d="M249 684 L351 684 L438 541 L372 541 L249 684 Z M446 479 L579 100 L693 479 L778 479 L622 0 L538 0 L404 382 L272 0 L187 0 L28 479 L114 479 L231 100 L363 479 L446 479 Z " />
<glyph glyph-name="Wacute" unicode="&#x1e82;" horiz-adv-x="1002" d="M543 759 L464 759 L568 878 L679 878 L543 759 Z M726 129 L895 709 L981 709 L771 0 L686 0 L501 595 L316 0 L231 0 L21 709 L107 709 L276 129 L455 709 L547 709 L726 129 Z " />
<glyph glyph-name="wacute" unicode="&#x1e83;" horiz-adv-x="807" d="M438 541 L372 541 L459 684 L561 684 L438 541 Z M446 479 L579 100 L693 479 L778 479 L622 0 L538 0 L404 382 L272 0 L187 0 L28 479 L114 479 L231 100 L363 479 L446 479 Z " />
<glyph glyph-name="Wdieresis" unicode="&#x1e84;" horiz-adv-x="1002" d="M310 819 Q310 841 325 856 Q340 871 362 871 Q384 871 399 856 Q414 841 414 819 Q414 797 399 782 Q384 767 362 767 Q340 767 325 782 Q310 797 310 819 Z M588 819 Q588 841 603 856 Q618 871 640 871 Q662 871 677 856 Q692 841 692 819 Q692 797 677 782 Q662 767 640 767 Q618 767 603 782 Q588 797 588 819 Z M726 129 L895 709 L981 709 L771 0 L686 0 L501 595 L316 0 L231 0 L21 709 L107 709 L276 129 L455 709 L547 709 L726 129 Z " />
<glyph glyph-name="wdieresis" unicode="&#x1e85;" horiz-adv-x="807" d="M241 616 Q241 638 256 653 Q271 668 293 668 Q315 668 330 653 Q345 638 345 616 Q345 594 330 579 Q315 564 293 564 Q271 564 256 579 Q241 594 241 616 Z M463 616 Q463 638 478 653 Q493 668 515 668 Q537 668 552 653 Q567 638 567 616 Q567 594 552 579 Q537 564 515 564 Q493 564 478 579 Q463 594 463 616 Z M446 479 L579 100 L693 479 L778 479 L622 0 L538 0 L404 382 L272 0 L187 0 L28 479 L114 479 L231 100 L363 479 L446 479 Z " />
<glyph glyph-name="uni1E8A" unicode="&#x1e8a;" horiz-adv-x="613" d="M356 355 L594 0 L494 0 L307 288 L117 0 L16 0 L257 355 L18 709 L120 709 L307 420 L495 709 L596 709 L356 355 Z M306 762 Q283 762 266 778.5 Q249 795 249 819 Q249 843 266 859.5 Q283 876 306 876 Q329 876 346 859.5 Q363 843 363 819 Q363 795 346 778.5 Q329 762 306 762 Z " />
<glyph glyph-name="uni1E8B" unicode="&#x1e8b;" horiz-adv-x="494" d="M201 245 L26 479 L123 479 L248 303 L374 479 L468 479 L293 245 L476 0 L380 0 L247 185 L114 0 L18 0 L201 245 Z M193 613 Q193 636 209 652 Q225 668 248 668 Q271 668 287 652 Q303 636 303 613 Q303 590 287 574 Q271 558 248 558 Q225 558 209 574 Q193 590 193 613 Z " />
<glyph glyph-name="Ygrave" unicode="&#x1ef2;" horiz-adv-x="632" d="M25 709 L123 709 L316 380 L509 709 L607 709 L358 303 L358 0 L274 0 L274 303 L25 709 Z M153 878 L264 878 L368 759 L289 759 L153 878 Z " />
<glyph glyph-name="ygrave" unicode="&#x1ef3;" horiz-adv-x="523" d="M111 -190 L227 57 L21 479 L113 479 L271 140 L420 479 L507 479 L200 -190 L111 -190 Z M127 684 L229 684 L316 541 L250 541 L127 684 Z " />
<glyph glyph-name="uni2007" unicode="&#x2007;" horiz-adv-x="612" d="" />
<glyph glyph-name="uni2008" unicode="&#x2008;" horiz-adv-x="242" d="" />
<glyph glyph-name="uni200B" unicode="&#x200b;" d="" />
<glyph glyph-name="endash" unicode="&#x2013;" horiz-adv-x="643" d="M68 252 L68 322 L575 322 L575 252 L68 252 Z " />
<glyph glyph-name="emdash" unicode="&#x2014;" horiz-adv-x="1074" d="M68 252 L68 322 L1006 322 L1006 252 L68 252 Z " />
<glyph glyph-name="quoteleft" unicode="&#x2018;" horiz-adv-x="243" d="M183 520 Q183 496 165.5 478.5 Q148 461 121 461 Q94 461 73.5 481.5 Q53 502 53 544 Q53 586 65 617 Q77 648 96 669 Q115 690 138 701.5 Q161 713 183 716 L183 672 Q147 665 127 636 Q107 607 107 573 Q109 575 114 576.5 Q119 578 127 578 Q150 578 166.5 562.5 Q183 547 183 520 Z " />
<glyph glyph-name="quoteright" unicode="&#x2019;" horiz-adv-x="244" d="M67 658 Q67 682 84.5 699.5 Q102 717 129 717 Q156 717 176.5 696.5 Q197 676 197 634 Q197 592 185 561 Q173 530 154 509 Q135 488 112 476.5 Q89 465 67 462 L67 506 Q103 513 123 542 Q143 571 143 605 Q141 603 136 601.5 Q131 600 123 600 Q100 600 83.5 615.5 Q67 631 67 658 Z " />
<glyph glyph-name="quotesinglbase" unicode="&#x201a;" horiz-adv-x="249" d="M60 54 Q60 78 77.5 95.5 Q95 113 122 113 Q149 113 169.5 92.5 Q190 72 190 30 Q190 -12 178 -43 Q166 -74 147 -95 Q128 -116 105 -127.5 Q82 -139 60 -142 L60 -98 Q96 -91 116 -62 Q136 -33 136 1 Q134 -1 129 -2.5 Q124 -4 116 -4 Q93 -4 76.5 11.5 Q60 27 60 54 Z " />
<glyph glyph-name="quotedblleft" unicode="&#x201c;" horiz-adv-x="403" d="M183 520 Q183 496 165.5 478.5 Q148 461 121 461 Q94 461 73.5 481.5 Q53 502 53 544 Q53 586 65 617 Q77 648 96 669 Q115 690 138 701.5 Q161 713 183 716 L183 672 Q147 665 127 636 Q107 607 107 573 Q109 575 114 576.5 Q119 578 127 578 Q150 578 166.5 562.5 Q183 547 183 520 Z M343 520 Q343 496 325.5 478.5 Q308 461 281 461 Q254 461 233.5 481.5 Q213 502 213 544 Q213 586 225 617 Q237 648 256 669 Q275 690 298 701.5 Q321 713 343 716 L343 672 Q307 665 287 636 Q267 607 267 573 Q269 575 274 576.5 Q279 578 287 578 Q310 578 326.5 562.5 Q343 547 343 520 Z " />
<glyph glyph-name="quotedblright" unicode="&#x201d;" horiz-adv-x="404" d="M227 658 Q227 682 244.5 699.5 Q262 717 289 717 Q316 717 336.5 696.5 Q357 676 357 634 Q357 592 345 561 Q333 530 314 509 Q295 488 272 476.5 Q249 465 227 462 L227 506 Q263 513 283 542 Q303 571 303 605 Q301 603 296 601.5 Q291 600 283 600 Q260 600 243.5 615.5 Q227 631 227 658 Z M67 658 Q67 682 84.5 699.5 Q102 717 129 717 Q156 717 176.5 696.5 Q197 676 197 634 Q197 592 185 561 Q173 530 154 509 Q135 488 112 476.5 Q89 465 67 462 L67 506 Q103 513 123 542 Q143 571 143 605 Q141 603 136 601.5 Q131 600 123 600 Q100 600 83.5 615.5 Q67 631 67 658 Z " />
<glyph glyph-name="quotedblbase" unicode="&#x201e;" horiz-adv-x="409" d="M60 54 Q60 78 77.5 95.5 Q95 113 122 113 Q149 113 169.5 92.5 Q190 72 190 30 Q190 -12 178 -43 Q166 -74 147 -95 Q128 -116 105 -127.5 Q82 -139 60 -142 L60 -98 Q96 -91 116 -62 Q136 -33 136 1 Q134 -1 129 -2.5 Q124 -4 116 -4 Q93 -4 76.5 11.5 Q60 27 60 54 Z M220 54 Q220 78 237.5 95.5 Q255 113 282 113 Q309 113 329.5 92.5 Q350 72 350 30 Q350 -12 338 -43 Q326 -74 307 -95 Q288 -116 265 -127.5 Q242 -139 220 -142 L220 -98 Q256 -91 276 -62 Q296 -33 296 1 Q294 -1 289 -2.5 Q284 -4 276 -4 Q253 -4 236.5 11.5 Q220 27 220 54 Z " />
<glyph glyph-name="dagger" unicode="&#x2020;" horiz-adv-x="410" d="M170 162 L170 485 L39 485 L39 555 L170 555 L170 709 L240 709 L240 555 L371 555 L371 485 L240 485 L240 162 L170 162 Z " />
<glyph glyph-name="daggerdbl" unicode="&#x2021;" horiz-adv-x="450" d="M190 224 L190 485 L59 485 L59 555 L190 555 L190 709 L260 709 L260 555 L391 555 L391 485 L260 485 L260 224 L391 224 L391 154 L260 154 L260 0 L190 0 L190 154 L59 154 L59 224 L190 224 Z " />
<glyph glyph-name="bullet" unicode="&#x2022;" horiz-adv-x="560" d="M74 286 Q74 329 90 367 Q106 405 134 433 Q162 461 199.5 477 Q237 493 280 493 Q323 493 360.5 477 Q398 461 426 433 Q454 405 470 367 Q486 329 486 286 Q486 242 470 204.5 Q454 167 426 139 Q398 111 360.5 95 Q323 79 280 79 Q237 79 199.5 95 Q162 111 134 139 Q106 167 90 204.5 Q74 242 74 286 Z " />
<glyph glyph-name="ellipsis" unicode="&#x2026;" horiz-adv-x="747" d="M59 54 Q59 78 76 95 Q93 112 118 112 Q142 112 159 95 Q176 78 176 54 Q176 29 159 12 Q142 -5 118 -5 Q93 -5 76 12 Q59 29 59 54 Z M315 54 Q315 78 332 95 Q349 112 374 112 Q398 112 415 95 Q432 78 432 54 Q432 29 415 12 Q398 -5 374 -5 Q349 -5 332 12 Q315 29 315 54 Z M571 54 Q571 78 588 95 Q605 112 630 112 Q654 112 671 95 Q688 78 688 54 Q688 29 671 12 Q654 -5 630 -5 Q605 -5 588 12 Q571 29 571 54 Z " />
<glyph glyph-name="perthousand" unicode="&#x2030;" horiz-adv-x="1019" d="M499 148 Q499 110 524 84.5 Q549 59 585 59 Q622 59 647 84.5 Q672 110 672 148 Q672 186 647 211.5 Q622 237 585 237 Q549 237 524 211.5 Q499 186 499 148 Z M744 148 Q744 110 769 84.5 Q794 59 830 59 Q867 59 892 84.5 Q917 110 917 148 Q917 186 892 211.5 Q867 237 830 237 Q794 237 769 211.5 Q744 186 744 148 Z M429 148 Q429 181 441.5 209.5 Q454 238 475 259 Q496 280 524.5 292 Q553 304 585 304 Q624 304 656 286 Q688 268 708 238 Q728 268 759.5 286 Q791 304 830 304 Q862 304 891 292 Q920 280 941.5 259 Q963 238 975.5 209.5 Q988 181 988 148 Q988 115 975.5 86.5 Q963 58 941.5 37 Q920 16 891 4 Q862 -8 830 -8 Q791 -8 759.5 10 Q728 28 708 57 Q688 28 656 10 Q624 -8 585 -8 Q553 -8 524.5 4 Q496 16 475 37 Q454 58 441.5 86.5 Q429 115 429 148 Z M103 502 Q103 464 128 438.5 Q153 413 189 413 Q227 413 251.5 438.5 Q276 464 276 502 Q276 540 251.5 565.5 Q227 591 189 591 Q153 591 128 565.5 Q103 540 103 502 Z M33 502 Q33 535 45.5 563.5 Q58 592 79 613 Q100 634 128.5 646 Q157 658 189 658 Q221 658 250 646 Q279 634 300.5 613 Q322 592 334.5 563.5 Q347 535 347 502 Q347 469 334.5 440.5 Q322 412 300.5 391 Q279 370 250 358 Q221 346 189 346 Q157 346 128.5 358 Q100 370 79 391 Q58 412 45.5 440.5 Q33 469 33 502 Z M113 0 L582 648 L659 648 L192 0 L113 0 Z " />
<glyph glyph-name="guilsinglleft" unicode="&#x2039;" horiz-adv-x="307" d="M178 97 L45 288 L178 479 L257 479 L126 288 L257 97 L178 97 Z " />
<glyph glyph-name="guilsinglright" unicode="&#x203a;" horiz-adv-x="307" d="M50 97 L181 288 L50 479 L129 479 L262 288 L129 97 L50 97 Z " />
<glyph glyph-name="uni2042" unicode="&#x2042;" horiz-adv-x="828" d="M444 584 L561 624 L578 569 L461 529 L538 427 L491 392 L413 497 L339 393 L292 428 L367 529 L249 569 L267 624 L383 583 L383 709 L444 709 L444 584 Z M229 186 L346 226 L363 171 L246 131 L323 29 L276 -6 L198 99 L124 -5 L77 30 L152 131 L34 171 L52 226 L168 185 L168 311 L229 311 L229 186 Z M660 186 L777 226 L794 171 L677 131 L754 29 L707 -6 L629 99 L555 -5 L508 30 L583 131 L465 171 L483 226 L599 185 L599 311 L660 311 L660 186 Z " />
<glyph glyph-name="fraction" unicode="&#x2044;" horiz-adv-x="174" d="M-193 0 L276 648 L353 648 L-114 0 L-193 0 Z " />
<glyph glyph-name="uni2051" unicode="&#x2051;" horiz-adv-x="443" d="M252 584 L369 624 L386 569 L269 529 L346 427 L299 392 L221 497 L147 393 L100 428 L175 529 L57 569 L75 624 L191 583 L191 709 L252 709 L252 584 Z M252 186 L369 226 L386 171 L269 131 L346 29 L299 -6 L221 99 L147 -5 L100 30 L175 131 L57 171 L75 226 L191 185 L191 311 L252 311 L252 186 Z " />
<glyph glyph-name="uni2070" unicode="&#x2070;" horiz-adv-x="380" d="M107 526 Q107 504 110 480.5 Q113 457 122 438 Q131 419 147.5 407 Q164 395 190 395 Q217 395 233.5 407 Q250 419 259 438 Q268 457 271 480.5 Q274 504 274 526 Q274 548 271 571.5 Q268 595 259 614.5 Q250 634 233.5 646 Q217 658 190 658 Q164 658 147.5 646 Q131 634 122 614.5 Q113 595 110 571.5 Q107 548 107 526 Z M39 526 Q39 562 47 597 Q55 632 75 659 Q92 682 119 698.5 Q146 715 190 715 Q235 715 262 698.5 Q289 682 306 659 Q326 632 333.5 597 Q341 562 341 526 Q341 491 333.5 456.5 Q326 422 306 394 Q289 371 262 354.5 Q235 338 190 338 Q146 338 119 354.5 Q92 371 75 394 Q55 422 47 456.5 Q39 491 39 526 Z " />
<glyph glyph-name="uni2074" unicode="&#x2074;" horiz-adv-x="375" d="M27 485 L205 709 L281 709 L281 477 L347 477 L347 421 L281 421 L281 345 L214 345 L214 421 L27 421 L27 485 Z M214 633 L91 477 L214 477 L214 633 Z " />
<glyph glyph-name="uni2075" unicode="&#x2075;" horiz-adv-x="344" d="M87 458 Q93 429 114.5 411.5 Q136 394 167 394 Q199 394 220.5 412 Q242 430 242 462 Q242 496 220.5 514 Q199 532 167 532 Q145 532 128 524 Q111 516 97 502 L41 523 L90 709 L291 709 L291 653 L134 653 L108 554 Q122 570 143 577 Q164 584 185 584 Q241 584 275 551.5 Q309 519 309 465 Q309 439 299.5 415.5 Q290 392 272 375 Q254 358 227.5 348 Q201 338 167 338 Q140 338 116.5 346 Q93 354 75 367 Q57 380 45 397.5 Q33 415 29 433 L87 458 Z " />
<glyph glyph-name="uni2076" unicode="&#x2076;" horiz-adv-x="365" d="M300 646 Q285 654 268.5 657.5 Q252 661 235 661 Q180 661 146 629 Q112 597 105 540 Q116 562 143 576 Q170 590 202 590 Q259 590 295 557.5 Q331 525 331 465 Q331 436 320 413 Q309 390 289.5 373 Q270 356 243.5 347 Q217 338 187 338 Q158 338 131.5 348.5 Q105 359 84 379.5 Q63 400 50.5 431.5 Q38 463 38 505 Q38 554 53 593.5 Q68 633 93.5 660 Q119 687 154 701.5 Q189 716 230 716 Q255 716 277.5 711 Q300 706 315 697 L300 646 Z M112 465 Q112 431 135.5 412.5 Q159 394 188 394 Q217 394 240.5 412.5 Q264 431 264 465 Q264 498 240.5 516.5 Q217 535 188 535 Q159 535 135.5 516.5 Q112 498 112 465 Z " />
<glyph glyph-name="uni2077" unicode="&#x2077;" horiz-adv-x="336" d="M316 649 Q299 635 274.5 611.5 Q250 588 226.5 551.5 Q203 515 183.5 464 Q164 413 157 345 L87 345 Q94 417 115 472 Q136 527 160 565.5 Q184 604 205 626 Q226 648 232 653 L24 653 L24 709 L316 709 L316 649 Z " />
<glyph glyph-name="uni2078" unicode="&#x2078;" horiz-adv-x="360" d="M180 558 Q210 558 227.5 572.5 Q245 587 245 611 Q245 633 228 647.5 Q211 662 180 662 Q149 662 132 647.5 Q115 633 115 611 Q115 587 133 572.5 Q151 558 180 558 Z M180 393 Q217 393 236 409 Q255 425 255 449 Q255 474 235.5 489.5 Q216 505 180 505 Q145 505 125.5 489.5 Q106 474 106 449 Q106 425 125 409 Q144 393 180 393 Z M180 338 Q112 338 75 368.5 Q38 399 38 444 Q38 473 57 497 Q76 521 109 532 Q81 542 65.5 564.5 Q50 587 50 613 Q50 658 86.5 687 Q123 716 180 716 Q237 716 274 687 Q311 658 311 613 Q311 587 295 564.5 Q279 542 251 532 Q284 521 303 497 Q322 473 322 444 Q322 399 285.5 368.5 Q249 338 180 338 Z " />
<glyph glyph-name="uni2079" unicode="&#x2079;" horiz-adv-x="364" d="M66 410 Q96 395 132 395 Q185 395 220 424 Q255 453 260 516 Q248 493 221 479 Q194 465 164 465 Q108 465 71 498.5 Q34 532 34 590 Q34 618 45 641.5 Q56 665 75.5 681.5 Q95 698 121.5 707.5 Q148 717 178 717 Q207 717 233.5 706.5 Q260 696 280.5 675.5 Q301 655 313 623.5 Q325 592 325 550 Q325 450 274 394 Q223 338 137 338 Q112 338 88.5 343.5 Q65 349 50 358 L66 410 Z M251 590 Q251 623 228 642 Q205 661 175 661 Q145 661 122.5 642 Q100 623 100 590 Q100 557 122.5 538 Q145 519 175 519 Q206 519 228.5 538 Q251 557 251 590 Z " />
<glyph glyph-name="uni2080" unicode="&#x2080;" horiz-adv-x="384" d="M109 105 Q109 83 112 59.5 Q115 36 124 17 Q133 -2 149.5 -14 Q166 -26 192 -26 Q219 -26 235.5 -14 Q252 -2 261 17 Q270 36 273 59.5 Q276 83 276 105 Q276 127 273 150.5 Q270 174 261 193.5 Q252 213 235.5 225 Q219 237 192 237 Q166 237 149.5 225 Q133 213 124 193.5 Q115 174 112 150.5 Q109 127 109 105 Z M41 105 Q41 141 49 176 Q57 211 77 238 Q94 261 121 277.5 Q148 294 192 294 Q237 294 264 277.5 Q291 261 308 238 Q328 211 335.5 176 Q343 141 343 105 Q343 70 335.5 35.5 Q328 1 308 -27 Q291 -50 264 -66.5 Q237 -83 192 -83 Q148 -83 121 -66.5 Q94 -50 77 -27 Q57 1 49 35.5 Q41 70 41 105 Z " />
<glyph glyph-name="uni2081" unicode="&#x2081;" horiz-adv-x="230" d="M111 -76 L111 179 L25 179 L25 217 Q62 220 86 240.5 Q110 261 115 288 L177 288 L177 -76 L111 -76 Z " />
<glyph glyph-name="uni2082" unicode="&#x2082;" horiz-adv-x="349" d="M47 151 Q45 158 44.5 166 Q44 174 44 179 Q44 203 53 223.5 Q62 244 79 260 Q96 276 120.5 285 Q145 294 175 294 Q205 294 228.5 285 Q252 276 268.5 260.5 Q285 245 294 224.5 Q303 204 303 182 Q303 147 283.5 119.5 Q264 92 232 72 L160 27 Q146 18 135.5 6 Q125 -6 123 -20 L306 -20 L306 -76 L42 -76 L42 -67 Q42 -24 61.5 12 Q81 48 124 74 L188 114 Q211 128 223.5 145 Q236 162 236 183 Q236 205 219.5 222 Q203 239 174 239 Q145 239 126.5 221.5 Q108 204 108 174 Q108 171 108.5 163.5 Q109 156 111 150 L47 151 Z " />
<glyph glyph-name="uni2083" unicode="&#x2083;" horiz-adv-x="362" d="M123 143 L227 233 L45 233 L45 289 L312 289 L312 234 L206 144 Q210 145 213.5 145 Q217 145 220 145 Q239 145 257 137.5 Q275 130 289 116 Q303 102 311.5 82 Q320 62 320 36 Q320 12 310 -10 Q300 -32 281 -48 Q262 -64 236 -73.5 Q210 -83 178 -83 Q146 -83 121 -74.5 Q96 -66 77.5 -51.5 Q59 -37 48 -18 Q37 1 33 21 L91 44 Q96 12 120 -7.5 Q144 -27 177 -27 Q211 -27 232 -8.5 Q253 10 253 36 Q253 70 230 84 Q207 98 178 98 Q170 98 162.5 97 Q155 96 149 94 L123 143 Z " />
<glyph glyph-name="uni2084" unicode="&#x2084;" horiz-adv-x="378" d="M29 64 L207 288 L283 288 L283 56 L349 56 L349 0 L283 0 L283 -76 L216 -76 L216 0 L29 0 L29 64 Z M216 212 L93 56 L216 56 L216 212 Z " />
<glyph glyph-name="uni2085" unicode="&#x2085;" horiz-adv-x="346" d="M88 37 Q94 8 115.5 -9.5 Q137 -27 168 -27 Q200 -27 221.5 -9 Q243 9 243 41 Q243 75 221.5 93 Q200 111 168 111 Q146 111 129 103 Q112 95 98 81 L42 102 L91 288 L292 288 L292 232 L135 232 L109 133 Q123 149 144 156 Q165 163 186 163 Q242 163 276 130.5 Q310 98 310 44 Q310 18 300.5 -5.5 Q291 -29 273 -46 Q255 -63 228.5 -73 Q202 -83 168 -83 Q141 -83 117.5 -75 Q94 -67 76 -54 Q58 -41 46 -23.5 Q34 -6 30 12 L88 37 Z " />
<glyph glyph-name="uni2086" unicode="&#x2086;" horiz-adv-x="368" d="M302 225 Q287 233 270.5 236.5 Q254 240 237 240 Q182 240 148 208 Q114 176 107 119 Q118 141 145 155 Q172 169 204 169 Q261 169 297 136.5 Q333 104 333 44 Q333 15 322 -8 Q311 -31 291.5 -48 Q272 -65 245.5 -74 Q219 -83 189 -83 Q160 -83 133.5 -72.5 Q107 -62 86 -41.5 Q65 -21 52.5 10.5 Q40 42 40 84 Q40 133 55 172.5 Q70 212 95.5 239 Q121 266 156 280.5 Q191 295 232 295 Q257 295 279.5 290 Q302 285 317 276 L302 225 Z M114 44 Q114 10 137.5 -8.5 Q161 -27 190 -27 Q219 -27 242.5 -8.5 Q266 10 266 44 Q266 77 242.5 95.5 Q219 114 190 114 Q161 114 137.5 95.5 Q114 77 114 44 Z " />
<glyph glyph-name="uni2087" unicode="&#x2087;" horiz-adv-x="338" d="M317 228 Q300 214 275.5 190.5 Q251 167 227.5 130.5 Q204 94 184.5 43 Q165 -8 158 -76 L88 -76 Q95 -4 116 51 Q137 106 161 144.5 Q185 183 206 205 Q227 227 233 232 L25 232 L25 288 L317 288 L317 228 Z " />
<glyph glyph-name="uni2088" unicode="&#x2088;" horiz-adv-x="364" d="M182 137 Q212 137 229.5 151.5 Q247 166 247 190 Q247 212 230 226.5 Q213 241 182 241 Q151 241 134 226.5 Q117 212 117 190 Q117 166 135 151.5 Q153 137 182 137 Z M182 -28 Q219 -28 238 -12 Q257 4 257 28 Q257 53 237.5 68.5 Q218 84 182 84 Q147 84 127.5 68.5 Q108 53 108 28 Q108 4 127 -12 Q146 -28 182 -28 Z M182 -83 Q114 -83 77 -52.5 Q40 -22 40 23 Q40 52 59 76 Q78 100 111 111 Q83 121 67.5 143.5 Q52 166 52 192 Q52 237 88.5 266 Q125 295 182 295 Q239 295 276 266 Q313 237 313 192 Q313 166 297 143.5 Q281 121 253 111 Q286 100 305 76 Q324 52 324 23 Q324 -22 287.5 -52.5 Q251 -83 182 -83 Z " />
<glyph glyph-name="uni2089" unicode="&#x2089;" horiz-adv-x="367" d="M68 -11 Q98 -26 134 -26 Q187 -26 222 3 Q257 32 262 95 Q250 72 223 58 Q196 44 166 44 Q110 44 73 77.5 Q36 111 36 169 Q36 197 47 220.5 Q58 244 77.5 260.5 Q97 277 123.5 286.5 Q150 296 180 296 Q209 296 235.5 285.5 Q262 275 282.5 254.5 Q303 234 315 202.5 Q327 171 327 129 Q327 29 276 -27 Q225 -83 139 -83 Q114 -83 90.5 -77.5 Q67 -72 52 -63 L68 -11 Z M253 169 Q253 202 230 221 Q207 240 177 240 Q147 240 124.5 221 Q102 202 102 169 Q102 136 124.5 117 Q147 98 177 98 Q208 98 230.5 117 Q253 136 253 169 Z " />
<glyph glyph-name="Euro" unicode="&#x20ac;" horiz-adv-x="679" d="M125 279 Q124 288 123.5 301 Q123 314 123 325 Q123 336 123.5 347 Q124 358 125 367 L45 367 L45 433 L138 433 Q154 491 187.5 534 Q221 577 263.5 605.5 Q306 634 354.5 648 Q403 662 450 662 Q553 662 620 616 L586 551 Q558 571 523.5 579.5 Q489 588 450 588 Q416 588 381.5 578.5 Q347 569 316.5 550 Q286 531 261.5 501.5 Q237 472 224 433 L530 433 L497 367 L208 367 Q205 347 205 325 Q205 295 208 279 L456 279 L422 213 L226 213 Q239 174 262.5 145.5 Q286 117 315 98 Q344 79 378 69.5 Q412 60 447 60 Q495 60 535 74 Q575 88 604 116 L645 56 Q608 24 558 5 Q508 -14 447 -14 Q399 -14 351.5 0 Q304 14 262.5 42.5 Q221 71 188.5 113.5 Q156 156 139 213 L45 213 L45 279 L125 279 Z " />
<glyph glyph-name="uni2113" unicode="&#x2113;" horiz-adv-x="395" d="M39 260 Q48 262 67.5 269 Q87 276 108 286 L108 507 Q108 581 143 621.5 Q178 662 234 662 Q296 662 328.5 623.5 Q361 585 361 518 Q361 437 314.5 364 Q268 291 188 242 L188 150 Q188 108 207.5 88.5 Q227 69 257 69 Q309 69 344 96 L344 23 Q336 15 314.5 5 Q293 -5 254 -5 Q180 -5 144 37 Q108 79 108 146 L108 205 Q91 199 74 194 Q57 189 39 185 L39 260 Z M281 518 Q281 552 271 570.5 Q261 589 237 589 Q215 589 201.5 571 Q188 553 188 508 L188 336 Q226 368 253.5 412 Q281 456 281 518 Z " />
<glyph glyph-name="trademark" unicode="&#x2122;" horiz-adv-x="867" d="M218 651 L218 349 L153 349 L153 651 L39 651 L39 709 L332 709 L332 651 L218 651 Z M722 349 L722 597 L613 349 L561 349 L455 594 L455 349 L390 349 L390 709 L474 709 L589 442 L704 709 L787 709 L787 349 L722 349 Z " />
<glyph glyph-name="Omega" unicode="&#x2126;" horiz-adv-x="824" d="M412 648 Q362 648 314 630.5 Q266 613 228 579 Q190 545 167 495.5 Q144 446 144 383 Q144 326 163.5 279.5 Q183 233 214.5 198.5 Q246 164 286 142 Q326 120 367 112 L367 0 L66 0 L66 74 L276 74 Q235 88 196 116 Q157 144 126.5 183 Q96 222 77.5 272.5 Q59 323 59 382 Q59 461 88 524.5 Q117 588 166 632 Q215 676 279 699.5 Q343 723 412 723 Q481 723 545 699.5 Q609 676 658 632 Q707 588 736 524.5 Q765 461 765 382 Q765 323 746.5 272.5 Q728 222 697.5 183 Q667 144 628 116 Q589 88 547 74 L758 74 L758 0 L457 0 L457 112 Q498 120 538 142 Q578 164 609.5 198.5 Q641 233 660.5 279.5 Q680 326 680 383 Q680 446 657 495.5 Q634 545 596 579 Q558 613 510 630.5 Q462 648 412 648 Z " />
<glyph glyph-name="uni2160" unicode="&#x2160;" horiz-adv-x="489" d="M441 573 L286 573 L286 75 L441 75 L441 0 L48 0 L48 75 L203 75 L203 573 L48 573 L48 648 L441 648 L441 573 Z " />
<glyph glyph-name="uni2161" unicode="&#x2161;" horiz-adv-x="752" d="M704 0 L48 0 L48 75 L195 75 L195 573 L48 573 L48 648 L704 648 L704 573 L557 573 L557 75 L704 75 L704 0 Z M474 573 L277 573 L277 75 L474 75 L474 573 Z " />
<glyph glyph-name="uni2162" unicode="&#x2162;" horiz-adv-x="1024" d="M976 0 L48 0 L48 75 L195 75 L195 573 L48 573 L48 648 L976 648 L976 573 L829 573 L829 75 L976 75 L976 0 Z M746 573 L554 573 L554 75 L746 75 L746 573 Z M278 75 L471 75 L471 573 L278 573 L278 75 Z " />
<glyph glyph-name="uni2163" unicode="&#x2163;" horiz-adv-x="988" d="M940 0 L48 0 L48 75 L186 75 L186 573 L48 573 L48 648 L939 648 L939 573 L824 573 L653 75 L940 75 L940 0 Z M269 75 L523 75 L354 573 L269 573 L269 75 Z M740 573 L441 573 L590 119 L740 573 Z " />
<glyph glyph-name="uni2164" unicode="&#x2164;" horiz-adv-x="782" d="M735 573 L625 573 L453 75 L731 75 L731 0 L51 0 L51 75 L324 75 L155 573 L46 573 L46 648 L735 648 L735 573 Z M541 573 L242 573 L391 119 L541 573 Z " />
<glyph glyph-name="uni2165" unicode="&#x2165;" horiz-adv-x="988" d="M941 0 L49 0 L49 75 L332 75 L163 573 L49 573 L49 648 L940 648 L940 573 L806 573 L806 75 L941 75 L941 0 Z M461 75 L723 75 L723 573 L633 573 L461 75 Z M549 573 L250 573 L399 119 L549 573 Z " />
<glyph glyph-name="uni2166" unicode="&#x2166;" horiz-adv-x="1276" d="M1228 0 L49 0 L49 75 L331 75 L163 573 L49 573 L49 648 L1228 648 L1228 573 L1081 573 L1081 75 L1228 75 L1228 0 Z M998 573 L805 573 L805 75 L998 75 L998 573 Z M461 75 L722 75 L722 573 L632 573 L461 75 Z M548 573 L250 573 L398 119 L548 573 Z " />
<glyph glyph-name="uni2167" unicode="&#x2167;" horiz-adv-x="1525" d="M1477 0 L49 0 L49 75 L328 75 L163 573 L49 573 L49 648 L1477 648 L1477 573 L1334 573 L1334 75 L1477 75 L1477 0 Z M800 75 L985 75 L985 573 L800 573 L800 75 Z M1067 75 L1251 75 L1251 573 L1067 573 L1067 75 Z M456 75 L717 75 L717 573 L626 573 L456 75 Z M540 573 L250 573 L395 119 L540 573 Z " />
<glyph glyph-name="uni2168" unicode="&#x2168;" horiz-adv-x="958" d="M910 0 L48 0 L48 75 L185 75 L185 573 L48 573 L48 648 L909 648 L909 573 L805 573 L627 318 L798 75 L910 75 L910 0 Z M356 573 L268 573 L268 75 L361 75 L536 318 L356 573 Z M581 382 L712 573 L450 573 L581 382 Z M453 75 L704 75 L580 255 L453 75 Z " />
<glyph glyph-name="uni2169" unicode="&#x2169;" horiz-adv-x="750" d="M701 573 L599 573 L420 317 L591 75 L702 75 L702 0 L49 0 L49 75 L155 75 L329 317 L149 573 L49 573 L49 648 L701 648 L701 573 Z M374 381 L506 573 L242 573 L374 381 Z M247 75 L497 75 L373 254 L247 75 Z " />
<glyph glyph-name="uni216C" unicode="&#x216c;" horiz-adv-x="629" d="M588 0 L48 0 L48 75 L182 75 L182 573 L48 573 L48 648 L410 648 L410 573 L265 573 L265 75 L506 75 L506 279 L588 279 L588 0 Z " />
<glyph glyph-name="uni216D" unicode="&#x216d;" horiz-adv-x="718" d="M648 0 L566 0 L566 78 Q537 37 489.5 11.5 Q442 -14 368 -14 Q307 -14 249.5 8.5 Q192 31 147.5 74 Q103 117 76 180 Q49 243 49 324 Q49 406 76 469 Q103 532 147.5 575 Q192 618 249.5 640 Q307 662 367 662 Q440 662 487 637.5 Q534 613 564 574 L564 648 L645 648 L645 427 L564 427 Q554 499 505 543 Q456 587 367 587 Q319 587 276.5 571 Q234 555 201.5 522 Q169 489 150 439.5 Q131 390 131 324 Q131 257 150 207.5 Q169 158 201 125.5 Q233 93 276 77 Q319 61 367 61 Q416 61 452.5 75.5 Q489 90 513 113 Q537 136 550 165.5 Q563 195 566 225 L648 225 L648 0 Z " />
<glyph glyph-name="uni216E" unicode="&#x216e;" horiz-adv-x="716" d="M361 648 Q421 648 476 627.5 Q531 607 573 566 Q615 525 640 464 Q665 403 665 323 Q665 243 640 183 Q615 123 572 82 Q529 41 473 20.5 Q417 0 355 0 L48 0 L48 75 L187 75 L187 573 L48 573 L48 648 L361 648 Z M357 75 Q400 75 440.5 90 Q481 105 512.5 135.5 Q544 166 563 213 Q582 260 582 323 Q582 385 564 431.5 Q546 478 515 509.5 Q484 541 443 557 Q402 573 356 573 L270 573 L270 75 L357 75 Z " />
<glyph glyph-name="uni216F" unicode="&#x216f;" horiz-adv-x="1050" d="M522 113 L749 648 L1002 648 L1002 573 L871 573 L871 75 L1003 75 L1003 0 L682 0 L682 75 L788 75 L788 536 L555 0 L489 0 L257 536 L257 75 L369 75 L369 0 L48 0 L48 75 L174 75 L174 573 L48 573 L48 648 L296 648 L522 113 Z " />
<glyph glyph-name="arrowleft" unicode="&#x2190;" horiz-adv-x="1034" d="M42 288 L275 484 L275 323 L973 323 L973 252 L275 252 L275 93 L42 288 Z " />
<glyph glyph-name="arrowup" unicode="&#x2191;" horiz-adv-x="438" d="M406 570 L254 570 L254 -147 L184 -147 L184 570 L32 570 L219 798 L406 570 Z " />
<glyph glyph-name="arrowright" unicode="&#x2192;" horiz-adv-x="1034" d="M759 93 L759 252 L61 252 L61 323 L759 323 L759 484 L992 288 L759 93 Z " />
<glyph glyph-name="arrowdown" unicode="&#x2193;" horiz-adv-x="451" d="M225 -160 L30 73 L189 73 L189 785 L260 785 L260 73 L421 73 L225 -160 Z " />
<glyph glyph-name="uni2196" unicode="&#x2196;" horiz-adv-x="800" d="M331 709 L219 596 L774 42 L724 -8 L169 546 L56 432 L56 709 L331 709 Z " />
<glyph glyph-name="uni2197" unicode="&#x2197;" horiz-adv-x="801" d="M745 709 L745 432 L631 546 L76 -8 L26 42 L582 596 L470 709 L745 709 Z " />
<glyph glyph-name="uni2198" unicode="&#x2198;" horiz-adv-x="801" d="M472 0 L583 113 L28 667 L78 717 L633 162 L746 277 L746 0 L472 0 Z " />
<glyph glyph-name="uni2199" unicode="&#x2199;" horiz-adv-x="802" d="M55 0 L55 277 L168 162 L724 717 L774 667 L218 113 L330 0 L55 0 Z " />
<glyph glyph-name="uni21A9" unicode="&#x21a9;" horiz-adv-x="870" d="M431 660 L614 660 Q657 660 695.5 644.5 Q734 629 762.5 601.5 Q791 574 808 536.5 Q825 499 825 456 Q825 410 807 372.5 Q789 335 759.5 308 Q730 281 691 266.5 Q652 252 610 252 L242 252 L242 111 L32 287 L242 464 L242 323 L606 323 Q635 323 662 332 Q689 341 709.5 358 Q730 375 742.5 399.5 Q755 424 755 456 Q755 487 743 511.5 Q731 536 710.5 553 Q690 570 663 579.5 Q636 589 605 589 L431 589 L431 660 Z " />
<glyph glyph-name="uni21B0" unicode="&#x21b0;" horiz-adv-x="731" d="M26 547 L236 723 L236 582 L652 582 L652 0 L581 0 L581 512 L236 512 L236 370 L26 547 Z " />
<glyph glyph-name="uni21B1" unicode="&#x21b1;" horiz-adv-x="768" d="M79 0 L79 582 L532 582 L532 723 L742 547 L532 370 L532 512 L150 512 L150 0 L79 0 Z " />
</font>
</svg>
