<?xml version="1.0" encoding="UTF-8"?>
<svg xmlns="http://www.w3.org/2000/svg" xmlns:xlink="http://www.w3.org/1999/xlink" version="1.2" >
<font id="Bembo Infant MT Std Bold It">
<font-face  font-family="Bembo Infant MT Std" units-per-em="1000" ascent="672" descent="-328" font-style="italic" font-weight="700" font-stretch="normal" slope="-11.5" cap-height="622" x-height="419" underline-position="-100" underline-thickness="50" />
<missing-glyph  horiz-adv-x="500" d="M12 665 L12 0 L487 0 L487 665 L12 665 Z M88 618 L411 618 L250 375 L88 618 Z M60 575 L221 333 C194 294 161 244 122 184 C83 125 63 94 60 91 L60 575 Z M440 90 L278 333 L440 575 L440 90 Z M411 48 L88 48 L250 290 L411 48 Z " />
<glyph glyph-name=".null" d="" />
<glyph glyph-name="CR" unicode="&#xd;" horiz-adv-x="278" d="" />
<glyph glyph-name="space" unicode="&#x20;" horiz-adv-x="278" d="" />
<glyph glyph-name="exclam" unicode="&#x21;" horiz-adv-x="323" d="M230 636 C199 636 193 618 191 595 L153 173 L187 173 L325 574 C329 586 332 598 332 605 C332 629 315 636 286 636 L230 636 Z M213 67 C213 106 190 132 153 132 C112 132 80 95 80 55 C80 12 111 -11 141 -11 C184 -11 213 24 213 67 L213 67 Z " />
<glyph glyph-name="quotedbl" unicode="&#x22;" horiz-adv-x="552" d="M283 561 C283 604 252 636 211 636 C170 636 139 604 139 561 C139 550 139 535 150 494 L199 311 L223 311 L272 494 C283 535 283 549 283 561 L283 561 Z M519 561 C519 604 488 636 447 636 C406 636 375 604 375 561 C375 550 375 535 386 494 L435 311 L459 311 L508 494 C519 535 519 549 519 561 L519 561 Z " />
<glyph glyph-name="numbersign" unicode="&#x23;" horiz-adv-x="668" d="M276 664 L234 470 L77 470 L77 400 L220 400 L184 229 L77 229 L77 159 L170 159 L129 -34 L199 -34 L240 159 L436 159 L395 -34 L465 -34 L506 159 L661 159 L661 229 L520 229 L556 400 L661 400 L661 470 L569 470 L610 664 L540 664 L499 470 L304 470 L346 664 L276 664 Z M290 400 L486 400 L450 229 L254 229 L290 400 Z " />
<glyph glyph-name="dollar" unicode="&#x24;" horiz-adv-x="469" d="M319 627 C204 627 137 544 137 451 C137 377 162 336 244 256 L196 21 C159 32 154 44 154 74 C154 81 155 90 155 99 C155 134 132 155 104 155 C73 155 55 133 55 98 C55 39 104 -2 189 -14 L171 -101 L206 -101 L224 -14 C348 -12 427 59 427 158 C427 229 390 282 301 366 L347 591 C375 578 386 558 386 535 C386 526 382 510 382 499 C382 470 401 449 428 449 C457 449 477 475 477 512 C477 573 429 618 354 627 L364 672 L329 672 L319 627 Z M272 395 C240 430 225 462 225 494 C225 545 265 590 313 596 L272 395 Z M273 226 C309 182 323 154 323 119 C323 67 287 28 231 20 L273 226 Z " />
<glyph glyph-name="percent" unicode="&#x25;" horiz-adv-x="844" d="M632 672 L226 -29 L291 -29 L697 672 L632 672 Z M357 517 C357 590 320 636 262 636 C169 636 96 508 96 414 C96 346 136 298 192 298 C275 298 357 407 357 517 L357 517 Z M195 323 C182 323 175 337 175 362 C175 412 216 611 257 611 C272 611 279 598 279 573 C279 525 237 323 195 323 L195 323 Z M818 212 C818 285 781 331 723 331 C630 331 557 203 557 109 C557 41 597 -7 653 -7 C735 -7 818 102 818 212 L818 212 Z M656 18 C643 18 636 32 636 57 C636 107 677 306 718 306 C733 306 740 293 740 268 C740 237 720 129 695 67 C683 36 668 18 656 18 L656 18 Z " />
<glyph glyph-name="ampersand" unicode="&#x26;" horiz-adv-x="729" d="M583 531 C583 586 520 636 400 636 C270 636 147 563 147 467 C147 416 178 367 254 362 L254 360 C137 340 65 273 65 181 C65 66 171 -14 344 -14 C441 -14 517 12 571 54 C620 92 649 144 649 195 C649 219 642 239 624 264 C711 276 770 326 770 387 C770 418 749 439 721 439 C696 439 679 423 679 396 C679 384 684 374 692 368 C699 363 706 356 706 349 C706 340 696 332 684 332 C675 332 596 347 563 347 C468 347 395 295 395 228 C395 196 423 167 454 167 C474 167 492 182 492 201 C492 220 483 225 470 232 C459 238 448 240 448 251 C448 264 467 279 504 279 C564 279 606 243 606 187 C606 110 498 43 387 43 C274 43 206 101 206 202 C206 282 245 331 311 331 C328 331 339 328 356 328 C376 328 387 340 387 357 C387 373 375 385 360 385 C352 385 342 382 334 382 C295 382 279 400 279 445 C279 529 325 592 401 592 C468 592 465 556 473 525 C477 511 484 499 493 491 C503 482 521 477 530 477 C559 477 583 504 583 531 L583 531 Z " />
<glyph glyph-name="quotesingle" unicode="&#x27;" horiz-adv-x="281" d="M266 561 C266 604 235 636 194 636 C153 636 122 604 122 561 C122 550 122 535 133 494 L182 311 L206 311 L255 494 C266 535 266 552 266 561 L266 561 Z " />
<glyph glyph-name="parenleft" unicode="&#x28;" horiz-adv-x="292" d="M378 672 C303 622 241 567 194 507 C113 404 72 287 72 156 C72 32 121 -122 195 -230 L225 -214 C189 -141 170 -57 170 38 C170 175 203 350 266 476 C303 549 349 608 406 645 L378 672 Z " />
<glyph glyph-name="parenright" unicode="&#x29;" horiz-adv-x="292" d="M-42 -230 C33 -180 95 -125 142 -65 C223 38 264 155 264 286 C264 410 215 564 141 672 L111 656 C147 583 166 499 166 404 C166 267 133 92 70 -34 C33 -107 -13 -166 -70 -203 L-42 -230 Z " />
<glyph glyph-name="asterisk" unicode="&#x2a;" horiz-adv-x="521" d="M267 492 L113 537 L94 502 L212 398 L119 267 L147 240 L284 320 L381 192 L416 206 L384 363 L535 414 L531 452 L370 471 L367 629 L331 636 L267 492 Z " />
<glyph glyph-name="plus" unicode="&#x2b;" horiz-adv-x="667" d="M320 593 L320 364 L91 364 L91 288 L320 288 L320 59 L396 59 L396 288 L625 288 L625 364 L396 364 L396 593 L320 593 Z " />
<glyph glyph-name="comma" unicode="&#x2c;" horiz-adv-x="323" d="M212 39 C212 95 179 134 136 134 C101 134 72 109 72 74 C72 41 90 27 101 9 C111 -7 114 -21 114 -39 C114 -83 73 -122 13 -136 L28 -165 C129 -143 212 -50 212 39 L212 39 Z " />
<glyph glyph-name="hyphen" unicode="&#x2d;" horiz-adv-x="417" d="M53 253 L33 153 L379 153 L399 253 L53 253 Z " />
<glyph glyph-name="period" unicode="&#x2e;" horiz-adv-x="323" d="M212 67 C212 106 189 132 152 132 C111 132 79 95 79 55 C79 12 109 -11 140 -11 C183 -11 212 24 212 67 L212 67 Z " />
<glyph glyph-name="slash" unicode="&#x2f;" horiz-adv-x="531" d="M440 636 L83 -18 L164 -18 L521 636 L440 636 Z " />
<glyph glyph-name="zero" unicode="0" horiz-adv-x="469" d="M480 410 C480 550 420 636 329 636 C272 636 226 604 182 553 C106 466 59 325 59 206 C59 80 120 -14 210 -14 C343 -14 480 195 480 410 L480 410 Z M216 24 C188 24 172 55 172 108 C172 149 189 246 217 384 C229 443 243 493 258 528 C278 574 299 598 325 598 C353 598 369 568 369 519 C369 460 354 365 322 229 C290 94 258 24 216 24 L216 24 Z " />
<glyph glyph-name="one" unicode="1" horiz-adv-x="469" d="M357 636 C310 565 220 503 118 455 L109 411 C174 442 219 464 263 495 L192 146 C177 71 158 34 105 33 L91 33 L85 0 L366 0 L372 33 C325 36 302 48 302 85 C302 93 303 102 305 112 L411 636 L357 636 Z " />
<glyph glyph-name="two" unicode="2" horiz-adv-x="469" d="M461 495 C461 578 391 636 307 636 C215 636 130 569 115 469 L149 469 C169 530 215 570 263 570 C304 570 330 546 330 497 C330 390 231 248 16 33 L16 0 L367 0 L400 162 L366 162 C357 121 338 112 301 112 L142 112 C180 146 243 203 330 284 C417 365 461 436 461 495 L461 495 Z " />
<glyph glyph-name="three" unicode="3" horiz-adv-x="469" d="M449 543 C449 599 400 636 332 636 C263 636 211 605 162 544 L187 521 C224 560 259 575 282 575 C310 575 332 554 332 523 C332 490 305 450 244 402 L185 356 L176 310 C196 325 221 333 234 333 C268 333 289 302 289 250 C289 201 280 148 260 105 C240 62 216 41 192 41 C177 41 162 49 139 68 C117 86 97 98 83 98 C52 98 36 68 36 33 C36 1 61 -14 112 -14 C182 -14 260 19 323 83 C387 147 416 222 416 279 C416 344 375 399 308 399 L299 399 L297 401 C403 446 449 482 449 543 L449 543 Z " />
<glyph glyph-name="four" unicode="4" horiz-adv-x="469" d="M68 254 L49 159 L235 159 L200 -14 L313 -14 L348 159 L451 159 L469 247 L366 247 L445 636 L399 636 L68 254 Z M296 470 L298 468 L253 247 L107 247 L296 470 Z " />
<glyph glyph-name="five" unicode="5" horiz-adv-x="469" d="M461 644 C455 621 443 613 401 613 C372 613 342 614 313 614 C281 614 255 613 240 609 L155 305 L176 284 C204 303 218 309 238 309 C279 309 306 277 306 228 C306 201 296 154 273 109 C250 64 224 41 198 41 C181 41 165 49 142 68 C119 87 100 98 80 98 C56 98 38 73 38 38 C38 1 59 -14 112 -14 C183 -14 260 16 319 78 C379 140 409 214 409 278 C409 361 356 415 279 415 C259 415 240 412 220 404 L247 501 C263 507 289 507 299 507 C388 503 397 502 407 502 C425 502 448 503 468 508 L496 644 L461 644 Z " />
<glyph glyph-name="six" unicode="6" horiz-adv-x="469" d="M508 636 C382 611 277 552 193 463 C107 371 66 260 66 166 C66 53 119 -14 209 -14 C333 -14 441 106 441 224 C441 304 392 358 320 358 C292 358 270 351 243 336 C294 464 369 547 500 600 L508 636 Z M222 283 C246 301 263 309 280 309 C304 309 320 290 320 263 C320 246 309 187 286 122 C263 57 239 24 216 24 C191 24 180 51 180 94 C180 142 195 210 222 283 L222 283 Z " />
<glyph glyph-name="seven" unicode="7" horiz-adv-x="469" d="M146 622 L97 424 L131 424 C147 497 162 512 221 512 L413 512 L144 -14 L237 -14 L501 587 L501 622 L146 622 Z " />
<glyph glyph-name="eight" unicode="8" horiz-adv-x="469" d="M485 515 C485 588 428 636 340 636 C222 636 141 555 141 460 C141 407 168 356 213 309 C102 246 60 193 60 120 C60 41 123 -14 218 -14 C345 -14 429 78 429 176 C429 229 402 279 334 350 C435 393 485 448 485 515 L485 515 Z M310 374 C249 439 234 458 234 500 C234 556 271 598 318 598 C361 598 385 568 385 520 C385 470 361 421 310 374 L310 374 Z M230 24 C186 24 160 60 160 121 C160 184 187 244 232 284 C300 216 320 182 320 130 C320 71 281 24 230 24 L230 24 Z " />
<glyph glyph-name="nine" unicode="9" horiz-adv-x="469" d="M482 456 C482 569 429 636 339 636 C287 636 229 612 180 563 C131 514 107 453 107 398 C107 318 155 263 227 263 C254 263 271 268 300 284 L302 282 C242 150 168 62 44 20 L37 -14 C142 1 248 52 342 146 C436 240 482 353 482 456 L482 456 Z M265 310 C243 310 227 324 227 353 C227 375 238 432 261 499 C284 566 309 598 332 598 C356 598 371 570 371 542 C371 505 360 424 328 339 C301 320 281 310 265 310 L265 310 Z " />
<glyph glyph-name="colon" unicode="&#x3a;" horiz-adv-x="323" d="M271 354 C271 393 248 419 211 419 C170 419 138 382 138 342 C138 299 169 276 199 276 C242 276 271 311 271 354 L271 354 Z M212 67 C212 106 189 132 152 132 C111 132 79 95 79 55 C79 12 109 -11 140 -11 C183 -11 212 24 212 67 L212 67 Z " />
<glyph glyph-name="semicolon" unicode="&#x3b;" horiz-adv-x="323" d="M271 354 C271 393 248 419 211 419 C170 419 138 382 138 342 C138 299 168 276 199 276 C242 276 271 311 271 354 L271 354 Z M212 39 C212 95 180 134 136 134 C100 134 72 109 72 74 C72 51 81 37 93 20 C105 3 114 -13 114 -39 C114 -83 73 -121 13 -136 L28 -165 C125 -144 212 -50 212 39 L212 39 Z " />
<glyph glyph-name="less" unicode="&#x3c;" horiz-adv-x="667" d="M625 585 L91 361 L91 291 L625 67 L625 150 L195 326 L625 502 L625 585 Z " />
<glyph glyph-name="equal" unicode="&#x3d;" horiz-adv-x="667" d="M91 480 L91 404 L625 404 L625 480 L91 480 Z M91 250 L91 174 L625 174 L625 250 L91 250 Z " />
<glyph glyph-name="greater" unicode="&#x3e;" horiz-adv-x="667" d="M92 502 L522 326 L92 150 L92 67 L626 291 L626 361 L92 585 L92 502 Z " />
<glyph glyph-name="question" unicode="&#x3f;" horiz-adv-x="427" d="M408 471 C408 576 350 636 246 636 C174 636 128 604 128 556 C128 527 149 506 178 506 C200 506 219 512 238 518 C257 524 273 531 294 531 C333 531 361 510 361 482 C361 453 337 437 287 417 C191 379 157 337 154 182 L187 182 C192 226 215 244 258 260 C310 279 356 310 383 362 C399 392 408 430 408 471 L408 471 Z M212 67 C212 106 189 132 152 132 C111 132 79 95 79 55 C79 12 109 -11 140 -11 C183 -11 212 24 212 67 L212 67 Z " />
<glyph glyph-name="at" unicode="&#x40;" horiz-adv-x="833" d="M844 335 C844 519 715 653 506 653 C240 653 51 461 51 205 C51 -35 225 -208 467 -208 C660 -208 807 -107 883 78 L854 78 C796 -85 636 -182 468 -182 C254 -182 100 -30 100 188 C100 421 262 623 516 623 C695 623 818 500 818 326 C818 232 780 154 734 104 C694 60 646 34 615 34 C592 34 577 51 577 72 C577 84 580 108 592 148 L677 440 L562 436 L547 380 L545 380 C539 431 518 453 479 453 C376 453 236 275 236 107 C236 40 267 0 315 0 C374 0 424 56 475 149 L477 147 C471 126 466 99 466 84 C466 32 502 0 562 0 C722 0 844 148 844 335 L844 335 Z M385 86 C369 86 357 105 357 130 C357 203 431 419 491 419 C511 419 525 395 525 356 C525 242 431 86 385 86 L385 86 Z " />
<glyph glyph-name="A" unicode="A" horiz-adv-x="719" d="M489 637 L98 121 C56 66 24 39 -29 39 L-37 0 L201 0 L209 39 L195 39 C162 39 135 55 135 83 C135 100 149 117 162 135 L245 244 L466 244 L468 117 C469 58 444 39 388 39 L367 39 L359 0 L672 0 L680 39 L666 39 C600 39 592 64 591 110 L584 637 L489 637 Z M462 530 L465 530 L465 302 L289 302 L462 530 Z " />
<glyph glyph-name="B" unicode="B" horiz-adv-x="656" d="M121 622 L113 583 L130 583 C176 583 201 570 201 527 C201 515 198 504 196 492 L124 136 C108 59 88 39 28 39 L20 0 L391 0 C529 0 624 97 624 192 C624 264 575 319 487 343 L487 345 C583 362 645 417 645 489 C645 573 556 622 461 622 L121 622 Z M413 580 C478 580 520 544 520 493 C520 425 470 370 383 370 L297 370 L340 580 L413 580 Z M352 328 C431 328 492 284 492 211 C492 170 477 127 452 95 C427 63 385 43 318 43 C252 43 235 69 247 125 L289 328 L352 328 Z " />
<glyph glyph-name="C" unicode="C" horiz-adv-x="729" d="M736 596 C676 622 607 636 527 636 C238 636 88 459 88 264 C88 106 216 -14 376 -14 C446 -14 528 13 558 13 C575 13 581 10 593 0 L615 0 L666 159 L625 159 C568 76 488 29 400 29 C292 29 227 110 227 242 C227 460 347 593 500 593 C594 593 658 531 658 452 L658 438 L698 438 L736 596 Z " />
<glyph glyph-name="D" unicode="D" horiz-adv-x="802" d="M119 622 L111 583 L127 583 C180 583 200 566 200 528 C200 521 199 512 195 493 L119 118 C108 61 79 39 30 39 L20 39 L12 0 L384 0 C513 0 617 40 687 106 C753 169 790 260 790 351 C790 530 671 622 460 622 L119 622 Z M339 580 L422 580 C561 580 648 493 648 359 C648 295 627 225 595 170 C550 92 457 43 338 43 C263 43 243 62 243 97 C243 109 246 122 249 137 L339 580 Z " />
<glyph glyph-name="E" unicode="E" horiz-adv-x="656" d="M118 622 L110 583 L124 583 C176 583 197 567 197 528 C197 521 195 508 192 491 L120 136 C103 54 79 40 24 39 L16 0 L571 0 L627 154 L582 154 C530 88 442 42 357 42 L321 42 C280 42 227 45 243 122 L277 291 L423 291 C462 291 491 283 491 235 C491 224 489 214 488 202 L528 202 L569 403 L528 403 C513 349 482 333 434 333 L286 333 L336 580 L489 580 C517 580 595 575 595 493 C595 486 594 479 593 471 L640 471 L671 622 L118 622 Z " />
<glyph glyph-name="F" unicode="F" horiz-adv-x="604" d="M116 622 L108 583 L127 583 C187 583 209 564 193 486 L121 131 C108 68 87 41 32 39 L15 39 L7 0 L330 0 L338 39 L300 39 C236 39 239 93 244 116 L280 295 L435 295 C476 295 497 283 497 239 C497 228 496 217 495 208 L535 208 L574 403 L534 403 C521 352 489 337 436 337 L289 337 L338 580 L475 580 C554 580 589 554 589 491 C589 484 589 477 588 470 L627 470 L658 622 L116 622 Z " />
<glyph glyph-name="G" unicode="G" horiz-adv-x="802" d="M756 599 C656 624 583 636 514 636 C411 636 320 612 250 567 C145 499 84 381 84 271 C84 200 111 131 162 81 C223 22 315 -14 444 -14 C520 -14 657 5 733 25 L739 56 L733 59 L724 58 C708 58 699 67 699 83 C699 89 706 129 715 159 C727 198 749 214 793 216 L801 254 L535 254 L527 216 C568 214 586 194 586 172 C586 158 577 102 564 83 C539 46 495 29 438 29 C301 29 227 118 227 250 C227 452 348 593 503 593 C600 593 681 540 716 445 L760 445 L756 599 Z " />
<glyph glyph-name="H" unicode="H" horiz-adv-x="802" d="M122 622 L114 583 L128 583 C177 583 200 567 200 527 C200 508 192 478 189 462 L121 126 C109 69 92 39 29 39 L16 39 L8 0 L320 0 L328 39 L306 39 C265 39 244 55 244 91 C244 110 247 123 248 130 C250 138 260 184 281 290 L587 290 L554 132 C540 65 521 39 456 39 L439 39 L431 0 L755 0 L763 39 L736 39 C694 39 675 57 675 93 C675 104 679 127 681 136 L755 500 C769 568 801 583 861 583 L869 622 L557 622 L549 583 L562 583 C616 583 632 561 632 527 C632 515 629 500 626 486 L598 348 L292 348 L325 508 C338 572 371 583 438 583 L446 622 L122 622 Z " />
<glyph glyph-name="I" unicode="I" horiz-adv-x="375" d="M122 622 L114 583 C164 583 202 579 202 526 C202 517 200 504 198 496 L124 132 C110 65 90 40 30 39 L16 39 L8 0 L332 0 L340 39 L311 39 C268 39 245 54 245 94 C245 102 247 118 249 126 L327 509 C337 560 371 583 430 583 L438 622 L122 622 Z " />
<glyph glyph-name="J" unicode="J" horiz-adv-x="354" d="M106 622 L98 583 L115 583 C163 583 185 566 185 524 C185 520 185 509 181 488 L91 -48 C78 -125 66 -171 31 -171 C16 -171 2 -162 -21 -141 C-46 -119 -63 -106 -84 -106 C-97 -106 -117 -117 -134 -142 C-151 -167 -159 -186 -159 -194 C-159 -217 -114 -233 -59 -233 C23 -233 95 -207 147 -151 C193 -102 221 -34 237 63 L311 509 C318 553 343 583 402 583 L419 583 L427 622 L106 622 Z " />
<glyph glyph-name="K" unicode="K" horiz-adv-x="740" d="M122 622 L114 583 L135 583 C181 583 204 565 204 528 C204 519 202 504 200 495 L126 132 C113 66 92 42 41 39 L26 39 L18 0 L324 0 L332 39 L311 39 C268 39 247 57 247 94 C247 102 248 109 249 115 L281 273 L325 302 L545 0 L733 0 L741 39 C679 43 649 67 608 124 L430 370 C537 441 615 494 666 525 C717 556 767 577 817 583 L825 622 L559 622 L551 583 C578 583 599 572 599 549 C599 538 594 528 562 507 L293 331 L330 513 C340 561 371 583 425 583 L443 583 L451 622 L122 622 Z " />
<glyph glyph-name="L" unicode="L" horiz-adv-x="604" d="M119 622 L111 583 L132 583 C177 583 199 566 199 525 C199 516 198 509 193 486 L123 140 C108 69 90 40 33 39 L19 39 L11 0 L574 0 L620 145 L580 145 C525 84 471 55 436 47 C419 44 375 42 306 42 C271 42 241 57 241 92 C241 103 245 119 246 125 L323 504 C335 562 364 583 418 583 L441 583 L449 622 L119 622 Z " />
<glyph glyph-name="M" unicode="M" horiz-adv-x="896" d="M133 622 L125 583 C185 581 212 566 212 529 C212 521 210 510 208 503 L120 177 C96 87 78 50 12 39 L4 0 L224 0 L232 39 C183 39 150 67 150 115 C150 130 153 142 158 162 L261 535 L263 535 L348 0 L391 0 L725 516 L727 515 L649 136 C634 64 616 41 549 39 L541 0 L853 0 L861 39 C805 39 768 51 768 91 C768 102 772 118 775 133 L853 517 C862 561 892 581 955 583 L963 622 L746 622 L446 163 L371 622 L133 622 Z " />
<glyph glyph-name="N" unicode="N" horiz-adv-x="771" d="M126 622 L118 583 C158 582 179 569 203 534 L123 141 C111 84 81 39 32 39 L24 0 L242 0 L250 39 C186 46 163 76 163 120 C163 124 164 133 167 148 L236 489 L592 -5 L635 -5 L731 465 C744 528 770 573 829 583 L837 622 L619 622 L611 583 C667 580 693 561 693 510 C693 497 691 480 688 465 L626 159 L291 622 L126 622 Z " />
<glyph glyph-name="O" unicode="O" horiz-adv-x="823" d="M808 334 C808 511 676 636 480 636 C363 636 284 605 216 551 C136 487 88 397 88 283 C88 209 119 137 169 84 C228 22 317 -14 424 -14 C646 -14 808 140 808 334 L808 334 Z M416 29 C299 29 226 109 226 236 C226 444 336 593 484 593 C595 593 670 515 670 383 C670 313 652 222 618 160 C575 80 509 29 416 29 L416 29 Z " />
<glyph glyph-name="P" unicode="P" horiz-adv-x="635" d="M116 622 L108 583 L125 583 C175 583 199 567 199 529 C199 520 198 512 195 496 L118 122 C105 57 77 39 17 39 L9 0 L326 0 L334 39 L308 39 C265 39 241 52 241 92 C241 99 242 110 247 134 L338 580 L403 580 C473 580 513 546 513 462 C513 411 500 359 473 322 C446 285 410 266 366 266 L339 268 L332 230 C351 224 381 221 408 221 C473 221 535 242 583 285 C632 328 656 387 656 447 C656 560 568 622 432 622 L116 622 Z " />
<glyph glyph-name="Q" unicode="Q" horiz-adv-x="823" d="M808 334 C808 418 777 497 715 553 C654 608 572 636 479 636 C383 636 292 611 219 554 C142 494 88 399 88 287 C88 161 168 47 291 7 C340 -38 403 -82 474 -120 C545 -158 602 -177 647 -177 C710 -177 761 -155 811 -112 L786 -78 C765 -94 742 -102 718 -102 C667 -102 614 -71 529 -3 C694 36 808 174 808 334 L808 334 Z M416 29 C299 29 226 109 226 236 C226 415 315 593 484 593 C594 593 670 515 670 383 C670 228 597 29 416 29 L416 29 Z " />
<glyph glyph-name="R" unicode="R" horiz-adv-x="688" d="M131 622 L124 583 C177 583 200 568 200 527 C200 516 198 505 196 495 L123 136 C106 53 80 39 23 39 L15 0 L328 0 L336 39 L313 39 C267 39 242 53 242 94 C242 103 245 121 246 128 C248 135 257 175 275 264 C288 262 301 261 313 261 C327 261 341 262 352 264 C377 174 412 108 454 62 C496 16 571 -11 639 -9 L671 -8 L692 30 L680 30 C588 30 521 116 471 286 C571 321 633 387 633 463 C633 506 612 550 569 579 C527 608 469 622 403 622 L131 622 Z M339 580 L362 580 C452 580 487 544 487 466 C487 371 420 306 302 306 C299 306 288 307 283 308 L339 580 Z " />
<glyph glyph-name="S" unicode="S" horiz-adv-x="521" d="M463 612 C446 612 427 616 401 624 C375 632 350 636 331 636 C284 636 237 618 199 582 C162 546 143 500 143 454 C143 395 186 336 266 270 C344 205 387 162 387 123 C387 99 375 74 350 56 C325 38 296 29 262 29 C172 29 118 89 115 198 L76 198 L35 39 C96 6 180 -14 257 -14 C317 -14 378 4 423 39 C468 74 491 120 491 172 C491 233 447 292 364 362 C281 432 238 472 238 511 C238 556 282 593 335 593 C404 593 461 534 470 451 L510 451 L537 630 L506 630 C494 617 484 612 463 612 L463 612 Z " />
<glyph glyph-name="T" unicode="T" horiz-adv-x="698" d="M102 480 L141 480 C184 556 229 580 301 580 L383 580 L292 131 C278 64 255 39 195 39 L175 39 L167 0 L494 0 L502 39 L480 39 C434 39 413 55 413 91 C413 98 414 106 415 113 L509 580 L608 580 C663 580 695 552 702 480 L743 480 L779 658 L745 658 C733 627 713 622 677 622 L218 622 C179 622 171 629 167 658 L138 658 L102 480 Z " />
<glyph glyph-name="U" unicode="U" horiz-adv-x="750" d="M111 622 L103 583 L115 583 C162 582 183 565 183 524 C183 516 180 503 178 491 L124 228 C120 208 118 190 118 173 C118 117 140 77 185 40 C229 4 295 -14 380 -14 C449 -14 504 0 544 29 C644 102 663 186 681 295 L711 477 C721 537 751 576 808 583 L816 622 L585 622 L577 583 C665 568 678 531 667 467 L636 285 C619 183 592 124 551 89 C511 54 461 36 402 36 C309 36 240 82 240 153 C240 173 244 194 252 235 L306 502 C318 563 348 582 409 583 L417 622 L111 622 Z " />
<glyph glyph-name="V" unicode="V" horiz-adv-x="677" d="M129 622 L121 583 C189 583 188 530 187 508 L170 -14 L232 -14 L663 487 C721 555 750 578 790 583 L798 622 L589 622 L581 583 C618 583 641 569 641 548 C641 527 630 513 611 491 L299 128 L297 130 L311 512 C313 570 343 582 401 583 L409 622 L129 622 Z " />
<glyph glyph-name="W" unicode="W" horiz-adv-x="1063" d="M141 622 L133 583 C186 577 208 563 208 513 L174 -14 L238 -14 L589 426 L591 424 L564 -14 L625 -14 L999 449 C1065 530 1112 582 1166 583 L1174 622 L941 622 L933 583 C970 582 997 568 997 536 C997 515 982 494 970 479 L701 143 L699 145 L722 503 C726 568 746 583 809 583 L817 622 L543 622 L535 583 C580 579 597 561 597 517 L597 502 L310 144 L308 146 L330 512 C334 569 354 583 423 583 L431 622 L141 622 Z " />
<glyph glyph-name="X" unicode="X" horiz-adv-x="760" d="M132 622 L124 583 C180 583 207 570 238 518 L368 304 L154 106 C89 46 51 41 18 39 L10 0 L270 0 L278 39 C235 39 214 55 214 79 C214 96 227 116 243 131 L391 267 L485 116 C492 104 499 89 499 77 C499 54 481 39 451 39 L443 0 L723 0 L731 39 L719 39 C688 39 665 54 641 93 L482 355 L605 470 C673 534 732 583 802 583 L810 622 L557 622 L549 583 L562 583 C597 582 612 567 612 551 C612 539 604 527 593 516 L460 391 L384 518 C378 528 374 536 374 546 C374 568 395 583 430 583 L442 583 L450 622 L132 622 Z " />
<glyph glyph-name="Y" unicode="Y" horiz-adv-x="667" d="M104 622 L96 583 C140 583 154 575 178 524 L302 256 L277 133 C263 62 238 39 177 39 L166 39 L158 0 L491 0 L499 39 L465 39 C421 39 397 55 397 92 C397 98 400 114 403 131 L428 256 L628 482 C683 543 707 567 749 583 L757 622 L556 622 L548 583 C592 578 610 559 610 542 C610 522 596 509 579 490 L416 306 L311 532 C295 567 304 582 353 583 L361 622 L104 622 Z " />
<glyph glyph-name="Z" unicode="Z" horiz-adv-x="667" d="M185 622 L151 453 L189 453 C229 532 289 580 382 580 L533 580 L16 42 L16 0 L603 0 L655 183 L614 183 C561 96 481 42 401 42 L187 42 L711 586 L711 622 L185 622 Z " />
<glyph glyph-name="bracketleft" unicode="&#x5b;" horiz-adv-x="365" d="M235 669 L52 -227 L279 -227 L287 -188 L237 -188 C203 -188 180 -173 180 -136 C180 -131 183 -113 185 -102 L318 554 C328 605 359 630 403 630 L454 630 L462 669 L235 669 Z " />
<glyph glyph-name="backslash" unicode="&#x5c;" horiz-adv-x="302" d="M36 636 L257 -18 L338 -18 L117 636 L36 636 Z " />
<glyph glyph-name="bracketright" unicode="&#x5d;" horiz-adv-x="365" d="M123 669 L115 630 L165 630 C201 630 222 612 222 579 C222 574 221 563 219 554 L85 -112 C75 -161 44 -188 0 -188 L-51 -188 L-59 -227 L168 -227 L350 669 L123 669 Z " />
<glyph glyph-name="asciicircum" unicode="&#x5e;" horiz-adv-x="573" d="M92 318 L175 318 L311 559 L447 318 L530 318 L331 669 L291 669 L92 318 Z " />
<glyph glyph-name="underscore" unicode="&#x5f;" horiz-adv-x="500" d="M-8 -75 L-8 -125 L508 -125 L508 -75 L-8 -75 Z " />
<glyph glyph-name="grave" unicode="&#x60;" horiz-adv-x="333" d="M126 642 L236 477 L310 477 L243 642 L126 642 Z " />
<glyph glyph-name="a" unicode="a" horiz-adv-x="458" d="M420 419 C321 419 262 406 213 377 C164 348 121 306 84 253 C48 200 30 144 30 86 C30 26 68 -11 99 -11 C109 -11 123 -4 142 10 C164 26 197 59 249 112 L251 112 C244 77 244 67 244 50 C244 10 259 -11 284 -11 C323 -11 377 33 427 85 L427 118 C390 77 367 59 358 59 C353 59 350 62 350 70 C350 79 354 98 355 101 L420 419 Z M164 81 C139 81 123 109 123 150 C123 192 137 242 166 288 C195 333 239 358 300 358 L259 154 C215 109 187 81 164 81 L164 81 Z " />
<glyph glyph-name="b" unicode="b" horiz-adv-x="448" d="M270 656 C270 669 266 672 262 672 L257 672 C253 672 196 648 98 610 L109 588 C116 592 125 597 135 597 C142 597 149 593 149 581 C149 576 148 571 147 566 L56 118 C55 111 53 103 53 89 C53 33 98 -11 162 -11 C219 -11 283 15 335 73 C387 131 414 206 414 276 C414 305 408 336 398 366 C387 399 370 419 351 419 C326 419 277 381 201 292 L199 294 L267 633 C268 640 270 649 270 656 L270 656 Z M188 241 C222 281 265 321 283 321 C296 321 301 300 301 268 C301 221 290 149 265 95 C241 42 215 15 188 15 C163 15 154 39 154 64 C154 71 156 82 158 91 C160 100 170 148 188 241 L188 241 Z " />
<glyph glyph-name="c" unicode="c" horiz-adv-x="333" d="M345 366 C345 399 320 419 281 419 C214 419 151 381 103 310 C54 238 32 156 32 106 C32 33 76 -11 146 -11 C211 -11 278 28 315 89 L297 104 C273 71 237 49 208 49 C166 49 142 83 142 152 C142 196 150 267 167 311 C178 339 191 358 211 358 C227 358 236 346 247 334 C257 323 271 313 293 313 C324 313 345 334 345 366 L345 366 Z " />
<glyph glyph-name="d" unicode="d" horiz-adv-x="448" d="M463 656 C463 667 460 672 453 672 C448 672 443 670 401 653 C377 643 341 628 284 605 L295 583 C304 587 318 593 326 593 C334 593 340 589 340 578 C340 569 339 564 338 559 L305 394 C289 410 270 419 251 419 C225 419 171 390 116 323 C62 257 32 180 32 110 C32 37 62 -10 104 -10 C136 -10 188 39 248 123 L251 123 C242 82 239 54 239 45 C239 9 255 -11 284 -11 C319 -11 374 31 423 97 L405 112 C382 81 364 66 356 66 C348 66 348 75 349 81 L461 641 C462 646 463 651 463 656 L463 656 Z M166 81 C149 81 142 96 142 137 C142 185 156 270 179 321 C192 350 209 370 228 370 C255 370 272 343 284 291 L262 182 C261 179 195 81 166 81 L166 81 Z " />
<glyph glyph-name="e" unicode="e" horiz-adv-x="375" d="M370 346 C370 390 338 419 289 419 C148 419 37 250 37 121 C37 41 83 -11 149 -11 C206 -11 282 25 351 80 L338 98 C294 64 256 50 227 50 C179 50 148 82 148 135 C148 152 150 174 154 191 C278 219 370 266 370 346 L370 346 Z M159 214 C179 301 206 387 248 387 C267 387 279 369 279 344 C279 281 239 238 159 214 L159 214 Z " />
<glyph glyph-name="f" unicode="f" horiz-adv-x="271" d="M453 615 C453 651 419 672 359 672 C240 672 146 576 119 409 C99 397 65 387 40 387 L35 363 L110 363 L34 -92 C23 -155 1 -197 -35 -197 C-56 -197 -68 -180 -81 -162 C-94 -143 -109 -122 -141 -122 C-171 -122 -198 -145 -198 -172 C-198 -208 -155 -233 -94 -233 C-13 -233 49 -197 96 -131 C129 -85 149 -47 167 62 L217 363 L288 363 L298 409 L226 409 C256 606 263 632 288 632 C305 632 319 614 336 597 C353 580 371 563 399 563 C430 563 453 586 453 615 L453 615 Z " />
<glyph glyph-name="g" unicode="g" horiz-adv-x="448" d="M419 419 C259 417 167 384 87 262 C48 203 29 143 29 88 C29 35 57 -11 97 -11 C118 -11 153 16 252 113 L201 -124 C189 -181 158 -196 140 -196 C113 -196 98 -175 83 -155 C68 -135 52 -114 25 -114 C-6 -114 -30 -137 -30 -166 C-30 -205 17 -231 83 -231 C197 -231 270 -152 308 -71 C322 -41 333 -6 351 81 L419 419 Z M162 79 C135 79 119 112 119 153 C119 228 151 292 194 329 C220 351 246 359 279 359 L300 359 L256 147 C216 107 183 79 162 79 L162 79 Z " />
<glyph glyph-name="h" unicode="h" horiz-adv-x="500" d="M270 658 C270 663 270 672 260 672 C254 672 242 668 223 660 L90 607 L100 585 C113 589 121 596 133 596 C142 596 147 588 147 576 C147 572 141 542 138 529 L47 80 C32 5 26 -5 61 -5 L111 -5 C131 -5 138 -2 143 25 L177 193 C254 298 291 338 314 338 C325 338 331 331 331 315 C331 307 328 298 328 291 L283 103 C276 72 272 52 272 44 C272 13 294 -11 323 -11 C364 -11 425 31 480 111 L460 124 C432 88 401 57 392 57 C388 57 384 61 384 68 C384 75 386 84 389 95 L436 290 C443 318 447 347 447 358 C447 394 425 419 394 419 C338 419 276 367 190 244 L188 246 L264 626 C267 639 269 652 270 658 L270 658 Z " />
<glyph glyph-name="i" unicode="i" horiz-adv-x="292" d="M275 580 C275 615 254 636 223 636 C183 636 151 596 151 545 C151 513 172 490 203 490 C244 490 275 535 275 580 L275 580 Z M225 362 C225 397 208 419 182 419 C143 419 95 383 31 298 L50 282 L69 307 C82 325 98 337 105 337 C113 337 114 329 114 324 C108 279 55 90 55 49 C55 14 78 -11 109 -11 C150 -11 206 23 262 87 L244 103 C219 75 190 51 174 51 C166 51 162 54 162 63 C162 71 164 84 166 92 L215 294 C222 322 225 347 225 362 L225 362 Z " />
<glyph glyph-name="j" unicode="j" horiz-adv-x="271" d="M296 580 C296 615 274 636 244 636 C204 636 172 596 172 545 C172 513 194 490 224 490 C266 490 296 535 296 580 L296 580 Z M243 372 C243 401 227 419 203 419 C162 419 108 375 51 295 L69 279 C97 318 115 336 124 336 C128 336 130 333 130 328 C130 325 121 287 120 280 C95 160 72 41 48 -79 C33 -150 17 -185 -2 -185 C-13 -185 -22 -176 -35 -155 C-46 -137 -60 -119 -92 -119 C-124 -119 -148 -140 -148 -171 C-148 -212 -114 -233 -54 -233 C62 -233 145 -126 181 51 L236 325 C237 328 243 361 243 372 L243 372 Z " />
<glyph glyph-name="k" unicode="k" horiz-adv-x="500" d="M277 658 C277 666 273 672 269 672 C254 672 206 647 97 606 L106 585 C130 593 133 595 141 595 C151 595 155 590 155 578 C155 573 153 563 152 559 L46 34 C40 6 40 -5 67 -5 L117 -5 C141 -5 145 -2 151 25 L186 195 C200 179 224 141 253 86 C282 31 319 1 367 -10 L483 112 L467 128 L416 78 C391 91 369 113 348 143 C334 163 320 185 306 202 C414 217 476 263 476 330 C476 378 442 419 402 419 C363 419 311 383 201 261 L199 263 L274 633 C276 645 277 653 277 658 L277 658 Z M190 216 C229 258 294 339 331 339 C350 339 362 324 362 303 C362 251 300 213 224 213 C212 213 201 214 190 216 L190 216 Z " />
<glyph glyph-name="l" unicode="l" horiz-adv-x="271" d="M265 652 C265 667 261 672 255 672 C253 672 250 671 248 670 C247 670 194 649 84 604 L93 582 C109 588 123 592 130 592 C137 592 142 589 142 578 C142 573 139 554 138 551 L48 101 C47 96 41 73 41 47 C41 7 58 -11 90 -11 C135 -11 187 23 244 84 L228 101 C203 74 175 52 163 52 C156 52 150 58 150 70 C150 76 151 81 152 87 L262 630 C263 634 265 648 265 652 L265 652 Z " />
<glyph glyph-name="m" unicode="m" horiz-adv-x="750" d="M227 374 C227 407 213 419 188 419 C145 419 96 379 31 287 L49 273 C73 304 94 328 104 328 C109 328 111 325 111 319 C111 314 110 306 108 298 L51 19 C49 10 54 -5 73 -5 L127 -5 C149 -5 154 -2 159 22 L194 193 C269 301 303 338 328 338 C338 338 345 327 345 311 C344 300 343 291 338 268 L289 27 C285 6 293 -5 314 -5 L365 -5 C390 -5 390 -2 396 27 L430 193 C502 293 535 338 560 338 C574 338 581 330 581 314 C581 301 577 286 577 283 L539 97 C533 68 531 53 531 43 C531 8 548 -11 575 -11 C623 -11 679 29 735 113 L716 126 C688 89 662 61 651 61 C646 61 643 67 643 75 C643 82 645 89 647 101 L683 276 C688 301 695 331 695 355 C695 398 679 419 646 419 C580 419 517 356 440 243 L438 245 C451 289 461 331 461 358 C461 397 446 419 407 419 C350 419 276 351 207 248 L205 250 C214 295 227 346 227 374 L227 374 Z " />
<glyph glyph-name="n" unicode="n" horiz-adv-x="510" d="M226 365 C226 400 212 419 188 419 C146 419 75 356 29 284 L49 270 C80 315 99 334 109 334 C115 334 116 330 116 326 C116 323 109 293 109 291 L53 18 C51 7 53 -5 70 -5 L130 -5 C145 -5 155 -5 160 19 L196 193 C239 248 302 335 329 335 C338 335 344 330 344 317 C344 308 337 282 336 277 L294 96 C288 71 286 54 286 45 C286 14 306 -11 331 -11 C378 -11 436 35 489 108 L470 123 C443 87 411 57 402 57 C399 57 397 59 397 67 C397 78 401 95 403 102 L450 302 C453 315 461 339 461 361 C461 397 442 419 411 419 C357 419 293 367 208 244 L206 246 C214 285 226 329 226 365 L226 365 Z " />
<glyph glyph-name="o" unicode="o" horiz-adv-x="448" d="M416 272 C416 361 374 419 309 419 C171 419 38 277 38 132 C38 48 83 -11 147 -11 C259 -11 416 105 416 272 L416 272 Z M209 31 C177 31 154 84 154 156 C154 263 200 378 247 378 C276 378 302 320 302 253 C302 135 249 31 209 31 L209 31 Z " />
<glyph glyph-name="p" unicode="p" horiz-adv-x="490" d="M236 351 C236 396 221 419 190 419 C147 419 95 380 19 280 L39 265 C76 317 96 337 112 337 C118 337 127 333 127 317 C127 304 121 276 119 268 L41 -115 C29 -175 7 -203 -64 -203 L-69 -227 L223 -227 L228 -203 C217 -203 209 -203 200 -202 C164 -197 144 -182 144 -151 C144 -145 145 -132 146 -125 L172 2 C181 -7 203 -11 226 -11 C338 -11 462 110 462 268 C462 341 427 419 387 419 C357 419 300 364 225 251 L223 253 C232 300 236 324 236 351 L236 351 Z M211 191 C233 226 293 318 318 318 C340 318 350 292 350 244 C350 159 307 23 240 23 C213 23 199 38 187 75 L211 191 Z " />
<glyph glyph-name="q" unicode="q" horiz-adv-x="448" d="M127 314 C63 245 29 152 29 93 C29 38 57 -11 89 -11 C118 -11 162 21 246 100 L248 98 L208 -96 C189 -186 166 -202 99 -203 L94 -227 L391 -227 L396 -203 L386 -203 C309 -203 298 -178 309 -123 L419 418 C409 418 399 419 390 419 C257 418 179 370 127 314 L127 314 Z M163 79 C137 79 119 109 119 154 C119 210 138 267 172 307 C200 340 230 359 301 362 L256 144 C211 100 180 79 163 79 L163 79 Z " />
<glyph glyph-name="r" unicode="r" horiz-adv-x="333" d="M198 379 C198 407 191 419 176 419 C142 419 91 367 30 287 L49 272 C53 279 96 333 104 333 C110 333 112 328 112 322 C112 317 110 305 109 300 L61 24 C58 4 58 -11 86 -11 L134 -11 C147 -11 160 -10 165 14 C182 97 198 163 224 224 C249 284 276 290 289 290 C296 290 300 289 305 289 C310 289 316 290 325 295 C343 305 358 336 359 375 C359 404 345 419 323 419 C277 419 245 374 213 279 C199 238 188 202 182 183 C172 151 171 136 165 136 C163 136 161 140 161 146 C161 163 181 242 187 289 C191 319 198 348 198 379 L198 379 Z " />
<glyph glyph-name="s" unicode="s" horiz-adv-x="344" d="M324 353 C324 392 292 419 245 419 C208 419 166 407 133 380 C100 354 84 318 84 286 C84 248 105 210 151 165 C195 122 226 96 226 66 C226 51 212 37 196 37 C173 37 153 47 130 71 C107 96 86 110 63 110 C34 110 9 85 9 56 C9 13 47 -11 108 -11 C216 -11 288 48 288 133 C288 170 267 203 224 246 C183 287 160 314 160 345 C160 361 171 374 186 374 C205 374 211 362 222 337 C234 310 249 298 273 298 C302 298 324 321 324 353 L324 353 Z " />
<glyph glyph-name="t" unicode="t" horiz-adv-x="302" d="M256 542 C196 459 142 408 75 385 L71 363 L120 363 L61 75 C60 72 58 59 58 48 C58 11 81 -11 113 -11 C162 -11 230 30 282 89 L264 108 C235 75 200 49 187 49 C176 49 168 60 168 73 C168 81 172 96 174 106 L227 363 L306 363 L315 409 L236 409 C249 461 263 501 282 542 L256 542 Z " />
<glyph glyph-name="u" unicode="u" horiz-adv-x="500" d="M216 313 C218 320 225 354 225 370 C225 394 211 419 183 419 C139 419 91 381 32 298 L51 284 C75 317 94 342 103 342 C111 342 111 336 111 327 C111 320 103 284 102 278 L65 95 C60 70 57 51 57 37 C57 5 70 -11 93 -11 C137 -11 230 86 304 201 L306 199 L278 66 C277 59 274 45 274 34 C274 9 286 -11 307 -11 C341 -11 410 42 478 118 L461 134 C430 99 402 77 397 77 C390 77 390 81 390 86 C390 88 396 118 400 136 L450 384 C455 407 449 413 429 413 L378 413 C353 413 350 410 347 400 C347 399 337 356 332 328 C320 259 286 207 254 165 C216 116 192 98 187 98 C180 98 177 105 177 112 C177 125 181 141 182 148 L216 313 Z " />
<glyph glyph-name="v" unicode="v" horiz-adv-x="427" d="M221 373 C221 406 201 419 176 419 C139 419 96 387 32 299 L50 285 C79 326 95 342 103 342 C108 342 109 338 109 334 C109 323 105 306 104 297 L72 109 C69 92 66 63 66 44 C66 5 85 -11 111 -11 C145 -11 209 32 297 118 C385 205 429 280 429 345 C429 392 404 419 366 419 C325 419 288 382 288 346 C288 328 299 322 310 318 C321 314 332 307 332 287 C332 208 221 58 186 58 C179 58 175 64 175 76 C175 89 178 106 179 110 L218 337 C219 345 221 352 221 373 L221 373 Z " />
<glyph glyph-name="w" unicode="w" horiz-adv-x="667" d="M220 367 C220 402 204 419 175 419 C135 419 98 390 30 291 L50 277 C60 293 93 340 102 340 C108 340 109 336 109 331 C109 324 107 315 106 308 L67 75 C66 70 64 52 64 43 C64 6 75 -11 108 -11 C139 -11 173 10 218 59 C244 87 272 124 308 173 L310 171 C299 120 294 78 294 57 C294 14 313 -11 345 -11 C386 -11 451 33 540 121 C629 210 673 285 673 347 C673 388 646 419 610 419 C571 419 531 381 531 345 C531 310 577 328 577 283 C577 205 465 58 418 58 C405 58 402 65 402 79 C402 84 405 103 406 108 L450 370 C451 375 453 387 453 394 C453 412 442 413 422 413 L375 413 C353 413 349 401 347 395 C345 388 338 337 321 229 C270 147 207 79 189 79 C183 79 177 82 177 94 C177 98 182 131 183 134 L212 304 C217 333 220 356 220 367 L220 367 Z " />
<glyph glyph-name="x" unicode="x" horiz-adv-x="500" d="M281 268 C262 326 243 367 228 388 C213 409 195 419 174 419 C134 419 102 386 62 305 L82 295 C97 327 108 339 123 339 C135 339 145 327 154 305 L210 175 C179 124 145 99 109 99 C88 99 77 111 70 135 L50 135 C33 107 21 65 21 38 C21 7 36 -11 59 -11 C101 -11 145 37 221 148 L260 54 C276 15 299 -9 331 -9 C374 -9 403 27 445 123 L422 135 C406 98 394 83 380 83 C367 83 356 95 345 120 C334 145 317 187 293 245 C326 296 361 321 400 321 C421 321 432 312 441 295 L464 295 C473 312 479 334 479 355 C479 390 456 419 429 419 C394 419 343 368 281 268 L281 268 Z " />
<glyph glyph-name="y" unicode="y" horiz-adv-x="485" d="M225 372 C225 397 206 418 184 418 C145 418 101 391 32 297 L51 283 C91 336 98 341 104 341 C108 341 111 337 111 329 C111 318 107 303 101 272 L64 89 C61 73 57 50 57 34 C57 3 73 -12 94 -12 C146 -12 272 141 305 197 L305 199 L307 196 L259 -45 C239 -145 228 -167 217 -178 C206 -189 196 -194 186 -194 C170 -194 157 -179 145 -162 C130 -141 112 -117 78 -117 C50 -117 28 -138 28 -165 C28 -204 76 -232 135 -232 C241 -232 308 -170 340 -98 C355 -63 366 -36 389 77 L448 371 C449 376 451 388 451 393 C451 405 443 412 429 412 L380 412 C352 412 350 411 343 376 C326 284 316 257 292 217 C256 159 201 97 187 97 C183 97 178 101 178 112 C178 120 179 128 185 160 L218 322 C220 330 225 361 225 372 L225 372 Z " />
<glyph glyph-name="z" unicode="z" horiz-adv-x="490" d="M381 359 C354 359 328 369 295 389 C263 409 236 419 210 419 C163 419 116 389 68 328 L87 312 C107 332 118 339 137 339 C155 339 169 331 190 318 C212 304 237 298 265 298 C310 298 370 316 435 350 C416 310 363 278 277 237 C189 195 122 161 81 128 C41 96 20 59 20 18 C20 -2 29 -11 46 -11 C64 -11 70 -3 70 16 C70 41 69 59 103 59 C129 59 153 49 190 26 C227 3 261 -11 295 -11 C355 -11 408 31 445 96 L425 110 C413 90 391 75 372 75 C357 75 341 80 314 93 C287 106 256 114 227 114 C187 114 128 98 66 74 C73 96 116 122 205 163 C294 204 360 243 405 280 C450 318 473 355 473 391 C473 410 463 419 449 419 C431 419 428 408 424 388 C421 372 409 359 381 359 L381 359 Z " />
<glyph glyph-name="braceleft" unicode="&#x7b;" horiz-adv-x="344" d="M348 672 C339 672 329 672 320 671 C214 661 147 587 147 509 C147 484 153 454 161 426 C168 401 173 374 173 346 C173 290 134 241 77 236 L77 203 C134 199 173 149 173 93 C173 70 168 44 162 18 C155 -14 147 -46 147 -70 C147 -149 215 -216 305 -230 C317 -232 335 -233 348 -233 L348 -210 C287 -202 253 -160 253 -115 C253 -92 258 -65 264 -37 C270 -8 276 23 276 52 C276 127 216 197 117 219 L117 221 C216 243 276 312 276 387 C276 412 272 438 267 463 C260 496 253 525 253 554 C253 599 287 641 348 649 L348 672 Z " />
<glyph glyph-name="bar" unicode="&#x7c;" horiz-adv-x="566" d="M229 636 L229 -135 L307 -135 L307 636 L229 636 Z " />
<glyph glyph-name="braceright" unicode="&#x7d;" horiz-adv-x="344" d="M76 649 C137 641 171 599 171 554 C171 522 166 504 160 477 C153 447 148 418 148 387 C148 312 208 243 307 221 L307 219 C208 197 148 127 148 52 C148 26 152 -2 158 -28 C165 -60 171 -89 171 -115 C171 -160 137 -202 76 -210 L76 -233 C89 -233 107 -232 119 -230 C209 -216 277 -149 277 -70 C277 -47 271 -18 263 12 C256 40 251 69 251 93 C251 149 290 199 347 203 L347 236 C290 241 251 290 251 346 C251 377 259 407 265 435 C270 460 277 484 277 509 C277 587 210 661 104 671 C95 672 85 672 76 672 L76 649 Z " />
<glyph glyph-name="asciitilde" unicode="&#x7e;" horiz-adv-x="573" d="M470 324 C443 324 407 339 343 362 C279 385 227 400 186 400 C85 400 39 339 36 223 L75 223 C83 276 99 307 154 307 C185 307 221 291 281 265 C341 239 388 223 434 223 C535 223 584 281 588 400 L549 400 C544 344 523 324 470 324 L470 324 Z " />
<glyph glyph-name="uni00A0" unicode="&#xa0;" horiz-adv-x="278" d="" />
<glyph glyph-name="exclamdown" unicode="&#xa1;" horiz-adv-x="323" d="M124 -233 C155 -233 161 -215 163 -192 L201 230 L167 230 L29 -171 C25 -183 22 -195 22 -202 C22 -226 39 -233 68 -233 L124 -233 Z M141 335 C141 296 164 270 201 270 C242 270 274 307 274 347 C274 390 243 413 213 413 C170 413 141 378 141 335 L141 335 Z " />
<glyph glyph-name="cent" unicode="&#xa2;" horiz-adv-x="333" d="M274 418 C215 416 166 384 126 339 C68 273 32 176 32 107 C32 38 70 -10 146 -10 L90 -201 L118 -201 L175 -8 C230 1 284 38 315 89 L297 104 C274 75 239 50 205 50 L191 51 L271 317 C279 314 286 313 294 313 C322 313 345 330 345 366 C345 393 330 411 302 418 L355 595 L327 595 L274 418 Z M169 65 C152 80 143 111 143 154 C143 226 162 358 211 358 C226 358 229 352 248 333 L169 65 Z " />
<glyph glyph-name="sterling" unicode="&#xa3;" horiz-adv-x="760" d="M811 599 C811 643 766 672 697 672 C623 672 568 645 515 592 C462 539 415 475 374 398 C333 321 293 222 255 101 L102 101 L94 62 L242 62 C230 26 210 -24 193 -65 C148 -69 108 -85 73 -111 C38 -138 21 -166 21 -188 C21 -212 40 -230 65 -230 C99 -230 148 -192 209 -123 C234 -132 262 -152 309 -182 C354 -211 404 -229 462 -229 C512 -229 558 -214 591 -181 C624 -148 639 -107 639 -72 C639 -29 616 -2 580 -2 C548 -2 524 -26 524 -58 C524 -73 529 -87 539 -101 C549 -116 554 -129 554 -142 C554 -161 539 -175 518 -175 C491 -175 464 -160 409 -122 C372 -97 331 -74 289 -67 C278 -65 265 -65 255 -65 C283 -26 307 18 332 62 L505 62 L513 101 L355 101 C394 166 430 243 467 333 C503 421 531 496 558 550 C585 604 606 631 638 631 C665 631 679 615 698 585 C717 555 729 541 758 541 C789 541 811 566 811 599 L811 599 Z " />
<glyph glyph-name="currency" unicode="&#xa4;" horiz-adv-x="470" d="M50 573 L13 534 L79 470 C50 423 41 385 41 354 C41 323 50 286 79 238 L13 175 L50 136 L117 202 C163 172 202 163 234 163 C271 163 308 174 351 202 L418 136 L455 175 L389 238 C419 287 429 323 429 354 C429 383 420 421 389 470 L455 534 L418 573 L351 507 C307 536 269 546 234 546 C202 546 164 537 117 507 L50 573 Z M234 216 C158 216 95 279 95 355 C95 432 159 493 233 493 C309 493 375 432 375 355 C375 279 311 216 234 216 L234 216 Z " />
<glyph glyph-name="yen" unicode="&#xa5;" horiz-adv-x="500" d="M21 622 L13 583 C54 583 67 572 78 556 C91 536 104 504 125 460 L13 460 L5 421 L143 421 L202 294 L-6 294 L-14 255 L219 255 C206 195 197 138 185 100 C173 64 155 44 113 40 C105 39 94 39 83 39 L75 0 L408 0 L416 39 L381 39 C335 39 314 57 314 94 C314 101 316 111 317 118 C319 126 328 168 345 255 L614 255 L622 294 L379 294 L491 421 L632 421 L640 460 L526 460 C581 525 627 570 666 583 L674 622 L473 622 L465 583 C504 578 527 565 527 541 C527 520 505 501 471 460 L260 460 C229 529 220 549 220 558 C220 574 237 583 270 583 L278 622 L21 622 Z M278 421 L437 421 L333 300 L278 421 Z " />
<glyph glyph-name="brokenbar" unicode="&#xa6;" horiz-adv-x="566" d="M229 636 L229 309 L307 309 L307 636 L229 636 Z M229 193 L229 -135 L307 -135 L307 193 L229 193 Z " />
<glyph glyph-name="section" unicode="&#xa7;" horiz-adv-x="448" d="M506 611 C506 647 464 672 396 672 C324 672 243 635 174 558 C105 481 71 394 71 322 C71 269 89 206 126 127 C163 49 182 -9 182 -59 C182 -128 149 -172 96 -172 C73 -172 53 -165 31 -149 C10 -133 -10 -124 -29 -124 C-58 -124 -77 -150 -77 -174 C-77 -215 -35 -233 29 -233 C117 -233 189 -193 264 -115 C339 -37 376 44 376 127 C376 171 357 232 318 311 C279 390 260 452 260 499 C260 570 292 618 341 618 C363 618 372 606 393 589 C413 572 432 562 455 562 C481 562 506 584 506 611 L506 611 Z M202 509 C200 494 199 482 199 469 C199 418 217 355 254 280 C291 205 310 151 310 101 C310 41 289 -10 238 -70 L236 -68 C240 -53 241 -35 241 -18 C241 24 224 82 189 158 C154 234 137 289 137 336 C137 392 157 452 200 511 L202 509 Z " />
<glyph glyph-name="dieresis" unicode="&#xa8;" horiz-adv-x="333" d="M200 560 C200 592 173 618 141 618 C109 618 83 592 83 560 C83 528 109 501 141 501 C173 501 200 528 200 560 L200 560 Z M396 560 C396 592 369 618 337 618 C305 618 279 592 279 560 C279 528 305 501 337 501 C369 501 396 528 396 560 L396 560 Z " />
<glyph glyph-name="copyright" unicode="&#xa9;" horiz-adv-x="750" d="M721 331 C721 519 568 677 375 677 C184 677 29 522 29 331 C29 141 183 -15 375 -15 C568 -15 721 143 721 331 L721 331 Z M375 28 C207 28 72 166 72 331 C72 497 208 634 374 634 C545 634 678 495 678 331 C678 168 546 28 375 28 L375 28 Z M497 515 C479 515 440 541 378 541 C251 541 164 447 164 326 C164 210 248 127 369 127 C433 127 485 148 525 189 L525 224 C486 177 447 156 398 156 C319 156 273 224 273 337 C273 452 321 517 400 517 C461 517 507 478 520 411 L539 411 L539 540 L520 540 C517 523 509 515 497 515 L497 515 Z " />
<glyph glyph-name="ordfeminine" unicode="&#xaa;" horiz-adv-x="354" d="M340 636 C214 636 112 536 112 437 C112 397 140 379 159 379 C176 379 200 399 256 450 L258 448 C254 432 253 432 253 417 C253 390 262 378 279 378 C299 378 338 400 370 435 L370 455 C344 428 331 420 327 420 C324 420 321 423 321 430 C322 439 324 447 326 456 L366 636 L340 636 Z M200 438 C181 438 173 451 173 475 C173 530 215 592 285 594 L264 484 C236 460 212 438 200 438 L200 438 Z " />
<glyph glyph-name="guillemotleft" unicode="&#xab;" horiz-adv-x="427" d="M37 224 L130 43 L162 43 L149 224 L258 406 L224 406 L37 224 Z M245 223 L319 54 L348 54 L354 223 L432 395 L399 395 L245 223 Z " />
<glyph glyph-name="logicalnot" unicode="&#xac;" horiz-adv-x="667" d="M91 480 L91 404 L549 404 L549 174 L625 174 L625 480 L91 480 Z " />
<glyph glyph-name="uni00AD" unicode="&#xad;" horiz-adv-x="417" d="M53 253 L33 153 L379 153 L399 253 L53 253 Z " />
<glyph glyph-name="registered" unicode="&#xae;" horiz-adv-x="750" d="M721 331 C721 519 568 677 375 677 C185 677 29 522 29 331 C29 141 183 -15 375 -15 C569 -15 721 143 721 331 L721 331 Z M375 28 C206 28 72 166 72 331 C72 497 208 634 374 634 C545 634 678 495 678 331 C678 168 546 28 375 28 L375 28 Z M190 532 L190 515 C228 513 233 496 233 455 L233 221 C233 172 227 153 182 153 L182 137 L389 137 L389 153 C340 155 330 164 330 215 L330 317 L352 317 L453 137 L571 137 L571 153 C553 156 536 170 524 193 L453 324 C509 340 540 376 540 425 C540 492 482 532 389 532 L190 532 Z M330 511 L350 511 C404 511 435 484 435 428 C435 371 398 340 358 340 L330 342 L330 511 Z " />
<glyph glyph-name="macron" unicode="&#xaf;" horiz-adv-x="333" d="M119 604 L98 518 L414 518 L435 604 L119 604 Z " />
<glyph glyph-name="degree" unicode="&#xb0;" horiz-adv-x="396" d="M417 469 C417 560 343 638 248 638 C153 638 79 560 79 469 C79 378 153 300 248 300 C343 300 417 378 417 469 L417 469 Z M248 364 C191 364 143 410 143 469 C143 528 191 574 247 574 C308 574 353 526 353 469 C353 415 310 364 248 364 L248 364 Z " />
<glyph glyph-name="plusminus" unicode="&#xb1;" horiz-adv-x="668" d="M321 677 L321 448 L92 448 L92 372 L321 372 L321 143 L397 143 L397 372 L626 372 L626 448 L397 448 L397 677 L321 677 Z M92 53 L92 -23 L626 -23 L626 53 L92 53 Z " />
<glyph glyph-name="twosuperior" unicode="&#xb2;" horiz-adv-x="292" d="M332 560 C332 603 291 636 235 636 C175 636 131 604 116 544 L147 544 C159 575 183 594 210 594 C233 594 244 583 244 560 C244 501 179 431 58 326 L58 305 L276 305 L297 394 L265 394 C260 373 254 368 234 368 L150 368 L150 370 C218 422 266 460 292 487 C319 514 332 539 332 560 L332 560 Z " />
<glyph glyph-name="threesuperior" unicode="&#xb3;" horiz-adv-x="292" d="M332 585 C332 616 299 636 257 636 C217 636 190 625 150 586 L171 569 C203 593 213 598 228 598 C241 598 251 590 251 574 C251 550 221 529 164 490 L157 459 C170 467 192 475 199 475 C215 475 225 460 225 436 C225 411 220 387 209 365 C198 344 187 333 174 333 C167 333 160 336 146 346 C133 355 120 362 108 362 C89 362 77 347 77 323 C77 306 95 298 127 298 C166 298 213 313 253 346 C293 379 313 417 313 451 C313 485 291 508 252 513 L252 515 C312 539 332 557 332 585 L332 585 Z " />
<glyph glyph-name="acute" unicode="&#xb4;" horiz-adv-x="333" d="M227 642 L160 477 L234 477 L344 642 L227 642 Z " />
<glyph glyph-name="mu" unicode="&#xb5;" horiz-adv-x="573" d="M163 409 L59 48 C48 8 28 -33 9 -66 C-15 -108 -33 -139 -33 -162 C-33 -193 -16 -216 10 -216 C28 -216 50 -202 62 -168 C68 -151 70 -102 71 -86 C72 -64 78 -10 95 36 C116 1 132 -14 172 -14 C236 -14 300 24 359 110 L361 108 C359 96 357 79 357 67 C357 18 378 -14 428 -14 C488 -14 522 24 549 100 L531 110 C512 69 493 36 475 36 C460 36 450 43 450 63 C450 75 454 94 457 105 L545 409 L441 409 L388 229 C375 185 356 147 330 115 C297 75 256 46 226 46 C196 46 184 65 184 93 C184 105 188 130 199 167 L268 409 L163 409 Z " />
<glyph glyph-name="paragraph" unicode="&#xb6;" horiz-adv-x="542" d="M355 622 C241 622 190 607 139 559 C101 524 77 465 77 397 C77 258 172 169 340 169 L340 -233 L389 -233 L389 584 L477 584 L477 -233 L526 -233 L526 531 C526 577 545 600 601 600 L618 600 L618 622 L355 622 Z " />
<glyph glyph-name="periodcentered" unicode="&#xb7;" horiz-adv-x="323" d="M280 331 C280 374 246 408 203 408 C160 408 126 374 126 331 C126 288 160 254 203 254 C246 254 280 288 280 331 L280 331 Z " />
<glyph glyph-name="cedilla" unicode="&#xb8;" horiz-adv-x="333" d="M100 -100 C120 -104 130 -113 130 -129 C130 -160 93 -176 41 -176 L35 -207 L48 -207 C148 -207 203 -164 203 -102 C203 -66 182 -41 147 -37 L153 -8 L122 -8 L100 -100 Z " />
<glyph glyph-name="onesuperior" unicode="&#xb9;" horiz-adv-x="292" d="M262 636 C239 604 189 571 118 542 L112 511 C147 525 173 536 202 552 L162 380 C151 336 142 328 103 328 L98 305 L276 305 L281 328 L269 328 C251 328 239 335 239 353 C239 360 243 375 245 384 L304 636 L262 636 Z " />
<glyph glyph-name="ordmasculine" unicode="&#xba;" horiz-adv-x="333" d="M368 548 C368 601 340 636 298 636 C212 636 122 554 122 464 C122 413 152 378 192 378 C279 378 368 459 368 548 L368 548 Z M232 408 C211 408 197 434 197 477 C197 533 226 605 258 605 C277 605 293 576 293 535 C293 463 258 408 232 408 L232 408 Z " />
<glyph glyph-name="guillemotright" unicode="&#xbb;" horiz-adv-x="427" d="M326 225 L217 43 L251 43 L438 225 L345 406 L313 406 L326 225 Z M121 226 L43 54 L76 54 L230 226 L156 395 L127 395 L121 226 Z " />
<glyph glyph-name="onequarter" unicode="&#xbc;" horiz-adv-x="844" d="M446 132 L436 81 L548 81 L525 -7 L604 -7 L625 81 L685 81 L695 132 L635 132 L682 328 L646 328 L446 132 Z M578 226 L580 224 L558 132 L486 132 L578 226 Z M262 636 C239 604 189 571 118 542 L112 511 C147 525 173 536 202 552 L162 380 C151 336 142 328 103 328 L98 305 L276 305 L281 328 L269 328 C251 328 239 335 239 353 C239 360 243 375 245 384 L304 636 L262 636 Z M580 672 L174 -29 L239 -29 L645 672 L580 672 Z " />
<glyph glyph-name="onehalf" unicode="&#xbd;" horiz-adv-x="844" d="M262 636 C239 604 189 571 118 542 L112 511 C147 525 173 536 202 552 L162 380 C151 336 142 328 103 328 L98 305 L276 305 L281 328 L269 328 C251 328 239 335 239 353 C239 360 243 375 245 384 L304 636 L262 636 Z M580 672 L174 -29 L239 -29 L645 672 L580 672 Z M714 255 C714 298 673 331 617 331 C557 331 513 299 498 239 L529 239 C541 270 565 289 592 289 C615 289 626 278 626 255 C626 196 561 126 440 21 L440 0 L658 0 L679 89 L647 89 C642 68 636 63 616 63 L532 63 L532 65 C600 117 648 155 674 182 C701 209 714 234 714 255 L714 255 Z " />
<glyph glyph-name="threequarters" unicode="&#xbe;" horiz-adv-x="844" d="M457 132 L447 81 L559 81 L536 -7 L615 -7 L636 81 L696 81 L706 132 L646 132 L693 328 L657 328 L457 132 Z M589 226 L591 224 L569 132 L497 132 L589 226 Z M358 585 C358 616 325 636 283 636 C243 636 216 625 176 586 L197 569 C229 593 239 598 254 598 C267 598 277 590 277 574 C277 550 247 529 190 490 L183 459 C196 467 218 475 225 475 C241 475 251 460 251 436 C251 411 246 387 235 365 C224 344 213 333 200 333 C193 333 186 336 172 346 C159 355 146 362 134 362 C115 362 103 347 103 323 C103 306 121 298 153 298 C192 298 239 313 279 346 C319 379 339 417 339 451 C339 485 317 508 278 513 L278 515 C338 539 358 557 358 585 L358 585 Z M591 672 L185 -29 L250 -29 L656 672 L591 672 Z " />
<glyph glyph-name="questiondown" unicode="&#xbf;" horiz-adv-x="427" d="M36 -68 C36 -173 94 -233 198 -233 C270 -233 316 -201 316 -153 C316 -124 295 -103 266 -103 C244 -103 225 -109 206 -115 C187 -121 171 -128 150 -128 C111 -128 83 -107 83 -79 C83 -50 107 -34 157 -14 C253 24 287 66 290 221 L257 221 C252 177 229 159 186 143 C134 124 88 93 61 41 C45 11 36 -27 36 -68 L36 -68 Z M232 335 C232 296 255 270 292 270 C333 270 365 307 365 347 C365 390 335 413 304 413 C261 413 232 378 232 335 L232 335 Z " />
<glyph glyph-name="Agrave" unicode="&#xc0;" horiz-adv-x="719" d="M489 637 L98 121 C56 66 24 39 -29 39 L-37 0 L201 0 L209 39 L195 39 C162 39 135 55 135 83 C135 100 149 117 162 135 L245 244 L466 244 L468 117 C469 58 444 39 388 39 L367 39 L359 0 L672 0 L680 39 L666 39 C600 39 592 64 591 110 L584 637 L489 637 Z M462 530 L465 530 L465 302 L289 302 L462 530 Z M453 842 L563 677 L637 677 L570 842 L453 842 Z " />
<glyph glyph-name="Aacute" unicode="&#xc1;" horiz-adv-x="719" d="M489 637 L98 121 C56 66 24 39 -29 39 L-37 0 L201 0 L209 39 L195 39 C162 39 135 55 135 83 C135 100 149 117 162 135 L245 244 L466 244 L468 117 C469 58 444 39 388 39 L367 39 L359 0 L672 0 L680 39 L666 39 C600 39 592 64 591 110 L584 637 L489 637 Z M462 530 L465 530 L465 302 L289 302 L462 530 Z M554 842 L487 677 L561 677 L671 842 L554 842 Z " />
<glyph glyph-name="Acircumflex" unicode="&#xc2;" horiz-adv-x="719" d="M489 637 L98 121 C56 66 24 39 -29 39 L-37 0 L201 0 L209 39 L195 39 C162 39 135 55 135 83 C135 100 149 117 162 135 L245 244 L466 244 L468 117 C469 58 444 39 388 39 L367 39 L359 0 L672 0 L680 39 L666 39 C600 39 592 64 591 110 L584 637 L489 637 Z M462 530 L465 530 L465 302 L289 302 L462 530 Z M536 842 L398 678 L469 678 L593 755 L631 678 L705 678 L668 842 L536 842 Z " />
<glyph glyph-name="Atilde" unicode="&#xc3;" horiz-adv-x="719" d="M489 637 L98 121 C56 66 24 39 -29 39 L-37 0 L201 0 L209 39 L195 39 C162 39 135 55 135 83 C135 100 149 117 162 135 L245 244 L466 244 L468 117 C469 58 444 39 388 39 L367 39 L359 0 L672 0 L680 39 L666 39 C600 39 592 64 591 110 L584 637 L489 637 Z M462 530 L465 530 L465 302 L289 302 L462 530 Z M642 786 C627 786 606 793 573 808 C541 823 514 831 496 831 C436 831 392 777 392 689 L458 689 C465 720 474 733 497 733 C513 733 538 725 570 710 C603 695 627 688 644 688 C699 688 745 747 745 830 L681 830 C673 801 661 786 642 786 L642 786 Z " />
<glyph glyph-name="Adieresis" unicode="&#xc4;" horiz-adv-x="719" d="M489 637 L98 121 C56 66 24 39 -29 39 L-37 0 L201 0 L209 39 L195 39 C162 39 135 55 135 83 C135 100 149 117 162 135 L245 244 L466 244 L468 117 C469 58 444 39 388 39 L367 39 L359 0 L672 0 L680 39 L666 39 C600 39 592 64 591 110 L584 637 L489 637 Z M462 530 L465 530 L465 302 L289 302 L462 530 Z M527 760 C527 792 500 818 468 818 C436 818 410 792 410 760 C410 728 436 701 468 701 C500 701 527 728 527 760 L527 760 Z M723 760 C723 792 696 818 664 818 C632 818 606 792 606 760 C606 728 632 701 664 701 C696 701 723 728 723 760 L723 760 Z " />
<glyph glyph-name="Aring" unicode="&#xc5;" horiz-adv-x="719" d="M489 637 L98 121 C56 66 24 39 -29 39 L-37 0 L201 0 L209 39 L195 39 C162 39 135 55 135 83 C135 100 149 117 162 135 L245 244 L466 244 L468 117 C469 58 444 39 388 39 L367 39 L359 0 L672 0 L680 39 L666 39 C600 39 592 64 591 110 L584 637 L489 637 Z M462 530 L465 530 L465 302 L289 302 L462 530 Z M663 765 C663 820 618 863 565 863 C511 863 467 820 467 765 C467 710 512 667 565 667 C619 667 663 710 663 765 L663 765 Z M565 702 C530 702 503 730 503 765 C503 800 531 827 564 827 C600 827 628 800 628 765 C628 730 600 702 565 702 L565 702 Z " />
<glyph glyph-name="AE" unicode="&#xc6;" horiz-adv-x="958" d="M367 622 L359 583 L403 583 C419 583 429 576 429 563 C429 556 428 548 412 527 L87 120 C42 64 -10 39 -42 39 L-50 0 L180 0 L188 39 L180 39 C140 39 124 53 124 76 C124 112 172 157 237 239 L439 239 C428 186 421 149 411 108 C401 66 379 39 322 39 L314 0 L869 0 L925 154 L880 154 C860 128 820 96 799 84 C761 62 715 42 653 42 L615 42 C556 42 538 61 538 96 C538 105 540 120 541 125 L575 291 L721 291 C760 291 789 283 789 235 C789 224 787 214 786 202 L826 202 L867 403 L826 403 C811 349 780 333 732 333 L584 333 L634 580 L790 580 C859 580 892 547 892 495 C892 487 892 479 891 471 L938 471 L969 622 L367 622 Z M509 581 L448 281 L271 281 L507 583 L509 581 Z " />
<glyph glyph-name="Ccedilla" unicode="&#xc7;" horiz-adv-x="729" d="M736 596 C676 622 607 636 527 636 C241 636 88 459 88 264 C88 126 191 8 331 -11 L310 -100 C330 -104 340 -113 340 -129 C340 -160 303 -176 251 -176 L245 -207 L258 -207 C358 -207 413 -164 413 -102 C413 -66 392 -41 357 -37 L362 -15 C447 -15 529 13 558 13 C574 13 581 11 593 0 L615 0 L666 159 L625 159 C568 75 488 29 400 29 C291 29 227 110 227 242 C227 458 347 593 500 593 C595 593 658 531 658 452 L658 438 L698 438 L736 596 Z " />
<glyph glyph-name="Egrave" unicode="&#xc8;" horiz-adv-x="656" d="M118 622 L110 583 L124 583 C176 583 197 567 197 528 C197 521 195 508 192 491 L120 136 C103 54 79 40 24 39 L16 0 L571 0 L627 154 L582 154 C530 88 442 42 357 42 L321 42 C280 42 227 45 243 122 L277 291 L423 291 C462 291 491 283 491 235 C491 224 489 214 488 202 L528 202 L569 403 L528 403 C513 349 482 333 434 333 L286 333 L336 580 L489 580 C517 580 595 575 595 493 C595 486 594 479 593 471 L640 471 L671 622 L118 622 Z M336 842 L446 677 L520 677 L453 842 L336 842 Z " />
<glyph glyph-name="Eacute" unicode="&#xc9;" horiz-adv-x="656" d="M118 622 L110 583 L124 583 C176 583 197 567 197 528 C197 521 195 508 192 491 L120 136 C103 54 79 40 24 39 L16 0 L571 0 L627 154 L582 154 C530 88 442 42 357 42 L321 42 C280 42 227 45 243 122 L277 291 L423 291 C462 291 491 283 491 235 C491 224 489 214 488 202 L528 202 L569 403 L528 403 C513 349 482 333 434 333 L286 333 L336 580 L489 580 C517 580 595 575 595 493 C595 486 594 479 593 471 L640 471 L671 622 L118 622 Z M437 842 L370 677 L444 677 L554 842 L437 842 Z " />
<glyph glyph-name="Ecircumflex" unicode="&#xca;" horiz-adv-x="656" d="M118 622 L110 583 L124 583 C176 583 197 567 197 528 C197 521 195 508 192 491 L120 136 C103 54 79 40 24 39 L16 0 L571 0 L627 154 L582 154 C530 88 442 42 357 42 L321 42 C280 42 227 45 243 122 L277 291 L423 291 C462 291 491 283 491 235 C491 224 489 214 488 202 L528 202 L569 403 L528 403 C513 349 482 333 434 333 L286 333 L336 580 L489 580 C517 580 595 575 595 493 C595 486 594 479 593 471 L640 471 L671 622 L118 622 Z M419 842 L281 678 L352 678 L476 755 L514 678 L588 678 L551 842 L419 842 Z " />
<glyph glyph-name="Edieresis" unicode="&#xcb;" horiz-adv-x="656" d="M118 622 L110 583 L124 583 C176 583 197 567 197 528 C197 521 195 508 192 491 L120 136 C103 54 79 40 24 39 L16 0 L571 0 L627 154 L582 154 C530 88 442 42 357 42 L321 42 C280 42 227 45 243 122 L277 291 L423 291 C462 291 491 283 491 235 C491 224 489 214 488 202 L528 202 L569 403 L528 403 C513 349 482 333 434 333 L286 333 L336 580 L489 580 C517 580 595 575 595 493 C595 486 594 479 593 471 L640 471 L671 622 L118 622 Z M410 760 C410 792 383 818 351 818 C319 818 293 792 293 760 C293 728 319 701 351 701 C383 701 410 728 410 760 L410 760 Z M606 760 C606 792 579 818 547 818 C515 818 489 792 489 760 C489 728 515 701 547 701 C579 701 606 728 606 760 L606 760 Z " />
<glyph glyph-name="Igrave" unicode="&#xcc;" horiz-adv-x="375" d="M122 622 L114 583 C164 583 202 579 202 526 C202 517 200 504 198 496 L124 132 C110 65 90 40 30 39 L16 39 L8 0 L332 0 L340 39 L311 39 C268 39 245 54 245 94 C245 102 247 118 249 126 L327 509 C337 560 371 583 430 583 L438 622 L122 622 Z M194 842 L304 677 L378 677 L311 842 L194 842 Z " />
<glyph glyph-name="Iacute" unicode="&#xcd;" horiz-adv-x="375" d="M122 622 L114 583 C164 583 202 579 202 526 C202 517 200 504 198 496 L124 132 C110 65 90 40 30 39 L16 39 L8 0 L332 0 L340 39 L311 39 C268 39 245 54 245 94 C245 102 247 118 249 126 L327 509 C337 560 371 583 430 583 L438 622 L122 622 Z M295 842 L228 677 L302 677 L412 842 L295 842 Z " />
<glyph glyph-name="Icircumflex" unicode="&#xce;" horiz-adv-x="375" d="M122 622 L114 583 C164 583 202 579 202 526 C202 517 200 504 198 496 L124 132 C110 65 90 40 30 39 L16 39 L8 0 L332 0 L340 39 L311 39 C268 39 245 54 245 94 C245 102 247 118 249 126 L327 509 C337 560 371 583 430 583 L438 622 L122 622 Z M277 842 L139 678 L210 678 L334 755 L372 678 L446 678 L409 842 L277 842 Z " />
<glyph glyph-name="Idieresis" unicode="&#xcf;" horiz-adv-x="375" d="M122 622 L114 583 C164 583 202 579 202 526 C202 517 200 504 198 496 L124 132 C110 65 90 40 30 39 L16 39 L8 0 L332 0 L340 39 L311 39 C268 39 245 54 245 94 C245 102 247 118 249 126 L327 509 C337 560 371 583 430 583 L438 622 L122 622 Z M268 760 C268 792 241 818 209 818 C177 818 151 792 151 760 C151 728 177 701 209 701 C241 701 268 728 268 760 L268 760 Z M464 760 C464 792 437 818 405 818 C373 818 347 792 347 760 C347 728 373 701 405 701 C437 701 464 728 464 760 L464 760 Z " />
<glyph glyph-name="Eth" unicode="&#xd0;" horiz-adv-x="802" d="M119 622 L111 583 L127 583 C177 583 200 568 200 528 C200 521 199 511 196 496 L163 331 L55 331 L47 289 L155 289 L120 122 C108 64 82 40 33 39 L20 39 L12 0 L384 0 C491 0 581 27 649 75 C740 139 790 243 790 351 C790 530 671 622 460 622 L119 622 Z M339 580 L422 580 C560 580 648 493 648 359 C648 298 624 198 572 138 C521 79 442 43 338 43 C271 43 243 55 243 94 C243 119 254 152 281 289 L437 289 L445 331 L289 331 L339 580 Z " />
<glyph glyph-name="Ntilde" unicode="&#xd1;" horiz-adv-x="771" d="M126 622 L118 583 C158 582 179 569 203 534 L123 141 C111 84 81 39 32 39 L24 0 L242 0 L250 39 C186 46 163 76 163 120 C163 124 164 133 167 148 L236 489 L592 -5 L635 -5 L731 465 C744 528 770 573 829 583 L837 622 L619 622 L611 583 C667 580 693 561 693 510 C693 497 691 480 688 465 L626 159 L291 622 L126 622 Z M581 786 C566 786 545 793 512 808 C480 823 453 831 435 831 C375 831 331 777 331 689 L397 689 C404 720 413 733 436 733 C452 733 477 725 509 710 C542 695 566 688 583 688 C638 688 684 747 684 830 L620 830 C612 801 600 786 581 786 L581 786 Z " />
<glyph glyph-name="Ograve" unicode="&#xd2;" horiz-adv-x="823" d="M808 334 C808 511 676 636 480 636 C363 636 284 605 216 551 C136 487 88 397 88 283 C88 209 119 137 169 84 C228 22 317 -14 424 -14 C646 -14 808 140 808 334 L808 334 Z M416 29 C299 29 226 109 226 236 C226 444 336 593 484 593 C595 593 670 515 670 383 C670 313 652 222 618 160 C575 80 509 29 416 29 L416 29 Z M418 842 L528 677 L602 677 L535 842 L418 842 Z " />
<glyph glyph-name="Oacute" unicode="&#xd3;" horiz-adv-x="823" d="M808 334 C808 511 676 636 480 636 C363 636 284 605 216 551 C136 487 88 397 88 283 C88 209 119 137 169 84 C228 22 317 -14 424 -14 C646 -14 808 140 808 334 L808 334 Z M416 29 C299 29 226 109 226 236 C226 444 336 593 484 593 C595 593 670 515 670 383 C670 313 652 222 618 160 C575 80 509 29 416 29 L416 29 Z M519 842 L452 677 L526 677 L636 842 L519 842 Z " />
<glyph glyph-name="Ocircumflex" unicode="&#xd4;" horiz-adv-x="823" d="M808 334 C808 511 676 636 480 636 C363 636 284 605 216 551 C136 487 88 397 88 283 C88 209 119 137 169 84 C228 22 317 -14 424 -14 C646 -14 808 140 808 334 L808 334 Z M416 29 C299 29 226 109 226 236 C226 444 336 593 484 593 C595 593 670 515 670 383 C670 313 652 222 618 160 C575 80 509 29 416 29 L416 29 Z M501 842 L363 678 L434 678 L558 755 L596 678 L670 678 L633 842 L501 842 Z " />
<glyph glyph-name="Otilde" unicode="&#xd5;" horiz-adv-x="823" d="M808 334 C808 511 676 636 480 636 C363 636 284 605 216 551 C136 487 88 397 88 283 C88 209 119 137 169 84 C228 22 317 -14 424 -14 C646 -14 808 140 808 334 L808 334 Z M416 29 C299 29 226 109 226 236 C226 444 336 593 484 593 C595 593 670 515 670 383 C670 313 652 222 618 160 C575 80 509 29 416 29 L416 29 Z M607 786 C592 786 571 793 538 808 C506 823 479 831 461 831 C401 831 357 777 357 689 L423 689 C430 720 439 733 462 733 C478 733 503 725 535 710 C568 695 592 688 609 688 C664 688 710 747 710 830 L646 830 C638 801 626 786 607 786 L607 786 Z " />
<glyph glyph-name="Odieresis" unicode="&#xd6;" horiz-adv-x="823" d="M808 334 C808 511 676 636 480 636 C363 636 284 605 216 551 C136 487 88 397 88 283 C88 209 119 137 169 84 C228 22 317 -14 424 -14 C646 -14 808 140 808 334 L808 334 Z M416 29 C299 29 226 109 226 236 C226 444 336 593 484 593 C595 593 670 515 670 383 C670 313 652 222 618 160 C575 80 509 29 416 29 L416 29 Z M492 760 C492 792 465 818 433 818 C401 818 375 792 375 760 C375 728 401 701 433 701 C465 701 492 728 492 760 L492 760 Z M688 760 C688 792 661 818 629 818 C597 818 571 792 571 760 C571 728 597 701 629 701 C661 701 688 728 688 760 L688 760 Z " />
<glyph glyph-name="multiply" unicode="&#xd7;" horiz-adv-x="667" d="M164 573 L110 519 L304 325 L111 132 L165 78 L358 271 L552 77 L606 131 L412 325 L606 519 L552 573 L358 379 L164 573 Z " />
<glyph glyph-name="Oslash" unicode="&#xd8;" horiz-adv-x="823" d="M659 593 C608 622 549 636 480 636 C339 636 243 588 174 511 C119 450 88 377 88 283 C88 204 124 116 201 56 L141 -15 L173 -42 L236 32 C287 4 348 -14 424 -14 C641 -14 808 136 808 334 C808 430 768 515 695 570 L755 640 L723 667 L659 593 Z M254 118 C236 149 226 188 226 236 C226 442 334 593 484 593 C539 593 583 574 615 541 L254 118 Z M641 506 C660 471 670 431 670 383 C670 295 643 182 589 115 C547 63 494 29 416 29 C357 29 312 49 280 83 L641 506 Z " />
<glyph glyph-name="Ugrave" unicode="&#xd9;" horiz-adv-x="750" d="M111 622 L103 583 L115 583 C162 582 183 565 183 524 C183 516 180 503 178 491 L124 228 C120 208 118 190 118 173 C118 117 140 77 185 40 C229 4 295 -14 380 -14 C449 -14 504 0 544 29 C644 102 663 186 681 295 L711 477 C721 537 751 576 808 583 L816 622 L585 622 L577 583 C665 568 678 531 667 467 L636 285 C619 183 592 124 551 89 C511 54 461 36 402 36 C309 36 240 82 240 153 C240 173 244 194 252 235 L306 502 C318 563 348 582 409 583 L417 622 L111 622 Z M383 842 L493 677 L567 677 L500 842 L383 842 Z " />
<glyph glyph-name="Uacute" unicode="&#xda;" horiz-adv-x="750" d="M111 622 L103 583 L115 583 C162 582 183 565 183 524 C183 516 180 503 178 491 L124 228 C120 208 118 190 118 173 C118 117 140 77 185 40 C229 4 295 -14 380 -14 C449 -14 504 0 544 29 C644 102 663 186 681 295 L711 477 C721 537 751 576 808 583 L816 622 L585 622 L577 583 C665 568 678 531 667 467 L636 285 C619 183 592 124 551 89 C511 54 461 36 402 36 C309 36 240 82 240 153 C240 173 244 194 252 235 L306 502 C318 563 348 582 409 583 L417 622 L111 622 Z M484 842 L417 677 L491 677 L601 842 L484 842 Z " />
<glyph glyph-name="Ucircumflex" unicode="&#xdb;" horiz-adv-x="750" d="M111 622 L103 583 L115 583 C162 582 183 565 183 524 C183 516 180 503 178 491 L124 228 C120 208 118 190 118 173 C118 117 140 77 185 40 C229 4 295 -14 380 -14 C449 -14 504 0 544 29 C644 102 663 186 681 295 L711 477 C721 537 751 576 808 583 L816 622 L585 622 L577 583 C665 568 678 531 667 467 L636 285 C619 183 592 124 551 89 C511 54 461 36 402 36 C309 36 240 82 240 153 C240 173 244 194 252 235 L306 502 C318 563 348 582 409 583 L417 622 L111 622 Z M466 842 L328 678 L399 678 L523 755 L561 678 L635 678 L598 842 L466 842 Z " />
<glyph glyph-name="Udieresis" unicode="&#xdc;" horiz-adv-x="750" d="M111 622 L103 583 L115 583 C162 582 183 565 183 524 C183 516 180 503 178 491 L124 228 C120 208 118 190 118 173 C118 117 140 77 185 40 C229 4 295 -14 380 -14 C449 -14 504 0 544 29 C644 102 663 186 681 295 L711 477 C721 537 751 576 808 583 L816 622 L585 622 L577 583 C665 568 678 531 667 467 L636 285 C619 183 592 124 551 89 C511 54 461 36 402 36 C309 36 240 82 240 153 C240 173 244 194 252 235 L306 502 C318 563 348 582 409 583 L417 622 L111 622 Z M457 760 C457 792 430 818 398 818 C366 818 340 792 340 760 C340 728 366 701 398 701 C430 701 457 728 457 760 L457 760 Z M653 760 C653 792 626 818 594 818 C562 818 536 792 536 760 C536 728 562 701 594 701 C626 701 653 728 653 760 L653 760 Z " />
<glyph glyph-name="Yacute" unicode="&#xdd;" horiz-adv-x="667" d="M104 622 L96 583 C140 583 154 575 178 524 L302 256 L277 133 C263 62 238 39 177 39 L166 39 L158 0 L491 0 L499 39 L465 39 C421 39 397 55 397 92 C397 98 400 114 403 131 L428 256 L628 482 C683 543 707 567 749 583 L757 622 L556 622 L548 583 C592 578 610 559 610 542 C610 522 596 509 579 490 L416 306 L311 532 C295 567 304 582 353 583 L361 622 L104 622 Z M442 842 L375 677 L449 677 L559 842 L442 842 Z " />
<glyph glyph-name="Thorn" unicode="&#xde;" horiz-adv-x="635" d="M116 622 L108 583 L124 583 C176 583 199 567 199 529 C199 520 198 512 195 496 L118 122 C106 62 77 39 29 39 L17 39 L9 0 L326 0 L334 39 L309 39 C263 39 241 52 241 91 C241 103 241 110 248 139 C301 115 332 110 384 110 C524 110 633 207 633 336 C633 450 543 511 407 511 L324 511 C335 560 356 583 422 583 L430 622 L116 622 Z M380 469 C448 469 490 437 490 351 C490 234 432 155 339 155 C304 155 283 165 256 178 L315 469 L380 469 Z " />
<glyph glyph-name="germandbls" unicode="&#xdf;" horiz-adv-x="490" d="M492 549 C492 622 435 672 353 672 C298 672 248 651 203 608 C159 565 129 499 117 426 L41 -26 C35 -62 29 -97 20 -134 C11 -172 -2 -193 -22 -193 C-36 -193 -50 -181 -65 -157 C-80 -133 -100 -121 -124 -121 C-155 -121 -182 -143 -182 -170 C-182 -205 -137 -230 -80 -230 C-6 -230 59 -192 106 -115 C129 -78 145 -38 161 54 L236 498 C253 597 286 645 329 645 C362 645 384 615 384 567 C384 476 341 407 279 395 L274 372 C310 344 329 302 329 236 C329 112 285 31 209 16 L204 -9 L229 -9 C281 -9 340 14 382 62 C424 110 445 171 445 233 C445 313 405 365 329 382 L329 384 C441 419 492 469 492 549 L492 549 Z " />
<glyph glyph-name="agrave" unicode="&#xe0;" horiz-adv-x="458" d="M420 419 C321 419 262 406 213 377 C164 348 121 306 84 253 C48 200 30 144 30 86 C30 26 68 -11 99 -11 C109 -11 123 -4 142 10 C164 26 197 59 249 112 L251 112 C244 77 244 67 244 50 C244 10 259 -11 284 -11 C323 -11 377 33 427 85 L427 118 C390 77 367 59 358 59 C353 59 350 62 350 70 C350 79 354 98 355 101 L420 419 Z M164 81 C139 81 123 109 123 150 C123 192 137 242 166 288 C195 333 239 358 300 358 L259 154 C215 109 187 81 164 81 L164 81 Z M189 642 L299 477 L373 477 L306 642 L189 642 Z " />
<glyph glyph-name="aacute" unicode="&#xe1;" horiz-adv-x="458" d="M420 419 C321 419 262 406 213 377 C164 348 121 306 84 253 C48 200 30 144 30 86 C30 26 68 -11 99 -11 C109 -11 123 -4 142 10 C164 26 197 59 249 112 L251 112 C244 77 244 67 244 50 C244 10 259 -11 284 -11 C323 -11 377 33 427 85 L427 118 C390 77 367 59 358 59 C353 59 350 62 350 70 C350 79 354 98 355 101 L420 419 Z M164 81 C139 81 123 109 123 150 C123 192 137 242 166 288 C195 333 239 358 300 358 L259 154 C215 109 187 81 164 81 L164 81 Z M290 642 L223 477 L297 477 L407 642 L290 642 Z " />
<glyph glyph-name="acircumflex" unicode="&#xe2;" horiz-adv-x="458" d="M420 419 C321 419 262 406 213 377 C164 348 121 306 84 253 C48 200 30 144 30 86 C30 26 68 -11 99 -11 C109 -11 123 -4 142 10 C164 26 197 59 249 112 L251 112 C244 77 244 67 244 50 C244 10 259 -11 284 -11 C323 -11 377 33 427 85 L427 118 C390 77 367 59 358 59 C353 59 350 62 350 70 C350 79 354 98 355 101 L420 419 Z M164 81 C139 81 123 109 123 150 C123 192 137 242 166 288 C195 333 239 358 300 358 L259 154 C215 109 187 81 164 81 L164 81 Z M272 642 L134 478 L205 478 L329 555 L367 478 L441 478 L404 642 L272 642 Z " />
<glyph glyph-name="atilde" unicode="&#xe3;" horiz-adv-x="458" d="M420 419 C321 419 262 406 213 377 C164 348 121 306 84 253 C48 200 30 144 30 86 C30 26 68 -11 99 -11 C109 -11 123 -4 142 10 C164 26 197 59 249 112 L251 112 C244 77 244 67 244 50 C244 10 259 -11 284 -11 C323 -11 377 33 427 85 L427 118 C390 77 367 59 358 59 C353 59 350 62 350 70 C350 79 354 98 355 101 L420 419 Z M164 81 C139 81 123 109 123 150 C123 192 137 242 166 288 C195 333 239 358 300 358 L259 154 C215 109 187 81 164 81 L164 81 Z M378 586 C363 586 342 593 309 608 C277 623 250 631 232 631 C172 631 128 577 128 489 L194 489 C201 520 210 533 233 533 C249 533 274 525 306 510 C339 495 363 488 380 488 C435 488 481 547 481 630 L417 630 C409 601 397 586 378 586 L378 586 Z " />
<glyph glyph-name="adieresis" unicode="&#xe4;" horiz-adv-x="458" d="M420 419 C321 419 262 406 213 377 C164 348 121 306 84 253 C48 200 30 144 30 86 C30 26 68 -11 99 -11 C109 -11 123 -4 142 10 C164 26 197 59 249 112 L251 112 C244 77 244 67 244 50 C244 10 259 -11 284 -11 C323 -11 377 33 427 85 L427 118 C390 77 367 59 358 59 C353 59 350 62 350 70 C350 79 354 98 355 101 L420 419 Z M164 81 C139 81 123 109 123 150 C123 192 137 242 166 288 C195 333 239 358 300 358 L259 154 C215 109 187 81 164 81 L164 81 Z M263 560 C263 592 236 618 204 618 C172 618 146 592 146 560 C146 528 172 501 204 501 C236 501 263 528 263 560 L263 560 Z M459 560 C459 592 432 618 400 618 C368 618 342 592 342 560 C342 528 368 501 400 501 C432 501 459 528 459 560 L459 560 Z " />
<glyph glyph-name="aring" unicode="&#xe5;" horiz-adv-x="458" d="M420 419 C321 419 262 406 213 377 C164 348 121 306 84 253 C48 200 30 144 30 86 C30 26 68 -11 99 -11 C109 -11 123 -4 142 10 C164 26 197 59 249 112 L251 112 C244 77 244 67 244 50 C244 10 259 -11 284 -11 C323 -11 377 33 427 85 L427 118 C390 77 367 59 358 59 C353 59 350 62 350 70 C350 79 354 98 355 101 L420 419 Z M164 81 C139 81 123 109 123 150 C123 192 137 242 166 288 C195 333 239 358 300 358 L259 154 C215 109 187 81 164 81 L164 81 Z M387 565 C387 620 342 663 289 663 C235 663 191 620 191 565 C191 510 236 467 289 467 C343 467 387 510 387 565 L387 565 Z M289 502 C254 502 227 530 227 565 C227 600 255 627 288 627 C324 627 352 600 352 565 C352 530 324 502 289 502 L289 502 Z " />
<glyph glyph-name="ae" unicode="&#xe6;" horiz-adv-x="615" d="M418 419 C336 419 281 411 238 391 C176 362 123 313 82 253 C46 201 28 142 28 86 C28 30 61 -11 106 -11 C133 -11 213 66 262 113 L265 113 C265 36 317 -10 383 -10 C450 -10 513 27 588 78 L575 101 C534 70 492 50 461 50 C443 50 419 57 405 67 C383 83 377 110 377 145 C377 161 378 170 382 189 C547 228 608 272 608 345 C608 394 575 419 517 419 C485 419 460 412 411 388 L418 419 Z M387 215 C415 327 434 391 479 391 C501 391 516 373 516 346 C516 278 468 230 387 215 L387 215 Z M163 79 C139 79 117 110 117 147 C117 207 147 292 197 329 C225 350 263 358 310 358 L270 157 C234 113 188 79 163 79 L163 79 Z " />
<glyph glyph-name="ccedilla" unicode="&#xe7;" horiz-adv-x="333" d="M345 366 C345 399 320 419 281 419 C217 419 151 383 103 310 C55 238 32 163 32 106 C32 42 66 0 122 -9 L100 -100 C120 -104 130 -113 130 -129 C130 -160 93 -176 41 -176 L35 -207 L48 -207 C148 -207 203 -164 203 -102 C203 -66 182 -41 147 -37 L153 -10 C216 -10 280 30 315 89 L297 104 C273 71 237 49 208 49 C165 49 142 83 142 152 C142 233 163 358 211 358 C227 358 236 345 248 333 C259 323 270 313 293 313 C324 313 345 334 345 366 L345 366 Z " />
<glyph glyph-name="egrave" unicode="&#xe8;" horiz-adv-x="375" d="M370 346 C370 390 338 419 289 419 C148 419 37 250 37 121 C37 41 83 -11 149 -11 C206 -11 282 25 351 80 L338 98 C294 64 256 50 227 50 C179 50 148 82 148 135 C148 152 150 174 154 191 C278 219 370 266 370 346 L370 346 Z M159 214 C179 301 206 387 248 387 C267 387 279 369 279 344 C279 281 239 238 159 214 L159 214 Z M147 642 L257 477 L331 477 L264 642 L147 642 Z " />
<glyph glyph-name="eacute" unicode="&#xe9;" horiz-adv-x="375" d="M370 346 C370 390 338 419 289 419 C148 419 37 250 37 121 C37 41 83 -11 149 -11 C206 -11 282 25 351 80 L338 98 C294 64 256 50 227 50 C179 50 148 82 148 135 C148 152 150 174 154 191 C278 219 370 266 370 346 L370 346 Z M159 214 C179 301 206 387 248 387 C267 387 279 369 279 344 C279 281 239 238 159 214 L159 214 Z M248 642 L181 477 L255 477 L365 642 L248 642 Z " />
<glyph glyph-name="ecircumflex" unicode="&#xea;" horiz-adv-x="375" d="M370 346 C370 390 338 419 289 419 C148 419 37 250 37 121 C37 41 83 -11 149 -11 C206 -11 282 25 351 80 L338 98 C294 64 256 50 227 50 C179 50 148 82 148 135 C148 152 150 174 154 191 C278 219 370 266 370 346 L370 346 Z M159 214 C179 301 206 387 248 387 C267 387 279 369 279 344 C279 281 239 238 159 214 L159 214 Z M230 642 L92 478 L163 478 L287 555 L325 478 L399 478 L362 642 L230 642 Z " />
<glyph glyph-name="edieresis" unicode="&#xeb;" horiz-adv-x="375" d="M370 346 C370 390 338 419 289 419 C148 419 37 250 37 121 C37 41 83 -11 149 -11 C206 -11 282 25 351 80 L338 98 C294 64 256 50 227 50 C179 50 148 82 148 135 C148 152 150 174 154 191 C278 219 370 266 370 346 L370 346 Z M159 214 C179 301 206 387 248 387 C267 387 279 369 279 344 C279 281 239 238 159 214 L159 214 Z M221 560 C221 592 194 618 162 618 C130 618 104 592 104 560 C104 528 130 501 162 501 C194 501 221 528 221 560 L221 560 Z M417 560 C417 592 390 618 358 618 C326 618 300 592 300 560 C300 528 326 501 358 501 C390 501 417 528 417 560 L417 560 Z " />
<glyph glyph-name="igrave" unicode="&#xec;" horiz-adv-x="292" d="M225 362 C225 397 208 419 182 419 C143 419 95 383 31 298 L50 282 L69 307 C82 325 98 337 105 337 C113 337 114 329 114 324 C108 279 55 90 55 49 C55 14 78 -11 109 -11 C150 -11 206 23 262 87 L244 103 C219 75 190 51 174 51 C166 51 162 54 162 63 C162 71 164 84 166 92 L215 294 C222 322 225 347 225 362 L225 362 Z M106 642 L216 477 L290 477 L223 642 L106 642 Z " />
<glyph glyph-name="iacute" unicode="&#xed;" horiz-adv-x="292" d="M225 362 C225 397 208 419 182 419 C143 419 95 383 31 298 L50 282 L69 307 C82 325 98 337 105 337 C113 337 114 329 114 324 C108 279 55 90 55 49 C55 14 78 -11 109 -11 C150 -11 206 23 262 87 L244 103 C219 75 190 51 174 51 C166 51 162 54 162 63 C162 71 164 84 166 92 L215 294 C222 322 225 347 225 362 L225 362 Z M207 642 L140 477 L214 477 L324 642 L207 642 Z " />
<glyph glyph-name="icircumflex" unicode="&#xee;" horiz-adv-x="292" d="M225 362 C225 397 208 419 182 419 C143 419 95 383 31 298 L50 282 L69 307 C82 325 98 337 105 337 C113 337 114 329 114 324 C108 279 55 90 55 49 C55 14 78 -11 109 -11 C150 -11 206 23 262 87 L244 103 C219 75 190 51 174 51 C166 51 162 54 162 63 C162 71 164 84 166 92 L215 294 C222 322 225 347 225 362 L225 362 Z M189 642 L51 478 L122 478 L246 555 L284 478 L358 478 L321 642 L189 642 Z " />
<glyph glyph-name="idieresis" unicode="&#xef;" horiz-adv-x="292" d="M225 362 C225 397 208 419 182 419 C143 419 95 383 31 298 L50 282 L69 307 C82 325 98 337 105 337 C113 337 114 329 114 324 C108 279 55 90 55 49 C55 14 78 -11 109 -11 C150 -11 206 23 262 87 L244 103 C219 75 190 51 174 51 C166 51 162 54 162 63 C162 71 164 84 166 92 L215 294 C222 322 225 347 225 362 L225 362 Z M180 560 C180 592 153 618 121 618 C89 618 63 592 63 560 C63 528 89 501 121 501 C153 501 180 528 180 560 L180 560 Z M376 560 C376 592 349 618 317 618 C285 618 259 592 259 560 C259 528 285 501 317 501 C349 501 376 528 376 560 L376 560 Z " />
<glyph glyph-name="eth" unicode="&#xf0;" horiz-adv-x="417" d="M229 645 C247 622 264 589 277 552 L162 497 L177 468 L287 520 C298 485 306 444 307 401 L303 400 C291 414 273 419 254 419 C204 419 146 389 100 344 C44 288 2 212 2 132 C2 44 50 -11 115 -11 C186 -11 257 23 314 76 C380 137 421 224 421 351 C421 410 402 487 362 556 L475 610 L460 639 L345 584 C322 620 292 650 256 669 L229 645 Z M184 31 C142 31 118 83 118 156 C118 273 167 378 231 378 C269 378 290 333 290 261 C290 128 230 31 184 31 L184 31 Z " />
<glyph glyph-name="ntilde" unicode="&#xf1;" horiz-adv-x="510" d="M226 365 C226 400 212 419 188 419 C146 419 75 356 29 284 L49 270 C80 315 99 334 109 334 C115 334 116 330 116 326 C116 323 109 293 109 291 L53 18 C51 7 53 -5 70 -5 L130 -5 C145 -5 155 -5 160 19 L196 193 C239 248 302 335 329 335 C338 335 344 330 344 317 C344 308 337 282 336 277 L294 96 C288 71 286 54 286 45 C286 14 306 -11 331 -11 C378 -11 436 35 489 108 L470 123 C443 87 411 57 402 57 C399 57 397 59 397 67 C397 78 401 95 403 102 L450 302 C453 315 461 339 461 361 C461 397 442 419 411 419 C357 419 293 367 208 244 L206 246 C214 285 226 329 226 365 L226 365 Z M404 586 C389 586 368 593 335 608 C303 623 276 631 258 631 C198 631 154 577 154 489 L220 489 C227 520 236 533 259 533 C275 533 300 525 332 510 C365 495 389 488 406 488 C461 488 507 547 507 630 L443 630 C435 601 423 586 404 586 L404 586 Z " />
<glyph glyph-name="ograve" unicode="&#xf2;" horiz-adv-x="448" d="M416 272 C416 361 374 419 309 419 C171 419 38 277 38 132 C38 48 83 -11 147 -11 C259 -11 416 105 416 272 L416 272 Z M209 31 C177 31 154 84 154 156 C154 263 200 378 247 378 C276 378 302 320 302 253 C302 135 249 31 209 31 L209 31 Z M184 642 L294 477 L368 477 L301 642 L184 642 Z " />
<glyph glyph-name="oacute" unicode="&#xf3;" horiz-adv-x="448" d="M416 272 C416 361 374 419 309 419 C171 419 38 277 38 132 C38 48 83 -11 147 -11 C259 -11 416 105 416 272 L416 272 Z M209 31 C177 31 154 84 154 156 C154 263 200 378 247 378 C276 378 302 320 302 253 C302 135 249 31 209 31 L209 31 Z M285 642 L218 477 L292 477 L402 642 L285 642 Z " />
<glyph glyph-name="ocircumflex" unicode="&#xf4;" horiz-adv-x="448" d="M416 272 C416 361 374 419 309 419 C171 419 38 277 38 132 C38 48 83 -11 147 -11 C259 -11 416 105 416 272 L416 272 Z M209 31 C177 31 154 84 154 156 C154 263 200 378 247 378 C276 378 302 320 302 253 C302 135 249 31 209 31 L209 31 Z M267 642 L129 478 L200 478 L324 555 L362 478 L436 478 L399 642 L267 642 Z " />
<glyph glyph-name="otilde" unicode="&#xf5;" horiz-adv-x="448" d="M416 272 C416 361 374 419 309 419 C171 419 38 277 38 132 C38 48 83 -11 147 -11 C259 -11 416 105 416 272 L416 272 Z M209 31 C177 31 154 84 154 156 C154 263 200 378 247 378 C276 378 302 320 302 253 C302 135 249 31 209 31 L209 31 Z M373 586 C358 586 337 593 304 608 C272 623 245 631 227 631 C167 631 123 577 123 489 L189 489 C196 520 205 533 228 533 C244 533 269 525 301 510 C334 495 358 488 375 488 C430 488 476 547 476 630 L412 630 C404 601 392 586 373 586 L373 586 Z " />
<glyph glyph-name="odieresis" unicode="&#xf6;" horiz-adv-x="448" d="M416 272 C416 361 374 419 309 419 C171 419 38 277 38 132 C38 48 83 -11 147 -11 C259 -11 416 105 416 272 L416 272 Z M209 31 C177 31 154 84 154 156 C154 263 200 378 247 378 C276 378 302 320 302 253 C302 135 249 31 209 31 L209 31 Z M258 560 C258 592 231 618 199 618 C167 618 141 592 141 560 C141 528 167 501 199 501 C231 501 258 528 258 560 L258 560 Z M454 560 C454 592 427 618 395 618 C363 618 337 592 337 560 C337 528 363 501 395 501 C427 501 454 528 454 560 L454 560 Z " />
<glyph glyph-name="divide" unicode="&#xf7;" horiz-adv-x="668" d="M407 527 C407 554 386 575 359 575 C332 575 311 554 311 527 C311 500 332 479 359 479 C386 479 407 500 407 527 L407 527 Z M92 364 L92 288 L626 288 L626 364 L92 364 Z M407 125 C407 152 386 173 359 173 C332 173 311 152 311 125 C311 98 332 77 359 77 C386 77 407 98 407 125 L407 125 Z " />
<glyph glyph-name="oslash" unicode="&#xf8;" horiz-adv-x="448" d="M368 400 C351 412 332 419 310 419 C246 419 181 390 124 331 C67 272 39 201 39 134 C39 91 50 53 69 28 L26 -26 L48 -43 L90 9 C107 -4 127 -11 148 -11 C202 -11 272 16 330 73 C388 130 417 200 417 272 C417 313 406 351 387 380 L433 438 L412 455 L368 400 Z M155 155 C155 214 165 267 185 312 C205 357 228 378 247 378 C267 378 284 354 295 309 L155 135 L155 155 Z M302 245 C302 192 291 139 270 95 C249 52 226 31 209 31 C188 31 171 53 160 97 L301 272 L302 245 Z " />
<glyph glyph-name="ugrave" unicode="&#xf9;" horiz-adv-x="500" d="M216 313 C218 320 225 354 225 370 C225 394 211 419 183 419 C139 419 91 381 32 298 L51 284 C75 317 94 342 103 342 C111 342 111 336 111 327 C111 320 103 284 102 278 L65 95 C60 70 57 51 57 37 C57 5 70 -11 93 -11 C137 -11 230 86 304 201 L306 199 L278 66 C277 59 274 45 274 34 C274 9 286 -11 307 -11 C341 -11 410 42 478 118 L461 134 C430 99 402 77 397 77 C390 77 390 81 390 86 C390 88 396 118 400 136 L450 384 C455 407 449 413 429 413 L378 413 C353 413 350 410 347 400 C347 399 337 356 332 328 C320 259 286 207 254 165 C216 116 192 98 187 98 C180 98 177 105 177 112 C177 125 181 141 182 148 L216 313 Z M210 642 L320 477 L394 477 L327 642 L210 642 Z " />
<glyph glyph-name="uacute" unicode="&#xfa;" horiz-adv-x="500" d="M216 313 C218 320 225 354 225 370 C225 394 211 419 183 419 C139 419 91 381 32 298 L51 284 C75 317 94 342 103 342 C111 342 111 336 111 327 C111 320 103 284 102 278 L65 95 C60 70 57 51 57 37 C57 5 70 -11 93 -11 C137 -11 230 86 304 201 L306 199 L278 66 C277 59 274 45 274 34 C274 9 286 -11 307 -11 C341 -11 410 42 478 118 L461 134 C430 99 402 77 397 77 C390 77 390 81 390 86 C390 88 396 118 400 136 L450 384 C455 407 449 413 429 413 L378 413 C353 413 350 410 347 400 C347 399 337 356 332 328 C320 259 286 207 254 165 C216 116 192 98 187 98 C180 98 177 105 177 112 C177 125 181 141 182 148 L216 313 Z M311 642 L244 477 L318 477 L428 642 L311 642 Z " />
<glyph glyph-name="ucircumflex" unicode="&#xfb;" horiz-adv-x="500" d="M216 313 C218 320 225 354 225 370 C225 394 211 419 183 419 C139 419 91 381 32 298 L51 284 C75 317 94 342 103 342 C111 342 111 336 111 327 C111 320 103 284 102 278 L65 95 C60 70 57 51 57 37 C57 5 70 -11 93 -11 C137 -11 230 86 304 201 L306 199 L278 66 C277 59 274 45 274 34 C274 9 286 -11 307 -11 C341 -11 410 42 478 118 L461 134 C430 99 402 77 397 77 C390 77 390 81 390 86 C390 88 396 118 400 136 L450 384 C455 407 449 413 429 413 L378 413 C353 413 350 410 347 400 C347 399 337 356 332 328 C320 259 286 207 254 165 C216 116 192 98 187 98 C180 98 177 105 177 112 C177 125 181 141 182 148 L216 313 Z M293 642 L155 478 L226 478 L350 555 L388 478 L462 478 L425 642 L293 642 Z " />
<glyph glyph-name="udieresis" unicode="&#xfc;" horiz-adv-x="500" d="M216 313 C218 320 225 354 225 370 C225 394 211 419 183 419 C139 419 91 381 32 298 L51 284 C75 317 94 342 103 342 C111 342 111 336 111 327 C111 320 103 284 102 278 L65 95 C60 70 57 51 57 37 C57 5 70 -11 93 -11 C137 -11 230 86 304 201 L306 199 L278 66 C277 59 274 45 274 34 C274 9 286 -11 307 -11 C341 -11 410 42 478 118 L461 134 C430 99 402 77 397 77 C390 77 390 81 390 86 C390 88 396 118 400 136 L450 384 C455 407 449 413 429 413 L378 413 C353 413 350 410 347 400 C347 399 337 356 332 328 C320 259 286 207 254 165 C216 116 192 98 187 98 C180 98 177 105 177 112 C177 125 181 141 182 148 L216 313 Z M284 560 C284 592 257 618 225 618 C193 618 167 592 167 560 C167 528 193 501 225 501 C257 501 284 528 284 560 L284 560 Z M480 560 C480 592 453 618 421 618 C389 618 363 592 363 560 C363 528 389 501 421 501 C453 501 480 528 480 560 L480 560 Z " />
<glyph glyph-name="yacute" unicode="&#xfd;" horiz-adv-x="485" d="M225 372 C225 397 206 418 184 418 C145 418 101 391 32 297 L51 283 C91 336 98 341 104 341 C108 341 111 337 111 329 C111 318 107 303 101 272 L64 89 C61 73 57 50 57 34 C57 3 73 -12 94 -12 C146 -12 272 141 305 197 L305 199 L307 196 L259 -45 C239 -145 228 -167 217 -178 C206 -189 196 -194 186 -194 C170 -194 157 -179 145 -162 C130 -141 112 -117 78 -117 C50 -117 28 -138 28 -165 C28 -204 76 -232 135 -232 C241 -232 308 -170 340 -98 C355 -63 366 -36 389 77 L448 371 C449 376 451 388 451 393 C451 405 443 412 429 412 L380 412 C352 412 350 411 343 376 C326 284 316 257 292 217 C256 159 201 97 187 97 C183 97 178 101 178 112 C178 120 179 128 185 160 L218 322 C220 330 225 361 225 372 L225 372 Z M303 642 L236 477 L310 477 L420 642 L303 642 Z " />
<glyph glyph-name="thorn" unicode="&#xfe;" horiz-adv-x="490" d="M303 656 C303 667 301 672 294 672 C284 672 243 653 131 610 L142 588 C155 595 161 596 169 596 C178 596 182 590 182 581 C182 574 180 566 178 556 L42 -109 C28 -180 7 -202 -64 -203 L-69 -227 L223 -227 L228 -203 C172 -203 144 -191 144 -148 C144 -139 145 -128 147 -120 L172 2 C181 -7 203 -11 226 -11 C278 -11 337 15 387 70 C437 125 462 195 462 268 C462 330 432 419 387 419 C356 419 301 364 225 251 L223 253 L299 628 C300 635 303 649 303 656 L303 656 Z M211 191 C211 193 226 216 255 257 C284 298 306 318 318 318 C340 318 350 292 350 244 C350 203 340 151 319 100 C298 49 270 23 240 23 C213 23 199 38 187 75 L211 191 Z " />
<glyph glyph-name="ydieresis" unicode="&#xff;" horiz-adv-x="485" d="M225 372 C225 397 206 418 184 418 C145 418 101 391 32 297 L51 283 C91 336 98 341 104 341 C108 341 111 337 111 329 C111 318 107 303 101 272 L64 89 C61 73 57 50 57 34 C57 3 73 -12 94 -12 C146 -12 272 141 305 197 L305 199 L307 196 L259 -45 C239 -145 228 -167 217 -178 C206 -189 196 -194 186 -194 C170 -194 157 -179 145 -162 C130 -141 112 -117 78 -117 C50 -117 28 -138 28 -165 C28 -204 76 -232 135 -232 C241 -232 308 -170 340 -98 C355 -63 366 -36 389 77 L448 371 C449 376 451 388 451 393 C451 405 443 412 429 412 L380 412 C352 412 350 411 343 376 C326 284 316 257 292 217 C256 159 201 97 187 97 C183 97 178 101 178 112 C178 120 179 128 185 160 L218 322 C220 330 225 361 225 372 L225 372 Z M276 560 C276 592 249 618 217 618 C185 618 159 592 159 560 C159 528 185 501 217 501 C249 501 276 528 276 560 L276 560 Z M472 560 C472 592 445 618 413 618 C381 618 355 592 355 560 C355 528 381 501 413 501 C445 501 472 528 472 560 L472 560 Z " />
<glyph glyph-name="dotlessi" unicode="&#x131;" horiz-adv-x="292" d="M225 362 C225 397 208 419 182 419 C143 419 95 383 31 298 L50 282 L69 307 C82 325 98 337 105 337 C113 337 114 329 114 324 C108 279 55 90 55 49 C55 14 78 -11 109 -11 C150 -11 206 23 262 87 L244 103 C219 75 190 51 174 51 C166 51 162 54 162 63 C162 71 164 84 166 92 L215 294 C222 322 225 347 225 362 L225 362 Z " />
<glyph glyph-name="Lslash" unicode="&#x141;" horiz-adv-x="604" d="M119 622 L111 583 L126 583 C175 583 199 568 199 525 C199 516 197 503 195 495 L155 297 L44 215 L32 154 L143 236 L122 135 C107 66 87 39 32 39 L19 39 L11 0 L574 0 L620 145 L580 145 C515 67 442 42 386 42 L306 42 C271 42 241 57 241 92 C241 100 242 104 243 111 L287 328 L437 438 L450 500 L300 390 L326 518 C332 550 360 583 412 583 L441 583 L449 622 L119 622 Z " />
<glyph glyph-name="lslash" unicode="&#x142;" horiz-adv-x="271" d="M265 652 C265 665 262 672 255 672 C252 672 247 671 84 604 L93 582 C109 589 123 592 130 592 C138 592 142 589 142 578 C142 570 141 567 138 550 L90 307 L3 237 L-7 174 L75 241 L77 239 L45 87 C42 72 41 59 41 47 C41 7 58 -11 90 -11 C135 -11 187 23 244 84 L228 101 C203 74 175 52 163 52 C156 52 150 58 150 70 C150 78 153 87 201 327 L308 413 L321 478 L214 393 C266 643 265 648 265 652 L265 652 Z " />
<glyph glyph-name="OE" unicode="&#x152;" horiz-adv-x="1031" d="M600 622 C563 622 536 630 487 630 C371 630 278 599 210 544 C127 477 83 375 83 284 C83 111 186 -8 378 -8 C443 -8 453 0 487 0 L948 0 L1004 154 L959 154 C878 58 787 42 728 42 L699 42 C657 42 617 46 617 96 C617 106 619 118 620 123 L654 291 L782 291 C845 291 867 283 867 234 C867 225 867 214 865 202 L905 202 L946 403 L905 403 C890 350 859 333 811 333 L663 333 L713 580 L869 580 C924 580 972 557 972 493 C972 486 971 479 970 471 L1017 471 L1048 622 L600 622 Z M388 35 C288 35 221 122 221 247 C221 409 330 587 480 587 C535 587 572 560 572 512 C572 509 571 500 569 491 L496 134 C482 65 447 35 388 35 L388 35 Z " />
<glyph glyph-name="oe" unicode="&#x153;" horiz-adv-x="635" d="M399 359 C380 402 346 419 309 419 C255 419 186 394 128 339 C70 285 41 207 41 130 C41 42 83 -11 155 -11 C194 -11 236 7 303 50 C320 13 359 -11 404 -11 C451 -11 528 19 605 80 L592 99 C549 68 516 52 479 52 C429 52 399 89 399 144 C399 160 401 175 404 190 C561 231 627 279 627 346 C627 393 593 419 538 419 C484 419 439 399 399 359 L399 359 Z M410 216 C419 255 429 293 444 330 C459 368 477 387 498 387 C519 387 533 372 533 343 C533 282 490 239 410 216 L410 216 Z M209 33 C177 33 154 86 154 158 C154 205 164 258 183 305 C203 352 225 376 249 376 C278 376 303 326 303 234 C303 192 293 141 272 98 C251 55 230 33 209 33 L209 33 Z " />
<glyph glyph-name="Scaron" unicode="&#x160;" horiz-adv-x="521" d="M463 612 C446 612 427 616 401 624 C375 632 350 636 331 636 C284 636 237 618 199 582 C162 546 143 500 143 454 C143 395 186 336 266 270 C344 205 387 162 387 123 C387 99 375 74 350 56 C325 38 296 29 262 29 C172 29 118 89 115 198 L76 198 L35 39 C96 6 180 -14 257 -14 C317 -14 378 4 423 39 C468 74 491 120 491 172 C491 233 447 292 364 362 C281 432 238 472 238 511 C238 556 282 593 335 593 C404 593 461 534 470 451 L510 451 L537 630 L506 630 C494 617 484 612 463 612 L463 612 Z M273 842 L310 678 L442 678 L580 842 L509 842 L385 765 L347 842 L273 842 Z " />
<glyph glyph-name="scaron" unicode="&#x161;" horiz-adv-x="344" d="M324 353 C324 392 292 419 245 419 C208 419 166 407 133 380 C100 354 84 318 84 286 C84 248 105 210 151 165 C195 122 226 96 226 66 C226 51 212 37 196 37 C173 37 153 47 130 71 C107 96 86 110 63 110 C34 110 9 85 9 56 C9 13 47 -11 108 -11 C216 -11 288 48 288 133 C288 170 267 203 224 246 C183 287 160 314 160 345 C160 361 171 374 186 374 C205 374 211 362 222 337 C234 310 249 298 273 298 C302 298 324 321 324 353 L324 353 Z M138 642 L175 478 L307 478 L445 642 L374 642 L250 565 L212 642 L138 642 Z " />
<glyph glyph-name="Ydieresis" unicode="&#x178;" horiz-adv-x="667" d="M104 622 L96 583 C140 583 154 575 178 524 L302 256 L277 133 C263 62 238 39 177 39 L166 39 L158 0 L491 0 L499 39 L465 39 C421 39 397 55 397 92 C397 98 400 114 403 131 L428 256 L628 482 C683 543 707 567 749 583 L757 622 L556 622 L548 583 C592 578 610 559 610 542 C610 522 596 509 579 490 L416 306 L311 532 C295 567 304 582 353 583 L361 622 L104 622 Z M415 760 C415 792 388 818 356 818 C324 818 298 792 298 760 C298 728 324 701 356 701 C388 701 415 728 415 760 L415 760 Z M611 760 C611 792 584 818 552 818 C520 818 494 792 494 760 C494 728 520 701 552 701 C584 701 611 728 611 760 L611 760 Z " />
<glyph glyph-name="Zcaron" unicode="&#x17d;" horiz-adv-x="667" d="M185 622 L151 453 L189 453 C229 532 289 580 382 580 L533 580 L16 42 L16 0 L603 0 L655 183 L614 183 C561 96 481 42 401 42 L187 42 L711 586 L711 622 L185 622 Z M347 842 L384 678 L516 678 L654 842 L583 842 L459 765 L421 842 L347 842 Z " />
<glyph glyph-name="zcaron" unicode="&#x17e;" horiz-adv-x="490" d="M381 359 C354 359 328 369 295 389 C263 409 236 419 210 419 C163 419 116 389 68 328 L87 312 C107 332 118 339 137 339 C155 339 169 331 190 318 C212 304 237 298 265 298 C310 298 370 316 435 350 C416 310 363 278 277 237 C189 195 122 161 81 128 C41 96 20 59 20 18 C20 -2 29 -11 46 -11 C64 -11 70 -3 70 16 C70 41 69 59 103 59 C129 59 153 49 190 26 C227 3 261 -11 295 -11 C355 -11 408 31 445 96 L425 110 C413 90 391 75 372 75 C357 75 341 80 314 93 C287 106 256 114 227 114 C187 114 128 98 66 74 C73 96 116 122 205 163 C294 204 360 243 405 280 C450 318 473 355 473 391 C473 410 463 419 449 419 C431 419 428 408 424 388 C421 372 409 359 381 359 L381 359 Z M211 642 L248 478 L380 478 L518 642 L447 642 L323 565 L285 642 L211 642 Z " />
<glyph glyph-name="florin" unicode="&#x192;" horiz-adv-x="500" d="M501 616 C501 655 469 678 421 678 C357 678 310 647 275 554 C258 507 242 477 225 463 C209 450 185 443 152 443 L140 383 L209 383 L149 83 C139 31 136 3 136 -33 C136 -68 140 -93 140 -123 C140 -162 125 -186 103 -186 C98 -186 88 -183 88 -178 C88 -167 95 -161 95 -150 C95 -127 77 -111 50 -111 C22 -111 0 -133 0 -160 C0 -192 32 -216 76 -216 C117 -216 155 -198 192 -158 C229 -119 260 -46 286 83 L347 383 L422 383 L434 443 L359 443 C364 464 366 481 366 504 C366 528 361 566 361 587 C361 627 380 655 407 655 C414 655 420 652 420 645 C420 634 404 619 404 600 C404 577 424 560 448 560 C479 560 501 583 501 616 L501 616 Z " />
<glyph glyph-name="circumflex" unicode="&#x2c6;" horiz-adv-x="333" d="M209 642 L71 478 L142 478 L266 555 L304 478 L378 478 L341 642 L209 642 Z " />
<glyph glyph-name="caron" unicode="&#x2c7;" horiz-adv-x="333" d="M132 642 L169 478 L301 478 L439 642 L368 642 L244 565 L206 642 L132 642 Z " />
<glyph glyph-name="uni02C9" unicode="&#x2c9;" horiz-adv-x="333" d="M119 604 L98 518 L414 518 L435 604 L119 604 Z " />
<glyph glyph-name="breve" unicode="&#x2d8;" horiz-adv-x="333" d="M112 654 L111 639 C111 594 123 557 145 528 C169 496 203 481 237 481 C312 481 370 546 386 654 L354 654 C337 601 294 568 244 568 C193 568 164 594 149 654 L112 654 Z " />
<glyph glyph-name="dotaccent" unicode="&#x2d9;" horiz-adv-x="333" d="M309 560 C309 592 282 618 250 618 C218 618 192 592 192 560 C192 528 218 501 250 501 C282 501 309 528 309 560 L309 560 Z " />
<glyph glyph-name="ring" unicode="&#x2da;" horiz-adv-x="333" d="M324 565 C324 620 279 663 226 663 C172 663 128 620 128 565 C128 510 173 467 226 467 C280 467 324 510 324 565 L324 565 Z M226 502 C191 502 164 530 164 565 C164 600 192 627 225 627 C261 627 289 600 289 565 C289 530 261 502 226 502 L226 502 Z " />
<glyph glyph-name="ogonek" unicode="&#x2db;" horiz-adv-x="333" d="M204 9 C156 -23 137 -50 137 -89 C137 -150 195 -199 264 -199 C293 -199 316 -192 354 -173 L344 -146 C338 -147 332 -147 326 -147 C264 -147 220 -97 220 -49 C220 -32 225 -18 244 9 L204 9 Z " />
<glyph glyph-name="tilde" unicode="&#x2dc;" horiz-adv-x="333" d="M315 586 C300 586 279 593 246 608 C214 623 187 631 169 631 C109 631 65 577 65 489 L131 489 C138 520 147 533 170 533 C186 533 211 525 243 510 C276 495 300 488 317 488 C372 488 418 547 418 630 L354 630 C346 601 334 586 315 586 L315 586 Z " />
<glyph glyph-name="hungarumlaut" unicode="&#x2dd;" horiz-adv-x="333" d="M227 642 L160 477 L234 477 L344 642 L227 642 Z M375 642 L308 477 L382 477 L492 642 L375 642 Z " />
<glyph glyph-name="uni03A9" unicode="&#x3a9;" horiz-adv-x="648" d="M602 409 C602 565 488 712 323 712 C154 712 46 580 46 404 C46 272 110 166 227 114 L227 81 L131 81 C93 81 71 99 71 157 L71 169 L40 169 L40 0 L277 0 L277 146 C218 174 181 277 181 406 C181 567 235 672 323 672 C404 672 462 582 462 406 C462 293 428 189 373 151 L373 0 L608 0 L608 169 L576 169 L576 157 C576 99 554 81 517 81 L423 81 L423 118 C531 157 602 284 602 409 L602 409 Z " />
<glyph glyph-name="uni03BC" unicode="&#x3bc;" horiz-adv-x="573" d="M163 409 L59 48 C48 8 28 -33 9 -66 C-15 -108 -33 -139 -33 -162 C-33 -193 -16 -216 10 -216 C28 -216 50 -202 62 -168 C68 -151 70 -102 71 -86 C72 -64 78 -10 95 36 C116 1 132 -14 172 -14 C236 -14 300 24 359 110 L361 108 C359 96 357 79 357 67 C357 18 378 -14 428 -14 C488 -14 522 24 549 100 L531 110 C512 69 493 36 475 36 C460 36 450 43 450 63 C450 75 454 94 457 105 L545 409 L441 409 L388 229 C375 185 356 147 330 115 C297 75 256 46 226 46 C196 46 184 65 184 93 C184 105 188 130 199 167 L268 409 L163 409 Z " />
<glyph glyph-name="pi" unicode="&#x3c0;" horiz-adv-x="423" d="M91 482 C51 482 10 432 10 335 L39 327 C46 374 56 388 84 388 L93 388 L93 226 C93 202 92 165 91 144 C90 117 85 92 74 80 C58 63 35 59 35 28 C35 1 58 -12 75 -12 C121 -12 136 12 146 50 C157 91 161 148 161 209 L161 388 L269 388 L269 111 C269 78 274 52 280 32 C289 3 314 -12 338 -12 C365 -12 399 23 413 108 L392 124 C384 91 373 64 358 64 C348 64 336 82 336 175 L336 388 L398 388 L398 482 L91 482 Z " />
<glyph glyph-name="endash" unicode="&#x2013;" horiz-adv-x="500" d="M-6 295 L-6 205 L506 205 L506 295 L-6 295 Z " />
<glyph glyph-name="emdash" unicode="&#x2014;" horiz-adv-x="1000" d="M-6 295 L-6 205 L1006 205 L1006 295 L-6 295 Z " />
<glyph glyph-name="quoteleft" unicode="&#x2018;" horiz-adv-x="323" d="M338 636 C242 616 154 523 154 432 C154 376 186 337 230 337 C266 337 294 362 294 397 C294 426 279 441 267 460 C259 473 252 487 252 510 C252 554 293 593 353 607 L338 636 Z " />
<glyph glyph-name="quoteright" unicode="&#x2019;" horiz-adv-x="323" d="M130 337 C226 357 314 450 314 541 C314 597 282 636 238 636 C202 636 174 611 174 576 C174 547 189 532 201 513 C209 500 216 486 216 463 C216 419 175 380 115 366 L130 337 Z " />
<glyph glyph-name="quotesinglbase" unicode="&#x201a;" horiz-adv-x="323" d="M28 -165 C124 -145 212 -52 212 39 C212 95 180 134 136 134 C100 134 72 109 72 74 C72 45 87 30 99 11 C107 -2 114 -16 114 -39 C114 -83 73 -122 13 -136 L28 -165 Z " />
<glyph glyph-name="quotedblleft" unicode="&#x201c;" horiz-adv-x="604" d="M341 636 C245 617 157 523 157 432 C157 376 189 337 233 337 C269 337 297 362 297 397 C297 426 282 441 270 460 C262 473 255 487 255 510 C255 554 296 593 356 607 L341 636 Z M616 636 C520 617 432 523 432 432 C432 376 464 337 508 337 C544 337 572 362 572 397 C572 426 557 441 545 460 C537 473 530 487 530 510 C530 554 571 593 631 607 L616 636 Z " />
<glyph glyph-name="quotedblright" unicode="&#x201d;" horiz-adv-x="604" d="M405 337 C501 356 589 450 589 541 C589 597 557 636 513 636 C477 636 449 611 449 576 C449 547 464 532 476 513 C484 500 491 486 491 463 C491 419 450 380 390 366 L405 337 Z M130 337 C226 356 314 450 314 541 C314 597 282 636 238 636 C202 636 174 611 174 576 C174 547 189 532 201 513 C209 500 216 486 216 463 C216 419 175 380 115 366 L130 337 Z " />
<glyph glyph-name="quotedblbase" unicode="&#x201e;" horiz-adv-x="604" d="M309 -165 C405 -145 493 -52 493 39 C493 95 461 134 417 134 C381 134 353 109 353 74 C353 45 368 30 380 11 C388 -2 395 -16 395 -39 C395 -83 354 -122 294 -136 L309 -165 Z M34 -165 C130 -145 218 -52 218 39 C218 95 186 134 142 134 C106 134 78 109 78 74 C78 45 93 30 105 11 C113 -2 120 -16 120 -39 C120 -83 79 -122 19 -136 L34 -165 Z " />
<glyph glyph-name="dagger" unicode="&#x2020;" horiz-adv-x="469" d="M385 622 C398 654 387 672 356 672 L305 672 C273 672 262 658 262 625 L262 402 L120 442 C98 448 80 443 74 413 L60 341 C57 322 69 319 83 322 L255 365 L90 -178 C82 -203 78 -230 113 -230 L192 -230 C224 -230 226 -213 230 -177 L290 365 L432 325 C456 318 471 321 477 351 L491 422 C496 444 485 449 461 443 L297 402 L385 622 Z " />
<glyph glyph-name="daggerdbl" unicode="&#x2021;" horiz-adv-x="479" d="M395 629 C399 637 400 643 400 647 C400 664 387 672 361 672 L296 672 C280 672 271 660 272 637 L282 471 L150 510 C125 517 105 522 97 484 L83 415 C81 406 80 384 112 393 L274 435 L180 225 L191 9 L35 52 C24 55 11 57 6 33 L-12 -54 C-18 -83 15 -70 33 -66 L183 -29 L107 -186 C95 -210 105 -230 136 -230 L197 -230 C225 -230 231 -217 229 -192 L218 -29 L354 -66 C384 -74 398 -78 405 -43 L420 29 C424 46 417 59 392 52 L226 9 L321 221 L313 435 L460 394 C485 387 493 393 499 422 L514 493 C517 506 510 519 490 514 L320 471 L395 629 Z " />
<glyph glyph-name="bullet" unicode="&#x2022;" horiz-adv-x="354" d="M352 311 C352 386 291 450 212 450 C134 450 73 387 73 311 C73 236 133 171 212 171 C289 171 352 234 352 311 L352 311 Z " />
<glyph glyph-name="ellipsis" unicode="&#x2026;" horiz-adv-x="1000" d="M247 57 C247 96 211 124 166 124 C123 124 86 96 86 57 C86 20 118 -11 166 -11 C214 -11 247 20 247 57 L247 57 Z M581 57 C581 96 545 124 500 124 C457 124 420 96 420 57 C420 20 452 -11 500 -11 C548 -11 581 20 581 57 L581 57 Z M915 57 C915 96 879 124 834 124 C791 124 754 96 754 57 C754 20 786 -11 834 -11 C882 -11 915 20 915 57 L915 57 Z " />
<glyph glyph-name="perthousand" unicode="&#x2030;" horiz-adv-x="1000" d="M562 672 L158 -29 L223 -29 L627 672 L562 672 Z M330 517 C330 590 294 636 235 636 C142 636 69 507 69 414 C69 346 109 298 165 298 C247 298 330 407 330 517 L330 517 Z M168 323 C155 323 148 337 148 362 C148 413 189 611 230 611 C245 611 252 598 252 573 C252 524 210 323 168 323 L168 323 Z M706 212 C706 285 670 331 611 331 C518 331 445 202 445 109 C445 41 485 -7 541 -7 C623 -7 706 102 706 212 L706 212 Z M544 18 C531 18 524 32 524 57 C524 108 565 306 606 306 C621 306 628 293 628 268 C628 219 586 18 544 18 L544 18 Z M1000 212 C1000 285 964 331 905 331 C812 331 739 202 739 109 C739 41 779 -7 835 -7 C917 -7 1000 102 1000 212 L1000 212 Z M838 18 C825 18 818 32 818 57 C818 108 859 306 900 306 C915 306 922 293 922 268 C922 219 880 18 838 18 L838 18 Z " />
<glyph glyph-name="guilsinglleft" unicode="&#x2039;" horiz-adv-x="240" d="M37 224 L130 43 L162 43 L149 224 L258 406 L224 406 L37 224 Z " />
<glyph glyph-name="guilsinglright" unicode="&#x203a;" horiz-adv-x="240" d="M131 225 L22 43 L56 43 L243 225 L150 406 L118 406 L131 225 Z " />
<glyph glyph-name="fraction" unicode="&#x2044;" horiz-adv-x="219" d="M330 672 L-76 -29 L-11 -29 L395 672 L330 672 Z " />
<glyph glyph-name="Euro" unicode="&#x20ac;" horiz-adv-x="570" d="M481 596 C464 596 422 636 348 636 C225 636 117 529 92 377 L37 377 L30 339 L87 339 C85 322 85 304 86 287 L37 287 L30 249 L89 249 C115 88 213 -15 343 -15 C437 -15 490 36 541 111 L518 127 C470 63 433 31 370 31 C282 31 228 109 216 249 L452 249 L460 287 L213 287 L213 339 L468 339 L475 377 L215 377 C224 518 268 596 352 596 C416 596 466 545 486 457 L518 457 L513 606 L496 606 C491 601 488 596 481 596 L481 596 Z " />
<glyph glyph-name="litre" unicode="&#x2113;" horiz-adv-x="276" d="M288 612 C288 675 261 712 201 712 C108 712 59 601 59 482 L59 245 C54 234 25 200 -4 167 L19 135 C33 152 50 173 59 188 L59 133 C59 56 94 -12 181 -12 C246 -12 284 31 303 123 L264 136 C251 79 235 51 215 51 C195 51 181 77 181 129 L181 302 C228 371 288 496 288 612 L288 612 Z M181 549 C182 634 196 669 217 669 C241 669 248 641 248 608 C248 577 240 526 218 464 C208 437 196 412 181 378 L181 549 Z " />
<glyph glyph-name="trademark" unicode="&#x2122;" horiz-adv-x="1000" d="M-2 662 L-2 552 L14 552 C20 613 46 637 113 637 L126 637 L126 345 C126 295 123 287 76 285 L76 268 L297 268 L297 285 C256 285 248 298 248 345 L248 637 L262 637 C334 637 355 614 360 552 L377 552 L377 662 L-2 662 Z M431 662 L431 643 C436 644 441 644 445 644 C480 644 485 622 485 583 L485 345 C485 294 479 286 431 285 L431 268 L568 268 L568 285 C521 285 512 297 512 340 L512 594 L514 594 L668 268 L680 268 L831 594 L833 594 L833 343 C833 295 825 285 780 285 L780 268 L1005 268 L1005 285 C968 285 955 303 955 334 L955 584 C955 631 961 643 1005 643 L1005 662 L833 662 L724 420 L611 662 L431 662 Z " />
<glyph glyph-name="Omega" unicode="&#x2126;" horiz-adv-x="648" d="M602 409 C602 565 488 712 323 712 C154 712 46 580 46 404 C46 272 110 166 227 114 L227 81 L131 81 C93 81 71 99 71 157 L71 169 L40 169 L40 0 L277 0 L277 146 C218 174 181 277 181 406 C181 567 235 672 323 672 C404 672 462 582 462 406 C462 293 428 189 373 151 L373 0 L608 0 L608 169 L576 169 L576 157 C576 99 554 81 517 81 L423 81 L423 118 C531 157 602 284 602 409 L602 409 Z " />
<glyph glyph-name="estimated" unicode="&#x212e;" horiz-adv-x="903" d="M832 330 C832 493 743 683 450 683 C213 683 70 512 70 332 C70 153 209 -3 452 -3 C609 -3 690 40 765 130 L698 130 C632 68 558 22 449 22 C349 22 267 58 217 121 C212 127 210 140 210 149 L210 325 C210 329 212 330 215 330 L832 330 Z M692 355 C692 351 690 350 687 350 L215 350 C212 350 210 351 210 355 L210 536 C210 546 213 556 219 562 C286 631 372 659 447 659 C514 659 618 640 682 560 C688 553 692 544 692 535 L692 355 Z " />
<glyph glyph-name="partialdiff" unicode="&#x2202;" horiz-adv-x="447" d="M426 487 C426 638 371 723 268 723 C198 723 140 685 97 602 L114 581 C144 621 179 647 230 647 C301 647 341 564 351 517 C356 492 359 490 359 445 C359 438 358 395 357 380 L355 380 C342 425 287 466 226 466 C102 466 21 337 21 183 C21 63 70 -13 162 -13 C252 -13 292 36 332 111 C361 165 389 237 403 302 C418 372 426 439 426 487 L426 487 Z M207 37 C172 37 138 72 138 156 C138 298 189 419 254 419 C299 419 338 380 351 328 C330 183 269 37 207 37 L207 37 Z " />
<glyph glyph-name="Delta" unicode="&#x2206;" horiz-adv-x="514" d="M209 712 L0 0 L514 0 L316 712 L209 712 Z M231 541 L369 48 L85 48 L231 541 Z " />
<glyph glyph-name="product" unicode="&#x220f;" horiz-adv-x="607" d="M32 700 L32 669 L44 669 C70 669 78 644 78 593 L78 -24 C78 -77 67 -100 43 -100 L32 -100 L32 -131 L244 -131 L244 -100 L234 -100 C205 -100 199 -70 199 -24 L199 653 L407 653 L407 -24 C407 -76 395 -100 373 -100 L360 -100 L360 -131 L575 -131 L575 -100 L562 -100 C529 -100 528 -48 528 -23 L528 593 C528 648 539 669 564 669 L575 669 L575 700 L32 700 Z " />
<glyph glyph-name="summation" unicode="&#x2211;" horiz-adv-x="470" d="M20 700 L20 664 L201 265 L15 -95 L15 -131 L430 -131 L440 49 L409 53 C402 11 405 -34 353 -34 L101 -34 L291 331 L141 652 L344 652 C381 652 390 629 395 548 L425 548 L418 700 L20 700 Z " />
<glyph glyph-name="minus" unicode="&#x2212;" horiz-adv-x="667" d="M91 364 L91 288 L625 288 L625 364 L91 364 Z " />
<glyph glyph-name="uni2215" unicode="&#x2215;" horiz-adv-x="219" d="M330 672 L-76 -29 L-11 -29 L395 672 L330 672 Z " />
<glyph glyph-name="uni2219" unicode="&#x2219;" horiz-adv-x="323" d="M280 331 C280 374 246 408 203 408 C160 408 126 374 126 331 C126 288 160 254 203 254 C246 254 280 288 280 331 L280 331 Z " />
<glyph glyph-name="radical" unicode="&#x221a;" horiz-adv-x="312" d="M143 90 L142 90 L75 389 L-18 320 L4 289 L34 312 L115 -12 L171 -12 L322 728 L269 728 L143 90 Z " />
<glyph glyph-name="infinity" unicode="&#x221e;" horiz-adv-x="600" d="M294 323 C261 390 211 421 155 421 C78 421 25 363 25 280 C25 202 78 141 157 141 C217 141 263 174 303 242 L305 242 C341 174 385 141 449 141 C523 141 575 205 575 283 C575 364 518 421 446 421 C381 421 337 392 296 323 L294 323 Z M153 178 C93 178 58 220 58 281 C58 344 99 384 155 384 C206 384 250 351 276 292 C240 219 200 178 153 178 L153 178 Z M355 326 C377 361 407 384 450 384 C516 384 542 335 542 280 C542 221 505 178 448 178 C389 178 351 215 322 274 L355 326 Z " />
<glyph glyph-name="integral" unicode="&#x222b;" horiz-adv-x="224" d="M217 694 C217 722 197 747 157 747 C134 747 112 729 98 698 C86 671 79 634 74 584 C63 477 57 374 57 267 C57 161 64 67 78 8 C92 -50 99 -86 99 -99 C99 -130 94 -143 82 -143 C69 -143 65 -139 60 -131 C56 -124 48 -118 39 -118 C15 -118 4 -138 4 -158 C4 -193 34 -211 60 -211 C119 -211 138 -131 153 10 C161 86 165 149 165 267 C165 329 158 449 143 524 C128 599 121 638 121 655 C121 670 126 680 138 680 C144 680 155 677 162 668 C169 660 175 655 190 655 C213 655 217 679 217 694 L217 694 Z " />
<glyph glyph-name="approxequal" unicode="&#x2248;" horiz-adv-x="667" d="M594 498 C565 442 532 416 473 416 C436 416 400 427 348 448 C296 470 247 481 205 481 C122 481 64 434 24 333 L73 310 C105 373 140 391 199 391 C227 391 271 379 324 357 C368 339 415 326 463 326 C546 326 606 382 643 475 L594 498 Z M594 314 C565 258 530 232 473 232 C433 232 401 243 349 264 C297 285 247 297 205 297 C122 297 64 250 24 149 L73 125 C105 189 139 207 199 207 C229 207 269 196 320 175 C371 154 419 143 463 143 C544 143 605 195 643 291 L594 314 Z " />
<glyph glyph-name="notequal" unicode="&#x2260;" horiz-adv-x="668" d="M467 585 L370 435 L57 435 L57 359 L323 359 L261 263 L57 263 L57 187 L213 187 L115 35 L200 35 L298 187 L610 187 L610 263 L346 263 L408 359 L610 359 L610 435 L455 435 L552 585 L467 585 Z " />
<glyph glyph-name="lessequal" unicode="&#x2264;" horiz-adv-x="667" d="M610 616 L57 414 L57 335 L610 135 L610 216 L167 375 L610 535 L610 616 Z M57 76 L57 0 L610 0 L610 76 L57 76 Z " />
<glyph glyph-name="greaterequal" unicode="&#x2265;" horiz-adv-x="667" d="M57 534 L500 374 L57 214 L57 134 L610 335 L610 414 L57 614 L57 534 Z M57 76 L57 0 L610 0 L610 76 L57 76 Z " />
<glyph glyph-name="lozenge" unicode="&#x25ca;" horiz-adv-x="326" d="M0 349 L144 -12 L180 -12 L326 349 L180 712 L144 712 L0 349 Z M163 634 L277 349 L163 65 L50 349 L163 634 Z " />
<glyph glyph-name="fi" unicode="&#xfb01;" horiz-adv-x="521" d="M467 611 C467 648 424 672 362 672 C231 672 143 570 117 409 C96 393 66 388 39 387 L34 363 L107 363 L40 -46 C23 -147 2 -197 -37 -197 C-52 -197 -65 -185 -82 -160 C-99 -135 -119 -122 -142 -122 C-174 -122 -197 -145 -197 -173 C-197 -210 -158 -233 -97 -233 C-33 -233 16 -209 65 -163 C114 -117 144 -57 161 46 L214 363 L343 363 L341 359 L296 91 C292 67 290 51 290 42 C290 5 305 -11 338 -11 C381 -11 430 16 502 87 L485 107 C456 79 427 52 414 52 C405 52 400 55 400 70 C400 76 401 83 402 89 L458 419 L446 419 C419 412 385 409 373 409 L224 409 L244 541 C251 584 260 633 292 633 C309 633 322 620 343 596 C364 572 384 561 409 561 C441 561 467 583 467 611 L467 611 Z " />
<glyph glyph-name="fl" unicode="&#xfb02;" horiz-adv-x="521" d="M446 652 C422 665 393 672 361 672 C230 672 145 570 118 409 C98 395 81 390 41 387 L36 363 L109 363 L32 -98 C20 -167 -11 -197 -34 -197 C-52 -197 -61 -187 -79 -162 C-97 -137 -111 -122 -140 -122 C-171 -122 -197 -144 -197 -171 C-197 -208 -156 -233 -96 -233 C-40 -233 18 -209 67 -161 C116 -113 147 -47 160 30 L216 363 L341 363 L296 81 C293 64 292 50 292 39 C292 6 310 -11 340 -11 C387 -11 446 27 502 88 L486 107 C451 73 426 54 414 54 C407 54 403 60 403 75 C403 80 403 87 405 99 L496 635 C497 642 505 672 494 672 C490 672 473 664 446 652 L446 652 Z M225 409 C238 493 248 560 254 584 C262 617 271 633 292 633 C307 633 320 623 336 604 C352 585 366 573 378 570 L351 409 L225 409 Z " />
</font>
</svg>
