<?xml version="1.0" encoding="UTF-8"?>
<svg xmlns="http://www.w3.org/2000/svg" xmlns:xlink="http://www.w3.org/1999/xlink" version="1.2" >
<font id="Haas Grot Disp 15 XXThin">
<font-face  font-family="Haas Grot Disp" units-per-em="1000" ascent="818" descent="-182" font-style="normal" font-weight="100" font-stretch="normal" cap-height="715" x-height="517" underline-position="-75" underline-thickness="50" />
<missing-glyph  horiz-adv-x="500" d="" />
<glyph glyph-name="NULL" d="" />
<glyph glyph-name="CR" unicode="&#xd;" horiz-adv-x="250" d="" />
<glyph glyph-name="space" unicode="&#x20;" horiz-adv-x="155" d="" />
<glyph glyph-name="exclam" unicode="&#x21;" horiz-adv-x="155" d="M84 436 L84 715 L69 715 L69 436 L71 177 L82 177 L84 436 Z M86 55 L69 55 L69 0 L86 0 L86 55 Z " />
<glyph glyph-name="quotedbl" unicode="&#x22;" horiz-adv-x="206" d="M57 715 L42 715 L42 525 L57 525 L57 715 Z M164 715 L149 715 L149 525 L164 525 L164 715 Z " />
<glyph glyph-name="numbersign" unicode="&#x23;" horiz-adv-x="522" d="M63 447 L172 447 L141 254 L33 254 L31 241 L139 241 L101 0 L116 0 L154 241 L329 241 L291 0 L306 0 L344 241 L455 241 L457 254 L346 254 L377 447 L489 447 L491 460 L379 460 L414 682 L399 682 L364 460 L189 460 L224 682 L209 682 L174 460 L65 460 L63 447 Z M187 447 L362 447 L331 254 L156 254 L187 447 Z " />
<glyph glyph-name="dollar" unicode="&#x24;" horiz-adv-x="551" d="M282 758 L268 758 L268 703 C139 703 49 634 49 530 C49 426 115 386 268 360 L268 14 C112 19 40 102 31 218 L16 218 C24 92 103 5 268 0 L268 -81 L282 -81 L282 0 C417 0 521 69 521 185 C521 310 443 345 282 372 L282 689 C404 685 469 639 485 532 L500 532 C483 649 415 699 282 703 L282 758 Z M506 185 C506 78 407 14 282 14 L282 358 C438 332 506 298 506 185 L506 185 Z M64 530 C64 626 147 689 268 689 L268 375 C123 399 64 437 64 530 L64 530 Z " />
<glyph glyph-name="percent" unicode="&#x25;" horiz-adv-x="650" d="M108 0 L125 0 L554 685 L537 685 L108 0 Z M160 327 C241 327 292 398 292 504 C292 614 239 681 160 681 C79 681 24 612 24 504 C24 398 77 327 160 327 L160 327 Z M160 341 C85 341 39 406 39 504 C39 604 88 667 160 667 C232 667 277 606 277 504 C277 406 236 341 160 341 L160 341 Z M494 -8 C575 -8 626 63 626 169 C626 279 573 346 494 346 C413 346 358 277 358 169 C358 63 411 -8 494 -8 L494 -8 Z M494 6 C419 6 373 71 373 169 C373 269 421 332 494 332 C566 332 611 271 611 169 C611 71 570 6 494 6 L494 6 Z " />
<glyph glyph-name="ampersand" unicode="&#x26;" horiz-adv-x="549" d="M116 571 C116 507 151 464 202 403 L214 389 C119 329 39 277 40 164 C41 58 135 -7 238 -7 C328 -7 399 41 446 112 L540 0 L557 0 L453 124 C487 180 505 248 507 318 L492 318 C490 249 473 187 444 136 L235 386 C327 445 378 490 378 568 C378 654 319 699 250 699 C162 699 116 644 116 571 L116 571 Z M239 7 C140 7 55 70 55 164 C55 275 139 325 223 378 L436 124 C391 52 322 7 239 7 L239 7 Z M131 571 C131 636 172 685 250 685 C317 685 363 640 363 568 C363 497 318 455 226 396 L213 412 C173 461 131 509 131 571 L131 571 Z " />
<glyph glyph-name="quotesingle" unicode="&#x27;" horiz-adv-x="99" d="M57 715 L42 715 L42 525 L57 525 L57 715 Z " />
<glyph glyph-name="parenleft" unicode="&#x28;" horiz-adv-x="232" d="M195 754 C130 647 71 511 71 335 C71 146 123 8 195 -118 L211 -118 C138 7 86 148 86 335 C86 507 146 649 211 754 L195 754 Z " />
<glyph glyph-name="parenright" unicode="&#x29;" horiz-adv-x="232" d="M22 754 C87 649 147 507 147 335 C147 148 95 7 22 -118 L38 -118 C110 8 162 146 162 335 C162 511 103 647 38 754 L22 754 Z " />
<glyph glyph-name="asterisk" unicode="&#x2a;" horiz-adv-x="336" d="M48 620 L44 607 L156 569 L85 467 L97 459 L168 561 L240 459 L251 467 L179 569 L292 607 L288 620 L175 582 L175 706 L160 706 L160 582 L48 620 Z " />
<glyph glyph-name="plus" unicode="&#x2b;" horiz-adv-x="536" d="M53 320 L260 320 L260 106 L275 106 L275 320 L483 320 L483 334 L275 334 L275 546 L260 546 L260 334 L53 334 L53 320 Z " />
<glyph glyph-name="comma" unicode="&#x2c;" horiz-adv-x="104" d="M11 -120 C56 -90 60 -45 60 -3 L60 55 L44 55 L44 0 C44 -38 41 -78 11 -103 L11 -120 Z " />
<glyph glyph-name="hyphen" unicode="&#x2d;" horiz-adv-x="298" d="M38 268 L260 268 L260 283 L38 283 L38 268 Z " />
<glyph glyph-name="period" unicode="&#x2e;" horiz-adv-x="105" d="M61 55 L44 55 L44 0 L61 0 L61 55 Z " />
<glyph glyph-name="slash" unicode="&#x2f;" horiz-adv-x="347" d="M331 715 L315 715 L16 0 L32 0 L331 715 Z " />
<glyph glyph-name="zero" unicode="0" horiz-adv-x="588" d="M295 -7 C449 -7 544 131 544 343 C544 564 441 693 295 693 C148 693 44 558 44 343 C44 131 141 -7 295 -7 L295 -7 Z M295 7 C149 7 59 140 59 343 C59 550 157 679 295 679 C433 679 529 552 529 343 C529 140 440 7 295 7 L295 7 Z " />
<glyph glyph-name="one" unicode="1" horiz-adv-x="289" d="M196 688 C184 578 126 550 34 549 L34 535 C113 536 169 555 196 624 L196 0 L211 0 L211 688 L196 688 Z " />
<glyph glyph-name="two" unicode="2" horiz-adv-x="519" d="M483 14 L46 14 C53 156 162 224 277 281 C390 337 482 383 482 502 C482 616 403 700 267 700 C123 700 48 592 48 482 L62 482 C62 587 132 686 267 686 C395 686 468 610 468 502 C468 390 379 347 271 293 C149 232 35 162 31 0 L483 0 L483 14 Z " />
<glyph glyph-name="three" unicode="3" horiz-adv-x="546" d="M227 357 L296 357 C407 357 500 300 500 195 C500 74 407 7 277 7 C129 7 44 91 32 208 L18 208 C28 86 120 -7 277 -7 C415 -7 514 69 514 194 C514 290 444 349 353 364 C437 382 484 441 484 511 C484 622 393 693 265 693 C117 693 48 599 42 494 L56 494 C62 591 125 679 265 679 C385 679 470 614 470 511 C470 434 406 371 296 371 L227 371 L227 357 Z " />
<glyph glyph-name="four" unicode="4" horiz-adv-x="547" d="M411 0 L411 195 L525 195 L525 209 L411 209 L411 692 L395 692 L26 209 L26 195 L396 195 L396 0 L411 0 Z M396 669 L396 209 L44 209 L396 669 Z " />
<glyph glyph-name="five" unicode="5" horiz-adv-x="520" d="M448 685 L126 685 L46 331 L60 331 C90 377 151 428 258 428 C396 428 473 334 473 218 C473 83 373 7 258 7 C109 7 51 96 38 184 L23 184 C35 90 100 -7 258 -7 C381 -7 488 76 488 218 C488 340 405 442 258 442 C165 442 101 403 67 361 L137 671 L448 671 L448 685 Z " />
<glyph glyph-name="six" unicode="6" horiz-adv-x="554" d="M59 343 C59 574 145 679 289 679 C396 679 469 624 480 526 L495 526 C485 630 405 693 289 693 C137 693 44 585 44 332 C44 188 77 102 135 49 C176 12 234 -7 297 -7 C406 -7 516 73 516 220 C516 343 422 432 290 432 C150 432 70 333 67 217 C62 246 59 307 59 343 L59 343 Z M80 208 C80 309 149 418 291 418 C410 418 501 336 501 220 C501 82 398 7 297 7 C174 7 80 87 80 208 L80 208 Z " />
<glyph glyph-name="seven" unicode="7" horiz-adv-x="502" d="M171 0 C175 252 275 455 491 671 L491 685 L23 685 L23 671 L471 671 C264 462 160 255 156 0 L171 0 Z " />
<glyph glyph-name="eight" unicode="8" horiz-adv-x="562" d="M284 -7 C431 -7 529 72 529 190 C529 290 458 359 348 378 C433 397 487 455 487 533 C487 629 403 694 281 694 C160 694 75 629 75 533 C75 456 128 398 215 378 C104 358 33 290 33 190 C33 71 134 -7 284 -7 L284 -7 Z M284 7 C142 7 48 79 48 190 C48 302 141 370 281 370 C424 370 514 302 514 190 C514 80 423 7 284 7 L284 7 Z M281 384 C168 384 90 444 90 533 C90 621 168 680 281 680 C395 680 472 621 472 533 C472 443 395 384 281 384 L281 384 Z " />
<glyph glyph-name="nine" unicode="9" horiz-adv-x="552" d="M497 324 C497 227 484 155 448 96 C409 32 350 7 270 7 C163 7 80 64 66 160 L51 160 C65 56 155 -7 271 -7 C352 -7 418 22 461 89 C497 146 512 227 512 327 C512 508 476 600 408 649 C361 683 310 693 257 693 C148 693 39 619 39 468 C39 343 137 254 263 254 C403 254 483 350 489 466 C494 437 497 372 497 324 L497 324 Z M476 478 C476 378 409 268 263 268 C144 268 54 354 54 468 C54 609 156 679 257 679 C402 679 476 581 476 478 L476 478 Z " />
<glyph glyph-name="colon" unicode="&#x3a;" horiz-adv-x="111" d="M64 383 L47 383 L47 328 L64 328 L64 383 Z M64 55 L47 55 L47 0 L64 0 L64 55 Z " />
<glyph glyph-name="semicolon" unicode="&#x3b;" horiz-adv-x="110" d="M14 -120 C59 -90 63 -45 63 -3 L63 55 L47 55 L47 0 C47 -38 44 -78 14 -103 L14 -120 Z M63 383 L46 383 L46 328 L63 328 L63 383 Z " />
<glyph glyph-name="less" unicode="&#x3c;" horiz-adv-x="497" d="M443 150 L69 312 L443 475 L443 491 L50 318 L50 306 L443 134 L443 150 Z " />
<glyph glyph-name="equal" unicode="&#x3d;" horiz-adv-x="532" d="M53 374 L479 374 L479 388 L53 388 L53 374 Z M53 239 L479 239 L479 253 L53 253 L53 239 Z " />
<glyph glyph-name="greater" unicode="&#x3e;" horiz-adv-x="497" d="M54 133 L447 306 L447 318 L54 491 L54 475 L428 312 L54 150 L54 133 Z " />
<glyph glyph-name="question" unicode="&#x3f;" horiz-adv-x="467" d="M224 178 C224 272 248 309 322 369 C386 421 437 456 437 543 C437 644 357 723 235 723 C91 723 21 627 17 509 L32 509 C38 620 101 709 235 709 C344 709 422 638 422 543 C422 457 364 423 313 380 C232 312 210 278 210 178 L224 178 Z M226 55 L209 55 L209 0 L226 0 L226 55 Z " />
<glyph glyph-name="at" unicode="&#x40;" horiz-adv-x="862" d="M399 86 C471 86 530 137 561 212 C552 140 588 93 662 93 C761 93 829 200 829 351 C829 584 641 704 450 704 C240 704 33 553 33 285 C33 56 198 -96 434 -96 C520 -96 594 -73 634 -52 L628 -39 C590 -59 519 -82 434 -82 C206 -82 48 64 48 285 C48 545 248 690 450 690 C634 690 814 576 814 351 C814 208 752 107 662 107 C595 107 567 148 576 220 L614 504 L599 504 L584 391 C569 464 513 514 436 514 C317 514 243 408 243 266 C243 172 293 86 399 86 L399 86 Z M399 100 C301 100 258 184 258 266 C258 399 324 500 436 500 C517 500 575 440 575 345 C575 206 493 100 399 100 L399 100 Z " />
<glyph glyph-name="A" unicode="A" horiz-adv-x="588" d="M562 0 L578 0 L303 715 L285 715 L10 0 L26 0 L125 256 L463 256 L562 0 Z M294 695 L458 270 L130 270 L294 695 Z " />
<glyph glyph-name="B" unicode="B" horiz-adv-x="608" d="M550 535 C550 597 527 642 489 672 C450 701 396 715 334 715 L67 715 L67 0 L351 0 C418 0 476 19 516 53 C557 88 581 137 581 198 C581 292 520 359 422 378 C499 400 550 459 550 535 L550 535 Z M371 370 C487 367 566 301 566 198 C566 141 544 95 505 63 C467 32 413 14 350 14 L82 14 L82 370 L371 370 Z M82 701 L333 701 C449 701 535 648 535 535 C535 449 462 387 369 384 L82 384 L82 701 Z " />
<glyph glyph-name="C" unicode="C" horiz-adv-x="690" d="M646 510 C629 619 535 723 371 723 C167 723 40 571 40 358 C40 136 171 -9 367 -9 C455 -9 524 23 572 71 C621 120 650 185 656 253 L642 253 C627 122 533 5 367 5 C178 5 55 146 55 358 C55 562 173 709 371 709 C527 709 616 611 632 510 L646 510 Z " />
<glyph glyph-name="D" unicode="D" horiz-adv-x="660" d="M67 0 L321 0 C527 0 620 161 620 354 C620 544 535 715 328 715 L67 715 L67 0 Z M81 13 L81 701 L329 701 C502 701 605 565 605 354 C605 141 495 13 322 13 L81 13 Z " />
<glyph glyph-name="E" unicode="E" horiz-adv-x="582" d="M82 701 L534 701 L534 715 L67 715 L67 0 L544 0 L544 14 L82 14 L82 364 L499 364 L499 378 L82 378 L82 701 Z " />
<glyph glyph-name="F" unicode="F" horiz-adv-x="559" d="M82 701 L533 701 L533 715 L67 715 L67 0 L82 0 L82 368 L469 368 L469 382 L82 382 L82 701 Z " />
<glyph glyph-name="G" unicode="G" horiz-adv-x="719" d="M647 335 L647 295 C647 114 531 5 380 5 C171 5 55 158 55 355 C55 543 163 709 372 709 C526 709 617 620 638 510 L652 510 C630 630 534 723 372 723 C153 723 40 551 40 355 C40 150 163 -9 380 -9 C522 -9 625 82 647 202 L647 0 L662 0 L662 349 L390 349 L390 335 L647 335 Z " />
<glyph glyph-name="H" unicode="H" horiz-adv-x="655" d="M67 0 L82 0 L82 374 L573 374 L573 0 L588 0 L588 715 L573 715 L573 388 L82 388 L82 715 L67 715 L67 0 Z " />
<glyph glyph-name="I" unicode="I" horiz-adv-x="153" d="M84 715 L69 715 L69 0 L84 0 L84 715 Z " />
<glyph glyph-name="J" unicode="J" horiz-adv-x="449" d="M22 202 L22 186 C22 60 94 -11 211 -11 C335 -11 391 66 391 190 L391 715 L376 715 L376 190 C376 74 325 3 211 3 C101 3 37 70 37 186 L37 202 L22 202 Z " />
<glyph glyph-name="K" unicode="K" horiz-adv-x="602" d="M560 715 L539 715 L82 281 L82 715 L67 715 L67 0 L82 0 L82 262 L239 411 L586 0 L604 0 L250 421 L560 715 Z " />
<glyph glyph-name="L" unicode="L" horiz-adv-x="535" d="M82 715 L67 715 L67 0 L513 0 L513 14 L82 14 L82 715 Z " />
<glyph glyph-name="M" unicode="M" horiz-adv-x="799" d="M392 0 L407 0 L717 692 L717 0 L732 0 L732 715 L710 715 L399 17 L88 715 L67 715 L67 0 L82 0 L82 692 L392 0 Z " />
<glyph glyph-name="N" unicode="N" horiz-adv-x="669" d="M602 715 L587 715 L587 25 L83 715 L67 715 L67 0 L82 0 L82 690 L587 0 L602 0 L602 715 Z " />
<glyph glyph-name="O" unicode="O" horiz-adv-x="749" d="M374 -8 C568 -8 709 146 709 357 C709 569 568 723 374 723 C180 723 40 569 40 357 C40 145 180 -8 374 -8 L374 -8 Z M374 6 C184 6 55 159 55 357 C55 556 184 709 374 709 C563 709 694 555 694 357 C694 160 563 6 374 6 L374 6 Z " />
<glyph glyph-name="P" unicode="P" horiz-adv-x="560" d="M314 333 C467 333 540 404 540 525 C540 601 507 655 451 686 C416 705 371 715 321 715 L67 715 L67 0 L82 0 L82 333 L314 333 Z M82 701 L321 701 C445 701 525 638 525 525 C525 413 458 347 314 347 L82 347 L82 701 Z " />
<glyph glyph-name="Q" unicode="Q" horiz-adv-x="749" d="M374 -9 C447 -9 512 13 566 51 L682 -42 L691 -31 L577 60 C659 125 709 231 709 357 C709 569 568 723 374 723 C180 723 40 569 40 357 C40 145 180 -9 374 -9 L374 -9 Z M478 141 L469 130 L554 61 C504 26 443 5 374 5 C184 5 55 159 55 357 C55 556 184 709 374 709 C563 709 694 555 694 357 C694 237 646 133 566 70 L478 141 Z " />
<glyph glyph-name="R" unicode="R" horiz-adv-x="596" d="M82 335 L357 335 C474 334 519 272 522 170 C526 27 542 7 549 0 L566 0 L566 2 C557 11 541 24 537 174 C534 269 495 329 406 344 C508 362 554 429 554 525 C554 648 467 715 335 715 L67 715 L67 0 L82 0 L82 335 Z M82 701 L335 701 C459 701 539 638 539 525 C539 413 472 349 328 349 L82 349 L82 701 Z " />
<glyph glyph-name="S" unicode="S" horiz-adv-x="589" d="M22 227 C31 92 120 -9 307 -9 C462 -9 553 68 553 184 C553 313 457 357 291 387 C142 414 67 454 67 555 C67 651 148 709 279 709 C415 709 494 637 511 521 L526 521 C508 643 426 723 279 723 C141 723 52 659 52 555 C52 446 134 401 289 373 C452 344 538 302 538 184 C538 77 454 5 307 5 C129 5 47 98 37 227 L22 227 Z " />
<glyph glyph-name="T" unicode="T" horiz-adv-x="589" d="M302 0 L302 701 L567 701 L567 715 L22 715 L22 701 L287 701 L287 0 L302 0 Z " />
<glyph glyph-name="U" unicode="U" horiz-adv-x="626" d="M55 715 L55 236 C55 58 171 -9 313 -9 C452 -9 571 58 571 236 L571 715 L556 715 L556 236 C556 68 445 5 313 5 C178 5 70 68 70 236 L70 715 L55 715 Z " />
<glyph glyph-name="V" unicode="V" horiz-adv-x="586" d="M27 715 L10 715 L285 0 L301 0 L576 715 L559 715 L293 22 L27 715 Z " />
<glyph glyph-name="W" unicode="W" horiz-adv-x="877" d="M430 715 L237 29 L31 715 L14 715 L229 0 L245 0 L438 685 L632 0 L648 0 L863 715 L846 715 L640 28 L447 715 L430 715 Z " />
<glyph glyph-name="X" unicode="X" horiz-adv-x="578" d="M14 0 L32 0 L291 355 L546 0 L564 0 L300 368 L554 715 L536 715 L291 380 L52 715 L34 715 L282 368 L14 0 Z " />
<glyph glyph-name="Y" unicode="Y" horiz-adv-x="573" d="M27 715 L10 715 L279 324 L279 0 L294 0 L294 324 L563 715 L546 715 L286 337 L27 715 Z " />
<glyph glyph-name="Z" unicode="Z" horiz-adv-x="601" d="M53 701 L523 701 L30 14 L30 0 L565 0 L565 14 L48 14 L541 701 L541 715 L53 715 L53 701 Z " />
<glyph glyph-name="bracketleft" unicode="&#x5b;" horiz-adv-x="230" d="M92 -104 L92 740 L200 740 L200 754 L77 754 L77 -118 L200 -118 L200 -104 L92 -104 Z " />
<glyph glyph-name="backslash" unicode="&#x5c;" horiz-adv-x="347" d="M315 0 L331 0 L32 715 L16 715 L315 0 Z " />
<glyph glyph-name="bracketright" unicode="&#x5d;" horiz-adv-x="230" d="M30 -104 L30 -118 L153 -118 L153 754 L30 754 L30 740 L138 740 L138 -104 L30 -104 Z " />
<glyph glyph-name="asciicircum" unicode="&#x5e;" horiz-adv-x="379" d="M352 440 L368 440 L198 715 L181 715 L11 440 L27 440 L189 703 L352 440 Z " />
<glyph glyph-name="underscore" unicode="&#x5f;" horiz-adv-x="380" d="M-2 -166 L382 -166 L382 -152 L-2 -152 L-2 -166 Z " />
<glyph glyph-name="grave" unicode="&#x60;" horiz-adv-x="442" d="M165 725 L148 725 L216 604 L232 604 L165 725 Z " />
<glyph glyph-name="a" unicode="a" horiz-adv-x="489" d="M451 -4 C465 -4 478 0 484 4 L484 18 L482 18 C475 14 465 10 451 10 C424 10 410 22 410 69 L410 367 C410 467 354 524 240 524 C105 524 57 451 52 367 L67 367 C75 467 135 510 240 510 C346 510 395 457 395 367 C395 307 353 292 222 275 C113 261 24 234 24 129 C24 46 90 -8 190 -8 C291 -8 372 44 393 116 L395 116 L395 68 C395 31 402 -4 451 -4 L451 -4 Z M190 6 C121 6 39 38 39 129 C39 219 106 248 228 263 C349 278 379 296 395 319 L395 186 C395 75 305 6 190 6 L190 6 Z " />
<glyph glyph-name="b" unicode="b" horiz-adv-x="529" d="M55 0 L70 0 L70 155 L71 155 C94 58 176 -8 280 -8 C408 -8 503 97 503 259 C503 440 397 524 282 524 C190 524 101 471 71 357 L70 357 L70 715 L55 715 L55 0 Z M279 6 C158 6 70 103 70 256 C70 410 158 510 278 510 C389 510 488 434 488 258 C488 102 396 6 279 6 L279 6 Z " />
<glyph glyph-name="c" unicode="c" horiz-adv-x="507" d="M470 174 C456 68 383 6 264 6 C144 6 41 102 41 260 C41 420 145 510 264 510 C358 510 444 467 468 361 L483 361 C462 463 380 524 264 524 C116 524 26 403 26 260 C26 116 117 -8 264 -8 C402 -8 472 71 485 174 L470 174 Z " />
<glyph glyph-name="d" unicode="d" horiz-adv-x="529" d="M250 7 C133 7 41 102 41 258 C41 434 140 510 251 510 C371 510 459 415 459 256 C459 98 371 7 250 7 L250 7 Z M459 0 L474 0 L474 715 L459 715 L459 358 L458 358 C427 473 340 524 247 524 C132 524 26 440 26 259 C26 97 121 -7 249 -7 C352 -7 433 55 458 157 L459 157 L459 0 Z " />
<glyph glyph-name="e" unicode="e" horiz-adv-x="506" d="M482 265 C478 360 447 437 390 481 C356 509 311 524 258 524 C112 524 26 408 26 266 C26 110 109 -8 263 -8 C383 -8 454 66 473 151 L458 151 C432 54 357 6 263 6 C123 6 42 113 41 265 L482 265 Z M467 279 L41 279 C46 425 144 510 258 510 C358 510 455 445 467 279 L467 279 Z " />
<glyph glyph-name="f" unicode="f" horiz-adv-x="255" d="M232 720 C213 721 207 721 191 721 C129 721 92 694 92 615 L92 517 L22 517 L22 503 L92 503 L92 0 L107 0 L107 503 L231 503 L231 517 L107 517 L107 614 C107 687 140 707 191 707 C210 707 213 707 232 706 L232 720 Z " />
<glyph glyph-name="g" unicode="g" horiz-adv-x="524" d="M454 356 L453 356 C432 449 358 524 245 524 C130 524 26 439 26 265 C26 109 120 5 248 5 C351 5 426 67 453 166 L454 166 L454 23 C454 -79 392 -155 259 -155 C141 -155 77 -116 65 -46 L50 -46 C61 -125 133 -169 259 -169 C322 -169 371 -153 406 -125 C448 -90 469 -38 469 23 L469 517 L454 517 L454 356 Z M249 19 C132 19 41 114 41 264 C41 431 138 510 249 510 C369 510 454 413 454 262 C454 113 369 19 249 19 L249 19 Z " />
<glyph glyph-name="h" unicode="h" horiz-adv-x="479" d="M70 715 L55 715 L55 0 L70 0 L70 357 C70 429 145 509 261 509 C355 509 412 460 412 369 L412 0 L427 0 L427 370 C427 454 377 523 262 523 C156 523 98 468 72 419 L70 419 L70 715 Z " />
<glyph glyph-name="i" unicode="i" horiz-adv-x="125" d="M70 517 L55 517 L55 0 L70 0 L70 517 Z M70 706 L55 706 L55 650 L70 650 L70 706 Z " />
<glyph glyph-name="j" unicode="j" horiz-adv-x="147" d="M77 517 L77 -64 C77 -109 65 -133 15 -133 C-1 -133 -11 -131 -27 -126 L-28 -126 L-28 -140 C-15 -144 0 -147 15 -147 C72 -147 92 -120 92 -64 L92 517 L77 517 Z M92 706 L77 706 L77 650 L92 650 L92 706 Z " />
<glyph glyph-name="k" unicode="k" horiz-adv-x="436" d="M420 0 L437 0 L188 307 L401 517 L381 517 L70 210 L70 715 L55 715 L55 0 L70 0 L70 191 L178 297 L420 0 Z " />
<glyph glyph-name="l" unicode="l" horiz-adv-x="131" d="M73 715 L58 715 L58 0 L73 0 L73 715 Z " />
<glyph glyph-name="m" unicode="m" horiz-adv-x="764" d="M391 357 C391 429 456 509 564 509 C649 509 697 460 697 369 L697 0 L712 0 L712 370 C712 454 671 523 565 523 C471 523 413 469 389 411 L387 411 C375 476 332 523 244 523 C147 523 96 468 72 419 L70 419 L70 517 L55 517 L55 0 L70 0 L70 357 C70 429 135 509 243 509 C328 509 376 460 376 369 L376 0 L391 0 L391 357 Z " />
<glyph glyph-name="n" unicode="n" horiz-adv-x="479" d="M70 517 L55 517 L55 0 L70 0 L70 357 C70 429 144 509 261 509 C355 509 412 460 412 369 L412 0 L427 0 L427 370 C427 454 377 523 262 523 C156 523 98 468 72 419 L70 419 L70 517 Z " />
<glyph glyph-name="o" unicode="o" horiz-adv-x="528" d="M264 -8 C413 -8 502 117 502 260 C502 403 413 524 264 524 C116 524 26 402 26 259 C26 116 116 -8 264 -8 L264 -8 Z M264 6 C145 6 41 99 41 259 C41 419 145 510 264 510 C383 510 487 420 487 260 C487 100 383 6 264 6 L264 6 Z " />
<glyph glyph-name="p" unicode="p" horiz-adv-x="529" d="M55 -166 L70 -166 L70 155 L71 155 C94 58 176 -8 280 -8 C408 -8 503 97 503 259 C503 440 397 524 282 524 C190 524 101 471 71 357 L70 357 L70 517 L55 517 L55 -166 Z M279 6 C158 6 70 103 70 256 C70 410 158 510 278 510 C389 510 488 434 488 258 C488 102 396 6 279 6 L279 6 Z " />
<glyph glyph-name="q" unicode="q" horiz-adv-x="532" d="M253 7 C136 7 44 102 44 258 C44 434 143 510 254 510 C374 510 462 415 462 256 C462 98 374 7 253 7 L253 7 Z M462 -166 L477 -166 L477 517 L462 517 L462 358 L461 358 C430 473 343 524 250 524 C135 524 29 440 29 259 C29 97 124 -7 252 -7 C355 -7 436 55 461 157 L462 157 L462 -166 Z " />
<glyph glyph-name="r" unicode="r" horiz-adv-x="302" d="M284 517 C278 520 256 523 240 523 C170 523 107 483 72 409 L70 409 L70 517 L55 517 L55 0 L70 0 L70 344 C70 413 136 509 239 509 C257 509 272 507 284 503 L284 517 Z " />
<glyph glyph-name="s" unicode="s" horiz-adv-x="453" d="M22 161 C30 58 98 -8 236 -8 C350 -8 430 39 430 131 C430 221 378 261 233 281 C99 299 59 338 59 399 C59 461 103 510 217 510 C334 510 378 454 392 374 L407 374 C393 460 343 524 217 524 C96 524 44 469 44 399 C44 329 89 288 230 268 C367 249 416 213 416 131 C416 55 352 6 236 6 C106 6 45 66 37 161 L22 161 Z " />
<glyph glyph-name="t" unicode="t" horiz-adv-x="265" d="M22 503 L92 503 L92 77 C92 21 117 -6 181 -6 C198 -6 223 -3 236 1 L236 15 L235 15 C219 10 199 8 181 8 C126 8 107 32 107 77 L107 503 L236 503 L236 517 L107 517 L107 680 L92 680 L92 517 L22 517 L22 503 Z " />
<glyph glyph-name="u" unicode="u" horiz-adv-x="473" d="M403 0 L418 0 L418 517 L403 517 L403 159 C403 87 329 7 215 7 C123 7 67 56 67 147 L67 517 L52 517 L52 146 C52 62 101 -7 214 -7 C316 -7 377 47 401 97 L403 97 L403 0 Z " />
<glyph glyph-name="v" unicode="v" horiz-adv-x="420" d="M18 517 L2 517 L202 0 L218 0 L418 517 L402 517 L210 20 L18 517 Z " />
<glyph glyph-name="w" unicode="w" horiz-adv-x="694" d="M20 517 L4 517 L178 0 L194 0 L346 491 L495 0 L511 0 L690 517 L674 517 L503 24 L354 517 L338 517 L186 25 L20 517 Z " />
<glyph glyph-name="x" unicode="x" horiz-adv-x="463" d="M6 0 L25 0 L231 263 L438 0 L457 0 L241 275 L430 517 L411 517 L231 287 L52 517 L33 517 L222 275 L6 0 Z " />
<glyph glyph-name="y" unicode="y" horiz-adv-x="429" d="M427 517 L411 517 L217 40 L19 517 L2 517 L209 20 L185 -39 C143 -143 124 -154 79 -154 C60 -154 42 -150 30 -145 L29 -145 L29 -160 C40 -164 57 -168 79 -168 C136 -168 157 -150 199 -45 L427 517 Z " />
<glyph glyph-name="z" unicode="z" horiz-adv-x="450" d="M410 503 L410 517 L50 517 L50 503 L391 503 L34 14 L34 0 L425 0 L425 14 L52 14 L410 503 Z " />
<glyph glyph-name="braceleft" unicode="&#x7b;" horiz-adv-x="246" d="M90 614 L90 399 C90 356 74 329 31 329 L24 329 L24 315 L31 315 C76 315 90 288 90 245 L90 24 C90 -82 129 -118 216 -118 L216 -104 C139 -104 105 -72 105 24 L105 245 C105 286 95 310 64 322 C92 334 105 360 105 399 L105 614 C105 710 139 740 216 740 L216 754 C129 754 90 720 90 614 L90 614 Z " />
<glyph glyph-name="bar" unicode="&#x7c;" horiz-adv-x="169" d="M77 -118 L92 -118 L92 754 L77 754 L77 -118 Z " />
<glyph glyph-name="braceright" unicode="&#x7d;" horiz-adv-x="246" d="M30 740 C107 740 141 710 141 614 L141 399 C141 360 154 334 182 322 C151 310 141 286 141 245 L141 24 C141 -72 107 -104 30 -104 L30 -118 C117 -118 156 -82 156 24 L156 245 C156 288 170 315 215 315 L222 315 L222 329 L215 329 C172 329 156 356 156 399 L156 614 C156 720 117 754 30 754 L30 740 Z " />
<glyph glyph-name="asciitilde" unicode="&#x7e;" horiz-adv-x="384" d="M186 328 C218 305 237 289 274 289 C321 289 345 324 348 372 L333 372 C330 329 311 303 276 303 C243 303 225 318 198 338 C166 361 147 377 110 377 C63 377 39 342 36 294 L51 294 C54 337 73 363 108 363 C141 363 159 348 186 328 L186 328 Z " />
<glyph glyph-name="uni00A0" unicode="&#xa0;" horiz-adv-x="155" d="" />
<glyph glyph-name="exclamdown" unicode="&#xa1;" horiz-adv-x="155" d="M70 152 L70 -127 L85 -127 L85 152 L83 411 L72 411 L70 152 Z M69 525 L86 525 L86 588 L69 588 L69 525 Z " />
<glyph glyph-name="cent" unicode="&#xa2;" horiz-adv-x="507" d="M470 174 C456 71 388 10 276 6 L276 510 C365 506 445 462 468 361 L483 361 C462 459 385 520 276 524 L276 591 L262 591 L262 524 C115 523 26 402 26 260 C26 116 116 -7 262 -8 L262 -85 L276 -85 L276 -8 C406 -3 472 74 485 174 L470 174 Z M41 260 C41 419 144 509 262 510 L262 6 C143 7 41 103 41 260 L41 260 Z " />
<glyph glyph-name="sterling" unicode="&#xa3;" horiz-adv-x="524" d="M31 328 L119 328 C133 292 143 255 143 216 C143 130 100 66 33 9 L43 -1 C87 39 117 50 162 50 C203 50 232 34 260 22 C291 8 325 -6 371 -6 C427 -6 473 19 511 60 L501 70 C465 31 422 8 371 8 C327 8 294 21 266 34 C237 47 204 64 162 64 C136 64 114 60 93 49 C135 97 158 144 158 216 C158 254 148 292 135 328 L299 328 L299 342 L129 342 C101 410 83 455 83 508 C83 611 155 680 279 680 C382 680 469 624 475 483 L490 483 C485 631 391 694 279 694 C149 694 68 620 68 508 C68 453 86 407 114 342 L31 342 L31 328 Z " />
<glyph glyph-name="currency" unicode="&#xa4;" horiz-adv-x="438" d="M420 150 L353 218 C381 253 398 298 398 349 C398 399 381 445 353 479 L420 548 L410 558 L344 490 C312 523 269 543 219 543 C168 543 125 523 94 490 L28 558 L18 548 L84 479 C56 445 40 399 40 349 C40 298 56 253 84 218 L18 150 L28 140 L94 208 C125 175 168 156 219 156 C269 156 312 175 344 208 L410 140 L420 150 Z M55 349 C55 448 122 529 219 529 C316 529 383 448 383 349 C383 250 316 170 219 170 C122 170 55 250 55 349 L55 349 Z " />
<glyph glyph-name="yen" unicode="&#xa5;" horiz-adv-x="528" d="M474 220 L271 220 L271 328 L474 328 L474 342 L280 342 L518 685 L500 685 L263 342 L28 685 L10 685 L247 342 L54 342 L54 328 L256 328 L256 220 L54 220 L54 206 L256 206 L256 0 L271 0 L271 206 L474 206 L474 220 Z " />
<glyph glyph-name="brokenbar" unicode="&#xa6;" horiz-adv-x="169" d="M77 358 L92 358 L92 754 L77 754 L77 358 Z M77 -118 L92 -118 L92 294 L77 294 L77 -118 Z " />
<glyph glyph-name="section" unicode="&#xa7;" horiz-adv-x="543" d="M515 183 C515 257 467 295 335 374 C200 455 113 488 113 567 C113 638 170 674 266 674 C362 674 420 623 431 531 L446 531 C436 634 369 688 266 688 C157 688 98 641 98 567 C98 525 117 497 151 470 C73 448 28 405 28 337 C28 253 99 214 235 136 C396 43 430 21 430 -49 C430 -116 366 -158 279 -158 C181 -158 103 -112 92 -3 L77 -3 C88 -118 168 -172 279 -172 C374 -172 445 -126 445 -49 C445 -10 436 16 398 48 C461 68 515 107 515 183 L515 183 Z M328 362 C448 290 500 253 500 183 C500 112 445 77 386 58 C360 78 323 102 243 148 C88 237 43 269 43 337 C43 393 78 437 164 460 C200 435 248 410 328 362 L328 362 Z " />
<glyph glyph-name="dieresis" unicode="&#xa8;" horiz-adv-x="418" d="M144 705 L129 705 L129 651 L144 651 L144 705 Z M289 705 L274 705 L274 651 L289 651 L289 705 Z " />
<glyph glyph-name="copyright" unicode="&#xa9;" horiz-adv-x="800" d="M400 -11 C603 -11 760 149 760 355 C760 561 603 722 400 722 C197 722 40 561 40 355 C40 149 197 -11 400 -11 L400 -11 Z M400 3 C205 3 54 157 54 355 C54 554 205 708 400 708 C595 708 746 554 746 355 C746 157 595 3 400 3 L400 3 Z M582 450 C571 521 514 588 409 588 C280 588 203 489 203 358 C203 215 293 127 407 127 C463 127 505 145 534 173 C564 201 580 240 584 281 L569 281 C560 202 507 141 407 141 C298 141 218 226 218 358 C218 485 288 574 409 574 C504 574 556 513 567 450 L582 450 Z " />
<glyph glyph-name="ordfeminine" unicode="&#xaa;" horiz-adv-x="458" d="M418 232 C431 232 443 236 448 240 L448 253 L447 253 C439 249 431 246 418 246 C395 246 382 258 382 298 L382 555 C382 650 333 701 233 701 C112 701 69 635 65 560 L80 560 C87 649 141 687 233 687 C324 687 367 640 367 558 L367 544 C367 506 324 496 217 481 C122 469 40 450 40 351 C40 276 99 228 188 228 C274 228 342 269 367 336 L367 297 C367 264 374 232 418 232 L418 232 Z M188 242 C127 242 55 271 55 351 C55 432 115 455 222 467 C320 481 354 493 367 509 L367 401 C367 304 287 242 188 242 L188 242 Z " />
<glyph glyph-name="guillemotleft" unicode="&#xab;" horiz-adv-x="359" d="M309 135 L309 153 L180 272 L309 388 L309 407 L168 280 L168 264 L309 135 Z M191 135 L191 153 L62 272 L191 388 L191 407 L50 280 L50 264 L191 135 Z " />
<glyph glyph-name="logicalnot" unicode="&#xac;" horiz-adv-x="537" d="M454 157 L454 392 L63 392 L63 378 L439 378 L439 157 L454 157 Z " />
<glyph glyph-name="uni00AD" unicode="&#xad;" horiz-adv-x="298" d="M38 268 L260 268 L260 283 L38 283 L38 268 Z " />
<glyph glyph-name="registered" unicode="&#xae;" horiz-adv-x="518" d="M259 249 C387 249 492 349 492 486 C492 622 387 723 259 723 C131 723 26 622 26 486 C26 349 131 249 259 249 L259 249 Z M259 263 C139 263 41 357 41 486 C41 614 139 709 259 709 C379 709 477 614 477 486 C477 357 379 263 259 263 L259 263 Z M185 477 L265 477 C304 477 331 470 334 422 C337 376 340 365 344 361 L358 361 L358 364 C353 369 350 375 347 423 C345 454 337 475 305 484 C339 493 354 515 354 547 C354 593 321 617 272 617 L171 617 L171 361 L185 361 L185 477 Z M185 604 L271 604 C313 604 340 585 340 547 C340 510 317 490 269 490 L185 490 L185 604 Z " />
<glyph glyph-name="macron" unicode="&#xaf;" horiz-adv-x="460" d="M121 650 L339 650 L339 664 L121 664 L121 650 Z " />
<glyph glyph-name="degree" unicode="&#xb0;" horiz-adv-x="301" d="M151 462 C218 462 267 513 267 578 C267 643 218 694 151 694 C85 694 34 643 34 578 C34 513 85 462 151 462 L151 462 Z M151 476 C93 476 49 521 49 578 C49 636 93 680 151 680 C210 680 252 635 252 578 C252 520 210 476 151 476 L151 476 Z " />
<glyph glyph-name="plusminus" unicode="&#xb1;" horiz-adv-x="536" d="M53 341 L260 341 L260 144 L275 144 L275 341 L483 341 L483 355 L275 355 L275 548 L260 548 L260 355 L53 355 L53 341 Z M53 0 L483 0 L483 14 L53 14 L53 0 Z " />
<glyph glyph-name="twosuperior" unicode="&#xb2;" horiz-adv-x="323" d="M297 288 L40 288 C45 361 100 394 166 432 C232 470 291 497 292 569 C293 635 250 689 159 689 C60 689 23 619 23 554 L38 554 C38 614 71 675 159 675 C237 675 277 631 277 569 C277 506 222 480 158 443 C88 402 25 367 24 274 L297 274 L297 288 Z " />
<glyph glyph-name="threesuperior" unicode="&#xb3;" horiz-adv-x="347" d="M147 500 L147 486 L190 486 C256 486 306 455 306 392 C306 324 251 283 176 283 C92 283 44 334 37 405 L22 405 C28 327 83 269 176 269 C260 269 321 317 321 392 C321 449 287 481 233 494 C278 508 302 541 302 584 C302 649 247 690 171 690 C84 690 42 632 38 569 L53 569 C58 629 94 676 171 676 C239 676 287 640 287 584 C287 538 252 500 190 500 L147 500 Z " />
<glyph glyph-name="acute" unicode="&#xb4;" horiz-adv-x="442" d="M210 604 L226 604 L291 725 L274 725 L210 604 Z " />
<glyph glyph-name="mu" unicode="&#xb5;" horiz-adv-x="476" d="M406 0 L421 0 L421 517 L406 517 L406 160 C406 88 332 8 218 8 C126 8 70 57 70 148 L70 517 L55 517 L55 -166 L69 -166 L69 77 C90 29 138 -6 217 -6 C319 -6 380 48 404 98 L406 98 L406 0 Z " />
<glyph glyph-name="paragraph" unicode="&#xb6;" horiz-adv-x="428" d="M254 385 L254 0 L269 0 L269 701 L346 701 L346 0 L361 0 L361 715 L214 715 C157 715 111 701 78 672 C48 645 29 603 29 552 C29 444 99 385 223 385 L254 385 Z " />
<glyph glyph-name="periodcentered" unicode="&#xb7;" horiz-adv-x="105" d="M64 341 L47 341 L47 286 L64 286 L64 341 Z " />
<glyph glyph-name="cedilla" unicode="&#xb8;" horiz-adv-x="489" d="M256 0 L181 -72 L188 -82 C203 -73 222 -68 243 -68 C285 -68 306 -84 306 -111 C306 -151 270 -165 226 -165 C196 -165 161 -155 136 -138 L129 -150 C158 -169 195 -179 226 -179 C278 -179 321 -158 321 -111 C321 -77 294 -54 243 -54 C229 -54 215 -58 211 -60 L275 0 L256 0 Z " />
<glyph glyph-name="onesuperior" unicode="&#xb9;" horiz-adv-x="204" d="M144 275 L144 688 L129 688 C122 623 87 606 23 606 L23 592 C75 592 110 602 129 637 L129 275 L144 275 Z " />
<glyph glyph-name="ordmasculine" unicode="&#xba;" horiz-adv-x="507" d="M254 223 C388 223 471 332 471 462 C471 592 388 701 254 701 C120 701 36 592 36 462 C36 332 120 223 254 223 L254 223 Z M254 237 C128 237 51 340 51 462 C51 584 128 687 254 687 C380 687 456 584 456 462 C456 340 380 237 254 237 L254 237 Z " />
<glyph glyph-name="guillemotright" unicode="&#xbb;" horiz-adv-x="359" d="M168 135 L309 264 L309 280 L168 407 L168 388 L297 272 L168 153 L168 135 Z M50 135 L191 264 L191 280 L50 407 L50 388 L179 272 L50 153 L50 135 Z " />
<glyph glyph-name="onequarter" unicode="&#xbc;" horiz-adv-x="727" d="M636 0 L636 114 L702 114 L702 128 L636 128 L636 416 L624 416 L388 126 L388 114 L621 114 L621 0 L636 0 Z M621 128 L408 128 L621 388 L621 128 Z M563 715 L76 0 L93 0 L580 715 L563 715 Z M147 303 L147 716 L132 716 C125 651 90 634 26 634 L26 620 C78 620 113 630 132 664 L132 303 L147 303 Z " />
<glyph glyph-name="onehalf" unicode="&#xbd;" horiz-adv-x="749" d="M551 715 L64 0 L81 0 L568 715 L551 715 Z M720 0 L720 14 L463 14 C468 88 523 120 589 158 C655 196 714 223 715 295 C716 361 673 415 582 415 C483 415 446 345 446 280 L461 280 C461 340 494 401 582 401 C660 401 700 357 700 295 C700 232 645 206 581 169 C511 128 448 91 447 0 L720 0 Z M147 303 L147 716 L132 716 C125 651 90 634 26 634 L26 620 C78 620 113 630 132 664 L132 303 L147 303 Z " />
<glyph glyph-name="threequarters" unicode="&#xbe;" horiz-adv-x="822" d="M731 0 L731 114 L797 114 L797 128 L731 128 L731 416 L719 416 L483 126 L483 114 L716 114 L716 0 L731 0 Z M716 128 L503 128 L716 388 L716 128 Z M150 529 L150 515 L193 515 C259 515 309 484 309 421 C309 353 254 312 179 312 C95 312 47 363 40 434 L25 434 C31 356 86 298 179 298 C263 298 324 346 324 421 C324 478 290 510 236 523 C281 537 305 570 305 613 C305 678 250 719 174 719 C87 719 45 661 41 598 L56 598 C61 658 97 705 174 705 C242 705 290 669 290 613 C290 567 255 529 193 529 L150 529 Z M669 715 L182 0 L199 0 L686 715 L669 715 Z " />
<glyph glyph-name="questiondown" unicode="&#xbf;" horiz-adv-x="467" d="M243 410 C243 316 219 279 145 219 C81 167 30 132 30 45 C30 -56 110 -135 232 -135 C376 -135 446 -39 450 79 L435 79 C429 -32 366 -121 232 -121 C123 -121 45 -50 45 45 C45 131 103 165 154 208 C235 276 257 310 257 410 L243 410 Z M240 525 L257 525 L257 588 L240 588 L240 525 Z " />
<glyph glyph-name="Agrave" unicode="&#xc0;" horiz-adv-x="588" d="M562 0 L578 0 L303 715 L285 715 L10 0 L26 0 L125 256 L463 256 L562 0 Z M294 695 L458 270 L130 270 L294 695 Z M230 871 L213 871 L280 756 L296 756 L230 871 Z " />
<glyph glyph-name="Aacute" unicode="&#xc1;" horiz-adv-x="588" d="M562 0 L578 0 L303 715 L285 715 L10 0 L26 0 L125 256 L463 256 L562 0 Z M294 695 L458 270 L130 270 L294 695 Z M290 756 L306 756 L368 871 L351 871 L290 756 Z " />
<glyph glyph-name="Acircumflex" unicode="&#xc2;" horiz-adv-x="588" d="M562 0 L578 0 L303 715 L285 715 L10 0 L26 0 L125 256 L463 256 L562 0 Z M294 695 L458 270 L130 270 L294 695 Z M302 862 L286 862 L192 758 L209 758 L294 850 L379 758 L396 758 L302 862 Z " />
<glyph glyph-name="Atilde" unicode="&#xc3;" horiz-adv-x="588" d="M562 0 L578 0 L303 715 L285 715 L10 0 L26 0 L125 256 L463 256 L562 0 Z M294 695 L458 270 L130 270 L294 695 Z M224 844 C189 844 164 817 162 769 L176 769 C179 813 197 830 223 830 C282 830 300 770 364 770 C399 770 424 795 426 845 L412 845 C409 801 391 784 365 784 C306 784 290 844 224 844 L224 844 Z " />
<glyph glyph-name="Adieresis" unicode="&#xc4;" horiz-adv-x="588" d="M562 0 L578 0 L303 715 L285 715 L10 0 L26 0 L125 256 L463 256 L562 0 Z M294 695 L458 270 L130 270 L294 695 Z M229 836 L214 836 L214 782 L229 782 L229 836 Z M374 836 L359 836 L359 782 L374 782 L374 836 Z " />
<glyph glyph-name="Aring" unicode="&#xc5;" horiz-adv-x="588" d="M562 0 L578 0 L303 715 L285 715 L10 0 L26 0 L125 256 L463 256 L562 0 Z M294 695 L458 270 L130 270 L294 695 Z M294 754 C339 754 370 785 370 832 C370 878 339 909 294 909 C249 909 217 878 217 832 C217 785 249 754 294 754 L294 754 Z M294 767 C256 767 231 794 231 832 C231 870 256 896 294 896 C332 896 356 870 356 832 C356 794 332 767 294 767 L294 767 Z " />
<glyph glyph-name="AE" unicode="&#xc6;" horiz-adv-x="889" d="M444 701 L841 701 L841 715 L289 715 L14 0 L30 0 L129 256 L429 256 L429 0 L851 0 L851 14 L444 14 L444 364 L806 364 L806 378 L444 378 L444 701 Z M300 701 L429 701 L429 270 L134 270 L300 701 Z " />
<glyph glyph-name="Ccedilla" unicode="&#xc7;" horiz-adv-x="690" d="M646 510 C629 619 535 723 371 723 C167 723 40 571 40 358 C40 136 171 -9 367 -9 L383 -9 L317 -72 L324 -82 C339 -73 358 -68 379 -68 C421 -68 442 -84 442 -111 C442 -151 406 -165 362 -165 C332 -165 297 -155 272 -138 L265 -150 C294 -169 331 -179 362 -179 C414 -179 457 -158 457 -111 C457 -77 430 -54 379 -54 C365 -54 351 -58 347 -60 L403 -7 C474 0 531 30 572 71 C621 120 650 185 656 253 L642 253 C627 122 533 5 367 5 C178 5 55 146 55 358 C55 562 173 709 371 709 C527 709 616 611 632 510 L646 510 Z " />
<glyph glyph-name="Egrave" unicode="&#xc8;" horiz-adv-x="582" d="M248 871 L231 871 L298 756 L314 756 L248 871 Z M82 701 L534 701 L534 715 L67 715 L67 0 L544 0 L544 14 L82 14 L82 364 L499 364 L499 378 L82 378 L82 701 Z " />
<glyph glyph-name="Eacute" unicode="&#xc9;" horiz-adv-x="582" d="M292 756 L308 756 L370 871 L353 871 L292 756 Z M82 701 L534 701 L534 715 L67 715 L67 0 L544 0 L544 14 L82 14 L82 364 L499 364 L499 378 L82 378 L82 701 Z " />
<glyph glyph-name="Ecircumflex" unicode="&#xca;" horiz-adv-x="582" d="M82 701 L534 701 L534 715 L67 715 L67 0 L544 0 L544 14 L82 14 L82 364 L499 364 L499 378 L82 378 L82 701 Z M311 862 L295 862 L201 758 L218 758 L303 850 L388 758 L405 758 L311 862 Z " />
<glyph glyph-name="Edieresis" unicode="&#xcb;" horiz-adv-x="582" d="M238 836 L223 836 L223 782 L238 782 L238 836 Z M383 836 L368 836 L368 782 L383 782 L383 836 Z M82 701 L534 701 L534 715 L67 715 L67 0 L544 0 L544 14 L82 14 L82 364 L499 364 L499 378 L82 378 L82 701 Z " />
<glyph glyph-name="Igrave" unicode="&#xcc;" horiz-adv-x="153" d="M84 715 L69 715 L69 0 L84 0 L84 715 Z M16 871 L-1 871 L66 756 L82 756 L16 871 Z " />
<glyph glyph-name="Iacute" unicode="&#xcd;" horiz-adv-x="153" d="M84 715 L69 715 L69 0 L84 0 L84 715 Z M71 756 L87 756 L149 871 L132 871 L71 756 Z " />
<glyph glyph-name="Icircumflex" unicode="&#xce;" horiz-adv-x="153" d="M84 715 L69 715 L69 0 L84 0 L84 715 Z M85 862 L69 862 L-25 758 L-8 758 L77 850 L162 758 L179 758 L85 862 Z " />
<glyph glyph-name="Idieresis" unicode="&#xcf;" horiz-adv-x="153" d="M25 836 L10 836 L10 782 L25 782 L25 836 Z M143 836 L128 836 L128 782 L143 782 L143 836 Z M84 715 L69 715 L69 0 L84 0 L84 715 Z " />
<glyph glyph-name="Eth" unicode="&#xd0;" horiz-adv-x="672" d="M79 0 L333 0 C539 0 632 161 632 354 C632 544 547 715 340 715 L79 715 L79 368 L5 368 L5 354 L79 354 L79 0 Z M93 13 L93 354 L351 354 L351 368 L93 368 L93 701 L341 701 C514 701 617 565 617 354 C617 141 507 13 334 13 L93 13 Z " />
<glyph glyph-name="Ntilde" unicode="&#xd1;" horiz-adv-x="669" d="M602 715 L587 715 L587 25 L83 715 L67 715 L67 0 L82 0 L82 690 L587 0 L602 0 L602 715 Z M273 844 C238 844 213 817 211 769 L225 769 C228 813 246 830 272 830 C331 830 349 770 413 770 C448 770 473 795 475 845 L461 845 C458 801 440 784 414 784 C355 784 339 844 273 844 L273 844 Z " />
<glyph glyph-name="Ograve" unicode="&#xd2;" horiz-adv-x="749" d="M374 -8 C568 -8 709 146 709 357 C709 569 568 723 374 723 C180 723 40 569 40 357 C40 145 180 -8 374 -8 L374 -8 Z M374 6 C184 6 55 159 55 357 C55 556 184 709 374 709 C563 709 694 555 694 357 C694 160 563 6 374 6 L374 6 Z M318 871 L301 871 L368 756 L384 756 L318 871 Z " />
<glyph glyph-name="Oacute" unicode="&#xd3;" horiz-adv-x="749" d="M374 -8 C568 -8 709 146 709 357 C709 569 568 723 374 723 C180 723 40 569 40 357 C40 145 180 -8 374 -8 L374 -8 Z M374 6 C184 6 55 159 55 357 C55 556 184 709 374 709 C563 709 694 555 694 357 C694 160 563 6 374 6 L374 6 Z M353 756 L369 756 L431 871 L414 871 L353 756 Z " />
<glyph glyph-name="Ocircumflex" unicode="&#xd4;" horiz-adv-x="749" d="M374 -8 C568 -8 709 146 709 357 C709 569 568 723 374 723 C180 723 40 569 40 357 C40 145 180 -8 374 -8 L374 -8 Z M374 6 C184 6 55 159 55 357 C55 556 184 709 374 709 C563 709 694 555 694 357 C694 160 563 6 374 6 L374 6 Z M382 862 L366 862 L272 758 L289 758 L374 850 L459 758 L476 758 L382 862 Z " />
<glyph glyph-name="Otilde" unicode="&#xd5;" horiz-adv-x="749" d="M374 -8 C568 -8 709 146 709 357 C709 569 568 723 374 723 C180 723 40 569 40 357 C40 145 180 -8 374 -8 L374 -8 Z M374 6 C184 6 55 159 55 357 C55 556 184 709 374 709 C563 709 694 555 694 357 C694 160 563 6 374 6 L374 6 Z M309 844 C274 844 249 817 247 769 L261 769 C264 813 282 830 308 830 C367 830 385 770 449 770 C484 770 509 795 511 845 L497 845 C494 801 476 784 450 784 C391 784 375 844 309 844 L309 844 Z " />
<glyph glyph-name="Odieresis" unicode="&#xd6;" horiz-adv-x="749" d="M374 -8 C568 -8 709 146 709 357 C709 569 568 723 374 723 C180 723 40 569 40 357 C40 145 180 -8 374 -8 L374 -8 Z M374 6 C184 6 55 159 55 357 C55 556 184 709 374 709 C563 709 694 555 694 357 C694 160 563 6 374 6 L374 6 Z M310 836 L295 836 L295 782 L310 782 L310 836 Z M455 836 L440 836 L440 782 L455 782 L455 836 Z " />
<glyph glyph-name="multiply" unicode="&#xd7;" horiz-adv-x="508" d="M426 509 L254 335 L82 509 L72 499 L244 325 L73 152 L83 142 L254 315 L425 142 L435 152 L264 325 L436 499 L426 509 Z " />
<glyph glyph-name="Oslash" unicode="&#xd8;" horiz-adv-x="749" d="M50 -7 L138 90 C197 29 278 -7 372 -7 C566 -7 707 147 707 358 C707 462 673 552 615 617 L702 713 L692 723 L605 627 C546 687 465 723 372 723 C178 723 38 570 38 358 C38 254 71 165 128 100 L40 3 L50 -7 Z M372 7 C280 7 203 42 148 101 L605 605 C660 542 692 456 692 358 C692 161 561 7 372 7 L372 7 Z M53 358 C53 557 182 709 372 709 C462 709 539 674 595 616 L138 111 C84 174 53 260 53 358 L53 358 Z " />
<glyph glyph-name="Ugrave" unicode="&#xd9;" horiz-adv-x="626" d="M55 715 L55 236 C55 58 171 -9 313 -9 C452 -9 571 58 571 236 L571 715 L556 715 L556 236 C556 68 445 5 313 5 C178 5 70 68 70 236 L70 715 L55 715 Z M270 871 L253 871 L320 756 L336 756 L270 871 Z " />
<glyph glyph-name="Uacute" unicode="&#xda;" horiz-adv-x="626" d="M55 715 L55 236 C55 58 171 -9 313 -9 C452 -9 571 58 571 236 L571 715 L556 715 L556 236 C556 68 445 5 313 5 C178 5 70 68 70 236 L70 715 L55 715 Z M288 756 L304 756 L366 871 L349 871 L288 756 Z " />
<glyph glyph-name="Ucircumflex" unicode="&#xdb;" horiz-adv-x="626" d="M55 715 L55 236 C55 58 171 -9 313 -9 C452 -9 571 58 571 236 L571 715 L556 715 L556 236 C556 68 445 5 313 5 C178 5 70 68 70 236 L70 715 L55 715 Z M326 862 L310 862 L216 758 L233 758 L318 850 L403 758 L420 758 L326 862 Z " />
<glyph glyph-name="Udieresis" unicode="&#xdc;" horiz-adv-x="626" d="M55 715 L55 236 C55 58 171 -9 313 -9 C452 -9 571 58 571 236 L571 715 L556 715 L556 236 C556 68 445 5 313 5 C178 5 70 68 70 236 L70 715 L55 715 Z M251 836 L236 836 L236 782 L251 782 L251 836 Z M396 836 L381 836 L381 782 L396 782 L396 836 Z " />
<glyph glyph-name="Yacute" unicode="&#xdd;" horiz-adv-x="573" d="M27 715 L10 715 L279 324 L279 0 L294 0 L294 324 L563 715 L546 715 L286 337 L27 715 Z M273 756 L289 756 L351 871 L334 871 L273 756 Z " />
<glyph glyph-name="Thorn" unicode="&#xde;" horiz-adv-x="541" d="M82 715 L67 715 L67 0 L82 0 L82 191 L284 191 C445 191 524 249 524 382 C524 453 502 500 462 529 C422 559 366 570 297 570 L82 570 L82 715 Z M297 556 C426 556 509 514 509 382 C509 256 435 205 284 205 L82 205 L82 556 L297 556 Z " />
<glyph glyph-name="germandbls" unicode="&#xdf;" horiz-adv-x="475" d="M189 402 L247 402 C352 402 434 324 434 212 C434 92 363 9 235 9 C221 9 199 10 182 14 L181 14 L181 0 C198 -4 219 -5 235 -5 C373 -5 449 84 449 212 C449 319 379 397 283 412 C353 430 399 486 399 559 C399 656 333 723 227 723 C99 723 55 645 55 536 L55 0 L70 0 L70 534 C70 639 111 709 227 709 C326 709 384 648 384 559 C384 475 317 416 230 416 L189 416 L189 402 Z " />
<glyph glyph-name="agrave" unicode="&#xe0;" horiz-adv-x="489" d="M451 -4 C465 -4 478 0 484 4 L484 18 L482 18 C475 14 465 10 451 10 C424 10 410 22 410 69 L410 367 C410 467 354 524 240 524 C105 524 57 451 52 367 L67 367 C75 467 135 510 240 510 C346 510 395 457 395 367 C395 307 353 292 222 275 C113 261 24 234 24 129 C24 46 90 -8 190 -8 C291 -8 372 44 393 116 L395 116 L395 68 C395 31 402 -4 451 -4 L451 -4 Z M190 6 C121 6 39 38 39 129 C39 219 106 248 228 263 C349 278 379 296 395 319 L395 186 C395 75 305 6 190 6 L190 6 Z M174 725 L157 725 L225 604 L241 604 L174 725 Z " />
<glyph glyph-name="aacute" unicode="&#xe1;" horiz-adv-x="489" d="M451 -4 C465 -4 478 0 484 4 L484 18 L482 18 C475 14 465 10 451 10 C424 10 410 22 410 69 L410 367 C410 467 354 524 240 524 C105 524 57 451 52 367 L67 367 C75 467 135 510 240 510 C346 510 395 457 395 367 C395 307 353 292 222 275 C113 261 24 234 24 129 C24 46 90 -8 190 -8 C291 -8 372 44 393 116 L395 116 L395 68 C395 31 402 -4 451 -4 L451 -4 Z M190 6 C121 6 39 38 39 129 C39 219 106 248 228 263 C349 278 379 296 395 319 L395 186 C395 75 305 6 190 6 L190 6 Z M222 604 L238 604 L303 725 L286 725 L222 604 Z " />
<glyph glyph-name="acircumflex" unicode="&#xe2;" horiz-adv-x="489" d="M451 -4 C465 -4 478 0 484 4 L484 18 L482 18 C475 14 465 10 451 10 C424 10 410 22 410 69 L410 367 C410 467 354 524 240 524 C105 524 57 451 52 367 L67 367 C75 467 135 510 240 510 C346 510 395 457 395 367 C395 307 353 292 222 275 C113 261 24 234 24 129 C24 46 90 -8 190 -8 C291 -8 372 44 393 116 L395 116 L395 68 C395 31 402 -4 451 -4 L451 -4 Z M190 6 C121 6 39 38 39 129 C39 219 106 248 228 263 C349 278 379 296 395 319 L395 186 C395 75 305 6 190 6 L190 6 Z M231 708 L215 708 L121 604 L138 604 L223 696 L308 604 L325 604 L231 708 Z " />
<glyph glyph-name="atilde" unicode="&#xe3;" horiz-adv-x="489" d="M451 -4 C465 -4 478 0 484 4 L484 18 L482 18 C475 14 465 10 451 10 C424 10 410 22 410 69 L410 367 C410 467 354 524 240 524 C105 524 57 451 52 367 L67 367 C75 467 135 510 240 510 C346 510 395 457 395 367 C395 307 353 292 222 275 C113 261 24 234 24 129 C24 46 90 -8 190 -8 C291 -8 372 44 393 116 L395 116 L395 68 C395 31 402 -4 451 -4 L451 -4 Z M190 6 C121 6 39 38 39 129 C39 219 106 248 228 263 C349 278 379 296 395 319 L395 186 C395 75 305 6 190 6 L190 6 Z M158 686 C123 686 98 659 96 611 L110 611 C113 655 131 672 157 672 C216 672 234 612 298 612 C333 612 358 637 360 687 L346 687 C343 643 325 626 299 626 C240 626 224 686 158 686 L158 686 Z " />
<glyph glyph-name="adieresis" unicode="&#xe4;" horiz-adv-x="489" d="M451 -4 C465 -4 478 0 484 4 L484 18 L482 18 C475 14 465 10 451 10 C424 10 410 22 410 69 L410 367 C410 467 354 524 240 524 C105 524 57 451 52 367 L67 367 C75 467 135 510 240 510 C346 510 395 457 395 367 C395 307 353 292 222 275 C113 261 24 234 24 129 C24 46 90 -8 190 -8 C291 -8 372 44 393 116 L395 116 L395 68 C395 31 402 -4 451 -4 L451 -4 Z M190 6 C121 6 39 38 39 129 C39 219 106 248 228 263 C349 278 379 296 395 319 L395 186 C395 75 305 6 190 6 L190 6 Z M169 705 L154 705 L154 651 L169 651 L169 705 Z M314 705 L299 705 L299 651 L314 651 L314 705 Z " />
<glyph glyph-name="aring" unicode="&#xe5;" horiz-adv-x="489" d="M451 -4 C465 -4 478 0 484 4 L484 18 L482 18 C475 14 465 10 451 10 C424 10 410 22 410 69 L410 367 C410 467 354 524 240 524 C105 524 57 451 52 367 L67 367 C75 467 135 510 240 510 C346 510 395 457 395 367 C395 307 353 292 222 275 C113 261 24 234 24 129 C24 46 90 -8 190 -8 C291 -8 372 44 393 116 L395 116 L395 68 C395 31 402 -4 451 -4 L451 -4 Z M190 6 C121 6 39 38 39 129 C39 219 106 248 228 263 C349 278 379 296 395 319 L395 186 C395 75 305 6 190 6 L190 6 Z M230 567 C275 567 306 598 306 644 C306 689 275 720 230 720 C185 720 154 689 154 644 C154 598 185 567 230 567 L230 567 Z M230 580 C192 580 168 607 168 644 C168 681 192 707 230 707 C268 707 292 681 292 644 C292 607 268 580 230 580 L230 580 Z " />
<glyph glyph-name="ae" unicode="&#xe6;" horiz-adv-x="845" d="M821 264 C817 361 791 439 737 483 C705 509 664 524 612 524 C503 524 436 456 409 365 C408 466 353 524 240 524 C105 524 57 451 52 367 L67 367 C75 467 135 510 240 510 C347 510 395 455 395 367 C395 307 353 292 222 275 C111 261 24 233 24 128 C24 45 90 -9 190 -9 C283 -9 390 32 406 166 C431 63 498 -10 617 -10 C737 -10 793 64 812 149 L797 149 C772 52 711 4 617 4 C477 4 411 112 410 264 L821 264 Z M395 203 C395 69 306 5 190 5 C121 5 39 37 39 128 C39 218 106 247 228 262 C351 277 379 296 395 319 L395 203 Z M806 278 L410 278 C415 424 498 510 612 510 C712 510 794 444 806 278 L806 278 Z " />
<glyph glyph-name="ccedilla" unicode="&#xe7;" horiz-adv-x="507" d="M470 174 C456 68 383 6 264 6 C144 6 41 102 41 260 C41 420 145 510 264 510 C358 510 444 467 468 361 L483 361 C462 463 380 524 264 524 C116 524 26 403 26 260 C26 116 117 -8 264 -8 L279 -8 L212 -72 L219 -82 C234 -73 253 -68 274 -68 C316 -68 337 -84 337 -111 C337 -151 301 -165 257 -165 C227 -165 192 -155 167 -138 L160 -150 C189 -169 226 -179 257 -179 C309 -179 352 -158 352 -111 C352 -77 325 -54 274 -54 C260 -54 246 -58 242 -60 L299 -6 C414 6 473 80 485 174 L470 174 Z " />
<glyph glyph-name="egrave" unicode="&#xe8;" horiz-adv-x="506" d="M482 265 C478 360 447 437 390 481 C356 509 311 524 258 524 C112 524 26 408 26 266 C26 110 109 -8 263 -8 C383 -8 454 66 473 151 L458 151 C432 54 357 6 263 6 C123 6 42 113 41 265 L482 265 Z M467 279 L41 279 C46 425 144 510 258 510 C358 510 455 445 467 279 L467 279 Z M196 725 L179 725 L247 604 L263 604 L196 725 Z " />
<glyph glyph-name="eacute" unicode="&#xe9;" horiz-adv-x="506" d="M482 265 C478 360 447 437 390 481 C356 509 311 524 258 524 C112 524 26 408 26 266 C26 110 109 -8 263 -8 C383 -8 454 66 473 151 L458 151 C432 54 357 6 263 6 C123 6 42 113 41 265 L482 265 Z M467 279 L41 279 C46 425 144 510 258 510 C358 510 455 445 467 279 L467 279 Z M240 604 L256 604 L321 725 L304 725 L240 604 Z " />
<glyph glyph-name="ecircumflex" unicode="&#xea;" horiz-adv-x="506" d="M482 265 C478 360 447 437 390 481 C356 509 311 524 258 524 C112 524 26 408 26 266 C26 110 109 -8 263 -8 C383 -8 454 66 473 151 L458 151 C432 54 357 6 263 6 C123 6 42 113 41 265 L482 265 Z M467 279 L41 279 C46 425 144 510 258 510 C358 510 455 445 467 279 L467 279 Z M268 708 L252 708 L158 604 L175 604 L260 696 L345 604 L362 604 L268 708 Z " />
<glyph glyph-name="edieresis" unicode="&#xeb;" horiz-adv-x="506" d="M482 265 C478 360 447 437 390 481 C356 509 311 524 258 524 C112 524 26 408 26 266 C26 110 109 -8 263 -8 C383 -8 454 66 473 151 L458 151 C432 54 357 6 263 6 C123 6 42 113 41 265 L482 265 Z M467 279 L41 279 C46 425 144 510 258 510 C358 510 455 445 467 279 L467 279 Z M193 705 L178 705 L178 651 L193 651 L193 705 Z M338 705 L323 705 L323 651 L338 651 L338 705 Z " />
<glyph glyph-name="igrave" unicode="&#xec;" horiz-adv-x="125" d="M82 517 L67 517 L67 0 L82 0 L82 517 Z M10 725 L-7 725 L66 604 L82 604 L10 725 Z " />
<glyph glyph-name="iacute" unicode="&#xed;" horiz-adv-x="125" d="M70 517 L55 517 L55 0 L70 0 L70 517 Z M58 604 L74 604 L151 725 L134 725 L58 604 Z " />
<glyph glyph-name="icircumflex" unicode="&#xee;" horiz-adv-x="125" d="M71 517 L56 517 L56 0 L71 0 L71 517 Z M71 708 L55 708 L-27 604 L-10 604 L63 696 L136 604 L153 604 L71 708 Z " />
<glyph glyph-name="idieresis" unicode="&#xef;" horiz-adv-x="125" d="M3 705 L-12 705 L-12 651 L3 651 L3 705 Z M109 705 L94 705 L94 651 L109 651 L109 705 Z M56 517 L41 517 L41 0 L56 0 L56 517 Z " />
<glyph glyph-name="eth" unicode="&#xf0;" horiz-adv-x="527" d="M165 574 L330 628 C390 569 446 491 472 391 C435 472 351 523 256 523 C113 523 26 402 26 258 C26 114 122 -8 266 -8 C420 -8 501 115 501 271 C501 437 426 555 346 634 L436 664 L432 678 L334 645 C304 673 274 696 247 715 L222 715 C252 695 285 670 318 640 L161 588 L165 574 Z M486 271 C486 123 410 6 266 6 C131 6 41 122 41 258 C41 394 121 509 256 509 C394 509 486 405 486 271 L486 271 Z " />
<glyph glyph-name="ntilde" unicode="&#xf1;" horiz-adv-x="479" d="M70 517 L55 517 L55 0 L70 0 L70 357 C70 429 144 509 261 509 C355 509 412 460 412 369 L412 0 L427 0 L427 370 C427 454 377 523 262 523 C156 523 98 468 72 419 L70 419 L70 517 Z M168 686 C133 686 108 659 106 611 L120 611 C123 655 141 672 167 672 C226 672 244 612 308 612 C343 612 368 637 370 687 L356 687 C353 643 335 626 309 626 C250 626 234 686 168 686 L168 686 Z " />
<glyph glyph-name="ograve" unicode="&#xf2;" horiz-adv-x="528" d="M264 -8 C413 -8 502 117 502 260 C502 403 413 524 264 524 C116 524 26 402 26 259 C26 116 116 -8 264 -8 L264 -8 Z M264 6 C145 6 41 99 41 259 C41 419 145 510 264 510 C383 510 487 420 487 260 C487 100 383 6 264 6 L264 6 Z M198 725 L181 725 L249 604 L265 604 L198 725 Z " />
<glyph glyph-name="oacute" unicode="&#xf3;" horiz-adv-x="528" d="M264 -8 C413 -8 502 117 502 260 C502 403 413 524 264 524 C116 524 26 402 26 259 C26 116 116 -8 264 -8 L264 -8 Z M264 6 C145 6 41 99 41 259 C41 419 145 510 264 510 C383 510 487 420 487 260 C487 100 383 6 264 6 L264 6 Z M243 604 L259 604 L324 725 L307 725 L243 604 Z " />
<glyph glyph-name="ocircumflex" unicode="&#xf4;" horiz-adv-x="528" d="M264 -8 C413 -8 502 117 502 260 C502 403 413 524 264 524 C116 524 26 402 26 259 C26 116 116 -8 264 -8 L264 -8 Z M264 6 C145 6 41 99 41 259 C41 419 145 510 264 510 C383 510 487 420 487 260 C487 100 383 6 264 6 L264 6 Z M274 708 L258 708 L164 604 L181 604 L266 696 L351 604 L368 604 L274 708 Z " />
<glyph glyph-name="otilde" unicode="&#xf5;" horiz-adv-x="528" d="M264 -8 C413 -8 502 117 502 260 C502 403 413 524 264 524 C116 524 26 402 26 259 C26 116 116 -8 264 -8 L264 -8 Z M264 6 C145 6 41 99 41 259 C41 419 145 510 264 510 C383 510 487 420 487 260 C487 100 383 6 264 6 L264 6 Z M197 686 C162 686 137 659 135 611 L149 611 C152 655 170 672 196 672 C255 672 273 612 337 612 C372 612 397 637 399 687 L385 687 C382 643 364 626 338 626 C279 626 263 686 197 686 L197 686 Z " />
<glyph glyph-name="odieresis" unicode="&#xf6;" horiz-adv-x="528" d="M264 -8 C413 -8 502 117 502 260 C502 403 413 524 264 524 C116 524 26 402 26 259 C26 116 116 -8 264 -8 L264 -8 Z M264 6 C145 6 41 99 41 259 C41 419 145 510 264 510 C383 510 487 420 487 260 C487 100 383 6 264 6 L264 6 Z M199 705 L184 705 L184 651 L199 651 L199 705 Z M344 705 L329 705 L329 651 L344 651 L344 705 Z " />
<glyph glyph-name="divide" unicode="&#xf7;" horiz-adv-x="536" d="M53 320 L483 320 L483 334 L53 334 L53 320 Z M277 506 L260 506 L260 454 L277 454 L277 506 Z M277 199 L260 199 L260 147 L277 147 L277 199 Z " />
<glyph glyph-name="oslash" unicode="&#xf8;" horiz-adv-x="528" d="M260 -8 C409 -8 498 117 498 260 C498 331 476 397 435 445 L494 512 L484 522 L425 455 C385 497 329 524 260 524 C112 524 22 402 22 259 C22 187 44 120 86 71 L25 3 L35 -7 L95 61 C135 18 191 -8 260 -8 L260 -8 Z M37 259 C37 419 141 510 260 510 C319 510 375 487 416 445 L95 82 C59 125 37 184 37 259 L37 259 Z M260 6 C200 6 145 29 104 72 L425 434 C461 392 483 333 483 260 C483 100 379 6 260 6 L260 6 Z " />
<glyph glyph-name="ugrave" unicode="&#xf9;" horiz-adv-x="473" d="M403 0 L418 0 L418 517 L403 517 L403 159 C403 87 329 7 215 7 C123 7 67 56 67 147 L67 517 L52 517 L52 146 C52 62 101 -7 214 -7 C316 -7 377 47 401 97 L403 97 L403 0 Z M178 725 L161 725 L229 604 L245 604 L178 725 Z " />
<glyph glyph-name="uacute" unicode="&#xfa;" horiz-adv-x="473" d="M403 0 L418 0 L418 517 L403 517 L403 159 C403 87 329 7 215 7 C123 7 67 56 67 147 L67 517 L52 517 L52 146 C52 62 101 -7 214 -7 C316 -7 377 47 401 97 L403 97 L403 0 Z M219 604 L235 604 L300 725 L283 725 L219 604 Z " />
<glyph glyph-name="ucircumflex" unicode="&#xfb;" horiz-adv-x="473" d="M403 0 L418 0 L418 517 L403 517 L403 159 C403 87 329 7 215 7 C123 7 67 56 67 147 L67 517 L52 517 L52 146 C52 62 101 -7 214 -7 C316 -7 377 47 401 97 L403 97 L403 0 Z M244 708 L228 708 L134 604 L151 604 L236 696 L321 604 L338 604 L244 708 Z " />
<glyph glyph-name="udieresis" unicode="&#xfc;" horiz-adv-x="473" d="M403 0 L418 0 L418 517 L403 517 L403 159 C403 87 329 7 215 7 C123 7 67 56 67 147 L67 517 L52 517 L52 146 C52 62 101 -7 214 -7 C316 -7 377 47 401 97 L403 97 L403 0 Z M167 705 L152 705 L152 651 L167 651 L167 705 Z M312 705 L297 705 L297 651 L312 651 L312 705 Z " />
<glyph glyph-name="yacute" unicode="&#xfd;" horiz-adv-x="429" d="M427 517 L411 517 L217 40 L19 517 L2 517 L209 20 L185 -39 C143 -143 124 -154 79 -154 C60 -154 42 -150 30 -145 L29 -145 L29 -160 C40 -164 57 -168 79 -168 C136 -168 157 -150 199 -45 L427 517 Z M199 604 L215 604 L280 725 L263 725 L199 604 Z " />
<glyph glyph-name="thorn" unicode="&#xfe;" horiz-adv-x="529" d="M55 -166 L70 -166 L70 148 L72 148 C98 57 179 -7 280 -7 C408 -7 503 97 503 259 C503 440 397 524 282 524 C190 524 108 473 72 368 L70 368 L70 715 L55 715 L55 -166 Z M279 7 C158 7 70 103 70 256 C70 410 158 510 278 510 C389 510 488 434 488 258 C488 102 396 7 279 7 L279 7 Z " />
<glyph glyph-name="ydieresis" unicode="&#xff;" horiz-adv-x="429" d="M427 517 L411 517 L217 40 L19 517 L2 517 L209 20 L185 -39 C143 -143 124 -154 79 -154 C60 -154 42 -150 30 -145 L29 -145 L29 -160 C40 -164 57 -168 79 -168 C136 -168 157 -150 199 -45 L427 517 Z M297 705 L282 705 L282 651 L297 651 L297 705 Z M152 705 L137 705 L137 651 L152 651 L152 705 Z " />
<glyph glyph-name="Amacron" unicode="&#x100;" horiz-adv-x="588" d="M562 0 L578 0 L303 715 L285 715 L10 0 L26 0 L125 256 L463 256 L562 0 Z M294 695 L458 270 L130 270 L294 695 Z M185 787 L403 787 L403 801 L185 801 L185 787 Z " />
<glyph glyph-name="amacron" unicode="&#x101;" horiz-adv-x="489" d="M451 -4 C465 -4 478 0 484 4 L484 18 L482 18 C475 14 465 10 451 10 C424 10 410 22 410 69 L410 367 C410 467 354 524 240 524 C105 524 57 451 52 367 L67 367 C75 467 135 510 240 510 C346 510 395 457 395 367 C395 307 353 292 222 275 C113 261 24 234 24 129 C24 46 90 -8 190 -8 C291 -8 372 44 393 116 L395 116 L395 68 C395 31 402 -4 451 -4 L451 -4 Z M190 6 C121 6 39 38 39 129 C39 219 106 248 228 263 C349 278 379 296 395 319 L395 186 C395 75 305 6 190 6 L190 6 Z M127 650 L345 650 L345 664 L127 664 L127 650 Z " />
<glyph glyph-name="Abreve" unicode="&#x102;" horiz-adv-x="588" d="M562 0 L578 0 L303 715 L285 715 L10 0 L26 0 L125 256 L463 256 L562 0 Z M294 695 L458 270 L130 270 L294 695 Z M294 771 C365 771 405 809 410 861 L396 861 C389 817 357 785 294 785 C231 785 199 817 192 861 L178 861 C183 809 223 771 294 771 L294 771 Z " />
<glyph glyph-name="abreve" unicode="&#x103;" horiz-adv-x="489" d="M451 -4 C465 -4 478 0 484 4 L484 18 L482 18 C475 14 465 10 451 10 C424 10 410 22 410 69 L410 367 C410 467 354 524 240 524 C105 524 57 451 52 367 L67 367 C75 467 135 510 240 510 C346 510 395 457 395 367 C395 307 353 292 222 275 C113 261 24 234 24 129 C24 46 90 -8 190 -8 C291 -8 372 44 393 116 L395 116 L395 68 C395 31 402 -4 451 -4 L451 -4 Z M190 6 C121 6 39 38 39 129 C39 219 106 248 228 263 C349 278 379 296 395 319 L395 186 C395 75 305 6 190 6 L190 6 Z M235 616 C306 616 346 654 351 706 L337 706 C330 662 298 630 235 630 C172 630 140 662 133 706 L119 706 C124 654 164 616 235 616 L235 616 Z " />
<glyph glyph-name="Aogonek" unicode="&#x104;" horiz-adv-x="588" d="M303 715 L285 715 L10 0 L26 0 L125 256 L463 256 L560 6 C508 -29 481 -62 481 -102 C481 -149 519 -172 561 -172 C583 -172 606 -165 615 -160 L615 -147 L613 -147 C604 -152 585 -158 561 -158 C526 -158 496 -139 496 -102 C496 -64 525 -33 577 2 L303 715 Z M294 695 L335 589 L458 270 L130 270 L253 589 L294 695 Z " />
<glyph glyph-name="aogonek" unicode="&#x105;" horiz-adv-x="489" d="M410 367 C410 467 354 524 240 524 C105 524 57 451 52 367 L67 367 C75 467 135 510 240 510 C346 510 395 457 395 367 C395 307 353 292 222 275 C112 261 24 233 24 128 C24 45 90 -9 190 -9 C291 -9 372 43 393 115 L395 115 L395 68 C395 34 400 0 442 -4 C393 -25 361 -52 361 -95 C361 -139 393 -172 454 -172 C478 -172 491 -168 502 -163 L502 -149 L500 -149 C487 -155 474 -158 454 -158 C401 -158 376 -131 376 -95 C376 -52 413 -28 484 4 L484 18 L482 18 C475 14 465 10 451 10 C424 10 410 22 410 69 L410 367 Z M395 185 C395 74 305 5 190 5 C121 5 39 37 39 128 C39 217 106 248 228 263 C349 278 379 296 395 319 L395 185 Z " />
<glyph glyph-name="Cacute" unicode="&#x106;" horiz-adv-x="690" d="M646 510 C629 619 535 723 371 723 C167 723 40 571 40 358 C40 136 171 -9 367 -9 C455 -9 524 23 572 71 C621 120 650 185 656 253 L642 253 C627 122 533 5 367 5 C178 5 55 146 55 358 C55 562 173 709 371 709 C527 709 616 611 632 510 L646 510 Z M361 756 L377 756 L439 871 L422 871 L361 756 Z " />
<glyph glyph-name="cacute" unicode="&#x107;" horiz-adv-x="507" d="M470 174 C456 68 383 6 264 6 C144 6 41 102 41 260 C41 420 145 510 264 510 C358 510 444 467 468 361 L483 361 C462 463 380 524 264 524 C116 524 26 403 26 260 C26 116 117 -8 264 -8 C402 -8 472 71 485 174 L470 174 Z M246 604 L262 604 L327 725 L310 725 L246 604 Z " />
<glyph glyph-name="Ccircumflex" unicode="&#x108;" horiz-adv-x="690" d="M646 510 C629 619 535 723 371 723 C167 723 40 571 40 358 C40 136 171 -9 367 -9 C455 -9 524 23 572 71 C621 120 650 185 656 253 L642 253 C627 122 533 5 367 5 C178 5 55 146 55 358 C55 562 173 709 371 709 C527 709 616 611 632 510 L646 510 Z M379 862 L363 862 L269 758 L286 758 L371 850 L456 758 L473 758 L379 862 Z " />
<glyph glyph-name="ccircumflex" unicode="&#x109;" horiz-adv-x="507" d="M470 174 C456 68 383 6 264 6 C144 6 41 102 41 260 C41 420 145 510 264 510 C358 510 444 467 468 361 L483 361 C462 463 380 524 264 524 C116 524 26 403 26 260 C26 116 117 -8 264 -8 C402 -8 472 71 485 174 L470 174 Z M276 708 L260 708 L166 604 L183 604 L268 696 L353 604 L370 604 L276 708 Z " />
<glyph glyph-name="Cdotaccent" unicode="&#x10a;" horiz-adv-x="690" d="M646 510 C629 619 535 723 371 723 C167 723 40 571 40 358 C40 136 171 -9 367 -9 C455 -9 524 23 572 71 C621 120 650 185 656 253 L642 253 C627 122 533 5 367 5 C178 5 55 146 55 358 C55 562 173 709 371 709 C527 709 616 611 632 510 L646 510 Z M367 835 L350 835 L350 782 L367 782 L367 835 Z " />
<glyph glyph-name="cdotaccent" unicode="&#x10b;" horiz-adv-x="507" d="M470 174 C456 68 383 6 264 6 C144 6 41 102 41 260 C41 420 145 510 264 510 C358 510 444 467 468 361 L483 361 C462 463 380 524 264 524 C116 524 26 403 26 260 C26 116 117 -8 264 -8 C402 -8 472 71 485 174 L470 174 Z M274 695 L257 695 L257 640 L274 640 L274 695 Z " />
<glyph glyph-name="Ccaron" unicode="&#x10c;" horiz-adv-x="690" d="M646 510 C629 619 535 723 371 723 C167 723 40 571 40 358 C40 136 171 -9 367 -9 C455 -9 524 23 572 71 C621 120 650 185 656 253 L642 253 C627 122 533 5 367 5 C178 5 55 146 55 358 C55 562 173 709 371 709 C527 709 616 611 632 510 L646 510 Z M472 862 L455 862 L370 770 L285 862 L268 862 L362 758 L378 758 L472 862 Z " />
<glyph glyph-name="ccaron" unicode="&#x10d;" horiz-adv-x="507" d="M470 174 C456 68 383 6 264 6 C144 6 41 102 41 260 C41 420 145 510 264 510 C358 510 444 467 468 361 L483 361 C462 463 380 524 264 524 C116 524 26 403 26 260 C26 116 117 -8 264 -8 C402 -8 472 71 485 174 L470 174 Z M369 706 L352 706 L267 614 L182 706 L165 706 L259 602 L275 602 L369 706 Z " />
<glyph glyph-name="Dcaron" unicode="&#x10e;" horiz-adv-x="660" d="M67 0 L321 0 C527 0 620 161 620 354 C620 544 535 715 328 715 L67 715 L67 0 Z M81 13 L81 701 L329 701 C502 701 605 565 605 354 C605 141 495 13 322 13 L81 13 Z M412 862 L395 862 L310 770 L225 862 L208 862 L302 758 L318 758 L412 862 Z " />
<glyph glyph-name="dcaron" unicode="&#x10f;" horiz-adv-x="529" d="M459 0 L474 0 L474 715 L459 715 L459 358 L458 358 C427 473 340 524 247 524 C132 524 26 440 26 259 C26 97 121 -7 249 -7 C352 -7 433 55 458 157 L459 157 L459 0 Z M250 7 C133 7 41 102 41 258 C41 434 140 510 251 510 C371 510 459 415 459 256 C459 98 371 7 250 7 L250 7 Z M516 587 L516 571 C551 593 553 624 553 675 L553 715 L538 715 L538 675 C538 629 537 605 516 587 L516 587 Z " />
<glyph glyph-name="Dcroat" unicode="&#x110;" horiz-adv-x="672" d="M79 0 L333 0 C539 0 632 161 632 354 C632 544 547 715 340 715 L79 715 L79 368 L5 368 L5 354 L79 354 L79 0 Z M93 13 L93 354 L351 354 L351 368 L93 368 L93 701 L341 701 C514 701 617 565 617 354 C617 141 507 13 334 13 L93 13 Z " />
<glyph glyph-name="dcroat" unicode="&#x111;" horiz-adv-x="529" d="M306 619 L306 605 L459 605 L459 368 L457 368 C422 476 339 524 247 524 C132 524 26 440 26 259 C26 97 121 -7 249 -7 C352 -7 428 52 457 148 L459 148 L459 0 L474 0 L474 605 L542 605 L542 619 L474 619 L474 715 L459 715 L459 619 L306 619 Z M250 7 C133 7 41 102 41 258 C41 434 140 510 251 510 C371 510 459 415 459 256 C459 98 371 7 250 7 L250 7 Z " />
<glyph glyph-name="Emacron" unicode="&#x112;" horiz-adv-x="582" d="M202 787 L420 787 L420 801 L202 801 L202 787 Z M82 701 L534 701 L534 715 L67 715 L67 0 L544 0 L544 14 L82 14 L82 364 L499 364 L499 378 L82 378 L82 701 Z " />
<glyph glyph-name="emacron" unicode="&#x113;" horiz-adv-x="506" d="M482 265 C478 360 447 437 390 481 C356 509 311 524 258 524 C112 524 26 408 26 266 C26 110 109 -8 263 -8 C383 -8 454 66 473 151 L458 151 C432 54 357 6 263 6 C123 6 42 113 41 265 L482 265 Z M467 279 L41 279 C46 425 144 510 258 510 C358 510 455 445 467 279 L467 279 Z M143 650 L361 650 L361 664 L143 664 L143 650 Z " />
<glyph glyph-name="Ebreve" unicode="&#x114;" horiz-adv-x="582" d="M302 771 C373 771 413 809 418 861 L404 861 C397 817 365 785 302 785 C239 785 207 817 200 861 L186 861 C191 809 231 771 302 771 L302 771 Z M82 701 L534 701 L534 715 L67 715 L67 0 L544 0 L544 14 L82 14 L82 364 L499 364 L499 378 L82 378 L82 701 Z " />
<glyph glyph-name="ebreve" unicode="&#x115;" horiz-adv-x="506" d="M482 265 C478 360 447 437 390 481 C356 509 311 524 258 524 C112 524 26 408 26 266 C26 110 109 -8 263 -8 C383 -8 454 66 473 151 L458 151 C432 54 357 6 263 6 C123 6 42 113 41 265 L482 265 Z M467 279 L41 279 C46 425 144 510 258 510 C358 510 455 445 467 279 L467 279 Z M261 616 C332 616 372 654 377 706 L363 706 C356 662 324 630 261 630 C198 630 166 662 159 706 L145 706 C150 654 190 616 261 616 L261 616 Z " />
<glyph glyph-name="Edotaccent" unicode="&#x116;" horiz-adv-x="582" d="M316 835 L299 835 L299 782 L316 782 L316 835 Z M82 701 L534 701 L534 715 L67 715 L67 0 L544 0 L544 14 L82 14 L82 364 L499 364 L499 378 L82 378 L82 701 Z " />
<glyph glyph-name="edotaccent" unicode="&#x117;" horiz-adv-x="506" d="M482 265 C478 360 447 437 390 481 C356 509 311 524 258 524 C112 524 26 408 26 266 C26 110 109 -8 263 -8 C383 -8 454 66 473 151 L458 151 C432 54 357 6 263 6 C123 6 42 113 41 265 L482 265 Z M467 279 L41 279 C46 425 144 510 258 510 C358 510 455 445 467 279 L467 279 Z M264 695 L247 695 L247 640 L264 640 L264 695 Z " />
<glyph glyph-name="Eogonek" unicode="&#x118;" horiz-adv-x="582" d="M82 701 L534 701 L534 715 L67 715 L67 0 L450 0 C403 -35 380 -64 380 -102 C380 -149 418 -172 460 -172 C482 -172 505 -165 514 -160 L514 -147 L512 -147 C503 -152 484 -158 460 -158 C425 -158 395 -139 395 -102 C395 -65 422 -34 471 0 L544 0 L544 14 L82 14 L82 364 L499 364 L499 378 L82 378 L82 701 Z " />
<glyph glyph-name="eogonek" unicode="&#x119;" horiz-adv-x="506" d="M482 264 C478 362 445 440 386 484 C352 510 309 524 258 524 C112 524 26 407 26 265 C26 109 109 -10 263 -10 C287 -10 310 -6 331 -1 C286 -33 265 -60 265 -95 C265 -138 296 -172 359 -172 C383 -172 398 -167 408 -162 L408 -148 L406 -148 C394 -153 380 -158 359 -158 C305 -158 280 -131 280 -95 C280 -56 303 -34 395 29 C435 57 463 103 473 149 L458 149 C432 52 357 4 263 4 C123 4 42 112 41 264 L482 264 Z M467 278 L41 278 C46 424 144 510 258 510 C358 510 455 444 467 278 L467 278 Z " />
<glyph glyph-name="Ecaron" unicode="&#x11a;" horiz-adv-x="582" d="M82 701 L534 701 L534 715 L67 715 L67 0 L544 0 L544 14 L82 14 L82 364 L499 364 L499 378 L82 378 L82 701 Z M405 862 L388 862 L303 770 L218 862 L201 862 L295 758 L311 758 L405 862 Z " />
<glyph glyph-name="ecaron" unicode="&#x11b;" horiz-adv-x="506" d="M482 265 C478 360 447 437 390 481 C356 509 311 524 258 524 C112 524 26 408 26 266 C26 110 109 -8 263 -8 C383 -8 454 66 473 151 L458 151 C432 54 357 6 263 6 C123 6 42 113 41 265 L482 265 Z M467 279 L41 279 C46 425 144 510 258 510 C358 510 455 445 467 279 L467 279 Z M360 706 L343 706 L258 614 L173 706 L156 706 L250 602 L266 602 L360 706 Z " />
<glyph glyph-name="Gcircumflex" unicode="&#x11c;" horiz-adv-x="719" d="M647 335 L647 295 C647 114 531 5 380 5 C171 5 55 158 55 355 C55 543 163 709 372 709 C526 709 617 620 638 510 L652 510 C630 630 534 723 372 723 C153 723 40 551 40 355 C40 150 163 -9 380 -9 C522 -9 625 82 647 202 L647 0 L662 0 L662 349 L390 349 L390 335 L647 335 Z M380 862 L364 862 L270 758 L287 758 L372 850 L457 758 L474 758 L380 862 Z " />
<glyph glyph-name="gcircumflex" unicode="&#x11d;" horiz-adv-x="524" d="M454 356 L453 356 C432 449 358 524 245 524 C130 524 26 439 26 265 C26 109 120 5 248 5 C351 5 426 67 453 166 L454 166 L454 23 C454 -79 392 -155 259 -155 C141 -155 77 -116 65 -46 L50 -46 C61 -125 133 -169 259 -169 C322 -169 371 -153 406 -125 C448 -90 469 -38 469 23 L469 517 L454 517 L454 356 Z M249 19 C132 19 41 114 41 264 C41 431 138 510 249 510 C369 510 454 413 454 262 C454 113 369 19 249 19 L249 19 Z M258 708 L242 708 L148 604 L165 604 L250 696 L335 604 L352 604 L258 708 Z " />
<glyph glyph-name="Gbreve" unicode="&#x11e;" horiz-adv-x="719" d="M647 335 L647 295 C647 114 531 5 380 5 C171 5 55 158 55 355 C55 543 163 709 372 709 C526 709 617 620 638 510 L652 510 C630 630 534 723 372 723 C153 723 40 551 40 355 C40 150 163 -9 380 -9 C522 -9 625 82 647 202 L647 0 L662 0 L662 349 L390 349 L390 335 L647 335 Z M368 771 C439 771 479 809 484 861 L470 861 C463 817 431 785 368 785 C305 785 273 817 266 861 L252 861 C257 809 297 771 368 771 L368 771 Z " />
<glyph glyph-name="gbreve" unicode="&#x11f;" horiz-adv-x="524" d="M454 356 L453 356 C432 449 358 524 245 524 C130 524 26 439 26 265 C26 109 120 5 248 5 C351 5 426 67 453 166 L454 166 L454 23 C454 -79 392 -155 259 -155 C141 -155 77 -116 65 -46 L50 -46 C61 -125 133 -169 259 -169 C322 -169 371 -153 406 -125 C448 -90 469 -38 469 23 L469 517 L454 517 L454 356 Z M249 19 C132 19 41 114 41 264 C41 431 138 510 249 510 C369 510 454 413 454 262 C454 113 369 19 249 19 L249 19 Z M248 616 C319 616 359 654 364 706 L350 706 C343 662 311 630 248 630 C185 630 153 662 146 706 L132 706 C137 654 177 616 248 616 L248 616 Z " />
<glyph glyph-name="Gdotaccent" unicode="&#x120;" horiz-adv-x="719" d="M647 335 L647 295 C647 114 531 5 380 5 C171 5 55 158 55 355 C55 543 163 709 372 709 C526 709 617 620 638 510 L652 510 C630 630 534 723 372 723 C153 723 40 551 40 355 C40 150 163 -9 380 -9 C522 -9 625 82 647 202 L647 0 L662 0 L662 349 L390 349 L390 335 L647 335 Z M381 835 L364 835 L364 782 L381 782 L381 835 Z " />
<glyph glyph-name="gdotaccent" unicode="&#x121;" horiz-adv-x="524" d="M454 356 L453 356 C432 449 358 524 245 524 C130 524 26 439 26 265 C26 109 120 5 248 5 C351 5 426 67 453 166 L454 166 L454 23 C454 -79 392 -155 259 -155 C141 -155 77 -116 65 -46 L50 -46 C61 -125 133 -169 259 -169 C322 -169 371 -153 406 -125 C448 -90 469 -38 469 23 L469 517 L454 517 L454 356 Z M249 19 C132 19 41 114 41 264 C41 431 138 510 249 510 C369 510 454 413 454 262 C454 113 369 19 249 19 L249 19 Z M256 695 L239 695 L239 640 L256 640 L256 695 Z " />
<glyph glyph-name="Gcommaaccent" unicode="&#x122;" horiz-adv-x="719" d="M647 335 L647 295 C647 114 531 5 380 5 C171 5 55 158 55 355 C55 543 163 709 372 709 C526 709 617 620 638 510 L652 510 C630 630 534 723 372 723 C153 723 40 551 40 355 C40 150 163 -9 380 -9 C522 -9 625 82 647 202 L647 0 L662 0 L662 349 L390 349 L390 335 L647 335 Z M347 -204 C389 -176 394 -134 394 -95 L394 -54 L379 -54 L379 -92 C379 -128 376 -165 347 -188 L347 -204 Z " />
<glyph glyph-name="gcommaaccent" unicode="&#x123;" horiz-adv-x="524" d="M454 356 L453 356 C432 449 358 524 245 524 C130 524 26 439 26 265 C26 109 120 5 248 5 C351 5 426 67 453 166 L454 166 L454 23 C454 -79 392 -155 259 -155 C141 -155 77 -116 65 -46 L50 -46 C61 -125 133 -169 259 -169 C322 -169 371 -153 406 -125 C448 -90 469 -38 469 23 L469 517 L454 517 L454 356 Z M249 19 C132 19 41 114 41 264 C41 431 138 510 249 510 C369 510 454 413 454 262 C454 113 369 19 249 19 L249 19 Z M273 761 C231 733 226 691 226 652 L226 611 L241 611 L241 649 C241 685 244 722 273 745 L273 761 Z " />
<glyph glyph-name="Hcircumflex" unicode="&#x124;" horiz-adv-x="655" d="M67 0 L82 0 L82 374 L573 374 L573 0 L588 0 L588 715 L573 715 L573 388 L82 388 L82 715 L67 715 L67 0 Z M338 862 L322 862 L228 758 L245 758 L330 850 L415 758 L432 758 L338 862 Z " />
<glyph glyph-name="hcircumflex" unicode="&#x125;" horiz-adv-x="479" d="M70 715 L55 715 L55 0 L70 0 L70 357 C70 429 145 509 261 509 C355 509 412 460 412 369 L412 0 L427 0 L427 370 C427 454 377 523 262 523 C156 523 98 468 72 419 L70 419 L70 715 Z M238 862 L222 862 L128 758 L145 758 L230 850 L315 758 L332 758 L238 862 Z " />
<glyph glyph-name="Hbar" unicode="&#x126;" horiz-adv-x="655" d="M659 548 L588 548 L588 715 L573 715 L573 548 L82 548 L82 715 L67 715 L67 548 L-3 548 L-3 534 L67 534 L67 0 L82 0 L82 374 L573 374 L573 0 L588 0 L588 534 L659 534 L659 548 Z M82 388 L82 534 L573 534 L573 388 L82 388 Z " />
<glyph glyph-name="hbar" unicode="&#x127;" horiz-adv-x="479" d="M-8 619 L-8 605 L57 605 L57 0 L72 0 L72 357 C72 429 147 509 263 509 C357 509 414 460 414 369 L414 0 L429 0 L429 370 C429 454 379 523 264 523 C158 523 100 468 74 419 L72 419 L72 605 L215 605 L215 619 L72 619 L72 715 L57 715 L57 619 L-8 619 Z " />
<glyph glyph-name="Itilde" unicode="&#x128;" horiz-adv-x="153" d="M84 715 L69 715 L69 0 L84 0 L84 715 Z M6 844 C-29 844 -54 817 -56 769 L-42 769 C-39 813 -21 830 5 830 C64 830 82 770 146 770 C181 770 206 795 208 845 L194 845 C191 801 173 784 147 784 C88 784 72 844 6 844 L6 844 Z " />
<glyph glyph-name="itilde" unicode="&#x129;" horiz-adv-x="125" d="M148 613 C181 613 199 636 200 681 L186 681 C185 645 174 627 148 627 C100 627 81 683 26 683 C-7 683 -27 659 -27 615 L-13 615 C-12 651 0 669 25 669 C71 669 94 613 148 613 L148 613 Z M94 517 L79 517 L79 0 L94 0 L94 517 Z " />
<glyph glyph-name="Imacron" unicode="&#x12a;" horiz-adv-x="153" d="M84 715 L69 715 L69 0 L84 0 L84 715 Z M147 801 L5 801 L5 787 L147 787 L147 801 Z " />
<glyph glyph-name="imacron" unicode="&#x12b;" horiz-adv-x="125" d="M73 517 L58 517 L58 0 L73 0 L73 517 Z M-4 650 L135 650 L135 664 L-4 664 L-4 650 Z " />
<glyph glyph-name="Ibreve" unicode="&#x12c;" horiz-adv-x="153" d="M84 715 L69 715 L69 0 L84 0 L84 715 Z M76 771 C147 771 187 809 192 861 L178 861 C171 817 139 785 76 785 C13 785 -19 817 -26 861 L-40 861 C-35 809 5 771 76 771 L76 771 Z " />
<glyph glyph-name="ibreve" unicode="&#x12d;" horiz-adv-x="125" d="M62 616 C133 616 173 654 178 706 L164 706 C157 662 125 630 62 630 C-1 630 -33 662 -40 706 L-54 706 C-49 654 -9 616 62 616 L62 616 Z M70 517 L55 517 L55 0 L70 0 L70 517 Z " />
<glyph glyph-name="Iogonek" unicode="&#x12e;" horiz-adv-x="153" d="M84 715 L69 715 L69 7 C17 -30 -10 -62 -10 -102 C-10 -149 28 -172 70 -172 C92 -172 115 -165 124 -160 L124 -147 L122 -147 C113 -152 94 -158 70 -158 C35 -158 5 -139 5 -102 C5 -64 33 -33 84 2 L84 715 Z " />
<glyph glyph-name="iogonek" unicode="&#x12f;" horiz-adv-x="125" d="M91 517 L76 517 L76 4 C42 -20 1 -51 1 -100 C1 -142 31 -172 89 -172 C112 -172 129 -166 138 -161 L138 -148 L136 -148 C126 -153 110 -158 89 -158 C41 -158 16 -134 16 -100 C16 -61 43 -34 91 -1 L91 517 Z M91 706 L76 706 L76 650 L91 650 L91 706 Z " />
<glyph glyph-name="Idotaccent" unicode="&#x130;" horiz-adv-x="153" d="M84 715 L69 715 L69 0 L84 0 L84 715 Z M85 835 L68 835 L68 782 L85 782 L85 835 Z " />
<glyph glyph-name="dotlessi" unicode="&#x131;" horiz-adv-x="125" d="M70 517 L55 517 L55 0 L70 0 L70 517 Z " />
<glyph glyph-name="IJ" unicode="&#x132;" horiz-adv-x="572" d="M134 202 L134 186 C134 60 206 -11 323 -11 C447 -11 503 66 503 190 L503 715 L488 715 L488 190 C488 74 437 3 323 3 C213 3 149 70 149 186 L149 202 L134 202 Z M84 715 L69 715 L69 0 L84 0 L84 715 Z " />
<glyph glyph-name="ij" unicode="&#x133;" horiz-adv-x="272" d="M202 517 L202 -64 C202 -109 190 -133 140 -133 C124 -133 114 -131 98 -126 L97 -126 L97 -140 C110 -144 125 -147 140 -147 C197 -147 217 -120 217 -64 L217 517 L202 517 Z M70 517 L55 517 L55 0 L70 0 L70 517 Z M217 706 L202 706 L202 650 L217 650 L217 706 Z M70 706 L55 706 L55 650 L70 650 L70 706 Z " />
<glyph glyph-name="Jcircumflex" unicode="&#x134;" horiz-adv-x="449" d="M22 202 L22 186 C22 60 94 -11 211 -11 C335 -11 391 66 391 190 L391 715 L376 715 L376 190 C376 74 325 3 211 3 C101 3 37 70 37 186 L37 202 L22 202 Z M391 862 L375 862 L281 758 L298 758 L383 850 L468 758 L485 758 L391 862 Z " />
<glyph glyph-name="jcircumflex" unicode="&#x135;" horiz-adv-x="147" d="M77 517 L77 -64 C77 -109 65 -133 15 -133 C-1 -133 -11 -131 -27 -126 L-28 -126 L-28 -140 C-15 -144 0 -147 15 -147 C72 -147 92 -120 92 -64 L92 517 L77 517 Z M92 708 L76 708 L-6 604 L11 604 L84 696 L157 604 L174 604 L92 708 Z " />
<glyph glyph-name="Kcommaaccent" unicode="&#x136;" horiz-adv-x="602" d="M560 715 L539 715 L82 281 L82 715 L67 715 L67 0 L82 0 L82 262 L239 411 L586 0 L604 0 L250 421 L560 715 Z M262 -204 C304 -176 309 -134 309 -95 L309 -54 L294 -54 L294 -92 C294 -128 291 -165 262 -188 L262 -204 Z " />
<glyph glyph-name="kcommaaccent" unicode="&#x137;" horiz-adv-x="436" d="M420 0 L437 0 L188 307 L401 517 L381 517 L70 210 L70 715 L55 715 L55 0 L70 0 L70 191 L178 297 L420 0 Z M190 -204 C232 -176 237 -134 237 -95 L237 -54 L222 -54 L222 -92 C222 -128 219 -165 190 -188 L190 -204 Z " />
<glyph glyph-name="Lacute" unicode="&#x139;" horiz-adv-x="535" d="M82 715 L67 715 L67 0 L513 0 L513 14 L82 14 L82 715 Z M72 756 L88 756 L150 871 L133 871 L72 756 Z " />
<glyph glyph-name="lacute" unicode="&#x13a;" horiz-adv-x="131" d="M73 715 L58 715 L58 0 L73 0 L73 715 Z M59 756 L75 756 L137 871 L120 871 L59 756 Z " />
<glyph glyph-name="Lcommaaccent" unicode="&#x13b;" horiz-adv-x="535" d="M82 715 L67 715 L67 0 L513 0 L513 14 L82 14 L82 715 Z M260 -204 C302 -176 307 -134 307 -95 L307 -54 L292 -54 L292 -92 C292 -128 289 -165 260 -188 L260 -204 Z " />
<glyph glyph-name="lcommaaccent" unicode="&#x13c;" horiz-adv-x="131" d="M73 715 L58 715 L58 0 L73 0 L73 715 Z M26 -204 C68 -176 73 -134 73 -95 L73 -54 L58 -54 L58 -92 C58 -128 55 -165 26 -188 L26 -204 Z " />
<glyph glyph-name="Lcaron" unicode="&#x13d;" horiz-adv-x="535" d="M82 715 L67 715 L67 0 L513 0 L513 14 L82 14 L82 715 Z M318 587 L318 571 C353 593 355 624 355 675 L355 715 L340 715 L340 675 C340 629 339 605 318 587 L318 587 Z " />
<glyph glyph-name="lcaron" unicode="&#x13e;" horiz-adv-x="131" d="M73 715 L58 715 L58 0 L73 0 L73 715 Z M115 587 L115 571 C150 593 152 624 152 675 L152 715 L137 715 L137 675 C137 629 136 605 115 587 L115 587 Z " />
<glyph glyph-name="Ldot" unicode="&#x13f;" horiz-adv-x="535" d="M82 715 L67 715 L67 0 L513 0 L513 14 L82 14 L82 715 Z M381 408 L364 408 L364 353 L381 353 L381 408 Z " />
<glyph glyph-name="ldot" unicode="&#x140;" horiz-adv-x="131" d="M73 715 L58 715 L58 0 L73 0 L73 715 Z M139 371 L122 371 L122 316 L139 316 L139 371 Z " />
<glyph glyph-name="Lslash" unicode="&#x141;" horiz-adv-x="535" d="M385 469 L82 294 L82 715 L67 715 L67 285 L-5 244 L-5 229 L67 270 L67 0 L513 0 L513 14 L82 14 L82 279 L385 453 L385 469 Z " />
<glyph glyph-name="lslash" unicode="&#x142;" horiz-adv-x="157" d="M163 444 L90 382 L90 715 L75 715 L75 370 L5 311 L5 293 L75 351 L75 0 L90 0 L90 364 L163 425 L163 444 Z " />
<glyph glyph-name="Nacute" unicode="&#x143;" horiz-adv-x="669" d="M602 715 L587 715 L587 25 L83 715 L67 715 L67 0 L82 0 L82 690 L587 0 L602 0 L602 715 Z M319 756 L335 756 L397 871 L380 871 L319 756 Z " />
<glyph glyph-name="nacute" unicode="&#x144;" horiz-adv-x="479" d="M70 517 L55 517 L55 0 L70 0 L70 357 C70 429 144 509 261 509 C355 509 412 460 412 369 L412 0 L427 0 L427 370 C427 454 377 523 262 523 C156 523 98 468 72 419 L70 419 L70 517 Z M233 604 L249 604 L314 725 L297 725 L233 604 Z " />
<glyph glyph-name="Ncommaaccent" unicode="&#x145;" horiz-adv-x="669" d="M602 715 L587 715 L587 25 L83 715 L67 715 L67 0 L82 0 L82 690 L587 0 L602 0 L602 715 Z M306 -204 C348 -176 353 -134 353 -95 L353 -54 L338 -54 L338 -92 C338 -128 335 -165 306 -188 L306 -204 Z " />
<glyph glyph-name="ncommaaccent" unicode="&#x146;" horiz-adv-x="479" d="M70 517 L55 517 L55 0 L70 0 L70 357 C70 429 144 509 261 509 C355 509 412 460 412 369 L412 0 L427 0 L427 370 C427 454 377 523 262 523 C156 523 98 468 72 419 L70 419 L70 517 Z M204 -204 C246 -176 251 -134 251 -95 L251 -54 L236 -54 L236 -92 C236 -128 233 -165 204 -188 L204 -204 Z " />
<glyph glyph-name="Ncaron" unicode="&#x147;" horiz-adv-x="669" d="M602 715 L587 715 L587 25 L83 715 L67 715 L67 0 L82 0 L82 690 L587 0 L602 0 L602 715 Z M446 862 L429 862 L344 770 L259 862 L242 862 L336 758 L352 758 L446 862 Z " />
<glyph glyph-name="ncaron" unicode="&#x148;" horiz-adv-x="479" d="M70 517 L55 517 L55 0 L70 0 L70 357 C70 429 144 509 261 509 C355 509 412 460 412 369 L412 0 L427 0 L427 370 C427 454 377 523 262 523 C156 523 98 468 72 419 L70 419 L70 517 Z M346 706 L329 706 L244 614 L159 706 L142 706 L236 602 L252 602 L346 706 Z " />
<glyph glyph-name="napostrophe" unicode="&#x149;" horiz-adv-x="456" d="M47 517 L32 517 L32 0 L47 0 L47 357 C47 429 121 509 238 509 C332 509 389 460 389 369 L389 0 L404 0 L404 370 C404 454 354 523 239 523 C133 523 75 468 49 419 L47 419 L47 517 Z M-2 587 L-2 571 C33 593 35 624 35 675 L35 715 L20 715 L20 675 C20 629 19 605 -2 587 L-2 587 Z " />
<glyph glyph-name="Omacron" unicode="&#x14c;" horiz-adv-x="749" d="M374 -8 C568 -8 709 146 709 357 C709 569 568 723 374 723 C180 723 40 569 40 357 C40 145 180 -8 374 -8 L374 -8 Z M374 6 C184 6 55 159 55 357 C55 556 184 709 374 709 C563 709 694 555 694 357 C694 160 563 6 374 6 L374 6 Z M265 787 L483 787 L483 801 L265 801 L265 787 Z " />
<glyph glyph-name="omacron" unicode="&#x14d;" horiz-adv-x="528" d="M264 -8 C413 -8 502 117 502 260 C502 403 413 524 264 524 C116 524 26 402 26 259 C26 116 116 -8 264 -8 L264 -8 Z M264 6 C145 6 41 99 41 259 C41 419 145 510 264 510 C383 510 487 420 487 260 C487 100 383 6 264 6 L264 6 Z M155 650 L373 650 L373 664 L155 664 L155 650 Z " />
<glyph glyph-name="Obreve" unicode="&#x14e;" horiz-adv-x="749" d="M374 -8 C568 -8 709 146 709 357 C709 569 568 723 374 723 C180 723 40 569 40 357 C40 145 180 -8 374 -8 L374 -8 Z M374 6 C184 6 55 159 55 357 C55 556 184 709 374 709 C563 709 694 555 694 357 C694 160 563 6 374 6 L374 6 Z M375 771 C446 771 486 809 491 861 L477 861 C470 817 438 785 375 785 C312 785 280 817 273 861 L259 861 C264 809 304 771 375 771 L375 771 Z " />
<glyph glyph-name="obreve" unicode="&#x14f;" horiz-adv-x="528" d="M264 -8 C413 -8 502 117 502 260 C502 403 413 524 264 524 C116 524 26 402 26 259 C26 116 116 -8 264 -8 L264 -8 Z M264 6 C145 6 41 99 41 259 C41 419 145 510 264 510 C383 510 487 420 487 260 C487 100 383 6 264 6 L264 6 Z M264 616 C335 616 375 654 380 706 L366 706 C359 662 327 630 264 630 C201 630 169 662 162 706 L148 706 C153 654 193 616 264 616 L264 616 Z " />
<glyph glyph-name="Ohungarumlaut" unicode="&#x150;" horiz-adv-x="749" d="M374 -8 C568 -8 709 146 709 357 C709 569 568 723 374 723 C180 723 40 569 40 357 C40 145 180 -8 374 -8 L374 -8 Z M374 6 C184 6 55 159 55 357 C55 556 184 709 374 709 C563 709 694 555 694 357 C694 160 563 6 374 6 L374 6 Z M308 756 L323 756 L380 877 L364 877 L308 756 Z M430 756 L445 756 L502 877 L486 877 L430 756 Z " />
<glyph glyph-name="ohungarumlaut" unicode="&#x151;" horiz-adv-x="528" d="M264 -8 C413 -8 502 117 502 260 C502 403 413 524 264 524 C116 524 26 402 26 259 C26 116 116 -8 264 -8 L264 -8 Z M264 6 C145 6 41 99 41 259 C41 419 145 510 264 510 C383 510 487 420 487 260 C487 100 383 6 264 6 L264 6 Z M203 604 L218 604 L275 725 L259 725 L203 604 Z M325 604 L340 604 L397 725 L381 725 L325 604 Z " />
<glyph glyph-name="OE" unicode="&#x152;" horiz-adv-x="1024" d="M579 701 L976 701 L976 715 L564 715 L564 625 C551 660 487 723 364 723 C180 723 40 571 40 358 C40 145 180 -7 364 -7 C485 -7 546 46 564 86 L564 0 L986 0 L986 14 L579 14 L579 364 L941 364 L941 378 L579 378 L579 701 Z M364 7 C183 7 55 160 55 358 C55 557 184 709 364 709 C479 709 564 649 564 571 L564 132 C564 77 497 7 364 7 L364 7 Z " />
<glyph glyph-name="oe" unicode="&#x153;" horiz-adv-x="889" d="M239 -10 C360 -10 426 73 447 181 C469 70 537 -10 661 -10 C781 -10 837 64 856 149 L841 149 C816 52 755 4 661 4 C524 4 456 107 454 264 L865 264 C862 337 846 399 816 444 C782 494 730 524 656 524 C537 524 468 443 446 339 C425 445 359 524 239 524 C91 524 26 401 26 258 C26 115 91 -10 239 -10 L239 -10 Z M239 4 C120 4 41 98 41 258 C41 418 120 510 239 510 C358 510 439 419 439 259 C439 99 358 4 239 4 L239 4 Z M850 278 L454 278 C459 424 542 510 656 510 C756 510 838 444 850 278 L850 278 Z " />
<glyph glyph-name="Racute" unicode="&#x154;" horiz-adv-x="596" d="M82 335 L357 335 C474 334 519 272 522 170 C526 27 542 7 549 0 L566 0 L566 2 C557 11 541 24 537 174 C534 269 495 329 406 344 C508 362 554 429 554 525 C554 648 467 715 335 715 L67 715 L67 0 L82 0 L82 335 Z M82 701 L335 701 C459 701 539 638 539 525 C539 413 472 349 328 349 L82 349 L82 701 Z M276 756 L292 756 L354 871 L337 871 L276 756 Z " />
<glyph glyph-name="racute" unicode="&#x155;" horiz-adv-x="302" d="M284 517 C278 520 256 523 240 523 C170 523 107 483 72 409 L70 409 L70 517 L55 517 L55 0 L70 0 L70 344 C70 413 136 509 239 509 C257 509 272 507 284 503 L284 517 Z M153 604 L169 604 L234 725 L217 725 L153 604 Z " />
<glyph glyph-name="Rcommaaccent" unicode="&#x156;" horiz-adv-x="596" d="M82 335 L357 335 C474 334 519 272 522 170 C526 27 542 7 549 0 L566 0 L566 2 C557 11 541 24 537 174 C534 269 495 329 406 344 C508 362 554 429 554 525 C554 648 467 715 335 715 L67 715 L67 0 L82 0 L82 335 Z M82 701 L335 701 C459 701 539 638 539 525 C539 413 472 349 328 349 L82 349 L82 701 Z M271 -204 C313 -176 318 -134 318 -95 L318 -54 L303 -54 L303 -92 C303 -128 300 -165 271 -188 L271 -204 Z " />
<glyph glyph-name="rcommaaccent" unicode="&#x157;" horiz-adv-x="302" d="M284 517 C278 520 256 523 240 523 C170 523 107 483 72 409 L70 409 L70 517 L55 517 L55 0 L70 0 L70 344 C70 413 136 509 239 509 C257 509 272 507 284 503 L284 517 Z M23 -204 C65 -176 70 -134 70 -95 L70 -54 L55 -54 L55 -92 C55 -128 52 -165 23 -188 L23 -204 Z " />
<glyph glyph-name="Rcaron" unicode="&#x158;" horiz-adv-x="596" d="M82 335 L357 335 C474 334 519 272 522 170 C526 27 542 7 549 0 L566 0 L566 2 C557 11 541 24 537 174 C534 269 495 329 406 344 C508 362 554 429 554 525 C554 648 467 715 335 715 L67 715 L67 0 L82 0 L82 335 Z M82 701 L335 701 C459 701 539 638 539 525 C539 413 472 349 328 349 L82 349 L82 701 Z M397 862 L380 862 L295 770 L210 862 L193 862 L287 758 L303 758 L397 862 Z " />
<glyph glyph-name="rcaron" unicode="&#x159;" horiz-adv-x="302" d="M284 517 C278 520 256 523 240 523 C170 523 107 483 72 409 L70 409 L70 517 L55 517 L55 0 L70 0 L70 344 C70 413 136 509 239 509 C257 509 272 507 284 503 L284 517 Z M267 706 L250 706 L165 614 L80 706 L63 706 L157 602 L173 602 L267 706 Z " />
<glyph glyph-name="Sacute" unicode="&#x15a;" horiz-adv-x="589" d="M22 227 C31 92 120 -9 307 -9 C462 -9 553 68 553 184 C553 313 457 357 291 387 C142 414 67 454 67 555 C67 651 148 709 279 709 C415 709 494 637 511 521 L526 521 C508 643 426 723 279 723 C141 723 52 659 52 555 C52 446 134 401 289 373 C452 344 538 302 538 184 C538 77 454 5 307 5 C129 5 47 98 37 227 L22 227 Z M267 756 L283 756 L345 871 L328 871 L267 756 Z " />
<glyph glyph-name="sacute" unicode="&#x15b;" horiz-adv-x="453" d="M22 161 C30 58 98 -8 236 -8 C350 -8 430 39 430 131 C430 221 378 261 233 281 C99 299 59 338 59 399 C59 461 103 510 217 510 C334 510 378 454 392 374 L407 374 C393 460 343 524 217 524 C96 524 44 469 44 399 C44 329 89 288 230 268 C367 249 416 213 416 131 C416 55 352 6 236 6 C106 6 45 66 37 161 L22 161 Z M204 604 L220 604 L285 725 L268 725 L204 604 Z " />
<glyph glyph-name="Scircumflex" unicode="&#x15c;" horiz-adv-x="589" d="M22 227 C31 92 120 -9 307 -9 C462 -9 553 68 553 184 C553 313 457 357 291 387 C142 414 67 454 67 555 C67 651 148 709 279 709 C415 709 494 637 511 521 L526 521 C508 643 426 723 279 723 C141 723 52 659 52 555 C52 446 134 401 289 373 C452 344 538 302 538 184 C538 77 454 5 307 5 C129 5 47 98 37 227 L22 227 Z M294 862 L278 862 L184 758 L201 758 L286 850 L371 758 L388 758 L294 862 Z " />
<glyph glyph-name="scircumflex" unicode="&#x15d;" horiz-adv-x="453" d="M22 161 C30 58 98 -8 236 -8 C350 -8 430 39 430 131 C430 221 378 261 233 281 C99 299 59 338 59 399 C59 461 103 510 217 510 C334 510 378 454 392 374 L407 374 C393 460 343 524 217 524 C96 524 44 469 44 399 C44 329 89 288 230 268 C367 249 416 213 416 131 C416 55 352 6 236 6 C106 6 45 66 37 161 L22 161 Z M227 708 L211 708 L117 604 L134 604 L219 696 L304 604 L321 604 L227 708 Z " />
<glyph glyph-name="Scedilla" unicode="&#x15e;" horiz-adv-x="589" d="M22 227 C31 92 120 -9 307 -9 L241 -72 L248 -82 C263 -73 282 -68 303 -68 C345 -68 366 -84 366 -111 C366 -151 330 -165 286 -165 C256 -165 221 -155 196 -138 L189 -150 C218 -169 255 -179 286 -179 C338 -179 381 -158 381 -111 C381 -77 354 -54 303 -54 C289 -54 275 -58 271 -60 L325 -9 C470 -2 553 72 553 184 C553 313 457 357 291 387 C142 414 67 454 67 555 C67 651 148 709 279 709 C415 709 494 637 511 521 L526 521 C508 643 426 723 279 723 C141 723 52 659 52 555 C52 446 134 401 289 373 C452 344 538 302 538 184 C538 77 454 5 307 5 C129 5 47 98 37 227 L22 227 Z " />
<glyph glyph-name="scedilla" unicode="&#x15f;" horiz-adv-x="453" d="M22 161 C30 58 98 -8 236 -8 L242 -8 L176 -72 L183 -82 C198 -73 217 -68 238 -68 C280 -68 301 -84 301 -111 C301 -151 265 -165 221 -165 C191 -165 156 -155 131 -138 L124 -150 C153 -169 190 -179 221 -179 C273 -179 316 -158 316 -111 C316 -77 289 -54 238 -54 C224 -54 210 -58 206 -60 L262 -7 C361 -1 430 46 430 131 C430 221 378 261 233 281 C99 299 59 338 59 399 C59 461 103 510 217 510 C334 510 378 454 392 374 L407 374 C393 460 343 524 217 524 C96 524 44 469 44 399 C44 329 89 288 230 268 C367 249 416 213 416 131 C416 55 352 6 236 6 C106 6 45 66 37 161 L22 161 Z " />
<glyph glyph-name="Scaron" unicode="&#x160;" horiz-adv-x="589" d="M22 227 C31 92 120 -9 307 -9 C462 -9 553 68 553 184 C553 313 457 357 291 387 C142 414 67 454 67 555 C67 651 148 709 279 709 C415 709 494 637 511 521 L526 521 C508 643 426 723 279 723 C141 723 52 659 52 555 C52 446 134 401 289 373 C452 344 538 302 538 184 C538 77 454 5 307 5 C129 5 47 98 37 227 L22 227 Z M385 862 L368 862 L283 770 L198 862 L181 862 L275 758 L291 758 L385 862 Z " />
<glyph glyph-name="scaron" unicode="&#x161;" horiz-adv-x="453" d="M22 161 C30 58 98 -8 236 -8 C350 -8 430 39 430 131 C430 221 378 261 233 281 C99 299 59 338 59 399 C59 461 103 510 217 510 C334 510 378 454 392 374 L407 374 C393 460 343 524 217 524 C96 524 44 469 44 399 C44 329 89 288 230 268 C367 249 416 213 416 131 C416 55 352 6 236 6 C106 6 45 66 37 161 L22 161 Z M322 706 L305 706 L220 614 L135 706 L118 706 L212 602 L228 602 L322 706 Z " />
<glyph glyph-name="Tcommaaccent" unicode="&#x162;" horiz-adv-x="589" d="M302 0 L302 701 L567 701 L567 715 L22 715 L22 701 L287 701 L287 0 L302 0 Z M255 -204 C297 -176 302 -134 302 -95 L302 -54 L287 -54 L287 -92 C287 -128 284 -165 255 -188 L255 -204 Z " />
<glyph glyph-name="tcommaaccent" unicode="&#x163;" horiz-adv-x="265" d="M22 503 L92 503 L92 77 C92 21 117 -6 181 -6 C198 -6 223 -3 236 1 L236 15 L235 15 C219 10 199 8 181 8 C126 8 107 32 107 77 L107 503 L236 503 L236 517 L107 517 L107 680 L92 680 L92 517 L22 517 L22 503 Z M125 -204 C167 -176 172 -134 172 -95 L172 -54 L157 -54 L157 -92 C157 -128 154 -165 125 -188 L125 -204 Z " />
<glyph glyph-name="Tcaron" unicode="&#x164;" horiz-adv-x="589" d="M302 0 L302 701 L567 701 L567 715 L22 715 L22 701 L287 701 L287 0 L302 0 Z M396 862 L379 862 L294 770 L209 862 L192 862 L286 758 L302 758 L396 862 Z " />
<glyph glyph-name="tcaron" unicode="&#x165;" horiz-adv-x="265" d="M22 503 L92 503 L92 77 C92 21 117 -6 181 -6 C198 -6 223 -3 236 1 L236 15 L235 15 C219 10 199 8 181 8 C126 8 107 32 107 77 L107 503 L236 503 L236 517 L107 517 L107 680 L92 680 L92 517 L22 517 L22 503 Z M149 587 L149 571 C184 593 186 624 186 675 L186 715 L171 715 L171 675 C171 629 170 605 149 587 L149 587 Z " />
<glyph glyph-name="Tbar" unicode="&#x166;" horiz-adv-x="589" d="M302 0 L302 374 L486 374 L486 388 L302 388 L302 701 L567 701 L567 715 L22 715 L22 701 L287 701 L287 388 L104 388 L104 374 L287 374 L287 0 L302 0 Z " />
<glyph glyph-name="tbar" unicode="&#x167;" horiz-adv-x="275" d="M32 503 L102 503 L102 342 L22 342 L22 328 L102 328 L102 77 C102 21 127 -6 191 -6 C208 -6 233 -3 246 1 L246 15 L245 15 C229 10 209 8 191 8 C136 8 117 32 117 77 L117 328 L236 328 L236 342 L117 342 L117 503 L246 503 L246 517 L117 517 L117 680 L102 680 L102 517 L32 517 L32 503 Z " />
<glyph glyph-name="Utilde" unicode="&#x168;" horiz-adv-x="626" d="M55 715 L55 236 C55 58 171 -9 313 -9 C452 -9 571 58 571 236 L571 715 L556 715 L556 236 C556 68 445 5 313 5 C178 5 70 68 70 236 L70 715 L55 715 Z M243 844 C208 844 183 817 181 769 L195 769 C198 813 216 830 242 830 C301 830 319 770 383 770 C418 770 443 795 445 845 L431 845 C428 801 410 784 384 784 C325 784 309 844 243 844 L243 844 Z " />
<glyph glyph-name="utilde" unicode="&#x169;" horiz-adv-x="473" d="M403 0 L418 0 L418 517 L403 517 L403 159 C403 87 329 7 215 7 C123 7 67 56 67 147 L67 517 L52 517 L52 146 C52 62 101 -7 214 -7 C316 -7 377 47 401 97 L403 97 L403 0 Z M164 686 C129 686 104 659 102 611 L116 611 C119 655 137 672 163 672 C222 672 240 612 304 612 C339 612 364 637 366 687 L352 687 C349 643 331 626 305 626 C246 626 230 686 164 686 L164 686 Z " />
<glyph glyph-name="Umacron" unicode="&#x16a;" horiz-adv-x="626" d="M55 715 L55 236 C55 58 171 -9 313 -9 C452 -9 571 58 571 236 L571 715 L556 715 L556 236 C556 68 445 5 313 5 C178 5 70 68 70 236 L70 715 L55 715 Z M207 787 L425 787 L425 801 L207 801 L207 787 Z " />
<glyph glyph-name="umacron" unicode="&#x16b;" horiz-adv-x="473" d="M403 0 L418 0 L418 517 L403 517 L403 159 C403 87 329 7 215 7 C123 7 67 56 67 147 L67 517 L52 517 L52 146 C52 62 101 -7 214 -7 C316 -7 377 47 401 97 L403 97 L403 0 Z M124 650 L342 650 L342 664 L124 664 L124 650 Z " />
<glyph glyph-name="Ubreve" unicode="&#x16c;" horiz-adv-x="626" d="M55 715 L55 236 C55 58 171 -9 313 -9 C452 -9 571 58 571 236 L571 715 L556 715 L556 236 C556 68 445 5 313 5 C178 5 70 68 70 236 L70 715 L55 715 Z M312 771 C383 771 423 809 428 861 L414 861 C407 817 375 785 312 785 C249 785 217 817 210 861 L196 861 C201 809 241 771 312 771 L312 771 Z " />
<glyph glyph-name="ubreve" unicode="&#x16d;" horiz-adv-x="473" d="M403 0 L418 0 L418 517 L403 517 L403 159 C403 87 329 7 215 7 C123 7 67 56 67 147 L67 517 L52 517 L52 146 C52 62 101 -7 214 -7 C316 -7 377 47 401 97 L403 97 L403 0 Z M232 616 C303 616 343 654 348 706 L334 706 C327 662 295 630 232 630 C169 630 137 662 130 706 L116 706 C121 654 161 616 232 616 L232 616 Z " />
<glyph glyph-name="Uring" unicode="&#x16e;" horiz-adv-x="626" d="M55 715 L55 236 C55 58 171 -9 313 -9 C452 -9 571 58 571 236 L571 715 L556 715 L556 236 C556 68 445 5 313 5 C178 5 70 68 70 236 L70 715 L55 715 Z M314 754 C359 754 390 785 390 832 C390 878 359 909 314 909 C269 909 237 878 237 832 C237 785 269 754 314 754 L314 754 Z M314 767 C276 767 251 794 251 832 C251 870 276 896 314 896 C352 896 376 870 376 832 C376 794 352 767 314 767 L314 767 Z " />
<glyph glyph-name="uring" unicode="&#x16f;" horiz-adv-x="473" d="M403 0 L418 0 L418 517 L403 517 L403 159 C403 87 329 7 215 7 C123 7 67 56 67 147 L67 517 L52 517 L52 146 C52 62 101 -7 214 -7 C316 -7 377 47 401 97 L403 97 L403 0 Z M230 567 C275 567 306 598 306 644 C306 689 275 720 230 720 C185 720 154 689 154 644 C154 598 185 567 230 567 L230 567 Z M230 580 C192 580 168 607 168 644 C168 681 192 707 230 707 C268 707 292 681 292 644 C292 607 268 580 230 580 L230 580 Z " />
<glyph glyph-name="Uhungarumlaut" unicode="&#x170;" horiz-adv-x="626" d="M55 715 L55 236 C55 58 171 -9 313 -9 C452 -9 571 58 571 236 L571 715 L556 715 L556 236 C556 68 445 5 313 5 C178 5 70 68 70 236 L70 715 L55 715 Z M231 756 L246 756 L303 877 L287 877 L231 756 Z M353 756 L368 756 L425 877 L409 877 L353 756 Z " />
<glyph glyph-name="uhungarumlaut" unicode="&#x171;" horiz-adv-x="473" d="M403 0 L418 0 L418 517 L403 517 L403 159 C403 87 329 7 215 7 C123 7 67 56 67 147 L67 517 L52 517 L52 146 C52 62 101 -7 214 -7 C316 -7 377 47 401 97 L403 97 L403 0 Z M149 604 L164 604 L221 725 L205 725 L149 604 Z M271 604 L286 604 L343 725 L327 725 L271 604 Z " />
<glyph glyph-name="Uogonek" unicode="&#x172;" horiz-adv-x="626" d="M55 715 L55 236 C55 58 171 -9 313 -9 C324 -9 348 -8 360 -6 C305 -26 278 -63 278 -100 C278 -144 310 -172 367 -172 C392 -172 409 -167 420 -161 L420 -147 L418 -147 C405 -153 389 -158 367 -158 C319 -158 293 -136 293 -100 C293 -82 301 -64 317 -48 C333 -32 358 -18 392 -6 C499 30 571 92 571 236 L571 715 L556 715 L556 236 C556 68 445 5 313 5 C178 5 70 68 70 236 L70 715 L55 715 Z " />
<glyph glyph-name="uogonek" unicode="&#x173;" horiz-adv-x="473" d="M403 4 C367 -18 320 -52 320 -100 C320 -143 350 -172 408 -172 C431 -172 448 -166 457 -161 L457 -148 L455 -148 C445 -153 429 -158 408 -158 C360 -158 335 -134 335 -100 C335 -61 368 -34 418 -1 L418 517 L403 517 L403 160 C403 88 329 8 215 8 C123 8 67 57 67 148 L67 517 L52 517 L52 147 C52 63 101 -6 214 -6 C316 -6 377 48 401 98 L403 98 L403 4 Z " />
<glyph glyph-name="Wcircumflex" unicode="&#x174;" horiz-adv-x="877" d="M430 715 L237 29 L31 715 L14 715 L229 0 L245 0 L438 685 L632 0 L648 0 L863 715 L846 715 L640 28 L447 715 L430 715 Z M446 862 L430 862 L336 758 L353 758 L438 850 L523 758 L540 758 L446 862 Z " />
<glyph glyph-name="wcircumflex" unicode="&#x175;" horiz-adv-x="694" d="M20 517 L4 517 L178 0 L194 0 L346 491 L495 0 L511 0 L690 517 L674 517 L503 24 L354 517 L338 517 L186 25 L20 517 Z M354 708 L338 708 L244 604 L261 604 L346 696 L431 604 L448 604 L354 708 Z " />
<glyph glyph-name="Ycircumflex" unicode="&#x176;" horiz-adv-x="573" d="M27 715 L10 715 L279 324 L279 0 L294 0 L294 324 L563 715 L546 715 L286 337 L27 715 Z M294 862 L278 862 L184 758 L201 758 L286 850 L371 758 L388 758 L294 862 Z " />
<glyph glyph-name="ycircumflex" unicode="&#x177;" horiz-adv-x="429" d="M427 517 L411 517 L217 40 L19 517 L2 517 L209 20 L185 -39 C143 -143 124 -154 79 -154 C60 -154 42 -150 30 -145 L29 -145 L29 -160 C40 -164 57 -168 79 -168 C136 -168 157 -150 199 -45 L427 517 Z M225 708 L209 708 L115 604 L132 604 L217 696 L302 604 L319 604 L225 708 Z " />
<glyph glyph-name="Ydieresis" unicode="&#x178;" horiz-adv-x="573" d="M27 715 L10 715 L279 324 L279 0 L294 0 L294 324 L563 715 L546 715 L286 337 L27 715 Z M366 836 L351 836 L351 782 L366 782 L366 836 Z M221 836 L206 836 L206 782 L221 782 L221 836 Z " />
<glyph glyph-name="Zacute" unicode="&#x179;" horiz-adv-x="601" d="M53 701 L523 701 L30 14 L30 0 L565 0 L565 14 L48 14 L541 701 L541 715 L53 715 L53 701 Z M279 756 L295 756 L357 871 L340 871 L279 756 Z " />
<glyph glyph-name="zacute" unicode="&#x17a;" horiz-adv-x="450" d="M410 503 L410 517 L50 517 L50 503 L391 503 L34 14 L34 0 L425 0 L425 14 L52 14 L410 503 Z M217 604 L233 604 L298 725 L281 725 L217 604 Z " />
<glyph glyph-name="Zdotaccent" unicode="&#x17b;" horiz-adv-x="601" d="M53 701 L523 701 L30 14 L30 0 L565 0 L565 14 L48 14 L541 701 L541 715 L53 715 L53 701 Z M305 835 L288 835 L288 782 L305 782 L305 835 Z " />
<glyph glyph-name="zdotaccent" unicode="&#x17c;" horiz-adv-x="450" d="M410 503 L410 517 L50 517 L50 503 L391 503 L34 14 L34 0 L425 0 L425 14 L52 14 L410 503 Z M240 695 L223 695 L223 640 L240 640 L240 695 Z " />
<glyph glyph-name="Zcaron" unicode="&#x17d;" horiz-adv-x="601" d="M53 701 L523 701 L30 14 L30 0 L565 0 L565 14 L48 14 L541 701 L541 715 L53 715 L53 701 Z M400 862 L383 862 L298 770 L213 862 L196 862 L290 758 L306 758 L400 862 Z " />
<glyph glyph-name="zcaron" unicode="&#x17e;" horiz-adv-x="450" d="M410 503 L410 517 L50 517 L50 503 L391 503 L34 14 L34 0 L425 0 L425 14 L52 14 L410 503 Z M333 706 L316 706 L231 614 L146 706 L129 706 L223 602 L239 602 L333 706 Z " />
<glyph glyph-name="florin" unicode="&#x192;" horiz-adv-x="334" d="M262 382 L163 382 L190 571 C201 651 224 679 277 679 C293 679 312 677 323 675 L323 689 C313 691 294 693 277 693 C217 693 189 663 176 573 L149 382 L64 382 L64 368 L147 368 L91 -25 C79 -109 61 -138 13 -138 C1 -138 -11 -137 -25 -135 L-25 -149 C-11 -151 -1 -152 13 -152 C71 -152 92 -119 105 -27 L161 368 L262 368 L262 382 Z " />
<glyph glyph-name="AEacute" unicode="&#x1fc;" horiz-adv-x="889" d="M516 756 L532 756 L594 871 L577 871 L516 756 Z M444 701 L841 701 L841 715 L289 715 L14 0 L30 0 L129 256 L429 256 L429 0 L851 0 L851 14 L444 14 L444 364 L806 364 L806 378 L444 378 L444 701 Z M300 701 L429 701 L429 270 L134 270 L300 701 Z " />
<glyph glyph-name="aeacute" unicode="&#x1fd;" horiz-adv-x="845" d="M821 264 C817 361 791 439 737 483 C705 509 664 524 612 524 C503 524 436 456 409 365 C408 466 353 524 240 524 C105 524 57 451 52 367 L67 367 C75 467 135 510 240 510 C347 510 395 455 395 367 C395 307 353 292 222 275 C111 261 24 233 24 128 C24 45 90 -9 190 -9 C283 -9 390 32 406 166 C431 63 498 -10 617 -10 C737 -10 793 64 812 149 L797 149 C772 52 711 4 617 4 C477 4 411 112 410 264 L821 264 Z M395 203 C395 69 306 5 190 5 C121 5 39 37 39 128 C39 218 106 247 228 262 C351 277 379 296 395 319 L395 203 Z M806 278 L410 278 C415 424 498 510 612 510 C712 510 794 444 806 278 L806 278 Z M405 604 L421 604 L486 725 L469 725 L405 604 Z " />
<glyph glyph-name="Oslashacute" unicode="&#x1fe;" horiz-adv-x="749" d="M356 756 L372 756 L434 871 L417 871 L356 756 Z M50 -7 L138 90 C197 29 278 -7 372 -7 C566 -7 707 147 707 358 C707 462 673 552 615 617 L702 713 L692 723 L605 627 C546 687 465 723 372 723 C178 723 38 570 38 358 C38 254 71 165 128 100 L40 3 L50 -7 Z M372 7 C280 7 203 42 148 101 L605 605 C660 542 692 456 692 358 C692 161 561 7 372 7 L372 7 Z M53 358 C53 557 182 709 372 709 C462 709 539 674 595 616 L138 111 C84 174 53 260 53 358 L53 358 Z " />
<glyph glyph-name="oslashacute" unicode="&#x1ff;" horiz-adv-x="528" d="M239 604 L255 604 L320 725 L303 725 L239 604 Z M260 -8 C409 -8 498 117 498 260 C498 331 476 397 435 445 L494 512 L484 522 L425 455 C385 497 329 524 260 524 C112 524 22 402 22 259 C22 187 44 120 86 71 L25 3 L35 -7 L95 61 C135 18 191 -8 260 -8 L260 -8 Z M37 259 C37 419 141 510 260 510 C319 510 375 487 416 445 L95 82 C59 125 37 184 37 259 L37 259 Z M260 6 C200 6 145 29 104 72 L425 434 C461 392 483 333 483 260 C483 100 379 6 260 6 L260 6 Z " />
<glyph glyph-name="Scommaaccent" unicode="&#x218;" horiz-adv-x="589" d="M22 227 C31 92 120 -9 307 -9 C462 -9 553 68 553 184 C553 313 457 357 291 387 C142 414 67 454 67 555 C67 651 148 709 279 709 C415 709 494 637 511 521 L526 521 C508 643 426 723 279 723 C141 723 52 659 52 555 C52 446 134 401 289 373 C452 344 538 302 538 184 C538 77 454 5 307 5 C129 5 47 98 37 227 L22 227 Z M272 -204 C314 -176 319 -134 319 -95 L319 -54 L304 -54 L304 -92 C304 -128 301 -165 272 -188 L272 -204 Z " />
<glyph glyph-name="scommaaccent" unicode="&#x219;" horiz-adv-x="453" d="M22 161 C30 58 98 -8 236 -8 C350 -8 430 39 430 131 C430 221 378 261 233 281 C99 299 59 338 59 399 C59 461 103 510 217 510 C334 510 378 454 392 374 L407 374 C393 460 343 524 217 524 C96 524 44 469 44 399 C44 329 89 288 230 268 C367 249 416 213 416 131 C416 55 352 6 236 6 C106 6 45 66 37 161 L22 161 Z M193 -204 C235 -176 240 -134 240 -95 L240 -54 L225 -54 L225 -92 C225 -128 222 -165 193 -188 L193 -204 Z " />
<glyph glyph-name="uni021A" unicode="&#x21a;" horiz-adv-x="589" d="M302 0 L302 701 L567 701 L567 715 L22 715 L22 701 L287 701 L287 0 L302 0 Z M255 -204 C297 -176 302 -134 302 -95 L302 -54 L287 -54 L287 -92 C287 -128 284 -165 255 -188 L255 -204 Z " />
<glyph glyph-name="uni021B" unicode="&#x21b;" horiz-adv-x="265" d="M22 503 L92 503 L92 77 C92 21 117 -6 181 -6 C198 -6 223 -3 236 1 L236 15 L235 15 C219 10 199 8 181 8 C126 8 107 32 107 77 L107 503 L236 503 L236 517 L107 517 L107 680 L92 680 L92 517 L22 517 L22 503 Z M125 -204 C167 -176 172 -134 172 -95 L172 -54 L157 -54 L157 -92 C157 -128 154 -165 125 -188 L125 -204 Z " />
<glyph glyph-name="uni0237" unicode="&#x237;" horiz-adv-x="147" d="M77 517 L77 -64 C77 -109 65 -133 15 -133 C-1 -133 -11 -131 -27 -126 L-28 -126 L-28 -140 C-15 -144 0 -147 15 -147 C72 -147 92 -120 92 -64 L92 517 L77 517 Z " />
<glyph glyph-name="circumflex" unicode="&#x2c6;" horiz-adv-x="430" d="M223 708 L207 708 L113 604 L130 604 L215 696 L300 604 L317 604 L223 708 Z " />
<glyph glyph-name="caron" unicode="&#x2c7;" horiz-adv-x="430" d="M317 706 L300 706 L215 614 L130 706 L113 706 L207 602 L223 602 L317 706 Z " />
<glyph glyph-name="uni02C9" unicode="&#x2c9;" horiz-adv-x="460" d="M121 650 L339 650 L339 664 L121 664 L121 650 Z " />
<glyph glyph-name="breve" unicode="&#x2d8;" horiz-adv-x="478" d="M239 616 C310 616 350 654 355 706 L341 706 C334 662 302 630 239 630 C176 630 144 662 137 706 L123 706 C128 654 168 616 239 616 L239 616 Z " />
<glyph glyph-name="dotaccent" unicode="&#x2d9;" horiz-adv-x="436" d="M226 695 L209 695 L209 640 L226 640 L226 695 Z " />
<glyph glyph-name="ring" unicode="&#x2da;" horiz-adv-x="487" d="M243 567 C288 567 319 598 319 644 C319 689 288 720 243 720 C198 720 167 689 167 644 C167 598 198 567 243 567 L243 567 Z M243 580 C205 580 181 607 181 644 C181 681 205 707 243 707 C281 707 305 681 305 644 C305 607 281 580 243 580 L243 580 Z " />
<glyph glyph-name="ogonek" unicode="&#x2db;" horiz-adv-x="489" d="M205 0 C160 -22 128 -51 128 -93 C128 -137 158 -172 223 -172 C248 -172 262 -168 273 -163 L273 -149 L271 -149 C258 -155 245 -158 223 -158 C167 -158 143 -129 143 -93 C143 -55 172 -27 232 0 L205 0 Z " />
<glyph glyph-name="tilde" unicode="&#x2dc;" horiz-adv-x="485" d="M172 686 C137 686 112 659 110 611 L124 611 C127 655 145 672 171 672 C230 672 248 612 312 612 C347 612 372 637 374 687 L360 687 C357 643 339 626 313 626 C254 626 238 686 172 686 L172 686 Z " />
<glyph glyph-name="hungarumlaut" unicode="&#x2dd;" horiz-adv-x="451" d="M137 604 L152 604 L209 725 L193 725 L137 604 Z M259 604 L274 604 L331 725 L315 725 L259 604 Z " />
<glyph glyph-name="pi" unicode="&#x3c0;" horiz-adv-x="588" d="M559 517 L22 517 L22 503 L118 503 L118 0 L133 0 L133 503 L436 503 L436 70 C436 19 459 -3 503 -3 C530 -3 546 3 557 9 L557 23 L555 23 C545 18 529 11 503 11 C469 11 451 28 451 70 L451 503 L559 503 L559 517 Z " />
<glyph glyph-name="Wgrave" unicode="&#x1e80;" horiz-adv-x="877" d="M430 715 L237 29 L31 715 L14 715 L229 0 L245 0 L438 685 L632 0 L648 0 L863 715 L846 715 L640 28 L447 715 L430 715 Z M375 871 L358 871 L425 756 L441 756 L375 871 Z " />
<glyph glyph-name="wgrave" unicode="&#x1e81;" horiz-adv-x="694" d="M20 517 L4 517 L178 0 L194 0 L346 491 L495 0 L511 0 L690 517 L674 517 L503 24 L354 517 L338 517 L186 25 L20 517 Z M282 725 L265 725 L333 604 L349 604 L282 725 Z " />
<glyph glyph-name="Wacute" unicode="&#x1e82;" horiz-adv-x="877" d="M430 715 L237 29 L31 715 L14 715 L229 0 L245 0 L438 685 L632 0 L648 0 L863 715 L846 715 L640 28 L447 715 L430 715 Z M431 756 L447 756 L509 871 L492 871 L431 756 Z " />
<glyph glyph-name="wacute" unicode="&#x1e83;" horiz-adv-x="694" d="M20 517 L4 517 L178 0 L194 0 L346 491 L495 0 L511 0 L690 517 L674 517 L503 24 L354 517 L338 517 L186 25 L20 517 Z M332 604 L348 604 L413 725 L396 725 L332 604 Z " />
<glyph glyph-name="Wdieresis" unicode="&#x1e84;" horiz-adv-x="877" d="M430 715 L237 29 L31 715 L14 715 L229 0 L245 0 L438 685 L632 0 L648 0 L863 715 L846 715 L640 28 L447 715 L430 715 Z M518 836 L503 836 L503 782 L518 782 L518 836 Z M373 836 L358 836 L358 782 L373 782 L373 836 Z " />
<glyph glyph-name="wdieresis" unicode="&#x1e85;" horiz-adv-x="694" d="M20 517 L4 517 L178 0 L194 0 L346 491 L495 0 L511 0 L690 517 L674 517 L503 24 L354 517 L338 517 L186 25 L20 517 Z M425 705 L410 705 L410 651 L425 651 L425 705 Z M280 705 L265 705 L265 651 L280 651 L280 705 Z " />
<glyph glyph-name="Ygrave" unicode="&#x1ef2;" horiz-adv-x="573" d="M27 715 L10 715 L279 324 L279 0 L294 0 L294 324 L563 715 L546 715 L286 337 L27 715 Z M245 871 L228 871 L295 756 L311 756 L245 871 Z " />
<glyph glyph-name="ygrave" unicode="&#x1ef3;" horiz-adv-x="429" d="M427 517 L411 517 L217 40 L19 517 L2 517 L209 20 L185 -39 C143 -143 124 -154 79 -154 C60 -154 42 -150 30 -145 L29 -145 L29 -160 C40 -164 57 -168 79 -168 C136 -168 157 -150 199 -45 L427 517 Z M168 725 L151 725 L219 604 L235 604 L168 725 Z " />
<glyph glyph-name="uni2009" unicode="&#x2009;" horiz-adv-x="55" d="" />
<glyph glyph-name="endash" unicode="&#x2013;" horiz-adv-x="499" d="M48 248 L451 248 L451 263 L48 263 L48 248 Z " />
<glyph glyph-name="emdash" unicode="&#x2014;" horiz-adv-x="779" d="M48 248 L731 248 L731 263 L48 263 L48 248 Z " />
<glyph glyph-name="quoteleft" unicode="&#x2018;" horiz-adv-x="113" d="M89 699 L89 715 C47 687 42 645 42 606 L42 544 L57 544 L57 603 C57 638 61 676 89 699 L89 699 Z " />
<glyph glyph-name="quoteright" unicode="&#x2019;" horiz-adv-x="113" d="M24 544 C66 572 71 614 71 653 L71 715 L56 715 L56 656 C56 621 52 583 24 560 L24 544 Z " />
<glyph glyph-name="quotesinglbase" unicode="&#x201a;" horiz-adv-x="131" d="M42 -108 C84 -80 89 -38 89 1 L89 63 L73 63 L73 4 C73 -31 70 -68 42 -91 L42 -108 Z " />
<glyph glyph-name="quotedblleft" unicode="&#x201c;" horiz-adv-x="199" d="M89 699 L89 715 C47 687 42 645 42 606 L42 544 L57 544 L57 603 C57 638 61 676 89 699 L89 699 Z M175 699 L175 715 C133 687 128 645 128 606 L128 544 L143 544 L143 603 C143 638 147 676 175 699 L175 699 Z " />
<glyph glyph-name="quotedblright" unicode="&#x201d;" horiz-adv-x="199" d="M24 544 C66 572 71 614 71 653 L71 715 L56 715 L56 656 C56 621 52 583 24 560 L24 544 Z M110 544 C152 572 157 614 157 653 L157 715 L142 715 L142 656 C142 621 138 583 110 560 L110 544 Z " />
<glyph glyph-name="quotedblbase" unicode="&#x201e;" horiz-adv-x="217" d="M42 -91 L42 -108 C84 -80 89 -38 89 1 L89 63 L73 63 L73 4 C73 -31 70 -68 42 -91 L42 -91 Z M128 -91 L128 -108 C170 -80 175 -38 175 1 L175 63 L159 63 L159 4 C159 -31 156 -68 128 -91 L128 -91 Z " />
<glyph glyph-name="dagger" unicode="&#x2020;" horiz-adv-x="522" d="M34 485 L254 485 L254 -104 L269 -104 L269 485 L488 485 L488 500 L269 500 L269 715 L254 715 L254 500 L34 500 L34 485 Z " />
<glyph glyph-name="daggerdbl" unicode="&#x2021;" horiz-adv-x="522" d="M34 485 L254 485 L254 126 L34 126 L34 111 L254 111 L254 -104 L269 -104 L269 111 L488 111 L488 126 L269 126 L269 485 L488 485 L488 500 L269 500 L269 715 L254 715 L254 500 L34 500 L34 485 Z " />
<glyph glyph-name="bullet" unicode="&#x2022;" horiz-adv-x="203" d="M102 258 C139 258 169 286 169 325 C169 365 139 393 102 393 C64 393 34 364 34 325 C34 287 64 258 102 258 L102 258 Z " />
<glyph glyph-name="ellipsis" unicode="&#x2026;" horiz-adv-x="351" d="M61 55 L44 55 L44 0 L61 0 L61 55 Z M184 55 L167 55 L167 0 L184 0 L184 55 Z M307 55 L290 55 L290 0 L307 0 L307 55 Z " />
<glyph glyph-name="perthousand" unicode="&#x2030;" horiz-adv-x="963" d="M108 0 L125 0 L554 685 L537 685 L108 0 Z M160 327 C241 327 292 398 292 504 C292 614 239 681 160 681 C79 681 24 612 24 504 C24 398 77 327 160 327 L160 327 Z M160 341 C85 341 39 406 39 504 C39 604 88 667 160 667 C232 667 277 606 277 504 C277 406 236 341 160 341 L160 341 Z M494 -8 C575 -8 626 63 626 169 C626 279 573 346 494 346 C413 346 358 277 358 169 C358 63 411 -8 494 -8 L494 -8 Z M494 6 C419 6 373 71 373 169 C373 269 421 332 494 332 C566 332 611 271 611 169 C611 71 570 6 494 6 L494 6 Z M807 -8 C888 -8 939 63 939 169 C939 279 886 346 807 346 C726 346 671 277 671 169 C671 63 724 -8 807 -8 L807 -8 Z M807 6 C732 6 686 71 686 169 C686 269 734 332 807 332 C879 332 924 271 924 169 C924 71 883 6 807 6 L807 6 Z " />
<glyph glyph-name="uni2032" unicode="&#x2032;" horiz-adv-x="110" d="M24 501 L39 501 L86 715 L71 715 L24 501 Z " />
<glyph glyph-name="uni2033" unicode="&#x2033;" horiz-adv-x="208" d="M122 501 L137 501 L184 715 L169 715 L122 501 Z M24 501 L39 501 L86 715 L71 715 L24 501 Z " />
<glyph glyph-name="guilsinglleft" unicode="&#x2039;" horiz-adv-x="241" d="M191 153 L62 272 L191 388 L191 407 L50 280 L50 264 L191 135 L191 153 Z " />
<glyph glyph-name="guilsinglright" unicode="&#x203a;" horiz-adv-x="241" d="M50 135 L191 264 L191 280 L50 407 L50 388 L179 272 L50 153 L50 135 Z " />
<glyph glyph-name="fraction" unicode="&#x2044;" horiz-adv-x="148" d="M309 715 L-178 0 L-161 0 L326 715 L309 715 Z " />
<glyph glyph-name="Euro" unicode="&#x20ac;" horiz-adv-x="588" d="M22 276 L84 276 C105 88 213 -9 337 -9 C479 -9 559 106 564 218 L549 218 C544 112 472 5 337 5 C222 5 120 98 100 276 L352 276 L352 290 L98 290 C97 307 96 324 96 343 C96 360 96 377 98 393 L352 393 L352 407 L99 407 C119 582 218 681 338 681 C459 681 528 590 543 504 L558 504 C543 599 467 695 338 695 C210 695 104 591 84 407 L22 407 L22 393 L83 393 C81 377 81 360 81 343 C81 324 82 307 83 290 L22 290 L22 276 Z " />
<glyph glyph-name="uni2113" unicode="&#x2113;" horiz-adv-x="302" d="M14 215 C38 223 60 232 80 241 L80 133 C80 33 113 -5 180 -5 C213 -5 242 5 256 16 L256 31 L254 31 C235 17 212 9 180 9 C125 9 95 39 95 133 L95 249 C222 313 273 406 273 577 C273 675 243 719 176 719 C100 719 80 666 80 593 L80 257 C60 247 38 238 14 230 L14 215 Z M95 591 C95 659 112 705 176 705 C232 705 256 669 258 577 C258 433 221 349 137 290 C124 281 110 273 95 265 L95 591 Z " />
<glyph glyph-name="trademark" unicode="&#x2122;" horiz-adv-x="609" d="M439 447 L320 715 L304 715 L304 429 L318 429 L318 683 C318 683 331 654 339 636 L432 429 L446 429 L537 636 L558 682 L558 429 L572 429 L572 715 L556 715 L439 447 Z M152 429 L152 701 L257 701 L257 715 L32 715 L32 701 L137 701 L137 429 L152 429 Z " />
<glyph glyph-name="Omega" unicode="&#x2126;" horiz-adv-x="728" d="M453 14 C583 61 688 168 688 375 C688 573 562 723 364 723 C164 723 40 573 40 375 C40 167 144 61 275 14 L52 14 L52 0 L318 0 L318 14 C181 51 55 152 55 375 C55 565 173 709 364 709 C555 709 673 565 673 375 C673 152 546 49 410 14 L410 0 L676 0 L676 14 L453 14 Z " />
<glyph glyph-name="estimated" unicode="&#x212e;" horiz-adv-x="621" d="M591 301 C592 416 568 506 495 568 C451 605 393 627 322 627 C150 627 29 496 29 309 C29 121 137 -11 327 -11 C474 -11 561 72 587 186 L536 186 C504 93 445 37 327 37 C250 37 197 60 160 98 L160 301 L591 301 Z M322 582 C384 582 433 563 463 533 L463 345 L160 345 L160 520 C194 557 251 582 322 582 L322 582 Z " />
<glyph glyph-name="onethird" unicode="&#x2153;" horiz-adv-x="767" d="M564 226 L564 212 L607 212 C673 212 723 181 723 118 C723 50 668 9 593 9 C509 9 461 60 454 131 L439 131 C445 53 500 -5 593 -5 C677 -5 738 43 738 118 C738 175 704 207 650 220 C695 234 719 267 719 310 C719 375 664 416 588 416 C501 416 459 358 455 295 L470 295 C475 355 511 402 588 402 C656 402 704 366 704 310 C704 264 669 226 607 226 L564 226 Z M561 715 L74 0 L91 0 L578 715 L561 715 Z M147 303 L147 716 L132 716 C125 651 90 634 26 634 L26 620 C78 620 113 630 132 664 L132 303 L147 303 Z " />
<glyph glyph-name="twothirds" unicode="&#x2154;" horiz-adv-x="880" d="M677 226 L677 212 L720 212 C786 212 836 181 836 118 C836 50 781 9 706 9 C622 9 574 60 567 131 L552 131 C558 53 613 -5 706 -5 C790 -5 851 43 851 118 C851 175 817 207 763 220 C808 234 832 267 832 310 C832 375 777 416 701 416 C614 416 572 358 568 295 L583 295 C588 355 624 402 701 402 C769 402 817 366 817 310 C817 264 782 226 720 226 L677 226 Z M300 304 L300 318 L43 318 C48 392 103 424 169 462 C235 500 294 528 295 599 C296 665 253 719 162 719 C63 719 26 649 26 584 L41 584 C41 644 74 705 162 705 C240 705 280 661 280 599 C280 536 225 510 161 473 C91 432 28 395 27 304 L300 304 Z M674 715 L187 0 L204 0 L691 715 L674 715 Z " />
<glyph glyph-name="oneeighth" unicode="&#x215b;" horiz-adv-x="779" d="M597 -5 C684 -5 748 40 748 114 C748 173 712 211 649 227 C693 241 723 272 723 317 C723 377 667 416 595 416 C522 416 466 377 466 317 C466 273 495 243 541 227 C479 211 442 173 442 114 C442 40 508 -5 597 -5 L597 -5 Z M597 9 C517 9 457 46 457 114 C457 183 515 218 595 218 C676 218 733 183 733 114 C733 47 676 9 597 9 L597 9 Z M595 232 C531 232 481 263 481 317 C481 371 531 402 595 402 C659 402 708 370 708 317 C708 263 659 232 595 232 L595 232 Z M557 715 L70 0 L87 0 L574 715 L557 715 Z M147 303 L147 716 L132 716 C125 651 90 634 26 634 L26 620 C78 620 113 630 132 664 L132 303 L147 303 Z " />
<glyph glyph-name="threeeighths" unicode="&#x215c;" horiz-adv-x="866" d="M684 -5 C771 -5 835 40 835 114 C835 173 799 211 736 227 C780 241 810 272 810 317 C810 377 754 416 682 416 C609 416 553 377 553 317 C553 273 582 243 628 227 C566 211 529 173 529 114 C529 40 595 -5 684 -5 L684 -5 Z M684 9 C604 9 544 46 544 114 C544 183 602 218 682 218 C763 218 820 183 820 114 C820 47 763 9 684 9 L684 9 Z M682 232 C618 232 568 263 568 317 C568 371 618 402 682 402 C746 402 795 370 795 317 C795 263 746 232 682 232 L682 232 Z M150 529 L150 515 L193 515 C259 515 309 484 309 421 C309 353 254 312 179 312 C95 312 47 363 40 434 L25 434 C31 356 86 298 179 298 C263 298 324 346 324 421 C324 478 290 510 236 523 C281 537 305 570 305 613 C305 678 250 719 174 719 C87 719 45 661 41 598 L56 598 C61 658 97 705 174 705 C242 705 290 669 290 613 C290 567 255 529 193 529 L150 529 Z M660 715 L173 0 L190 0 L677 715 L660 715 Z " />
<glyph glyph-name="fiveeighths" unicode="&#x215d;" horiz-adv-x="855" d="M673 -5 C760 -5 824 40 824 114 C824 173 788 211 725 227 C769 241 799 272 799 317 C799 377 743 416 671 416 C598 416 542 377 542 317 C542 273 571 243 617 227 C555 211 518 173 518 114 C518 40 584 -5 673 -5 L673 -5 Z M673 9 C593 9 533 46 533 114 C533 183 591 218 671 218 C752 218 809 183 809 114 C809 47 752 9 673 9 L673 9 Z M671 232 C607 232 557 263 557 317 C557 371 607 402 671 402 C735 402 784 370 784 317 C784 263 735 232 671 232 L671 232 Z M290 701 L290 715 L87 715 L38 494 L52 494 C70 524 108 557 174 557 C259 557 298 501 298 434 C298 360 240 313 174 313 C86 313 49 366 40 417 L25 417 C32 360 77 299 174 299 C249 299 313 353 313 434 C313 509 266 571 174 571 C122 571 82 550 60 525 L99 701 L290 701 Z M660 715 L173 0 L190 0 L677 715 L660 715 Z " />
<glyph glyph-name="seveneighths" unicode="&#x215e;" horiz-adv-x="791" d="M609 -5 C696 -5 760 40 760 114 C760 173 724 211 661 227 C705 241 735 272 735 317 C735 377 679 416 607 416 C534 416 478 377 478 317 C478 273 507 243 553 227 C491 211 454 173 454 114 C454 40 520 -5 609 -5 L609 -5 Z M609 9 C529 9 469 46 469 114 C469 183 527 218 607 218 C688 218 745 183 745 114 C745 47 688 9 609 9 L609 9 Z M607 232 C543 232 493 263 493 317 C493 371 543 402 607 402 C671 402 720 370 720 317 C720 263 671 232 607 232 L607 232 Z M576 715 L89 0 L106 0 L593 715 L576 715 Z M105 304 L120 304 C122 454 172 566 306 703 L306 715 L28 715 L28 701 L284 701 C159 569 107 456 105 304 L105 304 Z " />
<glyph glyph-name="partialdiff" unicode="&#x2202;" horiz-adv-x="511" d="M264 453 C134 453 44 339 44 198 C44 80 122 -8 235 -8 C387 -8 467 137 467 286 C467 503 400 660 152 719 L152 704 C383 649 450 502 453 299 C432 385 367 453 264 453 L264 453 Z M235 6 C130 6 59 88 59 198 C59 331 141 439 264 439 C384 439 447 340 447 242 C447 170 394 6 235 6 L235 6 Z " />
<glyph glyph-name="Delta" unicode="&#x2206;" horiz-adv-x="666" d="M19 14 L19 0 L647 0 L647 14 L345 715 L331 715 L19 14 Z M36 14 L275 552 L338 693 L398 553 L631 14 L36 14 Z " />
<glyph glyph-name="product" unicode="&#x220f;" horiz-adv-x="673" d="M602 -100 L602 715 L71 715 L71 -100 L86 -100 L86 701 L587 701 L587 -100 L602 -100 Z " />
<glyph glyph-name="summation" unicode="&#x2211;" horiz-adv-x="591" d="M543 701 L543 715 L41 715 L41 701 L349 322 L40 -86 L40 -100 L553 -100 L553 -86 L60 -86 L365 317 L365 327 L61 701 L543 701 Z " />
<glyph glyph-name="minus" unicode="&#x2212;" horiz-adv-x="536" d="M53 320 L483 320 L483 335 L53 335 L53 320 Z " />
<glyph glyph-name="uni2215" unicode="&#x2215;" horiz-adv-x="148" d="M309 715 L-178 0 L-161 0 L326 715 L309 715 Z " />
<glyph glyph-name="uni2219" unicode="&#x2219;" horiz-adv-x="105" d="M64 341 L47 341 L47 286 L64 286 L64 341 Z " />
<glyph glyph-name="radical" unicode="&#x221a;" horiz-adv-x="550" d="M14 280 L96 280 L247 -100 L262 -100 L540 715 L524 715 L298 51 L254 -78 L202 54 L108 294 L14 294 L14 280 Z " />
<glyph glyph-name="infinity" unicode="&#x221e;" horiz-adv-x="700" d="M35 304 C35 229 75 139 179 139 C258 139 300 188 355 288 C396 210 448 139 526 139 C627 139 665 226 665 304 C665 386 626 468 523 468 C445 468 403 407 356 319 C314 399 258 468 177 468 C74 468 35 379 35 304 L35 304 Z M50 304 C50 373 83 454 177 454 C250 454 303 390 348 303 C294 202 251 153 179 153 C85 153 50 235 50 304 L50 304 Z M523 454 C616 454 650 381 650 304 C650 235 617 153 526 153 C455 153 407 218 363 304 C413 397 452 454 523 454 L523 454 Z " />
<glyph glyph-name="integral" unicode="&#x222b;" horiz-adv-x="321" d="M-10 -162 C10 -170 30 -173 58 -173 C136 -173 157 -136 157 -52 L157 616 C157 695 179 724 244 724 C267 724 287 722 307 714 L309 714 L309 728 C290 735 271 738 244 738 C172 738 143 706 143 618 L143 -52 C143 -126 128 -159 58 -159 C30 -159 11 -156 -9 -147 L-10 -147 L-10 -162 Z " />
<glyph glyph-name="approxequal" unicode="&#x2248;" horiz-adv-x="535" d="M391 201 C446 201 478 234 482 290 L468 290 C464 243 440 215 391 215 C304 215 214 292 127 292 C71 292 40 259 36 203 L50 203 C54 251 78 278 127 278 C206 278 303 201 391 201 L391 201 Z M391 333 C446 333 478 366 482 422 L468 422 C464 375 440 347 391 347 C304 347 214 424 127 424 C71 424 40 391 36 335 L50 335 C54 383 78 410 127 410 C206 410 303 333 391 333 L391 333 Z " />
<glyph glyph-name="notequal" unicode="&#x2260;" horiz-adv-x="532" d="M53 374 L287 374 L226 253 L53 253 L53 239 L219 239 L155 111 L170 111 L234 239 L479 239 L479 253 L241 253 L302 374 L479 374 L479 388 L309 388 L367 502 L352 502 L294 388 L53 388 L53 374 Z " />
<glyph glyph-name="lessequal" unicode="&#x2264;" horiz-adv-x="497" d="M443 155 L68 318 L443 482 L443 497 L50 324 L50 312 L443 140 L443 155 Z M50 0 L443 0 L443 14 L50 14 L50 0 Z " />
<glyph glyph-name="greaterequal" unicode="&#x2265;" horiz-adv-x="497" d="M54 140 L447 312 L447 324 L54 497 L54 482 L429 318 L54 155 L54 140 Z M447 14 L54 14 L54 0 L447 0 L447 14 Z " />
<glyph glyph-name="uni24C5" unicode="&#x24c5;" horiz-adv-x="800" d="M400 -11 C603 -11 760 149 760 355 C760 561 603 722 400 722 C197 722 40 561 40 355 C40 149 197 -11 400 -11 L400 -11 Z M400 3 C205 3 54 157 54 355 C54 554 205 708 400 708 C595 708 746 554 746 355 C746 157 595 3 400 3 L400 3 Z M298 151 L298 336 L436 336 C527 336 570 378 570 450 C570 484 559 510 540 529 C516 552 483 563 440 563 L284 563 L284 151 L298 151 Z M298 350 L298 549 L441 549 C510 549 555 513 555 450 C555 388 517 350 437 350 L298 350 Z " />
<glyph glyph-name="lozenge" unicode="&#x25ca;" horiz-adv-x="484" d="M26 360 L237 0 L251 0 L458 360 L249 715 L235 715 L26 360 Z M242 700 L440 360 L244 15 L44 360 L242 700 Z " />
<glyph glyph-name="uniF8FF" unicode="&#xf8ff;" horiz-adv-x="846" d="M65 0 L781 0 L781 716 L65 716 L65 0 Z M183 431 L351 431 L351 594 L495 594 L495 431 L663 431 L663 287 L495 287 L495 118 L351 118 L351 287 L183 287 L183 431 Z " />
<glyph glyph-name="f_f" unicode="&#xfb00;" horiz-adv-x="435" d="M232 714 C213 715 207 715 191 715 C129 715 92 688 92 609 L92 517 L22 517 L22 503 L92 503 L92 0 L107 0 L107 503 L272 503 L272 0 L287 0 L287 503 L411 503 L411 517 L287 517 L287 614 C287 687 320 707 371 707 C390 707 393 707 412 706 L412 720 C393 721 387 721 371 721 C309 721 272 694 272 615 L272 517 L107 517 L107 608 C107 681 140 701 191 701 C210 701 213 701 232 700 L232 714 Z " />
<glyph glyph-name="fi" unicode="&#xfb01;" horiz-adv-x="370" d="M232 720 C213 721 207 721 191 721 C129 721 92 694 92 615 L92 517 L22 517 L22 503 L92 503 L92 0 L107 0 L107 503 L231 503 L231 517 L107 517 L107 614 C107 687 140 707 191 707 C210 707 213 707 232 706 L232 720 Z M315 517 L300 517 L300 0 L315 0 L315 517 Z M315 706 L300 706 L300 650 L315 650 L315 706 Z " />
<glyph glyph-name="fl" unicode="&#xfb02;" horiz-adv-x="373" d="M232 720 C213 721 207 721 191 721 C129 721 92 694 92 615 L92 517 L22 517 L22 503 L92 503 L92 0 L107 0 L107 503 L231 503 L231 517 L107 517 L107 614 C107 687 140 707 191 707 C210 707 213 707 232 706 L232 720 Z M315 715 L300 715 L300 0 L315 0 L315 715 Z " />
<glyph glyph-name="f_f_i" unicode="&#xfb03;" horiz-adv-x="550" d="M232 714 C213 715 207 715 191 715 C129 715 92 688 92 609 L92 517 L22 517 L22 503 L92 503 L92 0 L107 0 L107 503 L272 503 L272 0 L287 0 L287 503 L411 503 L411 517 L287 517 L287 614 C287 687 320 707 371 707 C390 707 393 707 412 706 L412 720 C393 721 387 721 371 721 C309 721 272 694 272 615 L272 517 L107 517 L107 608 C107 681 140 701 191 701 C210 701 213 701 232 700 L232 714 Z M495 517 L480 517 L480 0 L495 0 L495 517 Z M495 706 L480 706 L480 650 L495 650 L495 706 Z " />
<glyph glyph-name="f_f_l" unicode="&#xfb04;" horiz-adv-x="553" d="M411 517 L287 517 L287 614 C287 687 320 707 371 707 C390 707 393 707 412 706 L412 720 C393 721 387 721 371 721 C309 721 272 694 272 615 L272 517 L107 517 L107 608 C107 681 140 701 191 701 C210 701 213 701 232 700 L232 714 C213 715 207 715 191 715 C129 715 92 688 92 609 L92 517 L22 517 L22 503 L92 503 L92 0 L107 0 L107 503 L272 503 L272 0 L287 0 L287 503 L411 503 L411 517 Z M495 715 L480 715 L480 0 L495 0 L495 715 Z " />
</font>
</svg>
