<?xml version="1.0" encoding="UTF-8"?>
<svg xmlns="http://www.w3.org/2000/svg" xmlns:xlink="http://www.w3.org/1999/xlink" version="1.2" >
<font id="Haas Grot Disp 75 Bold">
<font-face  font-family="Haas Grot Disp" units-per-em="1000" ascent="818" descent="-182" font-style="normal" font-weight="700" font-stretch="normal" cap-height="715" x-height="512" underline-position="-75" underline-thickness="50" />
<missing-glyph  horiz-adv-x="500" d="" />
<glyph glyph-name="NULL" d="" />
<glyph glyph-name="CR" unicode="&#xd;" horiz-adv-x="250" d="" />
<glyph glyph-name="space" unicode="&#x20;" horiz-adv-x="155" d="" />
<glyph glyph-name="exclam" unicode="&#x21;" horiz-adv-x="264" d="M90 234 L174 234 L216 546 L216 715 L48 715 L48 546 L90 234 Z M47 0 L217 0 L217 168 L47 168 L47 0 Z " />
<glyph glyph-name="quotedbl" unicode="&#x22;" horiz-adv-x="425" d="M41 446 L182 446 L182 715 L41 715 L41 446 Z M243 446 L384 446 L384 715 L243 715 L243 446 Z " />
<glyph glyph-name="numbersign" unicode="&#x23;" horiz-adv-x="600" d="M89 0 L193 0 L221 173 L324 173 L296 0 L400 0 L428 173 L520 173 L541 299 L449 299 L465 399 L558 399 L580 525 L486 525 L513 686 L409 686 L382 525 L279 525 L306 686 L202 686 L175 525 L83 525 L61 399 L154 399 L138 299 L46 299 L24 173 L117 173 L89 0 Z M242 299 L258 399 L361 399 L345 299 L242 299 Z " />
<glyph glyph-name="dollar" unicode="&#x24;" horiz-adv-x="623" d="M281 -103 L342 -103 L342 -14 C485 -7 593 68 593 203 C593 340 494 388 342 423 L342 569 C387 560 414 534 421 485 L578 485 C571 618 482 688 342 698 L342 760 L281 760 L281 699 C141 693 35 626 35 497 C35 348 145 316 281 281 L281 119 C221 128 189 160 182 221 L16 221 C19 79 116 -3 281 -13 L281 -103 Z M281 439 C224 455 199 470 199 507 C199 541 228 566 281 571 L281 439 Z M342 119 L342 263 C397 247 426 231 426 190 C426 147 388 125 342 119 L342 119 Z " />
<glyph glyph-name="percent" unicode="&#x25;" horiz-adv-x="868" d="M203 386 C161 386 143 433 143 499 C143 566 161 615 203 615 C245 615 263 566 263 499 C263 432 245 386 203 386 L203 386 Z M203 299 C309 299 386 378 386 499 C386 621 311 700 203 700 C97 700 20 621 20 499 C20 378 98 299 203 299 L203 299 Z M203 0 L296 0 L666 686 L572 686 L203 0 Z M666 70 C623 70 606 117 606 184 C606 251 623 299 666 299 C707 299 726 250 726 184 C726 117 708 70 666 70 L666 70 Z M665 -17 C772 -17 849 62 849 184 C849 306 774 384 665 384 C560 384 482 305 482 184 C482 62 560 -17 665 -17 L665 -17 Z " />
<glyph glyph-name="ampersand" unicode="&#x26;" horiz-adv-x="697" d="M276 -12 C344 -12 407 10 461 45 L496 0 L695 0 L572 154 C616 217 643 289 650 358 L509 358 C504 328 494 296 482 268 L396 376 C469 411 528 458 528 547 C528 653 443 719 326 719 C202 719 125 644 125 545 C125 490 146 448 180 407 C92 366 22 307 22 198 C22 79 110 -12 276 -12 L276 -12 Z M283 119 C230 119 191 152 191 202 C191 243 209 277 259 307 L380 150 C351 130 318 119 283 119 L283 119 Z M326 460 C298 485 276 514 276 546 C276 578 297 601 330 601 C361 601 383 577 383 546 C383 513 367 484 326 460 L326 460 Z " />
<glyph glyph-name="quotesingle" unicode="&#x27;" horiz-adv-x="223" d="M41 446 L182 446 L182 715 L41 715 L41 446 Z " />
<glyph glyph-name="parenleft" unicode="&#x28;" horiz-adv-x="341" d="M187 -138 L324 -138 C270 -28 218 114 218 295 C218 492 264 638 324 754 L186 754 C116 650 57 486 57 295 C57 115 118 -33 187 -138 L187 -138 Z " />
<glyph glyph-name="parenright" unicode="&#x29;" horiz-adv-x="341" d="M17 -138 L154 -138 C225 -31 284 131 284 318 C284 502 222 653 155 754 L17 754 C73 646 123 506 123 318 C123 128 75 -19 17 -138 L17 -138 Z " />
<glyph glyph-name="asterisk" unicode="&#x2a;" horiz-adv-x="441" d="M148 353 L222 457 L296 353 L368 407 L294 505 L411 544 L379 627 L268 588 L268 715 L174 715 L174 588 L63 627 L31 544 L148 505 L74 407 L148 353 Z " />
<glyph glyph-name="plus" unicode="&#x2b;" horiz-adv-x="566" d="M213 79 L353 79 L353 264 L526 264 L526 395 L353 395 L353 579 L213 579 L213 395 L40 395 L40 264 L213 264 L213 79 Z " />
<glyph glyph-name="comma" unicode="&#x2c;" horiz-adv-x="235" d="M34 -179 C81 -176 125 -157 156 -124 C186 -92 203 -50 203 13 L203 168 L32 168 L32 0 L112 0 C112 -57 82 -97 34 -110 L34 -179 Z " />
<glyph glyph-name="hyphen" unicode="&#x2d;" horiz-adv-x="335" d="M32 181 L304 181 L304 321 L32 321 L32 181 Z " />
<glyph glyph-name="period" unicode="&#x2e;" horiz-adv-x="235" d="M32 0 L203 0 L203 168 L32 168 L32 0 Z " />
<glyph glyph-name="slash" unicode="&#x2f;" horiz-adv-x="437" d="M12 0 L152 0 L419 715 L279 715 L12 0 Z " />
<glyph glyph-name="zero" unicode="0" horiz-adv-x="653" d="M327 116 C235 116 197 208 197 342 C197 476 235 569 327 569 C419 569 456 475 456 342 C456 207 420 116 327 116 L327 116 Z M326 -16 C508 -16 630 124 630 342 C630 560 511 700 327 700 C147 700 24 560 24 342 C24 124 148 -16 326 -16 L326 -16 Z " />
<glyph glyph-name="one" unicode="1" horiz-adv-x="406" d="M173 0 L342 0 L342 691 L208 691 C191 598 117 555 26 552 L26 438 L173 438 L173 0 Z " />
<glyph glyph-name="two" unicode="2" horiz-adv-x="581" d="M22 0 L554 0 L554 139 L256 139 L256 140 C304 191 378 233 439 283 C500 330 553 385 553 480 C553 601 464 699 299 699 C192 699 118 661 79 605 C46 560 32 511 32 431 L190 431 C191 478 201 509 221 532 C238 553 263 563 295 563 C353 563 384 527 384 474 C384 440 367 414 339 389 C285 341 205 291 143 238 C75 181 24 115 22 0 L22 0 Z " />
<glyph glyph-name="three" unicode="3" horiz-adv-x="599" d="M306 -16 C450 -16 577 52 577 199 C577 291 528 344 453 367 L453 369 C514 393 557 436 557 506 C557 627 454 699 303 699 C133 699 38 604 35 468 L192 468 C196 527 228 573 301 573 C358 573 391 542 391 495 C391 443 349 415 285 415 L248 415 L248 298 L289 298 C364 298 406 268 406 208 C406 151 368 113 299 113 C213 113 177 164 173 237 L14 237 C14 158 40 94 90 50 C138 7 209 -16 306 -16 L306 -16 Z " />
<glyph glyph-name="four" unicode="4" horiz-adv-x="620" d="M340 0 L504 0 L504 152 L603 152 L603 280 L504 280 L504 692 L338 692 L21 307 L21 152 L340 152 L340 0 Z M148 280 L148 282 L338 515 L340 515 L340 280 L148 280 Z " />
<glyph glyph-name="five" unicode="5" horiz-adv-x="603" d="M303 -16 C467 -16 580 82 580 234 C580 379 475 469 344 469 C282 469 236 451 211 428 L209 428 L233 550 L537 550 L537 685 L112 685 L42 306 L200 306 C218 329 254 348 298 348 C364 348 410 305 410 235 C410 166 367 118 299 118 C238 118 189 147 178 205 L13 205 C29 59 146 -16 303 -16 L303 -16 Z " />
<glyph glyph-name="six" unicode="6" horiz-adv-x="618" d="M326 -16 C483 -16 598 82 598 228 C598 375 483 471 351 471 C277 471 231 445 194 406 L192 406 C197 516 243 579 327 579 C383 579 407 550 417 516 L578 516 C557 627 467 699 325 699 C227 699 157 667 108 611 C49 544 24 449 25 337 C26 133 125 -16 326 -16 L326 -16 Z M320 110 C250 110 201 159 201 227 C201 296 247 347 320 347 C389 347 438 295 438 227 C438 160 389 110 320 110 L320 110 Z " />
<glyph glyph-name="seven" unicode="7" horiz-adv-x="545" d="M112 0 L288 0 C295 235 404 434 524 555 L524 685 L17 685 L17 542 L347 542 L347 540 C250 441 121 249 112 0 L112 0 Z " />
<glyph glyph-name="eight" unicode="8" horiz-adv-x="609" d="M306 -16 C475 -16 591 66 591 200 C591 279 548 342 472 371 L472 374 C528 404 562 451 562 511 C562 627 464 699 305 699 C147 699 47 622 47 508 C47 445 78 399 138 370 L138 367 C64 335 19 274 19 196 C19 66 136 -16 306 -16 L306 -16 Z M305 109 C234 109 186 147 186 207 C186 268 235 309 306 309 C378 309 423 268 423 207 C423 148 375 109 305 109 L305 109 Z M304 416 C241 416 203 451 203 500 C203 549 241 583 304 583 C367 583 406 549 406 500 C406 451 367 416 304 416 L304 416 Z " />
<glyph glyph-name="nine" unicode="9" horiz-adv-x="617" d="M302 -16 C402 -16 473 18 522 81 C571 145 593 241 593 347 C593 472 564 563 503 622 C455 671 382 699 297 699 C137 699 21 601 21 455 C21 308 133 213 271 213 C342 213 389 242 424 280 L426 280 C424 219 411 173 387 144 C366 117 336 105 298 105 C241 105 212 136 202 170 L42 170 C61 60 154 -16 302 -16 L302 -16 Z M301 337 C227 337 181 388 181 456 C181 523 230 574 301 574 C372 574 423 524 423 455 C423 386 371 337 301 337 L301 337 Z " />
<glyph glyph-name="colon" unicode="&#x3a;" horiz-adv-x="241" d="M35 0 L206 0 L206 168 L35 168 L35 0 Z M35 310 L206 310 L206 478 L35 478 L35 310 Z " />
<glyph glyph-name="semicolon" unicode="&#x3b;" horiz-adv-x="241" d="M37 -179 C84 -176 128 -157 159 -124 C189 -92 206 -50 206 13 L206 168 L35 168 L35 0 L115 0 C115 -57 85 -97 37 -110 L37 -179 Z M35 310 L206 310 L206 478 L35 478 L35 310 Z " />
<glyph glyph-name="less" unicode="&#x3c;" horiz-adv-x="502" d="M455 62 L455 211 L272 277 C235 290 177 306 177 306 L177 308 C177 308 236 328 272 342 L455 413 L455 556 L43 383 L43 235 L455 62 Z " />
<glyph glyph-name="equal" unicode="&#x3d;" horiz-adv-x="563" d="M51 140 L519 140 L519 267 L51 267 L51 140 Z M51 352 L519 352 L519 479 L51 479 L51 352 Z " />
<glyph glyph-name="greater" unicode="&#x3e;" horiz-adv-x="502" d="M47 62 L459 235 L459 383 L47 556 L47 408 L230 342 C267 329 325 312 325 312 L325 310 C325 310 266 291 230 277 L47 206 L47 62 Z " />
<glyph glyph-name="question" unicode="&#x3f;" horiz-adv-x="553" d="M191 234 L335 234 C335 266 340 284 354 302 C370 321 396 335 438 362 C482 391 532 430 532 524 C532 645 432 728 283 728 C116 728 17 631 14 490 L175 490 C175 554 216 593 276 593 C324 593 361 565 361 518 C361 457 304 442 260 401 C212 361 191 336 191 234 L191 234 Z M175 0 L346 0 L346 168 L175 168 L175 0 Z " />
<glyph glyph-name="at" unicode="&#x40;" horiz-adv-x="909" d="M447 -109 C522 -109 594 -96 658 -66 L626 13 C573 -9 511 -24 448 -24 C246 -24 136 106 136 284 C136 502 289 628 472 628 C654 628 782 533 782 337 C782 208 731 164 689 164 C655 164 644 189 650 236 L682 507 L545 507 L538 446 L536 446 C517 491 482 518 425 518 C304 518 230 417 230 277 C230 157 293 81 394 81 C453 81 498 110 527 159 L529 159 C551 104 604 78 676 78 C795 78 879 172 879 339 C879 581 691 714 473 714 C250 714 35 561 35 283 C35 45 210 -109 447 -109 L447 -109 Z M437 189 C394 189 375 229 375 281 C375 354 407 412 460 412 C502 412 525 372 525 320 C525 243 490 189 437 189 L437 189 Z " />
<glyph glyph-name="A" unicode="A" horiz-adv-x="697" d="M-1 0 L177 0 L218 129 L468 129 L510 0 L696 0 L438 715 L256 715 L-1 0 Z M259 256 L314 429 C326 466 343 530 343 530 L345 530 C345 530 361 466 373 429 L427 256 L259 256 Z " />
<glyph glyph-name="B" unicode="B" horiz-adv-x="671" d="M49 0 L402 0 C477 0 536 18 578 51 C625 87 651 139 651 211 C651 296 601 362 523 386 L523 389 C586 413 623 458 623 529 C623 586 602 632 561 666 C523 697 468 715 394 715 L49 715 L49 0 Z M224 142 L224 312 L380 312 C434 312 476 283 476 226 C476 175 440 142 382 142 L224 142 Z M224 432 L224 575 L369 575 C421 575 454 549 454 504 C454 457 419 432 368 432 L224 432 Z " />
<glyph glyph-name="C" unicode="C" horiz-adv-x="702" d="M373 -16 C474 -16 547 12 602 65 C651 112 683 177 688 248 L511 248 C503 179 451 129 372 129 C266 129 200 224 200 355 C200 485 255 582 371 582 C447 582 497 533 506 469 L683 469 C674 549 638 619 576 666 C525 705 455 729 372 729 C159 729 20 568 20 355 C20 141 163 -16 373 -16 L373 -16 Z " />
<glyph glyph-name="D" unicode="D" horiz-adv-x="705" d="M226 149 L226 567 L332 567 C443 567 506 483 506 353 C506 222 446 149 330 149 L226 149 Z M49 0 L343 0 C433 0 505 23 561 65 C641 126 685 227 685 353 C685 572 552 715 354 715 L49 715 L49 0 Z " />
<glyph glyph-name="E" unicode="E" horiz-adv-x="628" d="M49 0 L597 0 L597 150 L226 150 L226 303 L539 303 L539 441 L226 441 L226 569 L591 569 L591 715 L49 715 L49 0 Z " />
<glyph glyph-name="F" unicode="F" horiz-adv-x="602" d="M49 0 L226 0 L226 278 L523 278 L523 421 L226 421 L226 566 L581 566 L581 715 L49 715 L49 0 Z " />
<glyph glyph-name="G" unicode="G" horiz-adv-x="737" d="M361 -16 C447 -16 517 13 564 86 L566 86 L576 0 L700 0 L700 384 L402 384 L402 254 L536 254 L536 252 C529 189 474 127 381 127 C269 127 201 224 201 355 C201 485 260 583 378 583 C456 583 504 539 517 481 L689 481 C666 631 556 729 372 729 C269 729 186 694 127 634 C59 566 21 467 21 355 C21 246 55 152 117 84 C176 20 259 -16 361 -16 L361 -16 Z " />
<glyph glyph-name="H" unicode="H" horiz-adv-x="703" d="M49 0 L226 0 L226 298 L477 298 L477 0 L654 0 L654 715 L477 715 L477 444 L226 444 L226 715 L49 715 L49 0 Z " />
<glyph glyph-name="I" unicode="I" horiz-adv-x="276" d="M50 0 L227 0 L227 715 L50 715 L50 0 Z " />
<glyph glyph-name="J" unicode="J" horiz-adv-x="545" d="M263 -13 C347 -13 412 14 452 58 C487 97 503 149 503 213 L503 715 L326 715 L326 217 C326 165 304 133 252 133 C203 133 174 158 174 219 L174 278 L13 278 L13 215 C13 79 94 -13 263 -13 L263 -13 Z " />
<glyph glyph-name="K" unicode="K" horiz-adv-x="697" d="M49 0 L226 0 L226 246 L286 309 L492 0 L698 0 L408 428 L682 715 L472 715 L226 456 L226 715 L49 715 L49 0 Z " />
<glyph glyph-name="L" unicode="L" horiz-adv-x="565" d="M49 0 L547 0 L547 150 L226 150 L226 715 L49 715 L49 0 Z " />
<glyph glyph-name="M" unicode="M" horiz-adv-x="834" d="M49 0 L208 0 L208 359 C208 388 205 503 205 503 L207 503 C207 503 232 395 240 369 L342 0 L488 0 L591 370 C599 396 624 503 624 503 L626 503 C626 503 623 389 623 360 L623 0 L785 0 L785 715 L545 715 L457 402 C445 357 417 239 417 239 L415 239 C415 239 387 357 374 402 L287 715 L49 715 L49 0 Z " />
<glyph glyph-name="N" unicode="N" horiz-adv-x="710" d="M49 0 L222 0 L222 333 C222 358 220 450 220 450 L222 450 C222 450 261 373 273 354 L483 0 L661 0 L661 715 L488 715 L488 376 C488 351 490 265 490 265 L488 265 C488 265 450 336 439 356 L227 715 L49 715 L49 0 Z " />
<glyph glyph-name="O" unicode="O" horiz-adv-x="747" d="M374 127 C259 127 200 226 200 356 C200 486 259 586 374 586 C490 586 547 486 547 356 C547 226 490 127 374 127 L374 127 Z M373 -17 C590 -17 727 142 727 356 C727 570 590 729 373 729 C157 729 20 570 20 356 C20 142 157 -17 373 -17 L373 -17 Z " />
<glyph glyph-name="P" unicode="P" horiz-adv-x="652" d="M49 0 L229 0 L229 239 L396 239 C543 239 638 336 638 473 C638 545 612 606 566 649 C522 691 458 715 371 715 L49 715 L49 0 Z M229 379 L229 566 L360 566 C423 566 460 531 460 474 C460 417 424 379 360 379 L229 379 Z " />
<glyph glyph-name="Q" unicode="Q" horiz-adv-x="745" d="M373 127 C258 127 200 226 200 356 C200 486 258 586 373 586 C489 586 545 486 545 356 C545 306 537 261 520 224 L454 287 L372 202 L437 139 C418 131 397 127 373 127 L373 127 Z M642 -58 L724 29 L643 105 C696 170 725 257 725 356 C725 570 589 729 372 729 C156 729 20 570 20 356 C20 142 156 -17 372 -17 C441 -17 501 -1 552 28 L642 -58 Z " />
<glyph glyph-name="R" unicode="R" horiz-adv-x="671" d="M49 0 L226 0 L226 268 L333 268 C409 268 443 232 452 166 C463 95 460 11 479 0 L651 0 L651 9 C626 18 636 108 621 202 C611 273 579 312 517 333 L517 336 C600 365 641 426 641 509 C641 642 533 715 391 715 L49 715 L49 0 Z M226 399 L226 575 L363 575 C431 575 465 538 465 486 C465 432 429 399 359 399 L226 399 Z " />
<glyph glyph-name="S" unicode="S" horiz-adv-x="650" d="M334 -17 C499 -17 627 66 627 216 C627 369 507 410 374 441 C267 465 212 477 212 527 C212 567 253 594 315 594 C381 594 423 563 430 508 L603 508 C596 658 476 728 321 728 C161 728 37 661 37 508 C37 358 168 320 292 291 C390 267 448 255 448 198 C448 144 391 123 333 123 C248 123 201 153 193 225 L15 225 C19 67 144 -17 334 -17 L334 -17 Z " />
<glyph glyph-name="T" unicode="T" horiz-adv-x="629" d="M225 0 L402 0 L402 565 L612 565 L612 715 L17 715 L17 565 L225 565 L225 0 Z " />
<glyph glyph-name="U" unicode="U" horiz-adv-x="686" d="M344 -13 C543 -13 642 87 642 252 L642 715 L465 715 L465 249 C465 179 426 129 344 129 C257 129 221 176 221 246 L221 715 L44 715 L44 252 C44 85 144 -13 344 -13 L344 -13 Z " />
<glyph glyph-name="V" unicode="V" horiz-adv-x="651" d="M234 0 L417 0 L652 715 L473 715 L362 340 C347 287 329 214 329 214 L327 214 C327 214 310 286 294 340 L182 715 L-2 715 L234 0 Z " />
<glyph glyph-name="W" unicode="W" horiz-adv-x="940" d="M196 0 L370 0 L445 343 C457 400 469 476 469 476 L471 476 C471 476 483 400 496 343 L571 0 L744 0 L940 715 L762 715 L691 417 C675 346 655 238 655 238 L653 238 C653 238 635 337 619 410 L552 715 L388 715 L321 408 C305 336 286 238 286 238 L284 238 C284 238 267 346 251 415 L179 715 L0 715 L196 0 Z " />
<glyph glyph-name="X" unicode="X" horiz-adv-x="691" d="M3 0 L204 0 L343 242 L345 242 L479 0 L688 0 L451 377 L663 715 L471 715 L348 507 L346 507 L225 715 L23 715 L240 375 L3 0 Z " />
<glyph glyph-name="Y" unicode="Y" horiz-adv-x="663" d="M243 0 L420 0 L420 264 L662 715 L475 715 L384 530 C360 481 335 421 335 421 L333 421 C333 421 310 481 286 530 L194 715 L1 715 L243 264 L243 0 Z " />
<glyph glyph-name="Z" unicode="Z" horiz-adv-x="648" d="M26 0 L621 0 L621 151 L329 151 C307 151 250 149 250 149 L250 152 C250 152 291 197 308 216 L608 576 L608 715 L51 715 L51 565 L315 565 C331 565 383 567 383 567 L383 564 C383 564 347 525 335 511 L26 141 L26 0 Z " />
<glyph glyph-name="bracketleft" unicode="&#x5b;" horiz-adv-x="398" d="M58 -138 L365 -138 L365 -13 L212 -13 L212 629 L365 629 L365 754 L58 754 L58 -138 Z " />
<glyph glyph-name="backslash" unicode="&#x5c;" horiz-adv-x="437" d="M279 0 L419 0 L152 715 L12 715 L279 0 Z " />
<glyph glyph-name="bracketright" unicode="&#x5d;" horiz-adv-x="398" d="M34 -138 L341 -138 L341 754 L34 754 L34 629 L187 629 L187 -13 L34 -13 L34 -138 Z " />
<glyph glyph-name="asciicircum" unicode="&#x5e;" horiz-adv-x="466" d="M6 425 L147 425 L232 575 L233 575 L315 425 L460 425 L293 715 L173 715 L6 425 Z " />
<glyph glyph-name="underscore" unicode="&#x5f;" horiz-adv-x="430" d="M-3 -169 L433 -169 L433 -68 L-3 -68 L-3 -169 Z " />
<glyph glyph-name="grave" unicode="&#x60;" horiz-adv-x="500" d="M205 572 L329 572 L272 720 L84 720 L205 572 Z " />
<glyph glyph-name="a" unicode="a" horiz-adv-x="541" d="M190 -13 C267 -13 312 14 342 57 L344 57 C348 31 353 11 361 0 L519 0 L519 7 C505 16 501 39 501 80 L501 338 C501 402 480 452 436 484 C399 512 347 526 270 526 C115 526 42 445 38 350 L188 350 C193 393 219 416 271 416 C320 416 341 394 341 361 C341 326 307 316 211 304 C105 290 15 256 15 143 C15 42 88 -13 190 -13 L190 -13 Z M242 91 C202 91 172 107 172 148 C172 187 198 203 261 217 C294 225 324 233 345 244 L345 183 C345 128 303 91 242 91 L242 91 Z " />
<glyph glyph-name="b" unicode="b" horiz-adv-x="586" d="M352 -16 C484 -16 570 86 570 256 C570 410 484 527 351 527 C281 527 237 498 205 454 L202 454 L202 715 L39 715 L39 0 L195 0 L195 65 L197 65 C229 12 284 -16 352 -16 L352 -16 Z M306 113 C239 113 197 171 197 256 C197 340 232 403 304 403 C370 403 405 345 405 257 C405 168 370 113 306 113 L306 113 Z " />
<glyph glyph-name="c" unicode="c" horiz-adv-x="544" d="M288 -16 C433 -16 527 76 531 194 L375 194 C368 136 337 106 286 106 C216 106 181 164 181 255 C181 348 216 406 286 406 C332 406 360 376 370 330 L527 330 C512 445 423 526 284 526 C122 526 16 409 16 255 C16 101 123 -16 288 -16 L288 -16 Z " />
<glyph glyph-name="d" unicode="d" horiz-adv-x="588" d="M240 -16 C307 -16 360 16 391 69 L393 69 L393 0 L549 0 L549 715 L386 715 L386 454 L383 454 C353 497 312 527 240 527 C108 527 16 416 16 256 C16 85 109 -16 240 -16 L240 -16 Z M282 113 C219 113 181 169 181 258 C181 344 219 404 284 404 C355 404 390 342 390 256 C390 172 350 113 282 113 L282 113 Z " />
<glyph glyph-name="e" unicode="e" horiz-adv-x="560" d="M289 -15 C354 -15 406 2 449 32 C494 63 524 107 535 153 L376 153 C362 121 334 102 291 102 C224 102 186 145 176 214 L544 214 C545 318 515 407 454 463 C410 503 352 527 279 527 C123 527 16 410 16 257 C16 102 120 -15 289 -15 L289 -15 Z M177 311 C188 372 220 411 282 411 C335 411 373 372 379 311 L177 311 Z " />
<glyph glyph-name="f" unicode="f" horiz-adv-x="349" d="M77 0 L240 0 L240 408 L336 408 L336 512 L240 512 L240 537 C240 594 274 599 336 597 L336 712 C248 721 163 711 119 668 C92 641 77 602 77 549 L77 512 L11 512 L11 408 L77 408 L77 0 Z " />
<glyph glyph-name="g" unicode="g" horiz-adv-x="572" d="M277 -177 C353 -177 420 -160 465 -120 C506 -83 533 -27 533 50 L533 512 L377 512 L377 457 L375 457 C345 500 299 527 231 527 C104 527 16 421 16 271 C16 114 123 28 238 28 C300 28 339 53 369 87 L373 87 L373 36 C373 -26 344 -62 275 -62 C221 -62 194 -39 185 -12 L27 -12 C43 -119 136 -177 277 -177 L277 -177 Z M276 149 C215 149 175 199 175 276 C175 354 215 404 276 404 C344 404 380 346 380 277 C380 205 347 149 276 149 L276 149 Z " />
<glyph glyph-name="h" unicode="h" horiz-adv-x="570" d="M39 0 L202 0 L202 283 C202 346 238 391 292 391 C345 391 372 354 372 300 L372 0 L535 0 L535 333 C535 447 469 527 357 527 C286 527 242 498 205 449 L202 449 L202 715 L39 715 L39 0 Z " />
<glyph glyph-name="i" unicode="i" horiz-adv-x="241" d="M39 0 L202 0 L202 512 L39 512 L39 0 Z M39 583 L202 583 L202 715 L39 715 L39 583 Z " />
<glyph glyph-name="j" unicode="j" horiz-adv-x="241" d="M45 -172 C94 -172 134 -161 163 -132 C187 -107 202 -72 202 -4 L202 512 L39 512 L39 4 C39 -51 10 -51 -47 -51 L-47 -164 C-22 -169 17 -172 45 -172 L45 -172 Z M39 583 L202 583 L202 715 L39 715 L39 583 Z " />
<glyph glyph-name="k" unicode="k" horiz-adv-x="560" d="M39 0 L200 0 L200 157 L249 209 L372 0 L561 0 L360 320 L540 512 L352 512 L200 339 L200 715 L39 715 L39 0 Z " />
<glyph glyph-name="l" unicode="l" horiz-adv-x="245" d="M40 0 L205 0 L205 715 L40 715 L40 0 Z " />
<glyph glyph-name="m" unicode="m" horiz-adv-x="869" d="M39 0 L202 0 L202 287 C202 348 232 391 283 391 C332 391 355 359 355 304 L355 0 L518 0 L518 287 C518 348 547 391 599 391 C648 391 671 359 671 304 L671 0 L834 0 L834 333 C834 448 776 527 660 527 C594 527 539 499 499 437 L497 437 C471 492 420 527 353 527 C279 527 230 492 198 439 L195 439 L195 512 L39 512 L39 0 Z " />
<glyph glyph-name="n" unicode="n" horiz-adv-x="570" d="M39 0 L202 0 L202 283 C202 346 238 391 292 391 C345 391 372 354 372 300 L372 0 L535 0 L535 333 C535 447 469 527 357 527 C286 527 237 497 199 442 L196 442 L196 512 L39 512 L39 0 Z " />
<glyph glyph-name="o" unicode="o" horiz-adv-x="579" d="M289 100 C218 100 181 162 181 255 C181 348 218 411 289 411 C360 411 398 348 398 255 C398 162 360 100 289 100 L289 100 Z M290 -16 C455 -16 563 101 563 255 C563 409 455 526 290 526 C126 526 16 409 16 255 C16 101 126 -16 290 -16 L290 -16 Z " />
<glyph glyph-name="p" unicode="p" horiz-adv-x="588" d="M39 -169 L202 -169 L202 53 L204 53 C236 10 283 -16 349 -16 C483 -16 572 90 572 256 C572 410 489 527 353 527 C283 527 233 496 198 450 L195 450 L195 512 L39 512 L39 -169 Z M307 110 C237 110 197 167 197 250 C197 333 233 396 304 396 C374 396 407 338 407 250 C407 163 369 110 307 110 L307 110 Z " />
<glyph glyph-name="q" unicode="q" horiz-adv-x="588" d="M387 -169 L549 -169 L549 512 L394 512 L394 447 L391 447 C358 499 311 527 245 527 C102 527 20 410 20 256 C20 90 113 -16 242 -16 C308 -16 355 12 384 54 L387 54 L387 -169 Z M286 113 C222 113 185 164 185 252 C185 339 216 399 286 399 C356 399 392 335 392 252 C392 168 351 113 286 113 L286 113 Z " />
<glyph glyph-name="r" unicode="r" horiz-adv-x="383" d="M39 0 L202 0 L202 230 C202 341 266 390 366 376 L370 376 L370 516 C363 519 353 520 338 520 C276 520 234 493 198 432 L195 432 L195 512 L39 512 L39 0 Z " />
<glyph glyph-name="s" unicode="s" horiz-adv-x="504" d="M257 -16 C391 -16 490 42 490 154 C490 285 384 308 294 323 C229 335 171 340 171 376 C171 408 202 423 242 423 C287 423 318 409 324 363 L474 363 C466 464 388 527 243 527 C122 527 22 471 22 363 C22 243 117 219 206 204 C274 192 336 187 336 141 C336 108 305 90 256 90 C202 90 168 115 162 166 L8 166 C13 53 107 -16 257 -16 L257 -16 Z " />
<glyph glyph-name="t" unicode="t" horiz-adv-x="351" d="M242 -6 C286 -6 317 -2 331 2 L331 121 C325 121 309 120 295 120 C260 120 238 130 238 170 L238 410 L331 410 L331 512 L238 512 L238 674 L79 674 L79 512 L11 512 L11 410 L79 410 L79 135 C79 25 147 -6 242 -6 L242 -6 Z " />
<glyph glyph-name="u" unicode="u" horiz-adv-x="566" d="M215 -15 C286 -15 331 13 368 63 L371 63 L371 0 L527 0 L527 512 L364 512 L364 226 C364 165 330 123 274 123 C222 123 197 154 197 210 L197 512 L35 512 L35 176 C35 62 97 -15 215 -15 L215 -15 Z " />
<glyph glyph-name="v" unicode="v" horiz-adv-x="524" d="M174 0 L350 0 L527 512 L364 512 L293 281 C278 230 265 178 265 178 L263 178 C263 178 250 230 235 281 L165 512 L-3 512 L174 0 Z " />
<glyph glyph-name="w" unicode="w" horiz-adv-x="783" d="M155 0 L306 0 L367 232 C378 272 390 324 390 324 L392 324 C392 324 403 272 414 232 L474 0 L627 0 L784 512 L623 512 L566 300 C555 259 542 200 542 200 L540 200 C540 200 527 259 516 303 L460 512 L322 512 L268 303 C257 260 245 201 245 201 L243 201 C243 201 231 259 220 300 L164 512 L-2 512 L155 0 Z " />
<glyph glyph-name="x" unicode="x" horiz-adv-x="560" d="M7 0 L185 0 L278 153 L280 153 L364 0 L553 0 L379 271 L531 512 L360 512 L288 380 L286 380 L210 512 L24 512 L185 269 L7 0 Z " />
<glyph glyph-name="y" unicode="y" horiz-adv-x="529" d="M56 -169 L162 -169 C265 -169 314 -127 355 -7 L532 512 L369 512 L302 294 C286 244 272 176 272 176 L270 176 C270 176 254 244 238 294 L169 512 L-3 512 L148 118 C169 64 179 34 179 12 C179 -23 160 -42 112 -42 L56 -42 L56 -169 Z " />
<glyph glyph-name="z" unicode="z" horiz-adv-x="505" d="M24 0 L483 0 L483 126 L298 126 C275 126 222 125 222 125 L222 128 C222 128 259 166 274 181 L468 392 L468 512 L48 512 L48 387 L208 387 C224 387 271 388 271 388 L271 385 C271 385 240 353 227 340 L24 121 L24 0 Z " />
<glyph glyph-name="braceleft" unicode="&#x7b;" horiz-adv-x="398" d="M340 -138 L365 -138 L365 -13 L347 -13 C289 -13 263 -1 263 55 L263 201 C263 266 241 291 198 308 L198 311 C241 328 263 353 263 419 L263 562 C263 619 289 629 347 629 L365 629 L365 754 L340 754 C184 754 109 714 109 562 L109 444 C109 396 87 372 25 369 L25 249 C87 247 109 223 109 174 L109 56 C109 -97 184 -138 340 -138 L340 -138 Z " />
<glyph glyph-name="bar" unicode="&#x7c;" horiz-adv-x="214" d="M58 -138 L157 -138 L157 754 L58 754 L58 -138 Z " />
<glyph glyph-name="braceright" unicode="&#x7d;" horiz-adv-x="398" d="M34 -138 L59 -138 C214 -138 290 -97 290 55 L290 174 C290 223 312 246 373 249 L373 369 C312 372 290 395 290 444 L290 561 C290 713 214 754 59 754 L34 754 L34 629 L52 629 C109 629 136 617 136 561 L136 418 C136 352 157 328 201 310 L201 307 C157 290 136 265 136 200 L136 54 C136 -3 109 -13 52 -13 L34 -13 L34 -138 Z " />
<glyph glyph-name="asciitilde" unicode="&#x7e;" horiz-adv-x="443" d="M24 239 L126 239 C129 269 141 284 163 284 C181 284 198 276 226 263 C250 253 275 244 308 244 C386 244 426 308 426 414 L324 414 C322 386 313 372 288 372 C270 372 255 380 229 393 C205 404 181 414 149 414 C80 414 24 360 24 239 L24 239 Z " />
<glyph glyph-name="uni00A0" unicode="&#xa0;" horiz-adv-x="155" d="" />
<glyph glyph-name="exclamdown" unicode="&#xa1;" horiz-adv-x="264" d="M48 -127 L216 -127 L216 43 L174 355 L90 355 L48 43 L48 -127 Z M47 420 L217 420 L217 588 L47 588 L47 420 Z " />
<glyph glyph-name="cent" unicode="&#xa2;" horiz-adv-x="544" d="M251 -107 L312 -107 L312 -15 C441 -4 522 84 527 194 L376 194 C370 147 347 118 312 108 L312 402 C343 392 363 365 371 330 L523 330 C509 436 433 513 312 525 L312 594 L251 594 L251 524 C106 510 16 399 16 255 C16 112 106 1 251 -14 L251 -107 Z M251 109 C201 125 176 179 176 255 C176 332 202 386 251 402 L251 109 Z " />
<glyph glyph-name="sterling" unicode="&#xa3;" horiz-adv-x="591" d="M420 -15 C480 -15 539 12 578 46 L509 177 C488 158 455 137 417 137 C364 137 351 162 279 162 C250 162 227 155 207 147 L205 150 C253 184 280 225 280 273 C280 277 280 284 279 289 L384 289 L384 382 L249 382 C233 414 217 444 217 481 C217 532 247 567 308 567 C369 567 410 532 411 449 L573 449 C571 545 543 602 492 643 C445 681 383 699 305 699 C131 699 40 606 40 486 C40 443 52 411 68 382 L28 382 L28 289 L113 289 C116 276 118 263 118 249 C118 195 78 149 23 113 L104 -10 C137 14 169 34 210 34 C288 34 320 -15 420 -15 L420 -15 Z " />
<glyph glyph-name="currency" unicode="&#xa4;" horiz-adv-x="512" d="M98 98 L164 165 C191 152 221 146 256 146 C290 146 321 153 348 165 L414 98 L498 180 L433 245 C449 275 458 311 458 349 C458 388 449 423 432 453 L498 519 L414 601 L348 533 C321 546 290 553 256 553 C221 553 190 546 163 533 L98 601 L14 519 L78 453 C62 423 53 387 53 349 C53 310 62 274 78 244 L14 180 L98 98 Z M256 238 C199 238 167 282 167 349 C167 416 199 461 256 461 C312 461 342 416 342 349 C342 282 312 238 256 238 L256 238 Z " />
<glyph glyph-name="yen" unicode="&#xa5;" horiz-adv-x="646" d="M240 0 L403 0 L403 128 L571 128 L571 192 L403 192 L403 249 L571 249 L571 314 L427 314 L641 686 L458 686 L368 511 C346 467 324 415 324 415 L322 415 C322 415 301 467 279 511 L188 686 L1 686 L214 314 L71 314 L71 249 L240 249 L240 192 L71 192 L71 128 L240 128 L240 0 Z " />
<glyph glyph-name="brokenbar" unicode="&#xa6;" horiz-adv-x="214" d="M58 -138 L157 -138 L157 245 L58 245 L58 -138 Z M58 384 L157 384 L157 754 L58 754 L58 384 Z " />
<glyph glyph-name="section" unicode="&#xa7;" horiz-adv-x="625" d="M327 -181 C459 -181 553 -117 553 1 C553 62 525 101 489 127 C557 147 600 188 600 266 C600 370 504 413 401 455 C301 495 255 507 255 546 C255 574 276 595 323 595 C376 595 400 567 404 523 L545 523 C539 646 450 714 316 714 C188 714 98 646 98 547 C98 492 116 464 147 438 C74 417 29 367 29 297 C29 195 104 149 227 101 C339 58 394 48 394 1 C394 -32 366 -57 320 -57 C262 -57 228 -26 227 27 L78 27 C82 -102 174 -181 327 -181 L327 -181 Z M395 190 L305 230 C209 272 177 285 177 317 C177 342 193 359 224 367 C253 353 288 339 323 325 C398 295 447 277 447 241 C447 215 426 198 395 190 L395 190 Z " />
<glyph glyph-name="dieresis" unicode="&#xa8;" horiz-adv-x="500" d="M61 577 L214 577 L214 705 L61 705 L61 577 Z M286 577 L439 577 L439 705 L286 705 L286 577 Z " />
<glyph glyph-name="copyright" unicode="&#xa9;" horiz-adv-x="817" d="M412 135 C475 135 520 151 555 185 C585 214 606 256 610 302 L489 302 C485 267 459 238 414 238 C358 238 323 289 323 359 C323 428 352 480 412 480 C454 480 479 454 485 422 L605 422 C600 472 577 516 539 545 C506 569 464 584 413 584 C283 584 197 488 197 359 C197 230 283 135 412 135 L412 135 Z M409 35 C233 35 101 172 101 355 C101 539 233 676 409 676 C584 676 716 539 716 355 C716 172 584 35 409 35 L409 35 Z M409 -17 C615 -17 777 141 777 355 C777 569 615 728 409 728 C203 728 40 569 40 355 C40 141 203 -17 409 -17 L409 -17 Z " />
<glyph glyph-name="ordfeminine" unicode="&#xaa;" horiz-adv-x="510" d="M182 226 C248 226 290 249 316 286 L318 286 C321 264 327 246 333 236 L477 236 L477 243 C465 251 461 271 461 307 L461 534 C461 590 442 634 402 662 C369 687 322 699 253 699 C116 699 49 628 45 544 L182 544 C186 580 207 601 255 601 C299 601 315 582 315 554 C315 524 288 516 200 504 C102 491 25 462 25 363 C25 274 93 226 182 226 L182 226 Z M227 318 C193 318 167 333 167 368 C167 400 187 415 244 427 C274 434 301 441 319 451 L319 397 C319 349 280 318 227 318 L227 318 Z " />
<glyph glyph-name="guillemotleft" unicode="&#xab;" horiz-adv-x="440" d="M198 42 L198 182 L117 249 L117 251 L198 319 L198 461 L44 330 L44 174 L198 42 Z M389 42 L389 182 L310 249 L310 251 L389 319 L389 461 L238 330 L238 174 L389 42 Z " />
<glyph glyph-name="logicalnot" unicode="&#xac;" horiz-adv-x="524" d="M330 134 L469 134 L469 430 L40 430 L40 299 L330 299 L330 134 Z " />
<glyph glyph-name="uni00AD" unicode="&#xad;" horiz-adv-x="335" d="M32 181 L304 181 L304 321 L32 321 L32 181 Z " />
<glyph glyph-name="registered" unicode="&#xae;" horiz-adv-x="531" d="M160 360 L236 360 L236 450 L267 450 C290 450 301 441 304 419 C308 395 308 364 315 360 L389 360 L389 366 C379 371 383 402 377 433 C372 455 363 470 340 477 L340 479 C368 489 383 511 383 540 C383 590 338 616 286 616 L160 616 L160 360 Z M236 503 L236 557 L274 557 C298 557 308 548 308 530 C308 512 297 503 274 503 L236 503 Z M266 283 C155 283 72 369 72 486 C72 602 155 688 266 688 C377 688 459 602 459 486 C459 369 377 283 266 283 L266 283 Z M266 244 C400 244 505 347 505 486 C505 625 400 728 266 728 C132 728 26 625 26 486 C26 347 132 244 266 244 L266 244 Z " />
<glyph glyph-name="macron" unicode="&#xaf;" horiz-adv-x="500" d="M110 587 L396 587 L396 688 L110 688 L110 587 Z " />
<glyph glyph-name="degree" unicode="&#xb0;" horiz-adv-x="375" d="M188 478 C145 478 120 510 120 549 C120 587 145 622 188 622 C230 622 256 587 256 549 C256 510 230 478 188 478 L188 478 Z M188 400 C272 400 344 464 344 549 C344 633 272 700 188 700 C103 700 32 633 32 549 C32 464 103 400 188 400 L188 400 Z " />
<glyph glyph-name="plusminus" unicode="&#xb1;" horiz-adv-x="566" d="M215 168 L351 168 L351 309 L526 309 L526 439 L351 439 L351 579 L215 579 L215 439 L40 439 L40 309 L215 309 L215 168 Z M40 0 L526 0 L526 124 L40 124 L40 0 Z " />
<glyph glyph-name="twosuperior" unicode="&#xb2;" horiz-adv-x="398" d="M27 288 L363 288 L363 379 L191 379 L191 380 C215 406 268 424 309 458 C342 483 362 513 362 565 C362 634 306 693 204 693 C103 693 33 638 33 534 L143 534 C143 578 165 603 200 603 C232 603 245 586 245 561 C245 541 235 528 218 514 C185 489 143 469 101 434 C58 400 28 356 27 288 L27 288 Z " />
<glyph glyph-name="threesuperior" unicode="&#xb3;" horiz-adv-x="402" d="M204 279 C296 279 372 317 372 404 C372 456 342 486 302 501 L302 502 C335 517 360 541 360 579 C360 651 294 693 202 693 C97 693 38 636 35 561 L145 561 C147 588 160 611 198 611 C228 611 243 595 243 572 C243 544 222 531 185 531 L165 531 L165 455 L189 455 C228 455 251 442 251 410 C251 382 234 363 198 363 C153 363 138 388 136 423 L23 423 C24 338 84 279 204 279 L204 279 Z " />
<glyph glyph-name="acute" unicode="&#xb4;" horiz-adv-x="500" d="M171 572 L295 572 L416 720 L228 720 L171 572 Z " />
<glyph glyph-name="mu" unicode="&#xb5;" horiz-adv-x="570" d="M39 -169 L199 -169 L199 2 L201 2 C212 -6 227 -13 251 -13 C302 -13 342 13 372 63 L375 63 L375 0 L531 0 L531 512 L368 512 L368 225 C368 163 334 122 278 122 C226 122 201 152 201 209 L201 512 L39 512 L39 -169 Z " />
<glyph glyph-name="paragraph" unicode="&#xb6;" horiz-adv-x="603" d="M278 0 L382 0 L382 619 L446 619 L446 0 L549 0 L549 715 L236 715 C169 715 120 698 84 665 C47 630 27 581 27 522 C27 412 101 335 216 335 L278 335 L278 0 Z " />
<glyph glyph-name="periodcentered" unicode="&#xb7;" horiz-adv-x="235" d="M32 234 L203 234 L203 402 L32 402 L32 234 Z " />
<glyph glyph-name="cedilla" unicode="&#xb8;" horiz-adv-x="500" d="M227 -193 C298 -193 352 -164 352 -116 C352 -64 303 -43 246 -49 L246 -47 L302 0 L239 0 L168 -71 L185 -95 C196 -91 207 -88 220 -88 C241 -88 258 -96 258 -115 C258 -136 232 -144 204 -144 C180 -144 154 -138 135 -129 L115 -164 C143 -181 180 -193 227 -193 L227 -193 Z " />
<glyph glyph-name="onesuperior" unicode="&#xb9;" horiz-adv-x="279" d="M116 288 L237 288 L237 689 L141 689 C130 634 87 606 25 603 L25 522 L116 522 L116 288 Z " />
<glyph glyph-name="ordmasculine" unicode="&#xba;" horiz-adv-x="521" d="M260 326 C199 326 168 381 168 461 C168 540 199 596 260 596 C321 596 353 540 353 461 C353 381 321 326 260 326 L260 326 Z M261 223 C407 223 503 325 503 461 C503 596 407 699 261 699 C114 699 18 596 18 461 C18 325 114 223 261 223 L261 223 Z " />
<glyph glyph-name="guillemotright" unicode="&#xbb;" horiz-adv-x="440" d="M51 42 L202 173 L202 329 L51 461 L51 321 L130 254 L130 252 L51 184 L51 42 Z M242 42 L396 173 L396 329 L242 461 L242 321 L323 254 L323 252 L242 184 L242 42 Z " />
<glyph glyph-name="onequarter" unicode="&#xbc;" horiz-adv-x="816" d="M615 402 L424 178 L424 83 L615 83 L615 0 L732 0 L732 83 L790 83 L790 166 L732 166 L732 402 L615 402 Z M615 288 L615 166 L511 166 L511 167 L614 288 L615 288 Z M114 318 L235 318 L235 719 L139 719 C128 664 85 636 23 633 L23 552 L114 552 L114 318 Z M76 0 L177 0 L722 715 L620 715 L76 0 Z " />
<glyph glyph-name="onehalf" unicode="&#xbd;" horiz-adv-x="851" d="M479 0 L815 0 L815 91 L641 91 L641 92 C666 118 719 137 760 171 C792 197 814 227 814 279 C814 347 758 405 656 405 C555 405 485 350 485 246 L595 246 C595 290 618 315 653 315 C685 315 699 298 699 273 C699 251 687 237 666 222 C633 198 591 179 553 146 C510 112 480 68 479 0 L479 0 Z M114 318 L235 318 L235 719 L139 719 C128 664 85 636 23 633 L23 552 L114 552 L114 318 Z M70 0 L171 0 L716 715 L614 715 L70 0 Z " />
<glyph glyph-name="threequarters" unicode="&#xbe;" horiz-adv-x="883" d="M204 309 C297 309 372 347 372 434 C372 486 342 516 302 531 L302 532 C335 547 360 571 360 609 C360 681 296 723 204 723 C99 723 39 666 36 591 L146 591 C148 618 162 641 199 641 C229 641 245 625 245 602 C245 574 224 561 187 561 L167 561 L167 485 L190 485 C230 485 253 472 253 439 C253 412 235 393 199 393 C155 393 139 418 137 453 L24 453 C25 368 83 309 204 309 L204 309 Z M683 402 L492 178 L492 83 L683 83 L683 0 L800 0 L800 83 L858 83 L858 166 L800 166 L800 402 L683 402 Z M683 288 L683 166 L579 166 L579 167 L682 288 L683 288 Z M153 0 L254 0 L799 715 L697 715 L153 0 Z " />
<glyph glyph-name="questiondown" unicode="&#xbf;" horiz-adv-x="547" d="M267 -140 C433 -140 533 -43 535 99 L375 99 C374 34 333 -5 274 -5 C226 -5 189 23 189 70 C189 132 245 147 290 187 C337 228 359 253 359 355 L214 355 C214 322 209 304 195 286 C179 267 153 253 112 227 C67 197 17 158 17 65 C17 -57 118 -140 267 -140 L267 -140 Z M204 420 L374 420 L374 588 L204 588 L204 420 Z " />
<glyph glyph-name="Agrave" unicode="&#xc0;" horiz-adv-x="697" d="M-1 0 L177 0 L218 129 L468 129 L510 0 L696 0 L438 715 L256 715 L-1 0 Z M259 256 L314 429 C326 466 343 530 343 530 L345 530 C345 530 361 466 373 429 L427 256 L259 256 Z M295 750 L419 750 L376 880 L189 880 L295 750 Z " />
<glyph glyph-name="Aacute" unicode="&#xc1;" horiz-adv-x="697" d="M-1 0 L177 0 L218 129 L468 129 L510 0 L696 0 L438 715 L256 715 L-1 0 Z M259 256 L314 429 C326 466 343 530 343 530 L345 530 C345 530 361 466 373 429 L427 256 L259 256 Z M281 750 L405 750 L511 880 L324 880 L281 750 Z " />
<glyph glyph-name="Acircumflex" unicode="&#xc2;" horiz-adv-x="697" d="M-1 0 L177 0 L218 129 L468 129 L510 0 L696 0 L438 715 L256 715 L-1 0 Z M259 256 L314 429 C326 466 343 530 343 530 L345 530 C345 530 361 466 373 429 L427 256 L259 256 Z M162 750 L302 750 L348 804 L350 804 L395 750 L532 750 L425 875 L269 875 L162 750 Z " />
<glyph glyph-name="Atilde" unicode="&#xc3;" horiz-adv-x="697" d="M-1 0 L177 0 L218 129 L468 129 L510 0 L696 0 L438 715 L256 715 L-1 0 Z M259 256 L314 429 C326 466 343 530 343 530 L345 530 C345 530 361 466 373 429 L427 256 L259 256 Z M285 750 C311 750 368 770 377 799 C379 799 382 800 385 803 C413 808 420 842 408 886 C385 886 326 869 316 837 L311 834 C288 830 273 801 285 750 L285 750 Z M335 808 C334 809 333 810 333 811 C337 809 340 808 335 808 L335 808 Z M360 829 C360 828 361 827 362 826 C358 828 356 829 360 829 L360 829 Z " />
<glyph glyph-name="Adieresis" unicode="&#xc4;" horiz-adv-x="697" d="M-1 0 L177 0 L218 129 L468 129 L510 0 L696 0 L438 715 L256 715 L-1 0 Z M259 256 L314 429 C326 466 343 530 343 530 L345 530 C345 530 361 466 373 429 L427 256 L259 256 Z M163 753 L316 753 L316 881 L163 881 L163 753 Z M378 753 L531 753 L531 881 L378 881 L378 753 Z " />
<glyph glyph-name="Aring" unicode="&#xc5;" horiz-adv-x="697" d="M-1 0 L177 0 L218 129 L468 129 L510 0 L696 0 L438 715 L256 715 L-1 0 Z M259 256 L314 429 C326 466 343 530 343 530 L345 530 C345 530 361 466 373 429 L427 256 L259 256 Z M347 794 C323 794 306 814 306 837 C306 860 323 880 347 880 C372 880 389 860 389 837 C389 814 372 794 347 794 L347 794 Z M347 739 C403 739 449 781 449 837 C449 892 403 935 347 935 C292 935 245 892 245 837 C245 781 292 739 347 739 L347 739 Z " />
<glyph glyph-name="AE" unicode="&#xc6;" horiz-adv-x="995" d="M-1 0 L174 0 L215 126 L431 126 L431 0 L966 0 L966 155 L610 155 L610 302 L903 302 L903 439 L610 439 L610 568 L955 568 L955 715 L241 715 L-1 0 Z M255 249 L358 568 L431 568 L431 249 L255 249 Z " />
<glyph glyph-name="Ccedilla" unicode="&#xc7;" horiz-adv-x="702" d="M340 -193 C411 -193 465 -164 465 -116 C465 -64 416 -43 359 -49 L359 -47 L396 -15 C485 -11 551 16 602 65 C651 112 683 177 688 248 L511 248 C503 179 451 129 372 129 C266 129 200 224 200 355 C200 485 255 582 371 582 C447 582 497 533 506 469 L683 469 C674 549 638 619 576 666 C525 705 455 729 372 729 C159 729 20 568 20 355 C20 153 147 2 337 -14 L281 -71 L298 -95 C309 -91 320 -88 333 -88 C354 -88 371 -96 371 -115 C371 -136 345 -144 317 -144 C293 -144 267 -138 248 -129 L228 -164 C256 -181 293 -193 340 -193 L340 -193 Z " />
<glyph glyph-name="Egrave" unicode="&#xc8;" horiz-adv-x="628" d="M277 750 L401 750 L358 880 L171 880 L277 750 Z M49 0 L597 0 L597 150 L226 150 L226 303 L539 303 L539 441 L226 441 L226 569 L591 569 L591 715 L49 715 L49 0 Z " />
<glyph glyph-name="Eacute" unicode="&#xc9;" horiz-adv-x="628" d="M263 750 L387 750 L493 880 L306 880 L263 750 Z M49 0 L597 0 L597 150 L226 150 L226 303 L539 303 L539 441 L226 441 L226 569 L591 569 L591 715 L49 715 L49 0 Z " />
<glyph glyph-name="Ecircumflex" unicode="&#xca;" horiz-adv-x="628" d="M49 0 L597 0 L597 150 L226 150 L226 303 L539 303 L539 441 L226 441 L226 569 L591 569 L591 715 L49 715 L49 0 Z M144 750 L284 750 L330 804 L332 804 L377 750 L514 750 L407 875 L251 875 L144 750 Z " />
<glyph glyph-name="Edieresis" unicode="&#xcb;" horiz-adv-x="628" d="M145 753 L298 753 L298 881 L145 881 L145 753 Z M360 753 L513 753 L513 881 L360 881 L360 753 Z M49 0 L597 0 L597 150 L226 150 L226 303 L539 303 L539 441 L226 441 L226 569 L591 569 L591 715 L49 715 L49 0 Z " />
<glyph glyph-name="Igrave" unicode="&#xcc;" horiz-adv-x="276" d="M50 0 L227 0 L227 715 L50 715 L50 0 Z M86 750 L210 750 L167 880 L-20 880 L86 750 Z " />
<glyph glyph-name="Iacute" unicode="&#xcd;" horiz-adv-x="276" d="M50 0 L227 0 L227 715 L50 715 L50 0 Z M72 750 L196 750 L302 880 L115 880 L72 750 Z " />
<glyph glyph-name="Icircumflex" unicode="&#xce;" horiz-adv-x="276" d="M50 0 L227 0 L227 715 L50 715 L50 0 Z M-47 750 L93 750 L139 804 L141 804 L186 750 L323 750 L216 875 L60 875 L-47 750 Z " />
<glyph glyph-name="Idieresis" unicode="&#xcf;" horiz-adv-x="276" d="M50 0 L227 0 L227 715 L50 715 L50 0 Z M-46 753 L107 753 L107 881 L-46 881 L-46 753 Z M169 753 L322 753 L322 881 L169 881 L169 753 Z " />
<glyph glyph-name="Eth" unicode="&#xd0;" horiz-adv-x="714" d="M235 149 L235 296 L391 296 L391 433 L235 433 L235 567 L341 567 C452 567 515 483 515 353 C515 222 455 149 339 149 L235 149 Z M58 0 L352 0 C453 0 532 29 589 81 C658 143 694 238 694 353 C694 572 561 715 363 715 L58 715 L58 433 L3 433 L3 296 L58 296 L58 0 Z " />
<glyph glyph-name="Ntilde" unicode="&#xd1;" horiz-adv-x="710" d="M49 0 L222 0 L222 333 C222 358 220 450 220 450 L222 450 C222 450 261 373 273 354 L483 0 L661 0 L661 715 L488 715 L488 376 C488 351 490 265 490 265 L488 265 C488 265 450 336 439 356 L227 715 L49 715 L49 0 Z M300 750 C326 750 383 770 392 799 C394 799 397 800 400 803 C428 808 435 842 423 886 C400 886 341 869 331 837 L326 834 C303 830 288 801 300 750 L300 750 Z M350 808 C349 809 348 810 348 811 C352 809 355 808 350 808 L350 808 Z M375 829 C375 828 376 827 377 826 C373 828 371 829 375 829 L375 829 Z " />
<glyph glyph-name="Ograve" unicode="&#xd2;" horiz-adv-x="747" d="M321 750 L445 750 L402 880 L215 880 L321 750 Z M374 127 C259 127 200 226 200 356 C200 486 259 586 374 586 C490 586 547 486 547 356 C547 226 490 127 374 127 L374 127 Z M373 -17 C590 -17 727 142 727 356 C727 570 590 729 373 729 C157 729 20 570 20 356 C20 142 157 -17 373 -17 L373 -17 Z " />
<glyph glyph-name="Oacute" unicode="&#xd3;" horiz-adv-x="747" d="M307 750 L431 750 L537 880 L350 880 L307 750 Z M374 127 C259 127 200 226 200 356 C200 486 259 586 374 586 C490 586 547 486 547 356 C547 226 490 127 374 127 L374 127 Z M373 -17 C590 -17 727 142 727 356 C727 570 590 729 373 729 C157 729 20 570 20 356 C20 142 157 -17 373 -17 L373 -17 Z " />
<glyph glyph-name="Ocircumflex" unicode="&#xd4;" horiz-adv-x="747" d="M374 127 C259 127 200 226 200 356 C200 486 259 586 374 586 C490 586 547 486 547 356 C547 226 490 127 374 127 L374 127 Z M373 -17 C590 -17 727 142 727 356 C727 570 590 729 373 729 C157 729 20 570 20 356 C20 142 157 -17 373 -17 L373 -17 Z M188 750 L328 750 L374 804 L376 804 L421 750 L558 750 L451 875 L295 875 L188 750 Z " />
<glyph glyph-name="Otilde" unicode="&#xd5;" horiz-adv-x="747" d="M373 -17 C590 -17 727 142 727 356 C727 570 590 729 373 729 C157 729 20 570 20 356 C20 142 157 -17 373 -17 L373 -17 Z M374 127 C259 127 200 226 200 356 C200 486 259 586 374 586 C490 586 547 486 547 356 C547 226 490 127 374 127 L374 127 Z M311 750 C337 750 394 770 403 799 C405 799 408 800 411 803 C439 808 446 842 434 886 C411 886 352 869 342 837 L337 834 C314 830 299 801 311 750 L311 750 Z M361 808 C360 809 359 810 359 811 C363 809 366 808 361 808 L361 808 Z M386 829 C386 828 387 827 388 826 C384 828 382 829 386 829 L386 829 Z " />
<glyph glyph-name="Odieresis" unicode="&#xd6;" horiz-adv-x="747" d="M189 753 L342 753 L342 881 L189 881 L189 753 Z M404 753 L557 753 L557 881 L404 881 L404 753 Z M374 127 C259 127 200 226 200 356 C200 486 259 586 374 586 C490 586 547 486 547 356 C547 226 490 127 374 127 L374 127 Z M373 -17 C590 -17 727 142 727 356 C727 570 590 729 373 729 C157 729 20 570 20 356 C20 142 157 -17 373 -17 L373 -17 Z " />
<glyph glyph-name="multiply" unicode="&#xd7;" horiz-adv-x="566" d="M132 82 L281 235 L429 83 L521 172 L370 326 L521 481 L429 569 L280 418 L133 569 L40 481 L191 326 L39 171 L132 82 Z " />
<glyph glyph-name="Oslash" unicode="&#xd8;" horiz-adv-x="747" d="M77 -35 L155 53 C213 9 286 -17 373 -17 C590 -17 727 142 727 356 C727 453 698 540 646 605 L725 693 L669 742 L593 657 C536 702 461 729 373 729 C157 729 20 570 20 356 C20 257 49 170 102 105 L22 15 L77 -35 Z M220 237 C206 272 200 312 200 356 C200 486 259 586 374 586 C422 586 460 568 488 539 L220 237 Z M374 127 C327 127 289 143 261 172 L528 472 C541 438 547 398 547 356 C547 226 490 127 374 127 L374 127 Z " />
<glyph glyph-name="Ugrave" unicode="&#xd9;" horiz-adv-x="686" d="M290 750 L414 750 L371 880 L184 880 L290 750 Z M344 -13 C543 -13 642 87 642 252 L642 715 L465 715 L465 249 C465 179 426 129 344 129 C257 129 221 176 221 246 L221 715 L44 715 L44 252 C44 85 144 -13 344 -13 L344 -13 Z " />
<glyph glyph-name="Uacute" unicode="&#xda;" horiz-adv-x="686" d="M276 750 L400 750 L506 880 L319 880 L276 750 Z M344 -13 C543 -13 642 87 642 252 L642 715 L465 715 L465 249 C465 179 426 129 344 129 C257 129 221 176 221 246 L221 715 L44 715 L44 252 C44 85 144 -13 344 -13 L344 -13 Z " />
<glyph glyph-name="Ucircumflex" unicode="&#xdb;" horiz-adv-x="686" d="M344 -13 C543 -13 642 87 642 252 L642 715 L465 715 L465 249 C465 179 426 129 344 129 C257 129 221 176 221 246 L221 715 L44 715 L44 252 C44 85 144 -13 344 -13 L344 -13 Z M157 750 L297 750 L343 804 L345 804 L390 750 L527 750 L420 875 L264 875 L157 750 Z " />
<glyph glyph-name="Udieresis" unicode="&#xdc;" horiz-adv-x="686" d="M158 753 L311 753 L311 881 L158 881 L158 753 Z M373 753 L526 753 L526 881 L373 881 L373 753 Z M344 -13 C543 -13 642 87 642 252 L642 715 L465 715 L465 249 C465 179 426 129 344 129 C257 129 221 176 221 246 L221 715 L44 715 L44 252 C44 85 144 -13 344 -13 L344 -13 Z " />
<glyph glyph-name="Yacute" unicode="&#xdd;" horiz-adv-x="663" d="M243 0 L420 0 L420 264 L662 715 L475 715 L384 530 C360 481 335 421 335 421 L333 421 C333 421 310 481 286 530 L194 715 L1 715 L243 264 L243 0 Z M267 750 L391 750 L497 880 L310 880 L267 750 Z " />
<glyph glyph-name="Thorn" unicode="&#xde;" horiz-adv-x="650" d="M49 0 L229 0 L229 139 L396 139 C543 139 638 237 638 373 C638 446 612 506 566 549 C522 592 458 615 371 616 L229 616 L229 715 L49 715 L49 0 Z M229 279 L229 466 L360 466 C423 466 460 432 460 374 C460 317 424 279 360 279 L229 279 Z " />
<glyph glyph-name="germandbls" unicode="&#xdf;" horiz-adv-x="576" d="M331 -9 C463 -9 560 70 560 224 C560 316 516 383 435 409 L435 412 C494 436 523 480 523 541 C523 655 432 729 289 729 C135 729 39 647 39 514 L39 0 L202 0 L202 510 C202 573 238 606 292 606 C343 606 371 574 371 529 C371 476 335 450 278 448 L257 448 L257 355 L284 355 C362 355 399 313 399 238 C399 148 347 108 255 119 L255 1 C277 -6 302 -9 331 -9 L331 -9 Z " />
<glyph glyph-name="agrave" unicode="&#xe0;" horiz-adv-x="541" d="M190 -13 C267 -13 312 14 342 57 L344 57 C348 31 353 11 361 0 L519 0 L519 7 C505 16 501 39 501 80 L501 338 C501 402 480 452 436 484 C399 512 347 526 270 526 C115 526 42 445 38 350 L188 350 C193 393 219 416 271 416 C320 416 341 394 341 361 C341 326 307 316 211 304 C105 290 15 256 15 143 C15 42 88 -13 190 -13 L190 -13 Z M242 91 C202 91 172 107 172 148 C172 187 198 203 261 217 C294 225 324 233 345 244 L345 183 C345 128 303 91 242 91 L242 91 Z M223 572 L347 572 L290 720 L102 720 L223 572 Z " />
<glyph glyph-name="aacute" unicode="&#xe1;" horiz-adv-x="541" d="M190 -13 C267 -13 312 14 342 57 L344 57 C348 31 353 11 361 0 L519 0 L519 7 C505 16 501 39 501 80 L501 338 C501 402 480 452 436 484 C399 512 347 526 270 526 C115 526 42 445 38 350 L188 350 C193 393 219 416 271 416 C320 416 341 394 341 361 C341 326 307 316 211 304 C105 290 15 256 15 143 C15 42 88 -13 190 -13 L190 -13 Z M242 91 C202 91 172 107 172 148 C172 187 198 203 261 217 C294 225 324 233 345 244 L345 183 C345 128 303 91 242 91 L242 91 Z M209 572 L333 572 L454 720 L266 720 L209 572 Z " />
<glyph glyph-name="acircumflex" unicode="&#xe2;" horiz-adv-x="541" d="M190 -13 C267 -13 312 14 342 57 L344 57 C348 31 353 11 361 0 L519 0 L519 7 C505 16 501 39 501 80 L501 338 C501 402 480 452 436 484 C399 512 347 526 270 526 C115 526 42 445 38 350 L188 350 C193 393 219 416 271 416 C320 416 341 394 341 361 C341 326 307 316 211 304 C105 290 15 256 15 143 C15 42 88 -13 190 -13 L190 -13 Z M242 91 C202 91 172 107 172 148 C172 187 198 203 261 217 C294 225 324 233 345 244 L345 183 C345 128 303 91 242 91 L242 91 Z M90 574 L230 574 L276 640 L278 640 L323 574 L460 574 L353 711 L197 711 L90 574 Z " />
<glyph glyph-name="atilde" unicode="&#xe3;" horiz-adv-x="541" d="M190 -13 C267 -13 312 14 342 57 L344 57 C348 31 353 11 361 0 L519 0 L519 7 C505 16 501 39 501 80 L501 338 C501 402 480 452 436 484 C399 512 347 526 270 526 C115 526 42 445 38 350 L188 350 C193 393 219 416 271 416 C320 416 341 394 341 361 C341 326 307 316 211 304 C105 290 15 256 15 143 C15 42 88 -13 190 -13 L190 -13 Z M242 91 C202 91 172 107 172 148 C172 187 198 203 261 217 C294 225 324 233 345 244 L345 183 C345 128 303 91 242 91 L242 91 Z M109 571 L193 571 C196 594 207 607 223 607 C239 607 251 599 275 588 C294 580 315 572 341 572 C406 572 441 626 441 704 L357 704 C354 683 348 669 327 669 C312 669 300 676 278 687 C260 697 237 706 212 706 C155 706 109 661 109 571 L109 571 Z " />
<glyph glyph-name="adieresis" unicode="&#xe4;" horiz-adv-x="541" d="M190 -13 C267 -13 312 14 342 57 L344 57 C348 31 353 11 361 0 L519 0 L519 7 C505 16 501 39 501 80 L501 338 C501 402 480 452 436 484 C399 512 347 526 270 526 C115 526 42 445 38 350 L188 350 C193 393 219 416 271 416 C320 416 341 394 341 361 C341 326 307 316 211 304 C105 290 15 256 15 143 C15 42 88 -13 190 -13 L190 -13 Z M242 91 C202 91 172 107 172 148 C172 187 198 203 261 217 C294 225 324 233 345 244 L345 183 C345 128 303 91 242 91 L242 91 Z M86 577 L239 577 L239 705 L86 705 L86 577 Z M311 577 L464 577 L464 705 L311 705 L311 577 Z " />
<glyph glyph-name="aring" unicode="&#xe5;" horiz-adv-x="541" d="M190 -13 C267 -13 312 14 342 57 L344 57 C348 31 353 11 361 0 L519 0 L519 7 C505 16 501 39 501 80 L501 338 C501 402 480 452 436 484 C399 512 347 526 270 526 C115 526 42 445 38 350 L188 350 C193 393 219 416 271 416 C320 416 341 394 341 361 C341 326 307 316 211 304 C105 290 15 256 15 143 C15 42 88 -13 190 -13 L190 -13 Z M242 91 C202 91 172 107 172 148 C172 187 198 203 261 217 C294 225 324 233 345 244 L345 183 C345 128 303 91 242 91 L242 91 Z M275 614 C251 614 234 633 234 656 C234 679 251 699 275 699 C300 699 317 679 317 656 C317 633 300 614 275 614 L275 614 Z M275 558 C331 558 377 601 377 656 C377 711 331 755 275 755 C220 755 173 711 173 656 C173 601 220 558 275 558 L275 558 Z " />
<glyph glyph-name="ae" unicode="&#xe6;" horiz-adv-x="885" d="M210 -14 C310 -14 364 12 416 67 C460 17 527 -15 613 -15 C681 -15 735 3 778 36 C820 67 849 109 859 153 L701 153 C686 121 659 102 616 102 C549 102 511 145 500 214 L868 214 C869 323 836 416 770 471 C727 507 672 527 603 527 C538 527 484 507 443 472 C404 514 344 526 272 526 C116 526 42 445 38 350 L188 350 C192 393 219 416 273 416 C324 416 345 394 345 361 C345 326 312 317 212 304 C104 289 15 256 15 143 C15 42 93 -14 210 -14 L210 -14 Z M242 91 C202 91 170 107 170 148 C170 187 195 203 262 217 C296 225 328 233 349 244 L349 183 C349 128 305 91 242 91 L242 91 Z M606 411 C660 411 697 372 703 311 L501 311 C512 372 544 411 606 411 L606 411 Z " />
<glyph glyph-name="ccedilla" unicode="&#xe7;" horiz-adv-x="544" d="M257 -193 C328 -193 382 -164 382 -116 C382 -64 333 -43 276 -49 L276 -47 L314 -15 C444 -4 527 83 531 194 L375 194 C368 136 337 106 286 106 C216 106 181 164 181 255 C181 348 216 406 286 406 C332 406 360 376 370 330 L527 330 C512 445 423 526 284 526 C122 526 16 409 16 255 C16 111 109 0 255 -14 L198 -71 L215 -95 C226 -91 237 -88 250 -88 C271 -88 288 -96 288 -115 C288 -136 262 -144 234 -144 C210 -144 184 -138 165 -129 L145 -164 C173 -181 210 -193 257 -193 L257 -193 Z " />
<glyph glyph-name="egrave" unicode="&#xe8;" horiz-adv-x="560" d="M289 -15 C354 -15 406 2 449 32 C494 63 524 107 535 153 L376 153 C362 121 334 102 291 102 C224 102 186 145 176 214 L544 214 C545 318 515 407 454 463 C410 503 352 527 279 527 C123 527 16 410 16 257 C16 102 120 -15 289 -15 L289 -15 Z M177 311 C188 372 220 411 282 411 C335 411 373 372 379 311 L177 311 Z M228 572 L352 572 L295 720 L107 720 L228 572 Z " />
<glyph glyph-name="eacute" unicode="&#xe9;" horiz-adv-x="560" d="M214 572 L338 572 L459 720 L271 720 L214 572 Z M289 -15 C354 -15 406 2 449 32 C494 63 524 107 535 153 L376 153 C362 121 334 102 291 102 C224 102 186 145 176 214 L544 214 C545 318 515 407 454 463 C410 503 352 527 279 527 C123 527 16 410 16 257 C16 102 120 -15 289 -15 L289 -15 Z M177 311 C188 372 220 411 282 411 C335 411 373 372 379 311 L177 311 Z " />
<glyph glyph-name="ecircumflex" unicode="&#xea;" horiz-adv-x="560" d="M95 574 L235 574 L281 640 L283 640 L328 574 L465 574 L358 711 L202 711 L95 574 Z M289 -15 C354 -15 406 2 449 32 C494 63 524 107 535 153 L376 153 C362 121 334 102 291 102 C224 102 186 145 176 214 L544 214 C545 318 515 407 454 463 C410 503 352 527 279 527 C123 527 16 410 16 257 C16 102 120 -15 289 -15 L289 -15 Z M177 311 C188 372 220 411 282 411 C335 411 373 372 379 311 L177 311 Z " />
<glyph glyph-name="edieresis" unicode="&#xeb;" horiz-adv-x="560" d="M91 577 L244 577 L244 705 L91 705 L91 577 Z M316 577 L469 577 L469 705 L316 705 L316 577 Z M289 -15 C354 -15 406 2 449 32 C494 63 524 107 535 153 L376 153 C362 121 334 102 291 102 C224 102 186 145 176 214 L544 214 C545 318 515 407 454 463 C410 503 352 527 279 527 C123 527 16 410 16 257 C16 102 120 -15 289 -15 L289 -15 Z M177 311 C188 372 220 411 282 411 C335 411 373 372 379 311 L177 311 Z " />
<glyph glyph-name="igrave" unicode="&#xec;" horiz-adv-x="241" d="M39 0 L202 0 L202 512 L39 512 L39 0 Z M69 572 L193 572 L136 720 L-52 720 L69 572 Z " />
<glyph glyph-name="iacute" unicode="&#xed;" horiz-adv-x="241" d="M55 572 L179 572 L300 720 L112 720 L55 572 Z M39 0 L202 0 L202 512 L39 512 L39 0 Z " />
<glyph glyph-name="icircumflex" unicode="&#xee;" horiz-adv-x="241" d="M39 0 L202 0 L202 512 L39 512 L39 0 Z M-42 574 L90 574 L121 636 L123 636 L153 574 L282 574 L203 711 L39 711 L-42 574 Z " />
<glyph glyph-name="idieresis" unicode="&#xef;" horiz-adv-x="241" d="M-29 577 L95 577 L95 705 L-29 705 L-29 577 Z M147 577 L270 577 L270 705 L147 705 L147 577 Z M39 512 L39 0 L202 0 L202 512 L39 512 Z " />
<glyph glyph-name="eth" unicode="&#xf0;" horiz-adv-x="579" d="M143 535 L277 579 C309 546 337 511 359 474 L357 474 C329 501 297 516 252 516 C109 516 16 409 16 255 C16 101 123 -16 290 -16 C486 -16 560 124 560 277 C560 433 499 547 422 627 L496 651 L472 704 L374 672 C354 688 334 702 314 715 L110 715 C148 688 189 658 229 624 L120 588 L143 535 Z M289 100 C218 100 181 161 181 254 C181 347 218 407 289 407 C360 407 398 347 398 254 C398 161 360 100 289 100 L289 100 Z " />
<glyph glyph-name="ntilde" unicode="&#xf1;" horiz-adv-x="570" d="M39 0 L202 0 L202 283 C202 346 238 391 292 391 C345 391 372 354 372 300 L372 0 L535 0 L535 333 C535 447 469 527 357 527 C286 527 237 497 199 442 L196 442 L196 512 L39 512 L39 0 Z M124 571 L208 571 C211 594 222 607 238 607 C254 607 266 599 290 588 C309 580 330 572 356 572 C421 572 456 626 456 704 L372 704 C369 683 363 669 342 669 C327 669 315 676 293 687 C275 697 252 706 227 706 C170 706 124 661 124 571 L124 571 Z " />
<glyph glyph-name="ograve" unicode="&#xf2;" horiz-adv-x="579" d="M289 100 C218 100 181 162 181 255 C181 348 218 411 289 411 C360 411 398 348 398 255 C398 162 360 100 289 100 L289 100 Z M290 -16 C455 -16 563 101 563 255 C563 409 455 526 290 526 C126 526 16 409 16 255 C16 101 126 -16 290 -16 L290 -16 Z M238 572 L362 572 L305 720 L117 720 L238 572 Z " />
<glyph glyph-name="oacute" unicode="&#xf3;" horiz-adv-x="579" d="M224 572 L348 572 L469 720 L281 720 L224 572 Z M289 100 C218 100 181 162 181 255 C181 348 218 411 289 411 C360 411 398 348 398 255 C398 162 360 100 289 100 L289 100 Z M290 -16 C455 -16 563 101 563 255 C563 409 455 526 290 526 C126 526 16 409 16 255 C16 101 126 -16 290 -16 L290 -16 Z " />
<glyph glyph-name="ocircumflex" unicode="&#xf4;" horiz-adv-x="579" d="M105 574 L245 574 L291 640 L293 640 L338 574 L475 574 L368 711 L212 711 L105 574 Z M289 100 C218 100 181 162 181 255 C181 348 218 411 289 411 C360 411 398 348 398 255 C398 162 360 100 289 100 L289 100 Z M290 -16 C455 -16 563 101 563 255 C563 409 455 526 290 526 C126 526 16 409 16 255 C16 101 126 -16 290 -16 L290 -16 Z " />
<glyph glyph-name="otilde" unicode="&#xf5;" horiz-adv-x="579" d="M289 100 C218 100 181 162 181 255 C181 348 218 411 289 411 C360 411 398 348 398 255 C398 162 360 100 289 100 L289 100 Z M290 -16 C455 -16 563 101 563 255 C563 409 455 526 290 526 C126 526 16 409 16 255 C16 101 126 -16 290 -16 L290 -16 Z M124 571 L208 571 C211 594 222 607 238 607 C254 607 266 599 290 588 C309 580 330 572 356 572 C421 572 456 626 456 704 L372 704 C369 683 363 669 342 669 C327 669 315 676 293 687 C275 697 252 706 227 706 C170 706 124 661 124 571 L124 571 Z " />
<glyph glyph-name="odieresis" unicode="&#xf6;" horiz-adv-x="579" d="M101 577 L254 577 L254 705 L101 705 L101 577 Z M326 577 L479 577 L479 705 L326 705 L326 577 Z M289 100 C218 100 181 162 181 255 C181 348 218 411 289 411 C360 411 398 348 398 255 C398 162 360 100 289 100 L289 100 Z M290 -16 C455 -16 563 101 563 255 C563 409 455 526 290 526 C126 526 16 409 16 255 C16 101 126 -16 290 -16 L290 -16 Z " />
<glyph glyph-name="divide" unicode="&#xf7;" horiz-adv-x="566" d="M197 59 L368 59 L368 208 L197 208 L197 59 Z M197 451 L368 451 L368 600 L197 600 L197 451 Z M526 264 L526 395 L40 395 L40 264 L526 264 Z " />
<glyph glyph-name="oslash" unicode="&#xf8;" horiz-adv-x="579" d="M71 -36 L130 30 C174 1 228 -16 290 -16 C455 -16 563 101 563 255 C563 327 539 391 497 439 L553 501 L509 543 L451 479 C407 508 353 526 290 526 C126 526 16 409 16 255 C16 182 40 118 84 70 L27 7 L71 -36 Z M289 100 C260 100 236 110 219 129 L390 319 C395 300 398 279 398 255 C398 162 360 100 289 100 L289 100 Z M190 189 C184 208 181 231 181 255 C181 348 218 411 289 411 C319 411 343 400 362 379 L190 189 Z " />
<glyph glyph-name="ugrave" unicode="&#xf9;" horiz-adv-x="566" d="M215 -15 C286 -15 331 13 368 63 L371 63 L371 0 L527 0 L527 512 L364 512 L364 226 C364 165 330 123 274 123 C222 123 197 154 197 210 L197 512 L35 512 L35 176 C35 62 97 -15 215 -15 L215 -15 Z M230 572 L354 572 L297 720 L109 720 L230 572 Z " />
<glyph glyph-name="uacute" unicode="&#xfa;" horiz-adv-x="566" d="M216 572 L340 572 L461 720 L273 720 L216 572 Z M215 -15 C286 -15 331 13 368 63 L371 63 L371 0 L527 0 L527 512 L364 512 L364 226 C364 165 330 123 274 123 C222 123 197 154 197 210 L197 512 L35 512 L35 176 C35 62 97 -15 215 -15 L215 -15 Z " />
<glyph glyph-name="ucircumflex" unicode="&#xfb;" horiz-adv-x="566" d="M97 574 L237 574 L283 640 L285 640 L330 574 L467 574 L360 711 L204 711 L97 574 Z M215 -15 C286 -15 331 13 368 63 L371 63 L371 0 L527 0 L527 512 L364 512 L364 226 C364 165 330 123 274 123 C222 123 197 154 197 210 L197 512 L35 512 L35 176 C35 62 97 -15 215 -15 L215 -15 Z " />
<glyph glyph-name="udieresis" unicode="&#xfc;" horiz-adv-x="566" d="M93 577 L246 577 L246 705 L93 705 L93 577 Z M318 577 L471 577 L471 705 L318 705 L318 577 Z M215 -15 C286 -15 331 13 368 63 L371 63 L371 0 L527 0 L527 512 L364 512 L364 226 C364 165 330 123 274 123 C222 123 197 154 197 210 L197 512 L35 512 L35 176 C35 62 97 -15 215 -15 L215 -15 Z " />
<glyph glyph-name="yacute" unicode="&#xfd;" horiz-adv-x="529" d="M56 -169 L162 -169 C265 -169 314 -127 355 -7 L532 512 L369 512 L302 294 C286 244 272 176 272 176 L270 176 C270 176 254 244 238 294 L169 512 L-3 512 L148 118 C169 64 179 34 179 12 C179 -23 160 -42 112 -42 L56 -42 L56 -169 Z M201 572 L325 572 L446 720 L258 720 L201 572 Z " />
<glyph glyph-name="thorn" unicode="&#xfe;" horiz-adv-x="588" d="M39 -169 L202 -169 L202 53 L204 53 C236 9 283 -16 349 -16 C483 -16 572 90 572 256 C572 410 489 527 353 527 C283 527 237 498 205 454 L202 454 L202 716 L39 716 L39 -169 Z M307 110 C237 110 197 168 197 252 C197 335 233 400 304 400 C374 400 407 340 407 252 C407 163 369 110 307 110 L307 110 Z " />
<glyph glyph-name="ydieresis" unicode="&#xff;" horiz-adv-x="529" d="M56 -169 L162 -169 C265 -169 314 -127 355 -7 L532 512 L369 512 L302 294 C286 244 272 176 272 176 L270 176 C270 176 254 244 238 294 L169 512 L-3 512 L148 118 C169 64 179 34 179 12 C179 -23 160 -42 112 -42 L56 -42 L56 -169 Z M78 577 L231 577 L231 705 L78 705 L78 577 Z M303 577 L456 577 L456 705 L303 705 L303 577 Z " />
<glyph glyph-name="Amacron" unicode="&#x100;" horiz-adv-x="697" d="M-1 0 L177 0 L218 129 L468 129 L510 0 L696 0 L438 715 L256 715 L-1 0 Z M259 256 L314 429 C326 466 343 530 343 530 L345 530 C345 530 361 466 373 429 L427 256 L259 256 Z M204 762 L490 762 L490 863 L204 863 L204 762 Z " />
<glyph glyph-name="amacron" unicode="&#x101;" horiz-adv-x="541" d="M190 -13 C267 -13 312 14 342 57 L344 57 C348 31 353 11 361 0 L519 0 L519 7 C505 16 501 39 501 80 L501 338 C501 402 480 452 436 484 C399 512 347 526 270 526 C115 526 42 445 38 350 L188 350 C193 393 219 416 271 416 C320 416 341 394 341 361 C341 326 307 316 211 304 C105 290 15 256 15 143 C15 42 88 -13 190 -13 L190 -13 Z M242 91 C202 91 172 107 172 148 C172 187 198 203 261 217 C294 225 324 233 345 244 L345 183 C345 128 303 91 242 91 L242 91 Z M132 587 L418 587 L418 688 L132 688 L132 587 Z " />
<glyph glyph-name="Abreve" unicode="&#x102;" horiz-adv-x="697" d="M-1 0 L177 0 L218 129 L468 129 L510 0 L696 0 L438 715 L256 715 L-1 0 Z M259 256 L314 429 C326 466 343 530 343 530 L345 530 C345 530 361 466 373 429 L427 256 L259 256 Z M349 744 C442 744 505 804 509 889 L417 889 C414 864 388 842 348 842 C306 842 281 861 278 889 L186 889 C189 801 258 744 349 744 L349 744 Z " />
<glyph glyph-name="abreve" unicode="&#x103;" horiz-adv-x="541" d="M190 -13 C267 -13 312 14 342 57 L344 57 C348 31 353 11 361 0 L519 0 L519 7 C505 16 501 39 501 80 L501 338 C501 402 480 452 436 484 C399 512 347 526 270 526 C115 526 42 445 38 350 L188 350 C193 393 219 416 271 416 C320 416 341 394 341 361 C341 326 307 316 211 304 C105 290 15 256 15 143 C15 42 88 -13 190 -13 L190 -13 Z M242 91 C202 91 172 107 172 148 C172 187 198 203 261 217 C294 225 324 233 345 244 L345 183 C345 128 303 91 242 91 L242 91 Z M277 566 C370 566 433 626 437 711 L345 711 C342 686 316 664 276 664 C234 664 209 683 206 711 L114 711 C117 623 186 566 277 566 L277 566 Z " />
<glyph glyph-name="Aogonek" unicode="&#x104;" horiz-adv-x="697" d="M629 -177 C662 -177 682 -173 695 -168 L695 -83 L694 -83 C687 -86 679 -88 668 -88 C651 -88 640 -80 640 -63 C640 -42 655 -19 694 6 L438 715 L256 715 L-1 0 L177 0 L218 129 L468 129 L510 0 L569 0 C538 -18 509 -48 509 -91 C509 -147 545 -177 629 -177 L629 -177 Z M259 256 L314 429 C326 466 343 530 343 530 L345 530 C345 530 361 466 373 429 L427 256 L259 256 Z " />
<glyph glyph-name="aogonek" unicode="&#x105;" horiz-adv-x="541" d="M462 -177 C490 -177 510 -173 523 -168 L523 -83 L522 -83 C515 -86 507 -88 496 -88 C479 -88 468 -80 468 -63 C468 -42 483 -19 519 0 L519 7 C505 16 501 39 501 80 L501 338 C501 402 480 452 436 484 C399 512 347 526 270 526 C115 526 42 445 38 350 L188 350 C193 393 219 416 271 416 C320 416 341 394 341 361 C341 326 307 316 211 304 C105 290 15 256 15 143 C15 42 88 -13 190 -13 C267 -13 312 14 342 57 L344 57 C348 31 353 11 361 0 L408 0 C376 -15 338 -46 338 -93 C338 -147 377 -177 462 -177 L462 -177 Z M242 91 C202 91 172 107 172 148 C172 187 198 203 261 217 C294 225 324 233 345 244 L345 183 C345 128 303 91 242 91 L242 91 Z " />
<glyph glyph-name="Cacute" unicode="&#x106;" horiz-adv-x="702" d="M373 -16 C474 -16 547 12 602 65 C651 112 683 177 688 248 L511 248 C503 179 451 129 372 129 C266 129 200 224 200 355 C200 485 255 582 371 582 C447 582 497 533 506 469 L683 469 C674 549 638 619 576 666 C525 705 455 729 372 729 C159 729 20 568 20 355 C20 141 163 -16 373 -16 L373 -16 Z M299 750 L423 750 L529 880 L342 880 L299 750 Z " />
<glyph glyph-name="cacute" unicode="&#x107;" horiz-adv-x="544" d="M215 572 L339 572 L460 720 L272 720 L215 572 Z M288 -16 C433 -16 527 76 531 194 L375 194 C368 136 337 106 286 106 C216 106 181 164 181 255 C181 348 216 406 286 406 C332 406 360 376 370 330 L527 330 C512 445 423 526 284 526 C122 526 16 409 16 255 C16 101 123 -16 288 -16 L288 -16 Z " />
<glyph glyph-name="Ccircumflex" unicode="&#x108;" horiz-adv-x="702" d="M373 -16 C474 -16 547 12 602 65 C651 112 683 177 688 248 L511 248 C503 179 451 129 372 129 C266 129 200 224 200 355 C200 485 255 582 371 582 C447 582 497 533 506 469 L683 469 C674 549 638 619 576 666 C525 705 455 729 372 729 C159 729 20 568 20 355 C20 141 163 -16 373 -16 L373 -16 Z M180 750 L320 750 L366 804 L368 804 L413 750 L550 750 L443 875 L287 875 L180 750 Z " />
<glyph glyph-name="ccircumflex" unicode="&#x109;" horiz-adv-x="544" d="M96 574 L236 574 L282 640 L284 640 L329 574 L466 574 L359 711 L203 711 L96 574 Z M288 -16 C433 -16 527 76 531 194 L375 194 C368 136 337 106 286 106 C216 106 181 164 181 255 C181 348 216 406 286 406 C332 406 360 376 370 330 L527 330 C512 445 423 526 284 526 C122 526 16 409 16 255 C16 101 123 -16 288 -16 L288 -16 Z " />
<glyph glyph-name="Cdotaccent" unicode="&#x10a;" horiz-adv-x="702" d="M284 753 L446 753 L446 883 L284 883 L284 753 Z M373 -16 C474 -16 547 12 602 65 C651 112 683 177 688 248 L511 248 C503 179 451 129 372 129 C266 129 200 224 200 355 C200 485 255 582 371 582 C447 582 497 533 506 469 L683 469 C674 549 638 619 576 666 C525 705 455 729 372 729 C159 729 20 568 20 355 C20 141 163 -16 373 -16 L373 -16 Z " />
<glyph glyph-name="cdotaccent" unicode="&#x10b;" horiz-adv-x="544" d="M288 -16 C433 -16 527 76 531 194 L375 194 C368 136 337 106 286 106 C216 106 181 164 181 255 C181 348 216 406 286 406 C332 406 360 376 370 330 L527 330 C512 445 423 526 284 526 C122 526 16 409 16 255 C16 101 123 -16 288 -16 L288 -16 Z M200 583 L362 583 L362 715 L200 715 L200 583 Z " />
<glyph glyph-name="Ccaron" unicode="&#x10c;" horiz-adv-x="702" d="M373 -16 C474 -16 547 12 602 65 C651 112 683 177 688 248 L511 248 C503 179 451 129 372 129 C266 129 200 224 200 355 C200 485 255 582 371 582 C447 582 497 533 506 469 L683 469 C674 549 638 619 576 666 C525 705 455 729 372 729 C159 729 20 568 20 355 C20 141 163 -16 373 -16 L373 -16 Z M286 750 L443 750 L549 875 L409 875 L364 821 L362 821 L317 875 L180 875 L286 750 Z " />
<glyph glyph-name="ccaron" unicode="&#x10d;" horiz-adv-x="544" d="M203 571 L360 571 L466 709 L326 709 L281 643 L279 643 L234 709 L97 709 L203 571 Z M288 -16 C433 -16 527 76 531 194 L375 194 C368 136 337 106 286 106 C216 106 181 164 181 255 C181 348 216 406 286 406 C332 406 360 376 370 330 L527 330 C512 445 423 526 284 526 C122 526 16 409 16 255 C16 101 123 -16 288 -16 L288 -16 Z " />
<glyph glyph-name="Dcaron" unicode="&#x10e;" horiz-adv-x="705" d="M245 750 L402 750 L508 875 L368 875 L323 821 L321 821 L276 875 L139 875 L245 750 Z M226 149 L226 567 L332 567 C443 567 506 483 506 353 C506 222 446 149 330 149 L226 149 Z M49 0 L343 0 C433 0 505 23 561 65 C641 126 685 227 685 353 C685 572 552 715 354 715 L49 715 L49 0 Z " />
<glyph glyph-name="dcaron" unicode="&#x10f;" horiz-adv-x="588" d="M583 524 C654 528 709 559 709 636 L709 715 L584 715 L584 614 L641 614 C641 587 618 576 583 571 L583 524 Z M240 -16 C307 -16 360 16 391 69 L393 69 L393 0 L549 0 L549 715 L386 715 L386 454 L383 454 C353 497 312 527 240 527 C108 527 16 416 16 256 C16 85 109 -16 240 -16 L240 -16 Z M282 113 C219 113 181 169 181 258 C181 344 219 404 284 404 C355 404 390 342 390 256 C390 172 350 113 282 113 L282 113 Z " />
<glyph glyph-name="Dcroat" unicode="&#x110;" horiz-adv-x="714" d="M235 149 L235 296 L391 296 L391 433 L235 433 L235 567 L341 567 C452 567 515 483 515 353 C515 222 455 149 339 149 L235 149 Z M58 0 L352 0 C441 0 513 23 568 64 C650 125 694 226 694 353 C694 572 561 715 363 715 L58 715 L58 433 L3 433 L3 296 L58 296 L58 0 Z " />
<glyph glyph-name="dcroat" unicode="&#x111;" horiz-adv-x="588" d="M266 566 L386 566 L386 454 L383 454 C353 497 312 527 240 527 C108 527 16 416 16 256 C16 85 109 -16 240 -16 C307 -16 360 16 391 69 L393 69 L393 0 L549 0 L549 566 L600 566 L600 648 L549 648 L549 715 L386 715 L386 648 L266 648 L266 566 Z M282 113 C219 113 181 169 181 258 C181 344 219 404 284 404 C355 404 390 342 390 256 C390 172 350 113 282 113 L282 113 Z " />
<glyph glyph-name="Emacron" unicode="&#x112;" horiz-adv-x="628" d="M186 762 L472 762 L472 863 L186 863 L186 762 Z M49 0 L597 0 L597 150 L226 150 L226 303 L539 303 L539 441 L226 441 L226 569 L591 569 L591 715 L49 715 L49 0 Z " />
<glyph glyph-name="emacron" unicode="&#x113;" horiz-adv-x="560" d="M289 -15 C354 -15 406 2 449 32 C494 63 524 107 535 153 L376 153 C362 121 334 102 291 102 C224 102 186 145 176 214 L544 214 C545 318 515 407 454 463 C410 503 352 527 279 527 C123 527 16 410 16 257 C16 102 120 -15 289 -15 L289 -15 Z M177 311 C188 372 220 411 282 411 C335 411 373 372 379 311 L177 311 Z M137 587 L423 587 L423 688 L137 688 L137 587 Z " />
<glyph glyph-name="Ebreve" unicode="&#x114;" horiz-adv-x="628" d="M331 744 C424 744 487 804 491 889 L399 889 C396 864 370 842 330 842 C288 842 263 861 260 889 L168 889 C171 801 240 744 331 744 L331 744 Z M49 0 L597 0 L597 150 L226 150 L226 303 L539 303 L539 441 L226 441 L226 569 L591 569 L591 715 L49 715 L49 0 Z " />
<glyph glyph-name="ebreve" unicode="&#x115;" horiz-adv-x="560" d="M289 -15 C354 -15 406 2 449 32 C494 63 524 107 535 153 L376 153 C362 121 334 102 291 102 C224 102 186 145 176 214 L544 214 C545 318 515 407 454 463 C410 503 352 527 279 527 C123 527 16 410 16 257 C16 102 120 -15 289 -15 L289 -15 Z M177 311 C188 372 220 411 282 411 C335 411 373 372 379 311 L177 311 Z M281 566 C374 566 437 626 441 711 L349 711 C346 686 320 664 280 664 C238 664 213 683 210 711 L118 711 C121 623 190 566 281 566 L281 566 Z " />
<glyph glyph-name="Edotaccent" unicode="&#x116;" horiz-adv-x="628" d="M248 753 L410 753 L410 883 L248 883 L248 753 Z M49 0 L597 0 L597 150 L226 150 L226 303 L539 303 L539 441 L226 441 L226 569 L591 569 L591 715 L49 715 L49 0 Z " />
<glyph glyph-name="edotaccent" unicode="&#x117;" horiz-adv-x="560" d="M289 -15 C354 -15 406 2 449 32 C494 63 524 107 535 153 L376 153 C362 121 334 102 291 102 C224 102 186 145 176 214 L544 214 C545 318 515 407 454 463 C410 503 352 527 279 527 C123 527 16 410 16 257 C16 102 120 -15 289 -15 L289 -15 Z M177 311 C188 372 220 411 282 411 C335 411 373 372 379 311 L177 311 Z M199 583 L361 583 L361 715 L199 715 L199 583 Z " />
<glyph glyph-name="Eogonek" unicode="&#x118;" horiz-adv-x="628" d="M49 0 L444 0 C413 -18 384 -48 384 -91 C384 -147 420 -177 505 -177 C537 -177 557 -173 570 -168 L570 -83 L569 -83 C562 -86 554 -88 543 -88 C526 -88 515 -80 515 -63 C515 -42 530 -22 556 0 L597 0 L597 150 L226 150 L226 303 L539 303 L539 441 L226 441 L226 569 L591 569 L591 715 L49 715 L49 0 Z " />
<glyph glyph-name="eogonek" unicode="&#x119;" horiz-adv-x="560" d="M367 -177 C395 -177 415 -173 428 -168 L428 -83 L427 -83 C420 -86 412 -88 401 -88 C384 -88 373 -80 373 -63 C373 -29 425 6 465 41 C497 69 524 107 535 153 L376 153 C362 121 334 102 291 102 C224 102 186 145 176 214 L544 214 C545 318 515 407 454 463 C410 503 352 527 279 527 C123 527 16 410 16 257 C16 102 119 -14 287 -15 C263 -32 243 -58 243 -93 C243 -147 282 -177 367 -177 L367 -177 Z M177 311 C188 372 220 411 282 411 C335 411 373 372 379 311 L177 311 Z " />
<glyph glyph-name="Ecaron" unicode="&#x11a;" horiz-adv-x="628" d="M251 750 L408 750 L514 875 L374 875 L329 821 L327 821 L282 875 L145 875 L251 750 Z M49 0 L597 0 L597 150 L226 150 L226 303 L539 303 L539 441 L226 441 L226 569 L591 569 L591 715 L49 715 L49 0 Z " />
<glyph glyph-name="ecaron" unicode="&#x11b;" horiz-adv-x="560" d="M201 571 L358 571 L464 709 L324 709 L279 643 L277 643 L232 709 L95 709 L201 571 Z M289 -15 C354 -15 406 2 449 32 C494 63 524 107 535 153 L376 153 C362 121 334 102 291 102 C224 102 186 145 176 214 L544 214 C545 318 515 407 454 463 C410 503 352 527 279 527 C123 527 16 410 16 257 C16 102 120 -15 289 -15 L289 -15 Z M177 311 C188 372 220 411 282 411 C335 411 373 372 379 311 L177 311 Z " />
<glyph glyph-name="Gcircumflex" unicode="&#x11c;" horiz-adv-x="737" d="M361 -16 C447 -16 517 13 564 86 L566 86 L576 0 L700 0 L700 384 L402 384 L402 254 L536 254 L536 252 C529 189 474 127 381 127 C269 127 201 224 201 355 C201 485 260 583 378 583 C456 583 504 539 517 481 L689 481 C666 631 556 729 372 729 C269 729 186 694 127 634 C59 566 21 467 21 355 C21 246 55 152 117 84 C176 20 259 -16 361 -16 L361 -16 Z M181 750 L321 750 L367 804 L369 804 L414 750 L551 750 L444 875 L288 875 L181 750 Z " />
<glyph glyph-name="gcircumflex" unicode="&#x11d;" horiz-adv-x="572" d="M98 574 L238 574 L284 640 L286 640 L331 574 L468 574 L361 711 L205 711 L98 574 Z M277 -177 C353 -177 420 -160 465 -120 C506 -83 533 -27 533 50 L533 512 L377 512 L377 457 L375 457 C345 500 299 527 231 527 C104 527 16 421 16 271 C16 114 123 28 238 28 C300 28 339 53 369 87 L373 87 L373 36 C373 -26 344 -62 275 -62 C221 -62 194 -39 185 -12 L27 -12 C43 -119 136 -177 277 -177 L277 -177 Z M276 149 C215 149 175 199 175 276 C175 354 215 404 276 404 C344 404 380 346 380 277 C380 205 347 149 276 149 L276 149 Z " />
<glyph glyph-name="Gbreve" unicode="&#x11e;" horiz-adv-x="737" d="M368 744 C461 744 524 804 528 889 L436 889 C433 864 407 842 367 842 C325 842 300 861 297 889 L205 889 C208 801 277 744 368 744 L368 744 Z M361 -16 C447 -16 517 13 564 86 L566 86 L576 0 L700 0 L700 384 L402 384 L402 254 L536 254 L536 252 C529 189 474 127 381 127 C269 127 201 224 201 355 C201 485 260 583 378 583 C456 583 504 539 517 481 L689 481 C666 631 556 729 372 729 C269 729 186 694 127 634 C59 566 21 467 21 355 C21 246 55 152 117 84 C176 20 259 -16 361 -16 L361 -16 Z " />
<glyph glyph-name="gbreve" unicode="&#x11f;" horiz-adv-x="572" d="M277 -177 C353 -177 420 -160 465 -120 C506 -83 533 -27 533 50 L533 512 L377 512 L377 457 L375 457 C345 500 299 527 231 527 C104 527 16 421 16 271 C16 114 123 28 238 28 C300 28 339 53 369 87 L373 87 L373 36 C373 -26 344 -62 275 -62 C221 -62 194 -39 185 -12 L27 -12 C43 -119 136 -177 277 -177 L277 -177 Z M276 149 C215 149 175 199 175 276 C175 354 215 404 276 404 C344 404 380 346 380 277 C380 205 347 149 276 149 L276 149 Z M284 566 C377 566 440 626 444 711 L352 711 C349 686 323 664 283 664 C241 664 216 683 213 711 L121 711 C124 623 193 566 284 566 L284 566 Z " />
<glyph glyph-name="Gdotaccent" unicode="&#x120;" horiz-adv-x="737" d="M285 753 L447 753 L447 883 L285 883 L285 753 Z M361 -16 C447 -16 517 13 564 86 L566 86 L576 0 L700 0 L700 384 L402 384 L402 254 L536 254 L536 252 C529 189 474 127 381 127 C269 127 201 224 201 355 C201 485 260 583 378 583 C456 583 504 539 517 481 L689 481 C666 631 556 729 372 729 C269 729 186 694 127 634 C59 566 21 467 21 355 C21 246 55 152 117 84 C176 20 259 -16 361 -16 L361 -16 Z " />
<glyph glyph-name="gdotaccent" unicode="&#x121;" horiz-adv-x="572" d="M277 -177 C353 -177 420 -160 465 -120 C506 -83 533 -27 533 50 L533 512 L377 512 L377 457 L375 457 C345 500 299 527 231 527 C104 527 16 421 16 271 C16 114 123 28 238 28 C300 28 339 53 369 87 L373 87 L373 36 C373 -26 344 -62 275 -62 C221 -62 194 -39 185 -12 L27 -12 C43 -119 136 -177 277 -177 L277 -177 Z M276 149 C215 149 175 199 175 276 C175 354 215 404 276 404 C344 404 380 346 380 277 C380 205 347 149 276 149 L276 149 Z M202 583 L364 583 L364 715 L202 715 L202 583 Z " />
<glyph glyph-name="Gcommaaccent" unicode="&#x122;" horiz-adv-x="737" d="M296 -263 C372 -257 436 -220 436 -134 L436 -47 L299 -47 L299 -155 L362 -155 C362 -190 331 -207 296 -215 L296 -263 Z M361 -16 C447 -16 517 13 564 86 L566 86 L576 0 L700 0 L700 384 L402 384 L402 254 L536 254 L536 252 C529 189 474 127 381 127 C269 127 201 224 201 355 C201 485 260 583 378 583 C456 583 504 539 517 481 L689 481 C666 631 556 729 372 729 C269 729 186 694 127 634 C59 566 21 467 21 355 C21 246 55 152 117 84 C176 20 259 -16 361 -16 L361 -16 Z " />
<glyph glyph-name="gcommaaccent" unicode="&#x123;" horiz-adv-x="572" d="M212 587 L350 587 L350 695 L286 695 C286 730 317 747 353 755 L353 803 C277 797 212 760 212 674 L212 587 Z M277 -177 C353 -177 420 -160 465 -120 C506 -83 533 -27 533 50 L533 512 L377 512 L377 457 L375 457 C345 500 299 527 231 527 C104 527 16 421 16 271 C16 114 123 28 238 28 C300 28 339 53 369 87 L373 87 L373 36 C373 -26 344 -62 275 -62 C221 -62 194 -39 185 -12 L27 -12 C43 -119 136 -177 277 -177 L277 -177 Z M276 149 C215 149 175 199 175 276 C175 354 215 404 276 404 C344 404 380 346 380 277 C380 205 347 149 276 149 L276 149 Z " />
<glyph glyph-name="Hcircumflex" unicode="&#x124;" horiz-adv-x="703" d="M49 0 L226 0 L226 298 L477 298 L477 0 L654 0 L654 715 L477 715 L477 444 L226 444 L226 715 L49 715 L49 0 Z M166 750 L306 750 L352 804 L354 804 L399 750 L536 750 L429 875 L273 875 L166 750 Z " />
<glyph glyph-name="hcircumflex" unicode="&#x125;" horiz-adv-x="570" d="M39 0 L202 0 L202 283 C202 346 238 391 292 391 C345 391 372 354 372 300 L372 0 L535 0 L535 333 C535 447 469 527 357 527 C286 527 242 498 205 449 L202 449 L202 715 L39 715 L39 0 Z M102 750 L242 750 L288 804 L290 804 L335 750 L472 750 L365 875 L209 875 L102 750 Z " />
<glyph glyph-name="Hbar" unicode="&#x126;" horiz-adv-x="703" d="M-5 519 L49 519 L49 0 L226 0 L226 298 L477 298 L477 0 L654 0 L654 519 L708 519 L708 605 L654 605 L654 715 L477 715 L477 605 L226 605 L226 715 L49 715 L49 605 L-5 605 L-5 519 Z M226 444 L226 519 L477 519 L477 444 L226 444 Z " />
<glyph glyph-name="hbar" unicode="&#x127;" horiz-adv-x="570" d="M-12 566 L39 566 L39 0 L202 0 L202 283 C202 346 238 391 292 391 C345 391 372 354 372 300 L372 0 L535 0 L535 333 C535 447 469 527 357 527 C286 527 242 498 205 449 L202 449 L202 566 L323 566 L323 648 L202 648 L202 715 L39 715 L39 648 L-12 648 L-12 566 Z " />
<glyph glyph-name="Itilde" unicode="&#x128;" horiz-adv-x="276" d="M50 0 L227 0 L227 715 L50 715 L50 0 Z M76 750 C102 750 159 770 168 799 C170 799 173 800 176 803 C204 808 211 842 199 886 C176 886 117 869 107 837 L102 834 C79 830 64 801 76 750 L76 750 Z M126 808 C125 809 124 810 124 811 C128 809 131 808 126 808 L126 808 Z M151 829 C151 828 152 827 153 826 C149 828 147 829 151 829 L151 829 Z " />
<glyph glyph-name="itilde" unicode="&#x129;" horiz-adv-x="241" d="M39 0 L202 0 L202 512 L39 512 L39 0 Z M-30 571 L52 571 C54 593 61 605 77 605 C88 605 98 599 120 588 C137 579 157 572 181 572 C239 572 270 626 270 704 L189 704 C187 683 182 672 164 672 C153 672 144 677 124 688 C107 697 86 706 63 706 C11 706 -30 661 -30 571 L-30 571 Z " />
<glyph glyph-name="Imacron" unicode="&#x12a;" horiz-adv-x="276" d="M50 0 L227 0 L227 715 L50 715 L50 0 Z M-5 762 L281 762 L281 863 L-5 863 L-5 762 Z " />
<glyph glyph-name="imacron" unicode="&#x12b;" horiz-adv-x="241" d="M39 0 L202 0 L202 512 L39 512 L39 0 Z M-10 587 L251 587 L251 688 L-10 688 L-10 587 Z " />
<glyph glyph-name="Ibreve" unicode="&#x12c;" horiz-adv-x="276" d="M50 0 L227 0 L227 715 L50 715 L50 0 Z M140 744 C233 744 296 804 300 889 L208 889 C205 864 179 842 139 842 C97 842 72 861 69 889 L-23 889 C-20 801 49 744 140 744 L140 744 Z " />
<glyph glyph-name="ibreve" unicode="&#x12d;" horiz-adv-x="241" d="M39 0 L202 0 L202 512 L39 512 L39 0 Z M122 566 C210 566 265 625 268 711 L178 711 C176 686 156 664 121 664 C84 664 65 683 62 711 L-28 711 C-26 622 36 566 122 566 L122 566 Z " />
<glyph glyph-name="Iogonek" unicode="&#x12e;" horiz-adv-x="276" d="M167 -177 C198 -177 217 -173 230 -168 L230 -83 L229 -83 C222 -86 214 -88 203 -88 C186 -88 175 -80 175 -63 C175 -42 191 -19 227 5 L227 715 L50 715 L50 0 L104 0 C74 -18 44 -48 44 -91 C44 -147 81 -177 167 -177 L167 -177 Z " />
<glyph glyph-name="iogonek" unicode="&#x12f;" horiz-adv-x="241" d="M142 -177 C173 -177 193 -173 206 -168 L206 -83 L205 -83 C198 -86 190 -88 179 -88 C163 -88 152 -80 152 -63 C152 -42 166 -20 202 4 L202 512 L39 512 L39 0 L91 0 C60 -15 22 -46 22 -93 C22 -147 61 -177 142 -177 L142 -177 Z M39 583 L202 583 L202 715 L39 715 L39 583 Z " />
<glyph glyph-name="Idotaccent" unicode="&#x130;" horiz-adv-x="276" d="M50 0 L227 0 L227 715 L50 715 L50 0 Z M57 753 L219 753 L219 883 L57 883 L57 753 Z " />
<glyph glyph-name="dotlessi" unicode="&#x131;" horiz-adv-x="241" d="M39 0 L202 0 L202 512 L39 512 L39 0 Z " />
<glyph glyph-name="IJ" unicode="&#x132;" horiz-adv-x="814" d="M50 0 L227 0 L227 715 L50 715 L50 0 Z M532 -13 C616 -13 681 14 721 58 C756 97 772 149 772 213 L772 715 L595 715 L595 217 C595 165 573 133 521 133 C472 133 443 158 443 219 L443 278 L282 278 L282 215 C282 79 363 -13 532 -13 L532 -13 Z " />
<glyph glyph-name="ij" unicode="&#x133;" horiz-adv-x="481" d="M39 0 L202 0 L202 512 L39 512 L39 0 Z M39 583 L202 583 L202 715 L39 715 L39 583 Z M285 -172 C334 -172 374 -161 403 -132 C427 -107 442 -72 442 -4 L442 512 L279 512 L279 4 C279 -51 250 -51 193 -51 L193 -164 C218 -169 257 -172 285 -172 L285 -172 Z M279 583 L442 583 L442 715 L279 715 L279 583 Z " />
<glyph glyph-name="Jcircumflex" unicode="&#x134;" horiz-adv-x="545" d="M263 -13 C347 -13 412 14 452 58 C487 97 503 149 503 213 L503 715 L326 715 L326 217 C326 165 304 133 252 133 C203 133 174 158 174 219 L174 278 L13 278 L13 215 C13 79 94 -13 263 -13 L263 -13 Z M228 750 L368 750 L414 804 L416 804 L461 750 L598 750 L491 875 L335 875 L228 750 Z " />
<glyph glyph-name="jcircumflex" unicode="&#x135;" horiz-adv-x="241" d="M-42 574 L90 574 L121 636 L123 636 L153 574 L282 574 L203 711 L39 711 L-42 574 Z M45 -172 C94 -172 134 -161 163 -132 C187 -107 202 -72 202 -4 L202 512 L39 512 L39 4 C39 -51 10 -51 -47 -51 L-47 -164 C-22 -169 17 -172 45 -172 L45 -172 Z " />
<glyph glyph-name="Kcommaaccent" unicode="&#x136;" horiz-adv-x="697" d="M272 -263 C348 -257 412 -220 412 -134 L412 -47 L275 -47 L275 -155 L338 -155 C338 -190 307 -207 272 -215 L272 -263 Z M49 0 L226 0 L226 246 L286 309 L492 0 L698 0 L408 428 L682 715 L472 715 L226 456 L226 715 L49 715 L49 0 Z " />
<glyph glyph-name="kcommaaccent" unicode="&#x137;" horiz-adv-x="560" d="M216 -263 C292 -257 356 -220 356 -134 L356 -47 L219 -47 L219 -155 L282 -155 C282 -190 251 -207 216 -215 L216 -263 Z M39 0 L200 0 L200 157 L249 209 L372 0 L561 0 L360 320 L540 512 L352 512 L200 339 L200 715 L39 715 L39 0 Z " />
<glyph glyph-name="Lacute" unicode="&#x139;" horiz-adv-x="565" d="M73 750 L197 750 L303 880 L116 880 L73 750 Z M49 0 L547 0 L547 150 L226 150 L226 715 L49 715 L49 0 Z " />
<glyph glyph-name="lacute" unicode="&#x13a;" horiz-adv-x="245" d="M57 750 L181 750 L287 880 L100 880 L57 750 Z M40 0 L205 0 L205 715 L40 715 L40 0 Z " />
<glyph glyph-name="Lcommaaccent" unicode="&#x13b;" horiz-adv-x="565" d="M228 -263 C304 -257 368 -220 368 -134 L368 -47 L231 -47 L231 -155 L294 -155 C294 -190 263 -207 228 -215 L228 -263 Z M49 0 L547 0 L547 150 L226 150 L226 715 L49 715 L49 0 Z " />
<glyph glyph-name="lcommaaccent" unicode="&#x13c;" horiz-adv-x="245" d="M53 -263 C129 -257 193 -220 193 -134 L193 -47 L56 -47 L56 -155 L119 -155 C119 -190 88 -207 53 -215 L53 -263 Z M40 0 L205 0 L205 715 L40 715 L40 0 Z " />
<glyph glyph-name="Lcaron" unicode="&#x13d;" horiz-adv-x="565" d="M331 514 C406 518 464 551 464 632 L464 715 L333 715 L333 608 L392 608 C392 580 368 568 331 563 L331 514 Z M49 0 L547 0 L547 150 L226 150 L226 715 L49 715 L49 0 Z " />
<glyph glyph-name="lcaron" unicode="&#x13e;" horiz-adv-x="245" d="M240 524 C311 528 366 559 366 636 L366 715 L241 715 L241 614 L298 614 C298 587 275 576 240 571 L240 524 Z M40 0 L205 0 L205 715 L40 715 L40 0 Z " />
<glyph glyph-name="Ldot" unicode="&#x13f;" horiz-adv-x="565" d="M49 0 L547 0 L547 150 L226 150 L226 715 L49 715 L49 0 Z M356 306 L527 306 L527 474 L356 474 L356 306 Z " />
<glyph glyph-name="ldot" unicode="&#x140;" horiz-adv-x="413" d="M40 0 L205 0 L205 715 L40 715 L40 0 Z M249 247 L409 247 L409 412 L249 412 L249 247 Z " />
<glyph glyph-name="Lslash" unicode="&#x141;" horiz-adv-x="572" d="M57 0 L555 0 L555 150 L234 150 L234 310 L425 410 L425 527 L234 427 L234 715 L57 715 L57 334 L-4 303 L-4 186 L57 217 L57 0 Z " />
<glyph glyph-name="lslash" unicode="&#x142;" horiz-adv-x="276" d="M55 0 L220 0 L220 352 L280 396 L280 513 L220 469 L220 715 L55 715 L55 347 L2 308 L2 191 L55 230 L55 0 Z " />
<glyph glyph-name="Nacute" unicode="&#x143;" horiz-adv-x="710" d="M296 750 L420 750 L526 880 L339 880 L296 750 Z M49 0 L222 0 L222 333 C222 358 220 450 220 450 L222 450 C222 450 261 373 273 354 L483 0 L661 0 L661 715 L488 715 L488 376 C488 351 490 265 490 265 L488 265 C488 265 450 336 439 356 L227 715 L49 715 L49 0 Z " />
<glyph glyph-name="nacute" unicode="&#x144;" horiz-adv-x="570" d="M224 572 L348 572 L469 720 L281 720 L224 572 Z M39 0 L202 0 L202 283 C202 346 238 391 292 391 C345 391 372 354 372 300 L372 0 L535 0 L535 333 C535 447 469 527 357 527 C286 527 237 497 199 442 L196 442 L196 512 L39 512 L39 0 Z " />
<glyph glyph-name="Ncommaaccent" unicode="&#x145;" horiz-adv-x="710" d="M282 -262 C358 -256 422 -219 422 -133 L422 -46 L285 -46 L285 -154 L348 -154 C348 -189 317 -206 282 -214 L282 -262 Z M49 0 L222 0 L222 333 C222 358 220 450 220 450 L222 450 C222 450 261 373 273 354 L483 0 L661 0 L661 715 L488 715 L488 376 C488 351 490 265 490 265 L488 265 C488 265 450 336 439 356 L227 715 L49 715 L49 0 Z " />
<glyph glyph-name="ncommaaccent" unicode="&#x146;" horiz-adv-x="570" d="M217 -263 C293 -257 357 -220 357 -134 L357 -47 L220 -47 L220 -155 L283 -155 C283 -190 252 -207 217 -215 L217 -263 Z M39 0 L202 0 L202 283 C202 346 238 391 292 391 C345 391 372 354 372 300 L372 0 L535 0 L535 333 C535 447 469 527 357 527 C286 527 237 497 199 442 L196 442 L196 512 L39 512 L39 0 Z " />
<glyph glyph-name="Ncaron" unicode="&#x147;" horiz-adv-x="710" d="M283 750 L440 750 L546 875 L406 875 L361 821 L359 821 L314 875 L177 875 L283 750 Z M49 0 L222 0 L222 333 C222 358 220 450 220 450 L222 450 C222 450 261 373 273 354 L483 0 L661 0 L661 715 L488 715 L488 376 C488 351 490 265 490 265 L488 265 C488 265 450 336 439 356 L227 715 L49 715 L49 0 Z " />
<glyph glyph-name="ncaron" unicode="&#x148;" horiz-adv-x="570" d="M212 571 L369 571 L475 709 L335 709 L290 643 L288 643 L243 709 L106 709 L212 571 Z M39 0 L202 0 L202 283 C202 346 238 391 292 391 C345 391 372 354 372 300 L372 0 L535 0 L535 333 C535 447 469 527 357 527 C286 527 237 497 199 442 L196 442 L196 512 L39 512 L39 0 Z " />
<glyph glyph-name="napostrophe" unicode="&#x149;" horiz-adv-x="570" d="M39 0 L202 0 L202 283 C202 346 238 391 292 391 C345 391 372 354 372 300 L372 0 L535 0 L535 333 C535 447 469 527 357 527 C286 527 237 497 199 442 L196 442 L196 512 L39 512 L39 0 Z M-42 518 C32 522 88 554 88 633 L88 715 L-41 715 L-41 611 L18 611 C18 583 -7 571 -42 567 L-42 518 Z " />
<glyph glyph-name="Omacron" unicode="&#x14c;" horiz-adv-x="747" d="M230 762 L516 762 L516 863 L230 863 L230 762 Z M374 127 C259 127 200 226 200 356 C200 486 259 586 374 586 C490 586 547 486 547 356 C547 226 490 127 374 127 L374 127 Z M373 -17 C590 -17 727 142 727 356 C727 570 590 729 373 729 C157 729 20 570 20 356 C20 142 157 -17 373 -17 L373 -17 Z " />
<glyph glyph-name="omacron" unicode="&#x14d;" horiz-adv-x="579" d="M147 587 L433 587 L433 688 L147 688 L147 587 Z M289 100 C218 100 181 162 181 255 C181 348 218 411 289 411 C360 411 398 348 398 255 C398 162 360 100 289 100 L289 100 Z M290 -16 C455 -16 563 101 563 255 C563 409 455 526 290 526 C126 526 16 409 16 255 C16 101 126 -16 290 -16 L290 -16 Z " />
<glyph glyph-name="Obreve" unicode="&#x14e;" horiz-adv-x="747" d="M375 744 C468 744 531 804 535 889 L443 889 C440 864 414 842 374 842 C332 842 307 861 304 889 L212 889 C215 801 284 744 375 744 L375 744 Z M374 127 C259 127 200 226 200 356 C200 486 259 586 374 586 C490 586 547 486 547 356 C547 226 490 127 374 127 L374 127 Z M373 -17 C590 -17 727 142 727 356 C727 570 590 729 373 729 C157 729 20 570 20 356 C20 142 157 -17 373 -17 L373 -17 Z " />
<glyph glyph-name="obreve" unicode="&#x14f;" horiz-adv-x="579" d="M289 100 C218 100 181 162 181 255 C181 348 218 411 289 411 C360 411 398 348 398 255 C398 162 360 100 289 100 L289 100 Z M290 -16 C455 -16 563 101 563 255 C563 409 455 526 290 526 C126 526 16 409 16 255 C16 101 126 -16 290 -16 L290 -16 Z M291 566 C384 566 447 626 451 711 L359 711 C356 686 330 664 290 664 C248 664 223 683 220 711 L128 711 C131 623 200 566 291 566 L291 566 Z " />
<glyph glyph-name="Ohungarumlaut" unicode="&#x150;" horiz-adv-x="747" d="M374 127 C259 127 200 226 200 356 C200 486 259 586 374 586 C490 586 547 486 547 356 C547 226 490 127 374 127 L374 127 Z M373 -17 C590 -17 727 142 727 356 C727 570 590 729 373 729 C157 729 20 570 20 356 C20 142 157 -17 373 -17 L373 -17 Z M221 750 L322 750 L424 890 L266 890 L221 750 Z M416 750 L517 750 L620 890 L462 890 L416 750 Z " />
<glyph glyph-name="ohungarumlaut" unicode="&#x151;" horiz-adv-x="579" d="M138 572 L239 572 L345 720 L187 720 L138 572 Z M333 572 L434 572 L540 720 L382 720 L333 572 Z M289 100 C218 100 181 162 181 255 C181 348 218 411 289 411 C360 411 398 348 398 255 C398 162 360 100 289 100 L289 100 Z M290 -16 C455 -16 563 101 563 255 C563 409 455 526 290 526 C126 526 16 409 16 255 C16 101 126 -16 290 -16 L290 -16 Z " />
<glyph glyph-name="OE" unicode="&#x152;" horiz-adv-x="1077" d="M357 -17 C431 -17 486 11 529 50 L529 0 L1046 0 L1046 155 L695 155 L695 302 L983 302 L983 439 L695 439 L695 568 L1036 568 L1036 715 L529 715 L529 665 C487 703 432 729 349 729 C158 729 20 570 20 356 C20 142 158 -17 357 -17 L357 -17 Z M368 127 C258 127 200 226 200 356 C200 486 258 586 368 586 C451 586 494 541 518 495 L518 215 C499 175 451 127 368 127 L368 127 Z " />
<glyph glyph-name="oe" unicode="&#x153;" horiz-adv-x="938" d="M290 -16 C371 -16 434 13 477 59 C521 13 584 -15 666 -15 C732 -15 784 2 827 32 C871 63 902 107 912 153 L754 153 C739 121 712 102 669 102 C602 102 564 145 553 214 L921 214 C922 318 892 408 832 463 C788 503 730 527 656 527 C580 527 519 498 476 452 C433 498 370 526 290 526 C126 526 16 409 16 255 C16 101 126 -16 290 -16 L290 -16 Z M289 100 C218 100 181 162 181 255 C181 348 218 411 289 411 C360 411 398 348 398 255 C398 162 360 100 289 100 L289 100 Z M554 311 C565 372 597 411 659 411 C713 411 750 372 756 311 L554 311 Z " />
<glyph glyph-name="Racute" unicode="&#x154;" horiz-adv-x="671" d="M49 0 L226 0 L226 268 L333 268 C409 268 443 232 452 166 C463 95 460 11 479 0 L651 0 L651 9 C626 18 636 108 621 202 C611 273 579 312 517 333 L517 336 C600 365 641 426 641 509 C641 642 533 715 391 715 L49 715 L49 0 Z M226 399 L226 575 L363 575 C431 575 465 538 465 486 C465 432 429 399 359 399 L226 399 Z M263 750 L387 750 L493 880 L306 880 L263 750 Z " />
<glyph glyph-name="racute" unicode="&#x155;" horiz-adv-x="383" d="M153 572 L277 572 L398 720 L210 720 L153 572 Z M39 0 L202 0 L202 230 C202 341 266 390 366 376 L370 376 L370 516 C363 519 353 520 338 520 C276 520 234 493 198 432 L195 432 L195 512 L39 512 L39 0 Z " />
<glyph glyph-name="Rcommaaccent" unicode="&#x156;" horiz-adv-x="671" d="M268 -263 C344 -257 408 -220 408 -134 L408 -47 L271 -47 L271 -155 L334 -155 C334 -190 303 -207 268 -215 L268 -263 Z M49 0 L226 0 L226 268 L333 268 C409 268 443 232 452 166 C463 95 460 11 479 0 L651 0 L651 9 C626 18 636 108 621 202 C611 273 579 312 517 333 L517 336 C600 365 641 426 641 509 C641 642 533 715 391 715 L49 715 L49 0 Z M226 399 L226 575 L363 575 C431 575 465 538 465 486 C465 432 429 399 359 399 L226 399 Z " />
<glyph glyph-name="rcommaaccent" unicode="&#x157;" horiz-adv-x="383" d="M46 -263 C122 -257 186 -220 186 -134 L186 -47 L49 -47 L49 -155 L112 -155 C112 -190 81 -207 46 -215 L46 -263 Z M39 0 L202 0 L202 230 C202 341 266 390 366 376 L370 376 L370 516 C363 519 353 520 338 520 C276 520 234 493 198 432 L195 432 L195 512 L39 512 L39 0 Z " />
<glyph glyph-name="Rcaron" unicode="&#x158;" horiz-adv-x="671" d="M251 750 L408 750 L514 875 L374 875 L329 821 L327 821 L282 875 L145 875 L251 750 Z M49 0 L226 0 L226 268 L333 268 C409 268 443 232 452 166 C463 95 460 11 479 0 L651 0 L651 9 C626 18 636 108 621 202 C611 273 579 312 517 333 L517 336 C600 365 641 426 641 509 C641 642 533 715 391 715 L49 715 L49 0 Z M226 399 L226 575 L363 575 C431 575 465 538 465 486 C465 432 429 399 359 399 L226 399 Z " />
<glyph glyph-name="rcaron" unicode="&#x159;" horiz-adv-x="383" d="M140 571 L297 571 L403 709 L263 709 L218 643 L216 643 L171 709 L34 709 L140 571 Z M39 0 L202 0 L202 230 C202 341 266 390 366 376 L370 376 L370 516 C363 519 353 520 338 520 C276 520 234 493 198 432 L195 432 L195 512 L39 512 L39 0 Z " />
<glyph glyph-name="Sacute" unicode="&#x15a;" horiz-adv-x="650" d="M334 -17 C499 -17 627 66 627 216 C627 369 507 410 374 441 C267 465 212 477 212 527 C212 567 253 594 315 594 C381 594 423 563 430 508 L603 508 C596 658 476 728 321 728 C161 728 37 661 37 508 C37 358 168 320 292 291 C390 267 448 255 448 198 C448 144 391 123 333 123 C248 123 201 153 193 225 L15 225 C19 67 144 -17 334 -17 L334 -17 Z M256 750 L380 750 L486 880 L299 880 L256 750 Z " />
<glyph glyph-name="sacute" unicode="&#x15b;" horiz-adv-x="504" d="M185 572 L309 572 L430 720 L242 720 L185 572 Z M257 -16 C391 -16 490 42 490 154 C490 285 384 308 294 323 C229 335 171 340 171 376 C171 408 202 423 242 423 C287 423 318 409 324 363 L474 363 C466 464 388 527 243 527 C122 527 22 471 22 363 C22 243 117 219 206 204 C274 192 336 187 336 141 C336 108 305 90 256 90 C202 90 168 115 162 166 L8 166 C13 53 107 -16 257 -16 L257 -16 Z " />
<glyph glyph-name="Scircumflex" unicode="&#x15c;" horiz-adv-x="650" d="M334 -17 C499 -17 627 66 627 216 C627 369 507 410 374 441 C267 465 212 477 212 527 C212 567 253 594 315 594 C381 594 423 563 430 508 L603 508 C596 658 476 728 321 728 C161 728 37 661 37 508 C37 358 168 320 292 291 C390 267 448 255 448 198 C448 144 391 123 333 123 C248 123 201 153 193 225 L15 225 C19 67 144 -17 334 -17 L334 -17 Z M137 750 L277 750 L323 804 L325 804 L370 750 L507 750 L400 875 L244 875 L137 750 Z " />
<glyph glyph-name="scircumflex" unicode="&#x15d;" horiz-adv-x="504" d="M66 574 L206 574 L252 640 L254 640 L299 574 L436 574 L329 711 L173 711 L66 574 Z M257 -16 C391 -16 490 42 490 154 C490 285 384 308 294 323 C229 335 171 340 171 376 C171 408 202 423 242 423 C287 423 318 409 324 363 L474 363 C466 464 388 527 243 527 C122 527 22 471 22 363 C22 243 117 219 206 204 C274 192 336 187 336 141 C336 108 305 90 256 90 C202 90 168 115 162 166 L8 166 C13 53 107 -16 257 -16 L257 -16 Z " />
<glyph glyph-name="Scedilla" unicode="&#x15e;" horiz-adv-x="650" d="M298 -193 C369 -193 423 -164 423 -116 C423 -64 374 -43 317 -49 L317 -47 L353 -16 C509 -10 627 72 627 216 C627 369 507 410 374 441 C267 465 212 477 212 527 C212 567 253 594 315 594 C381 594 423 563 430 508 L603 508 C596 658 476 728 321 728 C161 728 37 661 37 508 C37 358 168 320 292 291 C390 267 448 255 448 198 C448 144 391 123 333 123 C248 123 201 153 193 225 L15 225 C18 78 127 -4 294 -15 L239 -71 L256 -95 C267 -91 278 -88 291 -88 C312 -88 329 -96 329 -115 C329 -136 303 -144 275 -144 C251 -144 225 -138 206 -129 L186 -164 C214 -181 251 -193 298 -193 L298 -193 Z " />
<glyph glyph-name="scedilla" unicode="&#x15f;" horiz-adv-x="504" d="M227 -193 C298 -193 352 -164 352 -116 C352 -64 303 -43 246 -49 L246 -47 L284 -15 C404 -7 490 49 490 154 C490 285 384 308 294 323 C229 335 171 340 171 376 C171 408 202 423 242 423 C287 423 318 409 324 363 L474 363 C466 464 388 527 243 527 C122 527 22 471 22 363 C22 243 117 219 206 204 C274 192 336 187 336 141 C336 108 305 90 256 90 C202 90 168 115 162 166 L8 166 C12 61 93 -5 224 -15 L168 -71 L185 -95 C196 -91 207 -88 220 -88 C241 -88 258 -96 258 -115 C258 -136 232 -144 204 -144 C180 -144 154 -138 135 -129 L115 -164 C143 -181 180 -193 227 -193 L227 -193 Z " />
<glyph glyph-name="Scaron" unicode="&#x160;" horiz-adv-x="650" d="M334 -17 C499 -17 627 66 627 216 C627 369 507 410 374 441 C267 465 212 477 212 527 C212 567 253 594 315 594 C381 594 423 563 430 508 L603 508 C596 658 476 728 321 728 C161 728 37 661 37 508 C37 358 168 320 292 291 C390 267 448 255 448 198 C448 144 391 123 333 123 C248 123 201 153 193 225 L15 225 C19 67 144 -17 334 -17 L334 -17 Z M244 750 L401 750 L507 875 L367 875 L322 821 L320 821 L275 875 L138 875 L244 750 Z " />
<glyph glyph-name="scaron" unicode="&#x161;" horiz-adv-x="504" d="M172 571 L329 571 L435 709 L295 709 L250 643 L248 643 L203 709 L66 709 L172 571 Z M257 -16 C391 -16 490 42 490 154 C490 285 384 308 294 323 C229 335 171 340 171 376 C171 408 202 423 242 423 C287 423 318 409 324 363 L474 363 C466 464 388 527 243 527 C122 527 22 471 22 363 C22 243 117 219 206 204 C274 192 336 187 336 141 C336 108 305 90 256 90 C202 90 168 115 162 166 L8 166 C13 53 107 -16 257 -16 L257 -16 Z " />
<glyph glyph-name="Tcommaaccent" unicode="&#x162;" horiz-adv-x="629" d="M244 -263 C320 -257 384 -220 384 -134 L384 -47 L247 -47 L247 -155 L310 -155 C310 -190 279 -207 244 -215 L244 -263 Z M225 0 L402 0 L402 565 L612 565 L612 715 L17 715 L17 565 L225 565 L225 0 Z " />
<glyph glyph-name="tcommaaccent" unicode="&#x163;" horiz-adv-x="351" d="M125 -263 C201 -257 265 -220 265 -134 L265 -47 L128 -47 L128 -155 L191 -155 C191 -190 160 -207 125 -215 L125 -263 Z M242 -6 C286 -6 317 -2 331 2 L331 121 C325 121 309 120 295 120 C260 120 238 130 238 170 L238 410 L331 410 L331 512 L238 512 L238 674 L79 674 L79 512 L11 512 L11 410 L79 410 L79 135 C79 25 147 -6 242 -6 L242 -6 Z " />
<glyph glyph-name="Tcaron" unicode="&#x164;" horiz-adv-x="629" d="M236 750 L393 750 L499 875 L359 875 L314 821 L312 821 L267 875 L130 875 L236 750 Z M225 0 L402 0 L402 565 L612 565 L612 715 L17 715 L17 565 L225 565 L225 0 Z " />
<glyph glyph-name="tcaron" unicode="&#x165;" horiz-adv-x="351" d="M11 410 L79 410 L79 135 C79 25 147 -6 242 -6 C286 -6 317 -2 331 2 L331 121 C326 121 309 120 295 120 C260 120 238 131 238 170 L238 410 L331 410 L331 512 L238 512 L238 674 L79 674 L79 512 L11 512 L11 410 Z M273 533 C347 536 399 568 399 638 L399 715 L274 715 L274 620 L331 620 C331 596 308 584 273 580 L273 533 Z " />
<glyph glyph-name="Tbar" unicode="&#x166;" horiz-adv-x="629" d="M91 295 L225 295 L225 0 L402 0 L402 295 L538 295 L538 400 L402 400 L402 565 L612 565 L612 715 L17 715 L17 565 L225 565 L225 400 L91 400 L91 295 Z " />
<glyph glyph-name="tbar" unicode="&#x167;" horiz-adv-x="351" d="M11 410 L79 410 L79 349 L10 349 L10 267 L79 267 L79 135 C79 25 147 -6 242 -6 C286 -6 317 -2 331 2 L331 121 C325 121 309 120 295 120 C260 120 238 131 238 170 L238 267 L331 267 L331 349 L238 349 L238 410 L331 410 L331 512 L238 512 L238 674 L79 674 L79 512 L11 512 L11 410 Z " />
<glyph glyph-name="Utilde" unicode="&#x168;" horiz-adv-x="686" d="M344 -13 C543 -13 642 87 642 252 L642 715 L465 715 L465 249 C465 179 426 129 344 129 C257 129 221 176 221 246 L221 715 L44 715 L44 252 C44 85 144 -13 344 -13 L344 -13 Z M280 750 C306 750 363 770 372 799 C374 799 377 800 380 803 C408 808 415 842 403 886 C380 886 321 869 311 837 L306 834 C283 830 268 801 280 750 L280 750 Z M330 808 C329 809 328 810 328 811 C332 809 335 808 330 808 L330 808 Z M355 829 C355 828 356 827 357 826 C353 828 351 829 355 829 L355 829 Z " />
<glyph glyph-name="utilde" unicode="&#x169;" horiz-adv-x="566" d="M215 -15 C286 -15 331 13 368 63 L371 63 L371 0 L527 0 L527 512 L364 512 L364 226 C364 165 330 123 274 123 C222 123 197 154 197 210 L197 512 L35 512 L35 176 C35 62 97 -15 215 -15 L215 -15 Z M116 571 L200 571 C203 594 214 607 230 607 C246 607 258 599 282 588 C301 580 322 572 348 572 C413 572 448 626 448 704 L364 704 C361 683 355 669 334 669 C319 669 307 676 285 687 C267 697 244 706 219 706 C162 706 116 661 116 571 L116 571 Z " />
<glyph glyph-name="Umacron" unicode="&#x16a;" horiz-adv-x="686" d="M199 762 L485 762 L485 863 L199 863 L199 762 Z M344 -13 C543 -13 642 87 642 252 L642 715 L465 715 L465 249 C465 179 426 129 344 129 C257 129 221 176 221 246 L221 715 L44 715 L44 252 C44 85 144 -13 344 -13 L344 -13 Z " />
<glyph glyph-name="umacron" unicode="&#x16b;" horiz-adv-x="566" d="M215 -15 C286 -15 331 13 368 63 L371 63 L371 0 L527 0 L527 512 L364 512 L364 226 C364 165 330 123 274 123 C222 123 197 154 197 210 L197 512 L35 512 L35 176 C35 62 97 -15 215 -15 L215 -15 Z M139 587 L425 587 L425 688 L139 688 L139 587 Z " />
<glyph glyph-name="Ubreve" unicode="&#x16c;" horiz-adv-x="686" d="M344 744 C437 744 500 804 504 889 L412 889 C409 864 383 842 343 842 C301 842 276 861 273 889 L181 889 C184 801 253 744 344 744 L344 744 Z M344 -13 C543 -13 642 87 642 252 L642 715 L465 715 L465 249 C465 179 426 129 344 129 C257 129 221 176 221 246 L221 715 L44 715 L44 252 C44 85 144 -13 344 -13 L344 -13 Z " />
<glyph glyph-name="ubreve" unicode="&#x16d;" horiz-adv-x="566" d="M215 -15 C286 -15 331 13 368 63 L371 63 L371 0 L527 0 L527 512 L364 512 L364 226 C364 165 330 123 274 123 C222 123 197 154 197 210 L197 512 L35 512 L35 176 C35 62 97 -15 215 -15 L215 -15 Z M283 566 C376 566 439 626 443 711 L351 711 C348 686 322 664 282 664 C240 664 215 683 212 711 L120 711 C123 623 192 566 283 566 L283 566 Z " />
<glyph glyph-name="Uring" unicode="&#x16e;" horiz-adv-x="686" d="M344 -13 C543 -13 642 87 642 252 L642 715 L465 715 L465 249 C465 179 426 129 344 129 C257 129 221 176 221 246 L221 715 L44 715 L44 252 C44 85 144 -13 344 -13 L344 -13 Z M342 782 C318 782 301 802 301 825 C301 848 318 868 342 868 C367 868 384 848 384 825 C384 802 367 782 342 782 L342 782 Z M342 727 C398 727 444 769 444 825 C444 880 398 923 342 923 C287 923 240 880 240 825 C240 769 287 727 342 727 L342 727 Z " />
<glyph glyph-name="uring" unicode="&#x16f;" horiz-adv-x="566" d="M281 614 C257 614 240 633 240 656 C240 679 257 699 281 699 C306 699 323 679 323 656 C323 633 306 614 281 614 L281 614 Z M281 558 C337 558 383 601 383 656 C383 711 337 755 281 755 C226 755 179 711 179 656 C179 601 226 558 281 558 L281 558 Z M215 -15 C286 -15 331 13 368 63 L371 63 L371 0 L527 0 L527 512 L364 512 L364 226 C364 165 330 123 274 123 C222 123 197 154 197 210 L197 512 L35 512 L35 176 C35 62 97 -15 215 -15 L215 -15 Z " />
<glyph glyph-name="Uhungarumlaut" unicode="&#x170;" horiz-adv-x="686" d="M344 -13 C543 -13 642 87 642 252 L642 715 L465 715 L465 249 C465 179 426 129 344 129 C257 129 221 176 221 246 L221 715 L44 715 L44 252 C44 85 144 -13 344 -13 L344 -13 Z M190 750 L291 750 L393 890 L235 890 L190 750 Z M385 750 L486 750 L589 890 L431 890 L385 750 Z " />
<glyph glyph-name="uhungarumlaut" unicode="&#x171;" horiz-adv-x="566" d="M215 -15 C286 -15 331 13 368 63 L371 63 L371 0 L527 0 L527 512 L364 512 L364 226 C364 165 330 123 274 123 C222 123 197 154 197 210 L197 512 L35 512 L35 176 C35 62 97 -15 215 -15 L215 -15 Z M130 572 L231 572 L337 720 L179 720 L130 572 Z M325 572 L426 572 L532 720 L374 720 L325 572 Z " />
<glyph glyph-name="Uogonek" unicode="&#x172;" horiz-adv-x="686" d="M399 -177 C430 -177 449 -173 462 -168 L462 -83 L461 -83 C454 -86 446 -88 435 -88 C418 -88 407 -80 407 -63 C407 -29 440 -12 501 18 C595 59 642 139 642 252 L642 715 L465 715 L465 249 C465 179 426 129 344 129 C257 129 221 176 221 246 L221 715 L44 715 L44 252 C44 91 136 -5 320 -12 C298 -30 276 -55 276 -93 C276 -147 313 -177 399 -177 L399 -177 Z " />
<glyph glyph-name="uogonek" unicode="&#x173;" horiz-adv-x="566" d="M466 -177 C498 -177 517 -173 530 -168 L530 -83 L529 -83 C522 -86 514 -88 503 -88 C486 -88 475 -80 475 -63 C475 -42 491 -19 527 6 L527 512 L364 512 L364 226 C364 165 330 123 274 123 C222 123 197 154 197 210 L197 512 L35 512 L35 176 C35 62 97 -15 215 -15 C286 -15 331 13 368 63 L371 63 L371 0 L416 0 C384 -15 345 -46 345 -93 C345 -147 384 -177 466 -177 L466 -177 Z " />
<glyph glyph-name="Wcircumflex" unicode="&#x174;" horiz-adv-x="940" d="M196 0 L370 0 L445 343 C457 400 469 476 469 476 L471 476 C471 476 483 400 496 343 L571 0 L744 0 L940 715 L762 715 L691 417 C675 346 655 238 655 238 L653 238 C653 238 635 337 619 410 L552 715 L388 715 L321 408 C305 336 286 238 286 238 L284 238 C284 238 267 346 251 415 L179 715 L0 715 L196 0 Z M285 750 L425 750 L471 804 L473 804 L518 750 L655 750 L548 875 L392 875 L285 750 Z " />
<glyph glyph-name="wcircumflex" unicode="&#x175;" horiz-adv-x="783" d="M206 574 L346 574 L392 640 L394 640 L439 574 L576 574 L469 711 L313 711 L206 574 Z M155 0 L306 0 L367 232 C378 272 390 324 390 324 L392 324 C392 324 403 272 414 232 L474 0 L627 0 L784 512 L623 512 L566 300 C555 259 542 200 542 200 L540 200 C540 200 527 259 516 303 L460 512 L322 512 L268 303 C257 260 245 201 245 201 L243 201 C243 201 231 259 220 300 L164 512 L-2 512 L155 0 Z " />
<glyph glyph-name="Ycircumflex" unicode="&#x176;" horiz-adv-x="663" d="M243 0 L420 0 L420 264 L662 715 L475 715 L384 530 C360 481 335 421 335 421 L333 421 C333 421 310 481 286 530 L194 715 L1 715 L243 264 L243 0 Z M148 750 L288 750 L334 804 L336 804 L381 750 L518 750 L411 875 L255 875 L148 750 Z " />
<glyph glyph-name="ycircumflex" unicode="&#x177;" horiz-adv-x="529" d="M56 -169 L162 -169 C265 -169 314 -127 355 -7 L532 512 L369 512 L302 294 C286 244 272 176 272 176 L270 176 C270 176 254 244 238 294 L169 512 L-3 512 L148 118 C169 64 179 34 179 12 C179 -23 160 -42 112 -42 L56 -42 L56 -169 Z M82 574 L222 574 L268 640 L270 640 L315 574 L452 574 L345 711 L189 711 L82 574 Z " />
<glyph glyph-name="Ydieresis" unicode="&#x178;" horiz-adv-x="663" d="M243 0 L420 0 L420 264 L662 715 L475 715 L384 530 C360 481 335 421 335 421 L333 421 C333 421 310 481 286 530 L194 715 L1 715 L243 264 L243 0 Z M149 753 L302 753 L302 881 L149 881 L149 753 Z M364 753 L517 753 L517 881 L364 881 L364 753 Z " />
<glyph glyph-name="Zacute" unicode="&#x179;" horiz-adv-x="648" d="M26 0 L621 0 L621 151 L329 151 C307 151 250 149 250 149 L250 152 C250 152 291 197 308 216 L608 576 L608 715 L51 715 L51 565 L315 565 C331 565 383 567 383 567 L383 564 C383 564 347 525 335 511 L26 141 L26 0 Z M266 750 L390 750 L496 880 L309 880 L266 750 Z " />
<glyph glyph-name="zacute" unicode="&#x17a;" horiz-adv-x="505" d="M203 572 L327 572 L448 720 L260 720 L203 572 Z M24 0 L483 0 L483 126 L298 126 C275 126 222 125 222 125 L222 128 C222 128 259 166 274 181 L468 392 L468 512 L48 512 L48 387 L208 387 C224 387 271 388 271 388 L271 385 C271 385 240 353 227 340 L24 121 L24 0 Z " />
<glyph glyph-name="Zdotaccent" unicode="&#x17b;" horiz-adv-x="648" d="M251 753 L413 753 L413 883 L251 883 L251 753 Z M26 0 L621 0 L621 151 L329 151 C307 151 250 149 250 149 L250 152 C250 152 291 197 308 216 L608 576 L608 715 L51 715 L51 565 L315 565 C331 565 383 567 383 567 L383 564 C383 564 347 525 335 511 L26 141 L26 0 Z " />
<glyph glyph-name="zdotaccent" unicode="&#x17c;" horiz-adv-x="505" d="M24 0 L483 0 L483 126 L298 126 C275 126 222 125 222 125 L222 128 C222 128 259 166 274 181 L468 392 L468 512 L48 512 L48 387 L208 387 C224 387 271 388 271 388 L271 385 C271 385 240 353 227 340 L24 121 L24 0 Z M188 583 L350 583 L350 715 L188 715 L188 583 Z " />
<glyph glyph-name="Zcaron" unicode="&#x17d;" horiz-adv-x="648" d="M254 750 L411 750 L517 875 L377 875 L332 821 L330 821 L285 875 L148 875 L254 750 Z M26 0 L621 0 L621 151 L329 151 C307 151 250 149 250 149 L250 152 C250 152 291 197 308 216 L608 576 L608 715 L51 715 L51 565 L315 565 C331 565 383 567 383 567 L383 564 C383 564 347 525 335 511 L26 141 L26 0 Z " />
<glyph glyph-name="zcaron" unicode="&#x17e;" horiz-adv-x="505" d="M191 571 L348 571 L454 709 L314 709 L269 643 L267 643 L222 709 L85 709 L191 571 Z M24 0 L483 0 L483 126 L298 126 C275 126 222 125 222 125 L222 128 C222 128 259 166 274 181 L468 392 L468 512 L48 512 L48 387 L208 387 C224 387 271 388 271 388 L271 385 C271 385 240 353 227 340 L24 121 L24 0 Z " />
<glyph glyph-name="florin" unicode="&#x192;" horiz-adv-x="425" d="M-17 -151 C53 -160 123 -163 168 -129 C201 -104 218 -66 226 -11 L273 315 L385 315 L385 417 L288 417 L304 528 C312 582 344 583 402 579 L402 693 C322 703 244 702 195 660 C164 634 147 598 140 546 L121 417 L29 417 L29 315 L106 315 L61 8 C54 -46 29 -48 -17 -45 L-17 -151 Z " />
<glyph glyph-name="AEacute" unicode="&#x1fc;" horiz-adv-x="995" d="M523 750 L647 750 L753 880 L566 880 L523 750 Z M-1 0 L174 0 L215 126 L431 126 L431 0 L966 0 L966 155 L610 155 L610 302 L903 302 L903 439 L610 439 L610 568 L955 568 L955 715 L241 715 L-1 0 Z M255 249 L358 568 L431 568 L431 249 L255 249 Z " />
<glyph glyph-name="aeacute" unicode="&#x1fd;" horiz-adv-x="885" d="M388 572 L512 572 L633 720 L445 720 L388 572 Z M213 -14 C313 -14 367 12 419 67 C463 17 530 -15 616 -15 C684 -15 738 3 781 36 C823 67 852 109 862 153 L704 153 C689 121 662 102 619 102 C552 102 514 145 503 214 L871 214 C872 323 839 416 773 471 C730 507 675 527 606 527 C541 527 487 507 446 472 C407 514 347 526 275 526 C119 526 45 445 41 350 L191 350 C195 393 222 416 276 416 C327 416 348 394 348 361 C348 326 315 317 215 304 C107 289 18 256 18 143 C18 42 96 -14 213 -14 L213 -14 Z M245 91 C205 91 173 107 173 148 C173 187 198 203 265 217 C299 225 331 233 352 244 L352 183 C352 128 308 91 245 91 L245 91 Z M609 411 C663 411 700 372 706 311 L504 311 C515 372 547 411 609 411 L609 411 Z " />
<glyph glyph-name="Oslashacute" unicode="&#x1fe;" horiz-adv-x="747" d="M77 -35 L155 53 C213 9 286 -17 373 -17 C590 -17 727 142 727 356 C727 453 698 540 646 605 L725 693 L669 742 L593 657 C536 702 461 729 373 729 C157 729 20 570 20 356 C20 257 49 170 102 105 L22 15 L77 -35 Z M220 237 C206 272 200 312 200 356 C200 486 259 586 374 586 C422 586 460 568 488 539 L220 237 Z M374 127 C327 127 289 143 261 172 L528 472 C541 438 547 398 547 356 C547 226 490 127 374 127 L374 127 Z M307 750 L431 750 L537 880 L350 880 L307 750 Z " />
<glyph glyph-name="oslashacute" unicode="&#x1ff;" horiz-adv-x="579" d="M71 -36 L130 30 C174 1 228 -16 290 -16 C455 -16 563 101 563 255 C563 327 539 391 497 439 L553 501 L509 543 L451 479 C407 508 353 526 290 526 C126 526 16 409 16 255 C16 182 40 118 84 70 L27 7 L71 -36 Z M289 100 C260 100 236 110 219 129 L390 319 C395 300 398 279 398 255 C398 162 360 100 289 100 L289 100 Z M190 189 C184 208 181 231 181 255 C181 348 218 411 289 411 C319 411 343 400 362 379 L190 189 Z M224 572 L348 572 L469 720 L281 720 L224 572 Z " />
<glyph glyph-name="Scommaaccent" unicode="&#x218;" horiz-adv-x="650" d="M252 -263 C328 -257 392 -220 392 -134 L392 -47 L255 -47 L255 -155 L318 -155 C318 -190 287 -207 252 -215 L252 -263 Z M334 -17 C499 -17 627 66 627 216 C627 369 507 410 374 441 C267 465 212 477 212 527 C212 567 253 594 315 594 C381 594 423 563 430 508 L603 508 C596 658 476 728 321 728 C161 728 37 661 37 508 C37 358 168 320 292 291 C390 267 448 255 448 198 C448 144 391 123 333 123 C248 123 201 153 193 225 L15 225 C19 67 144 -17 334 -17 L334 -17 Z " />
<glyph glyph-name="scommaaccent" unicode="&#x219;" horiz-adv-x="504" d="M181 -263 C257 -257 321 -220 321 -134 L321 -47 L184 -47 L184 -155 L247 -155 C247 -190 216 -207 181 -215 L181 -263 Z M257 -16 C391 -16 490 42 490 154 C490 285 384 308 294 323 C229 335 171 340 171 376 C171 408 202 423 242 423 C287 423 318 409 324 363 L474 363 C466 464 388 527 243 527 C122 527 22 471 22 363 C22 243 117 219 206 204 C274 192 336 187 336 141 C336 108 305 90 256 90 C202 90 168 115 162 166 L8 166 C13 53 107 -16 257 -16 L257 -16 Z " />
<glyph glyph-name="uni021A" unicode="&#x21a;" horiz-adv-x="629" d="M244 -263 C320 -257 384 -220 384 -134 L384 -47 L247 -47 L247 -155 L310 -155 C310 -190 279 -207 244 -215 L244 -263 Z M225 0 L402 0 L402 565 L612 565 L612 715 L17 715 L17 565 L225 565 L225 0 Z " />
<glyph glyph-name="uni021B" unicode="&#x21b;" horiz-adv-x="351" d="M125 -263 C201 -257 265 -220 265 -134 L265 -47 L128 -47 L128 -155 L191 -155 C191 -190 160 -207 125 -215 L125 -263 Z M242 -6 C286 -6 317 -2 331 2 L331 121 C325 121 309 120 295 120 C260 120 238 130 238 170 L238 410 L331 410 L331 512 L238 512 L238 674 L79 674 L79 512 L11 512 L11 410 L79 410 L79 135 C79 25 147 -6 242 -6 L242 -6 Z " />
<glyph glyph-name="uni0237" unicode="&#x237;" horiz-adv-x="241" d="M45 -172 C94 -172 134 -161 163 -132 C187 -107 202 -72 202 -4 L202 512 L39 512 L39 4 C39 -51 10 -51 -47 -51 L-47 -164 C-22 -169 17 -172 45 -172 L45 -172 Z " />
<glyph glyph-name="circumflex" unicode="&#x2c6;" horiz-adv-x="500" d="M65 574 L205 574 L251 640 L253 640 L298 574 L435 574 L328 711 L172 711 L65 574 Z " />
<glyph glyph-name="caron" unicode="&#x2c7;" horiz-adv-x="500" d="M172 571 L329 571 L435 709 L295 709 L250 643 L248 643 L203 709 L66 709 L172 571 Z " />
<glyph glyph-name="uni02C9" unicode="&#x2c9;" horiz-adv-x="500" d="M110 592 L396 592 L396 693 L110 693 L110 592 Z " />
<glyph glyph-name="breve" unicode="&#x2d8;" horiz-adv-x="500" d="M271 566 C364 566 427 626 431 711 L339 711 C336 686 310 664 270 664 C228 664 203 683 200 711 L108 711 C111 623 180 566 271 566 L271 566 Z " />
<glyph glyph-name="dotaccent" unicode="&#x2d9;" horiz-adv-x="500" d="M169 583 L331 583 L331 715 L169 715 L169 583 Z " />
<glyph glyph-name="ring" unicode="&#x2da;" horiz-adv-x="500" d="M250 614 C226 614 209 633 209 656 C209 679 226 699 250 699 C275 699 292 679 292 656 C292 633 275 614 250 614 L250 614 Z M250 558 C306 558 352 601 352 656 C352 711 306 755 250 755 C195 755 148 711 148 656 C148 601 195 558 250 558 L250 558 Z " />
<glyph glyph-name="ogonek" unicode="&#x2db;" horiz-adv-x="500" d="M245 -177 C273 -177 293 -173 306 -168 L306 -83 L305 -83 C298 -86 290 -88 279 -88 C262 -88 251 -80 251 -63 C251 -42 266 -22 292 0 L191 0 C159 -15 121 -46 121 -93 C121 -147 160 -177 245 -177 L245 -177 Z " />
<glyph glyph-name="tilde" unicode="&#x2dc;" horiz-adv-x="500" d="M84 571 L168 571 C171 594 182 607 198 607 C214 607 226 599 250 588 C269 580 290 572 316 572 C381 572 416 626 416 704 L332 704 C329 683 323 669 302 669 C287 669 275 676 253 687 C235 697 212 706 187 706 C130 706 84 661 84 571 L84 571 Z " />
<glyph glyph-name="hungarumlaut" unicode="&#x2dd;" horiz-adv-x="500" d="M96 572 L197 572 L303 720 L145 720 L96 572 Z M291 572 L392 572 L498 720 L340 720 L291 572 Z " />
<glyph glyph-name="pi" unicode="&#x3c0;" horiz-adv-x="633" d="M530 -5 C564 -5 582 -2 599 2 L599 116 C594 115 584 114 573 114 C546 114 536 125 536 156 L536 410 L609 410 L609 512 L15 512 L15 410 L86 410 L86 0 L245 0 L245 410 L377 410 L377 131 C377 28 441 -5 530 -5 L530 -5 Z " />
<glyph glyph-name="Wgrave" unicode="&#x1e80;" horiz-adv-x="940" d="M418 750 L542 750 L499 880 L312 880 L418 750 Z M196 0 L370 0 L445 343 C457 400 469 476 469 476 L471 476 C471 476 483 400 496 343 L571 0 L744 0 L940 715 L762 715 L691 417 C675 346 655 238 655 238 L653 238 C653 238 635 337 619 410 L552 715 L388 715 L321 408 C305 336 286 238 286 238 L284 238 C284 238 267 346 251 415 L179 715 L0 715 L196 0 Z " />
<glyph glyph-name="wgrave" unicode="&#x1e81;" horiz-adv-x="783" d="M155 0 L306 0 L367 232 C378 272 390 324 390 324 L392 324 C392 324 403 272 414 232 L474 0 L627 0 L784 512 L623 512 L566 300 C555 259 542 200 542 200 L540 200 C540 200 527 259 516 303 L460 512 L322 512 L268 303 C257 260 245 201 245 201 L243 201 C243 201 231 259 220 300 L164 512 L-2 512 L155 0 Z M339 572 L463 572 L406 720 L218 720 L339 572 Z " />
<glyph glyph-name="Wacute" unicode="&#x1e82;" horiz-adv-x="940" d="M404 750 L528 750 L634 880 L447 880 L404 750 Z M196 0 L370 0 L445 343 C457 400 469 476 469 476 L471 476 C471 476 483 400 496 343 L571 0 L744 0 L940 715 L762 715 L691 417 C675 346 655 238 655 238 L653 238 C653 238 635 337 619 410 L552 715 L388 715 L321 408 C305 336 286 238 286 238 L284 238 C284 238 267 346 251 415 L179 715 L0 715 L196 0 Z " />
<glyph glyph-name="wacute" unicode="&#x1e83;" horiz-adv-x="783" d="M325 572 L449 572 L570 720 L382 720 L325 572 Z M155 0 L306 0 L367 232 C378 272 390 324 390 324 L392 324 C392 324 403 272 414 232 L474 0 L627 0 L784 512 L623 512 L566 300 C555 259 542 200 542 200 L540 200 C540 200 527 259 516 303 L460 512 L322 512 L268 303 C257 260 245 201 245 201 L243 201 C243 201 231 259 220 300 L164 512 L-2 512 L155 0 Z " />
<glyph glyph-name="Wdieresis" unicode="&#x1e84;" horiz-adv-x="940" d="M286 753 L439 753 L439 881 L286 881 L286 753 Z M501 753 L654 753 L654 881 L501 881 L501 753 Z M196 0 L370 0 L445 343 C457 400 469 476 469 476 L471 476 C471 476 483 400 496 343 L571 0 L744 0 L940 715 L762 715 L691 417 C675 346 655 238 655 238 L653 238 C653 238 635 337 619 410 L552 715 L388 715 L321 408 C305 336 286 238 286 238 L284 238 C284 238 267 346 251 415 L179 715 L0 715 L196 0 Z " />
<glyph glyph-name="wdieresis" unicode="&#x1e85;" horiz-adv-x="783" d="M202 577 L355 577 L355 705 L202 705 L202 577 Z M427 577 L580 577 L580 705 L427 705 L427 577 Z M155 0 L306 0 L367 232 C378 272 390 324 390 324 L392 324 C392 324 403 272 414 232 L474 0 L627 0 L784 512 L623 512 L566 300 C555 259 542 200 542 200 L540 200 C540 200 527 259 516 303 L460 512 L322 512 L268 303 C257 260 245 201 245 201 L243 201 C243 201 231 259 220 300 L164 512 L-2 512 L155 0 Z " />
<glyph glyph-name="Ygrave" unicode="&#x1ef2;" horiz-adv-x="663" d="M243 0 L420 0 L420 264 L662 715 L475 715 L384 530 C360 481 335 421 335 421 L333 421 C333 421 310 481 286 530 L194 715 L1 715 L243 264 L243 0 Z M281 750 L405 750 L362 880 L175 880 L281 750 Z " />
<glyph glyph-name="ygrave" unicode="&#x1ef3;" horiz-adv-x="529" d="M56 -169 L162 -169 C265 -169 314 -127 355 -7 L532 512 L369 512 L302 294 C286 244 272 176 272 176 L270 176 C270 176 254 244 238 294 L169 512 L-3 512 L148 118 C169 64 179 34 179 12 C179 -23 160 -42 112 -42 L56 -42 L56 -169 Z M215 572 L339 572 L282 720 L94 720 L215 572 Z " />
<glyph glyph-name="uni2009" unicode="&#x2009;" horiz-adv-x="55" d="" />
<glyph glyph-name="endash" unicode="&#x2013;" horiz-adv-x="570" d="M43 185 L527 185 L527 325 L43 325 L43 185 Z " />
<glyph glyph-name="emdash" unicode="&#x2014;" horiz-adv-x="933" d="M43 185 L890 185 L890 325 L43 325 L43 185 Z " />
<glyph glyph-name="quoteleft" unicode="&#x2018;" horiz-adv-x="218" d="M34 421 L183 421 L183 570 L115 570 C115 614 147 648 186 660 L186 718 C146 714 104 696 77 668 C50 641 34 604 34 552 L34 421 Z " />
<glyph glyph-name="quoteright" unicode="&#x2019;" horiz-adv-x="218" d="M32 418 C72 422 113 439 141 468 C167 495 184 532 184 584 L184 715 L35 715 L35 566 L103 566 C103 522 71 488 32 476 L32 418 Z " />
<glyph glyph-name="quotesinglbase" unicode="&#x201a;" horiz-adv-x="218" d="M32 -149 C72 -144 113 -127 141 -99 C167 -71 184 -34 184 18 L184 149 L35 149 L35 0 L103 0 C103 -45 71 -79 32 -90 L32 -149 Z " />
<glyph glyph-name="quotedblleft" unicode="&#x201c;" horiz-adv-x="428" d="M34 421 L183 421 L183 570 L115 570 C115 614 147 648 186 660 L186 718 C146 714 104 696 77 668 C50 641 34 604 34 552 L34 421 Z M244 421 L393 421 L393 570 L325 570 C325 614 357 648 396 660 L396 718 C356 714 314 696 287 668 C260 641 244 604 244 552 L244 421 Z " />
<glyph glyph-name="quotedblright" unicode="&#x201d;" horiz-adv-x="428" d="M32 418 C72 422 113 439 141 468 C167 495 184 532 184 584 L184 715 L35 715 L35 566 L103 566 C103 522 71 488 32 476 L32 418 Z M242 418 C282 422 323 439 351 468 C377 495 394 532 394 584 L394 715 L245 715 L245 566 L313 566 C313 522 281 488 242 476 L242 418 Z " />
<glyph glyph-name="quotedblbase" unicode="&#x201e;" horiz-adv-x="428" d="M32 -149 C72 -144 113 -127 141 -99 C167 -71 184 -34 184 18 L184 149 L35 149 L35 0 L103 0 C103 -45 71 -79 32 -90 L32 -149 Z M242 -149 C282 -144 323 -127 351 -99 C377 -71 394 -34 394 18 L394 149 L245 149 L245 0 L313 0 C313 -45 281 -79 242 -90 L242 -149 Z " />
<glyph glyph-name="dagger" unicode="&#x2020;" horiz-adv-x="589" d="M210 -143 L380 -143 L380 381 L555 381 L555 515 L380 515 L380 715 L210 715 L210 515 L34 515 L34 381 L210 381 L210 -143 Z " />
<glyph glyph-name="daggerdbl" unicode="&#x2021;" horiz-adv-x="590" d="M210 -143 L380 -143 L380 58 L555 58 L555 192 L380 192 L380 381 L555 381 L555 515 L380 515 L380 715 L210 715 L210 515 L34 515 L34 381 L210 381 L210 192 L34 192 L34 58 L210 58 L210 -143 Z " />
<glyph glyph-name="bullet" unicode="&#x2022;" horiz-adv-x="374" d="M187 170 C269 170 337 238 337 320 C337 402 269 470 187 470 C105 470 37 402 37 320 C37 238 105 170 187 170 L187 170 Z " />
<glyph glyph-name="ellipsis" unicode="&#x2026;" horiz-adv-x="756" d="M32 0 L203 0 L203 168 L32 168 L32 0 Z M293 0 L464 0 L464 168 L293 168 L293 0 Z M554 0 L724 0 L724 168 L554 168 L554 0 Z " />
<glyph glyph-name="perthousand" unicode="&#x2030;" horiz-adv-x="1267" d="M203 386 C161 386 143 433 143 499 C143 566 161 615 203 615 C245 615 263 566 263 499 C263 432 245 386 203 386 L203 386 Z M203 299 C309 299 386 378 386 499 C386 621 311 700 203 700 C97 700 20 621 20 499 C20 378 98 299 203 299 L203 299 Z M200 0 L294 0 L663 686 L570 686 L200 0 Z M661 70 C619 70 601 117 601 184 C601 251 619 299 661 299 C703 299 721 250 721 184 C721 117 703 70 661 70 L661 70 Z M661 -17 C767 -17 844 62 844 184 C844 306 769 384 661 384 C555 384 478 305 478 184 C478 62 556 -17 661 -17 L661 -17 Z M1065 70 C1022 70 1005 117 1005 184 C1005 251 1022 299 1065 299 C1106 299 1125 250 1125 184 C1125 117 1107 70 1065 70 L1065 70 Z M1064 -17 C1171 -17 1248 62 1248 184 C1248 306 1173 384 1064 384 C959 384 881 305 881 184 C881 62 959 -17 1064 -17 L1064 -17 Z " />
<glyph glyph-name="uni2032" unicode="&#x2032;" horiz-adv-x="223" d="M21 446 L163 446 L202 715 L60 715 L21 446 Z " />
<glyph glyph-name="uni2033" unicode="&#x2033;" horiz-adv-x="425" d="M21 446 L163 446 L202 715 L60 715 L21 446 Z M223 446 L365 446 L404 715 L262 715 L223 446 Z " />
<glyph glyph-name="guilsinglleft" unicode="&#x2039;" horiz-adv-x="265" d="M214 34 L214 182 L129 250 L129 252 L214 320 L214 469 L44 329 L44 175 L214 34 Z " />
<glyph glyph-name="guilsinglright" unicode="&#x203a;" horiz-adv-x="265" d="M51 34 L221 174 L221 328 L51 469 L51 321 L136 253 L136 251 L51 183 L51 34 Z " />
<glyph glyph-name="fraction" unicode="&#x2044;" horiz-adv-x="284" d="M-181 0 L-80 0 L465 715 L363 715 L-181 0 Z " />
<glyph glyph-name="Euro" unicode="&#x20ac;" horiz-adv-x="651" d="M368 -16 C538 -16 632 91 641 243 L479 243 C471 174 439 119 368 119 C301 119 259 163 242 245 L395 245 L395 309 L235 309 C234 319 233 356 235 366 L395 366 L395 431 L241 431 C256 514 296 566 364 566 C427 566 461 522 470 454 L636 454 C624 596 533 700 366 700 C209 700 98 591 69 431 L15 431 L15 366 L61 366 L61 341 C61 330 61 319 62 309 L15 309 L15 245 L70 245 C102 87 212 -16 368 -16 L368 -16 Z " />
<glyph glyph-name="uni2113" unicode="&#x2113;" horiz-adv-x="401" d="M226 -5 C267 -5 316 0 331 4 L331 123 C321 122 298 120 276 120 C227 120 214 134 214 183 L214 243 C321 308 382 404 382 557 C382 676 326 723 229 723 C128 723 58 676 58 556 L58 275 L10 259 L10 163 C26 167 42 171 58 176 L58 150 C58 25 123 -5 226 -5 L226 -5 Z M214 564 C214 603 223 620 242 620 C261 620 270 606 270 564 C270 484 256 427 228 387 C223 381 219 375 214 370 L214 564 Z " />
<glyph glyph-name="trademark" unicode="&#x2122;" horiz-adv-x="699" d="M314 440 L394 440 L394 605 L396 605 L446 440 L511 440 L562 605 L564 605 L564 440 L646 440 L646 715 L524 715 L480 560 L478 560 L435 715 L314 715 L314 440 Z M109 440 L198 440 L198 643 L276 643 L276 715 L31 715 L31 643 L109 643 L109 440 Z " />
<glyph glyph-name="Omega" unicode="&#x2126;" horiz-adv-x="741" d="M29 0 L335 0 L335 128 C244 147 201 229 201 363 C201 502 258 586 371 586 C484 586 540 502 540 363 C540 229 498 147 406 128 L406 0 L712 0 L712 133 L612 133 L612 136 C686 184 720 275 720 381 C720 583 581 729 371 729 C160 729 21 583 21 381 C21 275 55 184 130 136 L130 133 L29 133 L29 0 Z " />
<glyph glyph-name="estimated" unicode="&#x212e;" horiz-adv-x="621" d="M327 -11 C477 -11 565 72 591 186 L540 186 C507 93 447 37 327 37 C264 37 216 53 181 79 L181 301 L595 301 C596 416 573 506 499 568 C455 606 394 627 322 627 C148 627 25 496 25 309 C25 121 135 -11 327 -11 L327 -11 Z M181 345 L181 539 C214 565 263 582 322 582 C371 582 412 569 443 550 L443 345 L181 345 Z " />
<glyph glyph-name="onethird" unicode="&#x2153;" horiz-adv-x="859" d="M114 318 L235 318 L235 719 L139 719 C128 664 85 636 23 633 L23 552 L114 552 L114 318 Z M75 0 L176 0 L721 715 L619 715 L75 0 Z M667 -10 C760 -10 835 29 835 116 C835 168 805 198 765 213 L765 214 C798 229 823 253 823 291 C823 363 759 405 667 405 C562 405 502 348 499 273 L609 273 C611 300 625 323 662 323 C692 323 708 307 708 284 C708 256 687 243 650 243 L630 243 L630 167 L653 167 C693 167 716 154 716 121 C716 94 698 75 662 75 C618 75 602 100 600 135 L487 135 C488 50 546 -10 667 -10 L667 -10 Z " />
<glyph glyph-name="twothirds" unicode="&#x2154;" horiz-adv-x="939" d="M30 318 L366 318 L366 409 L192 409 L192 410 C217 436 270 455 311 489 C343 515 365 545 365 597 C365 665 309 723 207 723 C106 723 36 668 36 564 L146 564 C146 608 169 633 204 633 C236 633 250 616 250 591 C250 570 239 556 220 542 C186 518 144 498 104 464 C61 430 31 386 30 318 L30 318 Z M170 0 L271 0 L816 715 L714 715 L170 0 Z M747 -10 C840 -10 915 29 915 116 C915 168 885 198 845 213 L845 214 C878 229 903 253 903 291 C903 363 839 405 747 405 C642 405 582 348 579 273 L689 273 C691 300 705 323 742 323 C772 323 788 307 788 284 C788 256 767 243 730 243 L710 243 L710 167 L733 167 C773 167 796 154 796 121 C796 94 778 75 742 75 C698 75 682 100 680 135 L567 135 C568 50 626 -10 747 -10 L747 -10 Z " />
<glyph glyph-name="oneeighth" unicode="&#x215b;" horiz-adv-x="866" d="M114 318 L235 318 L235 719 L139 719 C128 664 85 636 23 633 L23 552 L114 552 L114 318 Z M77 0 L178 0 L723 715 L621 715 L77 0 Z M664 -10 C777 -10 842 38 842 115 C842 159 816 196 770 213 L770 215 C803 231 824 261 824 295 C824 363 763 405 664 405 C566 405 504 358 504 293 C504 258 524 228 560 212 C559 211 560 210 560 210 C514 191 487 155 487 112 C487 39 552 -10 664 -10 L664 -10 Z M664 69 C628 69 604 90 604 120 C604 152 628 174 665 174 C702 174 725 152 725 120 C725 90 702 69 664 69 L664 69 Z M664 243 C631 243 613 262 613 288 C613 314 631 333 664 333 C697 333 715 314 715 288 C715 262 697 243 664 243 L664 243 Z " />
<glyph glyph-name="threeeighths" unicode="&#x215c;" horiz-adv-x="917" d="M204 309 C297 309 372 347 372 434 C372 486 342 516 302 531 L302 532 C335 547 360 571 360 609 C360 681 296 723 204 723 C99 723 39 666 36 591 L146 591 C148 618 162 641 199 641 C229 641 245 625 245 602 C245 574 224 561 187 561 L167 561 L167 485 L190 485 C230 485 253 472 253 439 C253 412 235 393 199 393 C155 393 139 418 137 453 L24 453 C25 368 83 309 204 309 L204 309 Z M142 0 L243 0 L788 715 L686 715 L142 0 Z M715 -10 C828 -10 893 38 893 115 C893 159 867 196 821 213 L821 215 C854 231 875 261 875 295 C875 363 814 405 715 405 C617 405 555 358 555 293 C555 258 575 228 611 212 C610 211 611 210 611 210 C565 191 538 155 538 112 C538 39 603 -10 715 -10 L715 -10 Z M715 69 C679 69 655 90 655 120 C655 152 679 174 716 174 C753 174 776 152 776 120 C776 90 753 69 715 69 L715 69 Z M715 243 C682 243 664 262 664 288 C664 314 682 333 715 333 C748 333 766 314 766 288 C766 262 748 243 715 243 L715 243 Z " />
<glyph glyph-name="fiveeighths" unicode="&#x215d;" horiz-adv-x="905" d="M197 309 C299 309 367 367 367 457 C367 538 308 588 230 588 C190 588 163 576 148 563 L146 563 L160 629 L340 629 L340 715 L80 715 L39 489 L140 489 C150 503 170 513 195 513 C228 513 252 493 252 454 C252 418 229 394 195 394 C162 394 135 408 130 436 L23 436 C31 356 103 309 197 309 L197 309 Z M126 0 L227 0 L772 715 L670 715 L126 0 Z M703 -10 C816 -10 881 38 881 115 C881 159 855 196 809 213 L809 215 C842 231 863 261 863 295 C863 363 802 405 703 405 C605 405 543 358 543 293 C543 258 563 228 599 212 C598 211 599 210 599 210 C553 191 526 155 526 112 C526 39 591 -10 703 -10 L703 -10 Z M703 69 C667 69 643 90 643 120 C643 152 667 174 704 174 C741 174 764 152 764 120 C764 90 741 69 703 69 L703 69 Z M703 243 C670 243 652 262 652 288 C652 314 670 333 703 333 C736 333 754 314 754 288 C754 262 736 243 703 243 L703 243 Z " />
<glyph glyph-name="seveneighths" unicode="&#x215e;" horiz-adv-x="841" d="M48 0 L149 0 L694 715 L592 715 L48 0 Z M639 -10 C752 -10 817 38 817 115 C817 159 791 196 745 213 L745 215 C778 231 799 261 799 295 C799 363 738 405 639 405 C541 405 479 358 479 293 C479 258 499 228 535 212 C534 211 535 210 535 210 C489 191 462 155 462 112 C462 39 527 -10 639 -10 L639 -10 Z M639 69 C603 69 579 90 579 120 C579 152 603 174 640 174 C677 174 700 152 700 120 C700 90 677 69 639 69 L639 69 Z M639 243 C606 243 588 262 588 288 C588 314 606 333 639 333 C672 333 690 314 690 288 C690 262 672 243 639 243 L639 243 Z M84 318 L212 318 C215 453 267 561 337 630 L337 715 L25 715 L25 620 L219 620 L219 619 C151 553 88 453 84 318 L84 318 Z " />
<glyph glyph-name="partialdiff" unicode="&#x2202;" horiz-adv-x="580" d="M270 -15 C463 -15 556 110 556 314 C556 569 416 709 149 722 L149 584 C277 569 361 524 383 433 C358 457 320 471 267 471 C122 471 20 366 20 215 C20 81 106 -15 270 -15 L270 -15 Z M272 101 C218 101 183 138 183 215 C183 305 229 358 296 358 C350 358 384 323 384 253 C384 176 348 101 272 101 L272 101 Z " />
<glyph glyph-name="Delta" unicode="&#x2206;" horiz-adv-x="680" d="M198 133 L305 437 C318 473 336 543 336 543 L338 543 C338 543 356 473 368 437 L474 133 L198 133 Z M22 0 L659 0 L659 111 L430 715 L249 715 L22 110 L22 0 Z " />
<glyph glyph-name="product" unicode="&#x220f;" horiz-adv-x="719" d="M53 -100 L227 -100 L227 570 L492 570 L492 -100 L666 -100 L666 715 L53 715 L53 -100 Z " />
<glyph glyph-name="summation" unicode="&#x2211;" horiz-adv-x="611" d="M32 -100 L582 -100 L582 42 L224 42 L224 44 L454 284 L454 354 L231 575 L231 577 L572 577 L572 715 L32 715 L32 575 L284 317 L284 315 L32 45 L32 -100 Z " />
<glyph glyph-name="minus" unicode="&#x2212;" horiz-adv-x="566" d="M40 264 L526 264 L526 395 L40 395 L40 264 Z " />
<glyph glyph-name="uni2215" unicode="&#x2215;" horiz-adv-x="284" d="M-181 0 L-80 0 L465 701 L363 701 L-181 0 Z " />
<glyph glyph-name="uni2219" unicode="&#x2219;" horiz-adv-x="235" d="M32 234 L203 234 L203 402 L32 402 L32 234 Z " />
<glyph glyph-name="radical" unicode="&#x221a;" horiz-adv-x="652" d="M219 -100 L376 -100 L645 715 L483 715 L322 215 C303 157 291 102 291 102 L289 102 C289 102 273 156 250 214 L201 338 L14 338 L14 200 L89 200 L219 -100 Z " />
<glyph glyph-name="infinity" unicode="&#x221e;" horiz-adv-x="725" d="M185 119 C269 119 320 164 365 227 C411 164 458 119 539 119 C636 119 703 191 703 305 C703 418 636 491 539 491 C458 491 411 445 365 382 C320 445 269 491 185 491 C81 491 22 407 22 305 C22 203 80 119 185 119 L185 119 Z M200 237 C163 237 147 267 147 305 C147 342 163 372 200 372 C235 372 261 340 282 304 C261 269 235 237 200 237 L200 237 Z M526 237 C492 237 468 269 447 304 C468 340 492 372 526 372 C563 372 580 342 580 305 C580 267 563 237 526 237 L526 237 Z " />
<glyph glyph-name="integral" unicode="&#x222b;" horiz-adv-x="365" d="M90 -176 C155 -176 196 -163 227 -132 C250 -108 265 -73 265 -9 L265 563 C265 603 284 614 322 615 C341 615 356 613 370 610 L372 610 L372 731 C346 737 312 741 278 741 C212 741 171 729 140 698 C117 673 102 639 102 574 L102 3 C102 -38 82 -49 43 -49 C24 -49 9 -47 -4 -45 L-5 -45 L-5 -165 C21 -172 55 -176 90 -176 L90 -176 Z " />
<glyph glyph-name="approxequal" unicode="&#x2248;" horiz-adv-x="546" d="M34 125 L141 125 C144 150 156 162 178 162 C223 162 315 130 389 130 C480 130 520 190 520 293 L413 293 C411 271 403 260 378 260 C334 260 240 294 172 294 C91 294 35 244 34 125 L34 125 Z M34 334 L141 334 C144 359 156 371 178 371 C223 371 315 339 389 339 C480 339 520 398 520 502 L413 502 C411 479 403 469 378 469 C334 469 240 502 172 502 C91 502 35 453 34 334 L34 334 Z " />
<glyph glyph-name="notequal" unicode="&#x2260;" horiz-adv-x="563" d="M51 354 L257 354 L216 265 L51 265 L51 140 L157 140 L119 58 L222 58 L260 140 L519 140 L519 265 L319 265 L360 354 L519 354 L519 479 L419 479 L458 563 L355 563 L316 479 L51 479 L51 354 Z " />
<glyph glyph-name="lessequal" unicode="&#x2264;" horiz-adv-x="502" d="M455 130 L455 264 L272 317 C235 328 177 341 177 341 L177 343 C177 343 236 358 272 369 L455 426 L455 556 L43 419 L43 267 L455 130 Z M43 0 L455 0 L455 113 L43 113 L43 0 Z " />
<glyph glyph-name="greaterequal" unicode="&#x2265;" horiz-adv-x="502" d="M47 130 L459 267 L459 419 L47 556 L47 425 L230 370 C266 359 325 344 325 344 L325 342 C325 342 267 328 230 318 L47 263 L47 130 Z M47 0 L459 0 L459 113 L47 113 L47 0 Z " />
<glyph glyph-name="uni24C5" unicode="&#x24c5;" horiz-adv-x="817" d="M256 145 L371 145 L371 277 L466 277 C550 277 607 336 607 415 C607 459 592 495 564 520 C538 544 500 559 448 559 L256 559 L256 145 Z M371 365 L371 465 L438 465 C472 465 492 446 492 415 C492 384 472 365 438 365 L371 365 Z M409 35 C233 35 101 172 101 355 C101 539 233 676 409 676 C584 676 716 539 716 355 C716 172 584 35 409 35 L409 35 Z M409 -17 C615 -17 777 141 777 355 C777 569 615 728 409 728 C203 728 40 569 40 355 C40 141 203 -17 409 -17 L409 -17 Z " />
<glyph glyph-name="lozenge" unicode="&#x25ca;" horiz-adv-x="596" d="M298 139 L183 360 L296 577 L298 577 L413 354 L300 139 L298 139 Z M218 0 L379 0 L580 357 L378 715 L217 715 L16 358 L218 0 Z " />
<glyph glyph-name="uniF8FF" unicode="&#xf8ff;" horiz-adv-x="846" d="M351 118 L351 287 L183 287 L183 431 L351 431 L351 594 L495 594 L495 431 L663 431 L663 287 L495 287 L495 118 L351 118 Z M65 0 L781 0 L781 716 L65 716 L65 0 Z " />
<glyph glyph-name="f_f" unicode="&#xfb00;" horiz-adv-x="652" d="M77 0 L240 0 L240 408 L381 408 L381 0 L543 0 L543 408 L639 408 L639 512 L543 512 L543 537 C543 594 578 599 639 597 L639 712 C542 722 451 708 411 652 C391 627 381 593 381 549 L381 512 L240 512 L240 533 C240 590 275 594 327 592 L327 707 C239 717 149 704 108 649 C88 624 77 590 77 544 L77 512 L11 512 L11 408 L77 408 L77 0 Z " />
<glyph glyph-name="fi" unicode="&#xfb01;" horiz-adv-x="590" d="M78 0 L240 0 L240 408 L336 408 L336 512 L240 512 L240 537 C240 594 275 599 336 597 L336 712 C239 722 148 708 108 651 C88 627 78 593 78 549 L78 512 L11 512 L11 408 L78 408 L78 0 Z M388 0 L551 0 L551 512 L388 512 L388 0 Z M388 583 L551 583 L551 715 L388 715 L388 583 Z " />
<glyph glyph-name="fl" unicode="&#xfb02;" horiz-adv-x="593" d="M77 0 L240 0 L240 408 L336 408 L336 512 L240 512 L240 537 C240 594 274 599 336 597 L336 712 C238 722 147 707 107 651 C87 626 77 593 77 549 L77 512 L11 512 L11 408 L77 408 L77 0 Z M388 0 L553 0 L553 715 L388 715 L388 0 Z " />
<glyph glyph-name="f_f_i" unicode="&#xfb03;" horiz-adv-x="893" d="M77 0 L240 0 L240 408 L381 408 L381 0 L543 0 L543 408 L639 408 L639 512 L543 512 L543 537 C543 594 578 599 639 597 L639 712 C542 722 451 708 411 652 C391 627 381 593 381 549 L381 512 L240 512 L240 533 C240 590 275 594 327 592 L327 707 C239 717 149 704 108 649 C88 624 77 590 77 544 L77 512 L11 512 L11 408 L77 408 L77 0 Z M691 0 L854 0 L854 512 L691 512 L691 0 Z M691 583 L854 583 L854 715 L691 715 L691 583 Z " />
<glyph glyph-name="f_f_l" unicode="&#xfb04;" horiz-adv-x="897" d="M77 0 L240 0 L240 408 L381 408 L381 0 L543 0 L543 408 L639 408 L639 512 L543 512 L543 537 C543 594 578 599 639 597 L639 712 C542 722 452 708 411 652 C391 628 381 594 381 549 L381 512 L240 512 L240 533 C240 590 275 594 327 592 L327 707 C239 717 149 704 108 649 C88 624 77 590 77 544 L77 512 L11 512 L11 408 L77 408 L77 0 Z M692 0 L857 0 L857 715 L692 715 L692 0 Z " />
</font>
</svg>
