<?xml version="1.0" encoding="UTF-8"?>
<svg xmlns="http://www.w3.org/2000/svg" xmlns:xlink="http://www.w3.org/1999/xlink" version="1.2" >
<font id="Haas Grot Disp 35 Thin">
<font-face  font-family="Haas Grot Disp" units-per-em="1000" ascent="818" descent="-182" font-style="normal" font-weight="200" font-stretch="normal" cap-height="715" x-height="517" underline-position="-75" underline-thickness="50" />
<missing-glyph  horiz-adv-x="500" d="" />
<glyph glyph-name="NULL" d="" />
<glyph glyph-name="CR" unicode="&#xd;" horiz-adv-x="250" d="" />
<glyph glyph-name="space" unicode="&#x20;" horiz-adv-x="161" d="" />
<glyph glyph-name="exclam" unicode="&#x21;" horiz-adv-x="197" d="M81 173 L116 173 L126 486 L126 715 L71 715 L71 486 L81 173 Z M68 0 L129 0 L129 79 L68 79 L68 0 Z " />
<glyph glyph-name="quotedbl" unicode="&#x22;" horiz-adv-x="262" d="M169 501 L218 501 L218 715 L169 715 L169 501 Z M44 501 L93 501 L93 715 L44 715 L44 501 Z " />
<glyph glyph-name="numbersign" unicode="&#x23;" horiz-adv-x="551" d="M66 437 L167 437 L142 257 L41 257 L34 213 L136 213 L107 0 L153 0 L182 213 L332 213 L303 0 L349 0 L378 213 L477 213 L484 257 L384 257 L409 437 L510 437 L517 481 L415 481 L444 686 L398 686 L369 481 L219 481 L248 686 L202 686 L173 481 L73 481 L66 437 Z M213 437 L363 437 L338 257 L188 257 L213 437 Z " />
<glyph glyph-name="dollar" unicode="&#x24;" horiz-adv-x="539" d="M253 -85 L293 -85 L293 2 C420 6 507 88 507 199 C507 328 413 362 293 386 L293 654 C371 646 429 597 438 512 L487 512 C477 614 408 688 293 698 L293 757 L253 757 L253 699 C132 694 49 623 49 522 C49 410 124 373 253 346 L253 46 C148 56 78 122 74 226 L25 226 C31 106 110 14 253 3 L253 -85 Z M456 195 C456 104 385 50 293 45 L293 338 C413 312 456 282 456 195 L456 195 Z M99 523 C99 596 156 650 253 655 L253 394 C144 417 99 446 99 523 L99 523 Z " />
<glyph glyph-name="percent" unicode="&#x25;" horiz-adv-x="790" d="M182 313 C265 313 330 382 330 506 C330 634 262 699 182 699 C102 699 34 632 34 506 C34 382 99 313 182 313 L182 313 Z M608 -13 C691 -13 756 56 756 180 C756 308 688 373 608 373 C528 373 460 306 460 180 C460 56 525 -13 608 -13 L608 -13 Z M608 26 C554 26 507 74 507 180 C507 288 554 334 608 334 C661 334 709 286 709 180 C709 72 663 26 608 26 L608 26 Z M182 352 C128 352 81 400 81 506 C81 614 128 660 182 660 C235 660 283 612 283 506 C283 398 237 352 182 352 L182 352 Z M174 0 L220 0 L616 685 L570 685 L174 0 Z " />
<glyph glyph-name="ampersand" unicode="&#x26;" horiz-adv-x="571" d="M246 -13 C332 -13 397 23 441 80 L503 0 L564 0 L469 123 C499 180 515 249 515 321 L466 321 C464 264 454 210 436 166 L266 386 C342 427 410 471 410 561 C410 653 346 705 268 705 C184 705 121 642 121 564 C121 511 138 473 181 417 L197 396 C105 346 28 292 28 177 C28 56 125 -13 246 -13 L246 -13 Z M248 32 C147 32 82 89 82 177 C82 273 149 321 223 362 L411 119 C375 65 320 32 248 32 L248 32 Z M173 563 C173 623 216 661 268 661 C320 661 359 625 359 563 C359 501 320 464 240 420 L216 452 C184 494 173 524 173 563 L173 563 Z " />
<glyph glyph-name="quotesingle" unicode="&#x27;" horiz-adv-x="137" d="M44 501 L93 501 L93 715 L44 715 L44 501 Z " />
<glyph glyph-name="parenleft" unicode="&#x28;" horiz-adv-x="271" d="M206 -118 L252 -118 C172 14 130 158 130 335 C130 499 184 646 252 754 L206 754 C135 652 74 509 74 335 C74 147 128 2 206 -118 L206 -118 Z " />
<glyph glyph-name="parenright" unicode="&#x29;" horiz-adv-x="271" d="M65 754 L19 754 C99 622 141 478 141 301 C141 137 87 -10 19 -118 L65 -118 C136 -16 197 127 197 301 C197 489 143 634 65 754 L65 754 Z " />
<glyph glyph-name="asterisk" unicode="&#x2a;" horiz-adv-x="354" d="M198 715 L156 715 L156 595 L52 632 L39 598 L142 561 L75 467 L106 445 L177 546 L248 445 L279 467 L212 561 L315 598 L302 632 L198 595 L198 715 Z " />
<glyph glyph-name="plus" unicode="&#x2b;" horiz-adv-x="510" d="M56 303 L230 303 L230 113 L280 113 L280 303 L454 303 L454 349 L280 349 L280 536 L230 536 L230 349 L56 349 L56 303 Z " />
<glyph glyph-name="comma" unicode="&#x2c;" horiz-adv-x="143" d="M40 -94 C79 -87 102 -65 102 -3 L102 79 L41 79 L41 0 L67 0 L67 -6 C67 -46 57 -59 40 -65 L40 -94 Z " />
<glyph glyph-name="hyphen" unicode="&#x2d;" horiz-adv-x="314" d="M33 260 L281 260 L281 304 L33 304 L33 260 Z " />
<glyph glyph-name="period" unicode="&#x2e;" horiz-adv-x="143" d="M41 0 L102 0 L102 79 L41 79 L41 0 Z " />
<glyph glyph-name="slash" unicode="&#x2f;" horiz-adv-x="368" d="M16 0 L68 0 L352 715 L300 715 L16 0 Z " />
<glyph glyph-name="zero" unicode="0" horiz-adv-x="558" d="M279 -13 C438 -13 524 125 524 343 C524 567 430 699 280 699 C129 699 34 565 34 343 C34 125 121 -13 279 -13 L279 -13 Z M280 32 C157 32 87 152 87 343 C87 538 157 655 280 655 C401 655 471 534 471 343 C471 148 404 32 280 32 L280 32 Z " />
<glyph glyph-name="one" unicode="1" horiz-adv-x="315" d="M173 0 L224 0 L224 689 L187 689 C175 587 144 568 33 561 L33 526 L173 526 L173 0 Z " />
<glyph glyph-name="two" unicode="2" horiz-adv-x="496" d="M32 0 L456 0 L456 47 L88 47 C99 155 181 206 263 257 C358 316 462 367 462 506 C462 613 386 699 264 699 C145 699 49 623 48 475 L99 475 C103 595 166 654 263 654 C351 654 409 602 409 504 C409 392 340 360 245 301 C144 238 32 171 32 0 L32 0 Z " />
<glyph glyph-name="three" unicode="3" horiz-adv-x="502" d="M251 -13 C384 -13 469 65 469 186 C469 273 429 335 348 365 L348 368 C405 392 444 441 444 520 C444 630 362 699 256 699 C124 699 50 608 49 487 L101 487 C101 580 155 655 254 655 C334 655 392 606 392 518 C392 438 339 385 254 385 L204 385 L204 340 L255 340 C356 340 416 283 416 189 C416 99 360 35 252 35 C155 35 86 93 81 203 L28 203 C28 72 124 -13 251 -13 L251 -13 Z " />
<glyph glyph-name="four" unicode="4" horiz-adv-x="518" d="M340 0 L391 0 L391 180 L492 180 L492 225 L391 225 L391 692 L345 692 L22 230 L22 180 L340 180 L340 0 Z M77 228 L338 601 L340 601 L340 225 L77 225 L77 228 Z " />
<glyph glyph-name="five" unicode="5" horiz-adv-x="484" d="M237 -13 C369 -13 451 84 451 217 C451 365 355 439 252 439 C181 439 141 419 104 386 L102 386 L136 639 L422 639 L422 685 L96 685 L46 323 L95 323 C120 362 163 393 243 393 C336 393 398 327 398 219 C398 111 341 35 236 35 C136 35 90 90 79 176 L28 176 C29 66 116 -13 237 -13 L237 -13 Z " />
<glyph glyph-name="six" unicode="6" horiz-adv-x="519" d="M273 -13 C403 -13 486 86 486 217 C486 347 400 436 274 436 C192 436 127 392 88 314 L86 314 C83 517 148 654 283 654 C359 654 407 602 414 530 L466 530 C456 629 391 699 282 699 C119 699 34 545 34 347 C34 204 58 101 123 43 C162 8 207 -13 273 -13 L273 -13 Z M271 31 C171 31 104 103 104 212 C104 317 177 392 273 392 C370 392 433 322 433 216 C433 110 369 31 271 31 L271 31 Z " />
<glyph glyph-name="seven" unicode="7" horiz-adv-x="473" d="M134 0 L190 0 C215 267 317 498 451 638 L451 685 L23 685 L23 639 L397 639 L397 637 C261 489 155 239 134 0 L134 0 Z " />
<glyph glyph-name="eight" unicode="8" horiz-adv-x="522" d="M261 -13 C387 -13 490 61 490 190 C490 277 431 348 355 372 L355 375 C417 401 457 454 457 524 C457 619 383 699 260 699 C147 699 63 625 63 524 C63 454 100 400 162 373 L162 370 C86 342 32 283 32 190 C32 65 135 -13 261 -13 L261 -13 Z M261 32 C149 32 85 101 85 190 C85 280 148 347 258 347 C370 347 437 280 437 190 C437 102 370 32 261 32 L261 32 Z M258 391 C164 391 115 453 115 522 C115 593 168 655 260 655 C354 655 405 593 405 522 C405 453 350 391 258 391 L258 391 Z " />
<glyph glyph-name="nine" unicode="9" horiz-adv-x="517" d="M237 -13 C303 -13 357 9 396 50 C458 115 483 219 483 339 C483 482 463 586 396 644 C357 678 312 699 246 699 C121 699 33 600 33 469 C33 339 119 250 245 250 C327 250 394 294 430 371 L432 371 C434 230 410 133 355 78 C326 48 286 32 236 32 C160 32 107 80 100 156 L47 156 C54 54 128 -13 237 -13 L237 -13 Z M246 294 C147 294 86 364 86 470 C86 576 151 655 248 655 C348 655 414 582 414 472 C414 368 342 294 246 294 L246 294 Z " />
<glyph glyph-name="colon" unicode="&#x3a;" horiz-adv-x="153" d="M46 309 L107 309 L107 388 L46 388 L46 309 Z M46 0 L107 0 L107 79 L46 79 L46 0 Z " />
<glyph glyph-name="semicolon" unicode="&#x3b;" horiz-adv-x="153" d="M45 -94 C84 -87 107 -65 107 -3 L107 79 L46 79 L46 0 L72 0 L72 -6 C72 -46 62 -59 45 -65 L45 -94 Z M46 309 L107 309 L107 388 L46 388 L46 309 Z " />
<glyph glyph-name="less" unicode="&#x3c;" horiz-adv-x="491" d="M437 117 L437 166 L94 310 L94 312 L437 457 L437 506 L50 340 L50 283 L437 117 Z " />
<glyph glyph-name="equal" unicode="&#x3d;" horiz-adv-x="510" d="M56 361 L454 361 L454 407 L56 407 L56 361 Z M56 211 L454 211 L454 257 L56 257 L56 211 Z " />
<glyph glyph-name="greater" unicode="&#x3e;" horiz-adv-x="491" d="M54 506 L54 457 L397 313 L397 311 L54 166 L54 117 L441 283 L441 340 L54 506 Z " />
<glyph glyph-name="question" unicode="&#x3f;" horiz-adv-x="493" d="M198 173 L247 173 C247 272 267 301 333 357 C385 401 445 441 445 550 C445 652 369 728 254 728 C102 728 35 620 34 517 L85 517 C87 610 148 682 251 682 C333 682 392 634 392 549 C392 466 344 428 299 391 C225 330 198 289 198 173 L198 173 Z M192 0 L253 0 L253 79 L192 79 L192 0 Z " />
<glyph glyph-name="at" unicode="&#x40;" horiz-adv-x="863" d="M396 82 C461 82 520 121 545 172 L546 172 C551 134 582 92 647 92 C756 92 822 197 822 342 C822 583 644 711 450 711 C245 711 41 557 41 292 C41 55 187 -100 428 -100 C507 -100 576 -83 639 -55 L624 -17 C563 -41 499 -58 429 -58 C206 -58 87 83 87 293 C87 525 255 669 449 669 C635 669 776 558 776 342 C776 216 733 131 647 131 C596 131 577 175 585 234 L619 516 L577 516 L566 444 L563 444 C541 490 497 524 432 524 C321 524 235 426 235 271 C235 158 295 82 396 82 L396 82 Z M395 123 C316 123 284 187 284 271 C284 391 338 484 431 484 C515 484 549 424 549 339 C549 221 503 123 395 123 L395 123 Z " />
<glyph glyph-name="A" unicode="A" horiz-adv-x="624" d="M6 0 L59 0 L147 229 L476 229 L564 0 L618 0 L341 715 L282 715 L6 0 Z M273 557 C290 602 310 663 310 663 L312 663 C312 663 335 598 351 557 L459 273 L164 273 L273 557 Z " />
<glyph glyph-name="B" unicode="B" horiz-adv-x="609" d="M62 0 L366 0 C438 0 493 22 529 57 C563 91 580 138 580 198 C580 292 528 351 444 377 L444 379 C518 407 549 456 549 537 C549 594 529 639 494 669 C460 699 412 715 355 715 L62 715 L62 0 Z M114 48 L114 349 L366 349 C464 349 527 293 527 200 C527 152 514 117 489 92 C462 65 419 48 362 48 L114 48 Z M114 395 L114 668 L356 668 C441 668 496 621 496 533 C496 452 448 395 360 395 L114 395 Z " />
<glyph glyph-name="C" unicode="C" horiz-adv-x="656" d="M346 -13 C437 -13 514 21 564 81 C602 126 624 189 630 259 L581 259 C568 132 487 33 346 33 C172 33 88 175 88 356 C88 537 173 684 349 684 C468 684 544 616 564 519 L616 519 C588 653 490 729 349 729 C154 729 34 576 34 356 C34 136 151 -13 346 -13 L346 -13 Z " />
<glyph glyph-name="D" unicode="D" horiz-adv-x="644" d="M62 0 L305 0 C513 0 610 145 610 355 C610 565 520 715 312 715 L62 715 L62 0 Z M114 46 L114 668 L310 668 C483 668 556 544 556 355 C556 166 476 46 303 46 L114 46 Z " />
<glyph glyph-name="E" unicode="E" horiz-adv-x="582" d="M62 0 L546 0 L546 48 L114 48 L114 346 L502 346 L502 391 L114 391 L114 669 L536 669 L536 715 L62 715 L62 0 Z " />
<glyph glyph-name="F" unicode="F" horiz-adv-x="542" d="M62 0 L114 0 L114 349 L461 349 L461 394 L114 394 L114 669 L516 669 L516 715 L62 715 L62 0 Z " />
<glyph glyph-name="G" unicode="G" horiz-adv-x="709" d="M615 0 L655 0 L655 360 L365 360 L365 314 L605 314 L605 283 C605 156 533 33 356 33 C169 33 88 181 88 358 C88 535 176 684 368 684 C475 684 567 629 591 513 L643 513 C615 661 502 729 368 729 C155 729 34 570 34 358 C34 146 142 -13 356 -13 C513 -13 579 79 605 128 L609 128 L615 0 Z " />
<glyph glyph-name="H" unicode="H" horiz-adv-x="648" d="M62 0 L114 0 L114 358 L534 358 L534 0 L586 0 L586 715 L534 715 L534 402 L114 402 L114 715 L62 715 L62 0 Z " />
<glyph glyph-name="I" unicode="I" horiz-adv-x="184" d="M66 0 L118 0 L118 715 L66 715 L66 0 Z " />
<glyph glyph-name="J" unicode="J" horiz-adv-x="460" d="M219 -13 C343 -13 401 65 401 164 L401 715 L349 715 L349 168 C349 76 300 34 220 34 C124 34 73 76 73 186 L73 222 L22 222 L22 184 C22 50 95 -13 219 -13 L219 -13 Z " />
<glyph glyph-name="K" unicode="K" horiz-adv-x="613" d="M62 0 L114 0 L114 252 L250 385 L543 0 L606 0 L287 421 L592 716 L523 716 L114 316 L114 715 L62 715 L62 0 Z " />
<glyph glyph-name="L" unicode="L" horiz-adv-x="524" d="M62 0 L499 0 L499 48 L114 48 L114 715 L62 715 L62 0 Z " />
<glyph glyph-name="M" unicode="M" horiz-adv-x="785" d="M62 0 L112 0 L112 646 L114 646 C114 646 135 583 150 545 L368 0 L420 0 L634 545 C651 589 670 646 670 646 L672 646 L672 0 L723 0 L723 715 L645 715 L396 71 L394 71 L137 715 L62 715 L62 0 Z " />
<glyph glyph-name="N" unicode="N" horiz-adv-x="649" d="M62 0 L112 0 L112 637 L114 637 C114 637 164 554 204 494 L532 0 L587 0 L587 715 L537 715 L537 75 L535 75 C535 75 495 145 452 210 L120 715 L62 715 L62 0 Z " />
<glyph glyph-name="O" unicode="O" horiz-adv-x="710" d="M354 -13 C548 -13 676 146 676 358 C676 570 548 729 354 729 C160 729 34 570 34 358 C34 146 160 -13 354 -13 L354 -13 Z M354 34 C180 34 88 181 88 358 C88 535 180 682 354 682 C528 682 622 535 622 358 C622 181 528 34 354 34 L354 34 Z " />
<glyph glyph-name="P" unicode="P" horiz-adv-x="575" d="M62 0 L114 0 L114 319 L325 319 C472 319 549 385 549 519 C549 580 532 625 498 658 C460 695 411 715 332 715 L62 715 L62 0 Z M114 668 L328 668 C439 668 496 613 496 518 C496 423 448 365 321 365 L114 365 L114 668 Z " />
<glyph glyph-name="Q" unicode="Q" horiz-adv-x="710" d="M630 -41 L660 -3 L568 72 C636 139 676 240 676 358 C676 570 548 729 354 729 C160 729 34 570 34 358 C34 146 160 -13 354 -13 C422 -13 482 6 531 41 L630 -41 Z M354 34 C180 34 88 181 88 358 C88 535 180 682 354 682 C528 682 622 535 622 358 C622 254 591 162 531 103 L441 177 L411 140 L492 72 C454 48 408 34 354 34 L354 34 Z " />
<glyph glyph-name="R" unicode="R" horiz-adv-x="615" d="M62 0 L114 0 L114 331 L344 331 C454 331 497 296 502 160 C507 36 512 9 528 0 L584 0 L584 4 C571 13 558 42 554 157 C550 272 526 328 452 352 L452 355 C531 380 569 435 569 524 C569 645 502 715 371 715 L62 715 L62 0 Z M114 669 L365 669 C475 669 516 613 516 522 C516 429 460 377 354 377 L114 377 L114 669 Z " />
<glyph glyph-name="S" unicode="S" horiz-adv-x="581" d="M302 -13 C450 -13 547 75 547 197 C547 340 439 373 300 399 C159 425 102 453 102 541 C102 623 170 683 287 683 C387 683 463 630 473 530 L525 530 C515 647 431 729 286 729 C145 729 49 652 49 540 C49 421 132 379 268 354 C438 322 493 296 493 193 C493 92 410 33 301 33 C168 33 81 105 76 226 L23 226 C31 89 123 -13 302 -13 L302 -13 Z " />
<glyph glyph-name="T" unicode="T" horiz-adv-x="574" d="M17 668 L261 668 L261 0 L313 0 L313 668 L557 668 L557 715 L17 715 L17 668 Z " />
<glyph glyph-name="U" unicode="U" horiz-adv-x="622" d="M308 -11 C463 -11 566 63 566 225 L566 715 L514 715 L514 229 C514 89 434 35 311 35 C181 35 108 89 108 229 L108 715 L56 715 L56 225 C56 67 152 -11 308 -11 L308 -11 Z " />
<glyph glyph-name="V" unicode="V" horiz-adv-x="594" d="M268 0 L323 0 L588 715 L536 715 L343 195 C323 142 296 57 296 57 L294 57 C294 57 269 138 250 190 L59 715 L6 715 L268 0 Z " />
<glyph glyph-name="W" unicode="W" horiz-adv-x="857" d="M204 0 L262 0 L402 532 C415 581 430 653 430 653 L432 653 C432 653 447 580 460 532 L600 0 L656 0 L846 715 L796 715 L667 221 C652 163 631 67 631 67 L629 67 C629 67 606 162 592 215 L458 715 L403 715 L270 213 C256 160 234 67 234 67 L232 67 C232 67 210 166 195 221 L63 715 L11 715 L204 0 Z " />
<glyph glyph-name="X" unicode="X" horiz-adv-x="573" d="M11 0 L69 0 L285 326 L287 326 L503 0 L562 0 L319 364 L549 715 L491 715 L290 403 L288 403 L81 715 L22 715 L256 365 L11 0 Z " />
<glyph glyph-name="Y" unicode="Y" horiz-adv-x="579" d="M263 0 L315 0 L315 316 L574 715 L518 715 L291 365 L289 365 L62 715 L5 715 L263 318 L263 0 Z " />
<glyph glyph-name="Z" unicode="Z" horiz-adv-x="573" d="M24 0 L543 0 L543 46 L84 46 L84 49 L527 667 L527 715 L52 715 L52 670 L466 670 L466 667 L24 51 L24 0 Z " />
<glyph glyph-name="bracketleft" unicode="&#x5b;" horiz-adv-x="282" d="M82 -118 L247 -118 L247 -72 L132 -72 L132 709 L247 709 L247 754 L82 754 L82 -118 Z " />
<glyph glyph-name="backslash" unicode="&#x5c;" horiz-adv-x="368" d="M300 0 L352 0 L68 715 L16 715 L300 0 Z " />
<glyph glyph-name="bracketright" unicode="&#x5d;" horiz-adv-x="282" d="M200 754 L35 754 L35 709 L150 709 L150 -72 L35 -72 L35 -118 L200 -118 L200 754 Z " />
<glyph glyph-name="asciicircum" unicode="&#x5e;" horiz-adv-x="381" d="M65 458 L189 675 L191 675 L316 458 L369 458 L219 715 L162 715 L12 458 L65 458 Z " />
<glyph glyph-name="underscore" unicode="&#x5f;" horiz-adv-x="368" d="M-2 -166 L370 -166 L370 -125 L-2 -125 L-2 -166 Z " />
<glyph glyph-name="grave" unicode="&#x60;" horiz-adv-x="500" d="M291 588 L215 715 L146 715 L247 588 L291 588 Z " />
<glyph glyph-name="a" unicode="a" horiz-adv-x="492" d="M446 -8 C466 -8 478 -4 486 0 L486 36 L483 36 C474 33 466 31 459 31 C441 31 426 39 426 67 L426 371 C426 477 362 528 247 528 C118 528 51 470 41 370 L91 370 C98 446 150 486 247 486 C331 486 377 452 377 374 L377 356 C377 308 349 302 227 290 C119 279 23 254 23 131 C23 36 93 -13 188 -13 C294 -13 346 39 375 80 L378 80 L378 62 C378 14 406 -8 446 -8 L446 -8 Z M193 28 C127 28 73 56 73 129 C73 227 142 239 233 249 C286 255 341 262 377 280 L377 184 C377 106 310 28 193 28 L193 28 Z " />
<glyph glyph-name="b" unicode="b" horiz-adv-x="516" d="M278 -13 C411 -13 491 103 491 257 C491 429 402 528 282 528 C195 528 136 483 101 418 L99 418 L99 715 L50 715 L50 0 L99 0 L99 85 L101 85 C140 22 192 -13 278 -13 L278 -13 Z M276 28 C159 28 94 119 94 256 C94 387 160 486 275 486 C381 486 441 394 441 256 C441 133 387 28 276 28 L276 28 Z " />
<glyph glyph-name="c" unicode="c" horiz-adv-x="472" d="M250 -13 C369 -13 443 63 456 175 L410 175 C399 90 340 30 250 30 C127 30 75 134 75 258 C75 382 126 486 251 486 C332 486 385 450 402 368 L450 368 C434 472 359 528 251 528 C103 528 25 414 25 258 C25 102 101 -13 250 -13 L250 -13 Z " />
<glyph glyph-name="d" unicode="d" horiz-adv-x="518" d="M243 -13 C324 -13 379 22 417 86 L419 86 L419 0 L468 0 L468 715 L419 715 L419 423 L417 423 C384 489 325 528 242 528 C122 528 25 429 25 257 C25 103 105 -13 243 -13 L243 -13 Z M245 28 C129 28 75 132 75 256 C75 394 140 486 246 486 C361 486 424 387 424 256 C424 119 357 28 245 28 L245 28 Z " />
<glyph glyph-name="e" unicode="e" horiz-adv-x="491" d="M466 253 C467 351 448 425 391 478 C357 510 311 528 255 528 C114 528 25 417 25 258 C25 99 107 -13 259 -13 C374 -13 442 58 463 154 L416 154 C395 84 352 30 259 30 C132 30 76 129 75 253 L466 253 Z M416 293 L76 293 C86 402 143 486 255 486 C369 486 413 395 416 293 L416 293 Z " />
<glyph glyph-name="f" unicode="f" horiz-adv-x="252" d="M12 476 L89 476 L89 0 L138 0 L138 476 L234 476 L234 517 L138 517 L138 614 C138 652 152 676 203 676 L231 676 L231 719 L200 719 C126 719 89 684 89 615 L89 517 L12 517 L12 476 Z " />
<glyph glyph-name="g" unicode="g" horiz-adv-x="517" d="M250 -187 C324 -187 377 -166 416 -127 C449 -92 467 -44 467 15 L467 517 L418 517 L418 428 L415 428 C381 488 330 528 247 528 C127 528 25 436 25 264 C25 110 106 5 244 5 C325 5 377 38 415 102 L418 102 L418 14 C418 -78 368 -145 248 -145 C175 -145 114 -119 100 -57 L51 -57 C59 -127 127 -187 250 -187 L250 -187 Z M246 46 C129 46 75 141 75 263 C75 398 143 486 249 486 C364 486 422 391 422 263 C422 129 358 46 246 46 L246 46 Z " />
<glyph glyph-name="h" unicode="h" horiz-adv-x="490" d="M104 715 L55 715 L55 0 L104 0 L104 334 C104 420 185 485 277 485 C349 485 395 449 395 364 L395 0 L444 0 L444 369 C444 472 374 527 286 527 C198 527 140 485 106 430 L104 430 L104 715 Z " />
<glyph glyph-name="i" unicode="i" horiz-adv-x="155" d="M53 0 L102 0 L102 517 L53 517 L53 0 Z M53 635 L102 635 L102 715 L53 715 L53 635 Z " />
<glyph glyph-name="j" unicode="j" horiz-adv-x="155" d="M-15 -166 L-2 -166 C67 -166 102 -136 102 -60 L102 517 L53 517 L53 -59 C53 -105 35 -124 -5 -124 L-15 -124 L-15 -166 Z M53 635 L102 635 L102 715 L53 715 L53 635 Z " />
<glyph glyph-name="k" unicode="k" horiz-adv-x="467" d="M407 0 L463 0 L242 330 L439 517 L377 517 L99 250 L99 715 L50 715 L50 0 L99 0 L99 193 L207 297 L407 0 Z " />
<glyph glyph-name="l" unicode="l" horiz-adv-x="155" d="M53 0 L102 0 L102 715 L53 715 L53 0 Z " />
<glyph glyph-name="m" unicode="m" horiz-adv-x="777" d="M50 0 L99 0 L99 334 C99 420 171 485 252 485 C317 485 366 449 366 364 L366 0 L415 0 L415 334 C415 433 483 485 564 485 C635 485 682 449 682 364 L682 0 L731 0 L731 369 C731 472 661 527 575 527 C495 527 438 491 404 432 L401 432 C381 495 325 527 261 527 C181 527 135 489 101 436 L99 436 L99 517 L50 517 L50 0 Z " />
<glyph glyph-name="n" unicode="n" horiz-adv-x="485" d="M99 517 L50 517 L50 0 L99 0 L99 334 C99 420 180 485 272 485 C344 485 390 449 390 364 L390 0 L439 0 L439 369 C439 472 369 527 281 527 C193 527 135 485 101 430 L99 430 L99 517 Z " />
<glyph glyph-name="o" unicode="o" horiz-adv-x="514" d="M257 -13 C403 -13 489 102 489 258 C489 414 403 528 257 528 C112 528 25 414 25 258 C25 102 112 -13 257 -13 L257 -13 Z M257 29 C138 29 75 132 75 258 C75 384 138 487 257 487 C376 487 439 384 439 258 C439 132 376 29 257 29 L257 29 Z " />
<glyph glyph-name="p" unicode="p" horiz-adv-x="516" d="M50 -166 L99 -166 L99 85 L101 85 C138 26 192 -11 278 -11 C411 -11 491 105 491 259 C491 431 402 528 282 528 C195 528 136 484 101 418 L99 418 L99 517 L50 517 L50 -166 Z M276 30 C159 30 94 119 94 256 C94 387 160 486 275 486 C381 486 441 396 441 258 C441 135 387 30 276 30 L276 30 Z " />
<glyph glyph-name="q" unicode="q" horiz-adv-x="518" d="M419 -166 L468 -166 L468 517 L419 517 L419 427 L417 427 C383 488 328 528 245 528 C125 528 25 429 25 257 C25 103 104 -11 242 -11 C323 -11 379 23 417 86 L419 86 L419 -166 Z M244 30 C127 30 75 132 75 256 C75 394 141 486 247 486 C362 486 424 387 424 256 C424 119 356 30 244 30 L244 30 Z " />
<glyph glyph-name="r" unicode="r" horiz-adv-x="285" d="M99 517 L50 517 L50 0 L99 0 L99 299 C99 375 141 434 196 459 C217 468 240 472 269 471 L269 520 C231 520 205 515 174 497 C143 479 119 451 101 415 L99 415 L99 517 Z " />
<glyph glyph-name="s" unicode="s" horiz-adv-x="433" d="M221 -13 C342 -13 409 55 409 139 C409 237 341 265 237 289 C131 314 83 331 83 391 C83 445 126 485 210 485 C288 485 339 447 346 381 L394 381 C382 465 329 528 210 528 C112 528 34 476 34 390 C34 298 113 270 219 245 C333 218 360 196 360 140 C360 72 308 29 221 29 C135 29 74 71 67 156 L17 156 C22 67 86 -13 221 -13 L221 -13 Z " />
<glyph glyph-name="t" unicode="t" horiz-adv-x="266" d="M14 476 L94 476 L94 84 C94 23 129 -4 182 -4 C203 -4 218 -1 234 5 L234 47 L231 47 C222 42 205 38 192 38 C158 38 143 50 143 88 L143 476 L237 476 L237 517 L143 517 L143 673 L94 673 L94 517 L14 517 L14 476 Z " />
<glyph glyph-name="u" unicode="u" horiz-adv-x="479" d="M429 0 L429 517 L380 517 L380 190 C380 99 312 30 221 30 C144 30 95 68 95 153 L95 517 L46 517 L46 148 C46 45 117 -12 212 -12 C299 -12 344 29 378 79 L380 79 L380 0 L429 0 Z " />
<glyph glyph-name="v" unicode="v" horiz-adv-x="452" d="M193 0 L254 0 L443 517 L393 517 L273 189 C254 136 224 44 224 44 L222 44 C222 44 193 136 175 189 L61 517 L9 517 L193 0 Z " />
<glyph glyph-name="w" unicode="w" horiz-adv-x="695" d="M161 0 L222 0 L315 342 C329 395 344 465 344 465 L346 465 C346 465 360 395 374 342 L464 0 L523 0 L681 517 L632 517 L537 197 C521 141 496 45 496 45 L494 45 C494 45 472 139 459 190 L373 517 L318 517 L229 190 C215 138 192 45 192 45 L190 45 C190 45 169 140 153 197 L65 517 L14 517 L161 0 Z " />
<glyph glyph-name="x" unicode="x" horiz-adv-x="466" d="M9 0 L66 0 L231 241 L233 241 L399 0 L457 0 L262 276 L428 517 L371 517 L232 310 L230 310 L87 517 L29 517 L202 275 L9 0 Z " />
<glyph glyph-name="y" unicode="y" horiz-adv-x="455" d="M96 -171 C166 -171 208 -146 238 -62 L446 517 L396 517 L276 175 C258 123 234 46 234 46 L232 46 C232 46 206 124 187 175 L61 517 L10 517 L208 -8 L193 -51 C174 -106 143 -126 100 -126 C78 -126 67 -123 59 -121 L57 -121 L57 -165 C68 -168 78 -171 96 -171 L96 -171 Z " />
<glyph glyph-name="z" unicode="z" horiz-adv-x="431" d="M24 0 L406 0 L406 43 L83 43 L83 46 L398 476 L398 517 L46 517 L46 474 L336 474 L336 471 L24 45 L24 0 Z " />
<glyph glyph-name="braceleft" unicode="&#x7b;" horiz-adv-x="282" d="M214 -118 L232 -118 L232 -72 L216 -72 C165 -72 143 -52 143 7 L143 232 C143 284 126 310 87 321 L87 323 C126 334 143 360 143 412 L143 629 C143 688 165 709 216 709 L232 709 L232 754 L214 754 C136 754 93 716 93 630 L93 416 C93 370 77 346 24 345 L24 299 C77 298 93 274 93 228 L93 6 C93 -80 136 -118 214 -118 L214 -118 Z " />
<glyph glyph-name="bar" unicode="&#x7c;" horiz-adv-x="201" d="M77 -118 L124 -118 L124 754 L77 754 L77 -118 Z " />
<glyph glyph-name="braceright" unicode="&#x7d;" horiz-adv-x="282" d="M68 -118 C146 -118 189 -80 189 6 L189 228 C189 274 205 298 258 299 L258 345 C205 346 189 370 189 416 L189 630 C189 716 146 754 68 754 L50 754 L50 709 L66 709 C117 709 139 688 139 629 L139 412 C139 360 156 334 195 323 L195 321 C156 310 139 284 139 232 L139 7 C139 -52 117 -72 66 -72 L50 -72 L50 -118 L68 -118 Z " />
<glyph glyph-name="asciitilde" unicode="&#x7e;" horiz-adv-x="379" d="M255 287 C301 287 337 320 341 384 L296 384 C294 350 275 333 254 333 C238 333 226 340 201 356 C178 371 152 386 124 386 C78 386 43 354 38 288 L83 288 C85 322 102 340 123 340 C140 340 161 326 184 312 C206 299 230 287 255 287 L255 287 Z " />
<glyph glyph-name="uni00A0" unicode="&#xa0;" horiz-adv-x="161" d="" />
<glyph glyph-name="exclamdown" unicode="&#xa1;" horiz-adv-x="197" d="M116 415 L81 415 L71 102 L71 -127 L126 -127 L126 102 L116 415 Z M129 588 L68 588 L68 509 L129 509 L129 588 Z " />
<glyph glyph-name="cent" unicode="&#xa2;" horiz-adv-x="479" d="M230 -85 L270 -85 L270 -12 C378 -5 444 69 457 175 L411 175 C401 96 349 39 270 31 L270 485 C340 480 387 443 403 368 L451 368 C436 466 368 521 270 527 L270 591 L230 591 L230 527 C96 516 26 406 26 258 C26 109 95 -1 230 -12 L230 -85 Z M76 258 C76 374 121 473 230 485 L230 31 C122 42 76 141 76 258 L76 258 Z " />
<glyph glyph-name="sterling" unicode="&#xa3;" horiz-adv-x="524" d="M37 313 L121 313 C131 285 138 256 138 227 C138 142 99 85 36 39 L65 -5 C95 15 133 38 173 38 C253 38 271 -10 362 -10 C424 -10 457 13 496 47 L468 84 C440 58 406 35 365 35 C299 35 257 80 185 80 C156 80 139 73 115 60 L114 62 C162 103 185 160 185 234 C185 261 180 287 173 313 L330 313 L330 355 L159 355 C141 406 120 455 120 504 C120 593 174 655 273 655 C355 655 431 607 433 488 L482 488 C480 619 394 699 276 699 C135 699 69 605 69 505 C69 449 88 401 106 355 L37 355 L37 313 Z " />
<glyph glyph-name="currency" unicode="&#xa4;" horiz-adv-x="487" d="M244 185 C151 185 102 259 102 350 C102 441 151 516 244 516 C336 516 384 441 384 350 C384 259 336 185 244 185 L244 185 Z M16 561 L91 480 C66 445 53 400 53 350 C53 299 66 253 91 218 L16 137 L46 107 L120 186 C151 159 193 143 244 143 C294 143 335 159 367 186 L441 107 L471 137 L395 217 C420 253 434 299 434 350 C434 400 421 446 396 481 L471 561 L441 591 L367 512 C336 539 294 555 244 555 C193 555 150 539 119 512 L46 591 L16 561 Z " />
<glyph glyph-name="yen" unicode="&#xa5;" horiz-adv-x="530" d="M58 285 L239 285 L239 210 L58 210 L58 169 L239 169 L239 0 L289 0 L289 169 L470 169 L470 210 L289 210 L289 285 L470 285 L470 326 L301 326 L518 686 L463 686 L266 355 L264 355 L70 686 L12 686 L228 326 L58 326 L58 285 Z " />
<glyph glyph-name="brokenbar" unicode="&#xa6;" horiz-adv-x="201" d="M124 293 L77 293 L77 -118 L124 -118 L124 293 Z M77 359 L124 359 L124 754 L77 754 L77 359 Z " />
<glyph glyph-name="section" unicode="&#xa7;" horiz-adv-x="548" d="M283 -182 C391 -182 450 -125 450 -40 C450 -1 435 28 409 54 C480 76 520 122 520 189 C520 290 429 341 311 404 C209 459 156 487 156 554 C156 609 193 653 270 653 C346 653 398 608 403 530 L456 530 C450 628 383 699 272 699 C168 699 103 638 103 551 C103 513 116 484 140 458 C74 438 28 397 28 323 C28 226 118 175 245 101 C355 37 397 17 397 -41 C397 -103 358 -136 283 -136 C194 -136 138 -78 134 2 L81 2 C83 -90 156 -182 283 -182 L283 -182 Z M290 358 C403 297 468 260 468 188 C468 146 444 101 374 83 C345 104 308 124 266 148 C138 220 80 253 80 326 C80 381 113 414 175 427 C205 404 244 383 290 358 L290 358 Z " />
<glyph glyph-name="dieresis" unicode="&#xa8;" horiz-adv-x="520" d="M160 635 L209 635 L209 715 L160 715 L160 635 Z M311 635 L360 635 L360 715 L311 715 L311 635 Z " />
<glyph glyph-name="copyright" unicode="&#xa9;" horiz-adv-x="812" d="M406 -17 C610 -17 770 141 770 355 C770 569 610 728 406 728 C202 728 42 569 42 355 C42 141 202 -17 406 -17 L406 -17 Z M406 15 C219 15 82 159 82 355 C82 551 219 696 406 696 C593 696 730 551 730 355 C730 159 593 15 406 15 L406 15 Z M408 122 C467 122 514 143 545 177 C572 206 588 247 591 290 L542 290 C535 218 489 165 408 165 C309 165 256 246 256 355 C256 462 307 548 410 548 C479 548 523 509 534 452 L584 452 C569 536 506 591 410 591 C282 591 204 492 204 355 C204 218 286 122 408 122 L408 122 Z " />
<glyph glyph-name="ordfeminine" unicode="&#xaa;" horiz-adv-x="463" d="M393 559 C393 654 334 699 236 699 C129 699 70 646 60 559 L108 559 C116 624 158 659 236 659 C306 659 345 627 345 563 L345 552 C345 510 318 503 219 494 C121 484 37 462 37 356 C37 273 103 228 186 228 C276 228 317 272 343 307 L345 307 L345 301 C345 254 373 233 412 233 C432 233 444 237 452 241 L452 277 L449 277 C440 274 432 272 425 272 C407 272 393 280 393 307 L393 559 Z M193 269 C137 269 88 292 88 355 C88 436 145 446 224 455 C268 460 315 467 345 482 L345 401 C345 336 293 269 193 269 L193 269 Z " />
<glyph glyph-name="guillemotleft" unicode="&#xab;" horiz-adv-x="402" d="M342 126 L342 188 L249 270 L249 272 L342 355 L342 417 L218 305 L218 238 L342 126 Z M184 126 L184 188 L91 270 L91 272 L184 355 L184 417 L60 305 L60 238 L184 126 Z " />
<glyph glyph-name="logicalnot" unicode="&#xac;" horiz-adv-x="510" d="M56 325 L384 325 L384 135 L434 135 L434 371 L56 371 L56 325 Z " />
<glyph glyph-name="uni00AD" unicode="&#xad;" horiz-adv-x="314" d="M33 260 L281 260 L281 304 L33 304 L33 260 Z " />
<glyph glyph-name="registered" unicode="&#xae;" horiz-adv-x="528" d="M264 244 C397 244 501 346 501 486 C501 625 397 728 264 728 C131 728 27 625 27 486 C27 346 131 244 264 244 L264 244 Z M264 274 C147 274 63 363 63 486 C63 608 147 698 264 698 C381 698 465 608 465 486 C465 363 381 274 264 274 L264 274 Z M171 359 L211 359 L211 470 L269 470 C305 470 321 454 322 419 C324 385 326 362 333 359 L372 359 L372 361 C365 365 365 387 361 426 C359 461 347 478 321 485 L321 486 C354 495 369 518 369 549 C369 592 337 621 289 621 L171 621 L171 359 Z M211 588 L281 588 C314 588 329 570 329 544 C329 518 312 502 280 502 L211 502 L211 588 Z " />
<glyph glyph-name="macron" unicode="&#xaf;" horiz-adv-x="500" d="M129 630 L371 630 L371 679 L129 679 L129 630 Z " />
<glyph glyph-name="degree" unicode="&#xb0;" horiz-adv-x="318" d="M159 461 C226 461 277 514 277 580 C277 646 226 699 159 699 C93 699 41 646 41 580 C41 514 93 461 159 461 L159 461 Z M159 499 C115 499 86 533 86 580 C86 626 115 661 159 661 C204 661 232 626 232 580 C232 533 204 499 159 499 L159 499 Z " />
<glyph glyph-name="plusminus" unicode="&#xb1;" horiz-adv-x="510" d="M56 313 L230 313 L230 133 L280 133 L280 313 L454 313 L454 359 L280 359 L280 536 L230 536 L230 359 L56 359 L56 313 Z M56 0 L454 0 L454 46 L56 46 L56 0 Z " />
<glyph glyph-name="twosuperior" unicode="&#xb2;" horiz-adv-x="332" d="M31 287 L296 287 L296 326 L86 326 C94 377 143 406 185 432 C241 466 298 497 298 575 C298 641 250 693 174 693 C97 693 41 646 41 556 L85 556 C87 621 120 654 173 654 C220 654 251 626 251 574 C251 515 208 495 155 461 C97 423 33 382 31 287 L31 287 Z " />
<glyph glyph-name="threesuperior" unicode="&#xb3;" horiz-adv-x="339" d="M170 279 C248 279 306 322 306 397 C306 449 281 484 231 499 L231 501 C266 514 291 542 291 587 C291 653 239 693 170 693 C88 693 41 641 40 567 L84 567 C85 618 114 657 169 657 C213 657 245 631 245 586 C245 543 216 516 167 516 L140 516 L140 479 L168 479 C225 479 258 450 258 400 C258 349 226 318 168 318 C111 318 75 351 73 411 L27 411 C27 330 86 279 170 279 L170 279 Z " />
<glyph glyph-name="acute" unicode="&#xb4;" horiz-adv-x="500" d="M209 588 L253 588 L354 715 L285 715 L209 588 Z " />
<glyph glyph-name="mu" unicode="&#xb5;" horiz-adv-x="483" d="M433 0 L433 517 L384 517 L384 190 C384 99 316 30 225 30 C148 30 99 68 99 153 L99 517 L50 517 L50 -166 L99 -166 L99 42 L101 42 C129 2 170 -12 216 -12 C303 -12 348 29 382 79 L384 79 L384 0 L433 0 Z " />
<glyph glyph-name="paragraph" unicode="&#xb6;" horiz-adv-x="486" d="M246 382 L246 0 L298 0 L298 665 L372 665 L372 0 L424 0 L424 715 L208 715 C150 715 106 700 76 670 C46 640 29 599 29 551 C29 445 92 382 215 382 L246 382 Z " />
<glyph glyph-name="periodcentered" unicode="&#xb7;" horiz-adv-x="143" d="M41 271 L102 271 L102 350 L41 350 L41 271 Z " />
<glyph glyph-name="cedilla" unicode="&#xb8;" horiz-adv-x="500" d="M219 -184 C275 -184 315 -159 315 -113 C315 -72 281 -50 235 -52 L235 -50 L290 0 L243 0 L172 -69 L185 -91 C195 -88 207 -84 224 -84 C250 -84 267 -91 267 -113 C267 -135 247 -150 210 -150 C185 -150 165 -145 143 -137 L130 -162 C151 -174 180 -184 219 -184 L219 -184 Z " />
<glyph glyph-name="onesuperior" unicode="&#xb9;" horiz-adv-x="232" d="M120 287 L166 287 L166 688 L129 688 C121 634 91 615 32 614 L32 582 L120 582 L120 287 Z " />
<glyph glyph-name="ordmasculine" unicode="&#xba;" horiz-adv-x="459" d="M230 228 C358 228 434 329 434 464 C434 599 358 699 230 699 C101 699 25 599 25 464 C25 329 101 228 230 228 L230 228 Z M230 269 C128 269 74 356 74 464 C74 572 128 660 230 660 C331 660 384 572 384 464 C384 356 331 269 230 269 L230 269 Z " />
<glyph glyph-name="guillemotright" unicode="&#xbb;" horiz-adv-x="402" d="M60 417 L60 355 L153 273 L153 271 L60 188 L60 126 L184 238 L184 305 L60 417 Z M218 417 L218 355 L311 273 L311 271 L218 188 L218 126 L342 238 L342 305 L218 417 Z " />
<glyph glyph-name="onequarter" unicode="&#xbc;" horiz-adv-x="704" d="M126 317 L172 317 L172 718 L135 718 C127 664 97 645 38 644 L38 612 L126 612 L126 317 Z M60 0 L113 0 L625 715 L572 715 L60 0 Z M568 0 L613 0 L613 99 L673 99 L673 136 L613 136 L613 402 L570 402 L383 144 L383 99 L568 99 L568 0 Z M424 138 L567 334 L568 334 L568 136 L424 136 L424 138 Z " />
<glyph glyph-name="onehalf" unicode="&#xbd;" horiz-adv-x="743" d="M436 0 L702 0 L702 39 L492 39 C500 90 549 119 591 145 C647 179 704 210 704 288 C704 354 656 406 580 406 C503 406 447 359 447 269 L491 269 C493 334 526 367 579 367 C626 367 657 339 657 287 C657 228 614 208 561 174 C502 136 439 95 436 0 L436 0 Z M51 0 L104 0 L616 715 L563 715 L51 0 Z M126 317 L172 317 L172 718 L135 718 C127 664 97 645 38 644 L38 612 L126 612 L126 317 Z " />
<glyph glyph-name="threequarters" unicode="&#xbe;" horiz-adv-x="770" d="M176 309 C254 309 312 352 312 427 C312 479 287 514 237 529 L237 531 C272 544 297 572 297 617 C297 683 245 723 176 723 C94 723 47 671 46 597 L90 597 C91 648 120 687 175 687 C219 687 251 661 251 616 C251 573 222 546 173 546 L146 546 L146 509 L174 509 C231 509 264 480 264 430 C264 379 232 348 174 348 C117 348 81 381 79 441 L33 441 C32 360 92 309 176 309 L176 309 Z M132 0 L185 0 L697 715 L644 715 L132 0 Z M634 0 L679 0 L679 99 L739 99 L739 136 L679 136 L679 402 L636 402 L449 144 L449 99 L634 99 L634 0 Z M490 138 L633 334 L634 334 L634 136 L490 136 L490 138 Z " />
<glyph glyph-name="questiondown" unicode="&#xbf;" horiz-adv-x="493" d="M295 415 L246 415 C246 316 226 287 160 231 C108 187 48 147 48 38 C48 -64 124 -140 239 -140 C391 -140 458 -32 459 71 L408 71 C406 -22 345 -94 242 -94 C160 -94 101 -46 101 39 C101 122 149 160 194 197 C268 258 295 299 295 415 L295 415 Z M301 588 L240 588 L240 509 L301 509 L301 588 Z " />
<glyph glyph-name="Agrave" unicode="&#xc0;" horiz-adv-x="624" d="M6 0 L59 0 L147 229 L476 229 L564 0 L618 0 L341 715 L282 715 L6 0 Z M273 557 C290 602 310 663 310 663 L312 663 C312 663 335 598 351 557 L459 273 L164 273 L273 557 Z M343 753 L267 863 L198 863 L299 753 L343 753 Z " />
<glyph glyph-name="Aacute" unicode="&#xc1;" horiz-adv-x="624" d="M6 0 L59 0 L147 229 L476 229 L564 0 L618 0 L341 715 L282 715 L6 0 Z M273 557 C290 602 310 663 310 663 L312 663 C312 663 335 598 351 557 L459 273 L164 273 L273 557 Z M280 753 L324 753 L425 863 L356 863 L280 753 Z " />
<glyph glyph-name="Acircumflex" unicode="&#xc2;" horiz-adv-x="624" d="M6 0 L59 0 L147 229 L476 229 L564 0 L618 0 L341 715 L282 715 L6 0 Z M273 557 C290 602 310 663 310 663 L312 663 C312 663 335 598 351 557 L459 273 L164 273 L273 557 Z M187 752 L243 752 L310 823 L312 823 L378 752 L437 752 L343 853 L281 853 L187 752 Z " />
<glyph glyph-name="Atilde" unicode="&#xc3;" horiz-adv-x="624" d="M6 0 L59 0 L147 229 L476 229 L564 0 L618 0 L341 715 L282 715 L6 0 Z M273 557 C290 602 310 663 310 663 L312 663 C312 663 335 598 351 557 L459 273 L164 273 L273 557 Z M371 760 C410 760 440 789 444 844 L402 844 C400 818 386 803 369 803 C340 803 296 846 254 846 C215 846 186 819 181 762 L223 762 C225 788 240 803 254 803 C283 803 330 760 371 760 L371 760 Z " />
<glyph glyph-name="Adieresis" unicode="&#xc4;" horiz-adv-x="624" d="M6 0 L59 0 L147 229 L476 229 L564 0 L618 0 L341 715 L282 715 L6 0 Z M273 557 C290 602 310 663 310 663 L312 663 C312 663 335 598 351 557 L459 273 L164 273 L273 557 Z M212 755 L261 755 L261 835 L212 835 L212 755 Z M363 755 L412 755 L412 835 L363 835 L363 755 Z " />
<glyph glyph-name="Aring" unicode="&#xc5;" horiz-adv-x="624" d="M6 0 L59 0 L147 229 L476 229 L564 0 L618 0 L341 715 L282 715 L6 0 Z M273 557 C290 602 310 663 310 663 L312 663 C312 663 335 598 351 557 L459 273 L164 273 L273 557 Z M312 742 C360 742 399 780 399 827 C399 874 360 912 312 912 C264 912 225 874 225 827 C225 780 264 742 312 742 L312 742 Z M312 775 C283 775 263 798 263 827 C263 856 283 879 312 879 C341 879 361 856 361 827 C361 798 341 775 312 775 L312 775 Z " />
<glyph glyph-name="AE" unicode="&#xc6;" horiz-adv-x="945" d="M865 346 L865 391 L517 391 L517 669 L899 669 L899 715 L306 715 L9 0 L62 0 L157 229 L465 229 L465 0 L909 0 L909 48 L517 48 L517 346 L865 346 Z M465 669 L465 273 L175 273 L339 669 L465 669 Z " />
<glyph glyph-name="Ccedilla" unicode="&#xc7;" horiz-adv-x="656" d="M315 -184 C371 -184 411 -159 411 -113 C411 -72 377 -50 331 -52 L331 -50 L373 -12 C452 -6 519 27 564 81 C602 126 624 189 630 259 L581 259 C568 132 487 33 346 33 C172 33 88 175 88 356 C88 537 173 684 349 684 C468 684 544 616 564 519 L616 519 C588 653 490 729 349 729 C154 729 34 576 34 356 C34 143 143 -3 326 -12 L268 -69 L281 -91 C291 -88 303 -84 320 -84 C346 -84 363 -91 363 -113 C363 -135 343 -150 306 -150 C281 -150 261 -145 239 -137 L226 -162 C247 -174 276 -184 315 -184 L315 -184 Z " />
<glyph glyph-name="Egrave" unicode="&#xc8;" horiz-adv-x="582" d="M62 0 L546 0 L546 48 L114 48 L114 346 L502 346 L502 391 L114 391 L114 669 L536 669 L536 715 L62 715 L62 0 Z M342 753 L266 863 L197 863 L298 753 L342 753 Z " />
<glyph glyph-name="Eacute" unicode="&#xc9;" horiz-adv-x="582" d="M62 0 L546 0 L546 48 L114 48 L114 346 L502 346 L502 391 L114 391 L114 669 L536 669 L536 715 L62 715 L62 0 Z M279 753 L323 753 L424 863 L355 863 L279 753 Z " />
<glyph glyph-name="Ecircumflex" unicode="&#xca;" horiz-adv-x="582" d="M62 0 L546 0 L546 48 L114 48 L114 346 L502 346 L502 391 L114 391 L114 669 L536 669 L536 715 L62 715 L62 0 Z M186 752 L242 752 L309 823 L311 823 L377 752 L436 752 L342 853 L280 853 L186 752 Z " />
<glyph glyph-name="Edieresis" unicode="&#xcb;" horiz-adv-x="582" d="M62 0 L546 0 L546 48 L114 48 L114 346 L502 346 L502 391 L114 391 L114 669 L536 669 L536 715 L62 715 L62 0 Z M211 755 L260 755 L260 835 L211 835 L211 755 Z M362 755 L411 755 L411 835 L362 835 L362 755 Z " />
<glyph glyph-name="Igrave" unicode="&#xcc;" horiz-adv-x="184" d="M66 0 L118 0 L118 715 L66 715 L66 0 Z M115 753 L39 863 L-30 863 L71 753 L115 753 Z " />
<glyph glyph-name="Iacute" unicode="&#xcd;" horiz-adv-x="184" d="M66 0 L118 0 L118 715 L66 715 L66 0 Z M68 753 L112 753 L213 863 L144 863 L68 753 Z " />
<glyph glyph-name="Icircumflex" unicode="&#xce;" horiz-adv-x="184" d="M66 0 L118 0 L118 715 L66 715 L66 0 Z M-33 752 L23 752 L90 823 L92 823 L158 752 L217 752 L123 853 L61 853 L-33 752 Z " />
<glyph glyph-name="Idieresis" unicode="&#xcf;" horiz-adv-x="184" d="M66 0 L118 0 L118 715 L66 715 L66 0 Z M-8 755 L41 755 L41 835 L-8 835 L-8 755 Z M143 755 L192 755 L192 835 L143 835 L143 755 Z " />
<glyph glyph-name="Eth" unicode="&#xd0;" horiz-adv-x="660" d="M1 336 L72 336 L72 0 L315 0 C523 0 620 145 620 355 C620 565 530 715 322 715 L72 715 L72 381 L1 381 L1 336 Z M124 46 L124 336 L382 336 L382 381 L124 381 L124 668 L320 668 C493 668 566 544 566 355 C566 166 486 46 313 46 L124 46 Z " />
<glyph glyph-name="Ntilde" unicode="&#xd1;" horiz-adv-x="649" d="M62 0 L112 0 L112 637 L114 637 C114 637 164 554 204 494 L532 0 L587 0 L587 715 L537 715 L537 75 L535 75 C535 75 495 145 452 210 L120 715 L62 715 L62 0 Z M401 760 C440 760 470 789 474 844 L432 844 C430 818 416 803 399 803 C370 803 326 846 284 846 C245 846 216 819 211 762 L253 762 C255 788 270 803 284 803 C313 803 360 760 401 760 L401 760 Z " />
<glyph glyph-name="Ograve" unicode="&#xd2;" horiz-adv-x="710" d="M354 -13 C548 -13 676 146 676 358 C676 570 548 729 354 729 C160 729 34 570 34 358 C34 146 160 -13 354 -13 L354 -13 Z M354 34 C180 34 88 181 88 358 C88 535 180 682 354 682 C528 682 622 535 622 358 C622 181 528 34 354 34 L354 34 Z M389 753 L313 863 L244 863 L345 753 L389 753 Z " />
<glyph glyph-name="Oacute" unicode="&#xd3;" horiz-adv-x="710" d="M354 -13 C548 -13 676 146 676 358 C676 570 548 729 354 729 C160 729 34 570 34 358 C34 146 160 -13 354 -13 L354 -13 Z M354 34 C180 34 88 181 88 358 C88 535 180 682 354 682 C528 682 622 535 622 358 C622 181 528 34 354 34 L354 34 Z M320 753 L364 753 L465 863 L396 863 L320 753 Z " />
<glyph glyph-name="Ocircumflex" unicode="&#xd4;" horiz-adv-x="710" d="M354 -13 C548 -13 676 146 676 358 C676 570 548 729 354 729 C160 729 34 570 34 358 C34 146 160 -13 354 -13 L354 -13 Z M354 34 C180 34 88 181 88 358 C88 535 180 682 354 682 C528 682 622 535 622 358 C622 181 528 34 354 34 L354 34 Z M230 752 L286 752 L353 823 L355 823 L421 752 L480 752 L386 853 L324 853 L230 752 Z " />
<glyph glyph-name="Otilde" unicode="&#xd5;" horiz-adv-x="710" d="M354 -13 C548 -13 676 146 676 358 C676 570 548 729 354 729 C160 729 34 570 34 358 C34 146 160 -13 354 -13 L354 -13 Z M354 34 C180 34 88 181 88 358 C88 535 180 682 354 682 C528 682 622 535 622 358 C622 181 528 34 354 34 L354 34 Z M414 760 C453 760 483 789 487 844 L445 844 C443 818 429 803 412 803 C383 803 339 846 297 846 C258 846 229 819 224 762 L266 762 C268 788 283 803 297 803 C326 803 373 760 414 760 L414 760 Z " />
<glyph glyph-name="Odieresis" unicode="&#xd6;" horiz-adv-x="710" d="M354 -13 C548 -13 676 146 676 358 C676 570 548 729 354 729 C160 729 34 570 34 358 C34 146 160 -13 354 -13 L354 -13 Z M354 34 C180 34 88 181 88 358 C88 535 180 682 354 682 C528 682 622 535 622 358 C622 181 528 34 354 34 L354 34 Z M255 755 L304 755 L304 835 L255 835 L255 755 Z M406 755 L455 755 L455 835 L406 835 L406 755 Z " />
<glyph glyph-name="multiply" unicode="&#xd7;" horiz-adv-x="507" d="M79 472 L222 324 L79 176 L111 144 L253 291 L396 144 L428 176 L285 324 L428 472 L396 504 L253 356 L111 504 L79 472 Z " />
<glyph glyph-name="Oslash" unicode="&#xd8;" horiz-adv-x="710" d="M51 -16 L134 78 C189 21 264 -13 354 -13 C548 -13 676 146 676 358 C676 454 649 540 602 605 L688 702 L659 729 L576 635 C520 694 444 729 354 729 C160 729 34 570 34 358 C34 260 61 174 109 109 L22 11 L51 -16 Z M88 358 C88 535 180 682 354 682 C435 682 498 650 543 598 L143 147 C106 204 88 278 88 358 L88 358 Z M354 34 C274 34 212 65 167 115 L567 566 C603 509 622 436 622 358 C622 181 528 34 354 34 L354 34 Z " />
<glyph glyph-name="Ugrave" unicode="&#xd9;" horiz-adv-x="622" d="M308 -11 C463 -11 566 63 566 225 L566 715 L514 715 L514 229 C514 89 434 35 311 35 C181 35 108 89 108 229 L108 715 L56 715 L56 225 C56 67 152 -11 308 -11 L308 -11 Z M342 753 L266 863 L197 863 L298 753 L342 753 Z " />
<glyph glyph-name="Uacute" unicode="&#xda;" horiz-adv-x="622" d="M308 -11 C463 -11 566 63 566 225 L566 715 L514 715 L514 229 C514 89 434 35 311 35 C181 35 108 89 108 229 L108 715 L56 715 L56 225 C56 67 152 -11 308 -11 L308 -11 Z M279 753 L323 753 L424 863 L355 863 L279 753 Z " />
<glyph glyph-name="Ucircumflex" unicode="&#xdb;" horiz-adv-x="622" d="M308 -11 C463 -11 566 63 566 225 L566 715 L514 715 L514 229 C514 89 434 35 311 35 C181 35 108 89 108 229 L108 715 L56 715 L56 225 C56 67 152 -11 308 -11 L308 -11 Z M186 752 L242 752 L309 823 L311 823 L377 752 L436 752 L342 853 L280 853 L186 752 Z " />
<glyph glyph-name="Udieresis" unicode="&#xdc;" horiz-adv-x="622" d="M308 -11 C463 -11 566 63 566 225 L566 715 L514 715 L514 229 C514 89 434 35 311 35 C181 35 108 89 108 229 L108 715 L56 715 L56 225 C56 67 152 -11 308 -11 L308 -11 Z M211 755 L260 755 L260 835 L211 835 L211 755 Z M362 755 L411 755 L411 835 L362 835 L362 755 Z " />
<glyph glyph-name="Yacute" unicode="&#xdd;" horiz-adv-x="579" d="M263 0 L315 0 L315 316 L574 715 L518 715 L291 365 L289 365 L62 715 L5 715 L263 318 L263 0 Z M257 753 L301 753 L402 863 L333 863 L257 753 Z " />
<glyph glyph-name="Thorn" unicode="&#xde;" horiz-adv-x="578" d="M114 0 L114 181 L325 181 C472 181 549 247 549 381 C549 442 532 487 498 520 C460 557 411 577 332 577 L114 577 L114 715 L62 715 L62 0 L114 0 Z M328 530 C439 530 496 475 496 380 C496 285 448 227 321 227 L114 227 L114 530 L328 530 Z " />
<glyph glyph-name="germandbls" unicode="&#xdf;" horiz-adv-x="469" d="M239 -5 C358 -5 444 65 444 207 C444 311 391 376 308 403 L308 405 C371 429 405 482 405 555 C405 648 336 723 230 723 C122 723 50 655 50 544 L50 0 L99 0 L99 542 C99 631 151 682 229 682 C308 682 356 629 356 554 C356 481 316 420 234 420 L188 420 L188 379 L231 379 C337 379 393 308 393 204 C393 96 331 38 233 38 C218 38 199 40 183 44 L181 44 L181 2 C197 -2 229 -5 239 -5 L239 -5 Z " />
<glyph glyph-name="agrave" unicode="&#xe0;" horiz-adv-x="492" d="M446 -8 C466 -8 478 -4 486 0 L486 36 L483 36 C474 33 466 31 459 31 C441 31 426 39 426 67 L426 371 C426 477 362 528 247 528 C118 528 51 470 41 370 L91 370 C98 446 150 486 247 486 C331 486 377 452 377 374 L377 356 C377 308 349 302 227 290 C119 279 23 254 23 131 C23 36 93 -13 188 -13 C294 -13 346 39 375 80 L378 80 L378 62 C378 14 406 -8 446 -8 L446 -8 Z M193 28 C127 28 73 56 73 129 C73 227 142 239 233 249 C286 255 341 262 377 280 L377 184 C377 106 310 28 193 28 L193 28 Z M287 588 L211 715 L142 715 L243 588 L287 588 Z " />
<glyph glyph-name="aacute" unicode="&#xe1;" horiz-adv-x="492" d="M446 -8 C466 -8 478 -4 486 0 L486 36 L483 36 C474 33 466 31 459 31 C441 31 426 39 426 67 L426 371 C426 477 362 528 247 528 C118 528 51 470 41 370 L91 370 C98 446 150 486 247 486 C331 486 377 452 377 374 L377 356 C377 308 349 302 227 290 C119 279 23 254 23 131 C23 36 93 -13 188 -13 C294 -13 346 39 375 80 L378 80 L378 62 C378 14 406 -8 446 -8 L446 -8 Z M193 28 C127 28 73 56 73 129 C73 227 142 239 233 249 C286 255 341 262 377 280 L377 184 C377 106 310 28 193 28 L193 28 Z M210 588 L254 588 L355 715 L286 715 L210 588 Z " />
<glyph glyph-name="acircumflex" unicode="&#xe2;" horiz-adv-x="492" d="M446 -8 C466 -8 478 -4 486 0 L486 36 L483 36 C474 33 466 31 459 31 C441 31 426 39 426 67 L426 371 C426 477 362 528 247 528 C118 528 51 470 41 370 L91 370 C98 446 150 486 247 486 C331 486 377 452 377 374 L377 356 C377 308 349 302 227 290 C119 279 23 254 23 131 C23 36 93 -13 188 -13 C294 -13 346 39 375 80 L378 80 L378 62 C378 14 406 -8 446 -8 L446 -8 Z M193 28 C127 28 73 56 73 129 C73 227 142 239 233 249 C286 255 341 262 377 280 L377 184 C377 106 310 28 193 28 L193 28 Z M139 592 L193 592 L248 668 L250 668 L304 592 L361 592 L281 698 L219 698 L139 592 Z " />
<glyph glyph-name="atilde" unicode="&#xe3;" horiz-adv-x="492" d="M446 -8 C466 -8 478 -4 486 0 L486 36 L483 36 C474 33 466 31 459 31 C441 31 426 39 426 67 L426 371 C426 477 362 528 247 528 C118 528 51 470 41 370 L91 370 C98 446 150 486 247 486 C331 486 377 452 377 374 L377 356 C377 308 349 302 227 290 C119 279 23 254 23 131 C23 36 93 -13 188 -13 C294 -13 346 39 375 80 L378 80 L378 62 C378 14 406 -8 446 -8 L446 -8 Z M193 28 C127 28 73 56 73 129 C73 227 142 239 233 249 C286 255 341 262 377 280 L377 184 C377 106 310 28 193 28 L193 28 Z M309 600 C348 600 378 629 382 684 L340 684 C338 658 324 643 307 643 C278 643 234 686 192 686 C153 686 124 659 119 602 L161 602 C163 628 178 643 192 643 C221 643 268 600 309 600 L309 600 Z " />
<glyph glyph-name="adieresis" unicode="&#xe4;" horiz-adv-x="492" d="M446 -8 C466 -8 478 -4 486 0 L486 36 L483 36 C474 33 466 31 459 31 C441 31 426 39 426 67 L426 371 C426 477 362 528 247 528 C118 528 51 470 41 370 L91 370 C98 446 150 486 247 486 C331 486 377 452 377 374 L377 356 C377 308 349 302 227 290 C119 279 23 254 23 131 C23 36 93 -13 188 -13 C294 -13 346 39 375 80 L378 80 L378 62 C378 14 406 -8 446 -8 L446 -8 Z M193 28 C127 28 73 56 73 129 C73 227 142 239 233 249 C286 255 341 262 377 280 L377 184 C377 106 310 28 193 28 L193 28 Z M150 635 L199 635 L199 715 L150 715 L150 635 Z M301 635 L350 635 L350 715 L301 715 L301 635 Z " />
<glyph glyph-name="aring" unicode="&#xe5;" horiz-adv-x="492" d="M446 -8 C466 -8 478 -4 486 0 L486 36 L483 36 C474 33 466 31 459 31 C441 31 426 39 426 67 L426 371 C426 477 362 528 247 528 C118 528 51 470 41 370 L91 370 C98 446 150 486 247 486 C331 486 377 452 377 374 L377 356 C377 308 349 302 227 290 C119 279 23 254 23 131 C23 36 93 -13 188 -13 C294 -13 346 39 375 80 L378 80 L378 62 C378 14 406 -8 446 -8 L446 -8 Z M193 28 C127 28 73 56 73 129 C73 227 142 239 233 249 C286 255 341 262 377 280 L377 184 C377 106 310 28 193 28 L193 28 Z M250 576 C298 576 337 614 337 661 C337 708 298 746 250 746 C202 746 163 708 163 661 C163 614 202 576 250 576 L250 576 Z M250 609 C221 609 201 632 201 661 C201 690 221 713 250 713 C279 713 299 690 299 661 C299 632 279 609 250 609 L250 609 Z " />
<glyph glyph-name="ae" unicode="&#xe6;" horiz-adv-x="842" d="M817 253 C818 351 799 425 742 478 C708 510 662 528 606 528 C519 528 454 486 417 416 C400 490 343 528 249 528 C129 528 62 470 49 370 L98 370 C108 445 158 486 249 486 C331 486 377 448 377 370 L377 356 C377 308 349 302 227 290 C119 279 23 256 23 133 C23 38 99 -13 201 -13 C300 -13 368 31 406 109 L407 109 C444 33 512 -13 610 -13 C725 -13 793 58 814 154 L767 154 C746 84 703 30 610 30 C483 30 427 129 426 253 L817 253 Z M204 29 C132 29 73 58 73 131 C73 229 142 240 233 250 C286 256 341 263 377 281 L377 184 C377 106 315 29 204 29 L204 29 Z M767 293 L427 293 C437 402 494 486 606 486 C720 486 764 395 767 293 L767 293 Z " />
<glyph glyph-name="ccedilla" unicode="&#xe7;" horiz-adv-x="472" d="M211 -184 C267 -184 307 -159 307 -113 C307 -72 273 -50 227 -52 L227 -50 L268 -12 C376 -5 443 69 456 175 L410 175 C399 90 340 30 250 30 C127 30 75 134 75 258 C75 382 126 486 251 486 C332 486 385 450 402 368 L450 368 C434 472 359 528 251 528 C103 528 25 414 25 258 C25 111 91 1 223 -11 L164 -69 L177 -91 C187 -88 199 -84 216 -84 C242 -84 259 -91 259 -113 C259 -135 239 -150 202 -150 C177 -150 157 -145 135 -137 L122 -162 C143 -174 172 -184 211 -184 L211 -184 Z " />
<glyph glyph-name="egrave" unicode="&#xe8;" horiz-adv-x="491" d="M466 253 C467 351 448 425 391 478 C357 510 311 528 255 528 C114 528 25 417 25 258 C25 99 107 -13 259 -13 C374 -13 442 58 463 154 L416 154 C395 84 352 30 259 30 C132 30 76 129 75 253 L466 253 Z M416 293 L76 293 C86 402 143 486 255 486 C369 486 413 395 416 293 L416 293 Z M289 588 L213 715 L144 715 L245 588 L289 588 Z " />
<glyph glyph-name="eacute" unicode="&#xe9;" horiz-adv-x="491" d="M466 253 C467 351 448 425 391 478 C357 510 311 528 255 528 C114 528 25 417 25 258 C25 99 107 -13 259 -13 C374 -13 442 58 463 154 L416 154 C395 84 352 30 259 30 C132 30 76 129 75 253 L466 253 Z M416 293 L76 293 C86 402 143 486 255 486 C369 486 413 395 416 293 L416 293 Z M212 588 L256 588 L357 715 L288 715 L212 588 Z " />
<glyph glyph-name="ecircumflex" unicode="&#xea;" horiz-adv-x="491" d="M466 253 C467 351 448 425 391 478 C357 510 311 528 255 528 C114 528 25 417 25 258 C25 99 107 -13 259 -13 C374 -13 442 58 463 154 L416 154 C395 84 352 30 259 30 C132 30 76 129 75 253 L466 253 Z M416 293 L76 293 C86 402 143 486 255 486 C369 486 413 395 416 293 L416 293 Z M141 592 L195 592 L250 668 L252 668 L306 592 L363 592 L283 698 L221 698 L141 592 Z " />
<glyph glyph-name="edieresis" unicode="&#xeb;" horiz-adv-x="491" d="M466 253 C467 351 448 425 391 478 C357 510 311 528 255 528 C114 528 25 417 25 258 C25 99 107 -13 259 -13 C374 -13 442 58 463 154 L416 154 C395 84 352 30 259 30 C132 30 76 129 75 253 L466 253 Z M416 293 L76 293 C86 402 143 486 255 486 C369 486 413 395 416 293 L416 293 Z M152 635 L201 635 L201 715 L152 715 L152 635 Z M303 635 L352 635 L352 715 L303 715 L303 635 Z " />
<glyph glyph-name="igrave" unicode="&#xec;" horiz-adv-x="155" d="M53 0 L102 0 L102 517 L53 517 L53 0 Z M100 588 L42 715 L-23 715 L57 588 L100 588 Z " />
<glyph glyph-name="iacute" unicode="&#xed;" horiz-adv-x="155" d="M53 0 L102 0 L102 517 L53 517 L53 0 Z M57 588 L100 588 L180 715 L115 715 L57 588 Z " />
<glyph glyph-name="icircumflex" unicode="&#xee;" horiz-adv-x="155" d="M53 0 L102 0 L102 517 L53 517 L53 0 Z M-18 592 L31 592 L75 667 L77 667 L120 592 L172 592 L108 698 L46 698 L-18 592 Z " />
<glyph glyph-name="idieresis" unicode="&#xef;" horiz-adv-x="155" d="M53 0 L102 0 L102 517 L53 517 L53 0 Z M2 635 L51 635 L51 715 L2 715 L2 635 Z M104 635 L153 635 L153 715 L104 715 L104 635 Z " />
<glyph glyph-name="eth" unicode="&#xf0;" horiz-adv-x="514" d="M160 595 L174 564 L308 618 C352 571 388 517 413 452 L412 452 C372 501 316 528 255 528 C116 528 25 414 25 258 C25 102 112 -13 257 -13 C403 -13 489 101 489 269 C489 448 423 563 353 636 L441 672 L428 703 L327 662 C303 684 280 701 260 715 L196 715 C226 692 255 669 282 644 L160 595 Z M257 29 C138 29 75 132 75 258 C75 384 138 487 257 487 C375 487 439 389 439 258 C439 132 376 29 257 29 L257 29 Z " />
<glyph glyph-name="ntilde" unicode="&#xf1;" horiz-adv-x="485" d="M99 517 L50 517 L50 0 L99 0 L99 334 C99 420 180 485 272 485 C344 485 390 449 390 364 L390 0 L439 0 L439 369 C439 472 369 527 281 527 C193 527 135 485 101 430 L99 430 L99 517 Z M307 600 C346 600 376 629 380 684 L338 684 C336 658 322 643 305 643 C276 643 232 686 190 686 C151 686 122 659 117 602 L159 602 C161 628 176 643 190 643 C219 643 266 600 307 600 L307 600 Z " />
<glyph glyph-name="ograve" unicode="&#xf2;" horiz-adv-x="514" d="M257 -13 C403 -13 489 102 489 258 C489 414 403 528 257 528 C112 528 25 414 25 258 C25 102 112 -13 257 -13 L257 -13 Z M257 29 C138 29 75 132 75 258 C75 384 138 487 257 487 C376 487 439 384 439 258 C439 132 376 29 257 29 L257 29 Z M294 588 L218 715 L149 715 L250 588 L294 588 Z " />
<glyph glyph-name="oacute" unicode="&#xf3;" horiz-adv-x="514" d="M257 -13 C403 -13 489 102 489 258 C489 414 403 528 257 528 C112 528 25 414 25 258 C25 102 112 -13 257 -13 L257 -13 Z M257 29 C138 29 75 132 75 258 C75 384 138 487 257 487 C376 487 439 384 439 258 C439 132 376 29 257 29 L257 29 Z M217 588 L261 588 L362 715 L293 715 L217 588 Z " />
<glyph glyph-name="ocircumflex" unicode="&#xf4;" horiz-adv-x="514" d="M257 -13 C403 -13 489 102 489 258 C489 414 403 528 257 528 C112 528 25 414 25 258 C25 102 112 -13 257 -13 L257 -13 Z M257 29 C138 29 75 132 75 258 C75 384 138 487 257 487 C376 487 439 384 439 258 C439 132 376 29 257 29 L257 29 Z M146 592 L200 592 L255 668 L257 668 L311 592 L368 592 L288 698 L226 698 L146 592 Z " />
<glyph glyph-name="otilde" unicode="&#xf5;" horiz-adv-x="514" d="M257 -13 C403 -13 489 102 489 258 C489 414 403 528 257 528 C112 528 25 414 25 258 C25 102 112 -13 257 -13 L257 -13 Z M257 29 C138 29 75 132 75 258 C75 384 138 487 257 487 C376 487 439 384 439 258 C439 132 376 29 257 29 L257 29 Z M316 600 C355 600 385 629 389 684 L347 684 C345 658 331 643 314 643 C285 643 241 686 199 686 C160 686 131 659 126 602 L168 602 C170 628 185 643 199 643 C228 643 275 600 316 600 L316 600 Z " />
<glyph glyph-name="odieresis" unicode="&#xf6;" horiz-adv-x="514" d="M257 -13 C403 -13 489 102 489 258 C489 414 403 528 257 528 C112 528 25 414 25 258 C25 102 112 -13 257 -13 L257 -13 Z M257 29 C138 29 75 132 75 258 C75 384 138 487 257 487 C376 487 439 384 439 258 C439 132 376 29 257 29 L257 29 Z M157 635 L206 635 L206 715 L157 715 L157 635 Z M308 635 L357 635 L357 715 L308 715 L308 635 Z " />
<glyph glyph-name="divide" unicode="&#xf7;" horiz-adv-x="510" d="M56 303 L454 303 L454 349 L56 349 L56 303 Z M224 123 L285 123 L285 198 L224 198 L224 123 Z M224 454 L285 454 L285 529 L224 529 L224 454 Z " />
<glyph glyph-name="oslash" unicode="&#xf8;" horiz-adv-x="514" d="M41 -15 L98 50 C137 10 191 -13 257 -13 C403 -13 489 102 489 258 C489 329 471 390 438 437 L499 507 L473 530 L416 465 C377 505 323 528 257 528 C112 528 25 414 25 258 C25 187 42 124 76 77 L15 8 L41 -15 Z M75 258 C75 384 138 487 257 487 C311 487 354 465 385 429 L109 115 C86 154 75 204 75 258 L75 258 Z M257 29 C202 29 160 50 129 86 L405 400 C428 361 439 311 439 258 C439 132 376 29 257 29 L257 29 Z " />
<glyph glyph-name="ugrave" unicode="&#xf9;" horiz-adv-x="479" d="M429 0 L429 517 L380 517 L380 190 C380 99 312 30 221 30 C144 30 95 68 95 153 L95 517 L46 517 L46 148 C46 45 117 -12 212 -12 C299 -12 344 29 378 79 L380 79 L380 0 L429 0 Z M277 588 L201 715 L132 715 L233 588 L277 588 Z " />
<glyph glyph-name="uacute" unicode="&#xfa;" horiz-adv-x="479" d="M429 0 L429 517 L380 517 L380 190 C380 99 312 30 221 30 C144 30 95 68 95 153 L95 517 L46 517 L46 148 C46 45 117 -12 212 -12 C299 -12 344 29 378 79 L380 79 L380 0 L429 0 Z M200 588 L244 588 L345 715 L276 715 L200 588 Z " />
<glyph glyph-name="ucircumflex" unicode="&#xfb;" horiz-adv-x="479" d="M429 0 L429 517 L380 517 L380 190 C380 99 312 30 221 30 C144 30 95 68 95 153 L95 517 L46 517 L46 148 C46 45 117 -12 212 -12 C299 -12 344 29 378 79 L380 79 L380 0 L429 0 Z M129 592 L183 592 L238 668 L240 668 L294 592 L351 592 L271 698 L209 698 L129 592 Z " />
<glyph glyph-name="udieresis" unicode="&#xfc;" horiz-adv-x="479" d="M429 0 L429 517 L380 517 L380 190 C380 99 312 30 221 30 C144 30 95 68 95 153 L95 517 L46 517 L46 148 C46 45 117 -12 212 -12 C299 -12 344 29 378 79 L380 79 L380 0 L429 0 Z M140 635 L189 635 L189 715 L140 715 L140 635 Z M291 635 L340 635 L340 715 L291 715 L291 635 Z " />
<glyph glyph-name="yacute" unicode="&#xfd;" horiz-adv-x="455" d="M96 -171 C166 -171 208 -146 238 -62 L446 517 L396 517 L276 175 C258 123 234 46 234 46 L232 46 C232 46 206 124 187 175 L61 517 L10 517 L208 -8 L193 -51 C174 -106 143 -126 100 -126 C78 -126 67 -123 59 -121 L57 -121 L57 -165 C68 -168 78 -171 96 -171 L96 -171 Z M191 588 L235 588 L336 715 L267 715 L191 588 Z " />
<glyph glyph-name="thorn" unicode="&#xfe;" horiz-adv-x="516" d="M50 -166 L99 -166 L99 85 L101 85 C138 26 192 -11 278 -11 C411 -11 491 105 491 259 C491 431 402 528 282 528 C195 528 136 484 101 418 L99 418 L99 715 L50 715 L50 -166 Z M276 30 C159 30 94 119 94 256 C94 387 160 486 275 486 C381 486 441 396 441 258 C441 135 387 30 276 30 L276 30 Z " />
<glyph glyph-name="ydieresis" unicode="&#xff;" horiz-adv-x="455" d="M96 -171 C166 -171 208 -146 238 -62 L446 517 L396 517 L276 175 C258 123 234 46 234 46 L232 46 C232 46 206 124 187 175 L61 517 L10 517 L208 -8 L193 -51 C174 -106 143 -126 100 -126 C78 -126 67 -123 59 -121 L57 -121 L57 -165 C68 -168 78 -171 96 -171 L96 -171 Z M131 635 L180 635 L180 715 L131 715 L131 635 Z M282 635 L331 635 L331 715 L282 715 L282 635 Z " />
<glyph glyph-name="Amacron" unicode="&#x100;" horiz-adv-x="624" d="M6 0 L59 0 L147 229 L476 229 L564 0 L618 0 L341 715 L282 715 L6 0 Z M273 557 C290 602 310 663 310 663 L312 663 C312 663 335 598 351 557 L459 273 L164 273 L273 557 Z M191 762 L433 762 L433 811 L191 811 L191 762 Z " />
<glyph glyph-name="amacron" unicode="&#x101;" horiz-adv-x="492" d="M446 -8 C466 -8 478 -4 486 0 L486 36 L483 36 C474 33 466 31 459 31 C441 31 426 39 426 67 L426 371 C426 477 362 528 247 528 C118 528 51 470 41 370 L91 370 C98 446 150 486 247 486 C331 486 377 452 377 374 L377 356 C377 308 349 302 227 290 C119 279 23 254 23 131 C23 36 93 -13 188 -13 C294 -13 346 39 375 80 L378 80 L378 62 C378 14 406 -8 446 -8 L446 -8 Z M193 28 C127 28 73 56 73 129 C73 227 142 239 233 249 C286 255 341 262 377 280 L377 184 C377 106 310 28 193 28 L193 28 Z M129 630 L371 630 L371 679 L129 679 L129 630 Z " />
<glyph glyph-name="Abreve" unicode="&#x102;" horiz-adv-x="624" d="M6 0 L59 0 L147 229 L476 229 L564 0 L618 0 L341 715 L282 715 L6 0 Z M273 557 C290 602 310 663 310 663 L312 663 C312 663 335 598 351 557 L459 273 L164 273 L273 557 Z M312 753 C380 753 426 795 430 855 L384 855 C378 821 354 799 312 799 C270 799 246 821 240 855 L194 855 C198 795 244 753 312 753 L312 753 Z " />
<glyph glyph-name="abreve" unicode="&#x103;" horiz-adv-x="492" d="M446 -8 C466 -8 478 -4 486 0 L486 36 L483 36 C474 33 466 31 459 31 C441 31 426 39 426 67 L426 371 C426 477 362 528 247 528 C118 528 51 470 41 370 L91 370 C98 446 150 486 247 486 C331 486 377 452 377 374 L377 356 C377 308 349 302 227 290 C119 279 23 254 23 131 C23 36 93 -13 188 -13 C294 -13 346 39 375 80 L378 80 L378 62 C378 14 406 -8 446 -8 L446 -8 Z M193 28 C127 28 73 56 73 129 C73 227 142 239 233 249 C286 255 341 262 377 280 L377 184 C377 106 310 28 193 28 L193 28 Z M250 589 C318 589 364 635 368 695 L322 695 C316 661 292 636 250 636 C208 636 184 661 178 695 L132 695 C136 635 182 589 250 589 L250 589 Z " />
<glyph glyph-name="Aogonek" unicode="&#x104;" horiz-adv-x="624" d="M616 -125 C599 -132 584 -136 566 -136 C538 -136 525 -123 525 -102 C525 -66 557 -34 616 5 L341 715 L282 715 L6 0 L59 0 L147 229 L476 229 L562 6 C519 -19 475 -59 475 -105 C475 -147 503 -175 560 -175 C586 -175 606 -168 619 -160 L619 -125 L616 -125 Z M273 557 C290 602 310 663 310 663 L312 663 C312 663 335 598 351 557 L459 273 L164 273 L273 557 Z " />
<glyph glyph-name="aogonek" unicode="&#x105;" horiz-adv-x="492" d="M487 -126 C470 -133 455 -137 437 -137 C409 -137 396 -124 396 -102 C396 -65 435 -26 486 0 L486 36 L483 36 C474 33 466 31 459 31 C441 31 426 39 426 67 L426 371 C426 477 362 528 247 528 C118 528 51 470 41 370 L91 370 C98 446 150 486 247 486 C331 486 377 452 377 374 L377 356 C377 308 349 302 227 290 C119 279 23 254 23 131 C23 36 93 -13 188 -13 C294 -13 346 39 375 80 L378 80 L378 62 C378 25 395 3 420 -4 C383 -26 346 -63 346 -105 C346 -147 374 -175 431 -175 C457 -175 477 -169 490 -161 L490 -126 L487 -126 Z M193 28 C127 28 73 56 73 129 C73 227 142 239 233 249 C286 255 341 262 377 280 L377 184 C377 106 310 28 193 28 L193 28 Z " />
<glyph glyph-name="Cacute" unicode="&#x106;" horiz-adv-x="656" d="M346 -13 C437 -13 514 21 564 81 C602 126 624 189 630 259 L581 259 C568 132 487 33 346 33 C172 33 88 175 88 356 C88 537 173 684 349 684 C468 684 544 616 564 519 L616 519 C588 653 490 729 349 729 C154 729 34 576 34 356 C34 136 151 -13 346 -13 L346 -13 Z M316 753 L360 753 L461 863 L392 863 L316 753 Z " />
<glyph glyph-name="cacute" unicode="&#x107;" horiz-adv-x="472" d="M250 -13 C369 -13 443 63 456 175 L410 175 C399 90 340 30 250 30 C127 30 75 134 75 258 C75 382 126 486 251 486 C332 486 385 450 402 368 L450 368 C434 472 359 528 251 528 C103 528 25 414 25 258 C25 102 101 -13 250 -13 L250 -13 Z M204 588 L248 588 L349 715 L280 715 L204 588 Z " />
<glyph glyph-name="Ccircumflex" unicode="&#x108;" horiz-adv-x="656" d="M346 -13 C437 -13 514 21 564 81 C602 126 624 189 630 259 L581 259 C568 132 487 33 346 33 C172 33 88 175 88 356 C88 537 173 684 349 684 C468 684 544 616 564 519 L616 519 C588 653 490 729 349 729 C154 729 34 576 34 356 C34 136 151 -13 346 -13 L346 -13 Z M223 752 L279 752 L346 823 L348 823 L414 752 L473 752 L379 853 L317 853 L223 752 Z " />
<glyph glyph-name="ccircumflex" unicode="&#x109;" horiz-adv-x="472" d="M250 -13 C369 -13 443 63 456 175 L410 175 C399 90 340 30 250 30 C127 30 75 134 75 258 C75 382 126 486 251 486 C332 486 385 450 402 368 L450 368 C434 472 359 528 251 528 C103 528 25 414 25 258 C25 102 101 -13 250 -13 L250 -13 Z M133 592 L187 592 L242 668 L244 668 L298 592 L355 592 L275 698 L213 698 L133 592 Z " />
<glyph glyph-name="Cdotaccent" unicode="&#x10a;" horiz-adv-x="656" d="M346 -13 C437 -13 514 21 564 81 C602 126 624 189 630 259 L581 259 C568 132 487 33 346 33 C172 33 88 175 88 356 C88 537 173 684 349 684 C468 684 544 616 564 519 L616 519 C588 653 490 729 349 729 C154 729 34 576 34 356 C34 136 151 -13 346 -13 L346 -13 Z M324 755 L373 755 L373 835 L324 835 L324 755 Z " />
<glyph glyph-name="cdotaccent" unicode="&#x10b;" horiz-adv-x="472" d="M250 -13 C369 -13 443 63 456 175 L410 175 C399 90 340 30 250 30 C127 30 75 134 75 258 C75 382 126 486 251 486 C332 486 385 450 402 368 L450 368 C434 472 359 528 251 528 C103 528 25 414 25 258 C25 102 101 -13 250 -13 L250 -13 Z M220 635 L269 635 L269 715 L220 715 L220 635 Z " />
<glyph glyph-name="Ccaron" unicode="&#x10c;" horiz-adv-x="656" d="M346 -13 C437 -13 514 21 564 81 C602 126 624 189 630 259 L581 259 C568 132 487 33 346 33 C172 33 88 175 88 356 C88 537 173 684 349 684 C468 684 544 616 564 519 L616 519 C588 653 490 729 349 729 C154 729 34 576 34 356 C34 136 151 -13 346 -13 L346 -13 Z M473 853 L417 853 L350 782 L348 782 L282 853 L223 853 L317 752 L379 752 L473 853 Z " />
<glyph glyph-name="ccaron" unicode="&#x10d;" horiz-adv-x="472" d="M250 -13 C369 -13 443 63 456 175 L410 175 C399 90 340 30 250 30 C127 30 75 134 75 258 C75 382 126 486 251 486 C332 486 385 450 402 368 L450 368 C434 472 359 528 251 528 C103 528 25 414 25 258 C25 102 101 -13 250 -13 L250 -13 Z M355 698 L301 698 L246 622 L244 622 L190 698 L133 698 L213 592 L275 592 L355 698 Z " />
<glyph glyph-name="Dcaron" unicode="&#x10e;" horiz-adv-x="644" d="M62 0 L305 0 C513 0 610 145 610 355 C610 565 520 715 312 715 L62 715 L62 0 Z M114 46 L114 668 L310 668 C483 668 556 544 556 355 C556 166 476 46 303 46 L114 46 Z M416 853 L360 853 L293 782 L291 782 L225 853 L166 853 L260 752 L322 752 L416 853 Z " />
<glyph glyph-name="dcaron" unicode="&#x10f;" horiz-adv-x="518" d="M243 -13 C324 -13 379 22 417 86 L419 86 L419 0 L468 0 L468 715 L419 715 L419 423 L417 423 C384 489 325 528 242 528 C122 528 25 429 25 257 C25 103 105 -13 243 -13 L243 -13 Z M245 28 C129 28 75 132 75 256 C75 394 140 486 246 486 C361 486 424 387 424 256 C424 119 357 28 245 28 L245 28 Z M501 558 C542 565 562 593 562 642 L562 715 L503 715 L503 641 L529 641 L529 638 C529 607 518 595 501 587 L501 558 Z " />
<glyph glyph-name="Dcroat" unicode="&#x110;" horiz-adv-x="660" d="M1 336 L72 336 L72 0 L315 0 C523 0 620 145 620 355 C620 565 530 715 322 715 L72 715 L72 381 L1 381 L1 336 Z M124 46 L124 336 L382 336 L382 381 L124 381 L124 668 L320 668 C493 668 566 544 566 355 C566 166 486 46 313 46 L124 46 Z " />
<glyph glyph-name="dcroat" unicode="&#x111;" horiz-adv-x="518" d="M292 588 L419 588 L419 423 L417 423 C384 489 325 528 242 528 C122 528 25 429 25 257 C25 103 105 -13 243 -13 C324 -13 379 22 417 86 L419 86 L419 0 L468 0 L468 588 L525 588 L525 629 L468 629 L468 715 L419 715 L419 629 L292 629 L292 588 Z M245 28 C129 28 75 132 75 256 C75 394 140 486 246 486 C361 486 424 387 424 256 C424 119 357 28 245 28 L245 28 Z " />
<glyph glyph-name="Emacron" unicode="&#x112;" horiz-adv-x="582" d="M62 0 L546 0 L546 48 L114 48 L114 346 L502 346 L502 391 L114 391 L114 669 L536 669 L536 715 L62 715 L62 0 Z M190 762 L432 762 L432 811 L190 811 L190 762 Z " />
<glyph glyph-name="emacron" unicode="&#x113;" horiz-adv-x="491" d="M466 253 C467 351 448 425 391 478 C357 510 311 528 255 528 C114 528 25 417 25 258 C25 99 107 -13 259 -13 C374 -13 442 58 463 154 L416 154 C395 84 352 30 259 30 C132 30 76 129 75 253 L466 253 Z M416 293 L76 293 C86 402 143 486 255 486 C369 486 413 395 416 293 L416 293 Z M131 630 L373 630 L373 679 L131 679 L131 630 Z " />
<glyph glyph-name="Ebreve" unicode="&#x114;" horiz-adv-x="582" d="M62 0 L546 0 L546 48 L114 48 L114 346 L502 346 L502 391 L114 391 L114 669 L536 669 L536 715 L62 715 L62 0 Z M310 753 C378 753 424 795 428 855 L382 855 C376 821 352 799 310 799 C268 799 244 821 238 855 L192 855 C196 795 242 753 310 753 L310 753 Z " />
<glyph glyph-name="ebreve" unicode="&#x115;" horiz-adv-x="491" d="M466 253 C467 351 448 425 391 478 C357 510 311 528 255 528 C114 528 25 417 25 258 C25 99 107 -13 259 -13 C374 -13 442 58 463 154 L416 154 C395 84 352 30 259 30 C132 30 76 129 75 253 L466 253 Z M416 293 L76 293 C86 402 143 486 255 486 C369 486 413 395 416 293 L416 293 Z M251 589 C319 589 365 635 369 695 L323 695 C317 661 293 636 251 636 C209 636 185 661 179 695 L133 695 C137 635 183 589 251 589 L251 589 Z " />
<glyph glyph-name="Edotaccent" unicode="&#x116;" horiz-adv-x="582" d="M62 0 L546 0 L546 48 L114 48 L114 346 L502 346 L502 391 L114 391 L114 669 L536 669 L536 715 L62 715 L62 0 Z M287 755 L336 755 L336 835 L287 835 L287 755 Z " />
<glyph glyph-name="edotaccent" unicode="&#x117;" horiz-adv-x="491" d="M466 253 C467 351 448 425 391 478 C357 510 311 528 255 528 C114 528 25 417 25 258 C25 99 107 -13 259 -13 C374 -13 442 58 463 154 L416 154 C395 84 352 30 259 30 C132 30 76 129 75 253 L466 253 Z M416 293 L76 293 C86 402 143 486 255 486 C369 486 413 395 416 293 L416 293 Z M228 635 L277 635 L277 715 L228 715 L228 635 Z " />
<glyph glyph-name="Eogonek" unicode="&#x118;" horiz-adv-x="582" d="M62 0 L449 0 C407 -24 373 -62 373 -105 C373 -147 401 -175 458 -175 C484 -175 504 -168 517 -160 L517 -125 L514 -125 C497 -132 482 -136 464 -136 C436 -136 423 -123 423 -102 C423 -66 455 -35 506 0 L546 0 L546 48 L114 48 L114 346 L502 346 L502 391 L114 391 L114 669 L536 669 L536 715 L62 715 L62 0 Z " />
<glyph glyph-name="eogonek" unicode="&#x119;" horiz-adv-x="491" d="M466 253 C467 351 448 425 391 478 C357 510 311 528 255 528 C114 528 25 417 25 258 C25 99 107 -13 259 -13 C272 -13 287 -11 297 -9 C264 -32 232 -67 232 -105 C232 -147 260 -175 317 -175 C343 -175 363 -169 376 -161 L376 -126 L373 -126 C356 -133 341 -137 323 -137 C295 -137 282 -124 282 -103 C282 -66 318 -33 366 7 C406 40 447 80 463 154 L416 154 C395 84 352 30 259 30 C132 30 76 129 75 253 L466 253 Z M416 293 L76 293 C86 402 143 486 255 486 C369 486 413 395 416 293 L416 293 Z " />
<glyph glyph-name="Ecaron" unicode="&#x11a;" horiz-adv-x="582" d="M62 0 L546 0 L546 48 L114 48 L114 346 L502 346 L502 391 L114 391 L114 669 L536 669 L536 715 L62 715 L62 0 Z M436 853 L380 853 L313 782 L311 782 L245 853 L186 853 L280 752 L342 752 L436 853 Z " />
<glyph glyph-name="ecaron" unicode="&#x11b;" horiz-adv-x="491" d="M466 253 C467 351 448 425 391 478 C357 510 311 528 255 528 C114 528 25 417 25 258 C25 99 107 -13 259 -13 C374 -13 442 58 463 154 L416 154 C395 84 352 30 259 30 C132 30 76 129 75 253 L466 253 Z M416 293 L76 293 C86 402 143 486 255 486 C369 486 413 395 416 293 L416 293 Z M363 698 L309 698 L254 622 L252 622 L198 698 L141 698 L221 592 L283 592 L363 698 Z " />
<glyph glyph-name="Gcircumflex" unicode="&#x11c;" horiz-adv-x="709" d="M615 0 L655 0 L655 360 L365 360 L365 314 L605 314 L605 283 C605 156 533 33 356 33 C169 33 88 181 88 358 C88 535 176 684 368 684 C475 684 567 629 591 513 L643 513 C615 661 502 729 368 729 C155 729 34 570 34 358 C34 146 142 -13 356 -13 C513 -13 579 79 605 128 L609 128 L615 0 Z M232 752 L288 752 L355 823 L357 823 L423 752 L482 752 L388 853 L326 853 L232 752 Z " />
<glyph glyph-name="gcircumflex" unicode="&#x11d;" horiz-adv-x="517" d="M250 -187 C324 -187 377 -166 416 -127 C449 -92 467 -44 467 15 L467 517 L418 517 L418 428 L415 428 C381 488 330 528 247 528 C127 528 25 436 25 264 C25 110 106 5 244 5 C325 5 377 38 415 102 L418 102 L418 14 C418 -78 368 -145 248 -145 C175 -145 114 -119 100 -57 L51 -57 C59 -127 127 -187 250 -187 L250 -187 Z M246 46 C129 46 75 141 75 263 C75 398 143 486 249 486 C364 486 422 391 422 263 C422 129 358 46 246 46 L246 46 Z M145 592 L199 592 L254 668 L256 668 L310 592 L367 592 L287 698 L225 698 L145 592 Z " />
<glyph glyph-name="Gbreve" unicode="&#x11e;" horiz-adv-x="709" d="M615 0 L655 0 L655 360 L365 360 L365 314 L605 314 L605 283 C605 156 533 33 356 33 C169 33 88 181 88 358 C88 535 176 684 368 684 C475 684 567 629 591 513 L643 513 C615 661 502 729 368 729 C155 729 34 570 34 358 C34 146 142 -13 356 -13 C513 -13 579 79 605 128 L609 128 L615 0 Z M357 753 C425 753 471 795 475 855 L429 855 C423 821 399 799 357 799 C315 799 291 821 285 855 L239 855 C243 795 289 753 357 753 L357 753 Z " />
<glyph glyph-name="gbreve" unicode="&#x11f;" horiz-adv-x="517" d="M250 -187 C324 -187 377 -166 416 -127 C449 -92 467 -44 467 15 L467 517 L418 517 L418 428 L415 428 C381 488 330 528 247 528 C127 528 25 436 25 264 C25 110 106 5 244 5 C325 5 377 38 415 102 L418 102 L418 14 C418 -78 368 -145 248 -145 C175 -145 114 -119 100 -57 L51 -57 C59 -127 127 -187 250 -187 L250 -187 Z M246 46 C129 46 75 141 75 263 C75 398 143 486 249 486 C364 486 422 391 422 263 C422 129 358 46 246 46 L246 46 Z M256 589 C324 589 370 635 374 695 L328 695 C322 661 298 636 256 636 C214 636 190 661 184 695 L138 695 C142 635 188 589 256 589 L256 589 Z " />
<glyph glyph-name="Gdotaccent" unicode="&#x120;" horiz-adv-x="709" d="M615 0 L655 0 L655 360 L365 360 L365 314 L605 314 L605 283 C605 156 533 33 356 33 C169 33 88 181 88 358 C88 535 176 684 368 684 C475 684 567 629 591 513 L643 513 C615 661 502 729 368 729 C155 729 34 570 34 358 C34 146 142 -13 356 -13 C513 -13 579 79 605 128 L609 128 L615 0 Z M333 755 L382 755 L382 835 L333 835 L333 755 Z " />
<glyph glyph-name="gdotaccent" unicode="&#x121;" horiz-adv-x="517" d="M250 -187 C324 -187 377 -166 416 -127 C449 -92 467 -44 467 15 L467 517 L418 517 L418 428 L415 428 C381 488 330 528 247 528 C127 528 25 436 25 264 C25 110 106 5 244 5 C325 5 377 38 415 102 L418 102 L418 14 C418 -78 368 -145 248 -145 C175 -145 114 -119 100 -57 L51 -57 C59 -127 127 -187 250 -187 L250 -187 Z M246 46 C129 46 75 141 75 263 C75 398 143 486 249 486 C364 486 422 391 422 263 C422 129 358 46 246 46 L246 46 Z M232 635 L281 635 L281 715 L232 715 L232 635 Z " />
<glyph glyph-name="Gcommaaccent" unicode="&#x122;" horiz-adv-x="709" d="M615 0 L655 0 L655 360 L365 360 L365 314 L605 314 L605 283 C605 156 533 33 356 33 C169 33 88 181 88 358 C88 535 176 684 368 684 C475 684 567 629 591 513 L643 513 C615 661 502 729 368 729 C155 729 34 570 34 358 C34 146 142 -13 356 -13 C513 -13 579 79 605 128 L609 128 L615 0 Z M327 -204 C368 -197 388 -168 388 -118 L388 -48 L329 -48 L329 -119 L355 -119 L355 -122 C355 -155 344 -167 327 -175 L327 -204 Z " />
<glyph glyph-name="gcommaaccent" unicode="&#x123;" horiz-adv-x="517" d="M250 -187 C324 -187 377 -166 416 -127 C449 -92 467 -44 467 15 L467 517 L418 517 L418 428 L415 428 C381 488 330 528 247 528 C127 528 25 436 25 264 C25 110 106 5 244 5 C325 5 377 38 415 102 L418 102 L418 14 C418 -78 368 -145 248 -145 C175 -145 114 -119 100 -57 L51 -57 C59 -127 127 -187 250 -187 L250 -187 Z M246 46 C129 46 75 141 75 263 C75 398 143 486 249 486 C364 486 422 391 422 263 C422 129 358 46 246 46 L246 46 Z M284 754 C243 747 223 718 223 668 L223 598 L282 598 L282 669 L256 669 L256 672 C256 705 267 717 284 725 L284 754 Z " />
<glyph glyph-name="Hcircumflex" unicode="&#x124;" horiz-adv-x="648" d="M62 0 L114 0 L114 358 L534 358 L534 0 L586 0 L586 715 L534 715 L534 402 L114 402 L114 715 L62 715 L62 0 Z M199 752 L255 752 L322 823 L324 823 L390 752 L449 752 L355 853 L293 853 L199 752 Z " />
<glyph glyph-name="hcircumflex" unicode="&#x125;" horiz-adv-x="490" d="M104 715 L55 715 L55 0 L104 0 L104 334 C104 420 185 485 277 485 C349 485 395 449 395 364 L395 0 L444 0 L444 369 C444 472 374 527 286 527 C198 527 140 485 106 430 L104 430 L104 715 Z M124 752 L180 752 L247 823 L249 823 L315 752 L374 752 L280 853 L218 853 L124 752 Z " />
<glyph glyph-name="Hbar" unicode="&#x126;" horiz-adv-x="648" d="M-8 523 L62 523 L62 0 L114 0 L114 358 L534 358 L534 0 L586 0 L586 523 L656 523 L656 567 L586 567 L586 715 L534 715 L534 567 L114 567 L114 715 L62 715 L62 567 L-8 567 L-8 523 Z M114 402 L114 523 L534 523 L534 402 L114 402 Z " />
<glyph glyph-name="hbar" unicode="&#x127;" horiz-adv-x="490" d="M104 715 L55 715 L55 629 L-2 629 L-2 588 L55 588 L55 0 L104 0 L104 334 C104 420 185 485 277 485 C349 485 395 449 395 364 L395 0 L444 0 L444 369 C444 472 374 527 286 527 C198 527 140 485 106 430 L104 430 L104 588 L231 588 L231 629 L104 629 L104 715 Z " />
<glyph glyph-name="Itilde" unicode="&#x128;" horiz-adv-x="184" d="M66 0 L118 0 L118 715 L66 715 L66 0 Z M151 760 C190 760 220 789 224 844 L182 844 C180 818 166 803 149 803 C120 803 76 846 34 846 C-5 846 -34 819 -39 762 L3 762 C5 788 20 803 34 803 C63 803 110 760 151 760 L151 760 Z " />
<glyph glyph-name="itilde" unicode="&#x129;" horiz-adv-x="155" d="M53 0 L102 0 L102 517 L53 517 L53 0 Z M124 602 C159 602 187 629 189 684 L147 684 C145 656 136 645 121 645 C101 645 70 684 31 684 C-4 684 -31 659 -34 602 L8 602 C10 630 19 641 32 641 C52 641 86 602 124 602 L124 602 Z " />
<glyph glyph-name="Imacron" unicode="&#x12a;" horiz-adv-x="184" d="M66 0 L118 0 L118 715 L66 715 L66 0 Z M11 764 L173 764 L173 808 L11 808 L11 764 Z " />
<glyph glyph-name="imacron" unicode="&#x12b;" horiz-adv-x="155" d="M53 0 L102 0 L102 517 L53 517 L53 0 Z M-4 630 L158 630 L158 679 L-4 679 L-4 630 Z " />
<glyph glyph-name="Ibreve" unicode="&#x12c;" horiz-adv-x="184" d="M66 0 L118 0 L118 715 L66 715 L66 0 Z M92 753 C160 753 206 795 210 855 L164 855 C158 821 134 799 92 799 C50 799 26 821 20 855 L-26 855 C-22 795 24 753 92 753 L92 753 Z " />
<glyph glyph-name="ibreve" unicode="&#x12d;" horiz-adv-x="155" d="M53 0 L102 0 L102 517 L53 517 L53 0 Z M77 589 C145 589 191 635 195 695 L149 695 C143 661 119 636 77 636 C35 636 11 661 5 695 L-41 695 C-37 635 9 589 77 589 L77 589 Z " />
<glyph glyph-name="Iogonek" unicode="&#x12e;" horiz-adv-x="184" d="M131 -125 C114 -132 100 -136 83 -136 C54 -136 43 -123 43 -102 C43 -66 71 -34 118 2 L118 715 L66 715 L66 1 C29 -22 -7 -60 -7 -104 C-7 -148 21 -175 77 -175 C102 -175 121 -168 134 -160 L134 -125 L131 -125 Z " />
<glyph glyph-name="iogonek" unicode="&#x12f;" horiz-adv-x="155" d="M53 2 C16 -21 -22 -60 -22 -105 C-22 -147 6 -175 61 -175 C86 -175 104 -168 117 -160 L117 -126 L114 -126 C97 -133 84 -137 67 -137 C41 -137 28 -124 28 -102 C28 -66 56 -37 102 -1 L102 517 L53 517 L53 2 Z M53 635 L102 635 L102 715 L53 715 L53 635 Z " />
<glyph glyph-name="Idotaccent" unicode="&#x130;" horiz-adv-x="184" d="M66 0 L118 0 L118 715 L66 715 L66 0 Z M68 755 L117 755 L117 835 L68 835 L68 755 Z " />
<glyph glyph-name="dotlessi" unicode="&#x131;" horiz-adv-x="155" d="M53 0 L102 0 L102 517 L53 517 L53 0 Z " />
<glyph glyph-name="IJ" unicode="&#x132;" horiz-adv-x="631" d="M66 0 L118 0 L118 715 L66 715 L66 0 Z M390 -13 C514 -13 572 65 572 164 L572 715 L520 715 L520 168 C520 76 471 34 391 34 C295 34 244 76 244 186 L244 222 L193 222 L193 184 C193 50 266 -13 390 -13 L390 -13 Z " />
<glyph glyph-name="ij" unicode="&#x133;" horiz-adv-x="310" d="M53 0 L102 0 L102 517 L53 517 L53 0 Z M53 635 L102 635 L102 715 L53 715 L53 635 Z M140 -166 L153 -166 C222 -166 257 -136 257 -60 L257 517 L208 517 L208 -59 C208 -105 190 -124 150 -124 L140 -124 L140 -166 Z M208 635 L257 635 L257 715 L208 715 L208 635 Z " />
<glyph glyph-name="Jcircumflex" unicode="&#x134;" horiz-adv-x="460" d="M219 -13 C343 -13 401 65 401 164 L401 715 L349 715 L349 168 C349 76 300 34 220 34 C124 34 73 76 73 186 L73 222 L22 222 L22 184 C22 50 95 -13 219 -13 L219 -13 Z M250 752 L306 752 L373 823 L375 823 L441 752 L500 752 L406 853 L344 853 L250 752 Z " />
<glyph glyph-name="jcircumflex" unicode="&#x135;" horiz-adv-x="155" d="M-15 -166 L-2 -166 C67 -166 102 -136 102 -60 L102 517 L53 517 L53 -59 C53 -105 35 -124 -5 -124 L-15 -124 L-15 -166 Z M-18 592 L31 592 L75 667 L77 667 L120 592 L172 592 L108 698 L46 698 L-18 592 Z " />
<glyph glyph-name="Kcommaaccent" unicode="&#x136;" horiz-adv-x="613" d="M62 0 L114 0 L114 252 L250 385 L543 0 L606 0 L287 421 L592 716 L523 716 L114 316 L114 715 L62 715 L62 0 Z M270 -204 C311 -197 331 -168 331 -118 L331 -48 L272 -48 L272 -119 L298 -119 L298 -122 C298 -155 287 -167 270 -175 L270 -204 Z " />
<glyph glyph-name="kcommaaccent" unicode="&#x137;" horiz-adv-x="467" d="M407 0 L463 0 L242 330 L439 517 L377 517 L99 250 L99 715 L50 715 L50 0 L99 0 L99 193 L207 297 L407 0 Z M198 -204 C239 -197 259 -168 259 -118 L259 -48 L200 -48 L200 -119 L226 -119 L226 -122 C226 -155 215 -167 198 -175 L198 -204 Z " />
<glyph glyph-name="Lacute" unicode="&#x139;" horiz-adv-x="524" d="M62 0 L499 0 L499 48 L114 48 L114 715 L62 715 L62 0 Z M68 753 L112 753 L213 863 L144 863 L68 753 Z " />
<glyph glyph-name="lacute" unicode="&#x13a;" horiz-adv-x="155" d="M53 0 L102 0 L102 715 L53 715 L53 0 Z M55 753 L99 753 L200 863 L131 863 L55 753 Z " />
<glyph glyph-name="Lcommaaccent" unicode="&#x13b;" horiz-adv-x="524" d="M62 0 L499 0 L499 48 L114 48 L114 715 L62 715 L62 0 Z M240 -204 C281 -197 301 -168 301 -118 L301 -48 L242 -48 L242 -119 L268 -119 L268 -122 C268 -155 257 -167 240 -175 L240 -204 Z " />
<glyph glyph-name="lcommaaccent" unicode="&#x13c;" horiz-adv-x="155" d="M53 0 L102 0 L102 715 L53 715 L53 0 Z M47 -204 C88 -197 108 -168 108 -118 L108 -48 L49 -48 L49 -119 L75 -119 L75 -122 C75 -155 64 -167 47 -175 L47 -204 Z " />
<glyph glyph-name="Lcaron" unicode="&#x13d;" horiz-adv-x="524" d="M62 0 L499 0 L499 48 L114 48 L114 715 L62 715 L62 0 Z M262 558 C303 565 323 593 323 642 L323 715 L264 715 L264 641 L290 641 L290 638 C290 607 279 595 262 587 L262 558 Z " />
<glyph glyph-name="lcaron" unicode="&#x13e;" horiz-adv-x="155" d="M53 0 L102 0 L102 715 L53 715 L53 0 Z M135 558 C176 565 196 593 196 642 L196 715 L137 715 L137 641 L163 641 L163 638 C163 607 152 595 135 587 L135 558 Z " />
<glyph glyph-name="Ldot" unicode="&#x13f;" horiz-adv-x="524" d="M62 0 L499 0 L499 48 L114 48 L114 715 L62 715 L62 0 Z M341 321 L402 321 L402 400 L341 400 L341 321 Z " />
<glyph glyph-name="ldot" unicode="&#x140;" horiz-adv-x="238" d="M53 0 L102 0 L102 715 L53 715 L53 0 Z M166 271 L227 271 L227 350 L166 350 L166 271 Z " />
<glyph glyph-name="Lslash" unicode="&#x141;" horiz-adv-x="544" d="M-5 203 L82 249 L82 0 L519 0 L519 48 L134 48 L134 277 L405 421 L405 469 L134 325 L134 715 L82 715 L82 297 L-5 251 L-5 203 Z " />
<glyph glyph-name="lslash" unicode="&#x142;" horiz-adv-x="195" d="M5 291 L73 349 L73 0 L122 0 L122 391 L197 455 L197 508 L122 444 L122 715 L73 715 L73 402 L5 344 L5 291 Z " />
<glyph glyph-name="Nacute" unicode="&#x143;" horiz-adv-x="649" d="M62 0 L112 0 L112 637 L114 637 C114 637 164 554 204 494 L532 0 L587 0 L587 715 L537 715 L537 75 L535 75 C535 75 495 145 452 210 L120 715 L62 715 L62 0 Z M310 753 L354 753 L455 863 L386 863 L310 753 Z " />
<glyph glyph-name="nacute" unicode="&#x144;" horiz-adv-x="485" d="M99 517 L50 517 L50 0 L99 0 L99 334 C99 420 180 485 272 485 C344 485 390 449 390 364 L390 0 L439 0 L439 369 C439 472 369 527 281 527 C193 527 135 485 101 430 L99 430 L99 517 Z M208 588 L252 588 L353 715 L284 715 L208 588 Z " />
<glyph glyph-name="Ncommaaccent" unicode="&#x145;" horiz-adv-x="649" d="M62 0 L112 0 L112 637 L114 637 C114 637 164 554 204 494 L532 0 L587 0 L587 715 L537 715 L537 75 L535 75 C535 75 495 145 452 210 L120 715 L62 715 L62 0 Z M279 -204 C320 -197 340 -168 340 -118 L340 -48 L281 -48 L281 -119 L307 -119 L307 -122 C307 -155 296 -167 279 -175 L279 -204 Z " />
<glyph glyph-name="ncommaaccent" unicode="&#x146;" horiz-adv-x="485" d="M99 517 L50 517 L50 0 L99 0 L99 334 C99 420 180 485 272 485 C344 485 390 449 390 364 L390 0 L439 0 L439 369 C439 472 369 527 281 527 C193 527 135 485 101 430 L99 430 L99 517 Z M218 -204 C259 -197 279 -168 279 -118 L279 -48 L220 -48 L220 -119 L246 -119 L246 -122 C246 -155 235 -167 218 -175 L218 -204 Z " />
<glyph glyph-name="Ncaron" unicode="&#x147;" horiz-adv-x="649" d="M62 0 L112 0 L112 637 L114 637 C114 637 164 554 204 494 L532 0 L587 0 L587 715 L537 715 L537 75 L535 75 C535 75 495 145 452 210 L120 715 L62 715 L62 0 Z M467 853 L411 853 L344 782 L342 782 L276 853 L217 853 L311 752 L373 752 L467 853 Z " />
<glyph glyph-name="ncaron" unicode="&#x148;" horiz-adv-x="485" d="M99 517 L50 517 L50 0 L99 0 L99 334 C99 420 180 485 272 485 C344 485 390 449 390 364 L390 0 L439 0 L439 369 C439 472 369 527 281 527 C193 527 135 485 101 430 L99 430 L99 517 Z M359 698 L305 698 L250 622 L248 622 L194 698 L137 698 L217 592 L279 592 L359 698 Z " />
<glyph glyph-name="napostrophe" unicode="&#x149;" horiz-adv-x="485" d="M-3 558 C38 565 58 593 58 642 L58 715 L-1 715 L-1 641 L25 641 L25 638 C25 607 14 595 -3 587 L-3 558 Z M99 517 L50 517 L50 0 L99 0 L99 334 C99 420 180 485 272 485 C344 485 390 449 390 364 L390 0 L439 0 L439 369 C439 472 369 527 281 527 C193 527 135 485 101 430 L99 430 L99 517 Z " />
<glyph glyph-name="Omacron" unicode="&#x14c;" horiz-adv-x="710" d="M354 -13 C548 -13 676 146 676 358 C676 570 548 729 354 729 C160 729 34 570 34 358 C34 146 160 -13 354 -13 L354 -13 Z M354 34 C180 34 88 181 88 358 C88 535 180 682 354 682 C528 682 622 535 622 358 C622 181 528 34 354 34 L354 34 Z M234 762 L476 762 L476 811 L234 811 L234 762 Z " />
<glyph glyph-name="omacron" unicode="&#x14d;" horiz-adv-x="514" d="M257 -13 C403 -13 489 102 489 258 C489 414 403 528 257 528 C112 528 25 414 25 258 C25 102 112 -13 257 -13 L257 -13 Z M257 29 C138 29 75 132 75 258 C75 384 138 487 257 487 C376 487 439 384 439 258 C439 132 376 29 257 29 L257 29 Z M136 630 L378 630 L378 679 L136 679 L136 630 Z " />
<glyph glyph-name="Obreve" unicode="&#x14e;" horiz-adv-x="710" d="M354 -13 C548 -13 676 146 676 358 C676 570 548 729 354 729 C160 729 34 570 34 358 C34 146 160 -13 354 -13 L354 -13 Z M354 34 C180 34 88 181 88 358 C88 535 180 682 354 682 C528 682 622 535 622 358 C622 181 528 34 354 34 L354 34 Z M355 753 C423 753 469 795 473 855 L427 855 C421 821 397 799 355 799 C313 799 289 821 283 855 L237 855 C241 795 287 753 355 753 L355 753 Z " />
<glyph glyph-name="obreve" unicode="&#x14f;" horiz-adv-x="514" d="M257 -13 C403 -13 489 102 489 258 C489 414 403 528 257 528 C112 528 25 414 25 258 C25 102 112 -13 257 -13 L257 -13 Z M257 29 C138 29 75 132 75 258 C75 384 138 487 257 487 C376 487 439 384 439 258 C439 132 376 29 257 29 L257 29 Z M257 589 C325 589 371 635 375 695 L329 695 C323 661 299 636 257 636 C215 636 191 661 185 695 L139 695 C143 635 189 589 257 589 L257 589 Z " />
<glyph glyph-name="Ohungarumlaut" unicode="&#x150;" horiz-adv-x="710" d="M354 -13 C548 -13 676 146 676 358 C676 570 548 729 354 729 C160 729 34 570 34 358 C34 146 160 -13 354 -13 L354 -13 Z M354 34 C180 34 88 181 88 358 C88 535 180 682 354 682 C528 682 622 535 622 358 C622 181 528 34 354 34 L354 34 Z M265 753 L308 753 L365 863 L305 863 L265 753 Z M394 753 L437 753 L494 863 L434 863 L394 753 Z " />
<glyph glyph-name="ohungarumlaut" unicode="&#x151;" horiz-adv-x="514" d="M257 -13 C403 -13 489 102 489 258 C489 414 403 528 257 528 C112 528 25 414 25 258 C25 102 112 -13 257 -13 L257 -13 Z M257 29 C138 29 75 132 75 258 C75 384 138 487 257 487 C376 487 439 384 439 258 C439 132 376 29 257 29 L257 29 Z M170 588 L213 588 L270 715 L210 715 L170 588 Z M299 588 L342 588 L399 715 L339 715 L299 588 Z " />
<glyph glyph-name="OE" unicode="&#x152;" horiz-adv-x="1096" d="M355 -13 C464 -13 545 36 596 123 L596 0 L1060 0 L1060 48 L648 48 L648 346 L1026 346 L1026 391 L648 391 L648 669 L1050 669 L1050 715 L596 715 L596 591 C549 676 467 729 355 729 C160 729 34 570 34 358 C34 146 160 -13 355 -13 L355 -13 Z M354 34 C180 34 88 181 88 358 C88 535 180 682 354 682 C489 682 591 585 596 454 L596 275 C596 134 490 34 354 34 L354 34 Z " />
<glyph glyph-name="oe" unicode="&#x153;" horiz-adv-x="905" d="M257 -13 C360 -13 431 44 464 134 C495 44 565 -13 673 -13 C788 -13 856 58 877 154 L830 154 C809 84 766 30 673 30 C546 30 490 129 489 253 L880 253 C881 351 862 425 805 478 C771 510 725 528 669 528 C568 528 497 471 464 380 C432 470 361 528 257 528 C112 528 25 414 25 258 C25 102 112 -13 257 -13 L257 -13 Z M257 29 C138 29 75 132 75 258 C75 384 138 487 257 487 C376 487 439 384 439 258 C439 132 376 29 257 29 L257 29 Z M830 293 L490 293 C500 402 557 486 669 486 C783 486 827 395 830 293 L830 293 Z " />
<glyph glyph-name="Racute" unicode="&#x154;" horiz-adv-x="615" d="M62 0 L114 0 L114 331 L344 331 C454 331 497 296 502 160 C507 36 512 9 528 0 L584 0 L584 4 C571 13 558 42 554 157 C550 272 526 328 452 352 L452 355 C531 380 569 435 569 524 C569 645 502 715 371 715 L62 715 L62 0 Z M114 669 L365 669 C475 669 516 613 516 522 C516 429 460 377 354 377 L114 377 L114 669 Z M267 753 L311 753 L412 863 L343 863 L267 753 Z " />
<glyph glyph-name="racute" unicode="&#x155;" horiz-adv-x="285" d="M99 517 L50 517 L50 0 L99 0 L99 299 C99 375 141 434 196 459 C217 468 240 472 269 471 L269 520 C231 520 205 515 174 497 C143 479 119 451 101 415 L99 415 L99 517 Z M126 588 L170 588 L271 715 L202 715 L126 588 Z " />
<glyph glyph-name="Rcommaaccent" unicode="&#x156;" horiz-adv-x="615" d="M62 0 L114 0 L114 331 L344 331 C454 331 497 296 502 160 C507 36 512 9 528 0 L584 0 L584 4 C571 13 558 42 554 157 C550 272 526 328 452 352 L452 355 C531 380 569 435 569 524 C569 645 502 715 371 715 L62 715 L62 0 Z M114 669 L365 669 C475 669 516 613 516 522 C516 429 460 377 354 377 L114 377 L114 669 Z M269 -204 C310 -197 330 -168 330 -118 L330 -48 L271 -48 L271 -119 L297 -119 L297 -122 C297 -155 286 -167 269 -175 L269 -204 Z " />
<glyph glyph-name="rcommaaccent" unicode="&#x157;" horiz-adv-x="285" d="M99 517 L50 517 L50 0 L99 0 L99 299 C99 375 141 434 196 459 C217 468 240 472 269 471 L269 520 C231 520 205 515 174 497 C143 479 119 451 101 415 L99 415 L99 517 Z M42 -204 C83 -197 103 -168 103 -118 L103 -48 L44 -48 L44 -119 L70 -119 L70 -122 C70 -155 59 -167 42 -175 L42 -204 Z " />
<glyph glyph-name="Rcaron" unicode="&#x158;" horiz-adv-x="615" d="M62 0 L114 0 L114 331 L344 331 C454 331 497 296 502 160 C507 36 512 9 528 0 L584 0 L584 4 C571 13 558 42 554 157 C550 272 526 328 452 352 L452 355 C531 380 569 435 569 524 C569 645 502 715 371 715 L62 715 L62 0 Z M114 669 L365 669 C475 669 516 613 516 522 C516 429 460 377 354 377 L114 377 L114 669 Z M424 853 L368 853 L301 782 L299 782 L233 853 L174 853 L268 752 L330 752 L424 853 Z " />
<glyph glyph-name="rcaron" unicode="&#x159;" horiz-adv-x="285" d="M99 517 L50 517 L50 0 L99 0 L99 299 C99 375 141 434 196 459 C217 468 240 472 269 471 L269 520 C231 520 205 515 174 497 C143 479 119 451 101 415 L99 415 L99 517 Z M277 698 L223 698 L168 622 L166 622 L112 698 L55 698 L135 592 L197 592 L277 698 Z " />
<glyph glyph-name="Sacute" unicode="&#x15a;" horiz-adv-x="581" d="M302 -13 C450 -13 547 75 547 197 C547 340 439 373 300 399 C159 425 102 453 102 541 C102 623 170 683 287 683 C387 683 463 630 473 530 L525 530 C515 647 431 729 286 729 C145 729 49 652 49 540 C49 421 132 379 268 354 C438 322 493 296 493 193 C493 92 410 33 301 33 C168 33 81 105 76 226 L23 226 C31 89 123 -13 302 -13 L302 -13 Z M253 753 L297 753 L398 863 L329 863 L253 753 Z " />
<glyph glyph-name="sacute" unicode="&#x15b;" horiz-adv-x="433" d="M221 -13 C342 -13 409 55 409 139 C409 237 341 265 237 289 C131 314 83 331 83 391 C83 445 126 485 210 485 C288 485 339 447 346 381 L394 381 C382 465 329 528 210 528 C112 528 34 476 34 390 C34 298 113 270 219 245 C333 218 360 196 360 140 C360 72 308 29 221 29 C135 29 74 71 67 156 L17 156 C22 67 86 -13 221 -13 L221 -13 Z M178 588 L222 588 L323 715 L254 715 L178 588 Z " />
<glyph glyph-name="Scircumflex" unicode="&#x15c;" horiz-adv-x="581" d="M302 -13 C450 -13 547 75 547 197 C547 340 439 373 300 399 C159 425 102 453 102 541 C102 623 170 683 287 683 C387 683 463 630 473 530 L525 530 C515 647 431 729 286 729 C145 729 49 652 49 540 C49 421 132 379 268 354 C438 322 493 296 493 193 C493 92 410 33 301 33 C168 33 81 105 76 226 L23 226 C31 89 123 -13 302 -13 L302 -13 Z M160 752 L216 752 L283 823 L285 823 L351 752 L410 752 L316 853 L254 853 L160 752 Z " />
<glyph glyph-name="scircumflex" unicode="&#x15d;" horiz-adv-x="433" d="M221 -13 C342 -13 409 55 409 139 C409 237 341 265 237 289 C131 314 83 331 83 391 C83 445 126 485 210 485 C288 485 339 447 346 381 L394 381 C382 465 329 528 210 528 C112 528 34 476 34 390 C34 298 113 270 219 245 C333 218 360 196 360 140 C360 72 308 29 221 29 C135 29 74 71 67 156 L17 156 C22 67 86 -13 221 -13 L221 -13 Z M107 592 L161 592 L216 668 L218 668 L272 592 L329 592 L249 698 L187 698 L107 592 Z " />
<glyph glyph-name="Scedilla" unicode="&#x15e;" horiz-adv-x="581" d="M252 -184 C308 -184 348 -159 348 -113 C348 -72 314 -50 268 -52 L268 -50 L308 -13 C453 -10 547 77 547 197 C547 340 439 373 300 399 C159 425 102 453 102 541 C102 623 170 683 287 683 C387 683 463 630 473 530 L525 530 C515 647 431 729 286 729 C145 729 49 652 49 540 C49 421 132 379 268 354 C438 322 493 296 493 193 C493 92 410 33 301 33 C168 33 81 105 76 226 L23 226 C30 99 110 2 264 -11 L205 -69 L218 -91 C228 -88 240 -84 257 -84 C283 -84 300 -91 300 -113 C300 -135 280 -150 243 -150 C218 -150 198 -145 176 -137 L163 -162 C184 -174 213 -184 252 -184 L252 -184 Z " />
<glyph glyph-name="scedilla" unicode="&#x15f;" horiz-adv-x="433" d="M185 -184 C241 -184 281 -159 281 -113 C281 -72 247 -50 201 -52 L201 -50 L242 -12 C350 -5 409 60 409 139 C409 237 341 265 237 289 C131 314 83 331 83 391 C83 445 126 485 210 485 C288 485 339 447 346 381 L394 381 C382 465 329 528 210 528 C112 528 34 476 34 390 C34 298 113 270 219 245 C333 218 360 196 360 140 C360 72 308 29 221 29 C135 29 74 71 67 156 L17 156 C21 72 78 -3 196 -12 L138 -69 L151 -91 C161 -88 173 -84 190 -84 C216 -84 233 -91 233 -113 C233 -135 213 -150 176 -150 C151 -150 131 -145 109 -137 L96 -162 C117 -174 146 -184 185 -184 L185 -184 Z " />
<glyph glyph-name="Scaron" unicode="&#x160;" horiz-adv-x="581" d="M302 -13 C450 -13 547 75 547 197 C547 340 439 373 300 399 C159 425 102 453 102 541 C102 623 170 683 287 683 C387 683 463 630 473 530 L525 530 C515 647 431 729 286 729 C145 729 49 652 49 540 C49 421 132 379 268 354 C438 322 493 296 493 193 C493 92 410 33 301 33 C168 33 81 105 76 226 L23 226 C31 89 123 -13 302 -13 L302 -13 Z M410 853 L354 853 L287 782 L285 782 L219 853 L160 853 L254 752 L316 752 L410 853 Z " />
<glyph glyph-name="scaron" unicode="&#x161;" horiz-adv-x="433" d="M221 -13 C342 -13 409 55 409 139 C409 237 341 265 237 289 C131 314 83 331 83 391 C83 445 126 485 210 485 C288 485 339 447 346 381 L394 381 C382 465 329 528 210 528 C112 528 34 476 34 390 C34 298 113 270 219 245 C333 218 360 196 360 140 C360 72 308 29 221 29 C135 29 74 71 67 156 L17 156 C22 67 86 -13 221 -13 L221 -13 Z M329 698 L275 698 L220 622 L218 622 L164 698 L107 698 L187 592 L249 592 L329 698 Z " />
<glyph glyph-name="Tcommaaccent" unicode="&#x162;" horiz-adv-x="574" d="M17 668 L261 668 L261 0 L313 0 L313 668 L557 668 L557 715 L17 715 L17 668 Z M257 -204 C298 -197 318 -168 318 -118 L318 -48 L259 -48 L259 -119 L285 -119 L285 -122 C285 -155 274 -167 257 -175 L257 -204 Z " />
<glyph glyph-name="tcommaaccent" unicode="&#x163;" horiz-adv-x="266" d="M14 476 L94 476 L94 84 C94 23 129 -4 182 -4 C203 -4 218 -1 234 5 L234 47 L231 47 C222 42 205 38 192 38 C158 38 143 50 143 88 L143 476 L237 476 L237 517 L143 517 L143 673 L94 673 L94 517 L14 517 L14 476 Z M129 -204 C170 -197 190 -168 190 -118 L190 -48 L131 -48 L131 -119 L157 -119 L157 -122 C157 -155 146 -167 129 -175 L129 -204 Z " />
<glyph glyph-name="Tcaron" unicode="&#x164;" horiz-adv-x="574" d="M17 668 L261 668 L261 0 L313 0 L313 668 L557 668 L557 715 L17 715 L17 668 Z M412 853 L356 853 L289 782 L287 782 L221 853 L162 853 L256 752 L318 752 L412 853 Z " />
<glyph glyph-name="tcaron" unicode="&#x165;" horiz-adv-x="266" d="M14 476 L94 476 L94 84 C94 23 129 -4 182 -4 C203 -4 218 -1 234 5 L234 47 L231 47 C222 42 205 38 192 38 C158 38 143 50 143 88 L143 476 L237 476 L237 517 L143 517 L143 673 L94 673 L94 517 L14 517 L14 476 Z M198 558 C239 565 259 593 259 642 L259 715 L200 715 L200 641 L226 641 C226 606 215 595 198 587 L198 558 Z " />
<glyph glyph-name="Tbar" unicode="&#x166;" horiz-adv-x="574" d="M17 668 L261 668 L261 406 L131 406 L131 362 L261 362 L261 0 L313 0 L313 362 L443 362 L443 406 L313 406 L313 668 L557 668 L557 715 L17 715 L17 668 Z " />
<glyph glyph-name="tbar" unicode="&#x167;" horiz-adv-x="266" d="M14 308 L94 308 L94 84 C94 23 129 -4 182 -4 C203 -4 218 -1 234 5 L234 47 L231 47 C222 42 205 38 192 38 C158 38 143 50 143 88 L143 308 L237 308 L237 349 L143 349 L143 476 L237 476 L237 517 L143 517 L143 673 L94 673 L94 517 L14 517 L14 476 L94 476 L94 349 L14 349 L14 308 Z " />
<glyph glyph-name="Utilde" unicode="&#x168;" horiz-adv-x="622" d="M308 -11 C463 -11 566 63 566 225 L566 715 L514 715 L514 229 C514 89 434 35 311 35 C181 35 108 89 108 229 L108 715 L56 715 L56 225 C56 67 152 -11 308 -11 L308 -11 Z M370 760 C409 760 439 789 443 844 L401 844 C399 818 385 803 368 803 C339 803 295 846 253 846 C214 846 185 819 180 762 L222 762 C224 788 239 803 253 803 C282 803 329 760 370 760 L370 760 Z " />
<glyph glyph-name="utilde" unicode="&#x169;" horiz-adv-x="479" d="M429 0 L429 517 L380 517 L380 190 C380 99 312 30 221 30 C144 30 95 68 95 153 L95 517 L46 517 L46 148 C46 45 117 -12 212 -12 C299 -12 344 29 378 79 L380 79 L380 0 L429 0 Z M299 600 C338 600 368 629 372 684 L330 684 C328 658 314 643 297 643 C268 643 224 686 182 686 C143 686 114 659 109 602 L151 602 C153 628 168 643 182 643 C211 643 258 600 299 600 L299 600 Z " />
<glyph glyph-name="Umacron" unicode="&#x16a;" horiz-adv-x="622" d="M308 -11 C463 -11 566 63 566 225 L566 715 L514 715 L514 229 C514 89 434 35 311 35 C181 35 108 89 108 229 L108 715 L56 715 L56 225 C56 67 152 -11 308 -11 L308 -11 Z M190 762 L432 762 L432 811 L190 811 L190 762 Z " />
<glyph glyph-name="umacron" unicode="&#x16b;" horiz-adv-x="479" d="M429 0 L429 517 L380 517 L380 190 C380 99 312 30 221 30 C144 30 95 68 95 153 L95 517 L46 517 L46 148 C46 45 117 -12 212 -12 C299 -12 344 29 378 79 L380 79 L380 0 L429 0 Z M119 630 L361 630 L361 679 L119 679 L119 630 Z " />
<glyph glyph-name="Ubreve" unicode="&#x16c;" horiz-adv-x="622" d="M308 -11 C463 -11 566 63 566 225 L566 715 L514 715 L514 229 C514 89 434 35 311 35 C181 35 108 89 108 229 L108 715 L56 715 L56 225 C56 67 152 -11 308 -11 L308 -11 Z M311 753 C379 753 425 795 429 855 L383 855 C377 821 353 799 311 799 C269 799 245 821 239 855 L193 855 C197 795 243 753 311 753 L311 753 Z " />
<glyph glyph-name="ubreve" unicode="&#x16d;" horiz-adv-x="479" d="M429 0 L429 517 L380 517 L380 190 C380 99 312 30 221 30 C144 30 95 68 95 153 L95 517 L46 517 L46 148 C46 45 117 -12 212 -12 C299 -12 344 29 378 79 L380 79 L380 0 L429 0 Z M240 589 C308 589 354 635 358 695 L312 695 C306 661 282 636 240 636 C198 636 174 661 168 695 L122 695 C126 635 172 589 240 589 L240 589 Z " />
<glyph glyph-name="Uring" unicode="&#x16e;" horiz-adv-x="622" d="M308 -11 C463 -11 566 63 566 225 L566 715 L514 715 L514 229 C514 89 434 35 311 35 C181 35 108 89 108 229 L108 715 L56 715 L56 225 C56 67 152 -11 308 -11 L308 -11 Z M311 730 C359 730 398 768 398 815 C398 862 359 900 311 900 C263 900 224 862 224 815 C224 768 263 730 311 730 L311 730 Z M311 763 C282 763 262 786 262 815 C262 844 282 867 311 867 C340 867 360 844 360 815 C360 786 340 763 311 763 L311 763 Z " />
<glyph glyph-name="uring" unicode="&#x16f;" horiz-adv-x="479" d="M429 0 L429 517 L380 517 L380 190 C380 99 312 30 221 30 C144 30 95 68 95 153 L95 517 L46 517 L46 148 C46 45 117 -12 212 -12 C299 -12 344 29 378 79 L380 79 L380 0 L429 0 Z M240 576 C288 576 327 614 327 661 C327 708 288 746 240 746 C192 746 153 708 153 661 C153 614 192 576 240 576 L240 576 Z M240 609 C211 609 191 632 191 661 C191 690 211 713 240 713 C269 713 289 690 289 661 C289 632 269 609 240 609 L240 609 Z " />
<glyph glyph-name="Uhungarumlaut" unicode="&#x170;" horiz-adv-x="622" d="M308 -11 C463 -11 566 63 566 225 L566 715 L514 715 L514 229 C514 89 434 35 311 35 C181 35 108 89 108 229 L108 715 L56 715 L56 225 C56 67 152 -11 308 -11 L308 -11 Z M221 753 L264 753 L321 863 L261 863 L221 753 Z M350 753 L393 753 L450 863 L390 863 L350 753 Z " />
<glyph glyph-name="uhungarumlaut" unicode="&#x171;" horiz-adv-x="479" d="M429 0 L429 517 L380 517 L380 190 C380 99 312 30 221 30 C144 30 95 68 95 153 L95 517 L46 517 L46 148 C46 45 117 -12 212 -12 C299 -12 344 29 378 79 L380 79 L380 0 L429 0 Z M153 588 L196 588 L253 715 L193 715 L153 588 Z M282 588 L325 588 L382 715 L322 715 L282 588 Z " />
<glyph glyph-name="Uogonek" unicode="&#x172;" horiz-adv-x="622" d="M403 -125 C386 -132 371 -136 353 -136 C325 -136 312 -123 312 -102 C312 -76 329 -51 359 -27 C384 -7 410 0 435 11 C515 46 566 113 566 225 L566 715 L514 715 L514 229 C514 89 434 35 311 35 C181 35 108 89 108 229 L108 715 L56 715 L56 225 C56 67 152 -11 308 -11 L324 -11 C291 -33 262 -67 262 -105 C262 -147 290 -175 347 -175 C373 -175 393 -168 406 -160 L406 -125 L403 -125 Z " />
<glyph glyph-name="uogonek" unicode="&#x173;" horiz-adv-x="479" d="M435 -126 C418 -133 404 -137 386 -137 C358 -137 346 -124 346 -102 C346 -66 376 -35 429 1 L429 517 L380 517 L380 190 C380 99 312 30 221 30 C144 30 95 68 95 153 L95 517 L46 517 L46 148 C46 45 117 -12 212 -12 C299 -12 344 29 378 79 L380 79 L380 4 C336 -21 296 -60 296 -105 C296 -147 323 -175 380 -175 C406 -175 425 -168 438 -160 L438 -126 L435 -126 Z " />
<glyph glyph-name="Wcircumflex" unicode="&#x174;" horiz-adv-x="857" d="M204 0 L262 0 L402 532 C415 581 430 653 430 653 L432 653 C432 653 447 580 460 532 L600 0 L656 0 L846 715 L796 715 L667 221 C652 163 631 67 631 67 L629 67 C629 67 606 162 592 215 L458 715 L403 715 L270 213 C256 160 234 67 234 67 L232 67 C232 67 210 166 195 221 L63 715 L11 715 L204 0 Z M303 752 L359 752 L426 823 L428 823 L494 752 L553 752 L459 853 L397 853 L303 752 Z " />
<glyph glyph-name="wcircumflex" unicode="&#x175;" horiz-adv-x="695" d="M161 0 L222 0 L315 342 C329 395 344 465 344 465 L346 465 C346 465 360 395 374 342 L464 0 L523 0 L681 517 L632 517 L537 197 C521 141 496 45 496 45 L494 45 C494 45 472 139 459 190 L373 517 L318 517 L229 190 C215 138 192 45 192 45 L190 45 C190 45 169 140 153 197 L65 517 L14 517 L161 0 Z M235 592 L289 592 L344 668 L346 668 L400 592 L457 592 L377 698 L315 698 L235 592 Z " />
<glyph glyph-name="Ycircumflex" unicode="&#x176;" horiz-adv-x="579" d="M263 0 L315 0 L315 316 L574 715 L518 715 L291 365 L289 365 L62 715 L5 715 L263 318 L263 0 Z M164 752 L220 752 L287 823 L289 823 L355 752 L414 752 L320 853 L258 853 L164 752 Z " />
<glyph glyph-name="ycircumflex" unicode="&#x177;" horiz-adv-x="455" d="M96 -171 C166 -171 208 -146 238 -62 L446 517 L396 517 L276 175 C258 123 234 46 234 46 L232 46 C232 46 206 124 187 175 L61 517 L10 517 L208 -8 L193 -51 C174 -106 143 -126 100 -126 C78 -126 67 -123 59 -121 L57 -121 L57 -165 C68 -168 78 -171 96 -171 L96 -171 Z M120 592 L174 592 L229 668 L231 668 L285 592 L342 592 L262 698 L200 698 L120 592 Z " />
<glyph glyph-name="Ydieresis" unicode="&#x178;" horiz-adv-x="579" d="M263 0 L315 0 L315 316 L574 715 L518 715 L291 365 L289 365 L62 715 L5 715 L263 318 L263 0 Z M189 755 L238 755 L238 835 L189 835 L189 755 Z M340 755 L389 755 L389 835 L340 835 L340 755 Z " />
<glyph glyph-name="Zacute" unicode="&#x179;" horiz-adv-x="573" d="M24 0 L543 0 L543 46 L84 46 L84 49 L527 667 L527 715 L52 715 L52 670 L466 670 L466 667 L24 51 L24 0 Z M262 753 L306 753 L407 863 L338 863 L262 753 Z " />
<glyph glyph-name="zacute" unicode="&#x17a;" horiz-adv-x="431" d="M24 0 L406 0 L406 43 L83 43 L83 46 L398 476 L398 517 L46 517 L46 474 L336 474 L336 471 L24 45 L24 0 Z M187 588 L231 588 L332 715 L263 715 L187 588 Z " />
<glyph glyph-name="Zdotaccent" unicode="&#x17b;" horiz-adv-x="573" d="M24 0 L543 0 L543 46 L84 46 L84 49 L527 667 L527 715 L52 715 L52 670 L466 670 L466 667 L24 51 L24 0 Z M270 755 L319 755 L319 835 L270 835 L270 755 Z " />
<glyph glyph-name="zdotaccent" unicode="&#x17c;" horiz-adv-x="431" d="M24 0 L406 0 L406 43 L83 43 L83 46 L398 476 L398 517 L46 517 L46 474 L336 474 L336 471 L24 45 L24 0 Z M203 635 L252 635 L252 715 L203 715 L203 635 Z " />
<glyph glyph-name="Zcaron" unicode="&#x17d;" horiz-adv-x="573" d="M24 0 L543 0 L543 46 L84 46 L84 49 L527 667 L527 715 L52 715 L52 670 L466 670 L466 667 L24 51 L24 0 Z M419 853 L363 853 L296 782 L294 782 L228 853 L169 853 L263 752 L325 752 L419 853 Z " />
<glyph glyph-name="zcaron" unicode="&#x17e;" horiz-adv-x="431" d="M24 0 L406 0 L406 43 L83 43 L83 46 L398 476 L398 517 L46 517 L46 474 L336 474 L336 471 L24 45 L24 0 Z M338 698 L284 698 L229 622 L227 622 L173 698 L116 698 L196 592 L258 592 L338 698 Z " />
<glyph glyph-name="florin" unicode="&#x192;" horiz-adv-x="329" d="M44 355 L126 355 L70 -44 C64 -86 41 -105 -1 -105 L-16 -105 L-16 -148 L-1 -148 C69 -148 109 -121 119 -48 L176 355 L281 355 L281 396 L182 396 L207 574 C213 618 227 642 273 642 L311 642 L311 685 L273 685 C202 685 168 648 158 578 L132 396 L44 396 L44 355 Z " />
<glyph glyph-name="AEacute" unicode="&#x1fc;" horiz-adv-x="945" d="M865 346 L865 391 L517 391 L517 669 L899 669 L899 715 L306 715 L9 0 L62 0 L157 229 L465 229 L465 0 L909 0 L909 48 L517 48 L517 346 L865 346 Z M465 669 L465 273 L175 273 L339 669 L465 669 Z M554 753 L598 753 L699 863 L630 863 L554 753 Z " />
<glyph glyph-name="aeacute" unicode="&#x1fd;" horiz-adv-x="842" d="M817 253 C818 351 799 425 742 478 C708 510 662 528 606 528 C519 528 454 486 417 416 C400 490 343 528 249 528 C129 528 62 470 49 370 L98 370 C108 445 158 486 249 486 C331 486 377 448 377 370 L377 356 C377 308 349 302 227 290 C119 279 23 256 23 133 C23 38 99 -13 201 -13 C300 -13 368 31 406 109 L407 109 C444 33 512 -13 610 -13 C725 -13 793 58 814 154 L767 154 C746 84 703 30 610 30 C483 30 427 129 426 253 L817 253 Z M204 29 C132 29 73 58 73 131 C73 229 142 240 233 250 C286 256 341 263 377 281 L377 184 C377 106 315 29 204 29 L204 29 Z M767 293 L427 293 C437 402 494 486 606 486 C720 486 764 395 767 293 L767 293 Z M392 588 L436 588 L537 715 L468 715 L392 588 Z " />
<glyph glyph-name="Oslashacute" unicode="&#x1fe;" horiz-adv-x="710" d="M51 -16 L134 78 C189 21 264 -13 354 -13 C548 -13 676 146 676 358 C676 454 649 540 602 605 L688 702 L659 729 L576 635 C520 694 444 729 354 729 C160 729 34 570 34 358 C34 260 61 174 109 109 L22 11 L51 -16 Z M88 358 C88 535 180 682 354 682 C435 682 498 650 543 598 L143 147 C106 204 88 278 88 358 L88 358 Z M354 34 C274 34 212 65 167 115 L567 566 C603 509 622 436 622 358 C622 181 528 34 354 34 L354 34 Z M323 753 L367 753 L468 863 L399 863 L323 753 Z " />
<glyph glyph-name="oslashacute" unicode="&#x1ff;" horiz-adv-x="514" d="M41 -15 L98 50 C137 10 191 -13 257 -13 C403 -13 489 102 489 258 C489 329 471 390 438 437 L499 507 L473 530 L416 465 C377 505 323 528 257 528 C112 528 25 414 25 258 C25 187 42 124 76 77 L15 8 L41 -15 Z M75 258 C75 384 138 487 257 487 C311 487 354 465 385 429 L109 115 C86 154 75 204 75 258 L75 258 Z M257 29 C202 29 160 50 129 86 L405 400 C428 361 439 311 439 258 C439 132 376 29 257 29 L257 29 Z M217 588 L261 588 L362 715 L293 715 L217 588 Z " />
<glyph glyph-name="Scommaaccent" unicode="&#x218;" horiz-adv-x="581" d="M302 -13 C450 -13 547 75 547 197 C547 340 439 373 300 399 C159 425 102 453 102 541 C102 623 170 683 287 683 C387 683 463 630 473 530 L525 530 C515 647 431 729 286 729 C145 729 49 652 49 540 C49 421 132 379 268 354 C438 322 493 296 493 193 C493 92 410 33 301 33 C168 33 81 105 76 226 L23 226 C31 89 123 -13 302 -13 L302 -13 Z M255 -204 C296 -197 316 -168 316 -118 L316 -48 L257 -48 L257 -119 L283 -119 L283 -122 C283 -155 272 -167 255 -175 L255 -204 Z " />
<glyph glyph-name="scommaaccent" unicode="&#x219;" horiz-adv-x="433" d="M221 -13 C342 -13 409 55 409 139 C409 237 341 265 237 289 C131 314 83 331 83 391 C83 445 126 485 210 485 C288 485 339 447 346 381 L394 381 C382 465 329 528 210 528 C112 528 34 476 34 390 C34 298 113 270 219 245 C333 218 360 196 360 140 C360 72 308 29 221 29 C135 29 74 71 67 156 L17 156 C22 67 86 -13 221 -13 L221 -13 Z M188 -204 C229 -197 249 -168 249 -118 L249 -48 L190 -48 L190 -119 L216 -119 L216 -122 C216 -155 205 -167 188 -175 L188 -204 Z " />
<glyph glyph-name="uni021A" unicode="&#x21a;" horiz-adv-x="574" d="M17 668 L261 668 L261 0 L313 0 L313 668 L557 668 L557 715 L17 715 L17 668 Z M257 -204 C298 -197 318 -168 318 -118 L318 -48 L259 -48 L259 -119 L285 -119 L285 -122 C285 -155 274 -167 257 -175 L257 -204 Z " />
<glyph glyph-name="uni021B" unicode="&#x21b;" horiz-adv-x="266" d="M14 476 L94 476 L94 84 C94 23 129 -4 182 -4 C203 -4 218 -1 234 5 L234 47 L231 47 C222 42 205 38 192 38 C158 38 143 50 143 88 L143 476 L237 476 L237 517 L143 517 L143 673 L94 673 L94 517 L14 517 L14 476 Z M129 -204 C170 -197 190 -168 190 -118 L190 -48 L131 -48 L131 -119 L157 -119 L157 -122 C157 -155 146 -167 129 -175 L129 -204 Z " />
<glyph glyph-name="uni0237" unicode="&#x237;" horiz-adv-x="155" d="M-15 -166 L-2 -166 C67 -166 102 -136 102 -60 L102 517 L53 517 L53 -59 C53 -105 35 -124 -5 -124 L-15 -124 L-15 -166 Z " />
<glyph glyph-name="circumflex" unicode="&#x2c6;" horiz-adv-x="500" d="M139 592 L193 592 L248 668 L250 668 L304 592 L361 592 L281 698 L219 698 L139 592 Z " />
<glyph glyph-name="caron" unicode="&#x2c7;" horiz-adv-x="500" d="M361 698 L307 698 L252 622 L250 622 L196 698 L139 698 L219 592 L281 592 L361 698 Z " />
<glyph glyph-name="uni02C9" unicode="&#x2c9;" horiz-adv-x="500" d="M129 630 L371 630 L371 679 L129 679 L129 630 Z " />
<glyph glyph-name="breve" unicode="&#x2d8;" horiz-adv-x="500" d="M269 589 C337 589 383 635 387 695 L341 695 C335 661 311 636 269 636 C227 636 203 661 197 695 L151 695 C155 635 201 589 269 589 L269 589 Z " />
<glyph glyph-name="dotaccent" unicode="&#x2d9;" horiz-adv-x="520" d="M235 635 L284 635 L284 715 L235 715 L235 635 Z " />
<glyph glyph-name="ring" unicode="&#x2da;" horiz-adv-x="509" d="M254 576 C302 576 341 614 341 661 C341 708 302 746 254 746 C206 746 167 708 167 661 C167 614 206 576 254 576 L254 576 Z M254 609 C225 609 205 632 205 661 C205 690 225 713 254 713 C283 713 303 690 303 661 C303 632 283 609 254 609 L254 609 Z " />
<glyph glyph-name="ogonek" unicode="&#x2db;" horiz-adv-x="500" d="M285 -125 C268 -132 253 -136 235 -136 C207 -136 194 -123 194 -102 C194 -66 226 -35 277 0 L226 0 C186 -21 144 -60 144 -105 C144 -147 172 -175 229 -175 C255 -175 275 -168 288 -160 L288 -125 L285 -125 Z " />
<glyph glyph-name="tilde" unicode="&#x2dc;" horiz-adv-x="500" d="M308 600 C347 600 377 629 381 684 L339 684 C337 658 323 643 306 643 C277 643 233 686 191 686 C152 686 123 659 118 602 L160 602 C162 628 177 643 191 643 C220 643 267 600 308 600 L308 600 Z " />
<glyph glyph-name="hungarumlaut" unicode="&#x2dd;" horiz-adv-x="500" d="M154 588 L197 588 L254 715 L194 715 L154 588 Z M283 588 L326 588 L383 715 L323 715 L283 588 Z " />
<glyph glyph-name="pi" unicode="&#x3c0;" horiz-adv-x="559" d="M525 517 L18 517 L18 476 L100 476 L100 0 L149 0 L149 476 L395 476 L395 84 C395 23 430 -4 483 -4 C504 -4 519 -1 535 5 L535 47 L532 47 C523 42 506 38 493 38 C459 38 444 50 444 88 L444 476 L525 476 L525 517 Z " />
<glyph glyph-name="Wgrave" unicode="&#x1e80;" horiz-adv-x="857" d="M204 0 L262 0 L402 532 C415 581 430 653 430 653 L432 653 C432 653 447 580 460 532 L600 0 L656 0 L846 715 L796 715 L667 221 C652 163 631 67 631 67 L629 67 C629 67 606 162 592 215 L458 715 L403 715 L270 213 C256 160 234 67 234 67 L232 67 C232 67 210 166 195 221 L63 715 L11 715 L204 0 Z M459 753 L383 863 L314 863 L415 753 L459 753 Z " />
<glyph glyph-name="wgrave" unicode="&#x1e81;" horiz-adv-x="695" d="M161 0 L222 0 L315 342 C329 395 344 465 344 465 L346 465 C346 465 360 395 374 342 L464 0 L523 0 L681 517 L632 517 L537 197 C521 141 496 45 496 45 L494 45 C494 45 472 139 459 190 L373 517 L318 517 L229 190 C215 138 192 45 192 45 L190 45 C190 45 169 140 153 197 L65 517 L14 517 L161 0 Z M383 588 L307 715 L238 715 L339 588 L383 588 Z " />
<glyph glyph-name="Wacute" unicode="&#x1e82;" horiz-adv-x="857" d="M204 0 L262 0 L402 532 C415 581 430 653 430 653 L432 653 C432 653 447 580 460 532 L600 0 L656 0 L846 715 L796 715 L667 221 C652 163 631 67 631 67 L629 67 C629 67 606 162 592 215 L458 715 L403 715 L270 213 C256 160 234 67 234 67 L232 67 C232 67 210 166 195 221 L63 715 L11 715 L204 0 Z M396 753 L440 753 L541 863 L472 863 L396 753 Z " />
<glyph glyph-name="wacute" unicode="&#x1e83;" horiz-adv-x="695" d="M161 0 L222 0 L315 342 C329 395 344 465 344 465 L346 465 C346 465 360 395 374 342 L464 0 L523 0 L681 517 L632 517 L537 197 C521 141 496 45 496 45 L494 45 C494 45 472 139 459 190 L373 517 L318 517 L229 190 C215 138 192 45 192 45 L190 45 C190 45 169 140 153 197 L65 517 L14 517 L161 0 Z M306 588 L350 588 L451 715 L382 715 L306 588 Z " />
<glyph glyph-name="Wdieresis" unicode="&#x1e84;" horiz-adv-x="857" d="M204 0 L262 0 L402 532 C415 581 430 653 430 653 L432 653 C432 653 447 580 460 532 L600 0 L656 0 L846 715 L796 715 L667 221 C652 163 631 67 631 67 L629 67 C629 67 606 162 592 215 L458 715 L403 715 L270 213 C256 160 234 67 234 67 L232 67 C232 67 210 166 195 221 L63 715 L11 715 L204 0 Z M328 755 L377 755 L377 835 L328 835 L328 755 Z M479 755 L528 755 L528 835 L479 835 L479 755 Z " />
<glyph glyph-name="wdieresis" unicode="&#x1e85;" horiz-adv-x="695" d="M161 0 L222 0 L315 342 C329 395 344 465 344 465 L346 465 C346 465 360 395 374 342 L464 0 L523 0 L681 517 L632 517 L537 197 C521 141 496 45 496 45 L494 45 C494 45 472 139 459 190 L373 517 L318 517 L229 190 C215 138 192 45 192 45 L190 45 C190 45 169 140 153 197 L65 517 L14 517 L161 0 Z M246 635 L295 635 L295 715 L246 715 L246 635 Z M397 635 L446 635 L446 715 L397 715 L397 635 Z " />
<glyph glyph-name="Ygrave" unicode="&#x1ef2;" horiz-adv-x="579" d="M263 0 L315 0 L315 316 L574 715 L518 715 L291 365 L289 365 L62 715 L5 715 L263 318 L263 0 Z M320 753 L244 863 L175 863 L276 753 L320 753 Z " />
<glyph glyph-name="ygrave" unicode="&#x1ef3;" horiz-adv-x="455" d="M96 -171 C166 -171 208 -146 238 -62 L446 517 L396 517 L276 175 C258 123 234 46 234 46 L232 46 C232 46 206 124 187 175 L61 517 L10 517 L208 -8 L193 -51 C174 -106 143 -126 100 -126 C78 -126 67 -123 59 -121 L57 -121 L57 -165 C68 -168 78 -171 96 -171 L96 -171 Z M268 588 L192 715 L123 715 L224 588 L268 588 Z " />
<glyph glyph-name="uni2009" unicode="&#x2009;" horiz-adv-x="55" d="" />
<glyph glyph-name="endash" unicode="&#x2013;" horiz-adv-x="483" d="M38 233 L445 233 L445 276 L38 276 L38 233 Z " />
<glyph glyph-name="emdash" unicode="&#x2014;" horiz-adv-x="743" d="M38 233 L705 233 L705 276 L38 276 L38 233 Z " />
<glyph glyph-name="quoteleft" unicode="&#x2018;" horiz-adv-x="143" d="M42 546 L101 546 L101 622 L75 622 L75 635 C75 668 86 680 103 688 L103 717 C62 710 42 681 42 631 L42 546 Z " />
<glyph glyph-name="quoteright" unicode="&#x2019;" horiz-adv-x="143" d="M40 544 C81 551 101 580 101 630 L101 715 L42 715 L42 639 L68 639 L68 626 C68 593 57 581 40 573 L40 544 Z " />
<glyph glyph-name="quotesinglbase" unicode="&#x201a;" horiz-adv-x="143" d="M40 -95 C81 -88 101 -59 101 -9 L101 76 L42 76 L42 0 L68 0 L68 -13 C68 -46 57 -58 40 -66 L40 -95 Z " />
<glyph glyph-name="quotedblleft" unicode="&#x201c;" horiz-adv-x="256" d="M42 546 L101 546 L101 622 L75 622 L75 635 C75 668 86 680 103 688 L103 717 C62 710 42 681 42 631 L42 546 Z M155 546 L214 546 L214 622 L188 622 L188 635 C188 668 199 680 216 688 L216 717 C175 710 155 681 155 631 L155 546 Z " />
<glyph glyph-name="quotedblright" unicode="&#x201d;" horiz-adv-x="256" d="M153 544 C194 551 214 580 214 630 L214 715 L155 715 L155 639 L181 639 L181 626 C181 593 170 581 153 573 L153 544 Z M40 544 C81 551 101 580 101 630 L101 715 L42 715 L42 639 L68 639 L68 626 C68 593 57 581 40 573 L40 544 Z " />
<glyph glyph-name="quotedblbase" unicode="&#x201e;" horiz-adv-x="256" d="M153 -95 C194 -88 214 -59 214 -9 L214 76 L155 76 L155 0 L181 0 L181 -13 C181 -46 170 -58 153 -66 L153 -95 Z M40 -95 C81 -88 101 -59 101 -9 L101 76 L42 76 L42 0 L68 0 L68 -13 C68 -46 57 -58 40 -66 L40 -95 Z " />
<glyph glyph-name="dagger" unicode="&#x2020;" horiz-adv-x="496" d="M39 471 L223 471 L223 -104 L273 -104 L273 471 L457 471 L457 514 L273 514 L273 715 L223 715 L223 514 L39 514 L39 471 Z " />
<glyph glyph-name="daggerdbl" unicode="&#x2021;" horiz-adv-x="496" d="M273 715 L223 715 L223 514 L39 514 L39 471 L223 471 L223 140 L39 140 L39 97 L223 97 L223 -104 L273 -104 L273 97 L457 97 L457 140 L273 140 L273 471 L457 471 L457 514 L273 514 L273 715 Z " />
<glyph glyph-name="bullet" unicode="&#x2022;" horiz-adv-x="277" d="M139 225 C194 225 239 270 239 325 C239 380 194 426 139 426 C83 426 38 380 38 325 C38 270 83 225 139 225 L139 225 Z " />
<glyph glyph-name="ellipsis" unicode="&#x2026;" horiz-adv-x="509" d="M41 0 L102 0 L102 79 L41 79 L41 0 Z M407 0 L468 0 L468 79 L407 79 L407 0 Z M224 0 L285 0 L285 79 L224 79 L224 0 Z " />
<glyph glyph-name="perthousand" unicode="&#x2030;" horiz-adv-x="1124" d="M182 313 C265 313 330 382 330 506 C330 634 262 699 182 699 C102 699 34 632 34 506 C34 382 99 313 182 313 L182 313 Z M588 -13 C671 -13 736 56 736 180 C736 308 668 373 588 373 C508 373 440 306 440 180 C440 56 505 -13 588 -13 L588 -13 Z M942 -13 C1025 -13 1090 56 1090 180 C1090 308 1022 373 942 373 C862 373 794 306 794 180 C794 56 859 -13 942 -13 L942 -13 Z M588 26 C534 26 487 74 487 180 C487 288 534 334 588 334 C641 334 689 286 689 180 C689 72 643 26 588 26 L588 26 Z M942 26 C888 26 841 74 841 180 C841 288 888 334 942 334 C995 334 1043 286 1043 180 C1043 72 997 26 942 26 L942 26 Z M182 352 C128 352 81 400 81 506 C81 614 128 660 182 660 C235 660 283 612 283 506 C283 398 237 352 182 352 L182 352 Z M164 0 L210 0 L606 685 L560 685 L164 0 Z " />
<glyph glyph-name="uni2032" unicode="&#x2032;" horiz-adv-x="171" d="M39 501 L88 501 L132 715 L83 715 L39 501 Z " />
<glyph glyph-name="uni2033" unicode="&#x2033;" horiz-adv-x="296" d="M164 501 L213 501 L257 715 L208 715 L164 501 Z M39 501 L88 501 L132 715 L83 715 L39 501 Z " />
<glyph glyph-name="guilsinglleft" unicode="&#x2039;" horiz-adv-x="254" d="M194 126 L194 188 L91 270 L91 272 L194 355 L194 417 L60 305 L60 238 L194 126 Z " />
<glyph glyph-name="guilsinglright" unicode="&#x203a;" horiz-adv-x="254" d="M60 417 L60 355 L163 273 L163 271 L60 188 L60 126 L194 238 L194 305 L60 417 Z " />
<glyph glyph-name="fraction" unicode="&#x2044;" horiz-adv-x="193" d="M-186 0 L-133 0 L379 715 L326 715 L-186 0 Z " />
<glyph glyph-name="Euro" unicode="&#x20ac;" horiz-adv-x="600" d="M22 382 L87 382 C86 369 86 355 86 342 C86 327 86 313 87 300 L22 300 L22 259 L91 259 C112 94 198 -13 335 -13 C471 -13 555 91 566 249 L517 249 C506 127 450 32 335 32 C221 32 161 126 144 259 L359 259 L359 300 L140 300 C139 313 139 327 139 342 C139 355 139 369 140 382 L359 382 L359 423 L143 423 C159 559 218 655 338 655 C433 655 484 597 502 498 L552 498 C530 626 451 699 338 699 C200 699 112 589 91 423 L22 423 L22 382 Z " />
<glyph glyph-name="uni2113" unicode="&#x2113;" horiz-adv-x="303" d="M268 588 C268 687 230 723 174 723 C106 723 73 674 73 601 L73 222 C57 215 39 209 19 203 L19 163 C38 167 56 173 73 180 L73 108 C73 28 109 -4 177 -4 C201 -4 223 1 243 12 L243 54 L240 54 C228 45 204 38 182 38 C135 38 122 63 122 113 L122 207 C219 272 268 395 268 588 L268 588 Z M122 601 C122 662 143 684 174 684 C204 684 223 663 223 588 C223 438 196 341 145 278 C137 269 130 261 122 254 L122 601 Z " />
<glyph glyph-name="trademark" unicode="&#x2122;" horiz-adv-x="634" d="M308 429 L346 429 L346 666 L348 666 C348 666 365 608 379 569 L426 429 L466 429 L513 569 C527 611 544 666 544 666 L546 666 L546 429 L584 429 L584 715 L524 715 L447 479 L446 479 L367 715 L308 715 L308 429 Z M34 679 L127 679 L127 429 L167 429 L167 679 L260 679 L260 715 L34 715 L34 679 Z " />
<glyph glyph-name="Omega" unicode="&#x2126;" horiz-adv-x="690" d="M88 371 C88 548 177 682 344 682 C511 682 602 548 602 371 C602 227 535 96 401 48 L401 0 L652 0 L652 46 L480 46 L480 48 C587 103 656 223 656 371 C656 583 530 729 344 729 C158 729 34 583 34 371 C34 223 103 103 210 48 L210 46 L38 46 L38 0 L289 0 L289 48 C161 97 88 227 88 371 L88 371 Z " />
<glyph glyph-name="estimated" unicode="&#x212e;" horiz-adv-x="621" d="M591 301 C592 416 568 506 495 568 C451 605 393 627 322 627 C150 627 29 496 29 309 C29 121 137 -11 327 -11 C474 -11 561 72 587 186 L545 186 C514 85 445 27 327 27 C250 27 198 48 160 86 L160 301 L591 301 Z M322 592 C384 592 433 573 463 544 L463 335 L160 335 L160 531 C194 567 251 592 322 592 L322 592 Z " />
<glyph glyph-name="onethird" unicode="&#x2153;" horiz-adv-x="783" d="M126 317 L172 317 L172 718 L135 718 C127 664 97 645 38 644 L38 612 L126 612 L126 317 Z M60 0 L113 0 L625 715 L572 715 L60 0 Z M609 -8 C687 -8 745 35 745 110 C745 162 720 197 670 212 L670 214 C705 227 730 255 730 300 C730 366 678 406 609 406 C527 406 480 354 479 280 L523 280 C524 331 553 370 608 370 C652 370 684 344 684 299 C684 256 655 229 606 229 L579 229 L579 192 L607 192 C664 192 697 163 697 113 C697 62 665 31 607 31 C550 31 514 64 512 124 L466 124 C465 43 525 -8 609 -8 L609 -8 Z " />
<glyph glyph-name="twothirds" unicode="&#x2154;" horiz-adv-x="829" d="M655 -8 C733 -8 791 35 791 110 C791 162 766 197 716 212 L716 214 C751 227 776 255 776 300 C776 366 724 406 655 406 C573 406 526 354 525 280 L569 280 C570 331 599 370 654 370 C698 370 730 344 730 299 C730 256 701 229 652 229 L625 229 L625 192 L653 192 C710 192 743 163 743 113 C743 62 711 31 653 31 C596 31 560 64 558 124 L512 124 C511 43 571 -8 655 -8 L655 -8 Z M36 317 L302 317 L302 356 L92 356 C100 407 149 436 191 462 C247 496 304 527 304 605 C304 671 256 723 180 723 C103 723 47 676 47 586 L91 586 C93 651 126 684 179 684 C226 684 257 656 257 604 C257 545 214 525 161 491 C102 453 39 412 36 317 L36 317 Z M139 0 L192 0 L704 715 L651 715 L139 0 Z " />
<glyph glyph-name="oneeighth" unicode="&#x215b;" horiz-adv-x="760" d="M126 317 L172 317 L172 718 L135 718 C127 664 97 645 38 644 L38 612 L126 612 L126 317 Z M50 0 L103 0 L615 715 L562 715 L50 0 Z M579 -6 C657 -6 723 35 723 115 C723 166 690 205 645 219 L645 221 C682 237 703 266 703 306 C703 365 653 408 578 408 C507 408 453 367 453 305 C453 265 474 236 510 220 L510 218 C466 202 434 167 434 114 C434 36 502 -6 579 -6 L579 -6 Z M579 31 C517 31 481 66 481 114 C481 164 517 199 578 199 C640 199 676 164 676 114 C676 67 639 31 579 31 L579 31 Z M578 234 C526 234 499 265 499 303 C499 342 527 372 578 372 C630 372 658 342 658 303 C658 265 629 234 578 234 L578 234 Z " />
<glyph glyph-name="threeeighths" unicode="&#x215c;" horiz-adv-x="833" d="M176 309 C254 309 312 352 312 427 C312 479 287 514 237 529 L237 531 C272 544 297 572 297 617 C297 683 245 723 176 723 C94 723 47 671 46 597 L90 597 C91 648 120 687 175 687 C219 687 251 661 251 616 C251 573 222 546 173 546 L146 546 L146 509 L174 509 C231 509 264 480 264 430 C264 379 232 348 174 348 C117 348 81 381 79 441 L33 441 C32 360 92 309 176 309 L176 309 Z M128 0 L181 0 L693 715 L640 715 L128 0 Z M652 -6 C730 -6 796 35 796 115 C796 166 763 205 718 219 L718 221 C755 237 776 266 776 306 C776 365 726 408 651 408 C580 408 526 367 526 305 C526 265 547 236 583 220 L583 218 C539 202 507 167 507 114 C507 36 575 -6 652 -6 L652 -6 Z M652 31 C590 31 554 66 554 114 C554 164 590 199 651 199 C713 199 749 164 749 114 C749 67 712 31 652 31 L652 31 Z M651 234 C599 234 572 265 572 303 C572 342 600 372 651 372 C703 372 731 342 731 303 C731 265 702 234 651 234 L651 234 Z " />
<glyph glyph-name="fiveeighths" unicode="&#x215d;" horiz-adv-x="820" d="M169 309 C249 309 304 365 304 445 C304 531 245 578 180 578 C140 578 114 566 93 548 L92 548 L112 675 L285 675 L285 715 L79 715 L45 502 L88 502 C102 523 128 539 171 539 C221 539 257 504 257 446 C257 388 224 349 168 349 C114 349 85 377 79 424 L33 424 C38 355 93 309 169 309 L169 309 Z M122 0 L175 0 L687 715 L634 715 L122 0 Z M639 -6 C717 -6 783 35 783 115 C783 166 750 205 705 219 L705 221 C742 237 763 266 763 306 C763 365 713 408 638 408 C567 408 513 367 513 305 C513 265 534 236 570 220 L570 218 C526 202 494 167 494 114 C494 36 562 -6 639 -6 L639 -6 Z M639 31 C577 31 541 66 541 114 C541 164 577 199 638 199 C700 199 736 164 736 114 C736 67 699 31 639 31 L639 31 Z M638 234 C586 234 559 265 559 303 C559 342 587 372 638 372 C690 372 718 342 718 303 C718 265 689 234 638 234 L638 234 Z " />
<glyph glyph-name="seveneighths" unicode="&#x215e;" horiz-adv-x="774" d="M593 -6 C671 -6 737 35 737 115 C737 166 704 205 659 219 L659 221 C696 237 717 266 717 306 C717 365 667 408 592 408 C521 408 467 367 467 305 C467 265 488 236 524 220 L524 218 C480 202 448 167 448 114 C448 36 516 -6 593 -6 L593 -6 Z M51 0 L104 0 L616 715 L563 715 L51 0 Z M141 317 C153 470 217 598 294 676 L294 715 L28 715 L28 675 L246 675 L246 674 C172 596 101 457 94 317 L141 317 Z M593 31 C531 31 495 66 495 114 C495 164 531 199 592 199 C654 199 690 164 690 114 C690 67 653 31 593 31 L593 31 Z M592 234 C540 234 513 265 513 303 C513 342 541 372 592 372 C644 372 672 342 672 303 C672 265 643 234 592 234 L592 234 Z " />
<glyph glyph-name="partialdiff" unicode="&#x2202;" horiz-adv-x="495" d="M411 396 C378 455 321 483 255 483 C124 483 30 371 30 214 C30 84 107 -12 235 -12 C386 -12 465 117 465 307 C465 483 393 694 123 720 L123 677 C323 654 389 515 411 396 L411 396 Z M84 215 C84 347 148 439 255 439 C356 439 411 363 411 264 C411 140 347 30 235 30 C125 30 84 127 84 215 L84 215 Z " />
<glyph glyph-name="Delta" unicode="&#x2206;" horiz-adv-x="624" d="M22 0 L602 0 L602 41 L341 715 L282 715 L22 41 L22 0 Z M273 557 C290 602 310 663 310 663 L312 663 C312 663 335 598 351 557 L547 44 L76 44 L273 557 Z " />
<glyph glyph-name="product" unicode="&#x220f;" horiz-adv-x="636" d="M517 668 L517 -100 L569 -100 L569 715 L67 715 L67 -100 L119 -100 L119 668 L517 668 Z " />
<glyph glyph-name="summation" unicode="&#x2211;" horiz-adv-x="574" d="M538 -100 L538 -55 L105 -55 L105 -53 L408 314 L408 345 L105 667 L105 669 L538 669 L538 715 L42 715 L42 663 L357 329 L357 327 L42 -60 L42 -100 L538 -100 Z " />
<glyph glyph-name="minus" unicode="&#x2212;" horiz-adv-x="510" d="M56 303 L454 303 L454 349 L56 349 L56 303 Z " />
<glyph glyph-name="uni2215" unicode="&#x2215;" horiz-adv-x="193" d="M-186 0 L-133 0 L379 715 L326 715 L-186 0 Z " />
<glyph glyph-name="uni2219" unicode="&#x2219;" horiz-adv-x="143" d="M41 271 L102 271 L102 350 L41 350 L41 271 Z " />
<glyph glyph-name="radical" unicode="&#x221a;" horiz-adv-x="554" d="M12 260 L87 260 L232 -100 L287 -100 L543 715 L493 715 L298 92 C280 36 260 -44 260 -44 L258 -44 C258 -44 234 31 212 87 L127 304 L12 304 L12 260 Z " />
<glyph glyph-name="infinity" unicode="&#x221e;" horiz-adv-x="715" d="M188 134 C270 134 319 194 360 261 C401 194 447 134 526 134 C620 134 677 203 677 305 C677 406 620 475 526 475 C447 475 401 415 360 348 C319 415 270 475 188 475 C86 475 38 396 38 305 C38 213 86 134 188 134 L188 134 Z M188 434 C255 434 295 372 335 304 C295 237 255 176 188 176 C119 176 88 234 88 305 C88 375 119 434 188 434 L188 434 Z M526 176 C463 176 426 237 386 304 C426 372 463 434 526 434 C595 434 627 375 627 305 C627 234 595 176 526 176 L526 176 Z " />
<glyph glyph-name="integral" unicode="&#x222b;" horiz-adv-x="369" d="M209 622 C209 674 237 698 276 698 C294 698 315 693 326 687 L329 687 L329 730 C310 738 292 741 271 741 C207 741 160 697 160 621 L160 -57 C160 -109 132 -133 93 -133 C75 -133 54 -128 43 -122 L40 -122 L40 -165 C59 -173 77 -176 98 -176 C162 -176 209 -132 209 -56 L209 622 Z " />
<glyph glyph-name="approxequal" unicode="&#x2248;" horiz-adv-x="510" d="M352 332 C416 332 454 367 459 434 L414 434 C411 397 388 378 351 378 C286 378 216 430 153 430 C95 430 57 395 51 328 L97 328 C100 364 121 384 153 384 C205 384 281 332 352 332 L352 332 Z M352 187 C416 187 454 222 459 289 L414 289 C411 252 388 233 351 233 C286 233 216 285 153 285 C95 285 57 250 51 183 L97 183 C100 219 121 239 153 239 C205 239 281 187 352 187 L352 187 Z " />
<glyph glyph-name="notequal" unicode="&#x2260;" horiz-adv-x="510" d="M56 361 L256 361 L207 257 L56 257 L56 211 L186 211 L128 88 L176 88 L234 211 L454 211 L454 257 L255 257 L304 361 L454 361 L454 407 L326 407 L382 525 L334 525 L278 407 L56 407 L56 361 Z " />
<glyph glyph-name="lessequal" unicode="&#x2264;" horiz-adv-x="491" d="M437 117 L437 166 L94 310 L94 312 L437 457 L437 506 L50 340 L50 283 L437 117 Z M50 0 L437 0 L437 46 L50 46 L50 0 Z " />
<glyph glyph-name="greaterequal" unicode="&#x2265;" horiz-adv-x="491" d="M54 506 L54 457 L397 313 L397 311 L54 166 L54 117 L441 283 L441 340 L54 506 Z M54 0 L441 0 L441 46 L54 46 L54 0 Z " />
<glyph glyph-name="uni24C5" unicode="&#x24c5;" horiz-adv-x="812" d="M406 -17 C610 -17 770 141 770 355 C770 569 610 728 406 728 C202 728 42 569 42 355 C42 141 202 -17 406 -17 L406 -17 Z M406 15 C219 15 82 159 82 355 C82 551 219 696 406 696 C593 696 730 551 730 355 C730 159 593 15 406 15 L406 15 Z M274 136 L322 136 L322 317 L442 317 C531 317 579 362 579 441 C579 478 568 507 547 528 C524 552 491 565 444 565 L274 565 L274 136 Z M322 523 L439 523 C498 523 531 494 531 441 C531 389 503 357 436 357 L322 357 L322 523 Z " />
<glyph glyph-name="lozenge" unicode="&#x25ca;" horiz-adv-x="520" d="M485 356 L284 715 L235 715 L35 357 L236 0 L285 0 L485 356 Z M260 52 L90 358 L258 663 L260 663 L430 355 L262 52 L260 52 Z " />
<glyph glyph-name="uniF8FF" unicode="&#xf8ff;" horiz-adv-x="846" d="M65 0 L781 0 L781 716 L65 716 L65 0 Z M183 431 L351 431 L351 594 L495 594 L495 431 L663 431 L663 287 L495 287 L495 118 L351 118 L351 287 L183 287 L183 431 Z " />
<glyph glyph-name="f_f" unicode="&#xfb00;" horiz-adv-x="462" d="M299 0 L348 0 L348 476 L444 476 L444 517 L348 517 L348 614 C348 652 362 676 413 676 L441 676 L441 719 L410 719 C336 719 299 684 299 615 L299 517 L138 517 L138 610 C138 648 152 672 203 672 L231 672 L231 715 L200 715 C126 715 89 680 89 611 L89 517 L12 517 L12 476 L89 476 L89 0 L138 0 L138 476 L299 476 L299 0 Z " />
<glyph glyph-name="fi" unicode="&#xfb01;" horiz-adv-x="401" d="M12 476 L89 476 L89 0 L138 0 L138 476 L234 476 L234 517 L138 517 L138 614 C138 652 152 676 203 676 L231 676 L231 719 L200 719 C126 719 89 684 89 615 L89 517 L12 517 L12 476 Z M299 0 L348 0 L348 517 L299 517 L299 0 Z M299 635 L348 635 L348 715 L299 715 L299 635 Z " />
<glyph glyph-name="fl" unicode="&#xfb02;" horiz-adv-x="401" d="M12 476 L89 476 L89 0 L138 0 L138 476 L234 476 L234 517 L138 517 L138 614 C138 652 152 676 203 676 L231 676 L231 719 L200 719 C126 719 89 684 89 615 L89 517 L12 517 L12 476 Z M299 0 L348 0 L348 715 L299 715 L299 0 Z " />
<glyph glyph-name="f_f_i" unicode="&#xfb03;" horiz-adv-x="611" d="M299 0 L348 0 L348 476 L444 476 L444 517 L348 517 L348 614 C348 652 362 676 413 676 L441 676 L441 719 L410 719 C336 719 299 684 299 615 L299 517 L138 517 L138 610 C138 648 152 672 203 672 L231 672 L231 715 L200 715 C126 715 89 680 89 611 L89 517 L12 517 L12 476 L89 476 L89 0 L138 0 L138 476 L299 476 L299 0 Z M509 0 L558 0 L558 517 L509 517 L509 0 Z M509 635 L558 635 L558 715 L509 715 L509 635 Z " />
<glyph glyph-name="f_f_l" unicode="&#xfb04;" horiz-adv-x="611" d="M299 0 L348 0 L348 476 L444 476 L444 517 L348 517 L348 614 C348 652 362 676 413 676 L441 676 L441 719 L410 719 C336 719 299 684 299 615 L299 517 L138 517 L138 610 C138 648 152 672 203 672 L231 672 L231 715 L200 715 C126 715 89 680 89 611 L89 517 L12 517 L12 476 L89 476 L89 0 L138 0 L138 476 L299 476 L299 0 Z M509 0 L558 0 L558 715 L509 715 L509 0 Z " />
</font>
</svg>
