<?xml version="1.0" encoding="utf-8"?>
<!-- Generator: Adobe Illustrator 23.0.4, SVG Export Plug-In . SVG Version: 6.00 Build 0)  -->
<svg class="master" version="1.0" id="Layer_1" xmlns="http://www.w3.org/2000/svg" xmlns:xlink="http://www.w3.org/1999/xlink" x="0px" y="0px"
	 viewBox="0 0 110.2 89.9" style="enable-background:new 0 0 110.2 89.9;" xml:space="preserve">
	<symbol id="logo">
<g>
	<g>
		<defs>
			<rect id="SVGID_1_" y="0" width="110.2" height="90.1"/>
		</defs>
		<clipPath id="SVGID_2_">
			<use xlink:href="#SVGID_1_"  style="overflow:visible;"/>
		</clipPath>
		<path style="clip-path:url(#SVGID_2_);fill:#C59253;" d="M6.3,82.3h1l3.5,5.3c0.3,0.4,0.6,1,0.6,1h0v-6.3h0.9v7.6h-1l-3.5-5.3
			c-0.2-0.4-0.6-0.9-0.6-0.9h0v6.2H6.3V82.3z"/>
		<polygon style="clip-path:url(#SVGID_2_);fill:#C59253;" points="17.1,82.3 23.1,82.3 23.1,83.2 20.6,83.2 20.6,89.9 19.6,89.9 
			19.6,83.2 17.1,83.2 		"/>
		<polygon style="clip-path:url(#SVGID_2_);fill:#C59253;" points="28.4,82.3 33.8,82.3 33.8,83.2 29.4,83.2 29.4,85.6 33.4,85.6 
			33.4,86.4 29.4,86.4 29.4,89 33.9,89 33.9,89.9 28.4,89.9 		"/>
		<path style="clip-path:url(#SVGID_2_);fill:#C59253;" d="M40.1,82.3h3.6c1.3,0,2.2,0.8,2.2,2.1c0,0.9-0.4,1.6-1.3,1.9v0
			c0.8,0.3,1,0.8,1.1,1.9c0.1,1.2,0.2,1.5,0.4,1.6v0h-1c-0.2-0.1-0.2-0.4-0.3-1.7c-0.1-1.1-0.5-1.5-1.5-1.5h-2.1v3.2h-1V82.3z
			 M41.1,85.9h2.3c1.1,0,1.6-0.5,1.6-1.4c0-0.9-0.4-1.4-1.5-1.4h-2.3V85.9z"/>
		<path style="clip-path:url(#SVGID_2_);fill:#C59253;" d="M54.5,82.3h1.1l2.8,7.6h-1l-0.8-2.3h-3l-0.8,2.3h-1L54.5,82.3z
			 M53.7,86.8h2.5l-0.9-2.6c-0.1-0.4-0.3-1.1-0.3-1.1h0c0,0-0.2,0.6-0.4,1.1L53.7,86.8z"/>
		<path style="clip-path:url(#SVGID_2_);fill:#C59253;" d="M63.5,86.1c0-2.2,1.3-4,3.6-4c1.8,0,2.9,1,3.1,2.4h-0.9
			c-0.2-0.9-0.9-1.6-2.1-1.6c-1.7,0-2.6,1.4-2.6,3.1c0,1.9,1,3.1,2.6,3.1c1.4,0,2.1-1,2.2-2.1h0.9c0,0.8-0.4,1.6-0.9,2.1
			c-0.5,0.5-1.3,0.8-2.3,0.8C65,90.1,63.5,88.4,63.5,86.1"/>
		<polygon style="clip-path:url(#SVGID_2_);fill:#C59253;" points="75.3,82.3 81.4,82.3 81.4,83.2 78.8,83.2 78.8,89.9 77.9,89.9 
			77.9,83.2 75.3,83.2 		"/>
		<rect x="86.7" y="82.3" style="clip-path:url(#SVGID_2_);fill:#C59253;" width="1" height="7.6"/>
		<path style="clip-path:url(#SVGID_2_);fill:#C59253;" d="M93.4,82.3h1l1.9,5.7c0.1,0.4,0.3,1,0.3,1h0c0,0,0.2-0.7,0.3-1l1.9-5.7h1
			l-2.7,7.6h-1.1L93.4,82.3z"/>
		<polygon style="clip-path:url(#SVGID_2_);fill:#C59253;" points="104.7,82.3 110,82.3 110,83.2 105.6,83.2 105.6,85.6 109.6,85.6 
			109.6,86.4 105.6,86.4 105.6,89 110.2,89 110.2,89.9 104.7,89.9 		"/>
		<polyline style="clip-path:url(#SVGID_2_);fill:#C59253;" points="53.3,2.2 53.3,2.2 53.3,2.2 53.3,2.2 		"/>
		<path style="clip-path:url(#SVGID_2_);fill:#C59253;" d="M48.6,60.5L27.1,1c-0.2-0.6-0.8-1-1.4-1H12.9c0,0-2.5-0.2-3.7,2.2l0,0
			c0.3-0.4,0.7-0.6,1.2-0.6h12.8c0.6,0,1.2,0.4,1.4,1l21.5,59.5c0.3,0.8-0.2,1.7-1,1.9c1.5-0.2,2.7-1.5,3.2-2
			c0.1-0.1,0.1-0.1,0.2-0.2c0,0,0,0,0,0l0,0C48.7,61.5,48.8,61,48.6,60.5"/>
		<path style="clip-path:url(#SVGID_2_);fill:#C59253;" d="M13,40.4c-1,0-1.7-1-1.4-2c0,0,5.2-17.2,6.1-20.9l-1-3.8h-0.2L9.1,40
			c-0.3,1,0.4,2,1.4,2h11.9c0.9,0,1.6-0.8,1.5-1.7H13z"/>
		<path style="clip-path:url(#SVGID_2_);fill:#C59253;" d="M4.7,53.3l-3.2,9.9c-0.2,0.5-0.6,0.9-1.1,1c0.2,0,0.5-0.1,0.7-0.2
			c0,0,0,0,0.1,0c0.4-0.2,0.9-0.4,1.2-0.7c0.7-0.5,1.4-1.2,1.7-2l0,0l0,0l0,0L4.5,60l2.5-7.8H6.1C5.5,52.3,4.9,52.7,4.7,53.3"/>
		<path style="clip-path:url(#SVGID_2_);fill:#C59253;" d="M109.8,60.2L91.1,31.1c-0.3-0.5-0.3-1.1,0-1.6l16.8-27.2
			c0.6-1-0.1-2.3-1.3-2.3h-12c-0.4,0-1,0-1.7,0.4c-0.6,0.3-1.4,0.8-2,1.8c0.3-0.3,0.7-0.5,1.1-0.5H104c1.2,0,1.9,1.3,1.3,2.3
			L88.5,30.6c-0.3,0.5-0.3,1.1,0,1.6l18.7,29.7c0.5,0.8,0.2,1.8-0.6,2.1c0.4-0.1,1-0.3,1.5-0.7l0,0c0.1-0.1,0.2-0.1,0.3-0.2l0,0
			c0.6-0.4,1.3-1,1.5-1.7l0,0C110,61,110,60.6,109.8,60.2"/>
		<path style="clip-path:url(#SVGID_2_);fill:#C59253;" d="M79.1,40.4L66.7,63.5c-0.2,0.3-0.5,0.6-0.9,0.7c0.5-0.1,0.9-0.2,1.3-0.5
			c0.3-0.2,0.6-0.3,0.8-0.5c0.1-0.1,0.3-0.2,0.4-0.3c0.3-0.3,0.6-0.6,0.9-1c0,0,9.6-17,10.9-19.7c-0.1-0.2-0.1-0.3-0.2-0.5l-0.6-1.2
			H79.1z"/>
		<path style="clip-path:url(#SVGID_2_);fill:#C59253;" d="M67.2,1.7c0.5,0,1,0.3,1.3,0.7l10.9,20.4h0.2l0.1-0.1
			c0.2-0.4,0.8-1.5,1.5-3L70.9,0.7C70.6,0.3,70.1,0,69.6,0H57c0,0-0.9-0.2-3.3,1.9c0.2-0.1,0.5-0.2,0.8-0.2H67.2z"/>
		<path style="clip-path:url(#SVGID_2_);fill:#C59253;" d="M53.3,2.2c0.1-0.1,0.3-0.2,0.4-0.3C53.5,2,53.4,2.1,53.3,2.2"/>
		<path style="clip-path:url(#SVGID_2_);fill:#C59253;" d="M79.9,41.6c-0.4-0.8-0.6-1.2-0.6-1.2L79.9,41.6z"/>
		<path style="clip-path:url(#SVGID_2_);fill:#C59253;" d="M79.7,22.6l-0.1,0.1C79.6,22.8,79.6,22.7,79.7,22.6"/>
		<rect y="82.3" style="clip-path:url(#SVGID_2_);fill:#C59253;" width="1" height="7.6"/>
	</g>
</g>
</symbol>
</svg>
